<svg width="48" height="48" viewBox="0 0 48 48" fill="none" xmlns="http://www.w3.org/2000/svg">
  <path
    d="M42 9.375H6C5.30381 9.375 4.63613 9.65156 4.14384 10.1438C3.65156 10.6361 3.375 11.3038 3.375 12V16.5C3.375 17.1962 3.65156 17.8639 4.14384 18.3562C4.63613 18.8484 5.30381 19.125 6 19.125H6.375V36C6.375 36.6962 6.65156 37.3639 7.14384 37.8562C7.63613 38.3484 8.30381 38.625 9 38.625H39C39.6962 38.625 40.3639 38.3484 40.8562 37.8562C41.3484 37.3639 41.625 36.6962 41.625 36V19.125H42C42.6962 19.125 43.3639 18.8484 43.8562 18.3562C44.3484 17.8639 44.625 17.1962 44.625 16.5V12C44.625 11.3038 44.3484 10.6361 43.8562 10.1438C43.3639 9.65156 42.6962 9.375 42 9.375ZM39.375 36C39.375 36.0995 39.3355 36.1948 39.2652 36.2652C39.1948 36.3355 39.0995 36.375 39 36.375H9C8.90054 36.375 8.80516 36.3355 8.73483 36.2652C8.66451 36.1948 8.625 36.0995 8.625 36V19.125H39.375V36ZM42.375 16.5C42.375 16.5995 42.3355 16.6948 42.2652 16.7652C42.1948 16.8355 42.0995 16.875 42 16.875H6C5.90054 16.875 5.80516 16.8355 5.73484 16.7652C5.66451 16.6948 5.625 16.5995 5.625 16.5V12C5.625 11.9005 5.66451 11.8052 5.73484 11.7348C5.80516 11.6645 5.90054 11.625 6 11.625H42C42.0995 11.625 42.1948 11.6645 42.2652 11.7348C42.3355 11.8052 42.375 11.9005 42.375 12V16.5ZM18.375 25.5C18.375 25.2016 18.4935 24.9155 18.7045 24.7045C18.9155 24.4935 19.2016 24.375 19.5 24.375H28.5C28.7984 24.375 29.0845 24.4935 29.2955 24.7045C29.5065 24.9155 29.625 25.2016 29.625 25.5C29.625 25.7984 29.5065 26.0845 29.2955 26.2955C29.0845 26.5065 28.7984 26.625 28.5 26.625H19.5C19.2016 26.625 18.9155 26.5065 18.7045 26.2955C18.4935 26.0845 18.375 25.7984 18.375 25.5Z"
    fill="black" fill-opacity="0.4" />
</svg>