<svg width="31" height="31" viewBox="0 0 31 31" fill="none" xmlns="http://www.w3.org/2000/svg">
  <path
    d="M10.6335 27.3529C11.4382 26.5467 11.9445 25.4905 12.0691 24.3582C12.1544 23.6117 12.0696 22.8555 11.821 22.1464C11.5724 21.4373 11.1664 20.7937 10.6335 20.264C9.99047 19.6181 9.18049 19.1639 8.29411 18.952C7.45637 18.7394 6.57767 18.7486 5.7446 18.9789C4.91153 19.2092 4.15282 19.6525 3.54323 20.2653C2.67931 21.1208 2.16481 22.2673 2.09995 23.4814C2.05488 23.9861 2.09995 24.5089 2.23256 25.0136C2.43598 25.8736 2.87888 26.6886 3.54323 27.3529C4.0087 27.8187 4.56136 28.1881 5.16965 28.4402C5.77794 28.6922 6.42992 28.8219 7.08837 28.8219C7.74681 28.8219 8.3988 28.6922 9.00708 28.4402C9.61537 28.1881 10.168 27.8187 10.6335 27.3529ZM8.96747 22.8866C9.48118 22.8866 9.90735 23.3115 9.90735 23.8265C9.90401 24.077 9.80292 24.3163 9.62565 24.4933C9.44839 24.6703 9.20897 24.7711 8.95846 24.7741L8.0276 24.7651L8.03661 25.6612C8.03328 25.9115 7.93237 26.1505 7.75538 26.3275C7.57839 26.5045 7.33929 26.6054 7.08901 26.6088C6.8385 26.6058 6.59908 26.505 6.42181 26.328C6.24455 26.151 6.14346 25.9117 6.14012 25.6612L6.14913 24.7651L5.21827 24.7741C4.96799 24.7708 4.7289 24.6698 4.5519 24.4929C4.37491 24.3159 4.274 24.0768 4.27067 23.8265C4.27841 23.5797 4.37992 23.3451 4.55453 23.1705C4.72914 22.9959 4.96373 22.8943 5.21055 22.8866H6.14913V21.912C6.14913 21.6467 6.256 21.4163 6.42337 21.2476C6.59203 21.0802 6.8225 20.9734 7.08901 20.9734C7.60272 20.9734 8.02888 21.3983 8.02888 21.9133V22.8866H8.96747ZM19.4348 4.95045V9.7142H17.5551V4.95045C17.5551 4.61312 17.2551 4.44961 17.053 4.44961C16.9889 4.45048 16.9255 4.46359 16.8663 4.48823L6.92678 8.23357C6.60388 8.35516 6.32612 8.573 6.13108 8.85762C5.93604 9.14224 5.83313 9.4799 5.83627 9.82492V10.6644C5.25159 11.1011 4.77711 11.6685 4.45074 12.3213C4.12436 12.974 3.95512 13.6941 3.95652 14.4239V9.82621C3.95652 8.33528 4.87065 7.00658 6.26243 6.48L16.2135 2.7205C16.5742 2.58596 16.962 2.54064 17.3439 2.58838C17.7258 2.63612 18.0906 2.77552 18.407 2.99469C18.7234 3.21386 18.9821 3.50629 19.1611 3.84706C19.3401 4.18783 19.434 4.56554 19.4348 4.95045ZM27.7714 18.1744V19.4271C27.7718 19.5915 27.7074 19.7494 27.5922 19.8668C27.4771 19.9841 27.3204 20.0514 27.156 20.0541H25.3264C24.6621 20.0541 24.0608 19.5649 24.0106 18.9134C23.9935 18.7298 24.0172 18.5447 24.08 18.3713C24.1427 18.1979 24.243 18.0405 24.3737 17.9104C24.4873 17.7929 24.6239 17.7 24.775 17.6375C24.926 17.5751 25.0883 17.5444 25.2518 17.5473H27.1444C27.5075 17.5602 27.7714 17.8357 27.7714 18.1744Z"
    fill="#34DBFF" />
  <path
    d="M25.2376 16.2276H26.5161C26.848 16.2266 27.166 16.0943 27.4008 15.8596C27.6355 15.6249 27.7678 15.3068 27.7688 14.9749V14.4239C27.7661 13.1749 27.2687 11.9779 26.3856 11.0948C25.5025 10.2117 24.3055 9.71433 23.0565 9.71161H8.67002C7.60526 9.71161 6.62676 10.0631 5.83752 10.6644C5.25284 11.1011 4.77836 11.6685 4.45199 12.3213C4.12561 12.974 3.95637 13.6941 3.95777 14.4239V16.6538C3.95777 17.1302 4.4599 17.4315 4.91052 17.2808C5.61286 17.0416 6.3496 16.919 7.09155 16.9177C8.91837 16.9212 10.6694 17.6484 11.9612 18.9401C13.2529 20.2319 13.9801 21.9829 13.9835 23.8097C13.9835 24.7123 13.7453 25.7024 13.3694 26.5791C13.1685 27.0298 13.4827 27.5705 13.9707 27.5705H23.0565C24.3055 27.5678 25.5025 27.0705 26.3856 26.1873C27.2687 25.3042 27.7661 24.1072 27.7688 22.8583V22.6201C27.7681 22.2879 27.636 21.9696 27.4012 21.7346C27.1665 21.4996 26.8482 21.3671 26.5161 21.3661H25.4255C24.223 21.3661 23.0694 20.627 22.7566 19.4606C22.6365 19.0244 22.6359 18.564 22.7548 18.1275C22.8737 17.691 23.1078 17.2945 23.4325 16.9795C23.6673 16.7393 23.9482 16.5488 24.2584 16.4196C24.5686 16.2904 24.9016 16.2251 25.2376 16.2276ZM18.37 15.9779H12.1025C11.5888 15.9779 11.1626 15.5517 11.1626 15.038C11.1626 14.523 11.5888 14.0981 12.1025 14.0981H18.3688C18.8825 14.0981 19.3086 14.523 19.3086 15.038C19.3086 15.5517 18.8838 15.9779 18.37 15.9779Z"
    fill="url(#paint0_linear_6815_13397)" />
  <defs>
    <linearGradient id="paint0_linear_6815_13397" x1="18.2591" y1="20.3659" x2="25.2818" y2="30.1977"
      gradientUnits="userSpaceOnUse">
      <stop stop-color="#34DBFF" />
      <stop offset="1" stop-color="#C6FFE5" />
    </linearGradient>
  </defs>
</svg>