<svg width="20" height="20" viewBox="0 0 20 20" fill="none" xmlns="http://www.w3.org/2000/svg">
  <path
    d="M16.6667 1.66663H6.66667C6.22464 1.66663 5.80072 1.84222 5.48816 2.15478C5.17559 2.46734 5 2.89127 5 3.33329V13.3333C5 13.7753 5.17559 14.1992 5.48816 14.5118C5.80072 14.8244 6.22464 15 6.66667 15H16.6667C17.1087 15 17.5326 14.8244 17.8452 14.5118C18.1577 14.1992 18.3333 13.7753 18.3333 13.3333V3.33329C18.3333 2.89127 18.1577 2.46734 17.8452 2.15478C17.5326 1.84222 17.1087 1.66663 16.6667 1.66663ZM11.6667 3.74996C12.2192 3.74996 12.7491 3.96945 13.1398 4.36015C13.5305 4.75085 13.75 5.28076 13.75 5.83329C13.75 6.38583 13.5305 6.91573 13.1398 7.30643C12.7491 7.69713 12.2192 7.91663 11.6667 7.91663C11.1141 7.91663 10.5842 7.69713 10.1935 7.30643C9.80283 6.91573 9.58333 6.38583 9.58333 5.83329C9.58333 5.28076 9.80283 4.75085 10.1935 4.36015C10.5842 3.96945 11.1141 3.74996 11.6667 3.74996ZM15.8333 12.5H7.5V12.2916C7.5 10.7508 9.37833 9.16663 11.6667 9.16663C13.955 9.16663 15.8333 10.7508 15.8333 12.2916V12.5Z"
    fill="black" fill-opacity="1" />
  <path
    d="M3.33317 6.66663H1.6665V16.6666C1.6665 17.5858 2.414 18.3333 3.33317 18.3333H13.3332V16.6666H3.33317V6.66663Z"
    fill="black" fill-opacity="1" />
</svg>