<svg width="18" height="18" viewBox="0 0 18 18" fill="none" xmlns="http://www.w3.org/2000/svg">
  <path
    d="M9 12.375C9.44501 12.375 9.88002 12.243 10.25 11.9958C10.62 11.7486 10.9084 11.3972 11.0787 10.986C11.249 10.5749 11.2936 10.1225 11.2068 9.68605C11.12 9.24959 10.9057 8.84868 10.591 8.53401C10.2763 8.21934 9.87541 8.00505 9.43895 7.91823C9.0025 7.83142 8.5501 7.87597 8.13896 8.04627C7.72783 8.21657 7.37643 8.50496 7.12919 8.87497C6.88196 9.24498 6.75 9.67999 6.75 10.125C6.75 10.7217 6.98705 11.294 7.40901 11.716C7.83097 12.1379 8.40326 12.375 9 12.375ZM9 9C9.2225 9 9.44001 9.06598 9.62502 9.1896C9.81002 9.31321 9.95422 9.48891 10.0394 9.69448C10.1245 9.90005 10.1468 10.1262 10.1034 10.3445C10.06 10.5627 9.95283 10.7632 9.7955 10.9205C9.63816 11.0778 9.43771 11.185 9.21948 11.2284C9.00125 11.2718 8.77505 11.2495 8.56948 11.1644C8.36391 11.0792 8.18821 10.935 8.0646 10.75C7.94098 10.565 7.875 10.3475 7.875 10.125C7.875 9.82663 7.99353 9.54048 8.20451 9.3295C8.41548 9.11853 8.70163 9 9 9ZM7.875 3.375H10.125V4.5H7.875V3.375Z"
    fill="black" />
  <path
    d="M13.5 1.125H4.5C4.20172 1.1253 3.91575 1.24392 3.70483 1.45483C3.49392 1.66575 3.3753 1.95172 3.375 2.25V15.75C3.3753 16.0483 3.49392 16.3343 3.70483 16.5452C3.91575 16.7561 4.20172 16.8747 4.5 16.875H13.5C13.7982 16.8746 14.0841 16.7559 14.295 16.545C14.5059 16.3341 14.6246 16.0482 14.625 15.75V2.25C14.6247 1.95172 14.5061 1.66575 14.2952 1.45483C14.0843 1.24392 13.7983 1.1253 13.5 1.125ZM11.25 15.75H6.75V14.625C6.75 14.4758 6.80926 14.3327 6.91475 14.2273C7.02024 14.1218 7.16332 14.0625 7.3125 14.0625H10.6875C10.8367 14.0625 10.9798 14.1218 11.0852 14.2273C11.1907 14.3327 11.25 14.4758 11.25 14.625V15.75ZM12.375 15.75V14.625C12.375 14.1774 12.1972 13.7482 11.8807 13.4318C11.5643 13.1153 11.1351 12.9375 10.6875 12.9375H7.3125C6.86495 12.9375 6.43572 13.1153 6.11926 13.4318C5.80279 13.7482 5.625 14.1774 5.625 14.625V15.75H4.5V2.25H13.5V15.75H12.375Z"
    fill="black" />
</svg>