<svg width="16" height="16" viewBox="0 0 16 16" fill="none" xmlns="http://www.w3.org/2000/svg">
  <path
    d="M6.5 2.625H3.5C3.26794 2.625 3.04538 2.71719 2.88128 2.88128C2.71719 3.04538 2.625 3.26794 2.625 3.5V6.5C2.625 6.61491 2.64763 6.72869 2.69161 6.83485C2.73558 6.94101 2.80003 7.03747 2.88128 7.11872C2.96253 7.19997 3.05899 7.26442 3.16515 7.30839C3.27131 7.35237 3.38509 7.375 3.5 7.375H6.5C6.61491 7.375 6.72869 7.35237 6.83485 7.30839C6.94101 7.26442 7.03747 7.19997 7.11872 7.11872C7.19997 7.03747 7.26442 6.94101 7.30839 6.83485C7.35237 6.72869 7.375 6.61491 7.375 6.5V3.5C7.375 3.38509 7.35237 3.27131 7.30839 3.16515C7.26442 3.05899 7.19997 2.96253 7.11872 2.88128C7.03747 2.80003 6.94101 2.73558 6.83485 2.69161C6.72869 2.64763 6.61491 2.625 6.5 2.625ZM6.625 6.5C6.625 6.53315 6.61183 6.56495 6.58839 6.58839C6.56495 6.61183 6.53315 6.625 6.5 6.625H3.5C3.46685 6.625 3.43505 6.61183 3.41161 6.58839C3.38817 6.56495 3.375 6.53315 3.375 6.5V3.5C3.375 3.46685 3.38817 3.43505 3.41161 3.41161C3.43505 3.38817 3.46685 3.375 3.5 3.375H6.5C6.53315 3.375 6.56495 3.38817 6.58839 3.41161C6.61183 3.43505 6.625 3.46685 6.625 3.5V6.5ZM6.5 8.625H3.5C3.26794 8.625 3.04538 8.71719 2.88128 8.88128C2.71719 9.04538 2.625 9.26794 2.625 9.5V12.5C2.625 12.7321 2.71719 12.9546 2.88128 13.1187C3.04538 13.2828 3.26794 13.375 3.5 13.375H6.5C6.61491 13.375 6.72869 13.3524 6.83485 13.3084C6.94101 13.2644 7.03747 13.2 7.11872 13.1187C7.19997 13.0375 7.26442 12.941 7.30839 12.8348C7.35237 12.7287 7.375 12.6149 7.375 12.5V9.5C7.375 9.38509 7.35237 9.27131 7.30839 9.16515C7.26442 9.05899 7.19997 8.96253 7.11872 8.88128C7.03747 8.80003 6.94101 8.73558 6.83485 8.69161C6.72869 8.64763 6.61491 8.625 6.5 8.625ZM6.625 12.5C6.625 12.5332 6.61183 12.5649 6.58839 12.5884C6.56495 12.6118 6.53315 12.625 6.5 12.625H3.5C3.46685 12.625 3.43505 12.6118 3.41161 12.5884C3.38817 12.5649 3.375 12.5332 3.375 12.5V9.5C3.375 9.46685 3.38817 9.43505 3.41161 9.41161C3.43505 9.38817 3.46685 9.375 3.5 9.375H6.5C6.53315 9.375 6.56495 9.38817 6.58839 9.41161C6.61183 9.43505 6.625 9.46685 6.625 9.5V12.5ZM12.5 2.625H9.5C9.26794 2.625 9.04538 2.71719 8.88128 2.88128C8.71719 3.04538 8.625 3.26794 8.625 3.5V6.5C8.625 6.61491 8.64763 6.72869 8.69161 6.83485C8.73558 6.94101 8.80003 7.03747 8.88128 7.11872C8.96253 7.19997 9.05899 7.26442 9.16515 7.30839C9.27131 7.35237 9.38509 7.375 9.5 7.375H12.5C12.6149 7.375 12.7287 7.35237 12.8348 7.30839C12.941 7.26442 13.0375 7.19997 13.1187 7.11872C13.2 7.03747 13.2644 6.94101 13.3084 6.83485C13.3524 6.72869 13.375 6.61491 13.375 6.5V3.5C13.375 3.26794 13.2828 3.04538 13.1187 2.88128C12.9546 2.71719 12.7321 2.625 12.5 2.625ZM12.625 6.5C12.625 6.53315 12.6118 6.56495 12.5884 6.58839C12.5649 6.61183 12.5332 6.625 12.5 6.625H9.5C9.46685 6.625 9.43505 6.61183 9.41161 6.58839C9.38817 6.56495 9.375 6.53315 9.375 6.5V3.5C9.375 3.46685 9.38817 3.43505 9.41161 3.41161C9.43505 3.38817 9.46685 3.375 9.5 3.375H12.5C12.5332 3.375 12.5649 3.38817 12.5884 3.41161C12.6118 3.43505 12.625 3.46685 12.625 3.5V6.5ZM8.625 11V9C8.625 8.90054 8.66451 8.80516 8.73483 8.73483C8.80516 8.66451 8.90054 8.625 9 8.625C9.09946 8.625 9.19484 8.66451 9.26517 8.73483C9.33549 8.80516 9.375 8.90054 9.375 9V11C9.375 11.0995 9.33549 11.1948 9.26517 11.2652C9.19484 11.3355 9.09946 11.375 9 11.375C8.90054 11.375 8.80516 11.3355 8.73483 11.2652C8.66451 11.1948 8.625 11.0995 8.625 11ZM13.375 10C13.375 10.0995 13.3355 10.1948 13.2652 10.2652C13.1948 10.3355 13.0995 10.375 13 10.375H11.375V13C11.375 13.0995 11.3355 13.1948 11.2652 13.2652C11.1948 13.3355 11.0995 13.375 11 13.375H9C8.90054 13.375 8.80516 13.3355 8.73483 13.2652C8.66451 13.1948 8.625 13.0995 8.625 13C8.625 12.9005 8.66451 12.8052 8.73483 12.7348C8.80516 12.6645 8.90054 12.625 9 12.625H10.625V9C10.625 8.90054 10.6645 8.80516 10.7348 8.73483C10.8052 8.66451 10.9005 8.625 11 8.625C11.0995 8.625 11.1948 8.66451 11.2652 8.73483C11.3355 8.80516 11.375 8.90054 11.375 9V9.625H13C13.0995 9.625 13.1948 9.66451 13.2652 9.73483C13.3355 9.80516 13.375 9.90054 13.375 10ZM13.375 12V13C13.375 13.0995 13.3355 13.1948 13.2652 13.2652C13.1948 13.3355 13.0995 13.375 13 13.375C12.9005 13.375 12.8052 13.3355 12.7348 13.2652C12.6645 13.1948 12.625 13.0995 12.625 13V12C12.625 11.9005 12.6645 11.8052 12.7348 11.7348C12.8052 11.6645 12.9005 11.625 13 11.625C13.0995 11.625 13.1948 11.6645 13.2652 11.7348C13.3355 11.8052 13.375 11.9005 13.375 12Z"
    fill="black" fill-opacity="1" />
</svg>