<svg width="24" height="24" viewBox="0 0 24 24" fill="none" xmlns="http://www.w3.org/2000/svg">
  <path
    d="M10.358 6H6.98407C6.72308 6 6.47278 6.10368 6.28823 6.28823C6.10368 6.47278 6 6.72308 6 6.98407V10.358C6 10.4873 6.02545 10.6152 6.07491 10.7346C6.12436 10.854 6.19685 10.9625 6.28823 11.0539C6.37961 11.1452 6.48809 11.2177 6.60748 11.2672C6.72688 11.3166 6.85484 11.3421 6.98407 11.3421H10.358C10.4873 11.3421 10.6152 11.3166 10.7346 11.2672C10.854 11.2177 10.9625 11.1452 11.0539 11.0539C11.1452 10.9625 11.2177 10.854 11.2672 10.7346C11.3166 10.6152 11.3421 10.4873 11.3421 10.358V6.98407C11.3421 6.85484 11.3166 6.72688 11.2672 6.60748C11.2177 6.48809 11.1452 6.37961 11.0539 6.28823C10.9625 6.19685 10.854 6.12436 10.7346 6.07491C10.6152 6.02545 10.4873 6 10.358 6ZM10.4986 10.358C10.4986 10.3953 10.4838 10.4311 10.4574 10.4574C10.4311 10.4838 10.3953 10.4986 10.358 10.4986H6.98407C6.94679 10.4986 6.91103 10.4838 6.88466 10.4574C6.8583 10.4311 6.84349 10.3953 6.84349 10.358V6.98407C6.84349 6.94679 6.8583 6.91103 6.88466 6.88466C6.91103 6.8583 6.94679 6.84349 6.98407 6.84349H10.358C10.3953 6.84349 10.4311 6.8583 10.4574 6.88466C10.4838 6.91103 10.4986 6.94679 10.4986 6.98407V10.358ZM10.358 12.7479H6.98407C6.72308 12.7479 6.47278 12.8516 6.28823 13.0361C6.10368 13.2207 6 13.471 6 13.732V17.1059C6 17.3669 6.10368 17.6172 6.28823 17.8018C6.47278 17.9863 6.72308 18.09 6.98407 18.09H10.358C10.4873 18.09 10.6152 18.0645 10.7346 18.0151C10.854 17.9656 10.9625 17.8932 11.0539 17.8018C11.1452 17.7104 11.2177 17.6019 11.2672 17.4825C11.3166 17.3631 11.3421 17.2352 11.3421 17.1059V13.732C11.3421 13.6027 11.3166 13.4748 11.2672 13.3554C11.2177 13.236 11.1452 13.1275 11.0539 13.0361C10.9625 12.9448 10.854 12.8723 10.7346 12.8228C10.6152 12.7734 10.4873 12.7479 10.358 12.7479ZM10.4986 17.1059C10.4986 17.1432 10.4838 17.179 10.4574 17.2053C10.4311 17.2317 10.3953 17.2465 10.358 17.2465H6.98407C6.94679 17.2465 6.91103 17.2317 6.88466 17.2053C6.8583 17.179 6.84349 17.1432 6.84349 17.1059V13.732C6.84349 13.6947 6.8583 13.6589 6.88466 13.6326C6.91103 13.6062 6.94679 13.5914 6.98407 13.5914H10.358C10.3953 13.5914 10.4311 13.6062 10.4574 13.6326C10.4838 13.6589 10.4986 13.6947 10.4986 13.732V17.1059ZM17.1059 6H13.732C13.471 6 13.2207 6.10368 13.0361 6.28823C12.8516 6.47278 12.7479 6.72308 12.7479 6.98407V10.358C12.7479 10.4873 12.7734 10.6152 12.8228 10.7346C12.8723 10.854 12.9448 10.9625 13.0361 11.0539C13.1275 11.1452 13.236 11.2177 13.3554 11.2672C13.4748 11.3166 13.6027 11.3421 13.732 11.3421H17.1059C17.2352 11.3421 17.3631 11.3166 17.4825 11.2672C17.6019 11.2177 17.7104 11.1452 17.8018 11.0539C17.8932 10.9625 17.9656 10.854 18.0151 10.7346C18.0645 10.6152 18.09 10.4873 18.09 10.358V6.98407C18.09 6.72308 17.9863 6.47278 17.8018 6.28823C17.6172 6.10368 17.3669 6 17.1059 6ZM17.2465 10.358C17.2465 10.3953 17.2317 10.4311 17.2053 10.4574C17.179 10.4838 17.1432 10.4986 17.1059 10.4986H13.732C13.6947 10.4986 13.6589 10.4838 13.6326 10.4574C13.6062 10.4311 13.5914 10.3953 13.5914 10.358V6.98407C13.5914 6.94679 13.6062 6.91103 13.6326 6.88466C13.6589 6.8583 13.6947 6.84349 13.732 6.84349H17.1059C17.1432 6.84349 17.179 6.8583 17.2053 6.88466C17.2317 6.91103 17.2465 6.94679 17.2465 6.98407V10.358ZM12.7479 15.419V13.1697C12.7479 13.0578 12.7923 12.9505 12.8714 12.8714C12.9505 12.7923 13.0578 12.7479 13.1697 12.7479C13.2815 12.7479 13.3888 12.7923 13.4679 12.8714C13.547 12.9505 13.5914 13.0578 13.5914 13.1697V15.419C13.5914 15.5308 13.547 15.6381 13.4679 15.7172C13.3888 15.7963 13.2815 15.8407 13.1697 15.8407C13.0578 15.8407 12.9505 15.7963 12.8714 15.7172C12.7923 15.6381 12.7479 15.5308 12.7479 15.419ZM18.09 14.2943C18.09 14.4062 18.0456 14.5134 17.9665 14.5925C17.8874 14.6716 17.7801 14.716 17.6683 14.716H15.8407V17.6683C15.8407 17.7801 15.7963 17.8874 15.7172 17.9665C15.6381 18.0456 15.5308 18.09 15.419 18.09H13.1697C13.0578 18.09 12.9505 18.0456 12.8714 17.9665C12.7923 17.8874 12.7479 17.7801 12.7479 17.6683C12.7479 17.5564 12.7923 17.4491 12.8714 17.37C12.9505 17.2909 13.0578 17.2465 13.1697 17.2465H14.9972V13.1697C14.9972 13.0578 15.0416 12.9505 15.1207 12.8714C15.1998 12.7923 15.3071 12.7479 15.419 12.7479C15.5308 12.7479 15.6381 12.7923 15.7172 12.8714C15.7963 12.9505 15.8407 13.0578 15.8407 13.1697V13.8726H17.6683C17.7801 13.8726 17.8874 13.917 17.9665 13.9961C18.0456 14.0752 18.09 14.1824 18.09 14.2943ZM18.09 16.5436V17.6683C18.09 17.7801 18.0456 17.8874 17.9665 17.9665C17.8874 18.0456 17.7801 18.09 17.6683 18.09C17.5564 18.09 17.4491 18.0456 17.37 17.9665C17.2909 17.8874 17.2465 17.7801 17.2465 17.6683V16.5436C17.2465 16.4318 17.2909 16.3245 17.37 16.2454C17.4491 16.1663 17.5564 16.1219 17.6683 16.1219C17.7801 16.1219 17.8874 16.1663 17.9665 16.2454C18.0456 16.3245 18.09 16.4318 18.09 16.5436Z"
    fill="black" fill-opacity="1" />
</svg>