<svg width="44" height="44" viewBox="0 0 44 44" fill="none" xmlns="http://www.w3.org/2000/svg">
<circle cx="22" cy="22" r="22" fill="white"/>
<g clip-path="url(#clip0_1825_9514)">
<g filter="url(#filter0_d_1825_9514)">
<path d="M15.463 14.433C17.2776 12.8607 19.599 11.9966 22 12C27.523 12 32 16.477 32 22C32 24.136 31.33 26.116 30.19 27.74L27 22H30C30.0001 20.4316 29.5392 18.8978 28.6747 17.5893C27.8101 16.2807 26.5799 15.2552 25.1372 14.6401C23.6944 14.0251 22.1027 13.8477 20.56 14.13C19.0172 14.4123 17.5915 15.1419 16.46 16.228L15.463 14.433ZM28.537 29.567C26.7224 31.1393 24.401 32.0033 22 32C16.477 32 12 27.523 12 22C12 19.864 12.67 17.884 13.81 16.26L17 22H14C13.9999 23.5684 14.4608 25.1022 15.3253 26.4107C16.1899 27.7193 17.4201 28.7448 18.8628 29.3599C20.3056 29.9749 21.8973 30.1523 23.44 29.87C24.9828 29.5877 26.4085 28.8581 27.54 27.772L28.537 29.567Z" fill="black" fill-opacity="0.4" shape-rendering="crispEdges"/>
</g>
</g>
<defs>
<filter id="filter0_d_1825_9514" x="12" y="12" width="22" height="22" filterUnits="userSpaceOnUse" color-interpolation-filters="sRGB">
<feFlood flood-opacity="0" result="BackgroundImageFix"/>
<feColorMatrix in="SourceAlpha" type="matrix" values="0 0 0 0 0 0 0 0 0 0 0 0 0 0 0 0 0 0 127 0" result="hardAlpha"/>
<feOffset dx="1" dy="1"/>
<feGaussianBlur stdDeviation="0.5"/>
<feComposite in2="hardAlpha" operator="out"/>
<feColorMatrix type="matrix" values="0 0 0 0 0 0 0 0 0 0 0 0 0 0 0 0 0 0 0.1 0"/>
<feBlend mode="normal" in2="BackgroundImageFix" result="effect1_dropShadow_1825_9514"/>
<feBlend mode="normal" in="SourceGraphic" in2="effect1_dropShadow_1825_9514" result="shape"/>
</filter>
<clipPath id="clip0_1825_9514">
<rect width="24" height="24" fill="white" transform="translate(10 10)"/>
</clipPath>
</defs>
</svg>
