<svg width="24" height="24" viewBox="0 0 24 24" fill="none" xmlns="http://www.w3.org/2000/svg">
  <path
    d="M14.6667 18V16.6667C14.6667 15.9594 14.3858 15.2811 13.8857 14.781C13.3856 14.281 12.7073 14 12.0001 14H7.33341C6.62617 14 5.94789 14.281 5.4478 14.781C4.9477 15.2811 4.66675 15.9594 4.66675 16.6667V18M17.3334 9.33333V13.3333M19.3334 11.3333H15.3334M12.3334 8.66667C12.3334 10.1394 11.1395 11.3333 9.66675 11.3333C8.19399 11.3333 7.00008 10.1394 7.00008 8.66667C7.00008 7.19391 8.19399 6 9.66675 6C11.1395 6 12.3334 7.19391 12.3334 8.66667Z"
    stroke="black" stroke-opacity="1" stroke-linecap="round" stroke-linejoin="round" />
</svg>