<svg width="25" height="24" viewBox="0 0 25 24" fill="none" xmlns="http://www.w3.org/2000/svg">
<g clip-path="url(#clip0_142_25)">
<path d="M16.5 16C18.157 16 19.5 17.343 19.5 19C19.5 20.657 18.157 22 16.5 22C14.843 22 13.5 20.657 13.5 19C13.5 17.343 14.843 16 16.5 16ZM6.5 12C8.71 12 10.5 13.79 10.5 16C10.5 18.21 8.71 20 6.5 20C4.29 20 2.5 18.21 2.5 16C2.5 13.79 4.29 12 6.5 12ZM16.5 18C15.948 18 15.5 18.448 15.5 19C15.5 19.552 15.948 20 16.5 20C17.052 20 17.5 19.552 17.5 19C17.5 18.448 17.052 18 16.5 18ZM6.5 14C5.395 14 4.5 14.895 4.5 16C4.5 17.105 5.395 18 6.5 18C7.605 18 8.5 17.105 8.5 16C8.5 14.895 7.605 14 6.5 14ZM15 2C18.038 2 20.5 4.462 20.5 7.5C20.5 10.538 18.038 13 15 13C11.962 13 9.5 10.538 9.5 7.5C9.5 4.462 11.962 2 15 2ZM15 4C13.067 4 11.5 5.567 11.5 7.5C11.5 9.433 13.067 11 15 11C16.933 11 18.5 9.433 18.5 7.5C18.5 5.567 16.933 4 15 4Z" fill="black" fill-opacity="0.6"/>
</g>
<defs>
<clipPath id="clip0_142_25">
<rect width="24" height="24" fill="white" transform="translate(0.5)"/>
</clipPath>
</defs>
</svg>
