<svg width="28" height="28" viewBox="0 0 28 28" fill="none" xmlns="http://www.w3.org/2000/svg">
  <g filter="url(#filter0_b_6684_4718)">
    <rect width="28" height="28" rx="14" fill="white" fill-opacity="0.6" />
    <rect x="0.25" y="0.25" width="27.5" height="27.5" rx="13.75" stroke="#DBD8D8" stroke-width="0.5" />
  </g>
  <path
    d="M10.5707 22.4746C11.1437 21.9005 11.5041 21.1486 11.5928 20.3424C11.6536 19.8109 11.5932 19.2725 11.4162 18.7677C11.2392 18.2628 10.9501 17.8046 10.5707 17.4274C10.1129 16.9676 9.53624 16.6442 8.90516 16.4933C8.30871 16.3419 7.6831 16.3485 7.08997 16.5125C6.49685 16.6764 5.95667 16.9921 5.52266 17.4283C4.90757 18.0375 4.54126 18.8537 4.49508 19.7182C4.46299 20.0775 4.49508 20.4497 4.58949 20.809C4.73433 21.4213 5.04966 22.0016 5.52266 22.4746C5.85406 22.8062 6.24754 23.0692 6.68063 23.2486C7.11371 23.4281 7.57791 23.5205 8.0467 23.5205C8.51549 23.5205 8.97969 23.4281 9.41278 23.2486C9.84586 23.0692 10.2393 22.8062 10.5707 22.4746ZM9.38458 19.2947C9.75033 19.2947 10.0537 19.5972 10.0537 19.9638C10.0514 20.1422 9.9794 20.3125 9.85319 20.4386C9.72698 20.5646 9.55651 20.6364 9.37816 20.6385L8.71541 20.6321L8.72183 21.2701C8.71945 21.4483 8.64761 21.6185 8.5216 21.7445C8.39558 21.8705 8.22535 21.9424 8.04716 21.9447C7.86881 21.9426 7.69834 21.8709 7.57213 21.7448C7.44592 21.6188 7.37396 21.4484 7.37158 21.2701L7.37799 20.6321L6.71524 20.6385C6.53705 20.6361 6.36682 20.5643 6.24081 20.4383C6.11479 20.3123 6.04295 20.142 6.04058 19.9638C6.04609 19.7881 6.11836 19.6211 6.24268 19.4968C6.36699 19.3724 6.53402 19.3002 6.70974 19.2947H7.37799V18.6007C7.37799 18.4119 7.45408 18.2478 7.57324 18.1277C7.69333 18.0086 7.85741 17.9325 8.04716 17.9325C8.41291 17.9325 8.71633 18.235 8.71633 18.6017V19.2947H9.38458ZM16.8371 6.52458V9.91625H15.4987V6.52458C15.4987 6.28442 15.2852 6.168 15.1412 6.168C15.0956 6.16862 15.0505 6.17795 15.0083 6.1955L7.93166 8.86208C7.70176 8.94865 7.50401 9.10375 7.36514 9.30639C7.22628 9.50903 7.15301 9.74944 7.15524 9.99508V10.5927C6.73896 10.9037 6.40115 11.3077 6.16878 11.7724C5.93641 12.2372 5.81591 12.7498 5.81691 13.2694V9.996C5.81691 8.9345 6.46774 7.9885 7.45866 7.61358L14.5436 4.93691C14.8003 4.84113 15.0765 4.80886 15.3484 4.84285C15.6203 4.87684 15.88 4.97609 16.1053 5.13213C16.3306 5.28817 16.5148 5.49638 16.6422 5.739C16.7696 5.98162 16.8365 6.25054 16.8371 6.52458ZM22.7725 15.9397V16.8316C22.7728 16.9486 22.7269 17.0611 22.6449 17.1446C22.5629 17.2282 22.4514 17.2761 22.3343 17.278H21.0317C20.5587 17.278 20.1307 16.9297 20.0949 16.4658C20.0827 16.3351 20.0996 16.2033 20.1443 16.0799C20.189 15.9564 20.2604 15.8444 20.3534 15.7517C20.4343 15.6681 20.5315 15.6019 20.6391 15.5575C20.7467 15.513 20.8622 15.4911 20.9786 15.4932H22.3261C22.5846 15.5024 22.7725 15.6986 22.7725 15.9397Z"
    fill="#34DBFF" />
  <path
    d="M20.9685 14.5537H21.8787C22.1151 14.5529 22.3415 14.4587 22.5086 14.2916C22.6757 14.1245 22.7699 13.8981 22.7707 13.6617V13.2694C22.7687 12.3802 22.4146 11.528 21.7859 10.8992C21.1571 10.2704 20.3049 9.91635 19.4157 9.91441H9.17283C8.41475 9.91441 7.71808 10.1647 7.15616 10.5927C6.73988 10.9037 6.40207 11.3077 6.1697 11.7724C5.93733 12.2372 5.81683 12.7498 5.81783 13.2694V14.8571C5.81783 15.1962 6.17533 15.4107 6.49616 15.3035C6.99621 15.1332 7.52075 15.0459 8.049 15.045C9.34965 15.0474 10.5963 15.5652 11.516 16.4849C12.4357 17.4046 12.9535 18.6513 12.9559 19.9519C12.9559 20.5945 12.7863 21.2994 12.5187 21.9237C12.3757 22.2445 12.5993 22.6295 12.9467 22.6295H19.4157C20.3049 22.6276 21.1571 22.2735 21.7859 21.6447C22.4146 21.0159 22.7687 20.1637 22.7707 19.2745V19.1049C22.7702 18.8684 22.6761 18.6418 22.5089 18.4744C22.3418 18.3071 22.1152 18.2128 21.8787 18.2121H21.1023C20.2462 18.2121 19.4248 17.6859 19.2021 16.8554C19.1166 16.5449 19.1162 16.2171 19.2008 15.9063C19.2855 15.5955 19.4521 15.3133 19.6833 15.089C19.8505 14.9179 20.0505 14.7823 20.2714 14.6903C20.4922 14.5984 20.7293 14.5519 20.9685 14.5537ZM16.079 14.3758H11.6167C11.2509 14.3758 10.9475 14.0724 10.9475 13.7067C10.9475 13.34 11.2509 13.0375 11.6167 13.0375H16.0781C16.4438 13.0375 16.7472 13.34 16.7472 13.7067C16.7472 14.0724 16.4447 14.3758 16.079 14.3758Z"
    fill="url(#paint0_linear_6684_4718)" />
  <defs>
    <filter id="filter0_b_6684_4718" x="-64" y="-64" width="156" height="156" filterUnits="userSpaceOnUse"
      color-interpolation-filters="sRGB">
      <feFlood flood-opacity="0" result="BackgroundImageFix" />
      <feGaussianBlur in="BackgroundImageFix" stdDeviation="32" />
      <feComposite in2="SourceAlpha" operator="in" result="effect1_backgroundBlur_6684_4718" />
      <feBlend mode="normal" in="SourceGraphic" in2="effect1_backgroundBlur_6684_4718" result="shape" />
    </filter>
    <linearGradient id="paint0_linear_6684_4718" x1="16" y1="17.5" x2="21" y2="24.5" gradientUnits="userSpaceOnUse">
      <stop stop-color="#34DBFF" />
      <stop offset="1" stop-color="#C6FFE5" />
    </linearGradient>
  </defs>
</svg>