<svg width="18" height="19" viewBox="0 0 18 19" fill="none" xmlns="http://www.w3.org/2000/svg">
<g clip-path="url(#clip0_387_3481)">
<path d="M14.25 8H15C15.1989 8 15.3897 8.07902 15.5303 8.21967C15.671 8.36032 15.75 8.55109 15.75 8.75V16.25C15.75 16.4489 15.671 16.6397 15.5303 16.7803C15.3897 16.921 15.1989 17 15 17H3C2.80109 17 2.61032 16.921 2.46967 16.7803C2.32902 16.6397 2.25 16.4489 2.25 16.25V8.75C2.25 8.55109 2.32902 8.36032 2.46967 8.21967C2.61032 8.07902 2.80109 8 3 8H3.75V7.25C3.75 6.56056 3.8858 5.87787 4.14963 5.24091C4.41347 4.60395 4.80018 4.0252 5.28769 3.53769C5.7752 3.05018 6.35395 2.66347 6.99091 2.39963C7.62787 2.1358 8.31056 2 9 2C9.68944 2 10.3721 2.1358 11.0091 2.39963C11.646 2.66347 12.2248 3.05018 12.7123 3.53769C13.1998 4.0252 13.5865 4.60395 13.8504 5.24091C14.1142 5.87787 14.25 6.56056 14.25 7.25V8ZM12.75 8V7.25C12.75 6.25544 12.3549 5.30161 11.6517 4.59835C10.9484 3.89509 9.99456 3.5 9 3.5C8.00544 3.5 7.05161 3.89509 6.34835 4.59835C5.64509 5.30161 5.25 6.25544 5.25 7.25V8H12.75ZM8.25 11V14H9.75V11H8.25Z" fill="black"/>
</g>
<defs>
<clipPath id="clip0_387_3481">
<rect width="18" height="18" fill="white" transform="translate(0 0.5)"/>
</clipPath>
</defs>
</svg>
