<svg width="40" height="40" viewBox="0 0 40 40" fill="none" xmlns="http://www.w3.org/2000/svg">
<rect x="0.15" y="0.15" width="39.7" height="39.7" rx="19.85" fill="white"/>
<rect x="0.15" y="0.15" width="39.7" height="39.7" rx="19.85" stroke="black" stroke-width="0.3"/>
<g clip-path="url(#clip0_4051_12002)">
<path d="M22.8431 14.6121C22.8431 10.5944 20.9064 7.13306 19.4229 5.99988C19.4229 5.99988 19.3199 5.93807 19.3199 6.1029C19.1963 13.8704 15.261 15.9925 13.0771 18.8152C8.07046 25.3671 12.7268 32.537 17.4656 33.8557C20.1234 34.5974 16.8475 32.537 16.4354 28.2103C15.941 22.9565 22.8431 18.9594 22.8431 14.6121Z" fill="#282E5B"/>
<path d="M25.4394 17.2701C25.4188 17.2495 25.3776 17.2495 25.3364 17.2701C25.3364 17.2701 25.3364 17.2701 25.3158 17.2907C25.2334 18.2591 24.162 20.3606 22.8228 22.2767C18.2694 28.7874 20.8655 31.9191 22.3283 33.6086C23.1731 34.5975 22.3283 33.6086 24.4505 32.599C24.6153 32.5166 28.5711 30.4151 29.0038 25.6557C29.4365 21.0199 26.4902 18.1148 25.4394 17.2701Z" fill="#059BDC"/>
</g>
<defs>
<clipPath id="clip0_4051_12002">
<rect width="18.131" height="28" fill="white" transform="translate(10.9346 6)"/>
</clipPath>
</defs>
</svg>
