<svg width="16" height="17" viewBox="0 0 16 17" fill="none" xmlns="http://www.w3.org/2000/svg">
  <g clip-path="url(#clip0_9612_14858)">
    <path
      d="M2.66665 10.4999H3.99998V13.8333H12V3.16659H3.99998V6.49992H2.66665V2.49992C2.66665 2.32311 2.73688 2.15354 2.86191 2.02851C2.98693 1.90349 3.1565 1.83325 3.33331 1.83325H12.6666C12.8435 1.83325 13.013 1.90349 13.1381 2.02851C13.2631 2.15354 13.3333 2.32311 13.3333 2.49992V14.4999C13.3333 14.6767 13.2631 14.8463 13.1381 14.9713C13.013 15.0963 12.8435 15.1666 12.6666 15.1666H3.33331C3.1565 15.1666 2.98693 15.0963 2.86191 14.9713C2.73688 14.8463 2.66665 14.6767 2.66665 14.4999V10.4999ZM6.66665 7.83325V5.83325L9.99998 8.49992L6.66665 11.1666V9.16658H1.33331V7.83325H6.66665Z"
      fill="black" fill-opacity="0.8" />
  </g>
  <defs>
    <clipPath id="clip0_9612_14858">
      <rect width="16" height="16" fill="white" transform="translate(0 0.5)" />
    </clipPath>
  </defs>
</svg>