<svg width="20" height="20" viewBox="0 0 20 20" fill="none" xmlns="http://www.w3.org/2000/svg">
  <path
    d="M7.49977 10.4167L5.41644 12.5L7.49977 14.5834L9.5831 12.5L7.49977 10.4167ZM12.4998 2.08337C11.1327 2.0834 9.81625 2.60031 8.81441 3.53044C7.81257 4.46056 7.19947 5.73509 7.0981 7.09837C6.06385 7.17526 5.07341 7.54745 4.24447 8.17071C3.41554 8.79397 2.78295 9.6421 2.42188 10.6143C2.06081 11.5865 1.98644 12.642 2.20761 13.6552C2.42877 14.6685 2.93617 15.597 3.66951 16.3303C4.40286 17.0636 5.33132 17.571 6.34457 17.7922C7.35782 18.0134 8.41326 17.939 9.38549 17.5779C10.3577 17.2169 11.2058 16.5843 11.8291 15.7553C12.4524 14.9264 12.8245 13.936 12.9014 12.9017C14.2991 12.7975 15.602 12.1555 16.5363 11.1107C17.4706 10.066 17.9635 8.69969 17.9115 7.29907C17.8595 5.89844 17.2666 4.5725 16.2575 3.59988C15.2483 2.62725 13.9014 2.08368 12.4998 2.08337ZM12.7689 11.2409C12.5355 10.2676 12.0373 9.3779 11.3296 8.67018C10.6219 7.96246 9.7322 7.46432 8.75894 7.23087C8.81063 6.51403 9.06723 5.82714 9.49818 5.25198C9.92914 4.67681 10.5163 4.23761 11.1898 3.98664C11.8632 3.73568 12.5946 3.68353 13.2969 3.8364C13.9991 3.98928 14.6427 4.34073 15.1509 4.84894C15.6591 5.35714 16.0105 6.00067 16.1634 6.70293C16.3163 7.40519 16.2641 8.13658 16.0132 8.81005C15.7622 9.48351 15.323 10.0707 14.7478 10.5016C14.1727 10.9326 13.4858 11.1892 12.7689 11.2409ZM11.2498 12.5C11.2498 13.4946 10.8547 14.4484 10.1514 15.1517C9.44816 15.855 8.49433 16.25 7.49977 16.25C6.50521 16.25 5.55138 15.855 4.84812 15.1517C4.14486 14.4484 3.74977 13.4946 3.74977 12.5C3.74977 11.5055 4.14486 10.5517 4.84812 9.84839C5.55138 9.14513 6.50521 8.75004 7.49977 8.75004C8.49433 8.75004 9.44816 9.14513 10.1514 9.84839C10.8547 10.5517 11.2498 11.5055 11.2498 12.5ZM2.49977 5.83337C2.49977 4.94932 2.85096 4.10147 3.47608 3.47635C4.1012 2.85123 4.94905 2.50004 5.8331 2.50004H7.0831V4.16671H5.8331C5.39108 4.16671 4.96715 4.3423 4.65459 4.65486C4.34203 4.96742 4.16644 5.39135 4.16644 5.83337V7.08337H2.49977V5.83337ZM15.8331 14.1667V12.9167H17.4998V14.1667C17.4998 15.0508 17.1486 15.8986 16.5235 16.5237C15.8983 17.1489 15.0505 17.5 14.1664 17.5H12.9164V15.8334H14.1664C14.6085 15.8334 15.0324 15.6578 15.3449 15.3452C15.6575 15.0327 15.8331 14.6087 15.8331 14.1667Z"
    fill="black" fill-opacity="1" />
</svg>