<svg width="32" height="32" viewBox="0 0 32 32" fill="none" xmlns="http://www.w3.org/2000/svg">
<g clip-path="url(#clip0_1103_6085)">
<path d="M16.0001 22.667C20.8827 22.667 25.1534 24.767 27.4761 27.9003L25.0201 29.0617C23.1294 26.8217 19.7961 25.3337 16.0001 25.3337C12.2041 25.3337 8.87072 26.8217 6.98006 29.0617L4.52539 27.899C6.84806 24.7657 11.1174 22.667 16.0001 22.667ZM16.0001 2.66699C17.7682 2.66699 19.4639 3.36937 20.7141 4.61961C21.9643 5.86986 22.6667 7.56555 22.6667 9.33366V13.3337C22.6666 15.0516 22.0033 16.7032 20.8152 17.944C19.627 19.1849 18.0057 19.9191 16.2894 19.9937L16.0001 20.0003C14.2319 20.0003 12.5363 19.2979 11.286 18.0477C10.0358 16.7975 9.33339 15.1018 9.33339 13.3337V9.33366C9.33349 7.61571 9.99678 5.96411 11.1849 4.72329C12.3731 3.48247 13.9944 2.74822 15.7107 2.67366L16.0001 2.66699ZM16.0001 5.33366C14.9798 5.3336 13.998 5.72343 13.2557 6.42337C12.5134 7.12332 12.0666 8.08047 12.0067 9.09899L12.0001 9.33366V13.3337C11.9991 14.3749 12.4041 15.3754 13.1291 16.1227C13.8541 16.8701 14.8419 17.3052 15.8827 17.3358C16.9234 17.3663 17.9351 16.9899 18.7027 16.2864C19.4703 15.5829 19.9333 14.6078 19.9934 13.5683L20.0001 13.3337V9.33366C20.0001 8.27279 19.5786 7.25538 18.8285 6.50523C18.0783 5.75509 17.0609 5.33366 16.0001 5.33366Z" fill="url(#paint0_linear_1103_6085)"/>
</g>
<defs>
<linearGradient id="paint0_linear_1103_6085" x1="27.4761" y1="15.8643" x2="4.24196" y2="16.0786" gradientUnits="userSpaceOnUse">
<stop stop-color="#70FFBA"/>
<stop offset="1" stop-color="#78DEFF"/>
</linearGradient>
<clipPath id="clip0_1103_6085">
<rect width="32" height="32" fill="white"/>
</clipPath>
</defs>
</svg>
