<svg width="14" height="14" viewBox="0 0 14 14" fill="none" xmlns="http://www.w3.org/2000/svg">
    <path
        d="M12.6175 8.60409C12.6175 9.12325 12.4775 9.61325 12.2208 10.0333C11.975 10.4432 11.627 10.7823 11.2108 11.0175C10.7947 11.2527 10.3246 11.3758 9.84664 11.3749C9.29831 11.3749 8.78497 11.2116 8.35331 10.9258C7.99164 10.7041 7.69414 10.3949 7.47831 10.0333C7.22164 9.61325 7.07581 9.12325 7.07581 8.60409C7.07581 7.07575 8.31831 5.83325 9.84664 5.83325C10.0566 5.83325 10.2608 5.85659 10.4533 5.90325C11.0675 6.03999 11.6167 6.38214 12.0102 6.8732C12.4037 7.36425 12.6179 7.97483 12.6175 8.60409Z"
        stroke="#646464" stroke-width="1.3" stroke-miterlimit="10" stroke-linecap="round" stroke-linejoin="round" />
    <path d="M8.76746 8.60413L9.44996 9.28663L10.9258 7.92163" stroke="#646464" stroke-width="1.3" stroke-linecap="round"
        stroke-linejoin="round" />
    <path
        d="M12.0691 2.34508V3.64008C12.0691 4.11258 11.7716 4.70175 11.48 4.99925L10.4533 5.90341C10.2546 5.85613 10.0509 5.83263 9.84662 5.83341C8.31829 5.83341 7.07579 7.07591 7.07579 8.60425C7.07579 9.12341 7.22162 9.61341 7.47829 10.0334C7.69412 10.3951 7.99162 10.7042 8.35329 10.9259V11.1242C8.35329 11.4801 8.11995 11.9526 7.82245 12.1276L6.99995 12.6584C6.23579 13.1309 5.17412 12.6001 5.17412 11.6551V8.53425C5.17412 8.12008 4.93495 7.58925 4.70162 7.29758L2.46162 4.94091C2.16995 4.64341 1.93079 4.11258 1.93079 3.76258V2.40341C1.93079 1.69758 2.46162 1.16675 3.10912 1.16675H10.8908C11.5383 1.16675 12.0691 1.69758 12.0691 2.34508Z"
        stroke="#646464" stroke-width="1.3" stroke-miterlimit="10" stroke-linecap="round" stroke-linejoin="round" />
</svg>