<svg width="21" height="19" viewBox="0 0 21 19" fill="none" xmlns="http://www.w3.org/2000/svg">
<path d="M19.433 0.5H1.56702C1.22857 0.5 0.903974 0.63445 0.664651 0.873773C0.425328 1.1131 0.290878 1.43769 0.290878 1.77614V14.5375C0.290878 14.876 0.425328 15.2006 0.664651 15.4399C0.903974 15.6792 1.22857 15.8137 1.56702 15.8137H11.1381L11.5018 15.367L12.0952 14.6396L12.0378 14.5375H1.56702V1.77614H19.433V7.23802C19.9177 7.55182 20.3487 7.94181 20.7091 8.39293V1.77614C20.7091 1.43769 20.5747 1.1131 20.3354 0.873773C20.096 0.63445 19.7714 0.5 19.433 0.5Z" fill="black" fill-opacity="1"/>
<path d="M3.48123 4.32837H14.3284V5.34928H3.48123V4.32837Z" fill="black" fill-opacity="1"/>
<path d="M3.48123 6.88074H10.5V7.90165H3.48123V6.88074Z" fill="black" fill-opacity="1"/>
<path d="M3.48123 11.3472H9.86193V12.3681H3.48123V11.3472Z" fill="black" fill-opacity="1"/>
<path d="M16.5362 7.66553C15.7196 7.65905 14.9202 7.89903 14.2422 8.35412C13.5642 8.80921 13.0393 9.45824 12.7361 10.2164C12.4328 10.9745 12.3653 11.8065 12.5424 12.6036C12.7195 13.4007 13.1329 14.1259 13.7286 14.6843L12.4908 16.1965L13.0651 18.5L15.4004 15.6542C16.1396 15.8728 16.9263 15.8728 17.6655 15.6542L20.0009 18.5L20.5751 16.1965L19.3373 14.6843C19.933 14.1259 20.3465 13.4007 20.5235 12.6036C20.7006 11.8065 20.6331 10.9745 20.3299 10.2164C20.0266 9.45824 19.5017 8.80921 18.8237 8.35412C18.1458 7.89903 17.3463 7.65905 16.5298 7.66553H16.5362ZM16.5362 14.4801C15.9939 14.4726 15.466 14.3049 15.0189 13.9982C14.5717 13.6914 14.2252 13.2593 14.0229 12.7562C13.8206 12.2531 13.7715 11.7014 13.8819 11.1704C13.9923 10.6395 14.2572 10.1531 14.6433 9.77231C15.0294 9.39152 15.5195 9.13338 16.0518 9.03033C16.5842 8.92729 17.1352 8.98394 17.6355 9.19316C18.1358 9.40239 18.563 9.75485 18.8636 10.2062C19.1641 10.6576 19.3245 11.1878 19.3245 11.73C19.3178 12.464 19.0206 13.1653 18.4981 13.6807C17.9755 14.1961 17.2701 14.4835 16.5362 14.4801Z" fill="black" fill-opacity="1"/>
</svg>
