<svg width="33" height="33" viewBox="0 0 33 33" fill="none" xmlns="http://www.w3.org/2000/svg">
<g clip-path="url(#clip0_165_772)">
<path d="M16.5001 29.8334C9.13608 29.8334 3.16675 23.8641 3.16675 16.5001C3.16675 9.13608 9.13608 3.16675 16.5001 3.16675C23.8641 3.16675 29.8334 9.13608 29.8334 16.5001C29.8334 23.8641 23.8641 29.8334 16.5001 29.8334ZM16.5001 27.1667C19.3291 27.1667 22.0422 26.0429 24.0426 24.0426C26.0429 22.0422 27.1667 19.3291 27.1667 16.5001C27.1667 13.6711 26.0429 10.958 24.0426 8.95761C22.0422 6.95722 19.3291 5.83341 16.5001 5.83341C13.6711 5.83341 10.958 6.95722 8.95761 8.95761C6.95722 10.958 5.83341 13.6711 5.83341 16.5001C5.83341 19.3291 6.95722 22.0422 8.95761 24.0426C10.958 26.0429 13.6711 27.1667 16.5001 27.1667ZM15.1667 9.83341H17.8334V12.5001H15.1667V9.83341ZM15.1667 15.1667H17.8334V23.1667H15.1667V15.1667Z" fill="black"/>
</g>
<defs>
<clipPath id="clip0_165_772">
<rect width="32" height="32" fill="white" transform="translate(0.5 0.5)"/>
</clipPath>
</defs>
</svg>
