<svg width="18" height="18" viewBox="0 0 18 18" fill="none" xmlns="http://www.w3.org/2000/svg">
  <g clip-path="url(#clip0_2414_2851)">
    <path
      d="M9 11.8125C10.5533 11.8125 11.8125 10.5533 11.8125 9C11.8125 7.4467 10.5533 6.1875 9 6.1875C7.4467 6.1875 6.1875 7.4467 6.1875 9C6.1875 10.5533 7.4467 11.8125 9 11.8125Z"
      stroke="#0A1214" stroke-linecap="round" stroke-linejoin="round" />
    <path
      d="M2.91312 12.5219C2.60232 11.9866 2.36422 11.4122 2.20508 10.814L3.38492 9.33746C3.37156 9.11172 3.37156 8.88538 3.38492 8.65964L2.20578 7.18308C2.36465 6.58478 2.60227 6.01022 2.91242 5.47449L4.79047 5.26355C4.94044 5.09458 5.10033 4.93469 5.2693 4.78472L5.48023 2.90738C6.0152 2.5987 6.58881 2.36249 7.18602 2.20496L8.66258 3.3848C8.88832 3.37144 9.11465 3.37144 9.34039 3.3848L10.817 2.20566C11.4153 2.36452 11.9898 2.60215 12.5255 2.9123L12.7365 4.79035C12.9054 4.94032 13.0653 5.10021 13.2153 5.26917L15.0927 5.48011C15.4035 6.01545 15.6416 6.58979 15.8007 7.188L14.6209 8.66457C14.6342 8.89031 14.6342 9.11664 14.6209 9.34238L15.8 10.8189C15.6422 11.4171 15.4058 11.9916 15.0969 12.5275L13.2188 12.7385C13.0689 12.9074 12.909 13.0673 12.74 13.2173L12.5291 15.0946C11.9937 15.4054 11.4194 15.6436 10.8212 15.8027L9.34461 14.6228C9.11887 14.6362 8.89254 14.6362 8.6668 14.6228L7.19023 15.802C6.5921 15.6442 6.01756 15.4078 5.48164 15.0989L5.2707 13.2208C5.10174 13.0708 4.94185 12.911 4.79188 12.742L2.91312 12.5219Z"
      stroke="#0A1214" stroke-linecap="round" stroke-linejoin="round" />
  </g>
  <defs>
    <clipPath id="clip0_2414_2851">
      <rect width="18" height="18" fill="white" />
    </clipPath>
  </defs>
</svg>