<svg width="19" height="18" viewBox="0 0 19 18" fill="none" xmlns="http://www.w3.org/2000/svg">
<g clip-path="url(#clip0_1021_5199)">
<path d="M9.21143 1.5C13.3537 1.5 16.7114 4.85775 16.7114 9C16.7114 13.1423 13.3537 16.5 9.21143 16.5C5.06918 16.5 1.71143 13.1423 1.71143 9H3.21143C3.21143 12.3135 5.89793 15 9.21143 15C12.5249 15 15.2114 12.3135 15.2114 9C15.2114 5.6865 12.5249 3 9.21143 3C7.14893 3 5.32943 4.04025 4.25018 5.625H6.21143V7.125H1.71143V2.625H3.21143V4.5C4.57943 2.6775 6.75818 1.5 9.21143 1.5ZM9.96143 5.25V8.68875L12.3937 11.121L11.3324 12.1823L8.46143 9.30975V5.25H9.96143Z" fill="black" fill-opacity="0.8"/>
</g>
<defs>
<clipPath id="clip0_1021_5199">
<rect width="18" height="18" fill="white" transform="translate(0.211426)"/>
</clipPath>
</defs>
</svg>
