<svg width="20" height="20" viewBox="0 0 20 20" fill="none" xmlns="http://www.w3.org/2000/svg">
  <g clip-path="url(#clip0_3292_13450)">
    <path
      d="M0 3.75C0 3.08696 0.263392 2.45107 0.732233 1.98223C1.20107 1.51339 1.83696 1.25 2.5 1.25H19.375C19.5408 1.25 19.6997 1.31585 19.8169 1.43306C19.9342 1.55027 20 1.70924 20 1.875C20 2.04076 19.9342 2.19973 19.8169 2.31694C19.6997 2.43415 19.5408 2.5 19.375 2.5H18.75V5C19.0815 5 19.3995 5.1317 19.6339 5.36612C19.8683 5.60054 20 5.91848 20 6.25V16.875C20 17.3723 19.8025 17.8492 19.4508 18.2008C19.0992 18.5525 18.6223 18.75 18.125 18.75H3.125C2.2962 18.75 1.50134 18.4208 0.915291 17.8347C0.32924 17.2487 0 16.4538 0 15.625L0 3.75ZM1.25 5.915V15.625C1.25 16.1223 1.44754 16.5992 1.79917 16.9508C2.15081 17.3025 2.62772 17.5 3.125 17.5H18.125C18.2908 17.5 18.4497 17.4342 18.5669 17.3169C18.6842 17.1997 18.75 17.0408 18.75 16.875V6.25H2.5C2.06107 6.25057 1.62981 6.13499 1.25 5.915ZM1.25 3.75C1.25 4.08152 1.3817 4.39946 1.61612 4.63388C1.85054 4.8683 2.16848 5 2.5 5H17.5V2.5H2.5C2.16848 2.5 1.85054 2.6317 1.61612 2.86612C1.3817 3.10054 1.25 3.41848 1.25 3.75Z"
      fill="black" />
    <path
      d="M14.1556 14.8698C13.62 13.9299 12.7837 13.1975 11.7813 12.7905C12.2798 12.4167 12.648 11.8955 12.8338 11.3007C13.0196 10.706 13.0135 10.0678 12.8165 9.47673C12.6195 8.88561 12.2414 8.37148 11.736 8.00715C11.2305 7.64283 10.6232 7.44678 10.0001 7.44678C9.37701 7.44678 8.76971 7.64283 8.26424 8.00715C7.75876 8.37148 7.38073 8.88561 7.18369 9.47673C6.98665 10.0678 6.9806 10.706 7.16638 11.3007C7.35217 11.8955 7.72037 12.4167 8.21884 12.7905C7.21647 13.1975 6.38019 13.9299 5.84462 14.8698C5.81144 14.9232 5.78932 14.9827 5.77959 15.0448C5.76985 15.1068 5.7727 15.1702 5.78795 15.2312C5.80321 15.2922 5.83057 15.3494 5.8684 15.3996C5.90623 15.4498 5.95377 15.4918 6.00818 15.5233C6.06259 15.5547 6.12276 15.5749 6.18512 15.5826C6.24749 15.5903 6.31076 15.5854 6.37119 15.5682C6.43162 15.5509 6.48797 15.5217 6.53689 15.4823C6.58581 15.4429 6.6263 15.394 6.65595 15.3386C7.36377 14.1151 8.61377 13.3854 10.0001 13.3854C11.3864 13.3854 12.6364 14.1155 13.3442 15.3386C13.4085 15.4419 13.5104 15.5162 13.6285 15.5457C13.7465 15.5753 13.8714 15.5578 13.9768 15.4969C14.0821 15.436 14.1597 15.3366 14.1931 15.2195C14.2264 15.1025 14.213 14.9771 14.1556 14.8698ZM7.96884 10.4167C7.96884 10.015 8.08797 9.62223 8.31117 9.2882C8.53437 8.95416 8.85161 8.69381 9.22277 8.54007C9.59393 8.38633 10.0023 8.3461 10.3964 8.42448C10.7904 8.50286 11.1523 8.69631 11.4364 8.98039C11.7205 9.26446 11.9139 9.6264 11.9923 10.0204C12.0707 10.4144 12.0305 10.8229 11.8767 11.194C11.723 11.5652 11.4626 11.8824 11.1286 12.1056C10.7946 12.3288 10.4018 12.4479 10.0001 12.4479C9.46156 12.4473 8.94527 12.2331 8.56447 11.8523C8.18367 11.4715 7.96946 10.9552 7.96884 10.4167Z"
      fill="black" />
  </g>
  <defs>
    <clipPath id="clip0_3292_13450">
      <rect width="20" height="20" fill="white" />
    </clipPath>
  </defs>
</svg>