<svg width="16" height="16" viewBox="0 0 16 16" fill="none" xmlns="http://www.w3.org/2000/svg">
  <path
    d="M11.1433 3.56808C11.1433 3.48951 11.079 3.42522 11.0004 3.42522H4.14328C4.0647 3.42522 4.00042 3.48951 4.00042 3.56808V4.42522C4.00042 4.50379 4.0647 4.56808 4.14328 4.56808H11.0004C11.079 4.56808 11.1433 4.50379 11.1433 4.42522V3.56808ZM11.0004 5.99665H4.14328C4.0647 5.99665 4.00042 6.06094 4.00042 6.13951V6.99665C4.00042 7.07522 4.0647 7.13951 4.14328 7.13951H11.0004C11.079 7.13951 11.1433 7.07522 11.1433 6.99665V6.13951C11.1433 6.06094 11.079 5.99665 11.0004 5.99665ZM7.42899 8.56808H4.14328C4.0647 8.56808 4.00042 8.63237 4.00042 8.71094V9.56808C4.00042 9.64665 4.0647 9.71094 4.14328 9.71094H7.42899C7.50756 9.71094 7.57185 9.64665 7.57185 9.56808V8.71094C7.57185 8.63237 7.50756 8.56808 7.42899 8.56808ZM6.57185 14.0681H2.57185V1.49665H12.5718V7.63951C12.5718 7.71808 12.6361 7.78237 12.7147 7.78237H13.7147C13.7933 7.78237 13.8576 7.71808 13.8576 7.63951V0.782366C13.8576 0.466295 13.6022 0.210938 13.2861 0.210938H1.85756C1.54149 0.210938 1.28613 0.466295 1.28613 0.782366V14.7824C1.28613 15.0984 1.54149 15.3538 1.85756 15.3538H6.57185C6.65042 15.3538 6.7147 15.2895 6.7147 15.2109V14.2109C6.7147 14.1324 6.65042 14.0681 6.57185 14.0681ZM12.9433 12.7395C13.4611 12.2699 13.7861 11.5913 13.7861 10.8359C13.7861 9.4163 12.6343 8.26451 11.2147 8.26451C9.79506 8.26451 8.64328 9.4163 8.64328 10.8359C8.64328 11.5913 8.96828 12.2699 9.48613 12.7395C8.46828 13.3199 7.76828 14.3949 7.7147 15.6342C7.71113 15.7145 7.7772 15.7824 7.85756 15.7824H8.71649C8.79149 15.7824 8.85399 15.7234 8.85935 15.6467C8.92899 14.4109 9.95935 13.4252 11.2147 13.4252C12.4701 13.4252 13.5004 14.4109 13.5701 15.6467C13.5736 15.7217 13.6361 15.7824 13.7129 15.7824H14.5718C14.654 15.7824 14.7183 15.7145 14.7147 15.6342C14.6629 14.3931 13.9611 13.3199 12.9433 12.7395ZM11.2147 9.40737C12.004 9.40737 12.6433 10.0467 12.6433 10.8359C12.6433 11.6252 12.004 12.2645 11.2147 12.2645C10.4254 12.2645 9.78613 11.6252 9.78613 10.8359C9.78613 10.0467 10.4254 9.40737 11.2147 9.40737Z"
    fill="black" fill-opacity="1" />
</svg>