<svg width="32" height="32" viewBox="0 0 32 32" fill="none" xmlns="http://www.w3.org/2000/svg">
<path d="M27.0906 5.30937L16.4719 1.69062C16.3437 1.64687 16.1719 1.625 16 1.625C15.8281 1.625 15.6562 1.64687 15.5281 1.69062L4.90938 5.30937C4.65 5.39687 4.4375 5.69688 4.4375 5.97187V21.0469C4.4375 21.3219 4.61563 21.6844 4.83125 21.8562L15.6031 30.25C15.7125 30.3344 15.8531 30.3781 15.9969 30.3781C16.1406 30.3781 16.2844 30.3344 16.3906 30.25L27.1625 21.8562C27.3781 21.6875 27.5562 21.325 27.5562 21.0469V5.97187C27.5625 5.69688 27.35 5.4 27.0906 5.30937ZM25.3125 20.4469L16 27.7031L6.6875 20.4469V7.08437L16 3.90937L25.3125 7.08437V20.4469ZM12.6313 14.1656C12.5375 14.0375 12.3875 13.9594 12.225 13.9594H10.5C10.2969 13.9594 10.1781 14.1906 10.2969 14.3562L14.2469 19.7937C14.2936 19.8577 14.3547 19.9097 14.4253 19.9455C14.4959 19.9814 14.574 20.0001 14.6531 20.0001C14.7323 20.0001 14.8104 19.9814 14.8809 19.9455C14.9515 19.9097 15.0127 19.8577 15.0594 19.7937L21.7031 10.6469C21.8219 10.4812 21.7031 10.25 21.5 10.25H19.775C19.6156 10.25 19.4625 10.3281 19.3687 10.4562L14.6531 16.95L12.6313 14.1656Z" fill="black"/>
</svg>
