<svg width="18" height="18" viewBox="0 0 18 19" fill="none" xmlns="http://www.w3.org/2000/svg">
<g clip-path="url(#clip0_1306_9531)">
<path d="M3 17C3 15.4087 3.63214 13.8826 4.75736 12.7574C5.88258 11.6321 7.4087 11 9 11C10.5913 11 12.1174 11.6321 13.2426 12.7574C14.3679 13.8826 15 15.4087 15 17H13.5C13.5 15.8065 13.0259 14.6619 12.182 13.818C11.3381 12.9741 10.1935 12.5 9 12.5C7.80653 12.5 6.66193 12.9741 5.81802 13.818C4.97411 14.6619 4.5 15.8065 4.5 17H3ZM9 10.25C6.51375 10.25 4.5 8.23625 4.5 5.75C4.5 3.26375 6.51375 1.25 9 1.25C11.4862 1.25 13.5 3.26375 13.5 5.75C13.5 8.23625 11.4862 10.25 9 10.25ZM9 8.75C10.6575 8.75 12 7.4075 12 5.75C12 4.0925 10.6575 2.75 9 2.75C7.3425 2.75 6 4.0925 6 5.75C6 7.4075 7.3425 8.75 9 8.75Z" fill="black"/>
</g>
<defs>
<clipPath id="clip0_1306_9531">
<rect width="18" height="18" fill="white" transform="translate(0 0.5)"/>
</clipPath>
</defs>
</svg>
