<svg width="24" height="24" viewBox="0 0 24 24" fill="none" xmlns="http://www.w3.org/2000/svg">
  <path
    d="M11 17.375C11 17.9937 11.5063 18.5 12.125 18.5C12.7437 18.5 13.25 17.9937 13.25 17.375C13.25 16.7563 12.7437 16.25 12.125 16.25C11.5063 16.25 11 16.7563 11 17.375ZM11 6.125C11 6.74375 11.5063 7.25 12.125 7.25C12.7437 7.25 13.25 6.74375 13.25 6.125C13.25 5.50625 12.7437 5 12.125 5C11.5063 5 11 5.50625 11 6.125ZM11 11.75C11 12.3687 11.5063 12.875 12.125 12.875C12.7437 12.875 13.25 12.3687 13.25 11.75C13.25 11.1313 12.7437 10.625 12.125 10.625C11.5063 10.625 11 11.1313 11 11.75Z"
    fill="black" fill-opacity="1" />
</svg>