<svg width="24" height="24" viewBox="0 0 24 24" fill="none" xmlns="http://www.w3.org/2000/svg">
  <path
    d="M11.0814 5.1322C11.1232 5.09029 11.1729 5.05705 11.2275 5.03436C11.2822 5.01168 11.3408 5 11.4 5C11.4592 5 11.5178 5.01168 11.5725 5.03436C11.6271 5.05705 11.6768 5.09029 11.7186 5.1322L14.4186 7.83205C14.5031 7.91654 14.5506 8.03114 14.5506 8.15063C14.5506 8.27012 14.5031 8.38472 14.4186 8.46921C14.3341 8.5537 14.2195 8.60117 14.1 8.60117C13.9805 8.60117 13.8659 8.5537 13.7814 8.46921L11.85 6.53702V13.5503C11.85 13.6697 11.8026 13.7841 11.7182 13.8685C11.6338 13.9529 11.5193 14.0003 11.4 14.0003C11.2807 14.0003 11.1662 13.9529 11.0818 13.8685C10.9974 13.7841 10.95 13.6697 10.95 13.5503V6.53702L9.0186 8.46921C8.9341 8.5537 8.8195 8.60117 8.7 8.60117C8.5805 8.60117 8.4659 8.5537 8.3814 8.46921C8.2969 8.38472 8.24943 8.27012 8.24943 8.15063C8.24943 8.03114 8.2969 7.91654 8.3814 7.83205L11.0814 5.1322ZM8.0412 18.5C8.19918 18.7737 8.4264 19.0009 8.70003 19.1588C8.97365 19.3168 9.28404 19.4 9.6 19.4H15C15.9548 19.4 16.8705 19.0207 17.5456 18.3456C18.2207 17.6705 18.6 16.7549 18.6 15.8002V12.6504C18.6 12.531 18.5526 12.4166 18.4682 12.3322C18.3838 12.2478 18.2693 12.2004 18.15 12.2004C18.0307 12.2004 17.9162 12.2478 17.8318 12.3322C17.7474 12.4166 17.7 12.531 17.7 12.6504V15.8002C17.7 16.5162 17.4155 17.203 16.9092 17.7093C16.4028 18.2156 15.7161 18.5 15 18.5H8.0412ZM6.9 10.8505C6.9 10.7311 6.85259 10.6167 6.7682 10.5323C6.68381 10.4479 6.56935 10.4005 6.45 10.4005C6.33065 10.4005 6.21619 10.4479 6.1318 10.5323C6.04741 10.6167 6 10.7311 6 10.8505V15.8002C6 16.2776 6.18964 16.7354 6.52721 17.0729C6.86477 17.4105 7.32261 17.6001 7.8 17.6001H15C15.4774 17.6001 15.9352 17.4105 16.2728 17.0729C16.6104 16.7354 16.8 16.2776 16.8 15.8002V10.8505C16.8 10.7311 16.7526 10.6167 16.6682 10.5323C16.5838 10.4479 16.4693 10.4005 16.35 10.4005C16.2307 10.4005 16.1162 10.4479 16.0318 10.5323C15.9474 10.6167 15.9 10.7311 15.9 10.8505V15.8002C15.9 16.0389 15.8052 16.2678 15.6364 16.4366C15.4676 16.6053 15.2387 16.7001 15 16.7001H7.8C7.56131 16.7001 7.33239 16.6053 7.1636 16.4366C6.99482 16.2678 6.9 16.0389 6.9 15.8002V10.8505Z"
    fill="black" fill-opacity="1" />
</svg>