<svg width="53" height="53" viewBox="0 0 53 53" fill="none" xmlns="http://www.w3.org/2000/svg">
  <g clip-path="url(#clip0_3292_13671)">
    <path
      d="M0.963623 26.5C0.963623 29.8535 1.62414 33.1741 2.90746 36.2723C4.19079 39.3705 6.07178 42.1856 8.44305 44.5569C10.8143 46.9282 13.6294 48.8092 16.7276 50.0925C19.8259 51.3758 23.1465 52.0364 26.5 52.0364C29.8535 52.0364 33.1741 51.3758 36.2723 50.0925C39.3705 48.8092 42.1856 46.9282 44.5569 44.5569C46.9282 42.1856 48.8092 39.3705 50.0925 36.2723C51.3758 33.1741 52.0364 29.8535 52.0364 26.5C52.0364 23.1465 51.3758 19.8259 50.0925 16.7276C48.8092 13.6294 46.9282 10.8143 44.5569 8.44305C42.1856 6.07178 39.3705 4.19079 36.2723 2.90746C33.1741 1.62414 29.8535 0.963623 26.5 0.963623C23.1465 0.963623 19.8259 1.62414 16.7276 2.90746C13.6294 4.19079 10.8143 6.07178 8.44305 8.44305C6.07178 10.8143 4.19079 13.6294 2.90746 16.7276C1.62414 19.8259 0.963623 23.1465 0.963623 26.5Z"
      stroke="url(#paint0_linear_3292_13671)" stroke-width="3" stroke-linecap="round" stroke-linejoin="round" />
    <path
      d="M17.988 15.1504H29.5929C32.5863 15.1504 35.0123 17.6898 35.0123 20.8251C35.0123 23.9604 32.5863 26.4999 29.5929 26.4999C32.5863 26.4999 35.0123 29.0393 35.0123 32.1746C35.0123 35.3099 32.5863 37.8494 29.5929 37.8494H17.988M20.8254 26.4999H32.1749M20.8254 12.313V40.6867V15.1504M29.3375 12.313V15.1504M29.3375 37.8494V40.6867"
      stroke="url(#paint1_linear_3292_13671)" stroke-width="3" stroke-linecap="round" stroke-linejoin="round" />
  </g>
  <defs>
    <linearGradient id="paint0_linear_3292_13671" x1="26.5" y1="0.963623" x2="26.5" y2="52.0364"
      gradientUnits="userSpaceOnUse">
      <stop stop-color="#ABFFE1" />
      <stop offset="1" stop-color="#78E1FB" />
    </linearGradient>
    <linearGradient id="paint1_linear_3292_13671" x1="26.5002" y1="12.313" x2="26.5002" y2="40.6867"
      gradientUnits="userSpaceOnUse">
      <stop stop-color="#ABFFE1" />
      <stop offset="1" stop-color="#78E1FB" />
    </linearGradient>
    <clipPath id="clip0_3292_13671">
      <rect width="53" height="53" fill="white" />
    </clipPath>
  </defs>
</svg>