<svg width="54" height="42" viewBox="0 0 54 42" fill="none" xmlns="http://www.w3.org/2000/svg">
  <rect x="1.69629" y="1.5" width="50" height="39" rx="1.5" stroke="url(#paint0_linear_3292_13680)" stroke-width="3" />
  <path d="M9.83301 13.3633H19.4694" stroke="#ABFFE1" stroke-width="3" stroke-linecap="round" />
  <path d="M9.83301 21H19.4694" stroke="url(#paint1_linear_3292_13680)" stroke-width="3" stroke-linecap="round" />
  <path d="M9.83301 28.6367H19.4694" stroke="#78E1FB" stroke-width="3" stroke-linecap="round" />
  <path
    d="M40.1335 16.2272C40.1335 19.0757 37.7985 21.409 34.888 21.409C31.9776 21.409 29.6426 19.0757 29.6426 16.2272C29.6426 13.3788 31.9776 11.0454 34.888 11.0454C37.7985 11.0454 40.1335 13.3788 40.1335 16.2272Z"
    stroke="url(#paint2_linear_3292_13680)" stroke-width="3" />
  <path fill-rule="evenodd" clip-rule="evenodd"
    d="M40.4776 30.5454C40.532 30.2348 40.5603 29.9159 40.5603 29.5909C40.5603 26.5299 38.0474 24 34.8876 24C31.7277 24 29.2148 26.5299 29.2148 29.5909C29.2148 29.9159 29.2432 30.2348 29.2976 30.5454H26.2678C26.2328 30.232 26.2148 29.9135 26.2148 29.5909C26.2148 24.8463 30.0978 21 34.8876 21C39.6774 21 43.5603 24.8463 43.5603 29.5909C43.5603 29.9135 43.5423 30.232 43.5074 30.5454H40.4776ZM34.9156 38.1818H34.8596C34.8689 38.1818 34.8782 38.1818 34.8876 38.1818C34.8969 38.1818 34.9063 38.1818 34.9156 38.1818Z"
    fill="#78E1FB" />
  <defs>
    <linearGradient id="paint0_linear_3292_13680" x1="26.6963" y1="0" x2="26.6963" y2="42"
      gradientUnits="userSpaceOnUse">
      <stop stop-color="#ABFFE1" />
      <stop offset="1" stop-color="#78E1FB" />
    </linearGradient>
    <linearGradient id="paint1_linear_3292_13680" x1="14.6512" y1="21" x2="14.6512" y2="22"
      gradientUnits="userSpaceOnUse">
      <stop stop-color="#ABFFE1" />
      <stop offset="1" stop-color="#78E1FB" />
    </linearGradient>
    <linearGradient id="paint2_linear_3292_13680" x1="34.888" y1="9.54541" x2="34.888" y2="22.909"
      gradientUnits="userSpaceOnUse">
      <stop stop-color="#ABFFE1" />
      <stop offset="1" stop-color="#78E1FB" />
    </linearGradient>
  </defs>
</svg>