<svg width="18" height="19" viewBox="0 0 18 19" fill="none" xmlns="http://www.w3.org/2000/svg">
<g clip-path="url(#clip0_3_1960)">
<path d="M3 11.75H4.5V15.5H13.5V3.5H4.5V7.25H3V2.75C3 2.55109 3.07902 2.36032 3.21967 2.21967C3.36032 2.07902 3.55109 2 3.75 2H14.25C14.4489 2 14.6397 2.07902 14.7803 2.21967C14.921 2.36032 15 2.55109 15 2.75V16.25C15 16.4489 14.921 16.6397 14.7803 16.7803C14.6397 16.921 14.4489 17 14.25 17H3.75C3.55109 17 3.36032 16.921 3.21967 16.7803C3.07902 16.6397 3 16.4489 3 16.25V11.75ZM7.5 8.75V6.5L11.25 9.5L7.5 12.5V10.25H1.5V8.75H7.5Z" fill="black"/>
</g>
<defs>
<clipPath id="clip0_3_1960">
<rect width="18" height="18" fill="white" transform="translate(0 0.5)"/>
</clipPath>
</defs>
</svg>
