<svg width="128" height="128" viewBox="0 0 128 128" fill="none" xmlns="http://www.w3.org/2000/svg">
  <g clip-path="url(#clip0_1111_4201)">
    <path
      d="M97.9413 30.0582L90.4 37.5995C84.2929 31.4918 76.2569 27.6905 67.6613 26.8435C59.0657 25.9964 50.4423 28.1559 43.2605 32.9541C36.0786 37.7523 30.7826 44.8923 28.2749 53.1574C25.7671 61.4226 26.2028 70.3016 29.5076 78.2815C32.8125 86.2615 38.782 92.8487 46.3991 96.9208C54.0162 100.993 62.8096 102.298 71.2809 100.613C79.7523 98.9288 87.3776 94.3591 92.8574 87.6828C98.3373 81.0066 101.333 72.6367 101.333 63.9995H112C112 75.1046 108.149 85.866 101.104 94.4503C94.0592 103.035 84.2556 108.91 73.364 111.077C62.4723 113.243 51.1664 111.566 41.3726 106.331C31.5789 101.096 23.9033 92.6273 19.6537 82.3676C15.404 72.1078 14.8433 60.692 18.067 50.0651C21.2907 39.4383 28.0994 30.2579 37.3329 24.0884C46.5665 17.9188 57.6536 15.1417 68.7051 16.2303C79.7567 17.3188 90.0889 22.2057 97.9413 30.0582Z"
      fill="url(#paint0_linear_1111_4201)" />
  </g>
  <defs>
    <linearGradient id="paint0_linear_1111_4201" x1="112" y1="63.9991" x2="14.8171" y2="65.0297"
      gradientUnits="userSpaceOnUse">
      <stop stop-color="#70FFBA" />
      <stop offset="1" stop-color="#78DEFF" />
    </linearGradient>
    <clipPath id="clip0_1111_4201">
      <rect width="128" height="128" fill="white" />
    </clipPath>
  </defs>
</svg>