<svg width="24" height="24" viewBox="0 0 24 24" fill="none" xmlns="http://www.w3.org/2000/svg">
<path d="M3.05028 9.30971C3.00778 9.18276 2.99119 9.04858 3.00151 8.9151C3.01183 8.78163 3.04885 8.65158 3.11036 8.53268C3.17188 8.41378 3.25664 8.30844 3.35963 8.2229C3.46261 8.13737 3.58173 8.07339 3.7099 8.03475C3.83808 7.99611 3.97271 7.9836 4.10581 7.99796C4.23891 8.01232 4.36777 8.05326 4.48475 8.11835C4.60174 8.18344 4.70446 8.27136 4.78683 8.37689C4.8692 8.48242 4.92955 8.60342 4.96428 8.73271C7.05028 15.7187 16.9463 15.7197 19.0343 8.73671C19.0717 8.61077 19.1336 8.49344 19.2163 8.39141C19.2991 8.28938 19.4012 8.20465 19.5167 8.14207C19.6322 8.07948 19.7589 8.04026 19.8896 8.02664C20.0203 8.01303 20.1523 8.02528 20.2783 8.06271C20.4042 8.10013 20.5216 8.162 20.6236 8.24477C20.7256 8.32755 20.8103 8.4296 20.8729 8.54512C20.9355 8.66063 20.9747 8.78735 20.9883 8.91802C21.002 9.04869 20.9897 9.18077 20.9523 9.30671C20.5884 10.5579 19.9713 11.721 19.1393 12.7237L20.4143 13.9997C20.5964 14.1883 20.6972 14.4409 20.695 14.7031C20.6927 14.9653 20.5875 15.2161 20.4021 15.4015C20.2167 15.5869 19.9659 15.6921 19.7037 15.6944C19.4415 15.6967 19.1889 15.5959 19.0003 15.4137L17.6893 14.1027C16.9817 14.6362 16.2002 15.0637 15.3693 15.3717L15.7263 16.7067C15.7644 16.8348 15.7764 16.9691 15.7617 17.1019C15.747 17.2347 15.7058 17.3632 15.6406 17.4798C15.5754 17.5964 15.4875 17.6988 15.3821 17.7808C15.2767 17.8629 15.1559 17.923 15.0269 17.9576C14.8978 17.9922 14.7632 18.0007 14.6308 17.9824C14.4985 17.9641 14.3712 17.9194 14.2564 17.8511C14.1416 17.7828 14.0416 17.6922 13.9624 17.5846C13.8832 17.477 13.8264 17.3546 13.7953 17.2247L13.4313 15.8677C12.4843 16.0077 11.5163 16.0077 10.5693 15.8677L10.2053 17.2247C10.1742 17.3546 10.1173 17.477 10.0381 17.5846C9.95894 17.6922 9.85899 17.7828 9.74419 17.8511C9.62939 17.9194 9.50206 17.9641 9.36972 17.9824C9.23739 18.0007 9.10273 17.9922 8.9737 17.9576C8.84466 17.923 8.72388 17.8629 8.61846 17.7808C8.51305 17.6988 8.42515 17.5964 8.35995 17.4798C8.29476 17.3632 8.25359 17.2347 8.23887 17.1019C8.22416 16.9691 8.2362 16.8348 8.27428 16.7067L8.63128 15.3717C7.80034 15.0634 7.01878 14.6355 6.31128 14.1017L5.00128 15.4137C4.81378 15.6015 4.55935 15.7071 4.29399 15.7073C4.02863 15.7075 3.77406 15.6022 3.58628 15.4147C3.39851 15.2272 3.29292 14.9728 3.29273 14.7074C3.29254 14.4421 3.39778 14.1875 3.58528 13.9997L4.86028 12.7247C4.07628 11.7887 3.45028 10.6507 3.04828 9.31071L3.05028 9.30971Z" fill="black" fill-opacity="0.8"/>
</svg>
