<svg width="24" height="24" viewBox="0 0 24 24" fill="none" xmlns="http://www.w3.org/2000/svg">
<g clip-path="url(#clip0_1409_7953)">
<path d="M19.567 5.463C21.1393 7.27756 22.0033 9.59899 22 12C22 17.523 17.523 22 12 22C9.86399 22 7.88399 21.33 6.25999 20.19L12 17L12 20C13.5684 20.0001 15.1022 19.5392 16.4107 18.6747C17.7193 17.8101 18.7448 16.5799 19.3599 15.1372C19.9749 13.6944 20.1523 12.1027 19.87 10.56C19.5877 9.0172 18.8581 7.59145 17.772 6.46L19.567 5.463ZM4.43299 18.537C2.86065 16.7224 1.99664 14.401 1.99999 12C1.99999 6.477 6.47699 2 12 2C14.136 2 16.116 2.67 17.74 3.81L12 7L12 4C10.4316 3.99987 8.89779 4.46075 7.58925 5.32534C6.2807 6.18992 5.25515 7.42007 4.64011 8.86282C4.02508 10.3056 3.84769 11.8973 4.13001 13.44C4.41232 14.9828 5.14189 16.4085 6.22799 17.54L4.43299 18.537Z" fill="url(#paint0_linear_1409_7953)"/>
</g>
<defs>
<linearGradient id="paint0_linear_1409_7953" x1="12" y1="22" x2="11.7853" y2="1.75356" gradientUnits="userSpaceOnUse">
<stop stop-color="#70FFBA"/>
<stop offset="1" stop-color="#78DEFF"/>
</linearGradient>
<clipPath id="clip0_1409_7953">
<rect width="24" height="24" fill="white" transform="translate(24) rotate(90)"/>
</clipPath>
</defs>
</svg>
