<svg width="14" height="14" viewBox="0 0 14 14" fill="none" xmlns="http://www.w3.org/2000/svg">
<path d="M12.6178 8.60433C12.6178 9.1235 12.4778 9.6135 12.2212 10.0335C11.9754 10.4434 11.6274 10.7826 11.2112 11.0178C10.7951 11.2529 10.325 11.3761 9.847 11.3752C9.29867 11.3752 8.78534 11.2118 8.35367 10.926C7.99201 10.7043 7.69451 10.3952 7.47867 10.0335C7.222 9.6135 7.07617 9.1235 7.07617 8.60433C7.07617 7.076 8.31867 5.8335 9.847 5.8335C10.057 5.8335 10.2612 5.85683 10.4537 5.9035C11.0679 6.04023 11.6171 6.38239 12.0106 6.87344C12.4041 7.36449 12.6183 7.97508 12.6178 8.60433Z" stroke="black" stroke-miterlimit="10" stroke-linecap="round" stroke-linejoin="round"/>
<path d="M8.76758 8.60438L9.45008 9.28688L10.9259 7.92188" stroke="black" stroke-linecap="round" stroke-linejoin="round"/>
<path d="M12.069 2.34484V3.63984C12.069 4.11234 11.7715 4.7015 11.4798 4.999L10.4532 5.90317C10.2544 5.85589 10.0508 5.83239 9.8465 5.83317C8.31816 5.83317 7.07566 7.07567 7.07566 8.604C7.07566 9.12317 7.2215 9.61317 7.47816 10.0332C7.694 10.3948 7.9915 10.704 8.35316 10.9257V11.124C8.35316 11.4798 8.11983 11.9523 7.82233 12.1273L6.99983 12.6582C6.23566 13.1307 5.174 12.5998 5.174 11.6548V8.534C5.174 8.11984 4.93483 7.589 4.7015 7.29734L2.4615 4.94067C2.16983 4.64317 1.93066 4.11234 1.93066 3.76234V2.40317C1.93066 1.69734 2.4615 1.1665 3.109 1.1665H10.8907C11.5382 1.1665 12.069 1.69734 12.069 2.34484Z" stroke="black" stroke-miterlimit="10" stroke-linecap="round" stroke-linejoin="round"/>
</svg>
