<svg width="53" height="53" viewBox="0 0 53 53" fill="none" xmlns="http://www.w3.org/2000/svg">
  <g clip-path="url(#clip0_3292_13695)">
    <path
      d="M0 44.1666H53M0 51.2333H53M8.83333 14.1333V8.83327H14.1333M38.8667 8.83327H44.1667V14.1333M8.83333 24.7333V30.0333H14.1333M38.8667 30.0333H44.1667V24.7333M26.5 26.4999C24.6258 26.4999 22.8284 25.7554 21.5031 24.4302C20.1779 23.1049 19.4333 21.3075 19.4333 19.4333C19.4333 17.5591 20.1779 15.7616 21.5031 14.4364C22.8284 13.1111 24.6258 12.3666 26.5 12.3666C28.3742 12.3666 30.1716 13.1111 31.4969 14.4364C32.8221 15.7616 33.5667 17.5591 33.5667 19.4333C33.5667 21.3075 32.8221 23.1049 31.4969 24.4302C30.1716 25.7554 28.3742 26.4999 26.5 26.4999ZM5.3 1.7666H47.7C48.6371 1.7666 49.5358 2.13886 50.1984 2.80149C50.8611 3.46412 51.2333 4.36284 51.2333 5.29993V33.5666C51.2333 34.5037 50.8611 35.4024 50.1984 36.065C49.5358 36.7277 48.6371 37.0999 47.7 37.0999H5.3C4.3629 37.0999 3.46418 36.7277 2.80156 36.065C2.13893 35.4024 1.76667 34.5037 1.76667 33.5666V5.29993C1.76667 4.36284 2.13893 3.46412 2.80156 2.80149C3.46418 2.13886 4.3629 1.7666 5.3 1.7666Z"
      stroke="url(#paint0_linear_3292_13695)" stroke-width="2.5" />
  </g>
  <defs>
    <linearGradient id="paint0_linear_3292_13695" x1="26.5" y1="1.7666" x2="26.5" y2="51.2333"
      gradientUnits="userSpaceOnUse">
      <stop stop-color="#ABFFE1" />
      <stop offset="1" stop-color="#78E1FB" />
    </linearGradient>
    <clipPath id="clip0_3292_13695">
      <rect width="53" height="53" fill="white" />
    </clipPath>
  </defs>
</svg>