<svg width="24" height="24" viewBox="0 0 24 24" fill="none" xmlns="http://www.w3.org/2000/svg">
  <path
    d="M17.9943 16.5756L17.2421 12.3096H17.4961C17.7005 12.3096 17.8652 12.1477 17.8652 11.9467V9.2665C17.8652 9.06548 17.7005 8.90355 17.4961 8.90355H14.0045V6.36294C14.0045 6.16193 13.8399 6 13.6355 6H11.3645C11.1601 6 10.9955 6.16193 10.9955 6.36294V8.90355H7.50387C7.29948 8.90355 7.13484 9.06548 7.13484 9.2665V11.9467C7.13484 12.1477 7.29948 12.3096 7.50387 12.3096H7.75794L7.00568 16.5756C7.00142 16.5966 7 16.6175 7 16.6371C7 16.8381 7.16465 17 7.36903 17H17.631C17.6523 17 17.6736 16.9986 17.6934 16.9944C17.895 16.9609 18.0298 16.7725 17.9943 16.5756ZM8.12839 9.88071H11.989V6.97716H13.011V9.88071H16.8716V11.3325H8.12839V9.88071ZM14.771 16.0228V13.8452C14.771 13.7838 14.7199 13.7335 14.6574 13.7335H13.9761C13.9137 13.7335 13.8626 13.7838 13.8626 13.8452V16.0228H11.1374V13.8452C11.1374 13.7838 11.0863 13.7335 11.0239 13.7335H10.3426C10.2801 13.7335 10.229 13.7838 10.229 13.8452V16.0228H8.11136L8.75149 12.3934H16.2471L16.8872 16.0228H14.771Z"
    fill="black" fill-opacity="1" />
</svg>