<svg width="22" height="22" viewBox="0 0 22 22" fill="none" xmlns="http://www.w3.org/2000/svg">
  <g clip-path="url(#clip0_4279_12681)">
    <path
      d="M4.58334 13.75H3.66668C3.18045 13.75 2.71413 13.5569 2.37031 13.213C2.0265 12.8692 1.83334 12.4029 1.83334 11.9167V3.66668C1.83334 3.18045 2.0265 2.71413 2.37031 2.37031C2.71413 2.0265 3.18045 1.83334 3.66668 1.83334H11.9167C12.4029 1.83334 12.8692 2.0265 13.213 2.37031C13.5569 2.71413 13.75 3.18045 13.75 3.66668V4.58334M10.0833 8.25001H18.3333C19.3459 8.25001 20.1667 9.07082 20.1667 10.0833V18.3333C20.1667 19.3459 19.3459 20.1667 18.3333 20.1667H10.0833C9.07082 20.1667 8.25001 19.3459 8.25001 18.3333V10.0833C8.25001 9.07082 9.07082 8.25001 10.0833 8.25001Z"
      stroke="black" stroke-opacity="0.8" stroke-width="2" stroke-linecap="round" stroke-linejoin="round" />
  </g>
  <defs>
    <clipPath id="clip0_4279_12681">
      <rect width="22" height="22" fill="white" />
    </clipPath>
  </defs>
</svg>