<svg width="16" height="16" viewBox="0 0 16 16" fill="none" xmlns="http://www.w3.org/2000/svg">
  <path
    d="M6.9167 1.89535C6.95386 1.8581 6.998 1.82854 7.0466 1.80838C7.09519 1.78821 7.14729 1.77783 7.1999 1.77783C7.25252 1.77783 7.30461 1.78821 7.35321 1.80838C7.4018 1.82854 7.44595 1.8581 7.4831 1.89535L9.8831 4.29535C9.95821 4.37046 10.0004 4.47233 10.0004 4.57855C10.0004 4.68477 9.95821 4.78664 9.8831 4.86175C9.80799 4.93686 9.70612 4.97905 9.5999 4.97905C9.49368 4.97905 9.39181 4.93686 9.3167 4.86175L7.5999 3.14415V9.37855C7.5999 9.48463 7.55776 9.58638 7.48274 9.66139C7.40773 9.7364 7.30599 9.77855 7.1999 9.77855C7.09382 9.77855 6.99207 9.7364 6.91706 9.66139C6.84204 9.58638 6.7999 9.48463 6.7999 9.37855V3.14415L5.0831 4.86175C5.00799 4.93686 4.90612 4.97905 4.7999 4.97905C4.69368 4.97905 4.59181 4.93686 4.5167 4.86175C4.44159 4.78664 4.3994 4.68477 4.3994 4.57855C4.3994 4.47233 4.44159 4.37046 4.5167 4.29535L6.9167 1.89535ZM4.2143 13.7785C4.35473 14.0218 4.5567 14.2237 4.79992 14.3642C5.04315 14.5046 5.31905 14.5785 5.5999 14.5785H10.3999C11.2486 14.5785 12.0625 14.2414 12.6626 13.6413C13.2628 13.0412 13.5999 12.2272 13.5999 11.3785V8.57855C13.5999 8.47246 13.5578 8.37072 13.4827 8.2957C13.4077 8.22069 13.306 8.17855 13.1999 8.17855C13.0938 8.17855 12.9921 8.22069 12.9171 8.2957C12.842 8.37072 12.7999 8.47246 12.7999 8.57855V11.3785C12.7999 12.0151 12.547 12.6255 12.097 13.0756C11.6469 13.5257 11.0364 13.7785 10.3999 13.7785H4.2143ZM3.1999 6.97855C3.1999 6.87246 3.15776 6.77072 3.08274 6.6957C3.00773 6.62069 2.90599 6.57855 2.7999 6.57855C2.69382 6.57855 2.59207 6.62069 2.51706 6.6957C2.44205 6.77072 2.3999 6.87246 2.3999 6.97855V11.3785C2.3999 11.8029 2.56847 12.2099 2.86853 12.5099C3.16859 12.81 3.57556 12.9785 3.9999 12.9785H10.3999C10.8242 12.9785 11.2312 12.81 11.5313 12.5099C11.8313 12.2099 11.9999 11.8029 11.9999 11.3785V6.97855C11.9999 6.87246 11.9578 6.77072 11.8827 6.6957C11.8077 6.62069 11.706 6.57855 11.5999 6.57855C11.4938 6.57855 11.3921 6.62069 11.3171 6.6957C11.242 6.77072 11.1999 6.87246 11.1999 6.97855V11.3785C11.1999 11.5907 11.1156 11.7942 10.9656 11.9442C10.8156 12.0943 10.6121 12.1785 10.3999 12.1785H3.9999C3.78773 12.1785 3.58425 12.0943 3.43422 11.9442C3.28419 11.7942 3.1999 11.5907 3.1999 11.3785V6.97855Z"
    fill="black" fill-opacity="1" />
</svg>