<svg width="14" height="14" viewBox="0 0 14 14" fill="none" xmlns="http://www.w3.org/2000/svg">
<path d="M10.8853 8.59266H8.81451M9.84701 7.5835V9.65433M12.6178 8.60433C12.6178 9.1235 12.472 9.6135 12.2153 10.0335C11.9712 10.4436 11.6243 10.783 11.209 11.0183C10.7937 11.2536 10.3243 11.3766 9.84701 11.3752C9.36994 11.3754 8.90097 11.2519 8.48588 11.0167C8.0708 10.7816 7.72377 10.4428 7.47868 10.0335C7.21449 9.60369 7.07512 9.10884 7.07618 8.60433C7.07618 7.076 8.31868 5.8335 9.84701 5.8335C11.3753 5.8335 12.6178 7.076 12.6178 8.60433Z" stroke="#646464" stroke-miterlimit="10" stroke-linecap="round" stroke-linejoin="round"/>
<path d="M12.069 2.34484V3.63984C12.069 4.11234 11.7715 4.7015 11.4798 4.999L10.4532 5.90317C10.2544 5.85589 10.0508 5.83239 9.8465 5.83317C8.31816 5.83317 7.07566 7.07567 7.07566 8.604C7.07566 9.12317 7.2215 9.61317 7.47816 10.0332C7.694 10.3948 7.9915 10.704 8.35316 10.9257V11.124C8.35316 11.4798 8.11983 11.9523 7.82233 12.1273L6.99983 12.6582C6.23566 13.1307 5.174 12.5998 5.174 11.6548V8.534C5.174 8.11984 4.93483 7.589 4.7015 7.29734L2.4615 4.94067C2.16983 4.64317 1.93066 4.11234 1.93066 3.76234V2.40317C1.93066 1.69734 2.4615 1.1665 3.109 1.1665H10.8907C11.5382 1.1665 12.069 1.69734 12.069 2.34484Z" stroke="#646464" stroke-miterlimit="10" stroke-linecap="round" stroke-linejoin="round"/>
</svg>
