<svg width="72" height="72" viewBox="0 0 72 72" fill="none" xmlns="http://www.w3.org/2000/svg">
<circle cx="36" cy="36" r="36" fill="white"/>
<circle cx="36" cy="36" r="35.5" stroke="black" stroke-opacity="0.1"/>
<g clip-path="url(#clip0_0_183)">
<path d="M36 42.6667C40.8827 42.6667 45.1533 44.7667 47.476 47.9L45.02 49.0613C43.1293 46.8213 39.796 45.3333 36 45.3333C32.204 45.3333 28.8707 46.8213 26.98 49.0613L24.5253 47.8987C26.848 44.7653 31.1173 42.6667 36 42.6667ZM36 22.6667C37.7681 22.6667 39.4638 23.3691 40.714 24.6193C41.9643 25.8695 42.6667 27.5652 42.6667 29.3333V33.3333C42.6666 35.0513 42.0033 36.7029 40.8151 37.9437C39.627 39.1845 38.0057 39.9188 36.2893 39.9933L36 40C34.2319 40 32.5362 39.2976 31.286 38.0474C30.0357 36.7971 29.3333 35.1014 29.3333 33.3333V29.3333C29.3334 27.6154 29.9967 25.9638 31.1849 24.723C32.373 23.4821 33.9943 22.7479 35.7107 22.6733L36 22.6667ZM36 25.3333C34.9797 25.3333 33.998 25.7231 33.2556 26.423C32.5133 27.123 32.0665 28.0801 32.0067 29.0987L32 29.3333V33.3333C31.999 34.3745 32.404 35.3751 33.129 36.1224C33.854 36.8697 34.8419 37.3049 35.8826 37.3355C36.9234 37.366 37.935 36.9896 38.7026 36.2861C39.4702 35.5826 39.9332 34.6075 39.9933 33.568L40 33.3333V29.3333C40 28.2725 39.5786 27.2551 38.8284 26.5049C38.0783 25.7548 37.0609 25.3333 36 25.3333Z" fill="url(#paint0_linear_0_183)"/>
</g>
<defs>
<linearGradient id="paint0_linear_0_183" x1="47.476" y1="35.864" x2="24.2419" y2="36.0783" gradientUnits="userSpaceOnUse">
<stop stop-color="#70FFBA"/>
<stop offset="1" stop-color="#78DEFF"/>
</linearGradient>
<clipPath id="clip0_0_183">
<rect width="32" height="32" fill="white" transform="translate(20 20)"/>
</clipPath>
</defs>
</svg>
