<svg width="1002" height="902" viewBox="0 0 1002 902" fill="none" xmlns="http://www.w3.org/2000/svg">
<g clip-path="url(#clip0_387_1813)">
<path d="M670.41 262.427C664.222 262.395 658.06 261.634 652.051 260.158C636.727 256.482 624.405 249.306 615.429 238.832C606.339 228.249 603.104 217.133 605.815 205.794C608.526 194.466 616.445 186.021 629.35 180.693C642.096 175.455 656.327 174.664 671.65 178.34C680.624 180.49 688.625 183.856 695.431 188.346C700.222 191.495 704.55 195.299 708.288 199.647C717.379 210.243 720.614 221.359 717.902 232.686C716.509 238.656 713.454 244.108 709.091 248.411C708.96 248.541 708.804 248.644 708.633 248.714C708.462 248.784 708.28 248.819 708.095 248.819C707.91 248.818 707.728 248.781 707.557 248.709C707.387 248.638 707.233 248.534 707.103 248.402C706.973 248.271 706.87 248.116 706.8 247.945C706.73 247.774 706.694 247.591 706.695 247.406C706.696 247.221 706.733 247.038 706.804 246.868C706.876 246.698 706.98 246.543 707.111 246.413C711.101 242.478 713.895 237.491 715.168 232.032C717.658 221.631 714.626 211.352 706.156 201.481C702.588 197.331 698.458 193.701 693.886 190.696C687.352 186.386 679.65 183.15 670.994 181.076C656.258 177.54 642.606 178.287 630.42 183.295C618.398 188.258 611.039 196.049 608.549 206.449C606.06 216.86 609.092 227.139 617.562 236.999C626.146 247.016 637.97 253.886 652.706 257.422C665.641 260.523 677.763 260.331 688.733 256.851C689.088 256.738 689.474 256.771 689.805 256.943C690.136 257.115 690.385 257.411 690.498 257.767C690.611 258.122 690.578 258.508 690.406 258.84C690.234 259.171 689.938 259.42 689.583 259.533C683.379 261.48 676.912 262.456 670.41 262.427Z" fill="#FDFEFF"/>
<path d="M450.765 678.104C450.679 678.28 450.603 678.462 450.54 678.649C450.461 678.846 450.394 679.048 450.337 679.252C449.14 683.794 453.181 689.131 462.461 695.266C464.024 687.244 465.597 679.278 467.181 671.368C458.008 672.212 452.536 674.457 450.765 678.104ZM545.104 375.337C549.121 367.841 551.85 359.722 553.177 351.32C546.827 361.664 539.529 369.085 531.28 373.583C520.702 379.316 513.626 382.078 510.052 381.867C509.952 383.825 509.851 387.227 509.749 392.075C516.701 392.574 523.852 393.236 531.201 394.06C536.767 388.569 541.456 382.254 545.104 375.337ZM827.991 231.076L821.058 251.489C831.345 261.67 838.98 273.916 843.963 288.227C846.986 296.78 848.805 305.713 849.368 314.768L854.962 296.061C854.963 296.002 854.962 295.948 854.961 295.899C854.827 284.271 853.217 273.402 850.13 263.293C846.732 252.181 839.353 241.442 827.991 231.076Z" fill="#62DFAC"/>
<path d="M523.586 720.06C530.948 721.991 538.001 723.603 544.745 724.896L555.852 686.189C549.089 683.872 541.862 681.707 534.171 679.693C517.35 675.28 502.13 672.553 488.512 671.509C484.564 671.194 480.753 671.028 477.076 671.011C473.403 670.992 470.105 671.111 467.182 671.368C465.598 679.278 464.025 687.244 462.462 695.266C464.568 696.657 466.943 698.089 469.587 699.562C473.213 701.584 477.077 703.53 481.179 705.403C493.254 710.922 507.39 715.808 523.586 720.06ZM611.622 326.503C603.486 325.293 595.229 325.136 587.054 326.039C578.901 326.862 570.795 328.103 562.769 329.756C557.045 330.951 551.386 332.424 545.793 334.175C541.703 335.414 537.71 336.954 533.846 338.783L533.158 339.138C532.85 339.287 532.553 339.445 532.265 339.61C528.677 340.848 525.902 341.848 523.939 342.611C520.513 343.927 517.183 345.485 513.977 347.271C506.665 351.373 501.427 356.386 498.263 362.31C497.096 364.377 496.335 366.65 496.024 369.004C495.67 371.288 496.074 373.625 497.174 375.658C498.136 377.278 499.521 378.605 501.18 379.495C502.848 380.426 504.658 381.073 506.537 381.411C507.698 381.637 508.872 381.789 510.052 381.867C513.626 382.077 520.702 379.316 531.28 373.583C539.529 369.085 546.828 361.664 553.177 351.32C550.552 367.534 542.858 382.497 531.201 394.06C551.02 396.255 572.265 399.58 594.938 404.037C597.406 399.389 602.32 389.25 609.681 373.62L617.497 376.303C618.997 376.628 620.478 376.931 621.939 377.211C628.016 378.399 634.17 379.143 640.354 379.438C647.026 371.479 655.511 365.557 665.809 361.67C673.928 358.525 682.624 357.146 691.317 357.624C697.66 352.293 704.668 346.302 712.339 339.652C714.32 337.922 716.344 336.153 718.413 334.347C718.267 332.707 717.987 331.081 717.577 329.487C716.257 325.063 712.947 320.969 707.648 317.206C706.828 316.62 704.599 315.148 700.962 312.789C700.562 312.534 700.173 312.282 699.795 312.032C691.973 316.611 686.005 320.068 681.892 322.403C675.977 325.752 668.156 331.069 658.43 338.354C653.941 337.754 649.505 336.805 645.164 335.516C641.264 334.371 637.259 333.101 633.15 331.707C632.368 331.442 631.588 331.171 630.809 330.894C625.859 329.174 619.463 327.71 611.622 326.503Z" fill="#71FCC3"/>
<path d="M607.393 720.621L607.416 720.517C608.797 715.239 603.139 708.897 590.442 701.492C587.3 711.247 584.382 720.331 581.687 728.744C597.299 728.719 605.867 726.012 607.393 720.621ZM572.289 298.963C572.257 296.335 572.068 293.71 571.723 291.104C571.343 288.137 570.514 285.245 569.264 282.528C567.501 283.899 565.504 284.935 563.37 285.588C561.656 286.002 559.966 286.513 558.31 287.118C556.46 287.857 555.189 288.883 554.498 290.197C553.872 291.464 553.724 292.914 554.081 294.281C554.471 295.76 555.016 297.193 555.71 298.556C555.914 298.997 556.1 299.409 556.269 299.793C556.74 300.808 557.158 301.848 557.519 302.907C557.988 304.311 558.03 305.823 557.64 307.251C557.137 308.858 555.922 310.208 553.995 311.302C552.218 312.207 550.366 312.956 548.459 313.539C543.043 315.347 537.934 317.971 533.308 321.322C534.009 324.994 534.304 328.733 534.187 332.47C534.099 334.725 533.754 336.962 533.158 339.138L533.846 338.784C537.709 336.955 541.703 335.414 545.793 334.175C551.386 332.424 557.044 330.951 562.769 329.756C563.038 326.516 563.833 324.061 565.153 322.391C565.934 321.496 566.793 320.67 567.718 319.925C568.637 319.181 569.475 318.344 570.219 317.425C571.246 315.929 571.891 314.203 572.097 312.399C572.289 310.556 572.366 308.704 572.326 306.852C572.33 306.445 572.331 306.056 572.327 305.683C572.313 301.65 572.3 299.41 572.289 298.963ZM754.705 295.41C756.191 295.132 757.622 294.836 758.996 294.523C760.155 293.934 761.192 293.403 762.11 292.93C763.742 292.144 764.566 291.243 764.582 290.227C764.602 289.416 764.105 288.666 763.091 287.979C761.864 287.227 760.481 286.767 759.049 286.635C758.067 286.518 755.25 286.628 750.599 286.963C750.562 286.967 750.52 286.97 750.471 286.972C749.281 287.051 748.098 287.216 746.931 287.464C741.651 288.564 736.491 290.176 731.524 292.277C728.039 293.705 721.225 298.077 711.085 305.392C706.966 307.81 703.203 310.024 699.796 312.032C700.173 312.282 700.562 312.534 700.962 312.789C704.599 315.148 706.828 316.621 707.648 317.206C712.947 320.969 716.257 325.063 717.577 329.487C717.987 331.082 718.267 332.707 718.413 334.347C720.499 332.519 722.635 330.649 724.823 328.736C738.416 327.903 745.549 323.552 746.22 315.685C746.227 309.665 745.865 305.244 745.133 302.423C745.76 300.687 747.14 299.157 749.273 297.832C751.396 296.493 753.207 295.685 754.705 295.41ZM747.651 636.52C747.719 636.204 747.771 635.885 747.804 635.563C748.743 626.123 733.882 614.644 703.221 601.128C688.647 594.773 673.76 589.164 658.617 584.321L662.983 569.541C654.535 568.647 645.821 567.508 636.843 566.127C623.108 564.015 608.763 561.339 593.81 558.099C591.99 557.705 590.188 557.308 588.404 556.91C587.566 560.339 586.712 563.758 585.843 567.169C584.79 571.259 583.702 575.347 582.578 579.434C581.786 582.321 580.975 585.21 580.146 588.102C580.128 588.126 580.115 588.154 580.11 588.184C578.311 594.451 576.425 600.7 574.454 606.93C576.841 607.699 579.183 608.483 581.479 609.28C594.229 613.674 605.418 618.551 615.046 623.912C630.364 632.448 637.254 639.717 635.716 645.717L635.712 645.734C635.688 645.849 635.657 645.962 635.621 646.074C656.153 648.735 675.136 650.167 692.568 650.369C727.21 650.75 745.571 646.133 747.651 636.52Z" fill="#1B1B1B"/>
<path d="M600.789 521.934L598.047 531.2C590.851 529.449 583.451 527.75 575.849 526.103C567.479 524.289 559.309 522.633 551.338 521.134C544.186 519.789 537.192 518.567 530.358 517.47L518.927 552.275C523.837 557.883 529.402 562.882 535.501 567.165C541.305 571.243 547.44 574.829 553.84 577.886C561.422 581.465 569.215 584.577 577.175 587.206C578.069 587.508 579.047 587.834 580.11 588.184C580.116 588.154 580.128 588.126 580.146 588.101C580.975 585.21 581.786 582.321 582.578 579.434C583.702 575.347 584.79 571.259 585.843 567.169C586.713 563.758 587.566 560.339 588.404 556.91C590.188 557.308 591.99 557.705 593.81 558.099C608.764 561.339 623.108 564.015 636.843 566.127C645.821 567.508 654.535 568.646 662.983 569.541L671.192 541.739C646.438 541.135 622.231 534.326 600.789 521.934Z" fill="#C3E1EC"/>
<path d="M621.939 377.212C620.478 376.931 618.997 376.628 617.497 376.303L609.681 373.62C602.32 389.25 597.406 399.389 594.938 404.037C597.524 404.549 600.131 405.078 602.758 405.623C606.122 406.304 609.522 407.016 612.957 407.761C616.502 395.694 619.497 385.511 621.939 377.212ZM503.227 260.412C502.748 259.744 502.306 259.073 501.901 258.397L488.317 312.294C478.004 312.118 467.741 313.776 458.006 317.188C455.402 318.047 452.887 319.152 450.495 320.491C448.133 321.818 446.063 323.61 444.411 325.758C443.139 327.472 442.206 329.414 441.663 331.478C442.21 343.412 444.45 353.2 448.382 360.841C452.14 368.101 457.207 374.603 463.327 380.021C468.022 384.179 473.156 387.813 478.638 390.859C479.741 390.858 480.854 390.865 481.978 390.881C490.862 390.982 500.119 391.38 509.749 392.075C509.851 387.227 509.952 383.825 510.052 381.867C508.872 381.789 507.698 381.637 506.537 381.412C504.658 381.073 502.847 380.426 501.18 379.495C499.521 378.605 498.135 377.278 497.173 375.658C496.074 373.626 495.67 371.288 496.024 369.004C496.335 366.65 497.095 364.377 498.263 362.31C501.427 356.386 506.664 351.373 513.976 347.272C517.183 345.485 520.512 343.928 523.939 342.611C525.902 341.848 528.677 340.848 532.265 339.61C532.553 339.445 532.85 339.287 533.158 339.138C533.754 336.962 534.099 334.725 534.187 332.47C534.304 328.733 534.009 324.994 533.308 321.322C533.249 321.045 533.194 320.769 533.146 320.495C533.118 320.345 532.216 316.455 530.438 308.825C529.729 305.732 529.206 302.968 528.87 300.532C528.735 300.215 528.61 299.906 528.495 299.605C527.281 296.618 526.496 293.474 526.165 290.266C525.921 287.629 526.096 284.971 526.682 282.389C524.089 280.304 520.686 277.444 516.474 273.808C513.38 271.158 511.03 269.054 509.425 267.495C507.158 265.319 505.083 262.949 503.227 260.412L503.227 260.412ZM607.637 317.327C600.704 315.19 589.95 311.654 575.375 306.721C574.326 306.362 573.31 306.016 572.327 305.683C572.331 306.056 572.33 306.445 572.326 306.852C572.366 308.704 572.289 310.556 572.097 312.398C571.891 314.202 571.246 315.928 570.219 317.425C569.475 318.344 568.637 319.181 567.718 319.924C566.793 320.67 565.934 321.495 565.153 322.391C563.833 324.06 563.038 326.515 562.769 329.756C570.795 328.102 578.901 326.862 587.054 326.039C595.229 325.136 603.486 325.292 611.621 326.503C619.463 327.71 625.859 329.174 630.809 330.894C631.588 331.171 632.368 331.442 633.15 331.707L634.673 324.75C626.393 322.8 617.381 320.326 607.637 317.327Z" fill="#AEE4EA"/>
<path d="M483.279 593.222C487.459 592.763 491.663 592.562 495.868 592.621C505.055 592.728 514.222 593.481 523.303 594.877C530.354 595.913 537.747 597.31 545.481 599.07C538.4 596.12 531.794 593.052 525.664 589.864C511.549 582.524 499.974 574.528 490.938 565.877C488.06 574.97 485.229 584.121 482.446 593.33C482.718 593.293 482.995 593.257 483.279 593.222ZM466.721 604.353C466.686 604.346 466.649 604.344 466.614 604.348C459.129 604.649 451.684 605.588 444.359 607.155C441.769 607.645 439.258 608.487 436.895 609.658C435.072 610.534 433.515 611.879 432.384 613.557C432.114 613.971 431.881 614.408 431.688 614.864C430.323 618.07 430.862 621.48 433.305 625.092C435.249 627.96 438.131 630.654 441.949 633.172C446.841 636.379 452.324 639.594 458.399 642.818L466.721 604.353ZM398.476 523.875L398.382 524.395C397.209 530.87 404.843 539.379 421.285 549.923L429.707 510.994C410.587 512.609 400.176 516.903 398.476 523.875ZM678.793 367.974C682.634 364.847 686.808 361.398 691.316 357.624C682.623 357.146 673.928 358.525 665.809 361.67C655.511 365.557 647.026 371.479 640.354 379.438C655.719 380.056 667.682 376.92 676.244 370.031C677.073 369.359 677.923 368.673 678.793 367.974Z" fill="#63DCF5"/>
<path d="M482.446 593.33C482.228 594.062 482.009 594.795 481.791 595.527C480.899 598.488 480.009 601.463 479.123 604.449C476.318 604.285 473.504 604.216 470.682 604.24C469.48 604.255 468.281 604.289 467.083 604.342C466.963 604.34 466.842 604.343 466.721 604.353L458.399 642.818L450.766 678.104C452.536 674.457 458.008 672.212 467.182 671.368C470.104 671.111 473.402 670.992 477.076 671.011C480.752 671.028 484.564 671.194 488.511 671.509C502.13 672.553 517.349 675.28 534.171 679.692C541.862 681.707 549.089 683.872 555.851 686.189C568.154 690.378 578.921 695.044 588.153 700.187C588.934 700.62 589.697 701.055 590.441 701.492C603.139 708.897 608.797 715.239 607.415 720.518L607.393 720.621L635.62 646.074C635.656 645.962 635.687 645.849 635.712 645.734L635.716 645.717C637.253 639.717 630.363 632.448 615.046 623.912C605.418 618.551 594.229 613.674 581.479 609.28C579.182 608.483 576.84 607.699 574.454 606.93C572.334 606.255 570.176 605.596 567.978 604.952C564.451 603.912 560.833 602.906 557.123 601.934C553.153 600.894 549.272 599.939 545.481 599.07C537.747 597.31 530.354 595.913 523.302 594.877C514.222 593.481 505.054 592.728 495.868 592.621C491.663 592.563 487.458 592.763 483.278 593.222C482.995 593.257 482.718 593.293 482.446 593.33ZM772.366 554.519C772.376 554.473 772.392 554.428 772.413 554.385C772.537 553.98 772.643 553.572 772.732 553.159C775.223 541.643 760.765 528.219 729.358 512.886C729.339 512.87 729.317 512.859 729.293 512.854C722.516 509.55 715.388 506.375 707.909 503.327C700.619 500.344 692.999 497.476 685.049 494.721L671.191 541.739L662.983 569.541L658.617 584.321C673.76 589.164 688.647 594.773 703.22 601.128C733.882 614.644 748.743 626.123 747.803 635.563L767.261 571.388L772.366 554.519Z" fill="#D8FAFF"/>
<path d="M501.041 534.887C503.352 527.975 505.69 521.099 508.057 514.258C491.78 512.207 476.489 510.945 462.183 510.473C460.544 510.405 458.923 510.36 457.322 510.337C456.679 510.318 456.046 510.307 455.423 510.304L432.385 613.557C433.516 611.88 435.073 610.534 436.896 609.659C439.258 608.487 441.769 607.645 444.36 607.156C451.685 605.589 459.13 604.649 466.614 604.348C466.65 604.344 466.686 604.346 466.721 604.353C466.843 604.344 466.964 604.34 467.083 604.342C468.281 604.289 469.481 604.256 470.683 604.24C473.505 604.216 476.319 604.286 479.124 604.45C480.01 601.463 480.899 598.489 481.791 595.527C482.01 594.795 482.228 594.062 482.447 593.33C485.23 584.121 488.061 574.97 490.939 565.878C494.233 555.472 497.6 545.141 501.041 534.887Z" fill="#A8D7DD"/>
<path d="M531.201 394.06C523.852 393.236 516.702 392.574 509.75 392.075C500.119 391.38 490.862 390.982 481.978 390.881C480.855 390.865 479.741 390.858 478.638 390.859C443.491 390.765 424.831 395.737 422.66 405.774C422.61 406.003 422.572 406.235 422.545 406.469L398.477 523.876C400.177 516.903 410.587 512.609 429.707 510.994C436.534 510.41 444.467 510.167 453.508 510.266C454.141 510.272 454.78 510.284 455.423 510.304C456.046 510.307 456.679 510.318 457.322 510.337C458.923 510.36 460.543 510.405 462.183 510.473C476.488 510.945 491.78 512.207 508.057 514.258C515.292 515.166 522.726 516.237 530.358 517.47C537.193 518.567 544.186 519.789 551.338 521.134C559.309 522.633 567.479 524.289 575.849 526.103C583.451 527.75 590.851 529.449 598.047 531.2L600.789 521.934L633.11 412.343C627.092 410.907 620.964 409.507 614.726 408.144L613.73 407.928L612.957 407.761C609.522 407.016 606.122 406.304 602.758 405.623C600.131 405.078 597.524 404.549 594.938 404.037C572.265 399.58 551.019 396.255 531.201 394.06Z" fill="#FAF6F6"/>
<path d="M538.303 268.317C536.088 269.457 534.017 270.856 532.133 272.486C529.803 274.715 528.094 277.514 527.176 280.607C526.989 281.19 526.825 281.784 526.682 282.389C526.096 284.971 525.922 287.629 526.165 290.266C526.496 293.474 527.281 296.618 528.496 299.605C528.61 299.906 528.735 300.215 528.87 300.532C529.206 302.968 529.729 305.732 530.439 308.825C532.216 316.455 533.119 320.345 533.146 320.495C533.195 320.769 533.249 321.045 533.309 321.322C537.934 317.971 543.043 315.347 548.459 313.539C550.366 312.956 552.219 312.207 553.995 311.302C555.922 310.208 557.137 308.857 557.641 307.251C558.03 305.823 557.988 304.311 557.52 302.907C557.158 301.847 556.741 300.808 556.269 299.793C556.101 299.409 555.914 298.996 555.71 298.556C555.017 297.193 554.471 295.76 554.082 294.281C553.725 292.914 553.872 291.463 554.498 290.197C555.19 288.883 556.46 287.857 558.31 287.118C559.966 286.512 561.656 286.001 563.37 285.587C565.504 284.935 567.502 283.898 569.264 282.528C570.763 281.347 572.082 279.954 573.179 278.392C575.778 274.745 576.835 270.914 576.349 266.898C576.105 264.862 575.403 262.907 574.296 261.181C573.202 259.435 571.776 257.922 570.099 256.727C566.352 254.044 562.529 253.294 558.629 254.476C556.448 255.143 554.043 256.619 551.415 258.905C549.986 260.191 548.908 261.157 548.181 261.803C547.111 262.772 545.99 263.682 544.822 264.53C543.846 265.218 541.673 266.48 538.303 268.317Z" fill="#2196F3"/>
<path d="M523.95 170.853C511.497 171.957 501.539 173.884 494.076 176.634C486.602 179.381 479.562 183.637 472.956 189.403C466.34 195.167 461.579 201.657 458.676 208.872C457.877 210.846 456.713 213.845 455.184 217.868C454.978 218.375 454.781 218.872 454.591 219.359L441.663 331.478C442.206 329.414 443.139 327.472 444.411 325.758C446.063 323.61 448.133 321.818 450.495 320.491C452.887 319.152 455.402 318.046 458.006 317.188C467.741 313.776 478.004 312.118 488.317 312.294L501.901 258.397L523.95 170.853ZM808.139 488.895C804.45 491.089 800.551 492.908 796.5 494.326C788.475 497.181 778.606 499.139 766.893 500.2C755.455 501.227 743.968 501.604 732.488 501.329C731.467 505.162 730.402 509.004 729.293 512.854C729.317 512.859 729.34 512.87 729.358 512.886C760.766 528.219 775.224 541.644 772.733 553.159C772.643 553.572 772.537 553.98 772.413 554.385C772.392 554.428 772.377 554.473 772.366 554.519L767.261 571.388C769.904 571.361 772.373 571.278 774.668 571.139C781.945 570.771 789.159 569.594 796.176 567.631C798.609 566.967 800.965 566.048 803.205 564.889C805.421 563.777 807.358 562.179 808.873 560.216C809.468 559.408 809.98 558.542 810.403 557.632C810.714 556.922 810.974 556.191 811.182 555.444C811.507 554.208 811.702 552.942 811.766 551.666C811.901 548.535 811.363 545.412 810.187 542.507C809.02 539.647 807.481 536.954 805.609 534.498C804.435 532.888 802.471 530.496 799.718 527.32C798.441 525.856 797.298 524.547 796.289 523.393C800.501 511.123 804.452 499.623 808.139 488.895ZM815.886 392.998C812.325 384.357 807.577 376.941 801.641 370.749C796.437 365.327 790.751 361.33 784.583 358.759L794.599 329.333C792.377 330.459 790.065 331.506 787.663 332.472C778.939 335.918 769.815 338.246 760.507 339.4C752.292 340.475 742.984 340.893 732.583 340.655C729.135 340.58 724.676 340.387 719.205 340.078C717.063 339.95 714.775 339.808 712.339 339.652C704.668 346.302 697.66 352.293 691.317 357.624C686.809 361.397 682.634 364.847 678.793 367.974C671.719 389.04 665.08 410.279 658.878 431.69C658.347 433.482 657.827 435.276 657.318 437.074C678.196 440.202 699.223 442.235 720.313 443.165C722.536 443.251 724.706 443.331 726.824 443.406C743.616 443.961 757.226 443.935 767.654 443.328C779.393 442.644 790.249 440.03 800.221 435.485C809.264 431.363 815.181 426.036 817.973 419.503L819.326 414.992C820.513 408.784 819.367 401.453 815.886 392.998Z" fill="#8BD6E2"/>
<path d="M844.004 464.728C844.363 461.131 844.455 457.512 844.279 453.901C844.012 447.214 842.495 440.637 839.808 434.508C837.772 429.781 834.841 425.492 831.177 421.879C825.214 439.191 817.535 461.53 808.139 488.895C804.452 499.623 800.502 511.122 796.289 523.392C797.298 524.547 798.441 525.856 799.719 527.32C802.472 530.496 804.435 532.888 805.609 534.498C807.481 536.954 809.021 539.647 810.188 542.507C811.363 545.412 811.902 548.535 811.766 551.666C811.703 552.942 811.507 554.208 811.183 555.444L844.004 464.728Z" fill="#8EC1D3"/>
<path d="M849.369 314.768C848.805 305.713 846.986 296.78 843.964 288.227C838.981 273.916 831.346 261.671 821.058 251.489L794.599 329.333L784.583 358.759C790.751 361.33 796.437 365.327 801.641 370.749C807.577 376.941 812.325 384.357 815.886 392.998C819.367 401.453 820.513 408.784 819.326 414.993L849.369 314.768Z" fill="#A1ECF9"/>
<path d="M728.798 523.073C728.791 523.078 728.773 523.074 728.746 523.062C723.751 520.53 718.456 518.052 712.861 515.626C707.347 513.216 701.548 510.85 695.464 508.528L680.087 558.33C687.953 560.582 695.088 562.95 701.492 565.432C707.672 567.829 713.648 570.718 719.365 574.073C724.901 577.325 730.079 580.594 734.899 583.88C739.351 586.805 743.296 590.437 746.579 594.633L759.962 551.885C759.971 551.856 759.983 551.828 759.998 551.802C760.087 551.553 760.16 551.299 760.217 551.04C761.784 543.798 751.311 534.475 728.798 523.073Z" fill="white"/>
<path d="M594.952 458.262L603.246 426.749C581.538 422.868 563.374 419.972 548.754 418.061C545.919 428.636 543.57 439.328 541.707 450.137C555.66 451.79 573.408 454.499 594.952 458.262Z" fill="#8BD6E2"/>
<path d="M785.261 575.663C785.034 575.661 784.816 575.572 784.653 575.413C784.491 575.255 784.396 575.039 784.388 574.812C784.381 574.584 784.462 574.363 784.614 574.194C784.766 574.025 784.978 573.922 785.204 573.906C789.39 573.692 793.4 572.153 796.656 569.512C799.942 566.837 801.63 563.801 801.817 560.229C802.128 555.42 799.589 550.14 794.272 544.525C789.144 539.106 781.63 533.629 771.938 528.247C769.255 526.73 764.961 524.452 759.17 521.472C753.517 518.574 749.203 516.29 746.349 514.686C746.248 514.63 746.159 514.554 746.088 514.463C746.017 514.373 745.964 514.269 745.933 514.158C745.902 514.046 745.893 513.93 745.906 513.816C745.92 513.701 745.956 513.59 746.012 513.489C746.069 513.389 746.145 513.3 746.235 513.229C746.326 513.157 746.43 513.105 746.541 513.073C746.652 513.042 746.768 513.033 746.883 513.047C746.997 513.06 747.108 513.097 747.209 513.153C750.044 514.746 754.338 517.019 759.971 519.908C765.785 522.898 770.1 525.187 772.796 526.713C782.64 532.179 790.296 537.766 795.547 543.316C801.214 549.3 803.914 555.025 803.571 560.332C803.36 564.36 801.407 567.911 797.766 570.875C794.228 573.749 789.871 575.424 785.32 575.66C785.301 575.662 785.281 575.663 785.261 575.663ZM450.314 385.405C450.256 385.405 450.199 385.4 450.142 385.388C445.762 384.522 441.86 382.166 438.547 378.388C435.46 374.862 433.298 370.622 432.254 366.052C431.12 361.27 431.21 356.86 432.522 352.944C434.475 347.178 439.436 342.16 447.267 338.026C454.438 334.237 462.879 331.474 472.355 329.813C479.713 328.533 488.615 327.801 498.816 327.637C502.041 327.578 505.289 327.567 508.47 327.602C508.7 327.607 508.918 327.703 509.079 327.869C509.239 328.034 509.328 328.255 509.327 328.486C509.325 328.716 509.234 328.937 509.072 329.1C508.91 329.264 508.69 329.357 508.46 329.36H508.451C505.286 329.325 502.056 329.337 498.846 329.395C488.735 329.558 479.924 330.281 472.657 331.545C463.363 333.174 455.096 335.878 448.087 339.581C440.667 343.498 435.99 348.183 434.187 353.506C432.982 357.103 432.907 361.188 433.964 365.647C434.942 369.937 436.971 373.917 439.867 377.228C442.92 380.708 446.491 382.873 450.483 383.663C450.697 383.706 450.888 383.826 451.018 384.001C451.148 384.176 451.208 384.394 451.187 384.611C451.166 384.828 451.065 385.03 450.903 385.177C450.742 385.323 450.532 385.405 450.314 385.405Z" fill="#F7F6F1"/>
<path d="M574.692 503.791C574.643 503.791 574.594 503.787 574.546 503.779C557.143 500.864 542.402 498.725 530.733 497.419C530.618 497.407 530.506 497.372 530.405 497.316C530.303 497.261 530.214 497.185 530.141 497.095C530.069 497.005 530.015 496.901 529.983 496.79C529.951 496.679 529.941 496.563 529.954 496.447C529.967 496.332 530.002 496.221 530.058 496.12C530.114 496.019 530.189 495.929 530.28 495.857C530.37 495.785 530.474 495.732 530.585 495.7C530.696 495.668 530.813 495.658 530.928 495.672C542.629 496.98 557.401 499.124 574.836 502.044C575.053 502.081 575.249 502.198 575.384 502.372C575.519 502.546 575.584 502.764 575.566 502.984C575.548 503.203 575.448 503.408 575.286 503.558C575.124 503.707 574.912 503.79 574.692 503.791ZM422.126 497.882C421.91 497.882 421.701 497.801 421.54 497.657C421.379 497.512 421.278 497.313 421.254 497.098C421.231 496.883 421.288 496.666 421.414 496.49C421.54 496.314 421.726 496.191 421.937 496.144C428.343 494.761 434.832 493.797 441.363 493.26C449.577 492.558 460.359 492.279 473.413 492.431C480.065 492.524 486.546 492.684 492.677 492.906C492.907 492.918 493.123 493.02 493.279 493.191C493.435 493.361 493.517 493.585 493.509 493.816C493.5 494.047 493.402 494.265 493.234 494.423C493.067 494.582 492.843 494.668 492.613 494.663C486.495 494.442 480.028 494.282 473.391 494.189C460.397 494.039 449.671 494.315 441.513 495.012C435.059 495.543 428.646 496.495 422.316 497.861C422.254 497.875 422.19 497.882 422.126 497.882ZM588.434 489.511C588.383 489.511 588.333 489.507 588.283 489.498C566.237 485.686 548.039 482.966 534.194 481.416C533.966 481.386 533.76 481.267 533.618 481.086C533.477 480.905 533.412 480.675 533.438 480.447C533.463 480.218 533.577 480.009 533.755 479.864C533.933 479.718 534.161 479.648 534.389 479.669C548.269 481.223 566.502 483.947 588.582 487.766C588.799 487.803 588.993 487.921 589.127 488.095C589.261 488.269 589.325 488.488 589.307 488.707C589.288 488.926 589.188 489.13 589.026 489.279C588.865 489.428 588.653 489.511 588.434 489.511ZM425.553 482.108C425.337 482.108 425.128 482.027 424.968 481.883C424.807 481.739 424.705 481.54 424.681 481.326C424.657 481.111 424.713 480.895 424.839 480.719C424.964 480.542 425.149 480.419 425.36 480.371C431.984 478.911 438.698 477.901 445.458 477.345C453.67 476.643 464.446 476.358 477.49 476.498C483.929 476.592 490.196 476.746 496.12 476.956C496.35 476.968 496.566 477.07 496.722 477.24C496.877 477.411 496.96 477.635 496.951 477.865C496.943 478.096 496.845 478.314 496.678 478.472C496.511 478.631 496.288 478.717 496.058 478.713C490.146 478.504 483.892 478.35 477.467 478.256C464.485 478.116 453.765 478.4 445.608 479.097C438.928 479.646 432.292 480.644 425.746 482.086C425.683 482.101 425.618 482.108 425.553 482.108ZM592.001 473.016C591.951 473.016 591.901 473.012 591.852 473.004C569.867 469.249 551.919 466.643 538.507 465.256L537.729 465.187C537.5 465.164 537.288 465.051 537.141 464.873C536.993 464.695 536.922 464.466 536.942 464.236C536.963 464.005 537.072 463.792 537.248 463.642C537.424 463.493 537.652 463.418 537.883 463.435L538.677 463.506C552.138 464.898 570.124 467.509 592.148 471.27C592.365 471.307 592.559 471.425 592.694 471.599C592.829 471.773 592.893 471.991 592.875 472.211C592.856 472.43 592.756 472.634 592.594 472.784C592.433 472.933 592.221 473.016 592.001 473.016ZM428.698 467.547C428.485 467.547 428.28 467.469 428.12 467.329C427.96 467.189 427.856 466.995 427.828 466.784C427.8 466.573 427.849 466.358 427.967 466.181C428.085 466.004 428.263 465.875 428.468 465.819C436.637 463.672 444.981 462.256 453.4 461.589C461.614 460.886 472.395 460.608 485.45 460.759C490.275 460.818 495.022 460.918 499.561 461.058C499.791 461.069 500.008 461.17 500.165 461.339C500.322 461.509 500.406 461.733 500.399 461.964C500.392 462.195 500.294 462.413 500.127 462.573C499.96 462.732 499.738 462.82 499.507 462.816C494.979 462.676 490.243 462.576 485.43 462.518C472.433 462.366 461.707 462.643 453.551 463.341C445.236 463.999 436.996 465.397 428.929 467.516C428.854 467.537 428.776 467.547 428.698 467.547ZM594.953 459.141C594.902 459.141 594.851 459.137 594.801 459.128C573.372 455.385 555.474 452.654 541.604 451.011C541.486 450.997 541.371 450.959 541.268 450.899C541.165 450.839 541.075 450.759 541.003 450.663C540.932 450.568 540.881 450.458 540.853 450.342C540.825 450.226 540.821 450.106 540.842 449.988C542.7 439.205 545.076 428.386 547.905 417.833C547.96 417.627 548.088 417.448 548.265 417.33C548.442 417.211 548.657 417.161 548.868 417.189C563.434 419.093 581.781 422.018 603.401 425.883C603.52 425.904 603.634 425.95 603.735 426.018C603.836 426.085 603.921 426.173 603.987 426.275C604.052 426.378 604.096 426.493 604.114 426.613C604.133 426.733 604.127 426.855 604.096 426.973L595.802 458.486C595.752 458.674 595.642 458.84 595.489 458.958C595.335 459.077 595.147 459.141 594.953 459.141ZM542.732 449.374C556.327 451.011 573.67 453.661 594.308 457.257L602.154 427.447C581.344 423.737 563.605 420.908 549.404 419.034C546.755 429.001 544.513 439.199 542.732 449.374ZM432.335 450.753C432.118 450.753 431.908 450.671 431.747 450.525C431.586 450.379 431.484 450.178 431.462 449.962C431.441 449.745 431.5 449.528 431.629 449.353C431.757 449.177 431.947 449.056 432.16 449.012C437.911 447.856 443.723 447.029 449.569 446.536C457.761 445.845 468.539 445.566 481.601 445.706C488.958 445.811 496.077 445.994 502.765 446.251C502.995 446.265 503.209 446.368 503.364 446.539C503.518 446.709 503.599 446.933 503.59 447.163C503.582 447.393 503.483 447.61 503.316 447.768C503.15 447.926 502.928 448.012 502.698 448.009C496.024 447.752 488.919 447.569 481.579 447.464C468.574 447.325 457.853 447.602 449.719 448.288C443.942 448.776 438.197 449.593 432.512 450.735C432.454 450.747 432.395 450.753 432.335 450.753Z" fill="#BABBCD"/>
<path d="M510.426 382.76C510.283 382.76 510.144 382.756 510.01 382.748C509.894 382.744 509.779 382.717 509.672 382.668C509.566 382.619 509.471 382.549 509.392 382.463C509.313 382.376 509.252 382.275 509.213 382.165C509.174 382.054 509.157 381.937 509.163 381.821C509.17 381.704 509.2 381.589 509.251 381.484C509.302 381.379 509.374 381.285 509.462 381.208C509.55 381.131 509.652 381.072 509.763 381.035C509.874 380.998 509.992 380.984 510.108 380.993C513.486 381.178 520.485 378.431 530.869 372.814C541.208 367.176 550.165 356.657 557.488 341.55C557.538 341.446 557.608 341.352 557.694 341.275C557.78 341.198 557.881 341.138 557.99 341.1C558.1 341.062 558.215 341.045 558.331 341.052C558.446 341.059 558.559 341.088 558.664 341.139C558.768 341.189 558.861 341.26 558.938 341.347C559.014 341.433 559.073 341.535 559.111 341.644C559.149 341.754 559.164 341.87 559.157 341.985C559.15 342.101 559.12 342.214 559.069 342.318C551.583 357.761 542.377 368.541 531.707 374.36C521.266 380.007 514.294 382.76 510.426 382.76ZM595.584 382.328C595.364 382.327 595.153 382.245 594.992 382.096C594.83 381.948 594.73 381.744 594.711 381.526C594.691 381.307 594.754 381.089 594.887 380.915C595.02 380.741 595.214 380.622 595.43 380.583C596.857 380.292 598.222 379.751 599.462 378.985C600.773 378.154 602.039 377.253 603.253 376.286C603.438 376.147 603.67 376.086 603.899 376.117C604.128 376.148 604.336 376.268 604.477 376.451C604.619 376.634 604.682 376.865 604.654 377.095C604.627 377.324 604.509 377.534 604.328 377.677C603.058 378.69 601.733 379.631 600.359 380.497C598.939 381.37 597.375 381.985 595.74 382.314C595.688 382.323 595.636 382.328 595.584 382.328ZM607.41 373.975C607.268 373.975 607.127 373.94 607.001 373.873L598.69 369.495C598.485 369.385 598.332 369.199 598.265 368.977C598.197 368.755 598.219 368.515 598.327 368.31C598.435 368.104 598.62 367.95 598.842 367.881C599.063 367.811 599.303 367.832 599.509 367.938L607.82 372.317C607.994 372.409 608.132 372.556 608.213 372.735C608.293 372.915 608.311 373.116 608.264 373.307C608.217 373.497 608.107 373.667 607.952 373.788C607.797 373.909 607.607 373.975 607.41 373.975ZM658.775 343.534C658.766 343.534 658.756 343.534 658.747 343.534C656.708 343.448 654.684 343.131 652.716 342.59C651.162 342.168 648.317 341.2 644.012 339.63C632.746 335.489 621.906 332.891 611.789 331.906C600.097 330.785 589.212 331.797 579.439 334.911C579.218 334.978 578.979 334.955 578.775 334.848C578.571 334.74 578.417 334.556 578.347 334.336C578.277 334.116 578.296 333.877 578.401 333.671C578.505 333.465 578.686 333.309 578.905 333.235C588.907 330.048 600.028 329.012 611.958 330.156C622.225 331.155 633.212 333.787 644.616 337.978C648.813 339.51 651.692 340.49 653.172 340.892C654.932 341.375 656.739 341.668 658.562 341.767C660.001 340.959 661.791 339.997 663.887 338.903C673.017 334.138 683.92 327.422 696.31 318.932C695.304 318.454 694.259 318.061 693.188 317.755C693.075 317.726 692.968 317.674 692.876 317.603C692.783 317.531 692.705 317.442 692.647 317.341C692.589 317.239 692.551 317.127 692.537 317.01C692.523 316.894 692.533 316.776 692.565 316.663C692.597 316.551 692.651 316.446 692.724 316.354C692.797 316.263 692.888 316.187 692.991 316.131C693.094 316.075 693.207 316.041 693.323 316.029C693.44 316.018 693.557 316.029 693.669 316.064C695.329 316.537 696.927 317.204 698.43 318.051C698.444 318.059 698.457 318.066 698.47 318.074C698.719 318.217 698.977 318.369 699.245 318.533C701.005 319.595 702.61 320.894 704.016 322.394C705.519 324.023 706.832 325.816 707.931 327.741C709.322 330.212 710.439 332.828 711.262 335.542C711.328 335.765 711.302 336.004 711.192 336.208C711.082 336.412 710.895 336.564 710.673 336.631C710.451 336.698 710.212 336.675 710.007 336.566C709.802 336.458 709.649 336.272 709.58 336.051C708.796 333.463 707.731 330.969 706.405 328.613C705.374 326.807 704.142 325.124 702.733 323.595C701.437 322.212 699.956 321.015 698.333 320.036C698.238 319.978 698.145 319.922 698.053 319.867C685.295 328.641 674.075 335.569 664.7 340.462C662.513 341.603 660.665 342.598 659.207 343.421C659.075 343.495 658.926 343.534 658.775 343.534ZM573.057 299.025C572.919 299.025 572.784 298.993 572.661 298.931C572.539 298.869 572.432 298.78 572.351 298.669C572.269 298.559 572.214 298.43 572.191 298.295C572.168 298.16 572.176 298.02 572.216 297.889C572.429 297.192 572.457 296.65 572.29 296.401C572.063 296.098 571.746 295.876 571.385 295.765C570.144 295.323 568.816 295.185 567.511 295.362C566.093 295.555 564.696 295.878 563.338 296.33C561.953 296.696 560.634 297.276 559.427 298.048C559.334 298.116 559.228 298.166 559.116 298.193C559.003 298.22 558.887 298.225 558.772 298.207C558.658 298.189 558.549 298.149 558.45 298.089C558.351 298.028 558.266 297.949 558.198 297.856C558.13 297.762 558.081 297.656 558.054 297.543C558.027 297.431 558.022 297.314 558.041 297.2C558.059 297.086 558.1 296.976 558.16 296.878C558.221 296.779 558.3 296.693 558.394 296.626C559.754 295.735 561.248 295.068 562.818 294.65C564.283 294.165 565.79 293.818 567.32 293.614C568.905 293.404 570.517 293.58 572.021 294.125C572.733 294.364 573.347 294.829 573.769 295.45C574.239 296.155 574.286 297.129 573.897 298.403C573.842 298.583 573.73 298.741 573.579 298.853C573.428 298.965 573.245 299.025 573.057 299.025ZM573.216 293.486C573.088 293.486 572.961 293.458 572.845 293.404C572.729 293.35 572.626 293.271 572.543 293.173C572.461 293.075 572.401 292.96 572.367 292.836C572.333 292.712 572.327 292.583 572.349 292.457C572.664 290.64 571.997 290.089 571.778 289.908C570.752 289.059 567.365 288.264 556.217 292.48C555.999 292.559 555.76 292.549 555.55 292.452C555.34 292.356 555.176 292.18 555.095 291.964C555.013 291.748 555.02 291.508 555.113 291.296C555.207 291.085 555.38 290.919 555.595 290.835C564.987 287.284 570.486 286.558 572.898 288.553C574.007 289.47 574.405 290.884 574.08 292.757C574.045 292.961 573.939 293.146 573.781 293.279C573.623 293.413 573.423 293.486 573.216 293.486Z" fill="#42A5F5"/>
<path d="M735.514 317.877C735.293 317.876 735.081 317.793 734.919 317.643C734.757 317.493 734.657 317.288 734.64 317.068C734.622 316.848 734.688 316.629 734.824 316.455C734.96 316.281 735.156 316.165 735.374 316.13C738.161 315.673 740.978 315.429 743.801 315.397C743.918 315.394 744.034 315.415 744.143 315.457C744.251 315.499 744.351 315.563 744.435 315.644C744.518 315.725 744.585 315.822 744.631 315.93C744.677 316.037 744.702 316.152 744.703 316.269C744.704 316.386 744.681 316.501 744.637 316.609C744.593 316.718 744.528 316.816 744.445 316.898C744.363 316.981 744.265 317.046 744.157 317.09C744.049 317.135 743.933 317.157 743.816 317.156C741.082 317.186 738.354 317.423 735.655 317.866C735.608 317.873 735.561 317.877 735.514 317.877ZM734.013 310.176C733.771 310.176 733.562 310.169 733.384 310.154C733.268 310.146 733.154 310.115 733.05 310.063C732.946 310.01 732.853 309.938 732.777 309.849C732.701 309.761 732.643 309.658 732.607 309.547C732.571 309.436 732.558 309.318 732.568 309.202C732.577 309.086 732.61 308.973 732.664 308.869C732.718 308.765 732.792 308.674 732.882 308.599C732.972 308.525 733.076 308.469 733.188 308.435C733.299 308.401 733.417 308.39 733.533 308.401C734.06 308.446 735.332 308.422 738.397 308.053C740.627 307.813 742.349 307.906 743.675 308.336C743.897 308.407 744.081 308.564 744.187 308.772C744.293 308.98 744.312 309.221 744.24 309.443C744.169 309.665 744.012 309.849 743.804 309.955C743.597 310.061 743.356 310.08 743.134 310.009C742.063 309.662 740.535 309.592 738.595 309.8C737.076 310.008 735.546 310.134 734.013 310.176ZM731.718 304.301C731.503 304.301 731.295 304.221 731.135 304.078C730.974 303.935 730.872 303.738 730.847 303.524C730.822 303.31 730.876 303.094 730.999 302.918C731.123 302.741 731.306 302.616 731.516 302.566C733.194 302.167 734.425 301.892 735.174 301.749C736.441 301.508 737.729 301.391 739.019 301.399C740.019 301.377 741.018 301.465 741.998 301.66C742.224 301.705 742.424 301.837 742.553 302.028C742.683 302.219 742.732 302.453 742.69 302.68C742.649 302.907 742.52 303.109 742.332 303.241C742.143 303.374 741.91 303.427 741.683 303.39C740.822 303.217 739.946 303.139 739.068 303.157C739.049 303.158 739.03 303.158 739.01 303.158C737.83 303.149 736.652 303.257 735.494 303.478C734.78 303.614 733.575 303.884 731.922 304.277C731.855 304.293 731.787 304.301 731.718 304.301Z" fill="#62DFAC"/>
<path d="M417.663 547.667C417.503 547.667 417.346 547.623 417.21 547.54C402.707 538.798 396.266 531.178 397.522 524.244C397.567 524.019 397.699 523.82 397.89 523.691C398.08 523.561 398.313 523.512 398.54 523.553C398.766 523.594 398.967 523.722 399.1 523.91C399.233 524.098 399.287 524.33 399.251 524.558C398.156 530.603 404.504 537.829 418.117 546.034C418.281 546.133 418.409 546.284 418.48 546.462C418.55 546.641 418.561 546.838 418.51 547.023C418.458 547.208 418.347 547.371 418.194 547.488C418.041 547.604 417.855 547.667 417.663 547.667Z" fill="white"/>
<path d="M747.973 593.213C747.845 593.213 747.718 593.185 747.602 593.131C747.486 593.077 747.383 592.998 747.3 592.899C735.888 579.306 712.967 566.943 679.173 556.154C678.954 556.084 678.771 555.931 678.663 555.727C678.556 555.523 678.532 555.286 678.598 555.065L692.973 506.81C693.006 506.7 693.06 506.597 693.133 506.507C693.205 506.417 693.295 506.343 693.397 506.288C693.498 506.233 693.61 506.198 693.724 506.186C693.839 506.175 693.955 506.186 694.066 506.219C694.176 506.252 694.279 506.306 694.369 506.379C694.459 506.452 694.533 506.542 694.588 506.643C694.643 506.745 694.677 506.856 694.689 506.971C694.7 507.086 694.69 507.202 694.656 507.313L680.528 554.742C714.194 565.572 737.111 578.028 748.646 591.768C748.753 591.896 748.822 592.052 748.844 592.218C748.866 592.384 748.84 592.553 748.769 592.705C748.699 592.857 748.586 592.985 748.445 593.075C748.304 593.165 748.14 593.213 747.973 593.213Z" fill="#A1ECF9"/>
<path d="M616.338 699.588C616.205 699.588 616.073 699.557 615.953 699.499C615.833 699.44 615.728 699.355 615.646 699.25C615.563 699.144 615.506 699.022 615.478 698.891C615.451 698.76 615.453 698.625 615.485 698.495C615.5 698.438 615.514 698.385 615.529 698.339C616.816 693.37 611.075 687.129 598.464 679.79C597.702 679.321 596.919 678.868 596.115 678.431C586.706 673.178 575.575 668.354 563.021 664.088C556.115 661.726 548.627 659.484 540.764 657.424C518.612 651.608 498.909 648.606 482.201 648.502C467.014 648.428 458.159 650.729 455.917 655.324C455.868 655.429 455.798 655.523 455.711 655.601C455.625 655.679 455.524 655.739 455.414 655.778C455.304 655.816 455.188 655.833 455.072 655.826C454.956 655.819 454.842 655.789 454.738 655.738C454.633 655.687 454.54 655.616 454.463 655.529C454.386 655.441 454.327 655.339 454.29 655.229C454.253 655.119 454.238 655.002 454.246 654.886C454.255 654.77 454.286 654.657 454.338 654.553C456.901 649.299 465.805 646.742 481.547 646.742C481.767 646.742 481.988 646.742 482.211 646.743C499.066 646.849 518.916 649.87 541.21 655.723C549.113 657.794 556.642 660.049 563.588 662.424C576.241 666.723 587.47 671.59 596.962 676.891C597.784 677.338 598.597 677.807 599.367 678.282C612.933 686.177 618.78 692.895 617.223 698.809C617.218 698.827 617.212 698.846 617.206 698.863C617.201 698.88 617.196 698.9 617.19 698.921C617.143 699.112 617.033 699.28 616.879 699.401C616.724 699.522 616.534 699.588 616.338 699.588ZM622.208 680.49C622.077 680.49 621.947 680.461 621.829 680.404C621.71 680.347 621.606 680.265 621.524 680.163C621.441 680.061 621.383 679.942 621.352 679.814C621.322 679.686 621.32 679.554 621.348 679.425C621.352 679.37 621.361 679.316 621.375 679.263C622.684 674.302 616.944 668.053 604.315 660.692C603.556 660.248 602.774 659.799 601.97 659.344C592.564 654.098 581.427 649.273 568.873 645.008C561.979 642.646 554.491 640.404 546.616 638.344C524.462 632.54 504.759 629.544 488.053 629.439C472.86 629.36 464.017 631.648 461.787 636.242C461.683 636.448 461.502 636.605 461.284 636.679C461.065 636.752 460.826 636.737 460.619 636.636C460.411 636.536 460.252 636.357 460.175 636.14C460.098 635.922 460.109 635.683 460.206 635.474C462.794 630.145 471.915 627.595 488.063 627.68C504.916 627.786 524.765 630.801 547.061 636.642C554.977 638.714 562.507 640.969 569.44 643.344C582.092 647.642 593.327 652.51 602.83 657.81C603.647 658.272 604.437 658.726 605.201 659.173C618.723 667.055 624.578 673.749 623.094 679.632C623.087 679.697 623.075 679.761 623.059 679.824C623.012 680.014 622.902 680.183 622.748 680.303C622.594 680.424 622.404 680.49 622.208 680.49ZM630.15 665.771C630.016 665.771 629.884 665.74 629.764 665.681C629.644 665.622 629.539 665.536 629.457 665.431C629.374 665.325 629.318 665.202 629.29 665.07C629.263 664.939 629.266 664.804 629.299 664.674C629.313 664.618 629.327 664.567 629.341 664.523C630.675 659.378 624.732 652.918 611.679 645.323C610.893 644.842 610.091 644.376 609.272 643.926C599.543 638.5 588.028 633.511 575.041 629.093C567.912 626.661 560.175 624.342 552.045 622.2C529.146 616.198 508.787 613.101 491.533 612.997C491.278 612.995 491.023 612.995 490.771 612.995C475.514 612.995 466.627 615.366 464.353 620.046C464.302 620.15 464.232 620.244 464.146 620.321C464.06 620.398 463.959 620.458 463.85 620.496C463.74 620.534 463.625 620.55 463.509 620.543C463.394 620.536 463.28 620.507 463.176 620.456C463.072 620.405 462.979 620.335 462.903 620.248C462.826 620.161 462.767 620.06 462.73 619.951C462.692 619.841 462.677 619.725 462.684 619.61C462.691 619.494 462.721 619.381 462.772 619.277C465.4 613.869 474.563 611.236 490.768 611.236C491.025 611.236 491.282 611.237 491.543 611.238C508.944 611.344 529.449 614.459 552.491 620.499C560.662 622.652 568.439 624.983 575.607 627.429C588.693 631.88 600.306 636.913 610.123 642.388C610.959 642.847 611.787 643.327 612.579 643.813C626.597 651.969 632.639 658.9 631.035 664.992C631.03 665.01 631.025 665.027 631.02 665.044C631.013 665.063 631.007 665.084 631.001 665.109C630.953 665.298 630.843 665.466 630.689 665.586C630.535 665.706 630.345 665.771 630.15 665.771ZM687.812 634.687C683.296 634.687 675.414 634.495 664.334 634.116C654.008 633.754 644.28 633.12 635.422 632.231C635.307 632.219 635.195 632.186 635.093 632.131C634.992 632.076 634.901 632.002 634.828 631.913C634.755 631.824 634.7 631.721 634.667 631.61C634.633 631.499 634.622 631.383 634.634 631.268C634.645 631.153 634.679 631.042 634.734 630.94C634.789 630.838 634.863 630.748 634.952 630.675C635.042 630.602 635.145 630.547 635.255 630.514C635.366 630.48 635.482 630.469 635.597 630.481C644.418 631.366 654.107 631.998 664.394 632.359C676.67 632.779 685.007 632.968 689.166 632.921C698.35 632.828 706.639 632.082 713.805 630.703C714.33 630.589 714.886 630.48 715.437 630.384C715.552 630.362 715.67 630.362 715.784 630.386C715.899 630.409 716.008 630.456 716.104 630.522C716.201 630.589 716.283 630.673 716.346 630.772C716.409 630.871 716.452 630.981 716.472 631.096C716.492 631.212 716.489 631.33 716.463 631.444C716.437 631.558 716.388 631.666 716.32 631.761C716.251 631.856 716.164 631.936 716.065 631.997C715.965 632.058 715.854 632.099 715.738 632.117C715.212 632.208 714.68 632.312 714.157 632.426C706.868 633.829 698.473 634.586 689.185 634.679C688.769 634.684 688.311 634.686 687.812 634.687ZM732.791 626.485C732.591 626.485 732.397 626.417 732.242 626.292C732.086 626.167 731.977 625.992 731.933 625.797C731.89 625.602 731.914 625.397 732.002 625.218C732.09 625.038 732.237 624.894 732.418 624.809C733.889 624.119 735.342 623.372 736.736 622.588C736.836 622.531 736.947 622.495 737.062 622.481C737.176 622.467 737.293 622.476 737.404 622.507C737.515 622.539 737.619 622.591 737.71 622.663C737.801 622.734 737.876 622.823 737.933 622.923C737.989 623.024 738.026 623.135 738.039 623.25C738.053 623.364 738.044 623.481 738.013 623.592C737.982 623.703 737.929 623.807 737.857 623.898C737.786 623.989 737.697 624.065 737.597 624.121C736.166 624.926 734.674 625.693 733.163 626.402C733.047 626.456 732.92 626.485 732.791 626.485ZM671.14 619.975C667.55 619.975 663.957 619.912 660.361 619.784C651.735 619.479 639.943 617.924 625.312 615.162C610.715 612.397 599.424 610.201 591.754 608.635C591.528 608.586 591.331 608.45 591.205 608.256C591.079 608.062 591.034 607.827 591.081 607.6C591.127 607.374 591.26 607.175 591.452 607.046C591.644 606.917 591.878 606.869 592.105 606.912C599.767 608.476 611.05 610.67 625.639 613.434C640.182 616.18 651.885 617.725 660.423 618.027C668.946 618.329 677.517 618.27 685.898 617.851C686.129 617.844 686.353 617.927 686.523 618.083C686.692 618.239 686.794 618.456 686.806 618.686C686.817 618.917 686.738 619.143 686.584 619.315C686.431 619.487 686.216 619.592 685.986 619.608C681.086 619.853 676.121 619.975 671.14 619.975ZM711.211 615.828C710.999 615.828 710.795 615.751 710.635 615.611C710.475 615.472 710.371 615.279 710.342 615.069C710.313 614.859 710.361 614.645 710.477 614.468C710.593 614.29 710.769 614.16 710.973 614.103C714.319 613.16 717.607 612.027 720.823 610.707C721.037 610.623 721.276 610.627 721.487 610.718C721.699 610.809 721.866 610.979 721.954 611.191C722.041 611.404 722.042 611.643 721.956 611.856C721.87 612.07 721.703 612.241 721.492 612.333C718.214 613.678 714.861 614.834 711.451 615.795C711.373 615.817 711.292 615.828 711.211 615.828ZM680.321 601.367C654.47 601.367 626.583 598.205 597.281 591.945C597.167 591.923 597.057 591.878 596.96 591.813C596.863 591.748 596.779 591.665 596.715 591.567C596.65 591.47 596.606 591.36 596.584 591.245C596.562 591.13 596.564 591.012 596.588 590.898C596.613 590.783 596.66 590.675 596.726 590.579C596.793 590.483 596.879 590.401 596.977 590.339C597.076 590.276 597.186 590.234 597.302 590.214C597.417 590.195 597.535 590.199 597.649 590.225C630.077 597.154 660.752 600.271 688.835 599.491C689.065 599.49 689.287 599.578 689.452 599.738C689.617 599.898 689.714 600.116 689.72 600.346C689.726 600.576 689.642 600.8 689.486 600.969C689.33 601.137 689.113 601.238 688.884 601.249C686.056 601.328 683.201 601.367 680.321 601.367ZM656.966 583.611C656.951 583.611 656.936 583.611 656.922 583.61C637.442 582.642 618.086 579.957 599.078 575.587C598.964 575.563 598.856 575.516 598.76 575.449C598.665 575.382 598.584 575.297 598.521 575.199C598.459 575.101 598.416 574.991 598.397 574.876C598.377 574.761 598.38 574.644 598.407 574.53C598.433 574.417 598.481 574.309 598.549 574.215C598.617 574.12 598.703 574.04 598.802 573.979C598.901 573.918 599.012 573.877 599.127 573.859C599.242 573.841 599.359 573.846 599.472 573.873C618.38 578.22 637.633 580.891 657.009 581.853C657.237 581.866 657.451 581.967 657.606 582.135C657.76 582.303 657.844 582.525 657.838 582.753C657.833 582.981 657.739 583.199 657.576 583.359C657.413 583.519 657.194 583.609 656.966 583.611Z" fill="#8BD6E2"/>
<path d="M607.411 722.396C607.18 722.396 606.951 722.35 606.738 722.262C606.525 722.174 606.331 722.044 606.168 721.881C606.005 721.718 605.876 721.524 605.787 721.31C605.699 721.097 605.653 720.868 605.654 720.637C605.654 720.442 605.681 720.248 605.736 720.06C606.828 715.718 601.239 709.821 589.567 703.006C588.84 702.596 588.071 702.161 587.284 701.715C578.211 696.65 567.442 691.984 555.288 687.853C548.595 685.554 541.348 683.384 533.743 681.4C512.278 675.766 493.209 672.862 477.066 672.77C459.127 672.672 453.725 676.031 452.351 678.866C452.146 679.284 451.784 679.604 451.345 679.755C450.905 679.907 450.423 679.878 450.005 679.675C449.587 679.471 449.266 679.111 449.113 678.671C448.96 678.232 448.987 677.749 449.189 677.33C451.825 671.896 460.705 669.25 476.325 669.25C476.577 669.25 476.83 669.251 477.085 669.253C493.524 669.347 512.885 672.289 534.632 677.997C542.32 680.003 549.652 682.199 556.424 684.524C568.774 688.722 579.738 693.476 589.007 698.65C589.802 699.101 590.567 699.533 591.315 699.955C604.863 707.866 610.69 714.713 609.149 720.897C609.087 721.314 608.877 721.695 608.558 721.97C608.239 722.245 607.832 722.396 607.411 722.396ZM593.477 531.875C593.34 531.875 593.202 531.859 593.069 531.827C587.35 530.463 581.432 529.117 575.478 527.825C567.166 526.02 558.94 524.348 551.03 522.858C543.921 521.531 536.876 520.303 530.094 519.208C522.512 517.975 515.031 516.895 507.856 515.999C491.701 513.964 476.319 512.696 462.134 512.231C460.501 512.161 458.879 512.114 457.299 512.091C456.659 512.079 456.037 512.073 455.427 512.073C455.405 512.073 455.383 512.073 455.361 512.072C454.739 512.049 454.112 512.032 453.479 512.02C444.557 511.928 436.611 512.174 429.868 512.753C411.927 514.26 401.662 518.25 400.18 524.292C400.069 524.745 399.783 525.136 399.384 525.377C398.986 525.619 398.508 525.692 398.055 525.581C397.602 525.47 397.213 525.183 396.971 524.784C396.73 524.386 396.656 523.907 396.767 523.454C398.696 515.588 409.427 510.941 429.571 509.248C436.422 508.66 444.484 508.411 453.529 508.503C454.188 508.516 454.826 508.533 455.46 508.556C456.08 508.557 456.712 508.563 457.356 508.574C458.964 508.598 460.618 508.646 462.267 508.716C476.542 509.184 492.033 510.461 508.293 512.509C515.509 513.41 523.033 514.496 530.655 515.736C537.464 516.835 544.538 518.068 551.677 519.401C559.623 520.898 567.88 522.576 576.224 524.388C582.2 525.685 588.142 527.036 593.884 528.406C594.302 528.506 594.669 528.756 594.915 529.109C595.162 529.462 595.27 529.893 595.22 530.321C595.17 530.748 594.965 531.143 594.644 531.429C594.323 531.716 593.908 531.874 593.477 531.875Z" fill="white"/>
<path d="M749.766 619.697C749.547 619.697 749.331 619.639 749.142 619.527C748.953 619.416 748.797 619.256 748.69 619.064C748.406 618.553 748.104 618.038 747.79 617.534C745.839 614.502 743.494 611.744 740.816 609.332C737.148 605.937 732.132 602.4 725.904 598.817C709.482 589.321 691.972 581.849 673.755 576.564C673.6 576.519 673.455 576.444 673.329 576.343C673.203 576.242 673.098 576.117 673.02 575.975C672.942 575.833 672.893 575.678 672.875 575.517C672.857 575.356 672.871 575.194 672.916 575.038C672.961 574.883 673.036 574.738 673.137 574.612C673.238 574.486 673.363 574.381 673.504 574.303C673.646 574.225 673.801 574.175 673.962 574.158C674.123 574.14 674.285 574.154 674.44 574.199C692.847 579.539 710.539 587.089 727.132 596.684C733.518 600.358 738.683 604.004 742.482 607.521C745.322 610.081 747.808 613.009 749.875 616.227C750.213 616.771 750.537 617.322 750.84 617.868C750.944 618.055 750.998 618.266 750.995 618.48C750.993 618.695 750.934 618.905 750.826 619.089C750.717 619.274 750.562 619.427 750.377 619.534C750.191 619.64 749.981 619.697 749.766 619.697ZM752.279 610.078C752.055 610.078 751.834 610.017 751.642 609.9C751.45 609.784 751.293 609.618 751.189 609.419C749.084 605.55 746.323 602.076 743.031 599.151C739.351 595.755 734.335 592.212 728.115 588.616C712.797 579.764 696.53 572.669 679.623 567.466C679.469 567.419 679.325 567.341 679.201 567.238C679.076 567.135 678.973 567.009 678.898 566.866C678.822 566.723 678.775 566.567 678.76 566.406C678.745 566.245 678.762 566.082 678.809 565.928C678.857 565.773 678.934 565.63 679.037 565.505C679.14 565.381 679.266 565.278 679.409 565.202C679.552 565.126 679.708 565.079 679.869 565.064C680.03 565.049 680.192 565.066 680.346 565.113C697.43 570.371 713.868 577.54 729.346 586.485C735.722 590.171 740.886 593.822 744.695 597.338C748.196 600.453 751.13 604.154 753.367 608.274C753.465 608.462 753.514 608.671 753.508 608.883C753.501 609.095 753.44 609.301 753.331 609.483C753.222 609.664 753.067 609.814 752.883 609.918C752.699 610.023 752.491 610.077 752.279 610.078ZM720.107 553.769C720.08 553.769 720.053 553.769 720.026 553.769C717.556 553.836 715.135 553.081 713.141 551.621C711.909 550.529 710.777 549.33 709.759 548.036C708.623 546.676 707.614 545.777 706.758 545.364C706.747 545.358 706.736 545.353 706.725 545.347C705.388 544.7 703.865 544.547 702.426 544.916C700.799 545.289 699.247 545.933 697.835 546.822C695.864 548.163 694.354 549.165 693.343 549.8C691.766 550.849 690.035 551.648 688.213 552.166C688.057 552.206 687.894 552.214 687.734 552.191C687.574 552.168 687.42 552.113 687.281 552.031C687.143 551.948 687.021 551.839 686.925 551.709C686.828 551.58 686.758 551.433 686.718 551.276C686.678 551.119 686.67 550.956 686.693 550.796C686.716 550.636 686.77 550.482 686.853 550.344C686.935 550.205 687.044 550.083 687.174 549.987C687.303 549.89 687.45 549.82 687.607 549.78C689.179 549.324 690.671 548.628 692.031 547.717C693.025 547.093 694.52 546.101 696.479 544.767C696.497 544.755 696.516 544.743 696.535 544.731C698.195 543.689 700.019 542.936 701.931 542.504C703.917 542.024 706.009 542.254 707.844 543.155C709.028 543.731 710.272 544.811 711.645 546.455C713.391 548.538 714.239 549.354 714.642 549.671C716.205 550.804 718.103 551.38 720.032 551.307C720.055 551.307 720.078 551.307 720.1 551.307C722.169 551.282 724.209 550.821 726.087 549.953C728.038 549.028 729.91 547.944 731.684 546.714C734.688 544.746 736.555 543.55 737.404 543.052C742.276 540.288 747.722 538.69 753.314 538.384C753.64 538.365 753.96 538.476 754.203 538.693C754.447 538.911 754.594 539.216 754.613 539.542C754.632 539.868 754.52 540.188 754.303 540.431C754.086 540.675 753.781 540.823 753.455 540.841C748.245 541.125 743.172 542.612 738.632 545.186C737.846 545.647 735.959 546.855 733.042 548.767C731.154 550.074 729.162 551.223 727.085 552.204C724.895 553.21 722.517 553.744 720.107 553.769Z" fill="#8BD6E2"/>
<path d="M712.054 660.495C711.741 660.495 711.44 660.375 711.212 660.161C710.984 659.946 710.847 659.653 710.827 659.34C710.808 659.028 710.908 658.72 711.108 658.479C711.308 658.237 711.592 658.082 711.902 658.043C715.49 657.592 718.242 657.156 720.081 656.744C722.682 656.2 725.192 655.289 727.536 654.039C729.86 652.795 731.838 650.993 733.291 648.793C734.814 646.466 735.456 644.166 735.255 641.764C735.056 639.478 734.038 637.209 732.23 635.025C730.906 633.4 728.499 631.347 725.068 628.913C719.056 624.903 711.522 621.214 702.704 617.968C701.968 617.703 701.207 617.436 700.427 617.168C697.35 616.072 693.513 614.824 689.011 613.453C688.704 613.354 688.448 613.138 688.299 612.852C688.15 612.566 688.119 612.232 688.212 611.924C688.306 611.615 688.518 611.355 688.801 611.201C689.084 611.046 689.417 611.009 689.727 611.098C694.266 612.479 698.139 613.74 701.239 614.844C702.016 615.111 702.789 615.383 703.545 615.654C712.552 618.97 720.26 622.747 726.462 626.885C730.153 629.502 732.653 631.647 734.131 633.462C736.258 636.031 737.463 638.756 737.706 641.554C737.952 644.488 737.159 647.376 735.349 650.143C733.677 652.679 731.399 654.759 728.723 656.195C726.176 657.558 723.447 658.552 720.62 659.146C718.703 659.575 715.874 660.026 712.208 660.486C712.157 660.492 712.105 660.495 712.054 660.495Z" fill="#F7F6F1"/>
<path d="M401.498 447.271C401.251 447.271 401.008 447.206 400.794 447.083C400.58 446.959 400.402 446.781 400.279 446.566C398.654 443.747 398.09 440.44 398.687 437.241C399.25 434.087 400.678 431.15 402.81 428.76C404.965 426.429 407.49 424.473 410.285 422.97C413.127 421.464 416.09 420.201 419.144 419.192C427.222 416.462 436.554 414.54 446.884 413.479C447.068 413.46 447.254 413.477 447.431 413.529C447.608 413.582 447.773 413.669 447.917 413.786C448.061 413.902 448.18 414.046 448.268 414.209C448.356 414.372 448.411 414.55 448.429 414.735C448.448 414.919 448.431 415.105 448.378 415.282C448.325 415.459 448.237 415.624 448.12 415.768C448.003 415.911 447.859 416.03 447.696 416.118C447.533 416.205 447.355 416.26 447.171 416.278C437.049 417.317 427.923 419.194 420.046 421.856C417.149 422.812 414.338 424.009 411.64 425.435C409.128 426.782 406.856 428.536 404.916 430.625C403.13 432.624 401.933 435.08 401.458 437.719C400.965 440.27 401.411 442.914 402.715 445.162C402.838 445.376 402.903 445.618 402.902 445.865C402.902 446.112 402.837 446.354 402.714 446.568C402.591 446.781 402.414 446.959 402.2 447.082C401.987 447.206 401.745 447.271 401.498 447.271Z" fill="#BABBCD"/>
<path d="M478.973 204.011C478.693 204.011 478.42 203.927 478.188 203.771C477.955 203.614 477.775 203.392 477.67 203.132C477.565 202.872 477.54 202.587 477.598 202.313C477.656 202.039 477.794 201.788 477.995 201.593C487.33 192.55 501.802 186.399 521.008 183.313C540.042 180.254 564.309 180.109 593.135 182.879C593.505 182.918 593.844 183.1 594.079 183.388C594.314 183.675 594.426 184.044 594.39 184.414C594.355 184.783 594.175 185.124 593.889 185.361C593.604 185.598 593.236 185.713 592.866 185.68C535.88 180.202 497.89 186.236 479.951 203.615C479.689 203.869 479.338 204.011 478.973 204.011Z" fill="#74CED2"/>
<path d="M739.223 421.874C737.651 421.874 736.078 421.863 734.518 421.842C718.47 421.611 702.46 420.22 686.612 417.681C685.616 417.503 684.635 417.334 683.654 417.17C683.429 417.127 683.229 416.998 683.097 416.809C682.966 416.621 682.914 416.388 682.951 416.161C682.989 415.935 683.114 415.732 683.299 415.596C683.485 415.461 683.716 415.403 683.943 415.436C684.931 415.6 685.918 415.771 686.905 415.947C702.664 418.472 718.585 419.854 734.543 420.084C737.122 420.119 739.74 420.125 742.325 420.101C750.57 420.02 758.937 419.619 767.193 418.909C772.59 418.496 777.961 417.802 783.286 416.829C788.548 415.845 793.688 414.296 798.618 412.208C803.713 409.989 808.54 406.137 812.964 400.761C813.112 400.581 813.325 400.467 813.557 400.445C813.789 400.422 814.021 400.493 814.201 400.641C814.38 400.79 814.494 401.003 814.516 401.235C814.539 401.467 814.468 401.699 814.32 401.879C809.719 407.471 804.672 411.489 799.32 413.821C794.272 415.959 789.009 417.547 783.621 418.555C778.235 419.54 772.801 420.243 767.342 420.661C759.043 421.375 750.631 421.778 742.341 421.86C741.306 421.869 740.264 421.874 739.223 421.874ZM735.42 410.061C733.533 410.061 731.648 410.037 729.764 409.989C715.831 409.627 701.962 407.961 688.339 405.011C688.114 404.958 687.919 404.82 687.796 404.625C687.672 404.429 687.63 404.193 687.679 403.968C687.728 403.742 687.864 403.544 688.057 403.418C688.25 403.291 688.486 403.246 688.712 403.292C702.227 406.219 715.986 407.872 729.809 408.232C743.641 408.58 757.475 407.642 771.134 405.429C782.08 403.647 790.715 401.099 796.798 397.854C802.816 394.62 806.902 391.156 808.941 387.557C808.997 387.454 809.072 387.363 809.163 387.289C809.254 387.216 809.359 387.161 809.472 387.129C809.584 387.097 809.702 387.087 809.818 387.101C809.934 387.114 810.046 387.151 810.148 387.209C810.25 387.267 810.339 387.344 810.411 387.437C810.482 387.53 810.534 387.636 810.564 387.749C810.594 387.862 810.601 387.98 810.585 388.096C810.569 388.212 810.53 388.323 810.47 388.424C808.265 392.316 803.944 396.01 797.627 399.404C791.371 402.742 782.553 405.352 771.415 407.165C759.514 409.094 747.476 410.062 735.42 410.061ZM727.377 398.779C715.763 398.777 704.178 397.644 692.784 395.395C692.665 395.371 692.552 395.323 692.453 395.254C692.353 395.185 692.269 395.096 692.206 394.993C692.142 394.89 692.101 394.774 692.084 394.654C692.067 394.534 692.075 394.412 692.108 394.295L701.105 362.096C701.16 361.901 701.28 361.73 701.446 361.614C701.612 361.497 701.813 361.441 702.015 361.456C717.504 362.582 733.063 362.236 748.486 360.422C748.627 360.406 748.769 360.423 748.901 360.474C749.033 360.524 749.151 360.605 749.245 360.711C749.339 360.816 749.406 360.943 749.44 361.08C749.475 361.217 749.476 361.36 749.444 361.498C746.37 374.525 743.466 386.692 740.815 397.658C740.771 397.839 740.67 398.002 740.528 398.122C740.386 398.243 740.209 398.315 740.023 398.328C735.814 398.629 731.599 398.779 727.377 398.779ZM694.057 393.851C708.943 396.708 724.134 397.639 739.258 396.619C741.784 386.163 744.537 374.631 747.446 362.312C732.558 363.986 717.549 364.304 702.604 363.261L694.057 393.851ZM750.714 397.768C750.487 397.766 750.27 397.677 750.108 397.52C749.945 397.362 749.85 397.147 749.842 396.921C749.833 396.695 749.912 396.474 750.063 396.304C750.213 396.135 750.423 396.03 750.648 396.012C775.798 394.104 793.555 387.511 803.426 376.415C803.583 376.246 803.799 376.145 804.028 376.134C804.258 376.123 804.483 376.203 804.655 376.356C804.826 376.509 804.931 376.723 804.947 376.953C804.963 377.182 804.888 377.409 804.739 377.584C794.554 389.032 776.4 395.822 750.781 397.765C750.758 397.767 750.736 397.768 750.714 397.768ZM754.703 385.353C754.481 385.352 754.269 385.268 754.107 385.117C753.945 384.966 753.845 384.76 753.829 384.539C753.812 384.319 753.879 384.1 754.017 383.926C754.154 383.753 754.352 383.638 754.571 383.604C763.752 382.232 772.74 379.777 781.345 376.291C786.601 374.16 791.022 371.448 794.488 368.23C794.658 368.072 794.885 367.987 795.118 367.996C795.351 368.005 795.571 368.106 795.729 368.277C795.888 368.448 795.972 368.675 795.963 368.908C795.954 369.141 795.853 369.361 795.683 369.519C792.06 372.883 787.459 375.709 782.007 377.92C773.275 381.458 764.154 383.949 754.837 385.342C754.792 385.349 754.748 385.353 754.703 385.353ZM756.319 372.621C756.098 372.62 755.885 372.536 755.723 372.385C755.561 372.235 755.462 372.028 755.445 371.808C755.428 371.587 755.496 371.368 755.633 371.194C755.771 371.021 755.969 370.906 756.187 370.872C765.367 369.5 774.354 367.051 782.962 363.576C783.619 363.311 784.274 363.036 784.911 362.758C785.017 362.712 785.131 362.687 785.246 362.685C785.362 362.683 785.476 362.704 785.583 362.746C785.691 362.788 785.789 362.851 785.872 362.931C785.955 363.011 786.022 363.107 786.068 363.213C786.114 363.319 786.139 363.433 786.141 363.548C786.143 363.663 786.122 363.778 786.08 363.886C786.038 363.993 785.975 364.091 785.895 364.174C785.815 364.257 785.719 364.324 785.613 364.37C784.962 364.655 784.292 364.936 783.623 365.206C774.888 368.732 765.769 371.218 756.453 372.611C756.409 372.617 756.364 372.621 756.319 372.621ZM757.215 361.014C756.994 361.014 756.781 360.93 756.619 360.779C756.458 360.628 756.358 360.422 756.342 360.201C756.325 359.98 756.392 359.761 756.53 359.588C756.668 359.415 756.865 359.3 757.084 359.266C766.07 357.926 774.872 355.551 783.314 352.188C783.5 352.102 783.691 352.025 783.886 351.959C783.985 351.919 784.089 351.874 784.197 351.825C784.409 351.729 784.651 351.721 784.869 351.803C785.087 351.885 785.263 352.05 785.359 352.263C785.456 352.475 785.464 352.717 785.382 352.935C785.3 353.154 785.134 353.33 784.922 353.427C784.78 353.491 784.645 353.549 784.516 353.601C784.5 353.607 784.484 353.613 784.468 353.618C784.321 353.668 784.176 353.726 784.035 353.792C784.02 353.798 784.006 353.805 783.991 353.811C775.417 357.229 766.477 359.643 757.349 361.004C757.305 361.011 757.26 361.014 757.215 361.014Z" fill="#8EC1D3"/>
<path d="M561.182 731.363C560.624 731.363 560.052 731.358 559.465 731.347C549.275 731.182 537.202 729.381 523.585 725.995C509.968 722.608 498.451 718.548 489.355 713.925C479.432 708.89 475.264 704.707 476.239 700.762C476.722 698.839 478.378 697.413 481.161 696.516C481.337 696.459 481.523 696.437 481.707 696.452C481.891 696.466 482.071 696.517 482.235 696.602C482.4 696.686 482.546 696.802 482.666 696.943C482.786 697.084 482.877 697.247 482.934 697.423C482.99 697.599 483.012 697.785 482.996 697.969C482.981 698.154 482.93 698.333 482.845 698.498C482.761 698.663 482.645 698.809 482.503 698.928C482.362 699.048 482.199 699.138 482.023 699.195C480.225 699.774 479.196 700.53 478.966 701.444C478.7 702.523 479.299 705.667 490.628 711.416C499.535 715.943 510.851 719.929 524.263 723.264C537.674 726.599 549.534 728.372 559.514 728.534C572.242 728.766 574.236 726.273 574.504 725.188C574.777 724.103 574.185 720.967 562.841 715.173C553.937 710.66 542.621 706.68 529.208 703.345C528.78 703.238 528.354 703.133 527.93 703.029C527.75 702.986 527.58 702.907 527.431 702.798C527.281 702.689 527.155 702.551 527.059 702.393C526.962 702.235 526.898 702.059 526.87 701.876C526.842 701.693 526.85 701.506 526.894 701.326C526.938 701.146 527.017 700.977 527.127 700.828C527.236 700.679 527.374 700.553 527.533 700.457C527.691 700.361 527.867 700.298 528.05 700.27C528.233 700.243 528.42 700.252 528.599 700.296C529.027 700.401 529.456 700.507 529.886 700.614C543.503 704 555.019 708.055 564.115 712.665C574.055 717.741 578.222 721.937 577.231 725.87C576.31 729.603 571.194 731.363 561.182 731.363Z" fill="#C3E5E3"/>
<path d="M528.266 703.07C528.153 703.07 528.042 703.056 527.933 703.03C515.052 699.898 503.62 698.225 493.956 698.057C488.625 697.979 484.611 698.359 482.023 699.195C481.67 699.302 481.289 699.267 480.962 699.095C480.635 698.924 480.388 698.631 480.275 698.28C480.162 697.928 480.191 697.546 480.357 697.216C480.523 696.886 480.811 696.635 481.161 696.516C484.082 695.574 488.284 695.162 494.002 695.244C503.876 695.416 515.514 697.115 528.597 700.296C528.93 700.377 529.223 700.578 529.419 700.861C529.615 701.143 529.7 701.488 529.66 701.829C529.619 702.171 529.455 702.486 529.198 702.714C528.941 702.943 528.609 703.069 528.266 703.07Z" fill="#F2F9F9"/>
<path d="M614.326 307.896C614.235 307.895 614.144 307.881 614.057 307.853C602.431 304.128 591.162 300.009 580.565 295.612C580.353 295.52 580.186 295.349 580.1 295.135C580.013 294.921 580.014 294.681 580.102 294.468C580.191 294.255 580.359 294.085 580.572 293.995C580.784 293.905 581.023 293.902 581.238 293.987C591.791 298.366 603.013 302.468 614.594 306.179C614.793 306.243 614.963 306.376 615.073 306.554C615.183 306.733 615.226 306.945 615.193 307.152C615.161 307.359 615.056 307.548 614.897 307.684C614.738 307.82 614.535 307.895 614.326 307.896ZM529.889 269.432C529.723 269.432 529.56 269.384 529.419 269.295C522.116 264.662 515.07 259.728 508.476 254.631C508.297 254.487 508.181 254.278 508.154 254.049C508.126 253.821 508.19 253.59 508.331 253.408C508.472 253.226 508.678 253.106 508.906 253.074C509.134 253.043 509.366 253.102 509.551 253.24C516.101 258.303 523.103 263.205 530.361 267.81C530.521 267.912 530.645 268.063 530.712 268.242C530.779 268.42 530.787 268.615 530.734 268.798C530.68 268.981 530.569 269.142 530.417 269.256C530.265 269.37 530.08 269.432 529.889 269.432ZM460.708 200.6C460.477 200.6 460.254 200.508 460.09 200.345C459.925 200.182 459.832 199.96 459.829 199.728C459.804 196.457 460.141 193.193 460.834 189.996C463.326 178.475 470.209 168.611 481.29 160.68C481.479 160.545 481.715 160.49 481.945 160.528C482.174 160.566 482.38 160.694 482.515 160.884C482.651 161.074 482.705 161.309 482.667 161.539C482.629 161.769 482.501 161.975 482.312 162.111C471.597 169.78 464.949 179.287 462.551 190.368C461.886 193.437 461.562 196.571 461.587 199.712C461.588 199.828 461.566 199.942 461.523 200.05C461.48 200.157 461.416 200.254 461.335 200.337C461.254 200.419 461.158 200.485 461.052 200.53C460.945 200.575 460.831 200.599 460.716 200.6L460.708 200.6Z" fill="#42A5F5"/>
<path d="M757.94 326.866C757.716 326.864 757.5 326.778 757.338 326.623C757.176 326.468 757.079 326.258 757.067 326.034C757.055 325.81 757.128 325.59 757.273 325.419C757.418 325.247 757.622 325.138 757.845 325.112C765.609 324.256 773.288 323.063 780.669 321.567C785.805 320.528 790.727 319.358 795.298 318.089C795.41 318.055 795.528 318.045 795.644 318.057C795.76 318.07 795.872 318.106 795.974 318.162C796.077 318.219 796.166 318.295 796.239 318.387C796.311 318.479 796.364 318.584 796.395 318.697C796.427 318.809 796.435 318.927 796.42 319.043C796.406 319.159 796.368 319.271 796.309 319.372C796.251 319.473 796.173 319.561 796.08 319.632C795.987 319.703 795.881 319.754 795.768 319.783C791.157 321.063 786.194 322.243 781.017 323.29C773.586 324.797 765.854 325.998 758.037 326.86C758.005 326.864 757.972 326.866 757.94 326.866Z" fill="#A9CFC3"/>
<path d="M856.608 269.047C856.595 269.047 856.582 269.046 856.569 269.046C856.336 269.036 856.117 268.933 855.96 268.762C855.802 268.59 855.719 268.362 855.729 268.129C856.469 251.136 844.984 231.16 821.596 208.756C821.433 208.593 821.341 208.373 821.338 208.143C821.335 207.913 821.423 207.691 821.582 207.525C821.741 207.359 821.958 207.262 822.188 207.254C822.418 207.247 822.641 207.33 822.811 207.485C834.661 218.837 843.585 229.681 849.334 239.715C855.125 249.823 857.868 259.408 857.485 268.206C857.475 268.432 857.379 268.646 857.215 268.802C857.052 268.959 856.834 269.047 856.608 269.047Z" fill="#A1ECF9"/>
<path d="M222.732 525.016C238.266 533.704 262.27 544.091 294.744 556.178C322.063 566.342 352.007 576.46 384.574 586.53C386.472 574.244 388.071 561.893 389.372 549.478C382.87 547.473 376.467 545.463 370.165 543.446H367.968V542.742C347.818 536.294 328.676 529.829 310.541 523.346C265.567 519.301 236.298 519.858 222.732 525.016ZM201.522 504.178C201.439 504.5 201.392 504.83 201.381 505.162C201.1 510.286 208.217 516.904 222.732 525.016C236.298 519.858 265.567 519.301 310.541 523.346C304.614 521.224 298.797 519.102 293.092 516.98C272.38 509.266 254.93 502.214 240.743 495.825C216.154 495.156 203.08 497.941 201.522 504.178Z" fill="#C3E1EC"/>
<path d="M194.686 462.096C194.627 462.332 194.585 462.573 194.562 462.817L201.381 505.162C201.391 504.83 201.439 504.5 201.521 504.178C203.079 497.941 216.153 495.156 240.743 495.825C253.841 496.176 270.201 497.513 289.823 499.834C291.264 488.825 293.092 475.009 295.306 458.385C230.838 450.354 197.298 451.591 194.686 462.096Z" fill="#E1F0F6"/>
<path d="M710.089 692.501C710.013 692.501 709.938 692.495 709.863 692.483C687.225 688.828 663.199 684.476 638.451 679.548C638.27 679.512 638.098 679.441 637.944 679.338C637.791 679.236 637.659 679.104 637.557 678.95C637.454 678.797 637.383 678.624 637.347 678.443C637.311 678.262 637.311 678.075 637.347 677.894C637.383 677.713 637.454 677.541 637.557 677.387C637.659 677.233 637.791 677.102 637.944 676.999C638.098 676.896 638.27 676.825 638.451 676.789C638.632 676.753 638.819 676.753 639 676.789C663.714 681.709 687.707 686.055 710.311 689.705C710.66 689.761 710.974 689.947 711.192 690.225C711.411 690.503 711.516 690.853 711.488 691.206C711.46 691.558 711.301 691.887 711.041 692.127C710.782 692.367 710.442 692.5 710.089 692.501ZM802.747 637.951C802.579 637.951 802.414 637.921 802.257 637.862C796.889 635.866 791.351 633.857 785.795 631.891C785.62 631.83 785.459 631.736 785.321 631.612C785.183 631.489 785.07 631.339 784.99 631.172C784.909 631.005 784.863 630.824 784.853 630.639C784.843 630.454 784.869 630.268 784.931 630.093C784.993 629.919 785.089 629.758 785.213 629.62C785.337 629.482 785.487 629.371 785.654 629.291C785.822 629.212 786.003 629.166 786.188 629.157C786.373 629.148 786.558 629.176 786.732 629.238C792.303 631.209 797.855 633.223 803.237 635.225C803.546 635.34 803.805 635.56 803.968 635.847C804.131 636.133 804.189 636.468 804.13 636.793C804.072 637.118 803.901 637.412 803.648 637.623C803.396 637.835 803.076 637.951 802.747 637.951ZM433.057 630.248C432.928 630.248 432.798 630.23 432.674 630.195C386.121 616.998 343.805 603.247 306.9 589.324C274.437 577.09 250.097 566.203 234.556 556.966C218.272 547.287 211.146 539.205 212.77 532.258C213.618 528.647 216.8 525.769 222.23 523.702L222.232 523.701C236.129 518.417 265.056 517.843 310.667 521.945H310.669C314.474 522.285 318.434 522.664 322.44 523.072C337.032 524.555 352.414 526.403 368.159 528.564C368.342 528.589 368.518 528.65 368.677 528.743C368.837 528.836 368.976 528.96 369.088 529.107C369.199 529.254 369.281 529.422 369.328 529.601C369.375 529.78 369.386 529.966 369.361 530.149C369.336 530.332 369.275 530.508 369.182 530.668C369.089 530.827 368.965 530.967 368.818 531.078C368.671 531.19 368.503 531.272 368.325 531.319C368.146 531.365 367.96 531.377 367.777 531.352C352.065 529.195 336.715 527.351 322.155 525.871C318.161 525.464 314.212 525.086 310.418 524.747H310.415C265.872 520.741 236.54 521.274 223.236 526.33L223.231 526.332C218.727 528.046 216.128 530.256 215.507 532.9C213.647 540.854 228.165 556.645 307.891 586.691C344.722 600.586 386.963 614.312 433.44 627.488C433.766 627.58 434.048 627.788 434.233 628.072C434.418 628.356 434.495 628.698 434.448 629.034C434.402 629.371 434.235 629.679 433.98 629.902C433.724 630.125 433.397 630.248 433.057 630.248ZM632.646 585.704C632.527 585.704 632.408 585.689 632.292 585.659C611.841 580.353 590.272 575.03 568.184 569.84C520.586 558.655 475.619 549.27 434.533 541.947C434.351 541.915 434.177 541.847 434.022 541.747C433.866 541.648 433.732 541.519 433.626 541.367C433.52 541.216 433.446 541.045 433.406 540.864C433.366 540.684 433.363 540.497 433.395 540.315C433.427 540.134 433.495 539.96 433.595 539.804C433.694 539.649 433.823 539.514 433.975 539.408C434.126 539.303 434.297 539.228 434.477 539.188C434.657 539.148 434.844 539.145 435.025 539.177C476.162 546.509 521.179 555.904 568.827 567.101C590.936 572.296 612.526 577.624 632.998 582.935C633.329 583.021 633.617 583.225 633.809 583.508C634.001 583.792 634.083 584.135 634.04 584.475C633.997 584.814 633.831 585.126 633.575 585.353C633.318 585.579 632.988 585.704 632.646 585.704ZM413.954 436.667C413.7 436.667 413.45 436.598 413.232 436.467C412.063 435.764 410.886 435.045 409.733 434.327C409.417 434.13 409.191 433.815 409.107 433.451C409.022 433.088 409.086 432.706 409.283 432.389C409.479 432.072 409.794 431.847 410.157 431.762C410.52 431.678 410.902 431.741 411.219 431.938C412.358 432.648 413.522 433.359 414.679 434.054C414.942 434.212 415.147 434.453 415.261 434.739C415.375 435.024 415.392 435.34 415.31 435.636C415.227 435.933 415.05 436.194 414.806 436.38C414.561 436.567 414.262 436.667 413.954 436.667ZM400.072 427.804C399.792 427.804 399.519 427.72 399.287 427.563C397.412 426.297 395.54 425.001 393.724 423.711C366.123 404.197 349.717 385.607 344.964 368.46C344.866 368.101 344.915 367.717 345.098 367.394C345.282 367.07 345.586 366.833 345.945 366.734C346.303 366.634 346.686 366.681 347.01 366.863C347.334 367.046 347.573 367.349 347.674 367.708C352.249 384.213 368.289 402.283 395.349 421.415C397.15 422.693 399.003 423.977 400.86 425.231C401.109 425.4 401.298 425.644 401.399 425.928C401.499 426.213 401.505 426.521 401.417 426.809C401.329 427.098 401.151 427.35 400.908 427.529C400.666 427.708 400.373 427.804 400.072 427.804ZM347.425 346.067C347.195 346.067 346.969 346.01 346.766 345.902C346.563 345.794 346.389 345.637 346.261 345.446C346.132 345.255 346.052 345.036 346.028 344.807C346.004 344.578 346.036 344.346 346.123 344.133C350.226 333.975 358.995 325.751 372.188 319.689C385.188 313.715 402.887 309.664 424.792 307.648C453.085 305.06 484.255 306.228 517.434 311.122C517.617 311.148 517.794 311.21 517.953 311.305C518.112 311.399 518.251 311.524 518.362 311.673C518.473 311.821 518.553 311.99 518.599 312.17C518.644 312.349 518.653 312.536 518.626 312.72C518.599 312.903 518.536 313.079 518.441 313.238C518.346 313.397 518.22 313.535 518.071 313.646C517.923 313.756 517.753 313.835 517.574 313.88C517.394 313.925 517.207 313.933 517.024 313.905C484.066 309.044 453.121 307.882 425.049 310.45C403.462 312.437 386.071 316.406 373.361 322.246C360.842 327.999 352.555 335.717 348.729 345.187C348.624 345.447 348.444 345.67 348.212 345.826C347.979 345.983 347.706 346.067 347.425 346.067Z" fill="#71FCC3"/>
<path d="M687.271 281.089C676.138 281.042 665.033 279.951 654.103 277.828C623.367 271.977 598.069 259.846 578.911 241.771C577.739 240.657 576.597 239.532 575.514 238.425C575.385 238.293 575.283 238.137 575.214 237.965C575.146 237.794 575.111 237.611 575.113 237.426C575.115 237.241 575.154 237.059 575.226 236.889C575.298 236.719 575.404 236.565 575.536 236.436C575.668 236.306 575.824 236.204 575.995 236.135C576.166 236.067 576.349 236.032 576.534 236.034C576.719 236.036 576.901 236.074 577.071 236.147C577.241 236.22 577.394 236.325 577.524 236.457C578.583 237.54 579.7 238.64 580.843 239.727C599.601 257.425 624.427 269.315 654.628 275.063C684.839 280.8 712.28 278.844 736.186 269.249C742.13 266.914 747.827 263.995 753.194 260.533C753.506 260.33 753.885 260.258 754.249 260.335C754.613 260.411 754.932 260.628 755.137 260.94C755.341 261.251 755.413 261.63 755.338 261.995C755.264 262.359 755.047 262.679 754.737 262.885C749.214 266.449 743.35 269.456 737.233 271.86C721.915 278.008 705.197 281.089 687.271 281.089ZM773.312 243.068C773.067 243.068 772.827 243.004 772.615 242.882C772.402 242.761 772.226 242.586 772.102 242.375C771.978 242.164 771.911 241.924 771.908 241.679C771.905 241.434 771.965 241.193 772.084 240.979C774.223 237.106 775.826 232.96 776.849 228.655C777.03 227.886 777.196 227.097 777.344 226.313C777.717 224.373 777.974 222.413 778.114 220.443C778.141 220.071 778.314 219.726 778.595 219.482C778.877 219.238 779.243 219.116 779.614 219.142C779.986 219.168 780.331 219.34 780.576 219.621C780.82 219.902 780.944 220.268 780.919 220.64C780.771 222.72 780.5 224.79 780.106 226.838C779.952 227.659 779.776 228.49 779.584 229.305C778.502 233.86 776.806 238.246 774.543 242.344C774.421 242.564 774.242 242.747 774.026 242.874C773.81 243.002 773.563 243.069 773.312 243.068ZM563.481 221.948C563.234 221.949 562.99 221.883 562.776 221.759C562.561 221.635 562.384 221.456 562.26 221.241C556.63 211.42 554.085 201.216 554.696 190.914C554.724 190.547 554.896 190.204 555.174 189.962C555.451 189.719 555.813 189.596 556.181 189.618C556.549 189.639 556.894 189.805 557.141 190.079C557.388 190.352 557.518 190.712 557.503 191.081C556.925 200.826 559.346 210.503 564.699 219.841C564.822 220.055 564.886 220.297 564.886 220.544C564.885 220.79 564.82 221.032 564.697 221.246C564.573 221.459 564.396 221.636 564.183 221.76C563.97 221.883 563.728 221.948 563.481 221.948ZM776.424 200.846C776.137 200.846 775.857 200.758 775.621 200.594C775.386 200.43 775.206 200.198 775.106 199.929C773.442 195.532 771.283 191.338 768.67 187.43C768.47 187.119 768.4 186.741 768.476 186.379C768.552 186.017 768.768 185.699 769.077 185.495C769.385 185.291 769.762 185.216 770.125 185.288C770.488 185.36 770.808 185.572 771.016 185.878C773.746 189.965 776.002 194.35 777.741 198.948C777.82 199.161 777.846 199.39 777.818 199.615C777.79 199.84 777.707 200.055 777.578 200.242C777.448 200.428 777.276 200.58 777.075 200.685C776.874 200.791 776.651 200.846 776.424 200.846ZM562.038 171.302C561.795 171.302 561.556 171.239 561.345 171.119C561.134 170.998 560.957 170.826 560.833 170.617C560.708 170.408 560.64 170.171 560.634 169.928C560.628 169.685 560.686 169.444 560.8 169.23C561.604 167.734 562.486 166.282 563.444 164.881C563.655 164.573 563.979 164.361 564.345 164.292C564.712 164.223 565.09 164.303 565.398 164.513C565.706 164.724 565.918 165.048 565.986 165.415C566.055 165.782 565.976 166.161 565.765 166.469C564.864 167.787 564.034 169.153 563.278 170.56C563.158 170.785 562.979 170.972 562.76 171.103C562.542 171.234 562.292 171.303 562.038 171.302Z" fill="white"/>
<path d="M947.666 573.077C947.298 573.077 946.945 572.932 946.682 572.674C946.42 572.416 946.269 572.066 946.262 571.697C946.255 571.329 946.392 570.973 946.645 570.705C946.897 570.437 947.245 570.279 947.612 570.265C976.907 569.122 984.31 563.483 985.361 558.954C987.231 550.883 972.647 534.792 892.547 503.979C892.204 503.841 891.93 503.574 891.782 503.235C891.635 502.896 891.626 502.513 891.759 502.168C891.891 501.823 892.154 501.544 892.49 501.392C892.827 501.239 893.209 501.225 893.556 501.352C926.165 513.897 950.614 525.04 966.225 534.473C982.572 544.351 989.727 552.567 988.1 559.591C986.222 567.679 973.014 572.09 947.721 573.077C947.703 573.077 947.684 573.077 947.666 573.077ZM833.764 565.498C833.708 565.498 833.651 565.495 833.596 565.488C826.939 564.694 820.106 563.841 813.285 562.954C813.101 562.931 812.924 562.872 812.763 562.78C812.602 562.688 812.461 562.565 812.348 562.419C812.235 562.272 812.152 562.105 812.103 561.926C812.055 561.747 812.043 561.561 812.066 561.377C812.09 561.193 812.15 561.016 812.243 560.856C812.335 560.695 812.458 560.554 812.605 560.442C812.752 560.329 812.919 560.247 813.098 560.199C813.277 560.151 813.464 560.139 813.647 560.164C820.458 561.05 827.282 561.901 833.929 562.694C834.284 562.737 834.61 562.914 834.84 563.189C835.07 563.464 835.186 563.816 835.165 564.174C835.144 564.532 834.987 564.868 834.727 565.114C834.467 565.361 834.122 565.498 833.764 565.498ZM871.209 495.895C871.044 495.895 870.881 495.866 870.727 495.809C865.675 493.965 860.394 492.067 855.03 490.169C791.836 467.849 717.61 445.567 634.418 423.942C621.631 420.618 608.427 417.252 595.173 413.939C594.817 413.844 594.513 413.612 594.326 413.294C594.138 412.976 594.084 412.597 594.173 412.239C594.263 411.881 594.489 411.573 594.804 411.38C595.118 411.187 595.496 411.126 595.855 411.21C609.117 414.525 622.329 417.892 635.125 421.219C718.394 442.863 792.697 465.169 855.967 487.516C861.34 489.417 866.631 491.318 871.691 493.166C872.001 493.279 872.262 493.499 872.427 493.785C872.592 494.072 872.651 494.407 872.593 494.733C872.536 495.058 872.365 495.353 872.112 495.566C871.859 495.778 871.539 495.895 871.209 495.895ZM392.131 477.747C392.013 477.747 391.895 477.732 391.78 477.702C304.578 455.264 227.064 432.106 161.392 408.872C116.083 392.862 82.0411 378.809 60.2113 367.103C37.4996 354.925 27.3806 345.034 29.2769 336.867C31.1731 328.695 44.6134 324.269 70.3667 323.338C95.1182 322.442 131.87 324.821 179.596 330.407C223.793 335.603 272.545 342.974 324.496 352.314C329.641 353.236 334.894 354.195 340.108 355.164C341.781 355.469 343.458 355.779 345.138 356.097C378.451 362.319 413.785 369.457 450.152 377.312C453.785 378.098 457.43 378.89 461.085 379.687C461.266 379.725 461.438 379.799 461.591 379.905C461.743 380.01 461.874 380.144 461.974 380.3C462.075 380.455 462.143 380.63 462.177 380.812C462.21 380.994 462.206 381.182 462.167 381.363C462.128 381.544 462.053 381.715 461.947 381.867C461.841 382.02 461.706 382.149 461.55 382.249C461.394 382.349 461.219 382.417 461.037 382.449C460.854 382.481 460.667 382.477 460.487 382.436C456.832 381.639 453.189 380.848 449.559 380.063C413.217 372.212 377.91 365.08 344.62 358.862C342.944 358.546 341.271 358.235 339.6 357.931C334.387 356.963 329.14 356.005 324 355.083C272.103 345.753 223.409 338.391 179.268 333.202C131.684 327.633 95.0781 325.26 70.468 326.15C40.6133 327.23 33.0788 332.92 32.0155 337.504C29.7963 347.061 50.6032 366.74 162.328 406.219C227.924 429.426 305.358 452.559 392.48 474.977C392.811 475.063 393.1 475.266 393.292 475.549C393.484 475.832 393.567 476.176 393.524 476.516C393.481 476.855 393.316 477.168 393.06 477.394C392.803 477.621 392.473 477.746 392.131 477.747Z" fill="white"/>
<path d="M445.551 290.382C445.388 290.382 445.227 290.354 445.074 290.299C443.865 289.86 442.697 289.316 441.583 288.674C438.454 286.894 435.848 284.324 434.023 281.22C432.261 278.1 431.323 274.582 431.299 270.998C431.275 267.414 432.166 263.883 433.886 260.74C435.332 258.264 437.176 256.044 439.344 254.169C441.463 252.34 443.706 250.66 446.057 249.141C446.324 248.962 446.597 248.781 446.869 248.602C447.181 248.399 447.56 248.328 447.923 248.404C448.287 248.48 448.606 248.697 448.81 249.008C449.015 249.319 449.088 249.698 449.013 250.062C448.939 250.427 448.724 250.747 448.414 250.953C448.147 251.128 447.881 251.305 447.615 251.483C445.374 252.929 443.235 254.529 441.215 256.27C439.279 257.938 437.631 259.914 436.337 262.118C434.83 264.827 434.063 267.885 434.111 270.985C434.097 274.078 434.904 277.119 436.449 279.798C438.028 282.479 440.282 284.699 442.986 286.236C443.956 286.796 444.974 287.269 446.027 287.652C446.338 287.764 446.6 287.983 446.766 288.269C446.932 288.555 446.992 288.891 446.935 289.217C446.878 289.544 446.708 289.839 446.455 290.052C446.202 290.265 445.881 290.382 445.551 290.382Z" fill="#BED6E0"/>
<path d="M454.286 246.99C453.978 246.99 453.679 246.89 453.435 246.704C453.19 246.518 453.013 246.256 452.93 245.96C452.848 245.664 452.865 245.349 452.978 245.063C453.092 244.777 453.296 244.536 453.559 244.378C457.9 241.763 462.398 239.3 466.929 237.059C467.706 236.675 468.485 236.297 469.267 235.924C473.768 233.776 478.427 231.782 483.112 229.998C487.906 228.176 492.862 226.522 497.843 225.081C498.02 225.03 498.206 225.014 498.389 225.035C498.573 225.055 498.75 225.112 498.912 225.201C499.074 225.29 499.216 225.41 499.331 225.555C499.447 225.699 499.532 225.865 499.584 226.042C499.635 226.22 499.651 226.405 499.63 226.589C499.61 226.773 499.553 226.95 499.464 227.112C499.375 227.274 499.255 227.417 499.11 227.532C498.966 227.647 498.801 227.733 498.623 227.784C493.715 229.204 488.833 230.833 484.111 232.628C479.498 234.385 474.91 236.349 470.476 238.465C469.705 238.832 468.938 239.204 468.174 239.582C463.714 241.789 459.284 244.213 455.009 246.789C454.791 246.921 454.541 246.99 454.286 246.99Z" fill="#E7F6FC"/>
<path d="M498.269 242.488C497.95 242.488 497.641 242.38 497.391 242.181C497.142 241.982 496.968 241.704 496.897 241.393C496.827 241.081 496.864 240.755 497.003 240.468C497.142 240.181 497.374 239.949 497.662 239.812C502.164 237.659 506.824 235.667 511.512 233.892C516.303 232.071 521.257 230.414 526.239 228.968C526.416 228.915 526.602 228.898 526.786 228.918C526.97 228.938 527.149 228.994 527.311 229.083C527.474 229.172 527.617 229.292 527.733 229.437C527.849 229.581 527.935 229.747 527.986 229.925C528.038 230.103 528.054 230.289 528.033 230.474C528.013 230.658 527.956 230.836 527.866 230.998C527.777 231.16 527.656 231.303 527.511 231.418C527.366 231.534 527.2 231.619 527.022 231.67C522.113 233.095 517.231 234.728 512.509 236.523C507.892 238.271 503.306 240.232 498.874 242.351C498.685 242.441 498.479 242.488 498.269 242.488Z" fill="#8BD6E2"/>
<path d="M501.713 244.546C501.394 244.546 501.085 244.438 500.836 244.238C500.586 244.039 500.412 243.761 500.342 243.45C500.271 243.139 500.308 242.813 500.447 242.526C500.586 242.238 500.819 242.007 501.106 241.869C505.609 239.716 510.269 237.724 514.957 235.949C519.747 234.128 524.702 232.471 529.683 231.025C529.861 230.972 530.047 230.955 530.231 230.975C530.415 230.995 530.594 231.051 530.756 231.14C530.919 231.229 531.062 231.349 531.178 231.493C531.294 231.638 531.38 231.804 531.432 231.982C531.483 232.16 531.499 232.347 531.479 232.531C531.458 232.715 531.401 232.894 531.311 233.056C531.222 233.218 531.101 233.361 530.956 233.476C530.811 233.591 530.644 233.677 530.466 233.727C525.557 235.153 520.675 236.785 515.954 238.58C511.337 240.328 506.75 242.289 502.318 244.408C502.13 244.499 501.923 244.546 501.713 244.546Z" fill="white"/>
<path d="M233.785 343.903C235.958 341.731 237.312 338.871 237.615 335.811C237.918 332.751 237.151 329.681 235.445 327.124C233.739 324.566 231.2 322.68 228.26 321.787C225.32 320.893 222.162 321.047 219.323 322.223C216.484 323.399 214.14 325.523 212.691 328.235C211.242 330.946 210.778 334.076 211.377 337.092C211.976 340.108 213.601 342.822 215.976 344.773C218.351 346.724 221.328 347.79 224.401 347.79C226.147 347.818 227.881 347.488 229.495 346.819C231.109 346.151 232.569 345.158 233.785 343.903Z" fill="#8BD6E2"/>
<path d="M871.733 441.998C872.758 440.974 873.396 439.625 873.539 438.183C873.682 436.74 873.32 435.292 872.516 434.086C871.711 432.88 870.514 431.991 869.128 431.57C867.742 431.148 866.252 431.221 864.914 431.775C863.575 432.33 862.47 433.332 861.787 434.61C861.104 435.889 860.885 437.365 861.167 438.787C861.449 440.209 862.216 441.489 863.336 442.408C864.456 443.328 865.859 443.831 867.308 443.831C868.132 443.844 868.949 443.688 869.71 443.373C870.471 443.058 871.159 442.59 871.733 441.998Z" fill="#8BD6E2"/>
<path d="M639.231 551.31C640.256 550.285 640.894 548.937 641.037 547.494C641.18 546.051 640.818 544.604 640.014 543.398C639.209 542.192 638.012 541.303 636.626 540.881C635.24 540.46 633.75 540.533 632.412 541.087C631.073 541.641 629.968 542.643 629.285 543.922C628.602 545.2 628.383 546.676 628.665 548.098C628.947 549.52 629.714 550.8 630.834 551.72C631.953 552.64 633.357 553.142 634.806 553.142C635.63 553.156 636.447 553 637.208 552.685C637.969 552.369 638.657 551.902 639.231 551.31Z" fill="white"/>
<path d="M776.788 443.708C777.193 443.319 777.515 442.852 777.735 442.335C777.955 441.818 778.068 441.262 778.068 440.7C778.068 440.138 777.955 439.582 777.735 439.065C777.515 438.548 777.193 438.081 776.788 437.691C775.955 436.892 774.847 436.446 773.693 436.446C772.54 436.446 771.431 436.892 770.599 437.691C770.194 438.081 769.872 438.548 769.652 439.065C769.432 439.582 769.318 440.138 769.318 440.7C769.318 441.262 769.432 441.818 769.652 442.335C769.872 442.852 770.194 443.319 770.599 443.708C771.431 444.507 772.54 444.953 773.693 444.953C774.847 444.953 775.955 444.507 776.788 443.708Z" fill="white"/>
<path d="M788.051 559.14C788.456 558.75 788.779 558.283 788.999 557.766C789.219 557.249 789.332 556.693 789.332 556.131C789.332 555.569 789.219 555.013 788.999 554.496C788.779 553.979 788.456 553.512 788.051 553.122C787.219 552.324 786.11 551.877 784.957 551.877C783.804 551.877 782.695 552.324 781.863 553.122C781.458 553.512 781.136 553.979 780.916 554.496C780.695 555.013 780.582 555.569 780.582 556.131C780.582 556.693 780.695 557.249 780.916 557.766C781.136 558.283 781.458 558.75 781.863 559.14C782.695 559.939 783.804 560.385 784.957 560.385C786.11 560.385 787.219 559.939 788.051 559.14Z" fill="#8EC1D3"/>
<path d="M628.634 524.426C629.039 524.036 629.361 523.569 629.582 523.052C629.802 522.535 629.915 521.979 629.915 521.417C629.915 520.855 629.802 520.299 629.582 519.782C629.361 519.265 629.039 518.798 628.634 518.409C627.802 517.61 626.693 517.164 625.54 517.164C624.387 517.164 623.278 517.61 622.446 518.409C622.041 518.798 621.719 519.265 621.499 519.782C621.278 520.299 621.165 520.855 621.165 521.417C621.165 521.979 621.278 522.535 621.499 523.052C621.719 523.569 622.041 524.036 622.446 524.426C623.278 525.225 624.387 525.671 625.54 525.671C626.693 525.671 627.802 525.225 628.634 524.426Z" fill="#8EC1D3"/>
<path d="M597.498 186.907C597.842 186.577 598.115 186.181 598.301 185.743C598.488 185.305 598.584 184.833 598.584 184.357C598.584 183.88 598.488 183.409 598.301 182.97C598.115 182.532 597.842 182.136 597.498 181.806C596.793 181.128 595.852 180.75 594.875 180.75C593.897 180.75 592.957 181.128 592.251 181.806C591.908 182.136 591.634 182.532 591.448 182.97C591.261 183.409 591.165 183.88 591.165 184.357C591.165 184.833 591.261 185.305 591.448 185.743C591.634 186.181 591.908 186.577 592.251 186.907C592.957 187.585 593.897 187.963 594.875 187.963C595.852 187.963 596.793 187.585 597.498 186.907Z" fill="#8EC1D3"/>
<path d="M814.959 647.746C814.244 647.742 813.537 647.898 812.889 648.202C812.242 648.506 811.67 648.951 811.216 649.504C810.217 650.697 809.67 652.204 809.67 653.76C809.67 655.316 810.217 656.823 811.216 658.016C811.67 658.569 812.242 659.014 812.889 659.318C813.537 659.622 814.244 659.778 814.959 659.774C815.677 659.777 816.386 659.621 817.036 659.317C817.687 659.012 818.262 658.568 818.72 658.016C819.719 656.823 820.266 655.316 820.266 653.76C820.266 652.204 819.719 650.697 818.72 649.504C818.262 648.951 817.687 648.507 817.036 648.203C816.386 647.899 815.677 647.743 814.959 647.746Z" fill="#71FCC3"/>
<path d="M224.19 267.09C224.189 265.971 223.857 264.878 223.235 263.948C222.614 263.019 221.731 262.294 220.698 261.867C219.665 261.439 218.529 261.327 217.432 261.546C216.336 261.764 215.329 262.303 214.539 263.094C213.748 263.885 213.21 264.893 212.992 265.99C212.773 267.087 212.885 268.224 213.312 269.258C213.74 270.291 214.464 271.175 215.393 271.797C216.322 272.419 217.414 272.752 218.532 272.753C220.029 272.742 221.462 272.141 222.521 271.082C223.58 270.022 224.179 268.588 224.19 267.09Z" fill="#71FCC3"/>
<path d="M540.915 207.271C541.259 206.941 541.532 206.545 541.718 206.107C541.905 205.669 542.001 205.197 542.001 204.721C542.001 204.244 541.905 203.773 541.718 203.334C541.532 202.896 541.259 202.5 540.915 202.17C540.21 201.492 539.269 201.114 538.292 201.114C537.314 201.114 536.374 201.492 535.668 202.17C535.325 202.5 535.051 202.896 534.865 203.334C534.678 203.773 534.582 204.244 534.582 204.721C534.582 205.197 534.678 205.669 534.865 206.107C535.051 206.545 535.325 206.941 535.668 207.271C536.374 207.949 537.314 208.327 538.292 208.327C539.269 208.327 540.21 207.949 540.915 207.271Z" fill="#8EC1D3"/>
<path d="M369.109 564.398C369.452 564.068 369.725 563.671 369.912 563.233C370.098 562.795 370.195 562.323 370.195 561.847C370.195 561.37 370.098 560.899 369.912 560.46C369.725 560.022 369.452 559.626 369.109 559.296C368.403 558.618 367.463 558.24 366.485 558.24C365.507 558.24 364.567 558.618 363.861 559.296C363.518 559.626 363.245 560.022 363.058 560.46C362.872 560.899 362.775 561.37 362.775 561.847C362.775 562.323 362.872 562.795 363.058 563.233C363.245 563.671 363.518 564.068 363.861 564.398C364.567 565.075 365.507 565.453 366.485 565.453C367.463 565.453 368.403 565.075 369.109 564.398Z" fill="white"/>
<path d="M325.933 558.225C326.276 557.895 326.549 557.499 326.736 557.061C326.923 556.622 327.019 556.151 327.019 555.674C327.019 555.198 326.923 554.726 326.736 554.288C326.549 553.85 326.276 553.454 325.933 553.124C325.227 552.446 324.287 552.068 323.309 552.068C322.331 552.068 321.391 552.446 320.685 553.124C320.342 553.454 320.069 553.85 319.882 554.288C319.696 554.726 319.6 555.198 319.6 555.674C319.6 556.151 319.696 556.622 319.882 557.061C320.069 557.499 320.342 557.895 320.685 558.225C321.391 558.903 322.331 559.281 323.309 559.281C324.287 559.281 325.227 558.903 325.933 558.225Z" fill="#A8D7DD"/>
<path d="M433.245 655.871C433.913 655.23 434.443 654.46 434.806 653.608C435.169 652.756 435.356 651.84 435.356 650.914C435.356 649.988 435.169 649.072 434.806 648.22C434.443 647.368 433.913 646.598 433.245 645.957C431.874 644.641 430.047 643.906 428.147 643.906C426.247 643.906 424.42 644.641 423.049 645.957C422.381 646.598 421.851 647.368 421.488 648.22C421.125 649.072 420.938 649.988 420.938 650.914C420.938 651.84 421.125 652.756 421.488 653.608C421.851 654.46 422.381 655.23 423.049 655.871C424.42 657.187 426.247 657.922 428.147 657.922C430.047 657.922 431.874 657.187 433.245 655.871Z" fill="#A8D7DD"/>
<path d="M389.196 342.145C389.195 341.026 388.863 339.933 388.241 339.003C387.62 338.074 386.737 337.349 385.704 336.921C384.671 336.494 383.535 336.382 382.438 336.601C381.342 336.819 380.335 337.358 379.545 338.149C378.754 338.94 378.216 339.947 377.998 341.045C377.779 342.142 377.891 343.279 378.318 344.313C378.745 345.346 379.469 346.23 380.398 346.852C381.328 347.474 382.42 347.806 383.538 347.807C385.035 347.796 386.468 347.196 387.527 346.137C388.586 345.077 389.185 343.643 389.196 342.145Z" fill="#E1F0F6"/>
</g>
<defs>
<clipPath id="clip0_387_1813">
<rect width="1002" height="902" fill="white"/>
</clipPath>
</defs>
</svg>
