<svg width="960" height="571" viewBox="0 0 960 571" fill="none" xmlns="http://www.w3.org/2000/svg">
<path d="M641.357 101.911C635.17 101.879 629.008 101.117 622.998 99.6416C607.674 95.9652 595.353 88.79 586.376 78.3153C577.286 67.7327 574.051 56.6169 576.762 45.2776C579.474 33.9497 587.392 25.5047 600.297 20.177C613.043 14.9386 627.274 14.1472 642.597 17.8234C651.571 19.9735 659.572 23.34 666.379 27.8295C671.17 30.9784 675.497 34.7823 679.235 39.1307C688.327 49.7267 691.561 60.8424 688.85 72.1699C687.457 78.1396 684.401 83.5918 680.038 87.8945C679.907 88.0245 679.751 88.1275 679.581 88.1975C679.41 88.2675 679.227 88.3031 679.042 88.3023C678.858 88.3015 678.675 88.2644 678.505 88.1929C678.334 88.1215 678.18 88.0173 678.05 87.8861C677.92 87.7549 677.817 87.5994 677.747 87.4284C677.677 87.2574 677.642 87.0743 677.642 86.8896C677.643 86.7048 677.68 86.522 677.752 86.3516C677.823 86.1813 677.927 86.0266 678.058 85.8965C682.048 81.9612 684.842 76.9748 686.116 71.5152C688.605 61.1145 685.573 50.8358 677.103 40.9642C673.535 36.8145 669.405 33.1845 664.833 30.1796C658.299 25.8697 650.597 22.6334 641.942 20.5597C627.205 17.0239 613.554 17.7708 601.367 22.779C589.345 27.7421 581.986 35.5325 579.497 45.9327C577.007 56.3438 580.039 66.6224 588.509 76.4825C597.093 86.4992 608.917 93.37 623.654 96.9055C636.589 100.007 648.71 99.8148 659.68 96.3345C660.036 96.2217 660.421 96.2548 660.752 96.4266C661.083 96.5984 661.333 96.8946 661.445 97.2503C661.558 97.606 661.525 97.9919 661.353 98.3232C661.182 98.6544 660.886 98.9039 660.53 99.0166C654.326 100.963 647.859 101.94 641.357 101.911Z" fill="#FDFEFF"/>
<path d="M421.713 517.587C421.626 517.764 421.551 517.946 421.487 518.132C421.409 518.33 421.341 518.531 421.285 518.736C420.087 523.277 424.129 528.615 433.409 534.75C434.971 526.728 436.545 518.762 438.129 510.852C428.956 511.696 423.484 513.941 421.713 517.587ZM516.052 214.821C520.069 207.324 522.797 199.206 524.124 190.804C517.775 201.148 510.476 208.569 502.227 213.067C491.65 218.8 484.574 221.561 480.999 221.351C480.899 223.308 480.798 226.711 480.697 231.559C487.649 232.058 494.799 232.719 502.148 233.544C507.714 228.053 512.403 221.738 516.052 214.821ZM798.939 70.5593L792.005 90.9725C802.292 101.154 809.927 113.4 814.91 127.71C817.933 136.264 819.752 145.196 820.316 154.251L825.909 135.545C825.91 135.485 825.91 135.431 825.908 135.383C825.775 123.755 824.165 112.886 821.078 102.777C817.68 91.6651 810.3 80.9258 798.939 70.5593Z" fill="#62DFAC"/>
<path d="M494.533 559.544C501.894 561.475 508.947 563.087 515.691 564.38L526.798 525.672C520.036 523.356 512.809 521.19 505.118 519.176C488.297 514.764 473.077 512.036 459.458 510.993C455.511 510.678 451.699 510.511 448.023 510.495C444.349 510.475 441.051 510.595 438.129 510.852C436.545 518.762 434.971 526.728 433.408 534.749C435.514 536.14 437.889 537.573 440.534 539.046C444.16 541.067 448.024 543.014 452.126 544.886C464.201 550.405 478.336 555.291 494.533 559.544ZM582.568 165.987C574.433 164.776 566.176 164.62 558.001 165.522C549.847 166.346 541.742 167.586 533.715 169.239C527.991 170.434 522.332 171.907 516.74 173.658C512.649 174.897 508.656 176.438 504.793 178.267L504.105 178.622C503.797 178.771 503.499 178.928 503.212 179.094C499.624 180.332 496.848 181.332 494.885 182.094C491.459 183.411 488.13 184.968 484.923 186.755C477.611 190.856 472.373 195.869 469.21 201.793C468.042 203.861 467.282 206.133 466.971 208.487C466.617 210.772 467.021 213.109 468.12 215.142C469.082 216.762 470.467 218.088 472.127 218.979C473.794 219.909 475.604 220.557 477.484 220.895C478.645 221.12 479.819 221.273 480.999 221.35C484.573 221.561 491.649 218.8 502.227 213.067C510.476 208.568 517.774 201.147 524.124 190.804C521.499 207.017 513.805 221.981 502.148 233.544C521.966 235.738 543.212 239.064 565.885 243.52C568.352 238.873 573.267 228.734 580.628 213.103L588.444 215.786C589.943 216.111 591.424 216.414 592.886 216.695C598.962 217.882 605.117 218.626 611.301 218.921C617.973 210.963 626.458 205.04 636.756 201.154C644.875 198.008 653.57 196.629 662.263 197.108C668.607 191.777 675.614 185.786 683.286 179.135C685.266 177.405 687.291 175.637 689.36 173.83C689.214 172.19 688.934 170.565 688.523 168.971C687.203 164.546 683.893 160.453 678.594 156.689C677.774 156.104 675.546 154.632 671.909 152.272C671.508 152.018 671.119 151.765 670.742 151.516C662.919 156.094 656.951 159.551 652.838 161.887C646.924 165.236 639.103 170.552 629.376 177.837C624.887 177.238 620.452 176.289 616.11 174.999C612.21 173.854 608.206 172.585 604.097 171.191C603.315 170.926 602.535 170.655 601.755 170.378C596.806 168.658 590.41 167.194 582.568 165.987Z" fill="#71FCC3"/>
<path d="M578.34 560.104L578.363 560.001C579.744 554.723 574.086 548.381 561.389 540.976C558.247 550.731 555.329 559.815 552.634 568.228C568.246 568.203 576.814 565.495 578.34 560.104ZM543.236 138.447C543.204 135.818 543.015 133.194 542.671 130.588C542.29 127.621 541.461 124.729 540.211 122.012C538.448 123.382 536.451 124.419 534.317 125.071C532.603 125.485 530.913 125.996 529.257 126.602C527.407 127.341 526.136 128.367 525.445 129.681C524.819 130.947 524.671 132.398 525.028 133.765C525.418 135.244 525.963 136.677 526.657 138.04C526.861 138.48 527.047 138.893 527.216 139.277C527.687 140.292 528.105 141.331 528.466 142.391C528.935 143.795 528.977 145.307 528.587 146.735C528.084 148.341 526.869 149.692 524.942 150.786C523.165 151.691 521.313 152.44 519.406 153.022C513.99 154.831 508.881 157.455 504.256 160.806C504.956 164.478 505.251 168.217 505.134 171.954C505.046 174.208 504.701 176.446 504.105 178.622L504.793 178.267C508.656 176.438 512.65 174.898 516.74 173.658C522.333 171.907 527.991 170.434 533.716 169.24C533.985 165.999 534.78 163.544 536.1 161.875C536.881 160.979 537.74 160.154 538.665 159.408C539.584 158.665 540.422 157.828 541.166 156.909C542.193 155.412 542.838 153.686 543.044 151.882C543.236 150.04 543.313 148.188 543.273 146.336C543.277 145.929 543.278 145.539 543.274 145.167C543.26 141.133 543.247 138.894 543.236 138.447ZM725.652 134.894C727.138 134.616 728.569 134.32 729.943 134.006C731.102 133.417 732.139 132.887 733.057 132.414C734.689 131.628 735.513 130.727 735.529 129.711C735.549 128.899 735.052 128.15 734.038 127.462C732.811 126.711 731.428 126.251 729.996 126.119C729.014 126.002 726.197 126.111 721.546 126.447C721.509 126.451 721.467 126.454 721.418 126.455C720.228 126.535 719.045 126.7 717.878 126.948C712.598 128.047 707.438 129.659 702.471 131.761C698.986 133.189 692.172 137.56 682.032 144.875C677.913 147.294 674.15 149.507 670.743 151.516C671.12 151.766 671.509 152.018 671.909 152.273C675.546 154.632 677.775 156.104 678.595 156.69C683.894 160.453 687.204 164.547 688.524 168.971C688.934 170.565 689.214 172.191 689.36 173.83C691.446 172.003 693.582 170.133 695.77 168.22C709.363 167.386 716.496 163.036 717.167 155.169C717.174 149.149 716.812 144.728 716.08 141.906C716.707 140.171 718.087 138.641 720.22 137.315C722.343 135.976 724.154 135.169 725.652 134.894ZM718.598 476.004C718.667 475.688 718.718 475.368 718.751 475.047C719.69 465.606 704.829 454.128 674.168 440.612C659.594 434.257 644.707 428.648 629.564 423.805L633.93 409.025C625.482 408.13 616.768 406.992 607.79 405.611C594.055 403.498 579.711 400.823 564.757 397.583C562.937 397.188 561.135 396.792 559.351 396.393C558.513 399.823 557.66 403.242 556.79 406.652C555.737 410.743 554.649 414.831 553.525 418.918C552.733 421.805 551.922 424.694 551.093 427.585C551.075 427.61 551.062 427.638 551.057 427.667C549.258 433.935 547.372 440.184 545.401 446.414C547.788 447.183 550.13 447.966 552.426 448.764C565.176 453.158 576.365 458.035 585.993 463.395C601.311 471.932 608.201 479.2 606.663 485.201L606.659 485.218C606.635 485.333 606.604 485.446 606.568 485.558C627.1 488.219 646.083 489.651 663.515 489.853C698.157 490.233 716.518 485.617 718.598 476.004Z" fill="#1B1B1B"/>
<path d="M571.736 361.418L568.994 370.684C561.798 368.932 554.398 367.233 546.796 365.586C538.426 363.773 530.256 362.117 522.285 360.618C515.133 359.272 508.14 358.051 501.305 356.954L489.874 391.758C494.784 397.367 500.349 402.366 506.448 406.649C512.252 410.727 518.387 414.313 524.787 417.37C532.369 420.949 540.162 424.061 548.122 426.689C549.016 426.991 549.994 427.317 551.057 427.667C551.063 427.637 551.075 427.609 551.093 427.585C551.922 424.694 552.733 421.805 553.525 418.918C554.649 414.831 555.737 410.742 556.79 406.652C557.66 403.242 558.513 399.822 559.351 396.393C561.135 396.792 562.937 397.188 564.757 397.583C579.711 400.822 594.055 403.498 607.79 405.61C616.768 406.992 625.482 408.13 633.93 409.025L642.139 381.223C617.385 380.619 593.178 373.809 571.736 361.418Z" fill="#C3E1EC"/>
<path d="M592.886 216.695C591.424 216.414 589.944 216.112 588.444 215.787L580.628 213.104C573.267 228.734 568.353 238.873 565.885 243.52C568.471 244.033 571.078 244.561 573.704 245.106C577.069 245.787 580.469 246.5 583.904 247.244C587.449 235.177 590.443 224.994 592.886 216.695ZM474.174 99.8955C473.695 99.228 473.253 98.5565 472.847 97.8809L459.264 151.777C448.95 151.602 438.687 153.259 428.952 156.672C426.349 157.53 423.834 158.636 421.442 159.974C419.08 161.302 417.01 163.094 415.358 165.242C414.085 166.956 413.153 168.897 412.61 170.962C413.157 182.896 415.396 192.683 419.329 200.324C423.087 207.584 428.154 214.087 434.274 219.504C438.969 223.663 444.103 227.297 449.585 230.342C450.688 230.341 451.801 230.349 452.925 230.364C461.808 230.466 471.066 230.864 480.696 231.559C480.798 226.711 480.899 223.308 480.999 221.351C479.819 221.273 478.645 221.121 477.484 220.895C475.604 220.557 473.794 219.909 472.127 218.979C470.467 218.088 469.082 216.762 468.12 215.142C467.021 213.109 466.617 210.772 466.971 208.487C467.282 206.133 468.042 203.861 469.21 201.793C472.374 195.869 477.611 190.857 484.923 186.755C488.13 184.969 491.459 183.411 494.885 182.094C496.848 181.332 499.624 180.332 503.212 179.094C503.499 178.928 503.797 178.771 504.105 178.622C504.7 176.446 505.046 174.208 505.134 171.954C505.251 168.217 504.956 164.478 504.255 160.806C504.195 160.529 504.141 160.253 504.092 159.979C504.065 159.829 503.163 155.939 501.385 148.308C500.676 145.216 500.153 142.452 499.817 140.016C499.682 139.699 499.557 139.39 499.442 139.089C498.227 136.102 497.443 132.957 497.111 129.75C496.868 127.113 497.043 124.455 497.629 121.873C495.035 119.788 491.633 116.927 487.421 113.292C484.326 110.642 481.977 108.538 480.372 106.978C478.104 104.802 476.03 102.432 474.173 99.8957L474.174 99.8955ZM578.584 156.811C571.651 154.673 560.897 151.138 546.322 146.205C545.273 145.845 544.257 145.499 543.274 145.167C543.278 145.539 543.277 145.929 543.273 146.336C543.312 148.187 543.236 150.04 543.044 151.882C542.838 153.686 542.193 155.412 541.165 156.909C540.422 157.827 539.584 158.665 538.665 159.408C537.739 160.153 536.881 160.979 536.1 161.875C534.78 163.544 533.985 165.999 533.715 169.239C541.742 167.586 549.848 166.345 558.001 165.522C566.176 164.62 574.433 164.776 582.568 165.987C590.41 167.194 596.806 168.658 601.756 170.378C602.535 170.655 603.315 170.926 604.097 171.191L605.62 164.234C597.34 162.284 588.328 159.81 578.584 156.811Z" fill="#AEE4EA"/>
<path d="M454.226 432.706C458.406 432.247 462.61 432.046 466.815 432.105C476.002 432.211 485.169 432.965 494.25 434.36C501.301 435.396 508.694 436.794 516.428 438.554C509.347 435.604 502.741 432.535 496.611 429.348C482.496 422.008 470.921 414.012 461.885 405.361C459.007 414.454 456.177 423.604 453.393 432.813C453.665 432.776 453.942 432.74 454.226 432.706ZM437.668 443.837C437.633 443.829 437.597 443.827 437.561 443.831C430.076 444.133 422.631 445.072 415.306 446.639C412.716 447.128 410.205 447.971 407.842 449.142C406.019 450.017 404.462 451.363 403.331 453.04C403.061 453.454 402.828 453.892 402.635 454.347C401.27 457.554 401.809 460.963 404.252 464.575C406.196 467.444 409.078 470.137 412.896 472.656C417.788 475.863 423.271 479.078 429.346 482.301L437.668 443.837ZM369.423 363.359L369.329 363.878C368.156 370.354 375.79 378.863 392.232 389.406L400.654 350.477C381.534 352.092 371.123 356.386 369.423 363.359ZM649.74 207.457C653.581 204.331 657.755 200.881 662.263 197.108C653.57 196.629 644.875 198.008 636.756 201.154C626.458 205.04 617.973 210.963 611.301 218.921C626.666 219.539 638.629 216.404 647.191 209.514C648.02 208.842 648.87 208.156 649.74 207.457Z" fill="#63DCF5"/>
<path d="M453.393 432.813C453.175 433.546 452.956 434.278 452.738 435.011C451.846 437.972 450.957 440.946 450.071 443.933C447.265 443.769 444.452 443.699 441.63 443.723C440.428 443.739 439.228 443.773 438.03 443.825C437.91 443.823 437.79 443.827 437.668 443.837L429.346 482.302L421.713 517.587C423.483 513.941 428.955 511.696 438.129 510.852C441.051 510.595 444.349 510.475 448.023 510.495C451.699 510.511 455.511 510.678 459.458 510.993C473.077 512.036 488.297 514.764 505.118 519.176C512.809 521.19 520.036 523.356 526.798 525.673C539.101 529.861 549.868 534.527 559.1 539.67C559.881 540.103 560.644 540.538 561.389 540.976C574.086 548.381 579.744 554.723 578.363 560.001L578.34 560.104L606.568 485.558C606.604 485.446 606.634 485.333 606.659 485.218L606.663 485.201C608.201 479.2 601.311 471.932 585.993 463.395C576.365 458.035 565.176 453.157 552.426 448.764C550.129 447.966 547.788 447.183 545.401 446.414C543.281 445.739 541.123 445.079 538.925 444.435C535.398 443.395 531.78 442.389 528.071 441.418C524.1 440.378 520.22 439.423 516.428 438.554C508.694 436.794 501.301 435.396 494.25 434.36C485.169 432.965 476.002 432.211 466.815 432.105C462.61 432.046 458.406 432.247 454.225 432.706C453.942 432.741 453.665 432.776 453.393 432.813ZM743.313 394.003C743.323 393.956 743.339 393.911 743.36 393.869C743.484 393.464 743.59 393.055 743.679 392.643C746.171 381.127 731.713 367.703 700.305 352.37C700.286 352.354 700.264 352.343 700.24 352.338C693.463 349.034 686.335 345.858 678.856 342.81C671.566 339.828 663.946 336.959 655.996 334.205L642.138 381.223L633.93 409.025L629.564 423.805C644.707 428.647 659.594 434.257 674.168 440.611C704.829 454.128 719.69 465.606 718.751 475.047L738.208 410.871L743.313 394.003Z" fill="#D8FAFF"/>
<path d="M471.988 374.371C474.298 367.459 476.637 360.582 479.004 353.742C462.726 351.691 447.435 350.429 433.13 349.956C431.49 349.889 429.87 349.844 428.269 349.821C427.625 349.801 426.993 349.79 426.37 349.787L403.331 453.041C404.462 451.363 406.019 450.018 407.842 449.142C410.205 447.971 412.716 447.129 415.306 446.639C422.631 445.072 430.076 444.133 437.561 443.832C437.596 443.828 437.633 443.83 437.668 443.837C437.79 443.827 437.91 443.824 438.03 443.825C439.228 443.773 440.428 443.739 441.63 443.724C444.452 443.699 447.265 443.769 450.071 443.933C450.956 440.946 451.846 437.972 452.738 435.011C452.956 434.278 453.175 433.546 453.393 432.814C456.176 423.605 459.007 414.454 461.885 405.361C465.179 394.955 468.547 384.625 471.988 374.371Z" fill="#A8D7DD"/>
<path d="M502.148 233.544C494.799 232.719 487.648 232.058 480.696 231.559C471.066 230.864 461.809 230.466 452.925 230.364C451.801 230.349 450.688 230.341 449.585 230.342C414.438 230.248 395.778 235.22 393.607 245.258C393.557 245.487 393.519 245.718 393.492 245.952L369.423 363.359C371.124 356.386 381.534 352.092 400.654 350.477C407.481 349.893 415.414 349.651 424.454 349.75C425.088 349.755 425.727 349.768 426.37 349.787C426.993 349.79 427.626 349.801 428.269 349.821C429.87 349.844 431.49 349.889 433.13 349.956C447.435 350.429 462.726 351.691 479.004 353.742C486.239 354.649 493.673 355.72 501.305 356.954C508.139 358.051 515.133 359.272 522.285 360.618C530.256 362.117 538.426 363.773 546.795 365.586C554.398 367.233 561.798 368.933 568.994 370.684L571.736 361.418L604.057 251.826C598.038 250.391 591.91 248.991 585.673 247.628L584.677 247.412L583.904 247.244C580.469 246.5 577.069 245.787 573.705 245.107C571.078 244.561 568.471 244.033 565.885 243.52C543.212 239.064 521.966 235.738 502.148 233.544Z" fill="#FAF6F6"/>
<path d="M509.25 107.801C507.035 108.94 504.964 110.34 503.08 111.97C500.75 114.199 499.041 116.998 498.123 120.09C497.937 120.673 497.772 121.268 497.629 121.873C497.043 124.454 496.869 127.113 497.112 129.749C497.443 132.957 498.228 136.102 499.443 139.089C499.557 139.389 499.682 139.698 499.817 140.016C500.153 142.451 500.676 145.216 501.386 148.308C503.163 155.938 504.066 159.828 504.093 159.978C504.142 160.253 504.196 160.528 504.256 160.805C508.881 157.455 513.99 154.83 519.406 153.022C521.313 152.439 523.166 151.691 524.943 150.785C526.869 149.691 528.084 148.341 528.588 146.735C528.977 145.306 528.935 143.795 528.467 142.39C528.105 141.331 527.688 140.292 527.216 139.277C527.048 138.892 526.861 138.48 526.657 138.04C525.964 136.677 525.418 135.243 525.029 133.764C524.672 132.397 524.819 130.947 525.445 129.68C526.137 128.367 527.407 127.34 529.257 126.602C530.914 125.996 532.603 125.485 534.317 125.071C536.451 124.419 538.449 123.382 540.211 122.012C541.71 120.831 543.029 119.438 544.126 117.876C546.725 114.229 547.782 110.397 547.296 106.382C547.052 104.345 546.35 102.39 545.243 100.665C544.149 98.9189 542.723 97.4055 541.046 96.211C537.299 93.528 533.476 92.7776 529.576 93.9599C527.395 94.6268 524.99 96.1029 522.362 98.3884C520.933 99.6742 519.855 100.64 519.128 101.286C518.058 102.255 516.937 103.166 515.769 104.013C514.793 104.701 512.62 105.964 509.25 107.801Z" fill="#2196F3"/>
<path d="M494.897 10.3367C482.444 11.4411 472.486 13.368 465.023 16.1174C457.549 18.8643 450.509 23.1208 443.903 28.8868C437.287 34.6504 432.526 41.1401 429.623 48.356C428.824 50.3301 427.66 53.3286 426.131 57.3515C425.925 57.8587 425.728 58.3557 425.538 58.8425L412.61 170.962C413.153 168.897 414.086 166.956 415.358 165.242C417.01 163.094 419.08 161.302 421.442 159.974C423.834 158.636 426.349 157.53 428.953 156.672C438.688 153.259 448.951 151.602 459.264 151.777L472.848 97.8809L494.897 10.3367ZM779.086 328.378C775.397 330.572 771.498 332.392 767.447 333.809C759.422 336.665 749.553 338.623 737.84 339.684C726.402 340.711 714.915 341.087 703.435 340.812C702.414 344.646 701.349 348.487 700.24 352.338C700.264 352.343 700.287 352.354 700.305 352.37C731.713 367.703 746.171 381.127 743.68 392.643C743.59 393.055 743.484 393.464 743.361 393.869C743.339 393.911 743.324 393.956 743.314 394.003L738.208 410.871C740.851 410.844 743.32 410.762 745.615 410.623C752.892 410.254 760.106 409.077 767.123 407.114C769.556 406.45 771.912 405.531 774.152 404.373C776.368 403.26 778.305 401.663 779.82 399.699C780.415 398.891 780.927 398.026 781.35 397.116C781.661 396.406 781.921 395.674 782.129 394.928C782.454 393.692 782.649 392.426 782.713 391.15C782.848 388.019 782.31 384.895 781.134 381.991C779.967 379.131 778.428 376.438 776.556 373.982C775.382 372.372 773.418 369.979 770.665 366.804C769.388 365.34 768.245 364.031 767.236 362.876C771.448 350.606 775.399 339.107 779.086 328.378ZM786.833 232.481C783.272 223.841 778.524 216.425 772.588 210.233C767.384 204.811 761.698 200.814 755.53 198.242L765.546 168.817C763.324 169.943 761.012 170.989 758.61 171.956C749.886 175.402 740.762 177.73 731.454 178.883C723.239 179.958 713.931 180.377 703.53 180.139C700.082 180.063 695.623 179.871 690.152 179.561C688.01 179.433 685.722 179.291 683.286 179.135C675.615 185.786 668.607 191.777 662.264 197.108C657.756 200.881 653.581 204.331 649.74 207.457C642.666 228.524 636.027 249.762 629.825 271.174C629.294 272.966 628.774 274.76 628.265 276.557C649.143 279.685 670.17 281.719 691.26 282.649C693.483 282.734 695.653 282.815 697.771 282.889C714.563 283.445 728.173 283.419 738.601 282.811C750.34 282.128 761.196 279.514 771.168 274.969C780.211 270.847 786.128 265.519 788.92 258.987L790.273 254.476C791.46 248.268 790.314 240.936 786.833 232.481Z" fill="#8BD6E2"/>
<path d="M814.951 304.211C815.31 300.614 815.401 296.996 815.226 293.385C814.959 286.698 813.442 280.12 810.755 273.992C808.719 269.264 805.788 264.975 802.124 261.362C796.161 278.675 788.482 301.014 779.086 328.378C775.399 339.107 771.449 350.606 767.236 362.876C768.245 364.03 769.388 365.339 770.665 366.804C773.419 369.979 775.382 372.372 776.556 373.982C778.428 376.438 779.968 379.131 781.134 381.991C782.31 384.895 782.849 388.019 782.713 391.149C782.649 392.425 782.454 393.692 782.129 394.927L814.951 304.211Z" fill="#8EC1D3"/>
<path d="M820.316 154.251C819.752 145.196 817.933 136.264 814.91 127.71C809.927 113.4 802.292 101.154 792.005 90.9724L765.545 168.817L755.53 198.242C761.698 200.814 767.384 204.811 772.587 210.233C778.523 216.425 783.272 223.841 786.833 232.481C790.313 240.936 791.46 248.268 790.273 254.476L820.316 154.251Z" fill="#A1ECF9"/>
<path d="M699.745 362.557C699.738 362.562 699.721 362.558 699.694 362.546C694.699 360.014 689.403 357.535 683.808 355.11C678.294 352.699 672.495 350.333 666.411 348.012L651.034 397.813C658.9 400.066 666.035 402.434 672.44 404.916C678.619 407.312 684.596 410.202 690.312 413.556C695.848 416.808 701.026 420.077 705.847 423.363C710.298 426.289 714.243 429.921 717.526 434.117L730.91 391.368C730.919 391.34 730.931 391.312 730.946 391.286C731.035 391.037 731.108 390.782 731.164 390.524C732.732 383.281 722.259 373.959 699.745 362.557Z" fill="white"/>
<path d="M565.899 297.746L574.193 266.232C552.485 262.352 534.321 259.456 519.701 257.545C516.866 268.12 514.517 278.812 512.654 289.621C526.607 291.274 544.355 293.982 565.899 297.746Z" fill="#8BD6E2"/>
<path d="M756.208 415.146C755.981 415.145 755.763 415.055 755.6 414.897C755.438 414.738 755.343 414.523 755.335 414.295C755.328 414.068 755.409 413.847 755.561 413.678C755.713 413.509 755.925 413.406 756.151 413.389C760.337 413.175 764.347 411.637 767.603 408.996C770.889 406.321 772.577 403.285 772.764 399.713C773.075 394.904 770.536 389.624 765.219 384.009C760.091 378.589 752.577 373.113 742.885 367.731C740.202 366.213 735.909 363.935 730.117 360.956C724.464 358.057 720.15 355.774 717.296 354.17C717.195 354.113 717.106 354.038 717.035 353.947C716.964 353.856 716.911 353.752 716.88 353.641C716.849 353.53 716.84 353.414 716.853 353.299C716.867 353.184 716.903 353.074 716.96 352.973C717.016 352.872 717.092 352.784 717.182 352.712C717.273 352.641 717.377 352.588 717.488 352.557C717.599 352.526 717.715 352.517 717.83 352.53C717.944 352.544 718.055 352.58 718.156 352.637C720.991 354.23 725.285 356.502 730.918 359.391C736.732 362.382 741.047 364.671 743.743 366.196C753.587 371.662 761.243 377.25 766.494 382.8C772.161 388.784 774.861 394.509 774.518 399.815C774.307 403.844 772.354 407.395 768.713 410.359C765.175 413.232 760.818 414.908 756.267 415.144C756.248 415.145 756.228 415.146 756.208 415.146ZM421.261 224.889C421.203 224.889 421.146 224.883 421.089 224.872C416.709 224.005 412.808 221.65 409.494 217.872C406.407 214.345 404.245 210.106 403.201 205.536C402.067 200.754 402.157 196.343 403.469 192.428C405.422 186.662 410.383 181.644 418.214 177.509C425.385 173.721 433.826 170.958 443.302 169.297C450.66 168.017 459.562 167.285 469.763 167.12C472.988 167.062 476.236 167.051 479.417 167.085C479.647 167.091 479.865 167.187 480.026 167.352C480.186 167.517 480.275 167.739 480.274 167.969C480.272 168.199 480.181 168.42 480.019 168.584C479.857 168.747 479.637 168.841 479.407 168.844H479.398C476.233 168.809 473.003 168.82 469.793 168.879C459.682 169.041 450.871 169.765 443.604 171.029C434.31 172.658 426.043 175.362 419.034 179.065C411.614 182.982 406.937 187.667 405.134 192.99C403.929 196.586 403.854 200.672 404.911 205.13C405.889 209.421 407.918 213.4 410.814 216.711C413.867 220.192 417.438 222.357 421.43 223.147C421.644 223.189 421.835 223.31 421.965 223.485C422.095 223.66 422.155 223.877 422.134 224.094C422.113 224.312 422.012 224.513 421.85 224.66C421.689 224.807 421.479 224.888 421.261 224.889Z" fill="#F7F6F1"/>
<path d="M545.639 343.275C545.59 343.275 545.541 343.27 545.493 343.262C528.09 340.348 513.349 338.208 501.68 336.903C501.565 336.89 501.453 336.855 501.352 336.8C501.25 336.744 501.161 336.669 501.089 336.579C501.016 336.489 500.962 336.385 500.93 336.274C500.898 336.163 500.888 336.046 500.901 335.931C500.914 335.816 500.949 335.705 501.005 335.604C501.061 335.502 501.136 335.413 501.227 335.341C501.317 335.269 501.421 335.215 501.532 335.183C501.643 335.152 501.76 335.142 501.875 335.155C513.576 336.464 528.348 338.608 545.783 341.528C546 341.565 546.196 341.681 546.331 341.855C546.466 342.029 546.531 342.248 546.513 342.467C546.495 342.687 546.395 342.892 546.233 343.041C546.071 343.191 545.859 343.274 545.639 343.275ZM393.073 337.366C392.857 337.365 392.648 337.285 392.487 337.14C392.326 336.996 392.225 336.797 392.201 336.581C392.178 336.366 392.235 336.15 392.361 335.974C392.487 335.798 392.673 335.675 392.884 335.628C399.29 334.244 405.779 333.281 412.31 332.744C420.524 332.041 431.306 331.763 444.36 331.914C451.012 332.008 457.493 332.168 463.624 332.39C463.854 332.402 464.07 332.504 464.226 332.674C464.382 332.844 464.464 333.069 464.456 333.3C464.447 333.53 464.349 333.748 464.181 333.907C464.014 334.065 463.79 334.152 463.56 334.147C457.442 333.925 450.975 333.766 444.338 333.673C431.344 333.522 420.618 333.798 412.46 334.496C406.006 335.027 399.593 335.978 393.263 337.345C393.201 337.359 393.137 337.366 393.073 337.366ZM559.381 328.995C559.33 328.995 559.28 328.991 559.23 328.982C537.184 325.169 518.986 322.45 505.141 320.9C504.913 320.87 504.707 320.751 504.565 320.57C504.424 320.388 504.359 320.159 504.385 319.931C504.41 319.702 504.524 319.493 504.702 319.347C504.88 319.202 505.108 319.132 505.337 319.153C519.216 320.706 537.449 323.43 559.529 327.249C559.746 327.287 559.94 327.405 560.074 327.579C560.208 327.753 560.272 327.971 560.254 328.19C560.235 328.41 560.135 328.614 559.973 328.763C559.812 328.912 559.6 328.995 559.381 328.995ZM396.5 321.592C396.284 321.591 396.075 321.511 395.915 321.367C395.754 321.223 395.652 321.024 395.628 320.809C395.604 320.594 395.66 320.378 395.786 320.202C395.911 320.026 396.097 319.902 396.307 319.855C402.931 318.395 409.645 317.384 416.405 316.829C424.617 316.127 435.393 315.842 448.437 315.982C454.876 316.075 461.143 316.23 467.067 316.44C467.297 316.452 467.513 316.554 467.669 316.724C467.824 316.894 467.907 317.119 467.898 317.349C467.89 317.579 467.792 317.797 467.625 317.956C467.458 318.114 467.235 318.201 467.005 318.197C461.093 317.987 454.839 317.834 448.414 317.74C435.432 317.6 424.712 317.884 416.555 318.581C409.875 319.13 403.239 320.128 396.694 321.57C396.63 321.584 396.565 321.592 396.5 321.592ZM562.948 312.5C562.898 312.5 562.848 312.496 562.799 312.487C540.814 308.733 522.866 306.127 509.454 304.74L508.676 304.671C508.447 304.648 508.235 304.535 508.088 304.357C507.941 304.179 507.869 303.95 507.889 303.719C507.91 303.489 508.019 303.276 508.195 303.126C508.371 302.976 508.599 302.902 508.83 302.919L509.624 302.99C523.085 304.381 541.071 306.993 563.095 310.754C563.312 310.791 563.506 310.908 563.641 311.082C563.776 311.257 563.84 311.475 563.822 311.694C563.803 311.914 563.703 312.118 563.541 312.267C563.38 312.416 563.168 312.499 562.948 312.5ZM399.645 307.031C399.432 307.031 399.227 306.953 399.067 306.813C398.907 306.672 398.803 306.478 398.775 306.267C398.747 306.056 398.796 305.842 398.914 305.665C399.032 305.487 399.21 305.359 399.415 305.303C407.584 303.156 415.928 301.74 424.347 301.073C432.561 300.37 443.342 300.091 456.397 300.243C461.222 300.301 465.969 300.402 470.508 300.542C470.738 300.553 470.955 300.654 471.112 300.823C471.269 300.992 471.353 301.217 471.346 301.448C471.339 301.678 471.241 301.897 471.074 302.057C470.907 302.216 470.685 302.303 470.454 302.3C465.926 302.16 461.19 302.06 456.377 302.001C443.38 301.85 432.654 302.127 424.498 302.824C416.183 303.483 407.943 304.88 399.876 307C399.801 307.021 399.723 307.031 399.645 307.031ZM565.9 298.625C565.849 298.625 565.798 298.621 565.748 298.612C544.319 294.869 526.422 292.137 512.551 290.494C512.433 290.48 512.318 290.442 512.215 290.383C512.112 290.323 512.022 290.243 511.95 290.147C511.879 290.051 511.828 289.942 511.8 289.826C511.772 289.71 511.768 289.589 511.789 289.472C513.647 278.688 516.023 267.87 518.852 257.317C518.907 257.111 519.035 256.932 519.212 256.813C519.389 256.695 519.604 256.645 519.815 256.673C534.381 258.577 552.728 261.502 574.348 265.367C574.467 265.388 574.581 265.434 574.682 265.502C574.783 265.569 574.868 265.657 574.934 265.759C574.999 265.862 575.043 265.976 575.061 266.096C575.08 266.216 575.074 266.339 575.043 266.456L566.749 297.97C566.7 298.157 566.589 298.323 566.436 298.442C566.282 298.56 566.094 298.625 565.9 298.625ZM513.679 288.858C527.274 290.495 544.617 293.145 565.255 296.741L573.101 266.93C552.291 263.221 534.552 260.391 520.351 258.517C517.702 268.484 515.46 278.683 513.679 288.858ZM403.282 290.237C403.065 290.236 402.855 290.155 402.694 290.009C402.533 289.863 402.431 289.662 402.41 289.446C402.388 289.229 402.447 289.012 402.576 288.837C402.705 288.661 402.894 288.54 403.107 288.496C408.858 287.34 414.67 286.513 420.516 286.019C428.708 285.328 439.486 285.049 452.548 285.189C459.905 285.295 467.024 285.478 473.712 285.735C473.942 285.749 474.156 285.852 474.311 286.023C474.465 286.193 474.546 286.417 474.537 286.647C474.529 286.876 474.43 287.094 474.264 287.252C474.097 287.41 473.875 287.496 473.645 287.492C466.971 287.236 459.866 287.053 452.526 286.948C439.521 286.809 428.8 287.086 420.666 287.771C414.889 288.259 409.144 289.076 403.459 290.219C403.401 290.231 403.342 290.237 403.282 290.237Z" fill="#BABBCD"/>
<path d="M481.373 222.243C481.23 222.243 481.091 222.24 480.957 222.232C480.841 222.228 480.726 222.201 480.619 222.151C480.513 222.102 480.418 222.033 480.339 221.946C480.26 221.86 480.199 221.758 480.16 221.648C480.121 221.538 480.104 221.421 480.11 221.304C480.117 221.187 480.147 221.073 480.198 220.968C480.249 220.862 480.321 220.769 480.409 220.691C480.497 220.614 480.599 220.556 480.71 220.519C480.821 220.482 480.939 220.467 481.055 220.476C484.433 220.661 491.432 217.914 501.816 212.298C512.155 206.659 521.112 196.14 528.435 181.034C528.485 180.929 528.555 180.836 528.641 180.758C528.727 180.681 528.828 180.622 528.937 180.583C529.047 180.545 529.162 180.529 529.278 180.536C529.393 180.542 529.507 180.572 529.611 180.622C529.715 180.673 529.808 180.744 529.885 180.83C529.961 180.917 530.02 181.018 530.058 181.128C530.096 181.237 530.111 181.353 530.104 181.469C530.097 181.584 530.067 181.697 530.016 181.801C522.53 197.244 513.324 208.025 502.654 213.844C492.213 219.49 485.241 222.243 481.373 222.243ZM566.531 221.811C566.311 221.811 566.1 221.728 565.939 221.58C565.777 221.431 565.677 221.228 565.658 221.009C565.638 220.791 565.701 220.573 565.834 220.399C565.967 220.224 566.161 220.106 566.377 220.067C567.804 219.775 569.169 219.234 570.409 218.469C571.72 217.638 572.986 216.737 574.2 215.77C574.385 215.631 574.617 215.57 574.846 215.601C575.075 215.631 575.283 215.751 575.424 215.934C575.566 216.117 575.629 216.349 575.601 216.578C575.574 216.808 575.456 217.017 575.275 217.161C574.005 218.173 572.68 219.114 571.306 219.98C569.886 220.854 568.322 221.469 566.687 221.797C566.635 221.807 566.583 221.811 566.531 221.811ZM578.357 213.458C578.215 213.458 578.074 213.423 577.948 213.357L569.637 208.978C569.432 208.869 569.279 208.683 569.212 208.461C569.144 208.239 569.166 207.999 569.274 207.793C569.382 207.588 569.567 207.434 569.789 207.364C570.01 207.295 570.25 207.315 570.456 207.422L578.767 211.801C578.941 211.892 579.079 212.04 579.16 212.219C579.24 212.398 579.258 212.599 579.211 212.79C579.164 212.981 579.054 213.151 578.899 213.272C578.744 213.393 578.554 213.458 578.357 213.458ZM629.722 183.018C629.713 183.018 629.703 183.018 629.694 183.017C627.655 182.931 625.631 182.615 623.663 182.074C622.109 181.652 619.264 180.684 614.959 179.113C603.693 174.973 592.853 172.374 582.736 171.39C571.044 170.269 560.159 171.28 550.386 174.395C550.165 174.462 549.926 174.439 549.722 174.331C549.518 174.224 549.364 174.04 549.294 173.82C549.224 173.6 549.243 173.361 549.348 173.155C549.452 172.949 549.634 172.792 549.852 172.719C559.854 169.532 570.975 168.496 582.905 169.639C593.172 170.638 604.159 173.27 615.563 177.462C619.76 178.993 622.639 179.974 624.119 180.375C625.879 180.858 627.686 181.151 629.509 181.25C630.948 180.443 632.738 179.48 634.835 178.387C643.964 173.621 654.867 166.906 667.257 158.415C666.251 157.938 665.206 157.544 664.135 157.239C664.022 157.209 663.916 157.157 663.823 157.086C663.73 157.015 663.652 156.926 663.594 156.824C663.536 156.722 663.498 156.61 663.484 156.494C663.47 156.378 663.48 156.26 663.512 156.147C663.544 156.034 663.598 155.929 663.671 155.838C663.744 155.746 663.835 155.671 663.938 155.615C664.041 155.559 664.154 155.524 664.27 155.513C664.387 155.501 664.504 155.513 664.616 155.548C666.276 156.021 667.874 156.688 669.378 157.535C669.391 157.542 669.404 157.55 669.417 157.557C669.667 157.701 669.924 157.853 670.192 158.016C671.952 159.078 673.557 160.377 674.963 161.877C676.466 163.506 677.779 165.3 678.878 167.225C680.269 169.696 681.386 172.312 682.209 175.026C682.275 175.248 682.249 175.488 682.139 175.692C682.029 175.896 681.842 176.048 681.62 176.115C681.398 176.182 681.159 176.159 680.954 176.05C680.749 175.941 680.596 175.756 680.527 175.534C679.743 172.947 678.678 170.453 677.352 168.097C676.321 166.291 675.089 164.608 673.68 163.079C672.384 161.696 670.903 160.498 669.28 159.519C669.185 159.462 669.092 159.405 669.001 159.351C656.242 168.125 645.022 175.052 635.647 179.946C633.46 181.087 631.612 182.082 630.154 182.905C630.022 182.979 629.873 183.018 629.722 183.018ZM544.004 138.509C543.867 138.509 543.731 138.477 543.608 138.415C543.486 138.353 543.379 138.263 543.298 138.153C543.216 138.042 543.161 137.914 543.138 137.779C543.115 137.643 543.123 137.504 543.163 137.373C543.377 136.676 543.404 136.133 543.237 135.884C543.01 135.582 542.693 135.36 542.332 135.249C541.091 134.806 539.763 134.668 538.458 134.846C537.04 135.038 535.643 135.362 534.285 135.813C532.901 136.18 531.581 136.76 530.374 137.532C530.281 137.6 530.175 137.649 530.063 137.677C529.95 137.704 529.834 137.709 529.719 137.691C529.605 137.673 529.496 137.633 529.397 137.572C529.298 137.512 529.213 137.433 529.145 137.339C529.077 137.246 529.028 137.139 529.001 137.027C528.974 136.914 528.969 136.798 528.988 136.683C529.006 136.569 529.047 136.46 529.107 136.361C529.168 136.263 529.247 136.177 529.341 136.109C530.701 135.219 532.195 134.551 533.765 134.133C535.23 133.648 536.737 133.302 538.267 133.098C539.852 132.888 541.464 133.063 542.968 133.609C543.68 133.847 544.294 134.313 544.716 134.934C545.186 135.638 545.233 136.613 544.844 137.887C544.789 138.067 544.677 138.224 544.526 138.336C544.375 138.448 544.192 138.509 544.004 138.509ZM544.163 132.97C544.035 132.97 543.908 132.942 543.792 132.888C543.676 132.833 543.573 132.755 543.49 132.657C543.408 132.559 543.348 132.444 543.314 132.32C543.28 132.196 543.274 132.066 543.296 131.94C543.611 130.124 542.944 129.573 542.725 129.392C541.699 128.543 538.312 127.748 527.164 131.963C526.946 132.042 526.707 132.032 526.497 131.936C526.287 131.839 526.123 131.664 526.042 131.448C525.96 131.231 525.967 130.991 526.06 130.78C526.154 130.569 526.327 130.403 526.542 130.318C535.934 126.767 541.433 126.042 543.845 128.036C544.954 128.953 545.352 130.368 545.027 132.241C544.992 132.444 544.886 132.629 544.728 132.763C544.57 132.896 544.37 132.969 544.163 132.97Z" fill="#42A5F5"/>
<path d="M706.46 157.361C706.24 157.36 706.027 157.277 705.866 157.127C705.704 156.977 705.604 156.771 705.587 156.551C705.569 156.331 705.635 156.113 705.771 155.939C705.907 155.765 706.103 155.649 706.321 155.613C709.108 155.157 711.925 154.912 714.748 154.881C714.865 154.878 714.981 154.898 715.09 154.941C715.198 154.983 715.297 155.047 715.381 155.128C715.465 155.209 715.532 155.306 715.578 155.413C715.624 155.52 715.648 155.636 715.649 155.753C715.65 155.869 715.628 155.985 715.584 156.093C715.54 156.201 715.475 156.299 715.392 156.382C715.31 156.464 715.212 156.53 715.104 156.574C714.996 156.618 714.88 156.641 714.763 156.64C712.029 156.67 709.3 156.907 706.602 157.349C706.555 157.357 706.508 157.361 706.46 157.361ZM704.96 149.66C704.718 149.66 704.509 149.652 704.331 149.637C704.215 149.63 704.101 149.599 703.997 149.546C703.892 149.494 703.799 149.422 703.723 149.333C703.647 149.244 703.59 149.142 703.554 149.03C703.518 148.919 703.504 148.802 703.514 148.686C703.524 148.569 703.557 148.456 703.611 148.353C703.665 148.249 703.739 148.157 703.829 148.083C703.919 148.008 704.023 147.952 704.134 147.919C704.246 147.885 704.363 147.873 704.479 147.885C705.007 147.93 706.279 147.906 709.343 147.537C711.574 147.297 713.296 147.39 714.622 147.819C714.843 147.891 715.028 148.048 715.134 148.256C715.24 148.463 715.259 148.704 715.187 148.926C715.116 149.148 714.959 149.333 714.751 149.439C714.544 149.545 714.303 149.564 714.081 149.492C713.009 149.146 711.482 149.075 709.542 149.284C708.023 149.492 706.493 149.617 704.96 149.66ZM702.665 143.785C702.45 143.784 702.242 143.705 702.082 143.562C701.921 143.418 701.818 143.221 701.794 143.007C701.769 142.794 701.823 142.578 701.946 142.401C702.069 142.225 702.253 142.1 702.462 142.05C704.141 141.651 705.372 141.376 706.121 141.233C707.388 140.991 708.676 140.874 709.966 140.883C710.965 140.861 711.964 140.948 712.945 141.143C713.171 141.189 713.37 141.321 713.5 141.512C713.629 141.703 713.679 141.937 713.637 142.164C713.596 142.391 713.467 142.592 713.278 142.725C713.09 142.858 712.857 142.911 712.629 142.873C711.769 142.7 710.892 142.622 710.015 142.641C709.996 142.642 709.977 142.642 709.956 142.641C708.777 142.633 707.599 142.74 706.44 142.962C705.726 143.098 704.521 143.368 702.868 143.761C702.802 143.777 702.733 143.785 702.665 143.785Z" fill="#62DFAC"/>
<path d="M388.61 387.15C388.45 387.15 388.293 387.107 388.157 387.024C373.654 378.282 367.213 370.661 368.469 363.728C368.514 363.502 368.646 363.304 368.837 363.174C369.027 363.045 369.26 362.996 369.487 363.037C369.713 363.078 369.914 363.206 370.047 363.394C370.18 363.582 370.234 363.814 370.198 364.041C369.103 370.087 375.451 377.312 389.064 385.518C389.228 385.617 389.356 385.767 389.427 385.946C389.498 386.125 389.508 386.321 389.457 386.507C389.405 386.692 389.294 386.855 389.141 386.971C388.988 387.087 388.802 387.15 388.61 387.15Z" fill="white"/>
<path d="M718.92 432.697C718.792 432.697 718.665 432.669 718.549 432.615C718.433 432.56 718.33 432.481 718.247 432.383C706.836 418.79 683.914 406.427 650.12 395.638C649.901 395.568 649.718 395.414 649.611 395.211C649.503 395.007 649.48 394.769 649.545 394.549L663.92 346.294C663.953 346.183 664.007 346.08 664.08 345.991C664.153 345.901 664.242 345.826 664.344 345.771C664.445 345.717 664.557 345.682 664.672 345.67C664.786 345.658 664.902 345.669 665.013 345.702C665.124 345.735 665.227 345.79 665.316 345.863C665.406 345.935 665.48 346.025 665.535 346.127C665.59 346.229 665.624 346.34 665.636 346.455C665.648 346.57 665.637 346.686 665.604 346.797L651.475 394.225C685.142 405.056 708.058 417.512 719.593 431.252C719.7 431.38 719.769 431.536 719.791 431.702C719.813 431.868 719.787 432.037 719.717 432.189C719.646 432.34 719.534 432.469 719.393 432.559C719.252 432.649 719.088 432.697 718.92 432.697Z" fill="#A1ECF9"/>
<path d="M587.285 539.071C587.152 539.071 587.02 539.041 586.9 538.982C586.78 538.924 586.675 538.839 586.593 538.733C586.51 538.628 586.453 538.505 586.425 538.374C586.398 538.244 586.4 538.108 586.432 537.979C586.447 537.921 586.461 537.869 586.476 537.823C587.763 532.854 582.022 526.613 569.411 519.274C568.649 518.805 567.866 518.352 567.062 517.915C557.654 512.661 546.522 507.837 533.968 503.572C527.062 501.21 519.574 498.968 511.711 496.908C489.559 491.092 469.856 488.09 453.148 487.985C437.961 487.911 429.106 490.212 426.864 494.807C426.815 494.913 426.745 495.007 426.658 495.085C426.572 495.163 426.471 495.223 426.361 495.261C426.251 495.3 426.135 495.316 426.019 495.31C425.903 495.303 425.789 495.273 425.685 495.222C425.58 495.171 425.487 495.1 425.41 495.012C425.333 494.925 425.274 494.823 425.237 494.713C425.2 494.602 425.185 494.486 425.193 494.37C425.202 494.254 425.233 494.14 425.285 494.036C427.848 488.783 436.752 486.226 452.494 486.226C452.714 486.226 452.935 486.226 453.158 486.227C470.013 486.333 489.863 489.354 512.157 495.207C520.06 497.278 527.589 499.532 534.535 501.908C547.188 506.206 558.417 511.074 567.909 516.375C568.731 516.822 569.544 517.291 570.314 517.765C583.88 525.66 589.727 532.379 588.17 538.293C588.165 538.311 588.159 538.329 588.153 538.347C588.148 538.364 588.143 538.383 588.137 538.405C588.09 538.595 587.98 538.764 587.826 538.885C587.671 539.006 587.481 539.071 587.285 539.071ZM593.155 519.974C593.024 519.974 592.894 519.944 592.776 519.888C592.657 519.831 592.553 519.749 592.471 519.647C592.388 519.545 592.33 519.425 592.299 519.298C592.269 519.17 592.267 519.037 592.295 518.909C592.299 518.854 592.308 518.8 592.322 518.747C593.631 513.785 587.891 507.537 575.262 500.176C574.503 499.732 573.721 499.282 572.917 498.828C563.511 493.581 552.374 488.757 539.82 484.492C532.926 482.13 525.438 479.888 517.563 477.828C495.409 472.023 475.706 469.027 459 468.923C443.807 468.844 434.964 471.132 432.734 475.726C432.63 475.932 432.449 476.089 432.231 476.162C432.012 476.236 431.773 476.221 431.566 476.12C431.359 476.019 431.199 475.841 431.122 475.623C431.045 475.406 431.056 475.167 431.153 474.957C433.741 469.629 442.862 467.078 459.01 467.164C475.863 467.27 495.712 470.285 518.008 476.126C525.924 478.198 533.454 480.452 540.387 482.827C553.039 487.126 564.274 491.993 573.777 497.294C574.594 497.755 575.384 498.21 576.148 498.657C589.67 506.539 595.525 513.233 594.041 519.116C594.034 519.18 594.022 519.244 594.006 519.307C593.959 519.497 593.849 519.666 593.695 519.787C593.541 519.908 593.351 519.973 593.155 519.974ZM601.097 505.255C600.963 505.255 600.831 505.224 600.711 505.165C600.591 505.106 600.486 505.02 600.404 504.914C600.322 504.808 600.265 504.685 600.237 504.554C600.21 504.423 600.213 504.287 600.246 504.157C600.26 504.101 600.274 504.051 600.288 504.006C601.622 498.862 595.679 492.402 582.626 484.806C581.84 484.325 581.038 483.86 580.219 483.41C570.49 477.984 558.975 472.994 545.988 468.577C538.859 466.144 531.122 463.825 522.992 461.684C500.093 455.682 479.734 452.585 462.48 452.48C462.225 452.479 461.97 452.478 461.718 452.478C446.461 452.478 437.574 454.85 435.3 459.53C435.25 459.634 435.179 459.728 435.093 459.805C435.007 459.882 434.906 459.941 434.797 459.979C434.687 460.017 434.572 460.034 434.456 460.027C434.341 460.02 434.228 459.99 434.123 459.94C434.019 459.889 433.926 459.818 433.85 459.732C433.773 459.645 433.714 459.544 433.677 459.434C433.639 459.325 433.624 459.209 433.631 459.093C433.638 458.978 433.668 458.865 433.719 458.761C436.347 453.352 445.51 450.72 461.715 450.72C461.972 450.72 462.229 450.72 462.49 450.722C479.891 450.827 500.396 453.943 523.438 459.983C531.609 462.135 539.386 464.467 546.554 466.912C559.64 471.364 571.253 476.397 581.07 481.871C581.906 482.331 582.734 482.811 583.526 483.296C597.544 491.453 603.586 498.384 601.982 504.476C601.977 504.493 601.972 504.51 601.967 504.528C601.96 504.546 601.955 504.568 601.948 504.593C601.9 504.782 601.79 504.95 601.636 505.07C601.482 505.189 601.292 505.255 601.097 505.255ZM658.759 474.17C654.243 474.17 646.361 473.979 635.281 473.6C624.955 473.238 615.227 472.603 606.369 471.714C606.254 471.703 606.142 471.669 606.04 471.615C605.939 471.56 605.848 471.486 605.775 471.397C605.702 471.307 605.647 471.204 605.614 471.094C605.58 470.983 605.569 470.867 605.581 470.752C605.592 470.637 605.626 470.525 605.681 470.423C605.736 470.322 605.81 470.232 605.899 470.158C605.989 470.085 606.092 470.031 606.202 469.997C606.313 469.964 606.429 469.953 606.544 469.965C615.365 470.85 625.054 471.482 635.341 471.842C647.617 472.262 655.954 472.451 660.113 472.405C669.297 472.312 677.586 471.566 684.752 470.187C685.277 470.073 685.833 469.964 686.384 469.868C686.499 469.845 686.617 469.846 686.731 469.869C686.846 469.893 686.955 469.94 687.051 470.006C687.148 470.072 687.23 470.157 687.293 470.256C687.356 470.354 687.399 470.464 687.419 470.58C687.439 470.695 687.436 470.813 687.41 470.928C687.384 471.042 687.335 471.15 687.267 471.245C687.198 471.34 687.112 471.42 687.012 471.481C686.912 471.542 686.801 471.583 686.685 471.6C686.159 471.692 685.627 471.796 685.104 471.91C677.815 473.312 669.42 474.069 660.132 474.163C659.716 474.168 659.258 474.17 658.759 474.17ZM703.738 465.969C703.538 465.969 703.344 465.9 703.189 465.775C703.033 465.65 702.924 465.476 702.88 465.281C702.837 465.085 702.861 464.881 702.949 464.702C703.037 464.522 703.184 464.378 703.365 464.293C704.836 463.603 706.289 462.855 707.683 462.072C707.783 462.015 707.894 461.979 708.009 461.965C708.123 461.951 708.24 461.96 708.351 461.991C708.462 462.022 708.566 462.075 708.657 462.146C708.748 462.218 708.823 462.306 708.88 462.407C708.936 462.508 708.973 462.619 708.986 462.733C709 462.848 708.991 462.964 708.96 463.076C708.929 463.187 708.876 463.291 708.804 463.382C708.733 463.472 708.644 463.548 708.544 463.605C707.113 464.409 705.621 465.177 704.11 465.885C703.994 465.94 703.867 465.968 703.738 465.969ZM642.087 459.459C638.497 459.459 634.904 459.395 631.308 459.268C622.682 458.963 610.89 457.408 596.259 454.646C581.662 451.88 570.371 449.684 562.701 448.119C562.475 448.069 562.278 447.933 562.152 447.739C562.026 447.546 561.981 447.31 562.028 447.084C562.074 446.857 562.207 446.658 562.399 446.53C562.591 446.401 562.825 446.353 563.052 446.396C570.714 447.96 581.997 450.154 596.586 452.918C611.129 455.663 622.832 457.209 631.37 457.51C639.893 457.813 648.464 457.754 656.845 457.335C657.076 457.327 657.3 457.41 657.47 457.567C657.639 457.723 657.741 457.939 657.753 458.17C657.764 458.4 657.685 458.626 657.531 458.799C657.378 458.971 657.163 459.076 656.933 459.091C652.033 459.336 647.068 459.459 642.087 459.459ZM682.158 455.312C681.946 455.311 681.742 455.234 681.582 455.095C681.422 454.955 681.318 454.763 681.289 454.553C681.26 454.342 681.308 454.129 681.424 453.951C681.54 453.774 681.716 453.644 681.92 453.586C685.266 452.644 688.555 451.51 691.77 450.19C691.984 450.107 692.223 450.111 692.434 450.202C692.646 450.292 692.813 450.462 692.901 450.675C692.988 450.888 692.989 451.126 692.903 451.34C692.817 451.553 692.65 451.724 692.439 451.816C689.161 453.162 685.808 454.318 682.398 455.278C682.32 455.301 682.239 455.312 682.158 455.312ZM651.268 440.851C625.417 440.851 597.53 437.689 568.228 431.429C568.114 431.407 568.004 431.362 567.907 431.297C567.81 431.232 567.726 431.148 567.662 431.051C567.597 430.953 567.553 430.844 567.531 430.729C567.509 430.614 567.511 430.496 567.535 430.381C567.56 430.267 567.607 430.159 567.673 430.063C567.74 429.967 567.826 429.885 567.924 429.822C568.023 429.76 568.133 429.717 568.249 429.698C568.364 429.678 568.482 429.682 568.596 429.709C601.024 436.637 631.699 439.755 659.782 438.975C660.012 438.973 660.234 439.062 660.399 439.222C660.564 439.382 660.661 439.6 660.667 439.83C660.673 440.06 660.589 440.284 660.433 440.452C660.277 440.621 660.061 440.722 659.831 440.733C657.003 440.811 654.148 440.851 651.268 440.851ZM627.913 423.095C627.898 423.095 627.883 423.094 627.869 423.094C608.389 422.126 589.033 419.441 570.025 415.071C569.911 415.046 569.803 414.999 569.707 414.933C569.612 414.866 569.531 414.781 569.468 414.683C569.406 414.584 569.363 414.475 569.344 414.36C569.324 414.245 569.327 414.127 569.354 414.014C569.38 413.9 569.428 413.793 569.496 413.698C569.564 413.604 569.65 413.523 569.749 413.462C569.848 413.401 569.959 413.36 570.074 413.342C570.189 413.324 570.306 413.329 570.419 413.357C589.327 417.704 608.58 420.374 627.956 421.337C628.184 421.35 628.398 421.451 628.553 421.619C628.707 421.787 628.791 422.008 628.785 422.237C628.78 422.465 628.686 422.682 628.523 422.842C628.36 423.002 628.141 423.093 627.913 423.095Z" fill="#8BD6E2"/>
<path d="M578.358 561.88C578.127 561.88 577.898 561.834 577.685 561.746C577.472 561.657 577.278 561.528 577.115 561.365C576.952 561.201 576.823 561.007 576.734 560.794C576.646 560.581 576.601 560.352 576.601 560.121C576.601 559.926 576.628 559.731 576.683 559.544C577.775 555.201 572.186 549.305 560.514 542.489C559.787 542.08 559.018 541.645 558.231 541.199C549.158 536.134 538.389 531.468 526.235 527.336C519.542 525.038 512.295 522.867 504.69 520.884C483.225 515.25 464.156 512.346 448.013 512.253C430.074 512.156 424.672 515.515 423.298 518.35C423.093 518.768 422.731 519.087 422.292 519.239C421.852 519.391 421.37 519.362 420.952 519.158C420.534 518.955 420.213 518.594 420.06 518.155C419.907 517.715 419.934 517.233 420.136 516.814C422.772 511.379 431.652 508.734 447.272 508.734C447.524 508.734 447.777 508.735 448.032 508.736C464.471 508.831 483.832 511.773 505.579 517.481C513.267 519.486 520.599 521.683 527.371 524.008C539.721 528.206 550.685 532.959 559.954 538.134C560.749 538.584 561.514 539.017 562.262 539.438C575.81 547.35 581.637 554.197 580.096 560.381C580.034 560.798 579.824 561.178 579.505 561.453C579.186 561.728 578.779 561.88 578.358 561.88ZM564.424 371.359C564.287 371.359 564.149 371.342 564.016 371.31C558.297 369.947 552.379 368.6 546.425 367.309C538.113 365.503 529.888 363.832 521.977 362.342C514.868 361.015 507.824 359.786 501.041 358.692C493.459 357.458 485.978 356.379 478.803 355.483C462.648 353.447 447.266 352.179 433.081 351.714C431.448 351.645 429.826 351.598 428.246 351.574C427.606 351.563 426.984 351.557 426.374 351.557C426.352 351.557 426.33 351.557 426.308 351.556C425.686 351.533 425.059 351.515 424.426 351.504C415.504 351.411 407.558 351.658 400.815 352.237C382.874 353.744 372.609 357.734 371.127 363.776C371.016 364.229 370.73 364.619 370.331 364.861C369.933 365.103 369.455 365.176 369.002 365.065C368.549 364.953 368.16 364.667 367.918 364.268C367.677 363.869 367.603 363.391 367.714 362.938C369.643 355.071 380.374 350.424 400.518 348.732C407.369 348.144 415.431 347.894 424.476 347.987C425.135 347.999 425.773 348.017 426.407 348.04C427.027 348.04 427.659 348.046 428.303 348.058C429.911 348.082 431.565 348.129 433.214 348.2C447.489 348.668 462.98 349.944 479.24 351.993C486.456 352.894 493.98 353.98 501.602 355.22C508.412 356.319 515.485 357.552 522.624 358.885C530.57 360.382 538.827 362.059 547.171 363.872C553.147 365.168 559.089 366.52 564.831 367.889C565.249 367.989 565.616 368.24 565.862 368.593C566.109 368.946 566.217 369.377 566.167 369.804C566.117 370.232 565.912 370.626 565.591 370.913C565.27 371.199 564.855 371.358 564.424 371.359Z" fill="white"/>
<path d="M720.714 459.18C720.494 459.181 720.279 459.122 720.09 459.011C719.9 458.899 719.744 458.739 719.638 458.547C719.354 458.037 719.051 457.522 718.737 457.017C716.787 453.985 714.442 451.227 711.763 448.815C708.095 445.42 703.08 441.884 696.851 438.301C680.429 428.805 662.919 421.333 644.703 416.047C644.548 416.002 644.403 415.927 644.277 415.826C644.15 415.725 644.045 415.6 643.967 415.459C643.889 415.317 643.84 415.161 643.822 415.001C643.804 414.84 643.818 414.677 643.863 414.522C643.908 414.367 643.983 414.222 644.084 414.095C644.185 413.969 644.31 413.864 644.452 413.786C644.593 413.708 644.749 413.659 644.91 413.641C645.07 413.623 645.233 413.637 645.388 413.683C663.794 419.023 681.487 426.573 698.08 436.168C704.465 439.842 709.63 443.488 713.43 447.004C716.27 449.565 718.756 452.493 720.822 455.711C721.161 456.255 721.484 456.805 721.788 457.351C721.892 457.538 721.945 457.75 721.943 457.964C721.94 458.178 721.882 458.388 721.773 458.573C721.665 458.758 721.51 458.911 721.324 459.017C721.138 459.124 720.928 459.18 720.714 459.18ZM723.227 449.561C723.002 449.561 722.782 449.5 722.59 449.384C722.398 449.268 722.241 449.101 722.137 448.902C720.031 445.033 717.271 441.559 713.979 438.635C710.299 435.239 705.282 431.696 699.063 428.1C683.745 419.248 667.478 412.153 650.571 406.95C650.416 406.902 650.273 406.825 650.148 406.722C650.024 406.619 649.921 406.492 649.845 406.349C649.77 406.207 649.723 406.05 649.708 405.889C649.692 405.728 649.709 405.566 649.757 405.411C649.804 405.257 649.881 405.113 649.984 404.989C650.087 404.864 650.214 404.761 650.356 404.685C650.499 404.61 650.655 404.563 650.816 404.548C650.977 404.532 651.139 404.549 651.294 404.597C668.378 409.854 684.815 417.023 700.294 425.968C706.67 429.655 711.834 433.306 715.642 436.821C719.144 439.937 722.078 443.637 724.315 447.758C724.413 447.945 724.461 448.155 724.455 448.367C724.449 448.578 724.388 448.785 724.279 448.966C724.169 449.148 724.015 449.298 723.831 449.402C723.646 449.506 723.438 449.561 723.227 449.561ZM691.055 393.252C691.027 393.252 691 393.252 690.973 393.252C688.504 393.32 686.082 392.564 684.088 391.105C682.856 390.013 681.725 388.813 680.707 387.519C679.57 386.159 678.561 385.261 677.705 384.847C677.694 384.842 677.683 384.836 677.672 384.831C676.335 384.183 674.812 384.03 673.373 384.399C671.747 384.772 670.195 385.417 668.782 386.305C666.812 387.647 665.301 388.649 664.291 389.283C662.714 390.333 660.983 391.131 659.161 391.649C659.004 391.689 658.841 391.698 658.681 391.674C658.521 391.651 658.368 391.597 658.229 391.514C658.09 391.432 657.969 391.323 657.872 391.193C657.775 391.063 657.705 390.916 657.665 390.76C657.626 390.603 657.617 390.44 657.64 390.28C657.663 390.12 657.718 389.966 657.8 389.827C657.883 389.688 657.992 389.567 658.121 389.47C658.251 389.373 658.398 389.303 658.555 389.263C660.127 388.808 661.619 388.112 662.979 387.201C663.972 386.577 665.467 385.585 667.426 384.251C667.444 384.238 667.463 384.226 667.482 384.215C669.142 383.173 670.967 382.42 672.878 381.988C674.865 381.508 676.956 381.738 678.791 382.638C679.976 383.215 681.22 384.295 682.593 385.939C684.339 388.022 685.186 388.837 685.59 389.154C687.153 390.288 689.051 390.864 690.98 390.791C691.002 390.791 691.025 390.791 691.048 390.791C693.116 390.765 695.156 390.304 697.035 389.437C698.986 388.511 700.857 387.428 702.632 386.197C705.635 384.229 707.503 383.034 708.352 382.536C713.224 379.771 718.669 378.173 724.262 377.867C724.587 377.848 724.907 377.96 725.151 378.177C725.394 378.394 725.542 378.699 725.56 379.025C725.579 379.351 725.468 379.671 725.251 379.915C725.034 380.159 724.729 380.306 724.403 380.325C719.193 380.609 714.119 382.096 709.579 384.67C708.793 385.131 706.907 386.339 703.989 388.25C702.101 389.557 700.109 390.707 698.033 391.687C695.842 392.694 693.465 393.227 691.055 393.252Z" fill="#8BD6E2"/>
<path d="M683.001 499.979C682.688 499.979 682.387 499.859 682.159 499.644C681.931 499.43 681.793 499.136 681.774 498.824C681.755 498.511 681.855 498.203 682.055 497.962C682.255 497.721 682.538 497.565 682.849 497.526C686.437 497.076 689.189 496.639 691.028 496.228C693.628 495.684 696.138 494.773 698.483 493.522C700.806 492.279 702.784 490.477 704.238 488.277C705.76 485.95 706.403 483.65 706.202 481.247C706.003 478.962 704.985 476.693 703.177 474.509C701.853 472.884 699.446 470.83 696.015 468.397C690.003 464.387 682.469 460.697 673.651 457.452C672.915 457.187 672.153 456.92 671.374 456.652C668.297 455.556 664.46 454.307 659.958 452.937C659.651 452.838 659.395 452.622 659.246 452.336C659.096 452.05 659.065 451.716 659.159 451.407C659.253 451.099 659.464 450.839 659.748 450.684C660.031 450.53 660.364 450.493 660.674 450.582C665.213 451.963 669.086 453.223 672.186 454.328C672.963 454.595 673.736 454.866 674.491 455.138C683.499 458.453 691.207 462.231 697.409 466.369C701.1 468.986 703.599 471.131 705.078 472.946C707.205 475.515 708.41 478.24 708.653 481.038C708.899 483.971 708.105 486.859 706.296 489.627C704.623 492.163 702.346 494.243 699.67 495.678C697.122 497.042 694.394 498.036 691.566 498.63C689.65 499.059 686.821 499.51 683.155 499.969C683.104 499.976 683.052 499.979 683.001 499.979Z" fill="#F7F6F1"/>
<path d="M372.445 286.755C372.198 286.755 371.955 286.69 371.74 286.566C371.526 286.442 371.349 286.264 371.225 286.05C369.601 283.231 369.036 279.924 369.634 276.725C370.197 273.57 371.624 270.634 373.757 268.243C375.911 265.913 378.437 263.956 381.231 262.453C384.073 260.948 387.037 259.684 390.09 258.675C398.168 255.945 407.5 254.023 417.83 252.963C418.014 252.943 418.2 252.96 418.377 253.013C418.555 253.066 418.72 253.153 418.863 253.269C419.007 253.386 419.126 253.53 419.214 253.693C419.302 253.855 419.357 254.034 419.376 254.218C419.395 254.402 419.377 254.588 419.324 254.765C419.271 254.943 419.184 255.108 419.067 255.251C418.95 255.395 418.806 255.513 418.643 255.601C418.48 255.689 418.301 255.743 418.117 255.761C407.995 256.801 398.869 258.678 390.993 261.34C388.096 262.296 385.284 263.493 382.587 264.918C380.075 266.265 377.803 268.019 375.863 270.108C374.077 272.107 372.88 274.563 372.405 277.202C371.911 279.754 372.358 282.398 373.661 284.645C373.784 284.859 373.849 285.102 373.849 285.348C373.849 285.595 373.784 285.837 373.661 286.051C373.537 286.265 373.36 286.442 373.147 286.566C372.933 286.689 372.691 286.754 372.445 286.755Z" fill="#BABBCD"/>
<path d="M449.921 43.4946C449.641 43.4946 449.367 43.411 449.135 43.2544C448.903 43.0978 448.722 42.8754 448.617 42.6156C448.512 42.3559 448.487 42.0707 448.545 41.7966C448.603 41.5224 448.742 41.2718 448.943 41.0769C458.278 32.0334 472.749 25.883 491.955 22.7966C510.989 19.738 535.256 19.5922 564.083 22.3631C564.452 22.4013 564.791 22.584 565.026 22.8714C565.261 23.1588 565.373 23.5275 565.337 23.8972C565.302 24.2669 565.122 24.6075 564.836 24.8448C564.551 25.082 564.183 25.1967 563.814 25.1638C506.828 19.6857 468.837 25.7198 450.898 43.0985C450.636 43.3529 450.286 43.495 449.921 43.4946Z" fill="#74CED2"/>
<path d="M710.17 261.358C708.598 261.358 707.025 261.347 705.465 261.326C689.417 261.095 673.407 259.704 657.559 257.165C656.563 256.987 655.582 256.818 654.601 256.654C654.376 256.611 654.176 256.481 654.044 256.293C653.913 256.104 653.861 255.872 653.898 255.645C653.936 255.419 654.061 255.216 654.247 255.08C654.432 254.944 654.663 254.887 654.89 254.919C655.878 255.084 656.865 255.255 657.852 255.431C673.611 257.956 689.532 259.338 705.49 259.567C708.069 259.603 710.687 259.608 713.272 259.585C721.517 259.504 729.884 259.103 738.14 258.392C743.537 257.98 748.909 257.285 754.233 256.313C759.495 255.329 764.635 253.78 769.565 251.692C774.661 249.472 779.487 245.621 783.911 240.245C784.059 240.065 784.272 239.951 784.504 239.929C784.736 239.906 784.968 239.977 785.148 240.125C785.327 240.273 785.441 240.487 785.464 240.719C785.486 240.951 785.415 241.183 785.267 241.363C780.666 246.955 775.619 250.973 770.267 253.304C765.219 255.443 759.956 257.031 754.568 258.039C749.182 259.024 743.748 259.727 738.289 260.145C729.99 260.858 721.578 261.262 713.288 261.344C712.253 261.353 711.211 261.358 710.17 261.358ZM706.367 249.544C704.48 249.544 702.595 249.521 700.711 249.473C686.778 249.111 672.909 247.444 659.286 244.494C659.061 244.442 658.866 244.304 658.743 244.108C658.619 243.913 658.577 243.677 658.626 243.451C658.675 243.225 658.811 243.028 659.004 242.902C659.197 242.775 659.433 242.73 659.659 242.776C673.174 245.702 686.933 247.356 700.756 247.715C714.588 248.064 728.422 247.125 742.081 244.913C753.027 243.131 761.662 240.583 767.745 237.337C773.763 234.104 777.849 230.639 779.888 227.04C779.944 226.937 780.019 226.846 780.11 226.773C780.201 226.7 780.306 226.645 780.419 226.613C780.531 226.58 780.649 226.571 780.765 226.584C780.881 226.598 780.993 226.635 781.095 226.693C781.197 226.75 781.286 226.828 781.358 226.921C781.429 227.013 781.481 227.119 781.511 227.232C781.541 227.346 781.548 227.464 781.532 227.58C781.516 227.695 781.477 227.807 781.417 227.908C779.212 231.8 774.891 235.494 768.574 238.888C762.318 242.225 753.5 244.836 742.362 246.649C730.461 248.577 718.423 249.546 706.367 249.544ZM698.324 238.262C686.71 238.261 675.125 237.128 663.731 234.878C663.612 234.855 663.499 234.807 663.4 234.738C663.3 234.669 663.216 234.58 663.153 234.477C663.089 234.373 663.048 234.258 663.031 234.138C663.014 234.018 663.022 233.896 663.055 233.779L672.052 201.58C672.107 201.385 672.227 201.214 672.393 201.097C672.559 200.981 672.76 200.925 672.962 200.94C688.451 202.066 704.011 201.72 719.433 199.906C719.574 199.89 719.716 199.907 719.848 199.957C719.98 200.008 720.098 200.089 720.192 200.194C720.286 200.3 720.353 200.427 720.387 200.564C720.422 200.701 720.423 200.844 720.391 200.981C717.317 214.009 714.414 226.175 711.762 237.142C711.718 237.323 711.617 237.486 711.475 237.606C711.333 237.727 711.156 237.799 710.97 237.812C706.761 238.112 702.546 238.262 698.324 238.262ZM665.004 233.335C679.89 236.192 695.081 237.122 710.205 236.102C712.731 225.647 715.484 214.114 718.393 201.796C703.505 203.47 688.496 203.787 673.551 202.745L665.004 233.335ZM721.661 237.252C721.434 237.25 721.217 237.161 721.055 237.003C720.892 236.846 720.797 236.631 720.789 236.405C720.78 236.179 720.859 235.958 721.01 235.788C721.16 235.619 721.37 235.514 721.595 235.496C746.745 233.588 764.502 226.995 774.373 215.898C774.53 215.73 774.746 215.629 774.975 215.618C775.205 215.607 775.43 215.687 775.602 215.84C775.773 215.993 775.878 216.207 775.894 216.437C775.91 216.666 775.835 216.893 775.686 217.068C765.501 228.516 747.347 235.306 721.728 237.249C721.705 237.251 721.683 237.252 721.661 237.252ZM725.65 224.836C725.429 224.836 725.216 224.752 725.054 224.601C724.892 224.45 724.792 224.244 724.776 224.023C724.759 223.802 724.826 223.583 724.964 223.41C725.101 223.237 725.299 223.122 725.518 223.088C734.699 221.715 743.687 219.261 752.292 215.775C757.548 213.643 761.969 210.932 765.435 207.714C765.605 207.555 765.832 207.471 766.065 207.48C766.298 207.489 766.518 207.59 766.676 207.761C766.835 207.931 766.919 208.158 766.91 208.391C766.901 208.624 766.801 208.844 766.63 209.003C763.007 212.366 758.406 215.193 752.954 217.404C744.222 220.941 735.101 223.433 725.784 224.826C725.739 224.833 725.695 224.836 725.65 224.836ZM727.266 212.105C727.045 212.104 726.832 212.02 726.67 211.869C726.508 211.719 726.409 211.512 726.392 211.291C726.375 211.071 726.443 210.852 726.58 210.678C726.718 210.505 726.916 210.39 727.134 210.356C736.314 208.984 745.301 206.535 753.909 203.06C754.566 202.795 755.221 202.52 755.858 202.242C755.964 202.196 756.078 202.171 756.193 202.169C756.309 202.167 756.423 202.187 756.531 202.23C756.638 202.272 756.736 202.335 756.819 202.415C756.902 202.495 756.969 202.591 757.015 202.697C757.061 202.802 757.086 202.916 757.088 203.032C757.09 203.147 757.069 203.262 757.027 203.369C756.985 203.477 756.922 203.575 756.842 203.658C756.762 203.741 756.666 203.808 756.56 203.854C755.909 204.138 755.239 204.42 754.57 204.69C745.835 208.216 736.716 210.702 727.4 212.094C727.356 212.101 727.311 212.105 727.266 212.105ZM728.162 200.498C727.941 200.497 727.728 200.413 727.566 200.263C727.405 200.112 727.305 199.905 727.289 199.685C727.272 199.464 727.339 199.245 727.477 199.072C727.615 198.898 727.812 198.783 728.031 198.75C737.017 197.41 745.819 195.035 754.261 191.672C754.447 191.585 754.638 191.509 754.833 191.443C754.932 191.403 755.036 191.358 755.144 191.309C755.356 191.213 755.598 191.205 755.816 191.287C756.034 191.369 756.21 191.534 756.307 191.747C756.403 191.959 756.411 192.201 756.329 192.419C756.247 192.637 756.081 192.814 755.869 192.91C755.727 192.975 755.592 193.033 755.463 193.084C755.447 193.091 755.431 193.096 755.415 193.102C755.268 193.151 755.123 193.209 754.982 193.276C754.967 193.282 754.953 193.289 754.938 193.294C746.364 196.713 737.424 199.126 728.296 200.488C728.252 200.495 728.207 200.498 728.162 200.498Z" fill="#8EC1D3"/>
<path d="M532.128 570.847C531.571 570.847 530.999 570.841 530.412 570.83C520.222 570.665 508.149 568.865 494.532 565.478C480.915 562.091 469.398 558.031 460.302 553.409C450.379 548.373 446.211 544.191 447.185 540.246C447.669 538.323 449.325 536.896 452.108 536C452.284 535.943 452.469 535.921 452.654 535.935C452.838 535.95 453.018 536.001 453.182 536.085C453.347 536.169 453.493 536.285 453.613 536.426C453.733 536.567 453.824 536.731 453.88 536.907C453.937 537.083 453.958 537.268 453.943 537.453C453.928 537.637 453.877 537.817 453.792 537.982C453.708 538.146 453.591 538.292 453.45 538.412C453.309 538.531 453.146 538.622 452.969 538.678C451.171 539.257 450.143 540.014 449.913 540.927C449.646 542.006 450.246 545.151 461.575 550.9C470.482 555.427 481.798 559.412 495.21 562.747C508.62 566.083 520.48 567.856 530.46 568.017C543.188 568.249 545.183 565.756 545.451 564.672C545.724 563.586 545.131 560.45 533.787 554.656C524.884 550.143 513.567 546.163 500.155 542.828C499.727 542.722 499.301 542.616 498.877 542.512C498.697 542.469 498.527 542.391 498.378 542.281C498.228 542.172 498.102 542.035 498.005 541.877C497.909 541.718 497.845 541.543 497.817 541.36C497.788 541.177 497.796 540.99 497.841 540.81C497.885 540.63 497.964 540.461 498.073 540.311C498.183 540.162 498.321 540.036 498.48 539.94C498.638 539.845 498.814 539.781 498.997 539.754C499.18 539.726 499.366 539.735 499.546 539.78C499.973 539.885 500.402 539.99 500.833 540.098C514.45 543.483 525.966 547.538 535.062 552.148C545.002 557.225 549.169 561.42 548.178 565.353C547.257 569.086 542.141 570.846 532.128 570.847Z" fill="#C3E5E3"/>
<path d="M499.213 542.554C499.1 542.554 498.989 542.54 498.88 542.513C485.999 539.382 474.567 537.709 464.903 537.541C459.572 537.463 455.558 537.843 452.97 538.678C452.617 538.786 452.236 538.75 451.909 538.579C451.582 538.408 451.335 538.115 451.222 537.764C451.109 537.412 451.138 537.03 451.304 536.7C451.47 536.37 451.758 536.119 452.108 536C455.029 535.058 459.231 534.646 464.949 534.728C474.823 534.899 486.461 536.599 499.544 539.779C499.877 539.861 500.17 540.062 500.366 540.345C500.562 540.627 500.647 540.972 500.607 541.313C500.566 541.655 500.402 541.97 500.145 542.198C499.888 542.427 499.556 542.553 499.213 542.554Z" fill="#F2F9F9"/>
<path d="M585.272 147.379C585.181 147.379 585.091 147.365 585.004 147.337C573.378 143.612 562.109 139.493 551.511 135.096C551.3 135.004 551.133 134.833 551.046 134.619C550.96 134.405 550.961 134.165 551.049 133.952C551.137 133.739 551.306 133.569 551.518 133.479C551.731 133.389 551.97 133.386 552.184 133.471C562.737 137.85 573.96 141.952 585.54 145.662C585.74 145.726 585.91 145.86 586.019 146.038C586.129 146.216 586.172 146.428 586.14 146.635C586.107 146.842 586.002 147.031 585.843 147.168C585.684 147.304 585.482 147.379 585.272 147.379ZM500.836 108.916C500.669 108.916 500.506 108.868 500.366 108.779C493.063 104.145 486.016 99.2118 479.423 94.1151C479.243 93.9709 479.127 93.7619 479.1 93.5331C479.073 93.3043 479.137 93.0739 479.277 92.8916C479.418 92.7092 479.625 92.5894 479.853 92.558C480.081 92.5265 480.312 92.5859 480.497 92.7234C487.048 97.7869 494.049 102.689 501.307 107.294C501.468 107.396 501.591 107.547 501.658 107.725C501.726 107.904 501.733 108.099 501.68 108.282C501.627 108.465 501.516 108.625 501.364 108.74C501.211 108.854 501.026 108.916 500.836 108.916ZM431.655 40.0834C431.423 40.0834 431.201 39.9919 431.036 39.8287C430.872 39.6655 430.778 39.4439 430.776 39.212C430.75 35.9406 431.087 32.6765 431.781 29.4794C434.273 17.9582 441.155 8.09503 452.236 0.164062C452.426 0.0284274 452.661 -0.0263159 452.891 0.0118799C453.121 0.0500757 453.326 0.178081 453.462 0.367733C453.597 0.557385 453.652 0.793149 453.614 1.02316C453.576 1.25317 453.448 1.4586 453.258 1.59423C442.544 9.26335 435.895 18.7705 433.498 29.8514C432.832 32.921 432.509 36.0551 432.533 39.1961C432.534 39.3116 432.513 39.4262 432.469 39.5332C432.426 39.6403 432.362 39.7378 432.282 39.8202C432.201 39.9026 432.104 39.9682 431.998 40.0134C431.892 40.0585 431.778 40.0823 431.663 40.0833L431.655 40.0834Z" fill="#42A5F5"/>
<path d="M728.887 166.349C728.663 166.348 728.448 166.261 728.286 166.107C728.123 165.952 728.026 165.741 728.014 165.517C728.002 165.294 728.076 165.074 728.22 164.902C728.365 164.731 728.57 164.621 728.792 164.596C736.557 163.74 744.236 162.547 751.616 161.051C756.753 160.012 761.675 158.841 766.246 157.572C766.358 157.539 766.475 157.528 766.591 157.541C766.707 157.554 766.82 157.589 766.922 157.646C767.024 157.703 767.114 157.779 767.186 157.871C767.258 157.963 767.312 158.068 767.343 158.18C767.374 158.293 767.383 158.411 767.368 158.527C767.353 158.642 767.315 158.754 767.257 158.855C767.199 158.957 767.121 159.045 767.028 159.116C766.935 159.186 766.828 159.238 766.715 159.267C762.104 160.547 757.141 161.727 751.965 162.774C744.533 164.281 736.801 165.482 728.984 166.344C728.952 166.347 728.92 166.349 728.887 166.349Z" fill="#A9CFC3"/>
<path d="M827.555 108.53C827.542 108.53 827.529 108.53 827.516 108.53C827.283 108.519 827.064 108.417 826.907 108.245C826.749 108.073 826.666 107.846 826.676 107.613C827.416 90.6202 815.931 70.644 792.543 48.2393C792.38 48.0768 792.288 47.8569 792.285 47.6269C792.282 47.3968 792.37 47.1749 792.529 47.0087C792.688 46.8425 792.905 46.7452 793.135 46.7378C793.365 46.7303 793.589 46.8133 793.758 46.9688C805.608 58.3209 814.532 69.1645 820.281 79.1987C826.072 89.3064 828.815 98.892 828.432 107.689C828.422 107.916 828.326 108.129 828.162 108.286C827.999 108.443 827.781 108.53 827.555 108.53Z" fill="#A1ECF9"/>
<path d="M193.679 364.5C209.213 373.187 233.217 383.574 265.691 395.662C293.01 405.826 322.954 415.943 355.521 426.014C357.419 413.728 359.018 401.377 360.319 388.961C353.817 386.957 347.415 384.946 341.112 382.93H338.915V382.226C318.766 375.778 299.623 369.313 281.488 362.829C236.514 358.785 207.245 359.342 193.679 364.5ZM172.469 343.661C172.386 343.983 172.339 344.314 172.328 344.646C172.047 349.769 179.164 356.387 193.679 364.5C207.245 359.342 236.514 358.785 281.488 362.829C275.561 360.707 269.744 358.586 264.039 356.464C243.327 348.749 225.877 341.698 211.69 335.308C187.101 334.64 174.027 337.424 172.469 343.661Z" fill="#C3E1EC"/>
<path d="M165.633 301.579C165.574 301.816 165.533 302.057 165.51 302.3L172.328 344.646C172.339 344.314 172.386 343.983 172.469 343.661C174.027 337.424 187.101 334.64 211.691 335.308C224.788 335.66 241.148 336.996 260.77 339.318C262.211 328.309 264.039 314.493 266.253 297.869C201.785 289.838 168.245 291.075 165.633 301.579Z" fill="#E1F0F6"/>
<path d="M681.036 531.985C680.96 531.984 680.885 531.978 680.81 531.967C658.172 528.311 634.146 523.959 609.398 519.032C609.217 518.996 609.045 518.924 608.891 518.822C608.738 518.719 608.606 518.587 608.504 518.434C608.401 518.28 608.33 518.108 608.294 517.927C608.258 517.745 608.258 517.559 608.294 517.378C608.33 517.197 608.401 517.024 608.504 516.871C608.606 516.717 608.738 516.585 608.891 516.482C609.045 516.38 609.217 516.309 609.398 516.272C609.579 516.236 609.766 516.236 609.947 516.272C634.661 521.193 658.654 525.539 681.258 529.189C681.607 529.245 681.921 529.431 682.139 529.709C682.358 529.987 682.463 530.337 682.435 530.689C682.407 531.041 682.248 531.37 681.988 531.61C681.729 531.85 681.389 531.984 681.036 531.985ZM773.694 477.434C773.526 477.434 773.361 477.404 773.204 477.346C767.836 475.349 762.298 473.34 756.742 471.375C756.567 471.314 756.406 471.219 756.268 471.096C756.13 470.972 756.017 470.823 755.937 470.656C755.857 470.489 755.81 470.307 755.8 470.122C755.79 469.937 755.816 469.752 755.878 469.577C755.94 469.402 756.036 469.241 756.16 469.104C756.284 468.966 756.434 468.854 756.601 468.775C756.769 468.695 756.95 468.65 757.135 468.641C757.32 468.632 757.505 468.659 757.679 468.722C763.25 470.693 768.802 472.707 774.184 474.709C774.493 474.824 774.752 475.044 774.915 475.33C775.078 475.617 775.136 475.952 775.077 476.277C775.019 476.601 774.848 476.895 774.595 477.107C774.343 477.318 774.023 477.434 773.694 477.434ZM404.004 469.732C403.875 469.732 403.745 469.714 403.621 469.678C357.068 456.481 314.752 442.73 277.847 428.808C245.384 416.573 221.044 405.686 205.503 396.449C189.219 386.77 182.093 378.688 183.717 371.741C184.565 368.13 187.747 365.252 193.177 363.186L193.179 363.185C207.076 357.901 236.003 357.326 281.614 361.428H281.616C285.421 361.768 289.381 362.147 293.387 362.555C307.979 364.039 323.361 365.887 339.106 368.048C339.289 368.073 339.465 368.133 339.624 368.227C339.784 368.32 339.923 368.444 340.035 368.591C340.146 368.738 340.228 368.906 340.275 369.084C340.322 369.263 340.333 369.449 340.308 369.632C340.283 369.815 340.222 369.992 340.129 370.151C340.036 370.311 339.912 370.45 339.765 370.562C339.618 370.674 339.45 370.755 339.272 370.802C339.093 370.849 338.907 370.86 338.724 370.835C323.012 368.679 307.663 366.835 293.102 365.354C289.108 364.948 285.159 364.57 281.365 364.231H281.362C236.819 360.225 207.487 360.757 194.183 365.813L194.178 365.815C189.674 367.529 187.075 369.739 186.454 372.384C184.594 380.338 199.112 396.128 278.838 426.175C315.67 440.07 357.91 453.796 404.387 466.971C404.713 467.064 404.995 467.271 405.18 467.556C405.365 467.84 405.442 468.182 405.395 468.518C405.349 468.854 405.182 469.162 404.927 469.385C404.671 469.608 404.344 469.732 404.004 469.732ZM603.593 425.188C603.474 425.188 603.355 425.172 603.239 425.142C582.788 419.836 561.219 414.514 539.131 409.323C491.533 398.138 446.566 388.754 405.48 381.431C405.298 381.398 405.124 381.33 404.969 381.231C404.813 381.131 404.679 381.002 404.573 380.851C404.467 380.699 404.393 380.528 404.353 380.348C404.313 380.167 404.31 379.981 404.342 379.799C404.374 379.617 404.442 379.443 404.542 379.288C404.641 379.132 404.77 378.998 404.922 378.892C405.073 378.786 405.244 378.711 405.424 378.672C405.604 378.632 405.791 378.628 405.972 378.661C447.109 385.993 492.126 395.387 539.774 406.584C561.883 411.78 583.473 417.107 603.945 422.419C604.276 422.505 604.564 422.708 604.756 422.992C604.948 423.275 605.03 423.619 604.987 423.958C604.944 424.298 604.778 424.61 604.522 424.836C604.265 425.062 603.935 425.187 603.593 425.188ZM384.901 276.151C384.647 276.151 384.397 276.081 384.179 275.95C383.01 275.248 381.833 274.528 380.68 273.81C380.364 273.613 380.138 273.298 380.054 272.935C379.969 272.572 380.033 272.19 380.23 271.873C380.426 271.556 380.741 271.33 381.104 271.246C381.467 271.161 381.849 271.224 382.166 271.422C383.305 272.131 384.469 272.843 385.626 273.537C385.889 273.696 386.094 273.936 386.208 274.222C386.322 274.508 386.339 274.823 386.257 275.12C386.174 275.416 385.997 275.678 385.753 275.864C385.508 276.05 385.209 276.151 384.901 276.151ZM371.019 267.288C370.739 267.288 370.466 267.204 370.234 267.047C368.359 265.78 366.487 264.484 364.671 263.195C337.07 243.68 320.664 225.091 315.911 207.943C315.813 207.584 315.862 207.201 316.045 206.877C316.229 206.554 316.533 206.316 316.892 206.217C317.25 206.118 317.633 206.164 317.957 206.347C318.281 206.529 318.52 206.833 318.621 207.191C323.196 223.697 339.236 241.766 366.296 260.898C368.097 262.177 369.95 263.461 371.807 264.715C372.056 264.883 372.245 265.128 372.346 265.412C372.446 265.696 372.452 266.005 372.364 266.293C372.276 266.581 372.098 266.833 371.855 267.012C371.613 267.191 371.32 267.288 371.019 267.288ZM318.372 185.551C318.142 185.55 317.916 185.494 317.713 185.385C317.51 185.277 317.336 185.121 317.208 184.93C317.079 184.739 316.999 184.519 316.975 184.29C316.951 184.061 316.983 183.83 317.07 183.616C321.173 173.459 329.942 165.235 343.135 159.173C356.135 153.199 373.834 149.148 395.739 147.132C424.032 144.543 455.202 145.711 488.381 150.605C488.564 150.631 488.741 150.694 488.9 150.788C489.059 150.883 489.198 151.008 489.309 151.156C489.42 151.305 489.5 151.474 489.546 151.653C489.591 151.833 489.6 152.02 489.573 152.203C489.546 152.386 489.484 152.563 489.388 152.722C489.293 152.88 489.167 153.019 489.018 153.129C488.87 153.239 488.7 153.319 488.521 153.364C488.341 153.408 488.154 153.417 487.971 153.389C455.013 148.528 424.068 147.365 395.996 149.934C374.409 151.92 357.018 155.889 344.308 161.73C331.789 167.483 323.502 175.201 319.676 184.671C319.571 184.931 319.391 185.153 319.159 185.31C318.926 185.467 318.653 185.551 318.372 185.551Z" fill="#71FCC3"/>
<path d="M658.218 120.573C647.084 120.526 635.979 119.434 625.049 117.311C594.313 111.461 569.015 99.3298 549.857 81.2542C548.686 80.1405 547.544 79.016 546.461 77.9085C546.332 77.7765 546.23 77.6203 546.161 77.4489C546.092 77.2775 546.058 77.0942 546.06 76.9094C546.062 76.7247 546.1 76.5422 546.173 76.3723C546.245 76.2024 546.35 76.0484 546.482 75.9192C546.614 75.7899 546.77 75.688 546.941 75.6191C547.113 75.5503 547.296 75.5158 547.48 75.5178C547.665 75.5198 547.847 75.5581 548.017 75.6307C548.187 75.7032 548.341 75.8084 548.47 75.9405C549.53 77.0236 550.646 78.1237 551.79 79.2102C570.548 96.9085 595.374 108.799 625.574 114.547C655.786 120.284 683.227 118.327 707.133 108.732C713.077 106.398 718.774 103.478 724.141 100.016C724.452 99.8133 724.832 99.7421 725.196 99.8183C725.56 99.8945 725.879 100.112 726.083 100.423C726.287 100.734 726.36 101.114 726.285 101.478C726.21 101.843 725.994 102.163 725.684 102.368C720.16 105.933 714.297 108.94 708.179 111.344C692.862 117.492 676.143 120.573 658.218 120.573ZM744.259 82.552C744.014 82.5517 743.774 82.4876 743.561 82.3659C743.349 82.2443 743.172 82.0693 743.048 81.8583C742.924 81.6473 742.857 81.4075 742.854 81.1628C742.851 80.918 742.912 80.6766 743.031 80.4626C745.169 76.5894 746.772 72.4434 747.795 68.1383C747.976 67.3701 748.143 66.5805 748.291 65.7967C748.663 63.857 748.92 61.8968 749.06 59.9265C749.087 59.5551 749.261 59.2096 749.542 58.9657C749.823 58.7218 750.19 58.5995 750.561 58.6255C750.932 58.6516 751.278 58.8238 751.522 59.1046C751.767 59.3854 751.89 59.7517 751.865 60.1233C751.718 62.2038 751.446 64.2737 751.053 66.3218C750.898 67.1424 750.723 67.9741 750.531 68.7888C749.448 73.3436 747.752 77.73 745.489 81.8277C745.367 82.0474 745.189 82.2305 744.973 82.3578C744.756 82.4852 744.51 82.5523 744.259 82.552ZM534.428 61.4319C534.18 61.4322 533.937 61.367 533.722 61.2428C533.508 61.1187 533.33 60.94 533.207 60.7249C527.577 50.9031 525.032 40.6996 525.643 30.398C525.671 30.0301 525.842 29.6881 526.12 29.4456C526.398 29.203 526.76 29.0794 527.128 29.1012C527.496 29.123 527.841 29.2887 528.088 29.5624C528.335 29.8361 528.465 30.196 528.449 30.5646C527.871 40.3101 530.293 49.9864 535.646 59.3249C535.768 59.5387 535.833 59.781 535.832 60.0275C535.832 60.274 535.766 60.516 535.643 60.7294C535.52 60.9427 535.343 61.1199 535.129 61.2432C534.916 61.3665 534.674 61.4316 534.428 61.4319ZM747.37 40.3296C747.083 40.3296 746.803 40.2418 746.568 40.0779C746.332 39.914 746.152 39.6819 746.052 39.4128C744.388 35.0154 742.229 30.822 739.617 26.9138C739.416 26.6026 739.347 26.2248 739.423 25.8625C739.499 25.5003 739.715 25.1826 740.023 24.9784C740.332 24.7742 740.708 24.6999 741.071 24.7717C741.434 24.8434 741.754 25.0554 741.962 25.3617C744.693 29.4488 746.949 33.8339 748.688 38.4321C748.767 38.6449 748.793 38.8736 748.765 39.0987C748.736 39.3239 748.654 39.5388 748.524 39.7252C748.395 39.9116 748.222 40.0639 748.021 40.1691C747.821 40.2744 747.597 40.3294 747.37 40.3296ZM532.984 10.786C532.741 10.7857 532.503 10.7223 532.291 10.6022C532.08 10.482 531.904 10.3092 531.779 10.1005C531.655 9.89176 531.586 9.6543 531.58 9.41124C531.575 9.16818 531.632 8.92781 531.747 8.71355C532.55 7.21763 533.433 5.76579 534.391 4.36423C534.601 4.05623 534.925 3.84451 535.292 3.77564C535.658 3.70677 536.037 3.7864 536.345 3.99701C536.653 4.20762 536.864 4.53196 536.933 4.89867C537.002 5.26538 536.922 5.64444 536.712 5.95244C535.81 7.27101 534.98 8.63686 534.224 10.0441C534.104 10.2685 533.925 10.456 533.707 10.5866C533.489 10.7173 533.239 10.7863 532.984 10.786Z" fill="white"/>
<path d="M918.613 412.561C918.245 412.561 917.892 412.416 917.63 412.158C917.367 411.9 917.216 411.549 917.209 411.181C917.202 410.813 917.34 410.457 917.592 410.189C917.845 409.921 918.192 409.763 918.56 409.749C947.854 408.606 955.257 402.967 956.309 398.438C958.178 390.367 943.594 374.276 863.494 343.462C863.152 343.324 862.877 343.057 862.729 342.719C862.582 342.38 862.574 341.997 862.706 341.652C862.839 341.307 863.101 341.028 863.438 340.875C863.774 340.723 864.157 340.708 864.503 340.836C897.112 353.38 921.562 364.524 937.172 373.957C953.519 383.835 960.675 392.051 959.047 399.074C957.169 407.163 943.961 411.574 918.669 412.56C918.65 412.561 918.632 412.561 918.613 412.561ZM804.711 404.982C804.655 404.982 804.599 404.979 804.543 404.972C797.886 404.177 791.053 403.325 784.232 402.438C784.048 402.415 783.871 402.355 783.71 402.264C783.55 402.172 783.409 402.049 783.295 401.902C783.182 401.756 783.099 401.588 783.051 401.41C783.002 401.231 782.99 401.044 783.014 400.861C783.037 400.677 783.097 400.5 783.19 400.339C783.282 400.179 783.405 400.038 783.552 399.926C783.699 399.813 783.867 399.73 784.046 399.683C784.224 399.635 784.411 399.623 784.594 399.648C791.405 400.533 798.229 401.385 804.876 402.178C805.232 402.221 805.558 402.398 805.787 402.673C806.017 402.947 806.134 403.3 806.113 403.658C806.092 404.016 805.935 404.352 805.674 404.598C805.414 404.844 805.069 404.982 804.711 404.982ZM842.156 335.379C841.992 335.379 841.829 335.35 841.674 335.293C836.623 333.449 831.342 331.551 825.978 329.653C762.783 307.332 688.558 285.05 605.365 263.426C592.578 260.102 579.375 256.736 566.121 253.423C565.764 253.328 565.46 253.096 565.273 252.778C565.086 252.46 565.031 252.081 565.12 251.723C565.21 251.365 565.436 251.056 565.751 250.864C566.065 250.671 566.443 250.61 566.802 250.693C580.064 254.008 593.276 257.376 606.072 260.703C689.342 282.347 763.644 304.653 826.914 327C832.288 328.901 837.578 330.802 842.638 332.65C842.948 332.763 843.209 332.982 843.374 333.269C843.539 333.555 843.598 333.891 843.54 334.217C843.483 334.542 843.313 334.837 843.059 335.05C842.806 335.262 842.486 335.379 842.156 335.379ZM363.078 317.231C362.96 317.231 362.842 317.216 362.727 317.186C275.525 294.748 198.012 271.59 132.339 248.356C87.0302 232.345 52.9883 218.292 31.1586 206.587C8.44686 194.408 -1.6721 184.518 0.224172 176.351C2.1204 168.179 15.5606 163.753 41.3139 162.822C66.0654 161.926 102.817 164.305 150.543 169.891C194.74 175.087 243.492 182.457 295.443 191.798C300.588 192.72 305.842 193.679 311.056 194.648C312.729 194.952 314.405 195.263 316.085 195.581C349.399 201.802 384.732 208.94 421.099 216.796C424.733 217.582 428.377 218.373 432.032 219.171C432.214 219.209 432.385 219.283 432.538 219.388C432.691 219.493 432.821 219.628 432.921 219.784C433.022 219.939 433.091 220.113 433.124 220.296C433.157 220.478 433.154 220.665 433.114 220.846C433.075 221.028 433 221.199 432.894 221.351C432.788 221.503 432.653 221.633 432.497 221.733C432.341 221.832 432.167 221.9 431.984 221.932C431.802 221.965 431.615 221.96 431.434 221.92C427.779 221.123 424.137 220.332 420.506 219.546C384.164 211.696 348.857 204.563 315.567 198.346C313.892 198.029 312.219 197.719 310.547 197.415C305.334 196.446 300.087 195.488 294.947 194.567C243.051 185.237 194.356 177.875 150.215 172.685C102.632 167.116 66.0254 164.743 41.4153 165.634C11.5606 166.713 4.02605 172.404 2.96279 176.988C0.743571 186.545 21.5505 206.224 133.275 245.702C198.871 268.91 276.305 292.043 363.427 314.461C363.758 314.546 364.047 314.75 364.239 315.033C364.432 315.316 364.514 315.66 364.471 316C364.428 316.339 364.263 316.652 364.007 316.878C363.75 317.105 363.42 317.23 363.078 317.231Z" fill="white"/>
<path d="M416.498 129.866C416.335 129.866 416.174 129.838 416.021 129.782C414.812 129.344 413.644 128.8 412.53 128.158C409.401 126.378 406.795 123.808 404.97 120.703C403.208 117.583 402.27 114.065 402.246 110.481C402.222 106.897 403.113 103.367 404.833 100.223C406.279 97.7475 408.123 95.5274 410.291 93.6526C412.41 91.8233 414.653 90.1431 417.004 88.6242C417.271 88.4457 417.544 88.265 417.816 88.0855C418.128 87.8827 418.507 87.8116 418.87 87.8877C419.234 87.9638 419.553 88.1809 419.757 88.4916C419.962 88.8023 420.035 89.1813 419.96 89.5457C419.886 89.9101 419.671 90.2303 419.361 90.4362C419.094 90.6119 418.828 90.7888 418.562 90.9669C416.321 92.4129 414.182 94.0122 412.162 95.7533C410.226 97.4214 408.578 99.3972 407.284 101.601C405.777 104.31 405.01 107.368 405.058 110.468C405.044 113.561 405.851 116.603 407.396 119.282C408.975 121.963 411.229 124.183 413.933 125.72C414.904 126.279 415.921 126.753 416.974 127.135C417.285 127.248 417.547 127.466 417.713 127.753C417.879 128.039 417.939 128.375 417.882 128.701C417.825 129.027 417.655 129.323 417.402 129.536C417.149 129.749 416.828 129.866 416.498 129.866Z" fill="#BED6E0"/>
<path d="M425.233 86.4739C424.925 86.474 424.626 86.3734 424.382 86.1874C424.137 86.0013 423.96 85.7402 423.877 85.4439C423.795 85.1475 423.812 84.8324 423.926 84.5466C424.039 84.2608 424.243 84.0201 424.506 83.8614C428.847 81.2464 433.345 78.7842 437.876 76.5429C438.653 76.1589 439.432 75.7806 440.214 75.4082C444.715 73.2602 449.374 71.266 454.059 69.4815C458.853 67.6598 463.809 66.0056 468.79 64.5648C468.967 64.5135 469.153 64.4977 469.336 64.5182C469.52 64.5388 469.697 64.5953 469.859 64.6845C470.021 64.7738 470.163 64.894 470.278 65.0383C470.394 65.1827 470.479 65.3483 470.531 65.5258C470.582 65.7033 470.598 65.8892 470.577 66.0728C470.557 66.2564 470.5 66.4341 470.411 66.5959C470.322 66.7576 470.202 66.9002 470.057 67.0155C469.913 67.1309 469.748 67.2166 469.57 67.2679C464.662 68.6876 459.78 70.3172 455.058 72.1116C450.445 73.869 445.857 75.8327 441.423 77.9485C440.653 78.3155 439.885 78.6879 439.121 79.0656C434.661 81.2724 430.231 83.6971 425.956 86.2726C425.738 86.4044 425.488 86.474 425.233 86.4739Z" fill="#E7F6FC"/>
<path d="M469.216 81.9719C468.897 81.9721 468.588 81.8637 468.338 81.6647C468.089 81.4656 467.915 81.1876 467.844 80.8763C467.774 80.5651 467.811 80.239 467.95 79.9517C468.089 79.6644 468.321 79.433 468.609 79.2953C473.111 77.1426 477.771 75.1506 482.459 73.3753C487.25 71.5542 492.204 69.8974 497.186 68.4512C497.363 68.3988 497.549 68.3821 497.733 68.4019C497.917 68.4217 498.096 68.4777 498.258 68.5666C498.421 68.6556 498.564 68.7758 498.68 68.9203C498.796 69.0648 498.882 69.2308 498.933 69.4088C498.985 69.5867 499.001 69.7731 498.98 69.9573C498.96 70.1414 498.903 70.3196 498.813 70.4818C498.724 70.6439 498.603 70.7867 498.458 70.902C498.313 71.0173 498.147 71.1028 497.969 71.1536C493.06 72.5788 488.178 74.2114 483.456 76.0064C478.839 77.7546 474.253 79.7153 469.821 81.8343C469.632 81.9249 469.426 81.9719 469.216 81.9719Z" fill="#8BD6E2"/>
<path d="M472.66 84.0295C472.341 84.0296 472.032 83.9213 471.782 83.7222C471.533 83.5231 471.359 83.2451 471.288 82.9338C471.218 82.6226 471.255 82.2966 471.394 82.0093C471.533 81.722 471.765 81.4905 472.053 81.3528C476.556 79.2002 481.215 77.2081 485.903 75.4328C490.694 73.6118 495.649 71.9549 500.63 70.5087C500.807 70.4561 500.994 70.4392 501.178 70.4589C501.362 70.4786 501.54 70.5345 501.703 70.6235C501.866 70.7124 502.009 70.8326 502.125 70.9772C502.241 71.1218 502.327 71.2879 502.379 71.4659C502.43 71.644 502.446 71.8305 502.426 72.0147C502.405 72.199 502.348 72.3773 502.258 72.5395C502.169 72.7016 502.048 72.8445 501.903 72.9597C501.757 73.075 501.591 73.1604 501.413 73.2111C496.504 74.6363 491.622 76.2689 486.9 78.0639C482.284 79.8121 477.697 81.7728 473.265 83.8918C473.076 83.9824 472.87 84.0294 472.66 84.0295Z" fill="white"/>
<path d="M204.732 183.387C206.905 181.214 208.259 178.354 208.562 175.295C208.865 172.235 208.098 169.165 206.392 166.607C204.686 164.05 202.147 162.164 199.207 161.27C196.267 160.377 193.109 160.531 190.27 161.707C187.431 162.882 185.087 165.007 183.638 167.718C182.19 170.43 181.725 173.56 182.324 176.576C182.923 179.591 184.548 182.306 186.923 184.257C189.298 186.207 192.275 187.274 195.348 187.274C197.094 187.302 198.828 186.971 200.442 186.303C202.056 185.634 203.516 184.642 204.732 183.387Z" fill="#8BD6E2"/>
<path d="M842.68 281.482C843.705 280.458 844.343 279.109 844.486 277.666C844.629 276.224 844.267 274.776 843.463 273.57C842.658 272.364 841.461 271.475 840.075 271.053C838.689 270.632 837.199 270.705 835.861 271.259C834.522 271.814 833.417 272.815 832.734 274.094C832.051 275.372 831.832 276.848 832.114 278.27C832.396 279.692 833.163 280.972 834.283 281.892C835.403 282.812 836.806 283.315 838.255 283.315C839.079 283.328 839.896 283.172 840.657 282.857C841.418 282.542 842.107 282.074 842.68 281.482Z" fill="#8BD6E2"/>
<path d="M610.178 390.794C611.203 389.769 611.842 388.42 611.984 386.978C612.127 385.535 611.766 384.087 610.961 382.882C610.157 381.676 608.96 380.786 607.573 380.365C606.187 379.944 604.698 380.016 603.359 380.571C602.021 381.125 600.916 382.127 600.232 383.405C599.549 384.684 599.33 386.16 599.613 387.582C599.895 389.004 600.661 390.284 601.781 391.204C602.901 392.123 604.305 392.626 605.754 392.626C606.577 392.639 607.395 392.484 608.156 392.168C608.917 391.853 609.605 391.385 610.178 390.794Z" fill="white"/>
<path d="M747.735 283.192C748.14 282.803 748.462 282.336 748.682 281.819C748.902 281.302 749.015 280.745 749.015 280.184C749.015 279.622 748.902 279.065 748.682 278.548C748.462 278.031 748.14 277.564 747.735 277.175C746.902 276.376 745.794 275.93 744.64 275.93C743.487 275.93 742.378 276.376 741.546 277.175C741.141 277.564 740.819 278.031 740.599 278.548C740.379 279.065 740.265 279.622 740.265 280.184C740.265 280.745 740.379 281.302 740.599 281.819C740.819 282.336 741.141 282.803 741.546 283.192C742.378 283.991 743.487 284.437 744.64 284.437C745.794 284.437 746.902 283.991 747.735 283.192Z" fill="white"/>
<path d="M758.999 398.623C759.404 398.234 759.726 397.767 759.946 397.25C760.166 396.733 760.28 396.177 760.28 395.615C760.28 395.053 760.166 394.497 759.946 393.98C759.726 393.463 759.404 392.995 758.999 392.606C758.167 391.807 757.058 391.361 755.905 391.361C754.751 391.361 753.643 391.807 752.81 392.606C752.405 392.995 752.083 393.463 751.863 393.98C751.643 394.497 751.53 395.053 751.53 395.615C751.53 396.177 751.643 396.733 751.863 397.25C752.083 397.767 752.405 398.234 752.81 398.623C753.643 399.422 754.751 399.868 755.905 399.868C757.058 399.868 758.167 399.422 758.999 398.623Z" fill="#8EC1D3"/>
<path d="M599.581 363.909C599.986 363.52 600.308 363.053 600.528 362.536C600.748 362.019 600.862 361.463 600.862 360.901C600.862 360.339 600.748 359.783 600.528 359.266C600.308 358.749 599.986 358.282 599.581 357.892C598.749 357.093 597.64 356.647 596.487 356.647C595.333 356.647 594.225 357.093 593.392 357.892C592.988 358.282 592.665 358.749 592.445 359.266C592.225 359.783 592.112 360.339 592.112 360.901C592.112 361.463 592.225 362.019 592.445 362.536C592.665 363.053 592.988 363.52 593.392 363.909C594.225 364.708 595.333 365.154 596.487 365.154C597.64 365.154 598.749 364.708 599.581 363.909Z" fill="#8EC1D3"/>
<path d="M568.445 26.3911C568.789 26.061 569.062 25.6649 569.248 25.2266C569.435 24.7882 569.531 24.3167 569.531 23.8402C569.531 23.3638 569.435 22.8922 569.248 22.4539C569.062 22.0156 568.789 21.6195 568.445 21.2894C567.74 20.6119 566.8 20.2336 565.822 20.2336C564.844 20.2336 563.904 20.6119 563.198 21.2894C562.855 21.6195 562.581 22.0156 562.395 22.4539C562.208 22.8922 562.112 23.3638 562.112 23.8402C562.112 24.3167 562.208 24.7882 562.395 25.2266C562.581 25.6649 562.855 26.061 563.198 26.3911C563.904 27.0686 564.844 27.4468 565.822 27.4468C566.8 27.4468 567.74 27.0686 568.445 26.3911Z" fill="#8EC1D3"/>
<path d="M785.907 487.229C785.191 487.226 784.484 487.381 783.837 487.686C783.189 487.99 782.618 488.435 782.164 488.988C781.165 490.181 780.617 491.687 780.617 493.244C780.617 494.8 781.165 496.307 782.164 497.499C782.618 498.052 783.189 498.497 783.837 498.802C784.484 499.106 785.191 499.262 785.907 499.258C786.624 499.261 787.334 499.104 787.984 498.8C788.634 498.496 789.209 498.052 789.667 497.499C790.666 496.307 791.214 494.8 791.214 493.244C791.214 491.687 790.666 490.181 789.667 488.988C789.209 488.435 788.634 487.991 787.984 487.687C787.334 487.383 786.624 487.227 785.907 487.229Z" fill="#71FCC3"/>
<path d="M195.137 106.574C195.136 105.455 194.804 104.362 194.182 103.432C193.561 102.502 192.678 101.778 191.645 101.35C190.612 100.923 189.475 100.811 188.379 101.029C187.283 101.248 186.276 101.787 185.486 102.578C184.695 103.369 184.157 104.376 183.938 105.473C183.72 106.57 183.832 107.708 184.259 108.741C184.686 109.775 185.41 110.659 186.339 111.281C187.268 111.903 188.361 112.235 189.479 112.236C190.976 112.225 192.409 111.625 193.468 110.566C194.526 109.506 195.126 108.072 195.137 106.574Z" fill="#71FCC3"/>
<path d="M511.862 46.7551C512.205 46.425 512.478 46.0289 512.665 45.5906C512.851 45.1523 512.948 44.6807 512.948 44.2043C512.948 43.7278 512.851 43.2563 512.665 42.8179C512.478 42.3796 512.205 41.9835 511.862 41.6534C511.156 40.9759 510.216 40.5977 509.238 40.5977C508.26 40.5977 507.32 40.9759 506.614 41.6534C506.271 41.9835 505.998 42.3796 505.811 42.8179C505.625 43.2563 505.529 43.7278 505.529 44.2043C505.529 44.6807 505.625 45.1523 505.811 45.5906C505.998 46.0289 506.271 46.425 506.614 46.7551C507.32 47.4326 508.26 47.8108 509.238 47.8108C510.216 47.8108 511.156 47.4326 511.862 46.7551Z" fill="#8EC1D3"/>
<path d="M340.055 403.881C340.399 403.551 340.672 403.155 340.859 402.717C341.045 402.278 341.141 401.807 341.141 401.33C341.141 400.854 341.045 400.382 340.859 399.944C340.672 399.506 340.399 399.11 340.055 398.78C339.35 398.102 338.41 397.724 337.432 397.724C336.454 397.724 335.514 398.102 334.808 398.78C334.465 399.11 334.192 399.506 334.005 399.944C333.818 400.382 333.722 400.854 333.722 401.33C333.722 401.807 333.818 402.278 334.005 402.717C334.192 403.155 334.465 403.551 334.808 403.881C335.514 404.559 336.454 404.937 337.432 404.937C338.41 404.937 339.35 404.559 340.055 403.881Z" fill="white"/>
<path d="M296.88 397.709C297.223 397.379 297.496 396.983 297.683 396.544C297.87 396.106 297.966 395.635 297.966 395.158C297.966 394.682 297.87 394.21 297.683 393.772C297.496 393.333 297.223 392.937 296.88 392.607C296.174 391.93 295.234 391.552 294.256 391.552C293.278 391.552 292.338 391.93 291.632 392.607C291.289 392.937 291.016 393.333 290.829 393.772C290.643 394.21 290.547 394.682 290.547 395.158C290.547 395.635 290.643 396.106 290.829 396.544C291.016 396.983 291.289 397.379 291.632 397.709C292.338 398.386 293.278 398.765 294.256 398.765C295.234 398.765 296.174 398.386 296.88 397.709Z" fill="#A8D7DD"/>
<path d="M404.193 495.355C404.86 494.713 405.39 493.943 405.753 493.092C406.116 492.24 406.303 491.323 406.303 490.398C406.303 489.472 406.116 488.555 405.753 487.704C405.39 486.852 404.86 486.082 404.193 485.441C402.821 484.124 400.994 483.389 399.094 483.389C397.194 483.389 395.367 484.124 393.996 485.441C393.328 486.082 392.798 486.852 392.435 487.704C392.072 488.555 391.885 489.472 391.885 490.398C391.885 491.323 392.072 492.24 392.435 493.092C392.798 493.943 393.328 494.713 393.996 495.355C395.367 496.671 397.194 497.406 399.094 497.406C400.994 497.406 402.821 496.671 404.193 495.355Z" fill="#A8D7DD"/>
<path d="M360.143 181.629C360.142 180.51 359.809 179.417 359.188 178.487C358.566 177.557 357.683 176.833 356.65 176.405C355.617 175.977 354.481 175.866 353.385 176.084C352.289 176.303 351.282 176.842 350.491 177.633C349.701 178.423 349.162 179.431 348.944 180.528C348.726 181.625 348.837 182.763 349.265 183.796C349.692 184.83 350.416 185.714 351.345 186.336C352.274 186.958 353.366 187.29 354.484 187.291C355.982 187.28 357.414 186.68 358.473 185.62C359.532 184.561 360.132 183.127 360.143 181.629Z" fill="#E1F0F6"/>
</svg>
