<svg width="77" height="77" viewBox="0 0 77 77" fill="none" xmlns="http://www.w3.org/2000/svg">
<path fill-rule="evenodd" clip-rule="evenodd" d="M36.6667 1.83333C36.6667 0.820811 37.4875 0 38.5 0C59.763 0 77 17.237 77 38.5C77 59.763 59.763 77 38.5 77C17.237 77 0 59.763 0 38.5C0 37.4875 0.820811 36.6667 1.83333 36.6667C2.84586 36.6667 3.66667 37.4875 3.66667 38.5C3.66667 57.7379 19.2621 73.3333 38.5 73.3333C57.7379 73.3333 73.3333 57.7379 73.3333 38.5C73.3333 19.2621 57.7379 3.66667 38.5 3.66667C37.4875 3.66667 36.6667 2.84586 36.6667 1.83333Z" fill="#FE985C"/>
</svg>
