<svg width="80" height="80" viewBox="0 0 80 80" fill="none" xmlns="http://www.w3.org/2000/svg">
<g clip-path="url(#clip0_1305_9288)">
<path d="M61.2133 18.7867L56.5 23.5001C52.6831 19.6827 47.6606 17.3069 42.2883 16.7775C36.9161 16.2481 31.5265 17.5978 27.0378 20.5967C22.5491 23.5956 19.2391 28.058 17.6718 33.2238C16.1045 38.3895 16.3767 43.9389 18.4423 48.9263C20.5078 53.9138 24.2387 58.0308 28.9994 60.5758C33.7601 63.1209 39.256 63.9365 44.5506 62.8837C49.8452 61.8309 54.611 58.9748 58.0359 54.8021C61.4608 50.6295 63.333 45.3983 63.3333 40.0001H70C69.9999 46.9407 67.5933 53.6666 63.1902 59.0318C58.787 64.397 52.6598 68.0694 45.8525 69.4234C39.0452 70.7774 31.979 69.7292 25.8579 66.4573C19.7368 63.1855 14.9396 57.8925 12.2835 51.4801C9.62751 45.0678 9.27705 37.9328 11.2919 31.2911C13.3067 24.6493 17.5621 18.9116 23.3331 15.0556C29.104 11.1996 36.0335 9.46393 42.9407 10.1443C49.8479 10.8246 56.3056 13.8789 61.2133 18.7867Z" fill="url(#paint0_linear_1305_9288)"/>
</g>
<defs>
<linearGradient id="paint0_linear_1305_9288" x1="70" y1="39.9998" x2="9.26069" y2="40.6439" gradientUnits="userSpaceOnUse">
<stop stop-color="#70FFBA"/>
<stop offset="1" stop-color="#78DEFF"/>
</linearGradient>
<clipPath id="clip0_1305_9288">
<rect width="80" height="80" fill="white"/>
</clipPath>
</defs>
</svg>
