<svg width="158" height="41" viewBox="0 0 158 41" fill="none" xmlns="http://www.w3.org/2000/svg">
<path fill-rule="evenodd" clip-rule="evenodd" d="M1.90445 32.2354H7.28096V28.4265H3.82833V3.88242H23.9287C29.37 3.88242 33.1724 6.92048 35.3165 11.1439C36.508 13.5551 37.2166 16.1759 37.4023 18.8589C37.6218 21.5966 37.3408 24.3514 36.5732 26.9884C35.0833 31.9633 31.7084 36.0378 26.5262 36.9447C24.5238 37.1904 22.5038 37.2619 20.489 37.1584C19.4073 37.1196 18.2868 37.1196 17.7491 37.1196H17.7489V40.9479H20.4307C22.6817 41.0676 24.9389 40.9808 27.174 40.6888C34.008 39.5034 38.3546 34.3406 40.2331 28.0637C41.1517 24.983 41.4986 21.7601 41.2566 18.5545C41.0303 15.3666 40.1854 12.2534 38.7691 9.38848C36.0032 3.92129 31.093 0.034668 23.9675 0.034668H0V32.2354H1.90445ZM22.9764 8.85083H9.37324L9.35381 12.7051H9.37324V28.407H9.35381V32.2224L9.37324 32.2225V37.152L0.207275 37.1001L0.220231 40.9155L11.2906 40.9544L13.2016 40.935V32.2335C17.2979 32.2412 21.1899 32.2344 22.0566 32.19H22.2509L22.2661 32.1893C24.9155 32.0657 32.2785 31.7221 32.2785 20.731C32.2525 9.4986 23.0088 8.85083 22.9764 8.85083ZM13.2016 28.407H21.8623H22.0631C23.7473 28.3293 28.4696 28.1091 28.4566 20.7633C28.4566 13.5925 23.4364 12.7828 22.7627 12.7051H13.2016V28.407Z" fill="url(#paint0_linear_479_346)"/>
<path fill-rule="evenodd" clip-rule="evenodd" d="M157.998 26.2046V18.6257C158.019 17.8335 157.871 17.046 157.564 16.3155C157.257 15.585 156.797 14.9283 156.217 14.3893C155.636 13.8342 154.951 13.3991 154.202 13.109C153.453 12.8189 152.654 12.6794 151.851 12.6986H142.134C140.512 12.6613 138.942 13.2694 137.768 14.3893C137.187 14.9283 136.728 15.585 136.421 16.3155C136.114 17.046 135.966 17.8335 135.987 18.6257V26.2046C135.965 26.9968 136.113 27.7845 136.42 28.5151C136.727 29.2456 137.187 29.9022 137.768 30.441C138.942 31.5609 140.512 32.169 142.134 32.1317H151.851C152.654 32.1509 153.453 32.0114 154.202 31.7213C154.951 31.4312 155.636 30.9961 156.217 30.441C156.798 29.9022 157.257 29.2456 157.564 28.5151C157.872 27.7845 158.019 26.9968 157.998 26.2046ZM154.383 26.2046C154.383 27.7787 153.36 28.5236 151.851 28.5236H142.134C140.625 28.5236 139.601 27.7787 139.601 26.2046V18.6322C139.601 17.0581 140.625 16.3131 142.134 16.3131H151.851C153.36 16.3131 154.383 17.0581 154.383 18.6322V26.2046Z" fill="#01020C"/>
<path fill-rule="evenodd" clip-rule="evenodd" d="M109.784 12.6727V16.2872H124.573C126.076 16.2872 127.028 17.0646 127.028 18.6062V26.1722C127.028 27.7139 126.076 28.4912 124.573 28.4912H113.431V20.3293H109.817V32.1058H124.573C125.372 32.1258 126.168 31.9866 126.913 31.6964C127.658 31.4061 128.338 30.9706 128.913 30.4151C129.49 29.8741 129.945 29.2166 130.249 28.4862C130.553 27.7559 130.698 26.9694 130.675 26.1787V18.5998C130.698 17.8091 130.553 17.0226 130.249 16.2922C129.945 15.5619 129.49 14.9044 128.913 14.3633C128.338 13.8079 127.658 13.3723 126.913 13.0821C126.168 12.7918 125.372 12.6527 124.573 12.6727H109.784Z" fill="#01020C"/>
<path fill-rule="evenodd" clip-rule="evenodd" d="M104.44 32.1058V18.4378C104.472 16.9373 103.946 15.4784 102.963 14.3439C102.499 13.7984 101.918 13.3648 101.263 13.0754C100.608 12.786 99.896 12.6484 99.1803 12.6727H87.9285C87.2198 12.651 86.5153 12.7901 85.868 13.0795C85.2207 13.369 84.6473 13.8012 84.1909 14.3439C83.2038 15.4762 82.6748 16.9361 82.7075 18.4378V32.1058H86.3285V18.5026C86.3285 17.4467 86.6913 16.3391 87.9285 16.3391H99.1803C100.431 16.3391 100.826 17.4208 100.826 18.5026V22.0006H90.539V25.6151H100.826V32.1058H104.44Z" fill="#01020C"/>
<path fill-rule="evenodd" clip-rule="evenodd" d="M55.1318 12.6727V16.2678C61.6096 16.2678 65.6581 16.2678 72.1229 16.2678C73.5609 16.2678 73.7682 17.9455 73.7682 19.0403C73.7682 20.135 73.548 21.7674 72.1229 21.7674H55.1318V32.1058H58.7464V25.4273H72.1035C72.8651 25.4511 73.6205 25.2825 74.2998 24.9372C74.9791 24.5919 75.5605 24.081 75.9901 23.4516C76.9401 22.1981 77.4337 20.6578 77.3893 19.0856C77.4277 17.4953 76.9329 15.9378 75.9836 14.6613C75.5533 14.0426 74.9755 13.5409 74.3026 13.2016C73.6296 12.8623 72.8827 12.6961 72.1294 12.718L55.1318 12.6727Z" fill="#01020C"/>
<defs>
<linearGradient id="paint0_linear_479_346" x1="20.6657" y1="0.034668" x2="20.6657" y2="41" gradientUnits="userSpaceOnUse">
<stop stop-color="#78E1FB"/>
<stop offset="1" stop-color="#70FFBD"/>
</linearGradient>
</defs>
</svg>
