<svg width="220" height="220" viewBox="0 0 220 220" fill="none" xmlns="http://www.w3.org/2000/svg">
<rect width="220" height="220" fill="#F2F2F2"/>
<g clip-path="url(#clip0_5381_14322)">
<path d="M91.638 90.3572C91.638 93.6311 90.5682 96.4125 88.4285 98.7015C86.2889 100.991 83.6949 102.138 80.6466 102.143C77.5983 102.148 75.0044 101.001 72.8647 98.7015C70.725 96.402 69.6552 93.6206 69.6552 90.3572C69.6552 87.0939 70.725 84.3125 72.8647 82.013C75.0044 79.7134 77.5983 78.5663 80.6466 78.5715C83.6949 78.5768 86.2889 79.7239 88.4285 82.013C90.5682 84.302 91.638 87.0834 91.638 90.3572ZM150.259 113.929V141.429H69.6552V129.643L87.9742 110L97.1337 119.822L126.444 88.393L150.259 113.929ZM155.755 70.7144H64.1595C63.6612 70.7144 63.2313 70.9082 62.8699 71.2958C62.5084 71.6834 62.3276 72.1444 62.3276 72.6787V147.322C62.3276 147.856 62.5084 148.317 62.8699 148.704C63.2313 149.092 63.6612 149.286 64.1595 149.286H155.755C156.253 149.286 156.683 149.092 157.044 148.704C157.406 148.317 157.587 147.856 157.587 147.322V72.6787C157.587 72.1444 157.406 71.6834 157.044 71.2958C156.683 70.9082 156.253 70.7144 155.755 70.7144ZM164.914 72.6787V147.322C164.914 150.024 164.018 152.337 162.225 154.259C160.432 156.182 158.275 157.143 155.755 157.143H64.1595C61.6388 157.143 59.4821 156.182 57.6892 154.259C55.8964 152.337 55 150.024 55 147.322V72.6787C55 69.9758 55.8964 67.6632 57.6892 65.7408C59.4821 63.8184 61.6388 62.8572 64.1595 62.8572H155.755C158.275 62.8572 160.432 63.8184 162.225 65.7408C164.018 67.6632 164.914 69.9758 164.914 72.6787Z" fill="black" fill-opacity="0.25"/>
</g>
<defs>
<clipPath id="clip0_5381_14322">
<rect width="110" height="110" fill="white" transform="translate(55 55)"/>
</clipPath>
</defs>
</svg>
