<svg xmlns="http://www.w3.org/2000/svg" width="40" height="40" viewBox="0 0 219 40" fill="none">
  <g clip-path="url(#clip0_8683_62477)">
    <path d="M69.5606 33.234C63.7777 33.234 57.6722 29.4534 54.6754 26.711C51.3977 23.7104 42.3941 13.9438 42.3543 13.9002C36.4499 7.31258 28.511 0 20.5911 0C11.0523 0 2.73196 6.60657 0.568359 15.3578C0.733476 14.7808 3.76631 6.76409 15.1499 6.76409C20.9328 6.76409 27.0383 10.5447 30.035 13.2872C33.3127 16.2877 42.3163 26.0543 42.3562 26.0979C48.2605 32.6855 56.1994 39.9981 64.1212 39.9981C73.66 39.9981 81.9785 33.3915 84.144 24.6404C83.9789 25.2173 80.946 33.234 69.5625 33.234H69.5606Z" fill="#29AAE1"/>
    <path d="M42.3534 26.0998C42.3326 26.0752 39.74 23.2644 36.8325 20.1974C35.261 22.063 32.9968 24.6043 30.3948 26.8837C25.5438 31.1349 22.3914 32.027 20.5884 32.027C13.7864 32.027 8.23691 26.6312 8.23691 20C8.23691 13.3688 13.7788 8.01481 20.5884 7.97306C20.8351 7.97306 21.135 7.99773 21.4956 8.06226C19.4497 7.27653 17.2766 6.7641 15.1471 6.7641C3.76737 6.7641 0.73454 14.777 0.567525 15.3578C0.199334 16.8495 0.00195312 18.402 0.00195312 20C0.00195312 31.0287 9.09855 40 20.4423 40C25.1718 40 30.4688 37.5764 35.9234 32.7937C38.5026 30.5333 40.7383 28.1154 42.418 26.172C42.3971 26.1473 42.3743 26.1245 42.3534 26.0998Z" fill="url(#paint0_linear_8683_62477)"/>
    <path d="M42.3536 13.9002C42.3745 13.9248 44.967 16.7356 47.8746 19.8026C49.446 17.937 51.7102 15.3957 54.3122 13.1163C59.1632 8.86506 62.3156 7.97305 64.1186 7.97305C70.9207 7.97305 76.4701 13.3688 76.4701 20C76.4701 26.5933 70.9283 31.9852 64.1186 32.027C63.8719 32.027 63.572 32.0023 63.2114 31.9377C65.2574 32.7235 67.4305 33.2359 69.5599 33.2359C80.9416 33.2359 83.9744 25.223 84.1414 24.6422C84.5096 23.1505 84.707 21.598 84.707 20C84.707 8.97134 75.4623 0 64.1186 0C59.3891 0 54.2401 2.42361 48.7837 7.2063C46.2044 9.46669 43.9687 11.8846 42.2891 13.8281C42.3099 13.8527 42.3327 13.8755 42.3536 13.9002Z" fill="url(#paint1_linear_8683_62477)"/>
    </g>
  <defs>
    <linearGradient id="paint0_linear_8683_62477" x1="31.2622" y1="37.3828" x2="3.40487" y2="8.53484" gradientUnits="userSpaceOnUse">
      <stop offset="0.22" stop-color="#EC1E79"/>
      <stop offset="0.89" stop-color="#522784"/>
    </linearGradient>
    <linearGradient id="paint1_linear_8683_62477" x1="53.4278" y1="2.63428" x2="81.2851" y2="31.4823" gradientUnits="userSpaceOnUse">
      <stop offset="0.21" stop-color="#F05A24"/>
      <stop offset="0.68" stop-color="#FAAF3B"/>
    </linearGradient>
   
  </defs>
</svg>