<svg width="36" height="36" viewBox="0 0 36 36" fill="none" xmlns="http://www.w3.org/2000/svg">
  <circle cx="18" cy="18" r="18" fill="#AAD787" />
  <path
    d="M24.6667 9.66669H16.3334C15.6703 9.66669 15.0344 9.93008 14.5656 10.3989C14.0968 10.8678 13.8334 11.5036 13.8334 12.1667V18C13.8334 18.6631 14.0968 19.2989 14.5656 19.7678C15.0344 20.2366 15.6703 20.5 16.3334 20.5H24.6667C25.3298 20.5 25.9656 20.2366 26.4345 19.7678C26.9033 19.2989 27.1667 18.6631 27.1667 18V12.1667C27.1667 11.5036 26.9033 10.8678 26.4345 10.3989C25.9656 9.93008 25.3298 9.66669 24.6667 9.66669ZM25.5 18C25.5 18.221 25.4122 18.433 25.256 18.5893C25.0997 18.7456 24.8877 18.8334 24.6667 18.8334H16.3334C16.1124 18.8334 15.9004 18.7456 15.7441 18.5893C15.5878 18.433 15.5 18.221 15.5 18V12.1667C15.5 11.9457 15.5878 11.7337 15.7441 11.5774C15.9004 11.4212 16.1124 11.3334 16.3334 11.3334H24.6667C24.8877 11.3334 25.0997 11.4212 25.256 11.5774C25.4122 11.7337 25.5 11.9457 25.5 12.1667V18ZM22.5834 14.6667C22.2749 14.6677 21.9778 14.7836 21.75 14.9917C21.5708 14.8288 21.3482 14.7215 21.1092 14.6828C20.8701 14.644 20.625 14.6756 20.4035 14.7736C20.1821 14.8715 19.9939 15.0317 19.8617 15.2347C19.7296 15.4376 19.6593 15.6745 19.6593 15.9167C19.6593 16.1588 19.7296 16.3958 19.8617 16.5987C19.9939 16.8016 20.1821 16.9618 20.4035 17.0598C20.625 17.1578 20.8701 17.1893 21.1092 17.1506C21.3482 17.1119 21.5708 17.0046 21.75 16.8417C21.9005 16.9785 22.0821 17.0765 22.279 17.1272C22.476 17.1779 22.6823 17.1798 22.8801 17.1327C23.078 17.0856 23.2613 16.991 23.4143 16.857C23.5673 16.7231 23.6853 16.5538 23.758 16.3639C23.8308 16.174 23.8561 15.9692 23.8318 15.7673C23.8075 15.5654 23.7343 15.3725 23.6186 15.2053C23.5029 15.0381 23.3481 14.9016 23.1677 14.8078C22.9873 14.7139 22.7867 14.6655 22.5834 14.6667ZM21.3334 22.1667C21.1124 22.1667 20.9004 22.2545 20.7441 22.4108C20.5878 22.567 20.5 22.779 20.5 23V23.8334C20.5 24.0544 20.4122 24.2663 20.256 24.4226C20.0997 24.5789 19.8877 24.6667 19.6667 24.6667H11.3334C11.1124 24.6667 10.9004 24.5789 10.7441 24.4226C10.5878 24.2663 10.5 24.0544 10.5 23.8334V20.5H11.3334C11.5544 20.5 11.7663 20.4122 11.9226 20.2559C12.0789 20.0997 12.1667 19.8877 12.1667 19.6667C12.1667 19.4457 12.0789 19.2337 11.9226 19.0774C11.7663 18.9212 11.5544 18.8334 11.3334 18.8334H10.5V18C10.5 17.779 10.5878 17.567 10.7441 17.4108C10.9004 17.2545 11.1124 17.1667 11.3334 17.1667C11.5544 17.1667 11.7663 17.0789 11.9226 16.9226C12.0789 16.7663 12.1667 16.5544 12.1667 16.3334C12.1667 16.1123 12.0789 15.9004 11.9226 15.7441C11.7663 15.5878 11.5544 15.5 11.3334 15.5C10.6703 15.5 10.0344 15.7634 9.56561 16.2323C9.09677 16.7011 8.83337 17.337 8.83337 18V23.8334C8.83337 24.4964 9.09677 25.1323 9.56561 25.6011C10.0344 26.07 10.6703 26.3334 11.3334 26.3334H19.6667C20.3297 26.3334 20.9656 26.07 21.4345 25.6011C21.9033 25.1323 22.1667 24.4964 22.1667 23.8334V23C22.1667 22.779 22.0789 22.567 21.9226 22.4108C21.7664 22.2545 21.5544 22.1667 21.3334 22.1667ZM13 23H13.8334C14.0544 23 14.2663 22.9122 14.4226 22.7559C14.5789 22.5997 14.6667 22.3877 14.6667 22.1667C14.6667 21.9457 14.5789 21.7337 14.4226 21.5774C14.2663 21.4212 14.0544 21.3334 13.8334 21.3334H13C12.779 21.3334 12.5671 21.4212 12.4108 21.5774C12.2545 21.7337 12.1667 21.9457 12.1667 22.1667C12.1667 22.3877 12.2545 22.5997 12.4108 22.7559C12.5671 22.9122 12.779 23 13 23Z"
    fill="white" />
</svg>