<svg width="33" height="32" viewBox="0 0 33 32" fill="none" xmlns="http://www.w3.org/2000/svg">
<path d="M25.0769 19.347V7.75726C25.0553 6.78696 24.2899 6.01071 23.3196 6.01071H11.2231C8.61405 6.05384 6.51172 8.18851 6.51172 10.8083C6.51172 11.6924 6.7489 12.4471 7.11546 13.1155C7.41734 13.6653 7.90249 14.1828 8.37686 14.5817C8.50623 14.6895 8.44155 14.6464 8.85123 14.9052C9.42263 15.2502 10.0695 15.4227 10.0695 15.4227V22.355C10.0803 22.6784 10.1234 23.0018 10.1989 23.2929C10.4684 24.2632 11.1476 25.0179 12.064 25.3845C12.4521 25.5354 12.8834 25.6432 13.347 25.6432L23.0069 25.6756C24.9367 25.6756 26.5 24.1123 26.5 22.1825C26.5 21.0073 25.9394 19.9831 25.0769 19.347Z" fill="#FFEEDA"/>
<path d="M25.3038 22.2364C25.2607 23.4762 24.2473 24.4681 23.0074 24.4681L16.3555 24.4465C16.8837 23.832 17.2072 23.0342 17.2072 22.1717C17.2072 20.8025 16.3878 19.8645 16.3878 19.8645H23.0074C24.2796 19.8645 25.3038 20.8995 25.3038 22.1717V22.2364Z" fill="#EBC28E"/>
<path d="M8.99045 13.5792C8.22499 12.8568 7.68593 11.9189 7.68593 10.7976V10.679C7.75062 8.78154 9.31388 7.25061 11.2114 7.18593H23.3078C23.6205 7.19671 23.8792 7.42311 23.8792 7.74655V17.9779C24.1596 18.0318 24.2889 18.0641 24.5585 18.1612C24.7633 18.2366 25.0652 18.4091 25.0652 18.4091V7.74655C25.0436 6.77624 24.2781 6 23.3078 6H11.2114C8.60233 6.04312 6.5 8.17779 6.5 10.7976C6.5 12.3178 7.19 13.6223 8.3328 14.5387C8.40827 14.6034 8.48373 14.6788 8.68858 14.6788C9.04436 14.6788 9.29232 14.3985 9.28154 14.0859C9.27076 13.8271 9.16295 13.7301 8.99045 13.5792Z" fill="#190602"/>
<path d="M23.0049 18.6678H13.5175C12.8814 18.6678 12.3639 19.1961 12.3639 19.8322V21.1906C12.3855 21.8159 12.9245 22.3658 13.5498 22.3658H14.2506V21.1906H13.5498V19.8537C13.5498 19.8537 13.7223 19.8537 13.938 19.8537C15.1347 19.8537 16.0187 20.9642 16.0187 22.1609C16.0187 23.2175 15.0592 24.5651 13.4528 24.4573C12.0189 24.3603 11.2534 23.0881 11.2534 22.1609V10.5927C11.2534 10.0752 10.833 9.64398 10.3047 9.64398H9.35596V10.8299H10.0567V22.1609C10.0244 24.4681 11.6955 25.6325 13.442 25.6325L23.0049 25.6648C24.9347 25.6648 26.498 24.1015 26.498 22.1717C26.498 20.2419 24.9347 18.6678 23.0049 18.6678ZM25.3013 22.2364C25.2582 23.4762 24.2447 24.4681 23.0049 24.4681L16.3529 24.4465C16.8812 23.832 17.2046 23.0342 17.2046 22.1717C17.2046 20.8025 16.3853 19.8645 16.3853 19.8645H23.0049C24.2771 19.8645 25.3013 20.8995 25.3013 22.1717V22.2364Z" fill="#190602"/>
<path d="M20.5256 11.0348H13.3022V9.85968H20.5256C20.8167 9.85968 21.0431 10.0969 21.0431 10.3772V10.5173C21.0431 10.8084 20.8059 11.0348 20.5256 11.0348Z" fill="#190602"/>
<path d="M20.5256 16.6087H13.3022V15.4335H20.5256C20.8167 15.4335 21.0431 15.6707 21.0431 15.951V16.0912C21.0431 16.3715 20.8059 16.6087 20.5256 16.6087Z" fill="#190602"/>
<path d="M21.7773 13.8271H13.2925V12.652H21.7773C22.0683 12.652 22.2948 12.8892 22.2948 13.1695V13.3096C22.3055 13.59 22.0683 13.8271 21.7773 13.8271Z" fill="#190602"/>
<rect x="0.65" y="0.15" width="31.7" height="31.7" rx="15.85" stroke="black" stroke-width="0.3"/>
</svg>
