<svg width="14" height="14" viewBox="0 0 14 14" fill="none" xmlns="http://www.w3.org/2000/svg">
<path d="M11.8125 2.625H2.1875C1.94588 2.625 1.75 2.82088 1.75 3.0625C1.75 3.30412 1.94588 3.5 2.1875 3.5H11.8125C12.0541 3.5 12.25 3.30412 12.25 3.0625C12.25 2.82088 12.0541 2.625 11.8125 2.625Z" fill="#515758"/>
<path d="M5.25 5.6875V9.1875C5.25 9.42912 5.44588 9.625 5.6875 9.625C5.92912 9.625 6.125 9.42912 6.125 9.1875V5.6875C6.125 5.44588 5.92912 5.25 5.6875 5.25C5.44588 5.25 5.25 5.44588 5.25 5.6875Z" fill="#515758"/>
<path d="M7.875 5.6875V9.1875C7.875 9.42912 8.07088 9.625 8.3125 9.625C8.55412 9.625 8.75 9.42912 8.75 9.1875V5.6875C8.75 5.44588 8.55412 5.25 8.3125 5.25C8.07088 5.25 7.875 5.44588 7.875 5.6875Z" fill="#515758"/>
<path d="M3.5 11.375V3.0625C3.5 2.82088 3.30412 2.625 3.0625 2.625C2.82088 2.625 2.625 2.82088 2.625 3.0625V11.375C2.625 11.7374 2.88128 11.9937 2.88128 11.9937C3.13756 12.25 3.5 12.25 3.5 12.25H10.5C10.8624 12.25 11.1187 11.9937 11.1187 11.9937C11.375 11.7374 11.375 11.375 11.375 11.375V3.0625C11.375 2.82088 11.1791 2.625 10.9375 2.625C10.6959 2.625 10.5 2.82088 10.5 3.0625V11.375H3.5Z" fill="#515758"/>
<path d="M4.75942 1.25942C4.375 1.64384 4.375 2.1875 4.375 2.1875V3.0625C4.375 3.30412 4.57088 3.5 4.8125 3.5C5.05412 3.5 5.25 3.30412 5.25 3.0625V2.1875C5.25 2.00628 5.37814 1.87814 5.37814 1.87814C5.50628 1.75 5.6875 1.75 5.6875 1.75H8.3125C8.49372 1.75 8.62186 1.87814 8.62186 1.87814C8.75 2.00628 8.75 2.1875 8.75 2.1875V3.0625C8.75 3.30412 8.94588 3.5 9.1875 3.5C9.42912 3.5 9.625 3.30412 9.625 3.0625V2.1875C9.625 1.64385 9.24058 1.25942 9.24058 1.25942C8.85616 0.875 8.3125 0.875 8.3125 0.875H5.6875C5.14384 0.875 4.75942 1.25942 4.75942 1.25942Z" fill="#515758"/>
</svg>
