<svg width="24" height="24" viewBox="0 0 24 24" fill="none" xmlns="http://www.w3.org/2000/svg">
<rect x="0.15" y="0.15" width="23.7" height="23.7" rx="11.85" fill="white"/>
<rect x="0.15" y="0.15" width="23.7" height="23.7" rx="11.85" stroke="black" stroke-width="0.3"/>
<path d="M18.4329 14.5103V5.81797C18.4167 5.09024 17.8426 4.50806 17.1149 4.50806H8.04256C6.08578 4.5404 4.50903 6.1414 4.50903 8.10627C4.50903 8.76931 4.68692 9.33532 4.96184 9.83665C5.18825 10.249 5.55211 10.6371 5.90789 10.9363C6.00492 11.0172 5.9564 10.9848 6.26367 11.1789C6.69222 11.4376 7.17737 11.567 7.17737 11.567V16.7662C7.18546 17.0088 7.2178 17.2514 7.2744 17.4697C7.47655 18.1974 7.98596 18.7635 8.67326 19.0384C8.96435 19.1516 9.28779 19.2324 9.63548 19.2324L16.8804 19.2567C18.3278 19.2567 19.5002 18.0842 19.5002 16.6369C19.5002 15.7555 19.0798 14.9873 18.4329 14.5103Z" fill="#FFEEDA"/>
<path d="M18.6029 16.6773C18.5705 17.6071 17.8105 18.351 16.8806 18.351L11.8916 18.3349C12.2878 17.874 12.5304 17.2756 12.5304 16.6288C12.5304 15.6018 11.9159 14.8984 11.9159 14.8984H16.8806C17.8347 14.8984 18.6029 15.6746 18.6029 16.6288V16.6773Z" fill="#EBC28E"/>
<path d="M6.36784 10.1844C5.79374 9.64262 5.38945 8.93914 5.38945 8.09821V8.00927C5.43796 6.58616 6.61041 5.43796 8.03353 5.38945H17.1059C17.3404 5.39753 17.5344 5.56734 17.5344 5.80991V13.4834C17.7447 13.5238 17.8417 13.5481 18.0438 13.6209C18.1975 13.6775 18.4239 13.8068 18.4239 13.8068V5.80991C18.4077 5.08218 17.8336 4.5 17.1059 4.5H8.03353C6.07675 4.53234 4.5 6.13335 4.5 8.09821C4.5 9.23832 5.0175 10.2167 5.8746 10.904C5.9312 10.9525 5.9878 11.0091 6.14143 11.0091C6.40827 11.0091 6.59424 10.7989 6.58616 10.5644C6.57807 10.3703 6.49721 10.2976 6.36784 10.1844Z" fill="#190602"/>
<path d="M16.8786 14.0008H9.76299C9.28593 14.0008 8.8978 14.3971 8.8978 14.8741V15.8929C8.91398 16.3619 9.31827 16.7743 9.78725 16.7743H10.3128V15.8929H9.78725V14.8903C9.78725 14.8903 9.91662 14.8903 10.0783 14.8903C10.9759 14.8903 11.6389 15.7231 11.6389 16.6207C11.6389 17.4131 10.9193 18.4238 9.71448 18.343C8.63906 18.2702 8.06496 17.3161 8.06496 16.6207V7.94453C8.06496 7.55641 7.74961 7.23297 7.3534 7.23297H6.64185V8.12242H7.16743V16.6207C7.14317 18.351 8.39648 19.2243 9.70639 19.2243L16.8786 19.2486C18.3259 19.2486 19.4984 18.0761 19.4984 16.6288C19.4984 15.1814 18.3259 14.0008 16.8786 14.0008ZM18.6009 16.6773C18.5685 17.6071 17.8084 18.351 16.8786 18.351L11.8896 18.3349C12.2858 17.874 12.5284 17.2756 12.5284 16.6288C12.5284 15.6019 11.9138 14.8984 11.9138 14.8984H16.8786C17.8327 14.8984 18.6009 15.6746 18.6009 16.6288V16.6773Z" fill="#190602"/>
<path d="M15.0191 8.27614H9.60156V7.39478H15.0191C15.2374 7.39478 15.4072 7.57266 15.4072 7.7829V7.88801C15.4072 8.10633 15.2293 8.27614 15.0191 8.27614Z" fill="#190602"/>
<path d="M15.0191 12.4565H9.60156V11.5751H15.0191C15.2374 11.5751 15.4072 11.753 15.4072 11.9633V12.0684C15.4072 12.2786 15.2293 12.4565 15.0191 12.4565Z" fill="#190602"/>
<path d="M15.9578 10.3704H9.59424V9.48901H15.9578C16.1761 9.48901 16.3459 9.6669 16.3459 9.87714V9.98225C16.354 10.1925 16.1761 10.3704 15.9578 10.3704Z" fill="#190602"/>
</svg>
