<svg xmlns="http://www.w3.org/2000/svg" xmlns:xlink="http://www.w3.org/1999/xlink" fill="none" version="1.1" width="402"
  height="92" viewBox="0 0 402 92">
  <defs>
    <clipPath id="master_svg0_0_127463">
      <path
        d="M1 7C1.0000000000000004 3.686291501015239 3.6862915010152397 1 7 1L395 1C398.31370849898474 1 401 3.6862915010152397 401 7L401 91C401 91 401 91 401 91L1 91C1 91 1 91 1 91Z" />
      <path
        d="M2.05025,2.05025Q0,4.1005,0,7L0,92L402,92L402,7Q402,4.10056,399.95,2.05025Q397.9,0,395,0L7,0Q4.10051,0,2.05025,2.05025ZM7,1C3.68629,1,1,3.68629,1,7L1,91L401,91L401,7C401,3.68629,398.314,1,395,1L7,1Z"
        fill-rule="evenodd" />
    </clipPath>
  </defs>
  <g clip-path="url(#master_svg0_0_127463)">
    <path
      d="M1 7C1.0000000000000004 3.686291501015239 3.6862915010152397 1 7 1L395 1C398.31370849898474 1 401 3.6862915010152397 401 7L401 91C401 91 401 91 401 91L1 91C1 91 1 91 1 91Z"
      fill="#E8FFFF" fill-opacity="1" />
    <g
      transform="matrix(0.9659258127212524,-0.258819043636322,0.29805052280426025,0.9545500874519348,1.063346772597015,71.68518972107108)">
      <g
        transform="matrix(0.9998384714126587,-0.017973151057958603,-0.017408492043614388,0.9998484253883362,1.4371779433388383,6.058842489249685)">
        <rect x="336.43528747558594" y="79.43445205688477" width="63.12461853027344" height="61.84758377075195" rx="0"
          fill="#34DBFF" fill-opacity="1" />
        <rect x="336.93528747558594" y="79.93445205688477" width="62.12461853027344" height="60.84758377075195" rx="0"
          fill-opacity="0" stroke-opacity="1" stroke="#000000" fill="none" stroke-width="1" />
      </g>
      <g
        transform="matrix(0.9998384714126587,-0.017973151057958603,-0.017408492043614388,0.9998484253883362,1.5494857135105349,4.921356180462141)">
        <path
          d="M305.3913391265869,86.47355651855469C305.3913391265869,86.47355651855469,337.6948391265869,141.2930565185547,337.6948391265869,141.2930565185547C337.6948391265869,141.2930565185547,273.0878391265869,141.2930565185547,273.0878391265869,141.2930565185547C273.0878391265869,141.2930565185547,305.3913391265869,86.47355651855469,305.3913391265869,86.47355651855469C305.3913391265869,86.47355651855469,305.3913391265869,86.47355651855469,305.3913391265869,86.47355651855469Z"
          fill="#141B1D" fill-opacity="1" />
      </g>
      <g
        transform="matrix(0.9085716009140015,0.4177291691303253,-0.4439854621887207,0.8960340023040771,43.696539324265245,-140.90924210927952)">
        <path
          d="M377.9787697998047,61.72653088204263C396.6468697998047,61.72653088204263,411.78026979980467,46.42233088204263,411.78026979980467,27.543630882042635C411.78026979980467,27.543630882042635,344.1771697998047,27.543630882042635,344.1771697998047,27.543630882042635C344.1771697998047,46.42233088204263,359.3106697998047,61.72653088204263,377.9787697998047,61.72653088204263C377.9787697998047,61.72653088204263,377.9787697998047,61.72653088204263,377.9787697998047,61.72653088204263Z"
          fill="#FFFFFF" fill-opacity="1" />
        <path
          d="M411.78026979980467,27.543630882042635L344.1771697998047,27.543630882042635C344.1771697998047,27.878107882042634,344.1819201798047,28.211462882042635,344.1913563998047,28.543630882042635C344.7145247998047,46.95983088204264,359.6413697998047,61.72653088204263,377.9787697998047,61.72653088204263C396.3161697998047,61.72653088204263,411.24296979980465,46.95983088204264,411.76606979980465,28.543630882042635C411.77556979980466,28.211462882042635,411.78026979980467,27.878107882042634,411.78026979980467,27.543630882042635ZM377.9787697998047,60.72653088204263Q384.65076979980466,60.72653088204263,390.7425697998047,58.12083088204264Q396.6284697998047,55.60323088204264,401.1689697998047,51.01143088204263Q405.7106697998047,46.41853088204263,408.20146979980467,40.463330882042634Q410.5887697998047,34.755400882042636,410.76606979980465,28.543630882042635L345.1913997998047,28.543630882042635Q345.36870979980466,34.75538088204264,347.7560297998047,40.463330882042634Q350.24676979980467,46.41853088204263,354.7884697998047,51.01143088204263Q359.3290697998047,55.60323088204264,365.2149697998047,58.12083088204264Q371.30676979980467,60.72653088204263,377.9787697998047,60.72653088204263Z"
          fill-rule="evenodd" fill="#000000" fill-opacity="1" />
      </g>
      <g
        transform="matrix(0.9998384714126587,-0.017973151057958603,-0.017408492043614388,0.9998484253883362,0.6457296737922888,5.15128060845711)">
        <ellipse cx="312.1430540084839" cy="59.7374062538147" rx="25.823701858520508" ry="25.301286697387695"
          fill="#43FFA8" fill-opacity="1" />
        <ellipse cx="312.1430540084839" cy="59.7374062538147" rx="25.323701858520508" ry="24.801286697387695"
          fill-opacity="0" stroke-opacity="1" stroke="#000000" fill="none" stroke-width="1" />
      </g>
    </g>
    <path
      d="M2.05025,2.05025Q0,4.1005,0,7L0,92L402,92L402,7Q402,4.10056,399.95,2.05025Q397.9,0,395,0L7,0Q4.10051,0,2.05025,2.05025ZM7,1C3.68629,1,1,3.68629,1,7L1,91L401,91L401,7C401,3.68629,398.314,1,395,1L7,1Z"
      fill-rule="evenodd" fill-opacity="0" stroke-opacity="1" stroke="#" fill="none" stroke-width="1" />
  </g>
</svg>