<svg xmlns="http://www.w3.org/2000/svg" xmlns:xlink="http://www.w3.org/1999/xlink" fill="none" version="1.1" width="16" height="16" viewBox="0 0 16 16"><defs><clipPath id="master_svg0_0_91179"><rect x="0" y="0" width="16" height="16" rx="0"/></clipPath></defs><g clip-path="url(#master_svg0_0_91179)"><g><path d="M7.9995696587181095,1.6669925451278687C7.9995696587181095,1.6669925451278687,8.44743965871811,1.4447105451278688,8.44743965871811,1.4447105451278688C8.36280965871811,1.2741765451278686,8.188669658718108,1.1665052041278687,7.998289658718109,1.1669942037578687C7.807899658718109,1.1674832041278687,7.634319658718109,1.2760475451278686,7.550559658718109,1.4470145451278686C7.550559658718109,1.4470145451278686,7.9995696587181095,1.6669925451278687,7.9995696587181095,1.6669925451278687C7.9995696587181095,1.6669925451278687,7.9995696587181095,1.6669925451278687,7.9995696587181095,1.6669925451278687ZM5.961899658718109,5.826192545127869C5.961899658718109,5.826192545127869,6.0336596587181095,6.321022545127868,6.0336596587181095,6.321022545127868C6.197079658718109,6.2973225451278685,6.338259658718109,6.194462545127869,6.410909658718109,6.0461725451278685C6.410909658718109,6.0461725451278685,5.961899658718109,5.826192545127869,5.961899658718109,5.826192545127869C5.961899658718109,5.826192545127869,5.961899658718109,5.826192545127869,5.961899658718109,5.826192545127869ZM1.333373658718109,6.497362545127869C1.333373658718109,6.497362545127869,1.261621658718109,6.002532545127869,1.261621658718109,6.002532545127869C1.0733746587181092,6.029832545127869,0.9169230587181091,6.161572545127869,0.8579830587181091,6.342432545127869C0.7990430587181091,6.523282545127869,0.8478260587181091,6.721912545127869,0.9838396587181091,6.854882545127869C0.9838396587181091,6.854882545127869,1.333373658718109,6.497362545127869,1.333373658718109,6.497362545127869C1.333373658718109,6.497362545127869,1.333373658718109,6.497362545127869,1.333373658718109,6.497362545127869ZM4.68633965871811,9.77536254512787C4.68633965871811,9.77536254512787,5.178779658718109,9.861942545127869,5.178779658718109,9.861942545127869C5.207359658718109,9.69939254512787,5.153889658718109,9.533212545127869,5.035869658718109,9.417832545127869C5.035869658718109,9.417832545127869,4.68633965871811,9.77536254512787,4.68633965871811,9.77536254512787C4.68633965871811,9.77536254512787,4.68633965871811,9.77536254512787,4.68633965871811,9.77536254512787ZM3.8848396587181093,14.33369254512787C3.8848396587181093,14.33369254512787,3.392389658718109,14.247092545127868,3.392389658718109,14.247092545127868C3.3592796587181093,14.435392545127868,3.436469658718109,14.626092545127868,3.591259658718109,14.73839254512787C3.746049658718109,14.850692545127869,3.951319658718109,14.86479254512787,4.120049658718109,14.77489254512787C4.120049658718109,14.77489254512787,3.8848396587181093,14.33369254512787,3.8848396587181093,14.33369254512787C3.8848396587181093,14.33369254512787,3.8848396587181093,14.33369254512787,3.8848396587181093,14.33369254512787ZM7.9995696587181095,12.14009254512787C7.9995696587181095,12.14009254512787,8.234749658718108,11.69879254512787,8.234749658718108,11.69879254512787C8.08773965871811,11.620492545127869,7.911359658718109,11.620492545127869,7.76434965871811,11.69879254512787C7.76434965871811,11.69879254512787,7.9995696587181095,12.14009254512787,7.9995696587181095,12.14009254512787C7.9995696587181095,12.14009254512787,7.9995696587181095,12.14009254512787,7.9995696587181095,12.14009254512787ZM12.11515965871811,14.33369254512787C12.11515965871811,14.33369254512787,11.879959658718109,14.77489254512787,11.879959658718109,14.77489254512787C12.048659658718108,14.86479254512787,12.25375965871811,14.850692545127869,12.40845965871811,14.738592545127869C12.56325965871811,14.626492545127869,12.640559658718109,14.435892545127869,12.607759658718109,14.247692545127869C12.607759658718109,14.247692545127869,12.11515965871811,14.33369254512787,12.11515965871811,14.33369254512787C12.11515965871811,14.33369254512787,12.11515965871811,14.33369254512787,12.11515965871811,14.33369254512787ZM11.31955965871811,9.77536254512787C11.31955965871811,9.77536254512787,10.96975965871811,9.418132545127868,10.96975965871811,9.418132545127868C10.85205965871811,9.533352545127869,10.798699658718109,9.69911254512787,10.82701965871811,9.861332545127869C10.82701965871811,9.861332545127869,11.31955965871811,9.77536254512787,11.31955965871811,9.77536254512787C11.31955965871811,9.77536254512787,11.31955965871811,9.77536254512787,11.31955965871811,9.77536254512787ZM14.666659658718109,6.497362545127869C14.666659658718109,6.497362545127869,15.016559658718108,6.854582545127869,15.016559658718108,6.854582545127869C15.15235965871811,6.721592545127868,15.200959658718109,6.523122545127869,15.142059658718109,6.342412545127869C15.08315965871811,6.161702545127869,14.92695965871811,6.030012545127868,14.738859658718109,6.002592545127869C14.738859658718109,6.002592545127869,14.666659658718109,6.497362545127869,14.666659658718109,6.497362545127869C14.666659658718109,6.497362545127869,14.666659658718109,6.497362545127869,14.666659658718109,6.497362545127869ZM10.063799658718109,5.826192545127869C10.063799658718109,5.826192545127869,9.615929658718109,6.0484725451278685,9.615929658718109,6.0484725451278685C9.68886965871811,6.195452545127869,9.829289658718109,6.297282545127868,9.99165965871811,6.320962545127869C9.99165965871811,6.320962545127869,10.063799658718109,5.826192545127869,10.063799658718109,5.826192545127869C10.063799658718109,5.826192545127869,10.063799658718109,5.826192545127869,10.063799658718109,5.826192545127869ZM7.550559658718109,1.4470145451278686C7.550559658718109,1.4470145451278686,5.512889658718109,5.606212545127868,5.512889658718109,5.606212545127868C5.512889658718109,5.606212545127868,6.410909658718109,6.0461725451278685,6.410909658718109,6.0461725451278685C6.410909658718109,6.0461725451278685,8.44857965871811,1.8869705451278687,8.44857965871811,1.8869705451278687C8.44857965871811,1.8869705451278687,7.550559658718109,1.4470145451278686,7.550559658718109,1.4470145451278686C7.550559658718109,1.4470145451278686,7.550559658718109,1.4470145451278686,7.550559658718109,1.4470145451278686ZM5.8901496587181095,5.331372545127869C5.8901496587181095,5.331372545127869,1.261621658718109,6.002532545127869,1.261621658718109,6.002532545127869C1.261621658718109,6.002532545127869,1.405126658718109,6.992182545127869,1.405126658718109,6.992182545127869C1.405126658718109,6.992182545127869,6.0336596587181095,6.321022545127868,6.0336596587181095,6.321022545127868C6.0336596587181095,6.321022545127868,5.8901496587181095,5.331372545127869,5.8901496587181095,5.331372545127869C5.8901496587181095,5.331372545127869,5.8901496587181095,5.331372545127869,5.8901496587181095,5.331372545127869ZM0.9838396587181091,6.854882545127869C0.9838396587181091,6.854882545127869,4.336799658718109,10.132882545127869,4.336799658718109,10.132882545127869C4.336799658718109,10.132882545127869,5.035869658718109,9.417832545127869,5.035869658718109,9.417832545127869C5.035869658718109,9.417832545127869,1.682907658718109,6.139832545127868,1.682907658718109,6.139832545127868C1.682907658718109,6.139832545127868,0.9838396587181091,6.854882545127869,0.9838396587181091,6.854882545127869C0.9838396587181091,6.854882545127869,0.9838396587181091,6.854882545127869,0.9838396587181091,6.854882545127869ZM4.193889658718109,9.688772545127868C4.193889658718109,9.688772545127868,3.392389658718109,14.247092545127868,3.392389658718109,14.247092545127868C3.392389658718109,14.247092545127868,4.377279658718109,14.420292545127868,4.377279658718109,14.420292545127868C4.377279658718109,14.420292545127868,5.178779658718109,9.861942545127869,5.178779658718109,9.861942545127869C5.178779658718109,9.861942545127869,4.193889658718109,9.688772545127868,4.193889658718109,9.688772545127868C4.193889658718109,9.688772545127868,4.193889658718109,9.688772545127868,4.193889658718109,9.688772545127868ZM4.120049658718109,14.77489254512787C4.120049658718109,14.77489254512787,8.23478965871811,12.58129254512787,8.23478965871811,12.58129254512787C8.23478965871811,12.58129254512787,7.76434965871811,11.69879254512787,7.76434965871811,11.69879254512787C7.76434965871811,11.69879254512787,3.6496196587181093,13.89239254512787,3.6496196587181093,13.89239254512787C3.6496196587181093,13.89239254512787,4.120049658718109,14.77489254512787,4.120049658718109,14.77489254512787C4.120049658718109,14.77489254512787,4.120049658718109,14.77489254512787,4.120049658718109,14.77489254512787ZM7.764389658718109,12.58129254512787C7.764389658718109,12.58129254512787,11.879959658718109,14.77489254512787,11.879959658718109,14.77489254512787C11.879959658718109,14.77489254512787,12.350359658718109,13.89239254512787,12.350359658718109,13.89239254512787C12.350359658718109,13.89239254512787,8.234749658718108,11.69879254512787,8.234749658718108,11.69879254512787C8.234749658718108,11.69879254512787,7.764389658718109,12.58129254512787,7.764389658718109,12.58129254512787C7.764389658718109,12.58129254512787,7.764389658718109,12.58129254512787,7.764389658718109,12.58129254512787ZM12.607759658718109,14.247692545127869C12.607759658718109,14.247692545127869,11.812159658718109,9.689392545127868,11.812159658718109,9.689392545127868C11.812159658718109,9.689392545127868,10.82701965871811,9.861332545127869,10.82701965871811,9.861332545127869C10.82701965871811,9.861332545127869,11.622559658718108,14.419592545127868,11.622559658718108,14.419592545127868C11.622559658718108,14.419592545127868,12.607759658718109,14.247692545127869,12.607759658718109,14.247692545127869C12.607759658718109,14.247692545127869,12.607759658718109,14.247692545127869,12.607759658718109,14.247692545127869ZM11.66935965871811,10.13258254512787C11.66935965871811,10.13258254512787,15.016559658718108,6.854582545127869,15.016559658718108,6.854582545127869C15.016559658718108,6.854582545127869,14.316859658718109,6.1401325451278685,14.316859658718109,6.1401325451278685C14.316859658718109,6.1401325451278685,10.96975965871811,9.418132545127868,10.96975965871811,9.418132545127868C10.96975965871811,9.418132545127868,11.66935965871811,10.13258254512787,11.66935965871811,10.13258254512787C11.66935965871811,10.13258254512787,11.66935965871811,10.13258254512787,11.66935965871811,10.13258254512787ZM14.738859658718109,6.002592545127869C14.738859658718109,6.002592545127869,10.13594965871811,5.331422545127869,10.13594965871811,5.331422545127869C10.13594965871811,5.331422545127869,9.99165965871811,6.320962545127869,9.99165965871811,6.320962545127869C9.99165965871811,6.320962545127869,14.59455965871811,6.992122545127868,14.59455965871811,6.992122545127868C14.59455965871811,6.992122545127868,14.738859658718109,6.002592545127869,14.738859658718109,6.002592545127869C14.738859658718109,6.002592545127869,14.738859658718109,6.002592545127869,14.738859658718109,6.002592545127869ZM10.511679658718108,5.603912545127868C10.511679658718108,5.603912545127868,8.44743965871811,1.4447105451278688,8.44743965871811,1.4447105451278688C8.44743965871811,1.4447105451278688,7.5516996587181096,1.8892745451278685,7.5516996587181096,1.8892745451278685C7.5516996587181096,1.8892745451278685,9.615929658718109,6.0484725451278685,9.615929658718109,6.0484725451278685C9.615929658718109,6.0484725451278685,10.511679658718108,5.603912545127868,10.511679658718108,5.603912545127868C10.511679658718108,5.603912545127868,10.511679658718108,5.603912545127868,10.511679658718108,5.603912545127868Z" fill="#6F6F6F" fill-opacity="1"/></g></g></svg>