<svg xmlns="http://www.w3.org/2000/svg" xmlns:xlink="http://www.w3.org/1999/xlink" fill="none" version="1.1" width="24" height="24" viewBox="0 0 24 24"><defs><clipPath id="master_svg0_0_92531"><rect x="0" y="0" width="24" height="24" rx="0"/></clipPath></defs><g clip-path="url(#master_svg0_0_92531)"><g><path d="M11.5,4C11.5,3.723858,11.27614,3.5,11,3.5C10.72386,3.5,10.5,3.723858,10.5,4C10.5,4,11.5,4,11.5,4C11.5,4,11.5,4,11.5,4ZM2.5,4C2.5,3.723858,2.276142,3.5,2,3.5C1.723858,3.5,1.5,3.723858,1.5,4C1.5,4,2.5,4,2.5,4C2.5,4,2.5,4,2.5,4ZM10.5,4C10.5,4,10.5,10,10.5,10C10.5,10,11.5,10,11.5,10C11.5,10,11.5,4,11.5,4C11.5,4,10.5,4,10.5,4C10.5,4,10.5,4,10.5,4ZM10.5,10C10.5,10.11345,10.45035,10.259170000000001,10.28417,10.43379C10.11554,10.610990000000001,9.8479,10.79331,9.478919999999999,10.9573C8.74222,11.28473,7.68944,11.5,6.5,11.5C6.5,11.5,6.5,12.5,6.5,12.5C7.79586,12.5,8.993079999999999,12.26755,9.88506,11.87111C10.33042,11.67317,10.72178,11.42453,11.00857,11.12317C11.29781,10.81924,11.5,10.43883,11.5,10C11.5,10,10.5,10,10.5,10C10.5,10,10.5,10,10.5,10ZM6.5,11.5C5.31057,11.5,4.25779,11.28473,3.52109,10.9573C3.15211,10.79331,2.88446,10.610990000000001,2.71583,10.43379C2.5496499999999997,10.259170000000001,2.5,10.11344,2.5,10C2.5,10,1.5,10,1.5,10C1.5,10.43883,1.702192,10.81924,1.991436,11.12318C2.2782270000000002,11.42453,2.66959,11.67317,3.1149500000000003,11.87111C4.0069300000000005,12.26755,5.20415,12.5,6.5,12.5C6.5,12.5,6.5,11.5,6.5,11.5C6.5,11.5,6.5,11.5,6.5,11.5ZM2.5,10C2.5,10,2.5,4,2.5,4C2.5,4,1.5,4,1.5,4C1.5,4,1.5,10,1.5,10C1.5,10,2.5,10,2.5,10C2.5,10,2.5,10,2.5,10Z" fill="#161616" fill-opacity="1"/></g><g><path d="M11.5,7C11.5,6.723858,11.27614,6.5,11,6.5C10.72386,6.5,10.5,6.723858,10.5,7C10.5,7,11.5,7,11.5,7C11.5,7,11.5,7,11.5,7ZM2.5,7C2.5,6.723858,2.276142,6.5,2,6.5C1.723858,6.5,1.5,6.723858,1.5,7C1.5,7,2.5,7,2.5,7C2.5,7,2.5,7,2.5,7ZM10.5,7C10.5,7.113446,10.45035,7.25917,10.28417,7.43379C10.11554,7.61099,9.8479,7.79331,9.478919999999999,7.9573C8.74222,8.28473,7.68944,8.5,6.5,8.5C6.5,8.5,6.5,9.5,6.5,9.5C7.79586,9.5,8.993079999999999,9.26755,9.88506,8.87111C10.33042,8.673169999999999,10.72178,8.42453,11.00857,8.12317C11.29781,7.81924,11.5,7.438829,11.5,7C11.5,7,10.5,7,10.5,7C10.5,7,10.5,7,10.5,7ZM6.5,8.5C5.31057,8.5,4.25779,8.28473,3.52109,7.9573C3.15211,7.79331,2.88446,7.61099,2.71583,7.433789C2.5496499999999997,7.259168,2.5,7.113444,2.5,7C2.5,7,1.5,7,1.5,7C1.5,7.438831,1.702192,7.81924,1.991436,8.12318C2.2782270000000002,8.42453,2.66959,8.673169999999999,3.1149500000000003,8.87111C4.0069300000000005,9.26755,5.20415,9.5,6.5,9.5C6.5,9.5,6.5,8.5,6.5,8.5C6.5,8.5,6.5,8.5,6.5,8.5Z" fill="#161616" fill-opacity="1"/></g><g><path d="M10.5,4C10.5,4.11345,10.45035,4.25917,10.28417,4.43379C10.11554,4.61099,9.8479,4.79331,9.478919999999999,4.9573C8.74222,5.28473,7.68944,5.5,6.5,5.5C6.5,5.5,6.5,6.5,6.5,6.5C7.79586,6.5,8.993079999999999,6.26755,9.88506,5.87111C10.33042,5.67317,10.72178,5.42453,11.00857,5.12317C11.29781,4.819240000000001,11.5,4.438829999999999,11.5,4C11.5,4,10.5,4,10.5,4C10.5,4,10.5,4,10.5,4ZM6.5,5.5C5.31057,5.5,4.25779,5.28473,3.52109,4.9573C3.15211,4.79331,2.88446,4.61099,2.71583,4.43379C2.5496499999999997,4.25917,2.5,4.113440000000001,2.5,4C2.5,4,1.5,4,1.5,4C1.5,4.438829999999999,1.702192,4.819240000000001,1.991436,5.12318C2.2782270000000002,5.42453,2.66959,5.67317,3.1149500000000003,5.87111C4.0069300000000005,6.26755,5.20415,6.5,6.5,6.5C6.5,6.5,6.5,5.5,6.5,5.5C6.5,5.5,6.5,5.5,6.5,5.5ZM2.5,4C2.5,3.88655,2.5496499999999997,3.74082,2.71583,3.5662C2.88446,3.38901,3.15211,3.20668,3.52109,3.04269C4.25779,2.7152700000000003,5.31057,2.5,6.5,2.5C6.5,2.5,6.5,1.5,6.5,1.5C5.20415,1.5,4.0069300000000005,1.732445,3.1149500000000003,2.12888C2.66959,2.3268180000000003,2.2782270000000002,2.57546,1.991435,2.87682C1.70219,3.1807499999999997,1.5,3.56117,1.5,4C1.5,4,2.5,4,2.5,4C2.5,4,2.5,4,2.5,4ZM6.5,2.5C7.68944,2.5,8.74222,2.7152700000000003,9.478919999999999,3.04269C9.8479,3.20668,10.11554,3.3890000000000002,10.28417,3.5662C10.45035,3.74082,10.5,3.88655,10.5,4C10.5,4,11.5,4,11.5,4C11.5,3.56117,11.29781,3.1807499999999997,11.00857,2.87682C10.72178,2.57546,10.33042,2.3268180000000003,9.88506,2.128881C8.993079999999999,1.732445,7.79586,1.5,6.5,1.5C6.5,1.5,6.5,2.5,6.5,2.5C6.5,2.5,6.5,2.5,6.5,2.5Z" fill="#161616" fill-opacity="1"/></g><g><path d="M22.5,14C22.5,13.723858,22.276139999999998,13.5,22,13.5C21.723860000000002,13.5,21.5,13.723858,21.5,14C21.5,14,22.5,14,22.5,14C22.5,14,22.5,14,22.5,14ZM13.5,14C13.5,13.723858,13.276142,13.5,13,13.5C12.723858,13.5,12.5,13.723858,12.5,14C12.5,14,13.5,14,13.5,14C13.5,14,13.5,14,13.5,14ZM21.5,14C21.5,14,21.5,20,21.5,20C21.5,20,22.5,20,22.5,20C22.5,20,22.5,14,22.5,14C22.5,14,21.5,14,21.5,14C21.5,14,21.5,14,21.5,14ZM21.5,20C21.5,20.11345,21.45035,20.25917,21.28417,20.433790000000002C21.11554,20.61099,20.8479,20.793309999999998,20.47892,20.9573C19.74222,21.28473,18.68944,21.5,17.5,21.5C17.5,21.5,17.5,22.5,17.5,22.5C18.79586,22.5,19.99308,22.26755,20.88506,21.87111C21.33042,21.67317,21.721780000000003,21.42453,22.00857,21.123170000000002C22.29781,20.81924,22.5,20.43883,22.5,20C22.5,20,21.5,20,21.5,20C21.5,20,21.5,20,21.5,20ZM17.5,21.5C16.31056,21.5,15.25778,21.28473,14.52108,20.9573C14.1521,20.793309999999998,13.88446,20.61099,13.71583,20.433790000000002C13.54965,20.25917,13.5,20.11345,13.5,20C13.5,20,12.5,20,12.5,20C12.5,20.43883,12.70219,20.81924,12.991432,21.123170000000002C13.278222,21.42453,13.66958,21.67317,14.11494,21.87111C15.006920000000001,22.26755,16.20414,22.5,17.5,22.5C17.5,22.5,17.5,21.5,17.5,21.5C17.5,21.5,17.5,21.5,17.5,21.5ZM13.5,20C13.5,20,13.5,14,13.5,14C13.5,14,12.5,14,12.5,14C12.5,14,12.5,20,12.5,20C12.5,20,13.5,20,13.5,20C13.5,20,13.5,20,13.5,20Z" fill="#161616" fill-opacity="1"/></g><g><path d="M22.5,17C22.5,16.723858,22.276139999999998,16.5,22,16.5C21.723860000000002,16.5,21.5,16.723858,21.5,17C21.5,17,22.5,17,22.5,17C22.5,17,22.5,17,22.5,17ZM13.5,17C13.5,16.723858,13.276142,16.5,13,16.5C12.723858,16.5,12.5,16.723858,12.5,17C12.5,17,13.5,17,13.5,17C13.5,17,13.5,17,13.5,17ZM21.5,17C21.5,17.113446,21.45035,17.25917,21.28417,17.43379C21.11554,17.61099,20.8479,17.793309999999998,20.47892,17.9573C19.74222,18.28473,18.68944,18.5,17.5,18.5C17.5,18.5,17.5,19.5,17.5,19.5C18.79586,19.5,19.99308,19.26755,20.88506,18.87111C21.33042,18.67317,21.721780000000003,18.42453,22.00857,18.123170000000002C22.29781,17.81924,22.5,17.438829,22.5,17C22.5,17,21.5,17,21.5,17C21.5,17,21.5,17,21.5,17ZM17.5,18.5C16.31056,18.5,15.25778,18.28473,14.52108,17.9573C14.1521,17.793309999999998,13.88446,17.61099,13.71583,17.43379C13.54965,17.25917,13.5,17.113446,13.5,17C13.5,17,12.5,17,12.5,17C12.5,17.438829,12.70219,17.81924,12.991432,18.123170000000002C13.278222,18.42453,13.66958,18.67317,14.11494,18.87111C15.006920000000001,19.26755,16.20414,19.5,17.5,19.5C17.5,19.5,17.5,18.5,17.5,18.5C17.5,18.5,17.5,18.5,17.5,18.5Z" fill="#161616" fill-opacity="1"/></g><g><path d="M21.5,14C21.5,14.11345,21.45035,14.259170000000001,21.28417,14.43379C21.11554,14.610990000000001,20.8479,14.79331,20.47892,14.9573C19.74222,15.28473,18.68944,15.5,17.5,15.5C17.5,15.5,17.5,16.5,17.5,16.5C18.79586,16.5,19.99308,16.26755,20.88506,15.87111C21.33042,15.673169999999999,21.721780000000003,15.42453,22.00857,15.12317C22.29781,14.81924,22.5,14.43883,22.5,14C22.5,14,21.5,14,21.5,14C21.5,14,21.5,14,21.5,14ZM17.5,15.5C16.31056,15.5,15.25778,15.28473,14.52108,14.9573C14.1521,14.79331,13.88446,14.610990000000001,13.71583,14.43379C13.54965,14.259170000000001,13.5,14.11345,13.5,14C13.5,14,12.5,14,12.5,14C12.5,14.43883,12.70219,14.81924,12.991432,15.12317C13.278222,15.42453,13.66958,15.673169999999999,14.11494,15.87111C15.006920000000001,16.26755,16.20414,16.5,17.5,16.5C17.5,16.5,17.5,15.5,17.5,15.5C17.5,15.5,17.5,15.5,17.5,15.5ZM13.5,14C13.5,13.88655,13.54965,13.740829999999999,13.71583,13.56621C13.88446,13.38901,14.1521,13.20669,14.52108,13.0427C15.25778,12.71528,16.31056,12.5,17.5,12.5C17.5,12.5,17.5,11.5,17.5,11.5C16.20414,11.5,15.006920000000001,11.73245,14.11494,12.128889000000001C13.66958,12.326827,13.278222,12.57547,12.991432,12.87683C12.70219,13.18076,12.5,13.56117,12.5,14C12.5,14,13.5,14,13.5,14C13.5,14,13.5,14,13.5,14ZM17.5,12.5C18.68944,12.5,19.74222,12.71528,20.47892,13.0427C20.8479,13.20669,21.11554,13.38901,21.28417,13.56621C21.45035,13.740829999999999,21.5,13.88655,21.5,14C21.5,14,22.5,14,22.5,14C22.5,13.56117,22.29781,13.18076,22.00857,12.87683C21.721780000000003,12.57547,21.33042,12.326827,20.88506,12.128889000000001C19.99308,11.73245,18.79586,11.5,17.5,11.5C17.5,11.5,17.5,12.5,17.5,12.5C17.5,12.5,17.5,12.5,17.5,12.5Z" fill="#161616" fill-opacity="1"/></g><g><path d="M16,2.5C15.723858,2.5,15.5,2.723858,15.5,3C15.5,3.276142,15.723858,3.5,16,3.5C16,3.5,16,2.5,16,2.5C16,2.5,16,2.5,16,2.5ZM20.5,8C20.5,8.27614,20.723860000000002,8.5,21,8.5C21.276139999999998,8.5,21.5,8.27614,21.5,8C21.5,8,20.5,8,20.5,8C20.5,8,20.5,8,20.5,8ZM16,3.5C16,3.5,19,3.5,19,3.5C19,3.5,19,2.5,19,2.5C19,2.5,16,2.5,16,2.5C16,2.5,16,3.5,16,3.5C16,3.5,16,3.5,16,3.5ZM19,3.5C19.828409999999998,3.5,20.5,4.1715800000000005,20.5,5C20.5,5,21.5,5,21.5,5C21.5,3.61928,20.38069,2.5,19,2.5C19,2.5,19,3.5,19,3.5C19,3.5,19,3.5,19,3.5ZM20.5,5C20.5,5,20.5,8,20.5,8C20.5,8,21.5,8,21.5,8C21.5,8,21.5,5,21.5,5C21.5,5,20.5,5,20.5,5C20.5,5,20.5,5,20.5,5Z" fill="#161616" fill-opacity="1"/></g><g><path d="M8,21.5C8.27614,21.5,8.5,21.276139999999998,8.5,21C8.5,20.723860000000002,8.27614,20.5,8,20.5C8,20.5,8,21.5,8,21.5C8,21.5,8,21.5,8,21.5ZM3.5,16C3.5,15.723858,3.276142,15.5,3,15.5C2.723858,15.5,2.5,15.723858,2.5,16C2.5,16,3.5,16,3.5,16C3.5,16,3.5,16,3.5,16ZM8,20.5C8,20.5,5,20.5,5,20.5C5,20.5,5,21.5,5,21.5C5,21.5,8,21.5,8,21.5C8,21.5,8,20.5,8,20.5C8,20.5,8,20.5,8,20.5ZM5,20.5C4.1715800000000005,20.5,3.5,19.828409999999998,3.5,19C3.5,19,2.5,19,2.5,19C2.5,20.38069,3.61928,21.5,5,21.5C5,21.5,5,20.5,5,20.5C5,20.5,5,20.5,5,20.5ZM3.5,19C3.5,19,3.5,16,3.5,16C3.5,16,2.5,16,2.5,16C2.5,16,2.5,19,2.5,19C2.5,19,3.5,19,3.5,19C3.5,19,3.5,19,3.5,19Z" fill="#161616" fill-opacity="1"/></g></g></svg>