<svg xmlns="http://www.w3.org/2000/svg" xmlns:xlink="http://www.w3.org/1999/xlink" fill="none" version="1.1" width="160" height="160" viewBox="0 0 160 160"><g><g><g><path d="M28.65915584564209,55.07485596485138C28.65915584564209,55.07485596485138,28.65915584564209,136.48215596485136,28.65915584564209,136.48215596485136C28.65915584564209,136.48215596485136,113.2761558456421,136.48215596485136,113.2761558456421,136.48215596485136C113.2761558456421,136.48215596485136,113.2761558456421,23.65915596485138,113.2761558456421,23.65915596485138C113.2761558456421,23.65915596485138,57.51025584564209,23.65915596485138,57.51025584564209,23.65915596485138C57.51025584564209,23.65915596485138,28.65915584564209,55.07485596485138,28.65915584564209,55.07485596485138C28.65915584564209,55.07485596485138,28.65915584564209,55.07485596485138,28.65915584564209,55.07485596485138Z" fill="#F9F9F9" fill-opacity="1"/></g><g><path d="M56.2883,22.536895C56.6025,22.194748,57.0457,22,57.5103,22C57.5103,22,113.2761,22,113.2761,22C114.1924,22,114.9353,22.742829,114.9353,23.65916C114.9353,23.65916,114.9353,136.482,114.9353,136.482C114.9353,137.398,114.1924,138.14100000000002,113.2761,138.14100000000002C113.2761,138.14100000000002,28.65916,138.14100000000002,28.65916,138.14100000000002C27.742829,138.14100000000002,27,137.398,27,136.482C27,136.482,27,55.0748,27,55.0748C27,54.6592,27.156,54.2587,27.437138,53.9525C27.437138,53.9525,56.2883,22.536895,56.2883,22.536895C56.2883,22.536895,56.2883,22.536895,56.2883,22.536895ZM58.2392,25.31831C58.2392,25.31831,30.31831,55.7211,30.31831,55.7211C30.31831,55.7211,30.31831,134.82299999999998,30.31831,134.82299999999998C30.31831,134.82299999999998,111.617,134.82299999999998,111.617,134.82299999999998C111.617,134.82299999999998,111.617,25.31831,111.617,25.31831C111.617,25.31831,58.2392,25.31831,58.2392,25.31831C58.2392,25.31831,58.2392,25.31831,58.2392,25.31831Z" fill-rule="evenodd" fill="#A8A8A8" fill-opacity="1"/></g><g transform="matrix(-0.7071067690849304,-0.7071067690849304,-0.7071067690849304,0.7071067690849304,316.99035575441576,131.30170575328611)"><path d="M132.5,130.0679277001953C132.5,129.1515967001953,133.242829,128.4087677001953,134.15915999999999,128.4087677001953C134.15915999999999,128.4087677001953,151.9941,128.4087677001953,151.9941,128.4087677001953C152.9104,128.4087677001953,153.6532,129.1515967001953,153.6532,130.0679277001953C153.6532,130.9842477001953,152.9104,131.7270777001953,151.9941,131.7270777001953C151.9941,131.7270777001953,134.15915999999999,131.7270777001953,134.15915999999999,131.7270777001953C133.242829,131.7270777001953,132.5,130.9842477001953,132.5,130.0679277001953C132.5,130.0679277001953,132.5,130.0679277001953,132.5,130.0679277001953Z" fill-rule="evenodd" fill="#161616" fill-opacity="1"/></g><g transform="matrix(-1,0,0,1,249.12081909179688,0)"><path d="M162.16790954589845,100.75431193237304C162.16790954589845,111.13931193237305,153.74920954589845,119.55801193237305,143.36420954589843,119.55801193237305C132.97913954589845,119.55801193237305,124.56040954589844,111.13931193237305,124.56040954589844,100.75431193237304C124.56040954589844,90.36924193237304,132.97913954589845,81.95051193237305,143.36420954589843,81.95051193237305C153.74920954589845,81.95051193237305,162.16790954589845,90.36924193237304,162.16790954589845,100.75431193237304C162.16790954589845,100.75431193237304,162.16790954589845,100.75431193237304,162.16790954589845,100.75431193237304Z" fill="#E0E0E0" fill-opacity="1"/></g><g transform="matrix(-1,0,0,1,249.12081909179688,0)"><path d="M143.36420954589843,116.23971193237304C151.91650954589844,116.23971193237304,158.84960954589843,109.30661193237304,158.84960954589843,100.75431193237304C158.84960954589843,92.20191193237305,151.91650954589844,85.26882193237304,143.36420954589843,85.26882193237304C134.81180954589843,85.26882193237304,127.87871954589843,92.20191193237305,127.87871954589843,100.75431193237304C127.87871954589843,109.30661193237304,134.81180954589843,116.23971193237304,143.36420954589843,116.23971193237304C143.36420954589843,116.23971193237304,143.36420954589843,116.23971193237304,143.36420954589843,116.23971193237304ZM143.36420954589843,119.55801193237305C153.74920954589845,119.55801193237305,162.16790954589845,111.13931193237305,162.16790954589845,100.75431193237304C162.16790954589845,90.36924193237304,153.74920954589845,81.95051193237305,143.36420954589843,81.95051193237305C132.97913954589845,81.95051193237305,124.56040954589844,90.36924193237304,124.56040954589844,100.75431193237304C124.56040954589844,111.13931193237305,132.97913954589845,119.55801193237305,143.36420954589843,119.55801193237305C143.36420954589843,119.55801193237305,143.36420954589843,119.55801193237305,143.36420954589843,119.55801193237305Z" fill-rule="evenodd" fill="#161616" fill-opacity="1"/></g><g transform="matrix(1,-2.857509322698725e-16,2.099394585524731e-16,1,-1.4210854715202004e-14,1.4210854715202004e-14)"><path d="M44.69844055175781,77.85825286499023C44.69844055175781,76.94192186499023,45.44126955175781,76.19909286499023,46.35760055175781,76.19909286499023C46.35760055175781,76.19909286499023,83.96514055175781,76.19909286499023,83.96514055175781,76.19909286499023C84.8814405517578,76.19909286499023,85.62424055175782,76.94192186499023,85.62424055175782,77.85825286499023C85.62424055175782,78.77457286499023,84.8814405517578,79.51740286499023,83.96514055175781,79.51740286499023C83.96514055175781,79.51740286499023,46.35760055175781,79.51740286499023,46.35760055175781,79.51740286499023C45.44126955175781,79.51740286499023,44.69844055175781,78.77457286499023,44.69844055175781,77.85825286499023C44.69844055175781,77.85825286499023,44.69844055175781,77.85825286499023,44.69844055175781,77.85825286499023Z" fill-rule="evenodd" fill="#161616" fill-opacity="1"/></g><g><path d="M44.69844055175781,95.55591903320312C44.69844055175781,94.63958803320313,45.44126955175781,93.89675903320312,46.35760055175781,93.89675903320312C46.35760055175781,93.89675903320312,76.44364055175781,93.89675903320312,76.44364055175781,93.89675903320312C77.3599405517578,93.89675903320312,78.10274055175782,94.63958803320313,78.10274055175782,95.55591903320312C78.10274055175782,96.47223903320312,77.3599405517578,97.21506903320312,76.44364055175781,97.21506903320312C76.44364055175781,97.21506903320312,46.35760055175781,97.21506903320312,46.35760055175781,97.21506903320312C45.44126955175781,97.21506903320312,44.69844055175781,96.47223903320312,44.69844055175781,95.55591903320312C44.69844055175781,95.55591903320312,44.69844055175781,95.55591903320312,44.69844055175781,95.55591903320312Z" fill-rule="evenodd" fill="#161616" fill-opacity="1"/></g><g transform="matrix(1,-3.571886587198957e-16,1.679515721359344e-16,1,-2.1316282072803006e-14,1.4210854715202004e-14)"><path d="M44.69844055175781,113.25358138671875C44.69844055175781,112.33725038671875,45.44126955175781,111.59442138671875,46.35760055175781,111.59442138671875C46.35760055175781,111.59442138671875,68.92214055175782,111.59442138671875,68.92214055175782,111.59442138671875C69.83844055175781,111.59442138671875,70.58124055175782,112.33725038671875,70.58124055175782,113.25358138671875C70.58124055175782,114.16990138671875,69.83844055175781,114.91273138671875,68.92214055175782,114.91273138671875C68.92214055175782,114.91273138671875,46.35760055175781,114.91273138671875,46.35760055175781,114.91273138671875C45.44126955175781,114.91273138671875,44.69844055175781,114.16990138671875,44.69844055175781,113.25358138671875C44.69844055175781,113.25358138671875,44.69844055175781,113.25358138671875,44.69844055175781,113.25358138671875Z" fill-rule="evenodd" fill="#161616" fill-opacity="1"/></g><g><path d="M63.27309290466309,31.07780352429199C63.27309290466309,31.07780352429199,36.07868090466309,58.272215524291994,36.07868090466309,58.272215524291994C35.381874904663086,58.96901552429199,35.875379904663085,60.160515524291995,36.860812904663085,60.160515524291995C36.860812904663085,60.160515524291995,64.05529290466309,60.160515524291995,64.05529290466309,60.160515524291995C64.66609290466309,60.160515524291995,65.16139290466309,59.665215524291995,65.16139290466309,59.054415524292C65.16139290466309,59.054415524292,65.16139290466309,31.85993552429199,65.16139290466309,31.85993552429199C65.16139290466309,30.874503524291992,63.969892904663084,30.38099652429199,63.27309290466309,31.07780352429199C63.27309290466309,31.07780352429199,63.27309290466309,31.07780352429199,63.27309290466309,31.07780352429199Z" fill="#00C7F2" fill-opacity="1"/></g><g><path d="M64.05529290466309,60.160515524291995C64.66609290466309,60.160515524291995,65.16139290466309,59.665215524291995,65.16139290466309,59.054415524292C65.16139290466309,59.054415524292,65.16139290466309,31.85993552429199,65.16139290466309,31.85993552429199C65.16139290466309,30.874503524291992,63.969892904663084,30.38099652429199,63.27309290466309,31.07780352429199C63.27309290466309,31.07780352429199,36.07868090466309,58.272215524291994,36.07868090466309,58.272215524291994C35.381874904663086,58.96901552429199,35.875379904663085,60.160515524291995,36.860812904663085,60.160515524291995C36.860812904663085,60.160515524291995,64.05529290466309,60.160515524291995,64.05529290466309,60.160515524291995C64.05529290466309,60.160515524291995,64.05529290466309,60.160515524291995,64.05529290466309,60.160515524291995ZM42.20155290466309,56.84211552429199C42.20155290466309,56.84211552429199,61.842992904663085,56.84211552429199,61.842992904663085,56.84211552429199C61.842992904663085,56.84211552429199,61.842992904663085,37.200675524291995,61.842992904663085,37.200675524291995C61.842992904663085,37.200675524291995,42.20155290466309,56.84211552429199,42.20155290466309,56.84211552429199C42.20155290466309,56.84211552429199,42.20155290466309,56.84211552429199,42.20155290466309,56.84211552429199Z" fill-rule="evenodd" fill="#161616" fill-opacity="1"/></g></g></g></svg>