<svg width="40" height="40" viewBox="0 0 40 40" fill="none" xmlns="http://www.w3.org/2000/svg">
  <circle cx="20" cy="20" r="20" fill="#D9FBFB" />
  <path
    d="M8.41943 11.2291C8.41943 10.2296 9.22963 9.41943 10.2291 9.41943H15.6579C16.6573 9.41943 17.4675 10.2296 17.4675 11.2291V16.6579C17.4675 17.6573 16.6573 18.4675 15.6579 18.4675H10.2291C9.22963 18.4675 8.41943 17.6573 8.41943 16.6579V11.2291Z"
    fill="#08BDBA" />
  <path
    d="M21.5325 23.8965C21.5325 22.8971 22.3427 22.0869 23.3421 22.0869H28.7709C29.7704 22.0869 30.5806 22.8971 30.5806 23.8965V29.3254C30.5806 30.3248 29.7704 31.135 28.7709 31.135H23.3421C22.3427 31.135 21.5325 30.3248 21.5325 29.3254V23.8965Z"
    fill="#08BDBA" />
  <path
    d="M26.9056 19.3741C26.498 16.0984 23.9016 13.502 20.6259 13.0944C20.13 13.0327 19.7229 12.6335 19.7229 12.1338V9.87179C19.7229 9.37207 20.1294 8.96321 20.6276 9.00263C26.1526 9.43989 30.5601 13.8474 30.9974 19.3724C31.0368 19.8706 30.6279 20.2771 30.1282 20.2771H27.8662C27.3665 20.2771 26.9673 19.87 26.9056 19.3741Z"
    fill="#08BDBA" />
  <path
    d="M12.0944 21.1801C12.502 24.4558 15.0984 27.0522 18.3741 27.4598C18.87 27.5215 19.2771 27.9207 19.2771 28.4204L19.2771 30.6824C19.2771 31.1821 18.8706 31.591 18.3724 31.5516C12.8474 31.1143 8.43989 26.7067 8.00263 21.1818C7.96321 20.6836 8.37207 20.2771 8.87179 20.2771L11.1338 20.2771C11.6335 20.2771 12.0327 20.6842 12.0944 21.1801Z"
    fill="#08BDBA" />
</svg>