<svg width="40" height="40" viewBox="0 0 40 40" fill="none" xmlns="http://www.w3.org/2000/svg">
<circle cx="20" cy="20" r="20" fill="#F6F2FF"/>
<path fill-rule="evenodd" clip-rule="evenodd" d="M10.3 12C9.02975 12 8 13.0534 8 14.3529V25.1337V25.6471C8 26.9466 9.02975 28 10.3 28H11.2081C11.7767 28 12.3251 27.7845 12.7476 27.3952L15.9202 24.4711C16.0892 24.3154 16.3086 24.2292 16.536 24.2292H19.0577H22.0354C22.2546 24.2292 22.4665 24.3092 22.6332 24.4549L26.0421 27.4357C26.4586 27.7999 26.9886 28 27.5365 28H28.7C29.9703 28 31 26.9466 31 25.6471V25.1337V14.3529C31 13.0534 29.9703 12 28.7 12H10.3ZM14.44 15.2941C13.8303 15.2941 13.336 15.7998 13.336 16.4235V16.9882H12.784C12.1743 16.9882 11.68 17.4939 11.68 18.1177C11.68 18.7414 12.1743 19.2471 12.784 19.2471H13.336V19.8118C13.336 20.4355 13.8303 20.9412 14.44 20.9412C15.0497 20.9412 15.544 20.4355 15.544 19.8118V19.2471H16.096C16.7057 19.2471 17.2 18.7414 17.2 18.1177C17.2 17.4939 16.7057 16.9882 16.096 16.9882H15.544V16.4235C15.544 15.7998 15.0497 15.2941 14.44 15.2941ZM26.86 18.1176C26.86 19.4171 25.8303 20.4706 24.56 20.4706C23.2897 20.4706 22.26 19.4171 22.26 18.1176C22.26 16.8182 23.2897 15.7647 24.56 15.7647C25.8303 15.7647 26.86 16.8182 26.86 18.1176Z" fill="#8A3FFC"/>
</svg>
