<svg width="40" height="40" viewBox="0 0 40 40" fill="none" xmlns="http://www.w3.org/2000/svg">
<circle cx="20" cy="20" r="20" fill="#012749"/>
<path fill-rule="evenodd" clip-rule="evenodd" d="M11.3057 14.8531L19.1082 19.3579C19.4452 19.5525 19.8603 19.5525 20.1972 19.3579L27.9997 14.8531C28.272 14.6959 28.272 14.303 27.9997 14.1458L20.1972 9.64102C19.8603 9.44648 19.4452 9.44648 19.1082 9.64102L11.3057 14.1458C11.0335 14.303 11.0335 14.696 11.3057 14.8531ZM29.3279 16.5732L21.3844 21.048C21.0413 21.2412 20.83 21.5983 20.83 21.9848V30.9344C20.83 31.2467 21.1765 31.4418 21.4537 31.2857L29.3972 26.8109C29.7402 26.6177 29.9515 26.2605 29.9515 25.8741V16.9245C29.9515 16.6122 29.6051 16.417 29.3279 16.5732ZM18.4586 22.0306L18.4586 31.0402C18.4586 31.3546 18.1183 31.5511 17.846 31.3939L10.0435 26.8891C9.70659 26.6945 9.49902 26.335 9.49902 25.946V16.9364C9.49902 16.622 9.83934 16.4255 10.1116 16.5827L17.9141 21.0875C18.251 21.2821 18.4586 21.6416 18.4586 22.0306Z" fill="#1192E8"/>
</svg>
