<svg width="40" height="40" viewBox="0 0 40 40" fill="none" xmlns="http://www.w3.org/2000/svg">
<circle cx="20" cy="20" r="20" fill="#FFF2E8"/>
<path fill-rule="evenodd" clip-rule="evenodd" d="M12 11C10.785 11 9.79999 11.985 9.79999 13.2V26.8C9.79999 28.015 10.785 29 12 29H28C29.215 29 30.2 28.015 30.2 26.8V13.2C30.2 11.985 29.215 11 28 11H12ZM15.2 19.4C16.1941 19.4 17 18.5941 17 17.6C17 16.6059 16.1941 15.8 15.2 15.8C14.2059 15.8 13.4 16.6059 13.4 17.6C13.4 18.5941 14.2059 19.4 15.2 19.4ZM24.8 19.4C25.7941 19.4 26.6 18.5941 26.6 17.6C26.6 16.6059 25.7941 15.8 24.8 15.8C23.8059 15.8 23 16.6059 23 17.6C23 18.5941 23.8059 19.4 24.8 19.4ZM15.8 24.9C15.8 24.4029 16.2029 24 16.7 24H23.3C23.797 24 24.2 24.4029 24.2 24.9C24.2 25.3971 23.797 25.8 23.3 25.8H16.7C16.2029 25.8 15.8 25.3971 15.8 24.9ZM5 17.6C5 16.6059 5.80589 15.8 6.8 15.8C7.79411 15.8 8.6 16.6059 8.6 17.6V20C8.6 20.9941 7.79411 21.8 6.8 21.8C5.80589 21.8 5 20.9941 5 20V17.6ZM33.2 15.8C32.2059 15.8 31.4 16.6059 31.4 17.6V20C31.4 20.9941 32.2059 21.8 33.2 21.8C34.1941 21.8 35 20.9941 35 20V17.6C35 16.6059 34.1941 15.8 33.2 15.8Z" fill="#EB6200"/>
</svg>
