<svg width="40" height="40" viewBox="0 0 40 40" fill="none" xmlns="http://www.w3.org/2000/svg">
<circle cx="20" cy="20" r="20" fill="#252F39"/>
<circle cx="19.7335" cy="14.5" r="5.5" fill="#7B889B"/>
<path fill-rule="evenodd" clip-rule="evenodd" d="M16.6599 14.2002C16.8863 14.2002 17.0667 14.3846 17.0978 14.6088C17.2858 15.9637 18.3942 17.0041 19.7335 17.0041C21.0727 17.0041 22.1812 15.9637 22.3691 14.6088C22.4002 14.3846 22.5807 14.2002 22.807 14.2002C23.0333 14.2002 23.2191 14.3843 23.1953 14.6094C23.002 16.4419 21.5258 17.8669 19.7335 17.8669C17.9411 17.8669 16.4649 16.4419 16.2716 14.6094C16.2478 14.3843 16.4336 14.2002 16.6599 14.2002Z" fill="#252F39"/>
<path fill-rule="evenodd" clip-rule="evenodd" d="M17.296 14.5812C17.4715 15.8464 18.5031 16.8039 19.7335 16.8039C20.9639 16.8039 21.9955 15.8464 22.171 14.5812C22.2135 14.2754 22.4643 14 22.807 14C23.1375 14 23.432 14.273 23.3943 14.6302C23.1912 16.555 21.6374 18.0667 19.7335 18.0667C17.8296 18.0667 16.2758 16.555 16.0727 14.6302C16.035 14.273 16.3295 14 16.66 14C17.0027 14 17.2535 14.2754 17.296 14.5812ZM17.0979 14.6086C17.0668 14.3844 16.8863 14.2 16.66 14.2C16.4336 14.2 16.2479 14.3841 16.2716 14.6092C16.4649 16.4417 17.9411 17.8667 19.7335 17.8667C21.5259 17.8667 23.0021 16.4417 23.1954 14.6092C23.2191 14.3841 23.0334 14.2 22.807 14.2C22.5807 14.2 22.4002 14.3844 22.3691 14.6086C22.1812 15.9635 21.0728 17.0039 19.7335 17.0039C18.3942 17.0039 17.2858 15.9635 17.0979 14.6086Z" fill="#252F39"/>
<path d="M19.7335 31C24.5206 31 28.5142 27.6023 29.4341 23.0869C29.6546 22.0046 28.7381 21.1 27.6335 21.1L11.8335 21.1C10.729 21.1 9.81248 22.0046 10.033 23.0869C10.9529 27.6023 14.9464 31 19.7335 31Z" fill="#7B889B"/>
</svg>
