<svg width="40" height="40" viewBox="0 0 40 40" fill="none" xmlns="http://www.w3.org/2000/svg">
<circle cx="20" cy="20" r="20" fill="#022D0D"/>
<path fill-rule="evenodd" clip-rule="evenodd" d="M17.7881 22.2712L11.5181 19.7625C10.9503 19.5353 10.8183 18.7524 11.2771 18.3333L25.7592 5.10584C26.072 4.82014 26.541 5.15948 26.3998 5.56935L22.2119 17.7288L20.08 16.8758C19.8704 16.792 19.6363 16.905 19.5598 17.1269L17.7881 22.2712ZM17.7881 22.2712L13.6002 34.4307C13.459 34.8405 13.928 35.1799 14.2408 34.8942L28.7229 21.6667C29.1817 21.2476 29.0497 20.4647 28.4819 20.2375L22.2119 17.7288L20.4402 22.8731C20.3637 23.095 20.1296 23.208 19.92 23.1242L17.7881 22.2712Z" fill="#24A148"/>
</svg>
