<svg width="40" height="40" viewBox="0 0 40 40" fill="none" xmlns="http://www.w3.org/2000/svg">
  <circle cx="20" cy="20" r="20" fill="#E5F6FF" />
  <path fill-rule="evenodd" clip-rule="evenodd"
    d="M11.3057 14.8536L19.1082 19.3584C19.4452 19.5529 19.8603 19.5529 20.1972 19.3584L27.9997 14.8536C28.272 14.6964 28.272 14.3035 27.9997 14.1463L20.1972 9.64151C19.8603 9.44697 19.4452 9.44697 19.1082 9.64151L11.3057 14.1463C11.0335 14.3035 11.0335 14.6964 11.3057 14.8536ZM29.3279 16.5736L21.3844 21.0484C21.0413 21.2417 20.83 21.5988 20.83 21.9853V30.9349C20.83 31.2471 21.1765 31.4423 21.4537 31.2862L29.3972 26.8114C29.7402 26.6181 29.9515 26.261 29.9515 25.8745V16.925C29.9515 16.6127 29.6051 16.4175 29.3279 16.5736ZM18.4586 22.0311L18.4586 31.0407C18.4586 31.3551 18.1183 31.5515 17.846 31.3944L10.0435 26.8896C9.70659 26.695 9.49902 26.3355 9.49902 25.9465V16.9369C9.49902 16.6225 9.83934 16.426 10.1116 16.5832L17.9141 21.088C18.251 21.2825 18.4586 21.6421 18.4586 22.0311Z"
    fill="#1192E8" />
</svg>