<svg xmlns="http://www.w3.org/2000/svg" xmlns:xlink="http://www.w3.org/1999/xlink" fill="none" version="1.1" width="65" height="18" viewBox="0 0 65 18"><g><g><path d="M10.608,6.136L10.608,13L9.684000000000001,13L9.684000000000001,6.136L7.242,6.136L7.242,5.322L13.05,5.322L13.05,6.136L10.608,6.136ZM16.361,13.132Q15.778,13.132,15.3105,12.923Q14.843,12.714,14.5075,12.3235Q14.172,11.933,13.9905,11.3885Q13.809000000000001,10.844,13.809000000000001,10.162Q13.809000000000001,9.491,13.9905,8.940999999999999Q14.172,8.391,14.5075,8.000499999999999Q14.843,7.61,15.3105,7.401Q15.778,7.192,16.361,7.192Q16.933,7.192,17.384,7.401Q17.835,7.61,18.154,7.9785Q18.473,8.347000000000001,18.6435,8.853Q18.814,9.359,18.814,9.964L18.814,10.382L14.733,10.382L14.733,10.646Q14.733,11.009,14.8485,11.3225Q14.964,11.636,15.1785,11.867Q15.393,12.098,15.7065,12.23Q16.02,12.362,16.416,12.362Q16.955,12.362,17.3565,12.109Q17.758,11.856,17.978,11.383L18.605,11.834Q18.33,12.417,17.747,12.7745Q17.164,13.132,16.361,13.132ZM16.361,7.929Q15.998,7.929,15.701,8.0555Q15.404,8.182,15.1895,8.413Q14.975,8.644,14.854,8.9575Q14.733,9.271,14.733,9.645L14.733,9.722L17.868000000000002,9.722L17.868000000000002,9.601Q17.868000000000002,8.841999999999999,17.4555,8.3855Q17.043,7.929,16.361,7.929ZM21.971,13.132Q21.179000000000002,13.132,20.6455,12.8295Q20.112000000000002,12.527,19.727,12.021L20.354,11.515Q20.683999999999997,11.933,21.091,12.1585Q21.497999999999998,12.384,22.037,12.384Q22.598,12.384,22.9115,12.142Q23.225,11.9,23.225,11.46Q23.225,11.13,23.0105,10.8935Q22.796,10.657,22.235,10.569L21.784,10.503Q21.387999999999998,10.448,21.058,10.3325Q20.728,10.217,20.4805,10.0245Q20.233,9.832,20.0955,9.546Q19.958,9.26,19.958,8.864Q19.958,8.446,20.112000000000002,8.1325Q20.266,7.819,20.5355,7.61Q20.805,7.401,21.179000000000002,7.2965Q21.553,7.192,21.982,7.192Q22.675,7.192,23.1425,7.434Q23.61,7.676,23.962,8.105L23.379,8.633Q23.192,8.369,22.829,8.154499999999999Q22.466,7.94,21.916,7.94Q21.366,7.94,21.0855,8.1765Q20.805,8.413,20.805,8.82Q20.805,9.238,21.0855,9.425Q21.366,9.612,21.894,9.7L22.334,9.766Q23.28,9.909,23.676,10.3105Q24.072,10.712,24.072,11.361Q24.072,12.186,23.511,12.659Q22.95,13.132,21.971,13.132ZM26.877,13Q26.415,13,26.1785,12.7415Q25.942,12.483,25.942,12.065L25.942,8.094000000000001L25.007,8.094000000000001L25.007,7.324L25.535,7.324Q25.821,7.324,25.9255,7.2085Q26.03,7.093,26.03,6.807L26.03,5.751L26.822,5.751L26.822,7.324L28.065,7.324L28.065,8.094000000000001L26.822,8.094000000000001L26.822,12.23L27.977,12.23L27.977,13L26.877,13ZM32.08,13L32.08,7.324L32.96,7.324L32.96,8.248000000000001L33.004000000000005,8.248000000000001Q33.103,8.027999999999999,33.2295,7.8355Q33.356,7.643,33.5375,7.5Q33.719,7.357,33.961,7.2745Q34.203,7.192,34.533,7.192Q35.094,7.192,35.567,7.4615Q36.04,7.731,36.271,8.347000000000001L36.293,8.347000000000001Q36.447,7.885,36.8705,7.5385Q37.294,7.192,38.019999999999996,7.192Q38.888999999999996,7.192,39.3785,7.7585Q39.868,8.325,39.868,9.359L39.868,13L38.988,13L38.988,9.513Q38.988,8.754,38.691,8.369Q38.394,7.984,37.745000000000005,7.984Q37.481,7.984,37.2445,8.05Q37.007999999999996,8.116,36.821,8.248000000000001Q36.634,8.379999999999999,36.524,8.5835Q36.414,8.786999999999999,36.414,9.062L36.414,13L35.534,13L35.534,9.513Q35.534,8.754,35.236999999999995,8.369Q34.94,7.984,34.313,7.984Q34.049,7.984,33.807,8.05Q33.565,8.116,33.378,8.248000000000001Q33.191,8.379999999999999,33.075500000000005,8.5835Q32.96,8.786999999999999,32.96,9.062L32.96,13L32.08,13ZM43.828,13.132Q43.256,13.132,42.783,12.923Q42.31,12.714,41.9745,12.3235Q41.639,11.933,41.452,11.3885Q41.265,10.844,41.265,10.162Q41.265,9.491,41.452,8.940999999999999Q41.639,8.391,41.9745,8.000499999999999Q42.31,7.61,42.783,7.401Q43.256,7.192,43.828,7.192Q44.4,7.192,44.8675,7.401Q45.335,7.61,45.676,8.000499999999999Q46.017,8.391,46.204,8.940999999999999Q46.391,9.491,46.391,10.162Q46.391,10.844,46.204,11.3885Q46.017,11.933,45.676,12.3235Q45.335,12.714,44.8675,12.923Q44.4,13.132,43.828,13.132ZM43.828,12.351Q44.543,12.351,44.994,11.911Q45.445,11.471,45.445,10.569L45.445,9.755Q45.445,8.853,44.994,8.413Q44.543,7.973,43.828,7.973Q43.113,7.973,42.662,8.413Q42.211,8.853,42.211,9.755L42.211,10.569Q42.211,11.471,42.662,11.911Q43.113,12.351,43.828,12.351ZM51.473,12.076L51.429,12.076Q50.912,13.132,49.768,13.132Q49.24,13.132,48.811,12.923Q48.382,12.714,48.0795,12.329Q47.777,11.944,47.6175,11.394Q47.458,10.844,47.458,10.162Q47.458,9.48,47.6175,8.93Q47.777,8.379999999999999,48.0795,7.995Q48.382,7.61,48.811,7.401Q49.24,7.192,49.768,7.192Q50.362,7.192,50.7855,7.4505Q51.209,7.709,51.429,8.248000000000001L51.473,8.248000000000001L51.473,4.859999999999999L52.353,4.859999999999999L52.353,13L51.473,13L51.473,12.076ZM50.01,12.34Q50.307,12.34,50.5765,12.263Q50.846,12.186,51.044,12.0375Q51.242,11.889,51.3575,11.6745Q51.473,11.46,51.473,11.185L51.473,9.073Q51.473,8.841999999999999,51.3575,8.6385Q51.242,8.434999999999999,51.044,8.292Q50.846,8.149000000000001,50.5765,8.0665Q50.307,7.984,50.01,7.984Q49.262,7.984,48.833,8.4515Q48.404,8.919,48.404,9.678L48.404,10.646Q48.404,11.405,48.833,11.8725Q49.262,12.34,50.01,12.34ZM56.357,13.132Q55.774,13.132,55.3065,12.923Q54.839,12.714,54.5035,12.3235Q54.168,11.933,53.9865,11.3885Q53.805,10.844,53.805,10.162Q53.805,9.491,53.9865,8.940999999999999Q54.168,8.391,54.5035,8.000499999999999Q54.839,7.61,55.3065,7.401Q55.774,7.192,56.357,7.192Q56.929,7.192,57.38,7.401Q57.831,7.61,58.15,7.9785Q58.469,8.347000000000001,58.6395,8.853Q58.81,9.359,58.81,9.964L58.81,10.382L54.729,10.382L54.729,10.646Q54.729,11.009,54.8445,11.3225Q54.96,11.636,55.1745,11.867Q55.389,12.098,55.7025,12.23Q56.016,12.362,56.412,12.362Q56.951,12.362,57.3525,12.109Q57.754,11.856,57.974,11.383L58.601,11.834Q58.326,12.417,57.743,12.7745Q57.16,13.132,56.357,13.132ZM56.357,7.929Q55.994,7.929,55.697,8.0555Q55.4,8.182,55.1855,8.413Q54.971,8.644,54.85,8.9575Q54.729,9.271,54.729,9.645L54.729,9.722L57.864,9.722L57.864,9.601Q57.864,8.841999999999999,57.4515,8.3855Q57.039,7.929,56.357,7.929Z" fill="#A8A8A8" fill-opacity="1"/></g><g><g><path d="M61.4457,0.323986C61.4457,0.323986,3.55427,0.323986,3.55427,0.323986C1.7876,0.323986,0.355427,1.62947,0.355427,3.23986C0.355427,3.23986,0.355427,14.7601,0.355427,14.7601C0.355427,16.3705,1.7876,17.676,3.55427,17.676C3.55427,17.676,61.4457,17.676,61.4457,17.676C63.2124,17.676,64.6446,16.3705,64.6446,14.7601C64.6446,14.7601,64.6446,3.23986,64.6446,3.23986C64.6446,1.62947,63.2124,0.323986,61.4457,0.323986C61.4457,0.323986,61.4457,0.323986,61.4457,0.323986ZM3.55427,0C1.5913,0,0,1.45054,0,3.23986C0,3.23986,0,14.7601,0,14.7601C0,16.5495,1.5913,18,3.55427,18C3.55427,18,61.4457,18,61.4457,18C63.4087,18,65,16.5495,65,14.7601C65,14.7601,65,3.23986,65,3.23986C65,1.45053,63.4087,0,61.4457,0C61.4457,0,3.55427,0,3.55427,0C3.55427,0,3.55427,0,3.55427,0Z" fill-rule="evenodd" fill="#A8A8A8" fill-opacity="1"/></g><g transform="matrix(1,-4.9656671258072917e-17,6.205571159354878e-17,1,0,0)"><path d="M61.2195,2.164916C61.2195,2.164916,3.78051,2.164916,3.78051,2.164916C2.8954940000000002,2.164916,2.178051,2.829435,2.178051,3.64916C2.178051,3.64916,2.178051,14.3508,2.178051,14.3508C2.178051,15.1706,2.895492,15.8351,3.7805,15.8351C3.7805,15.8351,61.2195,15.8351,61.2195,15.8351C62.1045,15.8351,62.822,15.1706,62.822,14.3508C62.822,14.3508,62.822,3.64916,62.822,3.64916C62.822,2.829436,62.1045,2.164916,61.2195,2.164916C61.2195,2.164916,61.2195,2.164916,61.2195,2.164916ZM3.78051,2C2.79716,2,2,2.738354,2,3.64916C2,3.64916,2,14.3508,2,14.3508C2,15.2616,2.797157,16,3.7805,16C3.7805,16,61.2195,16,61.2195,16C62.2028,16,63,15.2616,63,14.3508C63,14.3508,63,3.64916,63,3.64916C63,2.738355,62.2028,2,61.2195,2C61.2195,2,3.78051,2,3.78051,2C3.78051,2,3.78051,2,3.78051,2Z" fill-rule="evenodd" fill="#A8A8A8" fill-opacity="1"/></g></g></g></svg>