<svg width="20" height="20" viewBox="0 0 20 20" fill="none" xmlns="http://www.w3.org/2000/svg">
<path fill-rule="evenodd" clip-rule="evenodd" d="M5.40241 2.66317C5.49225 2.51046 5.6562 2.41669 5.83338 2.41669H14.1668C14.3439 2.41669 14.5079 2.51046 14.5977 2.66318L18.7643 9.74652C18.8563 9.90299 18.8563 10.0971 18.7643 10.2535L14.5977 17.3369C14.5079 17.4896 14.3439 17.5834 14.1668 17.5834H5.83338C5.6562 17.5834 5.49225 17.4896 5.40241 17.3369L1.23566 10.2535C1.14361 10.0971 1.14361 9.90298 1.23566 9.74651L5.40241 2.66317ZM6.11935 3.41669L2.24672 10L6.11935 16.5834H13.8808L17.7532 10L13.8808 3.41669H6.11935Z" fill="#161616"/>
<path fill-rule="evenodd" clip-rule="evenodd" d="M7.41663 10C7.41663 8.57329 8.57323 7.41669 9.99996 7.41669C11.4267 7.41669 12.5833 8.57329 12.5833 10C12.5833 11.4267 11.4267 12.5834 9.99996 12.5834C8.57323 12.5834 7.41663 11.4267 7.41663 10ZM9.99996 8.41669C9.12552 8.41669 8.41663 9.12558 8.41663 10C8.41663 10.8745 9.12552 11.5834 9.99996 11.5834C10.8744 11.5834 11.5833 10.8745 11.5833 10C11.5833 9.12558 10.8744 8.41669 9.99996 8.41669Z" fill="#161616"/>
</svg>
