<svg width="24" height="24" viewBox="0 0 24 24" fill="none" xmlns="http://www.w3.org/2000/svg">
<path fill-rule="evenodd" clip-rule="evenodd" d="M5.26996 8.91003C5.26996 5.18582 8.29575 2.16003 12.02 2.16003C15.7342 2.16003 18.77 5.19582 18.77 8.91003V11.8C18.77 12.0149 18.8186 12.3294 18.9108 12.6654C19.0018 12.9974 19.1194 13.2924 19.2264 13.4798L20.3731 15.3842C21.2786 16.8934 20.5547 18.8595 18.8865 19.4118C14.4226 20.9029 9.60617 20.9028 5.1423 19.4114L5.13951 19.4104C4.29711 19.1253 3.66535 18.5358 3.38288 17.773C3.10008 17.0092 3.19629 16.1496 3.65732 15.3834L4.80575 13.476L4.80651 13.4747C4.91602 13.2906 5.03597 12.9966 5.12854 12.6632C5.22139 12.3287 5.26996 12.0147 5.26996 11.8V8.91003ZM12.02 3.66003C9.12418 3.66003 6.76996 6.01425 6.76996 8.91003V11.8C6.76996 12.1954 6.68854 12.6514 6.57388 13.0644C6.45917 13.4776 6.29446 13.9081 6.09417 14.2441L6.09249 14.2469L4.9426 16.1567C4.69375 16.5704 4.67986 16.9559 4.78954 17.2521C4.89947 17.549 5.16231 17.8342 5.61907 17.9892C9.77442 19.3772 14.257 19.377 18.4123 17.9887L18.4146 17.9879C19.1653 17.7398 19.5009 16.8468 19.0872 16.1564L17.9302 14.2349C17.7381 13.9019 17.5772 13.4744 17.4642 13.0621C17.3513 12.6507 17.27 12.1952 17.27 11.8V8.91003C17.27 6.02425 14.9057 3.66003 12.02 3.66003Z" fill="#161616"/>
<path fill-rule="evenodd" clip-rule="evenodd" d="M9.47177 2.92629C9.87121 1.90701 10.8629 1.18994 12.0201 1.18994C13.1772 1.18994 14.1689 1.90701 14.5684 2.92629C14.6726 3.19236 14.6166 3.49457 14.4239 3.70562C14.2313 3.91667 13.9354 3.99988 13.661 3.9202C13.3835 3.83966 13.1036 3.77889 12.8198 3.74449L12.817 3.74415C11.9526 3.6361 11.1359 3.70023 10.3794 3.92013C10.105 3.99991 9.80901 3.91676 9.61626 3.70571C9.42351 3.49466 9.36748 3.1924 9.47177 2.92629Z" fill="#161616"/>
<path fill-rule="evenodd" clip-rule="evenodd" d="M9.77002 19.0601C9.77002 19.6726 10.0248 20.2442 10.4303 20.6497C10.8359 21.0553 11.4075 21.3101 12.02 21.3101C13.2558 21.3101 14.27 20.2958 14.27 19.0601H15.77C15.77 21.1243 14.0842 22.8101 12.02 22.8101C10.9925 22.8101 10.0442 22.3849 9.36969 21.7104C8.69521 21.0359 8.27002 20.0875 8.27002 19.0601H9.77002Z" fill="#161616"/>
</svg>
