<svg width="20" height="20" viewBox="0 0 20 20" fill="none" xmlns="http://www.w3.org/2000/svg">
<path fill-rule="evenodd" clip-rule="evenodd" d="M12.8093 4.21831C12.044 4.33427 11.4161 4.70769 11.1869 4.93689L10.2905 5.83335L14.1667 9.70958L15.0631 8.81314C15.0631 8.81314 15.0631 8.81314 15.0631 8.81314C15.2923 8.58391 15.6658 7.95605 15.7817 7.19072C15.8937 6.45158 15.7602 5.63392 15.0632 4.9369C14.3661 4.23988 13.5485 4.10632 12.8093 4.21831ZM12.6595 3.2296C13.6391 3.08117 14.8006 3.26014 15.7703 4.2298C16.7399 5.19944 16.9189 6.36093 16.7704 7.34053C16.626 8.29393 16.1661 9.1244 15.7703 9.52022L14.5203 10.7702C14.4265 10.864 14.2993 10.9167 14.1667 10.9167C14.0341 10.9167 13.9069 10.864 13.8132 10.7702L9.22982 6.1869C9.03456 5.99164 9.03456 5.67506 9.22982 5.4798L10.4798 4.22981C10.4798 4.22981 10.4798 4.2298 10.4798 4.22981C10.8756 3.83397 11.7061 3.37405 12.6595 3.2296Z" fill="#161616"/>
<path fill-rule="evenodd" clip-rule="evenodd" d="M17.8535 2.14645C18.0488 2.34171 18.0488 2.65829 17.8535 2.85355L15.7702 4.93689C15.5749 5.13215 15.2583 5.13215 15.0631 4.93689C14.8678 4.74162 14.8678 4.42504 15.0631 4.22978L17.1464 2.14645C17.3417 1.95118 17.6583 1.95118 17.8535 2.14645Z" fill="#161616"/>
<path fill-rule="evenodd" clip-rule="evenodd" d="M5.83339 9.08331C5.966 9.08331 6.09318 9.13599 6.18694 9.22976L10.7703 13.8131C10.9655 14.0084 10.9655 14.3249 10.7703 14.5202L9.52029 15.7702C9.12448 16.166 8.29399 16.626 7.34059 16.7704C6.36097 16.9188 5.19948 16.7399 4.22984 15.7702C3.26019 14.8006 3.08123 13.6391 3.22966 12.6595C3.37411 11.7061 3.83403 10.8756 4.22983 10.4798L5.47984 9.22976C5.57361 9.13599 5.70078 9.08331 5.83339 9.08331ZM5.83339 10.2904L4.93696 11.1869C4.93695 11.1869 4.93696 11.1869 4.93696 11.1869C4.70775 11.4161 4.33433 12.0439 4.21837 12.8093C4.10638 13.5484 4.23993 14.3661 4.93694 15.0631C5.63396 15.7601 6.45164 15.8937 7.19078 15.7817C7.95613 15.6657 8.58397 15.2923 8.81316 15.0631L9.70962 14.1666L5.83339 10.2904Z" fill="#161616"/>
<path fill-rule="evenodd" clip-rule="evenodd" d="M11.6036 11.3131C11.7989 11.5084 11.7989 11.825 11.6036 12.0202L9.93693 13.6869C9.74167 13.8822 9.42508 13.8822 9.22982 13.6869C9.03456 13.4916 9.03456 13.1751 9.22982 12.9798L10.8965 11.3131C11.0917 11.1179 11.4083 11.1179 11.6036 11.3131Z" fill="#161616"/>
<path fill-rule="evenodd" clip-rule="evenodd" d="M4.93689 15.0631C5.13215 15.2584 5.13215 15.575 4.93689 15.7702L2.85355 17.8536C2.65829 18.0488 2.34171 18.0488 2.14645 17.8536C1.95118 17.6583 1.95118 17.3417 2.14645 17.1465L4.22978 15.0631C4.42504 14.8679 4.74162 14.8679 4.93689 15.0631Z" fill="#161616"/>
<path fill-rule="evenodd" clip-rule="evenodd" d="M8.68685 8.39645C8.88211 8.59171 8.88211 8.90829 8.68685 9.10355L7.02018 10.7702C6.82492 10.9655 6.50833 10.9655 6.31307 10.7702C6.11781 10.575 6.11781 10.2584 6.31307 10.0631L7.97974 8.39645C8.175 8.20118 8.49158 8.20118 8.68685 8.39645Z" fill="#161616"/>
</svg>
