<svg width="20" height="20" viewBox="0 0 20 20" fill="none" xmlns="http://www.w3.org/2000/svg">
<path fill-rule="evenodd" clip-rule="evenodd" d="M9.49996 2.18233C5.40671 2.44017 2.16663 5.84168 2.16663 9.99996C2.16663 14.3262 5.67373 17.8333 9.99996 17.8333C14.1582 17.8333 17.5598 14.5932 17.8176 10.5H9.99996C9.72382 10.5 9.49996 10.2761 9.49996 9.99996V2.18233ZM1.16663 9.99996C1.16663 5.12144 5.12144 1.16663 9.99996 1.16663C10.2761 1.16663 10.5 1.39048 10.5 1.66663V9.49996H18.3333C18.6094 9.49996 18.8333 9.72382 18.8333 9.99996C18.8333 14.8785 14.8785 18.8333 9.99996 18.8333C5.12144 18.8333 1.16663 14.8785 1.16663 9.99996Z" fill="#161616"/>
<path fill-rule="evenodd" clip-rule="evenodd" d="M12.2041 1.64504C12.3324 1.55084 12.498 1.52338 12.6498 1.57107C15.3976 2.43409 17.5659 4.60238 18.4289 7.35014C18.4766 7.50201 18.4491 7.66752 18.3549 7.79584C18.2607 7.92416 18.111 7.99996 17.9518 7.99996H12.5C12.2239 7.99996 12 7.7761 12 7.49996V2.0481C12 1.88891 12.0758 1.73924 12.2041 1.64504ZM13 2.76148V6.99996H17.2385C16.4445 5.08657 14.9134 3.55545 13 2.76148Z" fill="#161616"/>
</svg>
