<svg xmlns="http://www.w3.org/2000/svg" xmlns:xlink="http://www.w3.org/1999/xlink" fill="none" version="1.1" width="128" height="128" viewBox="0 0 128 128"><g><g><path d="M108.50905054473877,93.12900245056153C112.91105054473877,86.37790245056152,115.59905054473877,78.83630245056152,116.57505054473877,71.11940245056152C118.27505054473878,57.672302450561524,114.77205054473878,43.69320245056152,106.06825054473877,32.43810245056152C90.26525054473876,11.897654450561523,61.30565054473877,5.7302724505615235,38.24765054473877,19.041592450561524C37.05195054473877,19.731902450561524,36.64225054473877,21.260822450561523,37.33265054473877,22.456502450561523C38.023050544738766,23.652202450561525,39.55205054473877,24.061902450561526,40.74785054473877,23.371602450561525C59.71105054473877,12.424212450561523,83.08565054473877,16.038542450561522,97.92175054473877,30.744602450561523C97.97125054473877,30.804302450561522,98.02405054473877,30.862302450561522,98.08005054473877,30.918302450561523C99.52565054473877,32.36380245056152,100.85855054473878,33.879302450561525,102.07885054473877,35.453802450561525C103.36145054473877,37.11740245056153,104.54855054473877,38.88540245056153,105.62785054473876,40.75460245056152C107.38585054473877,43.79930245056153,108.76845054473877,46.95780245056152,109.78985054473877,50.17650245056152C113.97205054473876,63.43940245056152,112.19505054473876,78.17530245056152,104.45635054473877,90.18600245056152C102.65425054473877,92.98310245056152,100.52875054473877,95.63250245056152,98.08005054473877,98.08100245056153C96.58175054473877,99.57920245056152,95.00825054473877,100.95630245056152,93.37175054473877,102.21240245056153C91.75845054473876,103.44420245056152,90.04795054473877,104.58670245056152,88.24315054473877,105.62860245056153C85.29395054473876,107.33110245056152,82.23805054473877,108.68150245056152,79.12415054473877,109.69270245056153C72.28325054473876,111.90050245056152,65.04055054473878,112.51740245056152,57.97505054473877,111.54380245056153C51.27325054473877,110.61030245056152,44.80345054473877,108.25580245056152,39.04365054473877,104.60810245056152C36.15895054473877,102.77410245056153,33.42905054473877,100.59840245056152,30.91135054473877,98.08100245056153C29.37985054473877,96.54960245056152,27.97485054473877,94.93970245056153,26.696250544738767,93.26420245056153C25.496150544738768,91.68330245056153,24.38165054473877,90.00950245056153,23.36325054473877,88.24570245056152C23.32365054473877,88.17710245056152,23.281250544738768,88.11110245056152,23.23625054473877,88.04770245056153C12.86966254473877,69.91210245056152,15.42802054473877,46.400302450561526,30.91135054473877,30.918302450561523C31.88775054473877,29.942102450561524,31.88775054473877,28.359202450561522,30.91135054473877,27.383002450561523C29.93505054473877,26.406702450561525,28.35205054473877,26.406702450561525,27.375650544738768,27.383002450561523C8.51542054473877,46.241502450561526,7.00586054473877,75.87990245056153,22.84765054473877,96.46380245056152C26.60775054473877,101.37510245056153,31.11845054473877,105.46880245056153,36.12095054473877,108.67560245056153C42.72605054473877,112.92640245056153,50.07595054473877,115.54740245056152,57.59955054473877,116.53840245056152C65.12555054473877,117.54140245056152,72.90815054473876,116.92340245056153,80.39455054473876,114.53740245056153C86.13915054473877,112.71740245056152,91.63245054473877,109.88570245056152,96.59495054473877,106.04190245056152C101.36365054473877,102.36740245056153,105.35635054473877,97.98350245056152,108.50905054473877,93.12900245056153Z" fill-rule="evenodd" fill="#FA4D56" fill-opacity="1"/></g><g><path d="M82.5018,45.732122C83.4781,46.70843,83.4781,48.29135,82.5018,49.26766L67.7695,63.9999L82.7358,78.96629999999999C83.71209999999999,79.9426,83.71209999999999,81.5255,82.7358,82.5018C81.7595,83.4781,80.17660000000001,83.4781,79.2003,82.5018L64.23400000000001,67.5355L49.26776,82.5017C48.29145,83.47800000000001,46.70853,83.47800000000001,45.732224,82.5017C44.755917,81.52539999999999,44.75592,79.94239999999999,45.732224,78.9661L60.6984,63.9999L45.966253,49.26777C44.9899439,48.29146,44.9899439,46.70854,45.966253,45.732233C46.94256,44.755924,48.52548,44.755924,49.50179,45.732233L64.23400000000001,60.4644L78.9662,45.732122C79.9426,44.755813,81.5255,44.755813,82.5018,45.732122Z" fill-rule="evenodd" fill="#FA4D56" fill-opacity="1"/></g></g></svg>