<svg width="20" height="20" viewBox="0 0 20 20" fill="none" xmlns="http://www.w3.org/2000/svg">
<path fill-rule="evenodd" clip-rule="evenodd" d="M9.68761 1.27619C9.87022 1.1301 10.1297 1.1301 10.3123 1.27619L18.6456 7.94286C18.7642 8.03774 18.8333 8.1814 18.8333 8.33329V18.3333C18.8333 18.6094 18.6094 18.8333 18.3333 18.8333H13.3333C13.0571 18.8333 12.8333 18.6094 12.8333 18.3333V11.3333H7.16663V18.3333C7.16663 18.6094 6.94277 18.8333 6.66663 18.8333H1.66663C1.39048 18.8333 1.16663 18.6094 1.16663 18.3333V8.33329C1.16663 8.1814 1.23567 8.03774 1.35428 7.94286L9.68761 1.27619ZM2.16663 8.5736V17.8333H6.16663V10.8333C6.16663 10.5571 6.39048 10.3333 6.66663 10.3333H13.3333C13.6094 10.3333 13.8333 10.5571 13.8333 10.8333V17.8333H17.8333V8.5736L9.99996 2.30694L2.16663 8.5736Z" fill="#161616"/>
</svg>
