<svg xmlns="http://www.w3.org/2000/svg" xmlns:xlink="http://www.w3.org/1999/xlink" fill="none" version="1.1" width="16" height="16" viewBox="0 0 16 16"><defs><clipPath id="master_svg0_0_6300"><rect x="0" y="0" width="16" height="16" rx="0"/></clipPath></defs><g clip-path="url(#master_svg0_0_6300)"><g><path d="M3.999999761581421,9C4.552279761581421,9,4.999999761581421,8.55228,4.999999761581421,8C4.999999761581421,7.447715,4.552279761581421,7,3.999999761581421,7C3.447714761581421,7,2.999999761581421,7.447715,2.999999761581421,8C2.999999761581421,8.55228,3.447714761581421,9,3.999999761581421,9C3.999999761581421,9,3.999999761581421,9,3.999999761581421,9Z" fill="#161616" fill-opacity="1"/></g><g><path d="M8,9C8.55228,9,9,8.55228,9,8C9,7.447715,8.55228,7,8,7C7.447715,7,7,7.447715,7,8C7,8.55228,7.447715,9,8,9C8,9,8,9,8,9Z" fill="#161616" fill-opacity="1"/></g><g><path d="M12,9C12.55228,9,13,8.55228,13,8C13,7.447715,12.55228,7,12,7C11.447715,7,11,7.447715,11,8C11,8.55228,11.447715,9,12,9C12,9,12,9,12,9Z" fill="#161616" fill-opacity="1"/></g></g></svg>