<svg xmlns="http://www.w3.org/2000/svg" xmlns:xlink="http://www.w3.org/1999/xlink" fill="none" version="1.1" width="16" height="16" viewBox="0 0 16 16"><defs><clipPath id="master_svg0_0_75977"><rect x="0" y="0" width="16" height="16" rx="0"/></clipPath></defs><g clip-path="url(#master_svg0_0_75977)"><g><path d="M8.00016609375,14.666551953125C9.84109609375,14.666551953125,11.50779609375,13.920351953125,12.71419609375,12.713951953125C13.92059609375,11.507551953125,14.66679609375,9.840851953125,14.66679609375,7.999921953125C14.66679609375,6.158981953125,13.92059609375,4.492321953125,12.71419609375,3.285871953125C11.50779609375,2.079444953125,9.84109609375,1.333251953125,8.00016609375,1.333251953125C6.15922609375,1.333251953125,4.49256609375,2.079444953125,3.28611609375,3.285871953125C2.07968909375,4.492321953125,1.33349609375,6.158981953125,1.33349609375,7.999921953125C1.33349609375,9.840851953125,2.07968909375,11.507551953125,3.28611609375,12.713951953125C4.49256609375,13.920351953125,6.15922609375,14.666551953125,8.00016609375,14.666551953125ZM8.55019609375,4.330031953125C8.55019609375,4.026271953125001,8.30395609375,3.780031953125,8.000196093749999,3.780031953125C7.69643609375,3.780031953125,7.45019609375,4.026271953125001,7.45019609375,4.330031953125L7.45019609375,9.330031953125001C7.45019609375,9.633791953125,7.69643609375,9.880031953125,8.000196093749999,9.880031953125C8.30395609375,9.880031953125,8.55019609375,9.633791953125,8.55019609375,9.330031953125001L8.55019609375,4.330031953125ZM7.99983609375,12.333451953125C8.46007609375,12.333451953125,8.83317609375,11.960351953125,8.83317609375,11.500051953125C8.83317609375,11.039851953125,8.46007609375,10.666751953125,7.99983609375,10.666751953125C7.53960609375,10.666751953125,7.16650609375,11.039851953125,7.16650609375,11.500051953125C7.16650609375,11.960351953125,7.53960609375,12.333451953125,7.99983609375,12.333451953125Z" fill-rule="evenodd" fill="#1192E8" fill-opacity="1"/></g></g></svg>