<svg width="20" height="20" viewBox="0 0 20 20" fill="none" xmlns="http://www.w3.org/2000/svg">
<path fill-rule="evenodd" clip-rule="evenodd" d="M9.40001 2.28958C5.4094 2.5958 2.26668 5.93088 2.26668 9.99998C2.26668 14.271 5.72901 17.7333 10 17.7333C14.0691 17.7333 17.4042 14.5906 17.7104 10.6H10C9.66864 10.6 9.40001 10.3314 9.40001 9.99998V2.28958ZM1.06668 9.99998C1.06668 5.06624 5.06627 1.06665 10 1.06665C10.3314 1.06665 10.6 1.33528 10.6 1.66665V9.39998H18.3333C18.6647 9.39998 18.9333 9.66861 18.9333 9.99998C18.9333 14.9337 14.9338 18.9333 10 18.9333C5.06627 18.9333 1.06668 14.9337 1.06668 9.99998Z" fill="#161616"/>
<path fill-rule="evenodd" clip-rule="evenodd" d="M12.1449 1.56445C12.2989 1.45142 12.4975 1.41846 12.6798 1.47569C15.4587 2.34851 17.6515 4.54124 18.5243 7.3202C18.5815 7.50245 18.5485 7.70106 18.4355 7.85504C18.3225 8.00903 18.1428 8.09999 17.9518 8.09999H12.5C12.1686 8.09999 11.9 7.83136 11.9 7.49999V2.04812C11.9 1.8571 11.991 1.67749 12.1449 1.56445ZM13.1 2.91286V6.89999H17.0871C16.308 5.12152 14.8785 3.69199 13.1 2.91286Z" fill="#161616"/>
</svg>
