<svg xmlns="http://www.w3.org/2000/svg" xmlns:xlink="http://www.w3.org/1999/xlink" fill="none" version="1.1" width="12" height="12" viewBox="0 0 12 12"><defs><clipPath id="master_svg0_0_16912"><rect x="0" y="0" width="12" height="12" rx="0"/></clipPath></defs><g clip-path="url(#master_svg0_0_16912)"><g><path d="M1.6464466423721313,1.6464466423721313C1.4511839423721313,1.8417086423721314,1.4511839423721313,2.1582906423721315,1.6464466423721313,2.353552642372131L9.646449642372131,10.353549642372132C9.841709642372132,10.54881964237213,10.15828964237213,10.54881964237213,10.353549642372132,10.353549642372132C10.54881964237213,10.15828964237213,10.54881964237213,9.841709642372132,10.353549642372132,9.646449642372131L2.353552642372131,1.6464466423721313C2.1582906423721315,1.4511839423721313,1.8417086423721314,1.4511839423721313,1.6464466423721313,1.6464466423721313Z" fill="#FA4D56" fill-opacity="1"/></g><g><path d="M1.6464466423721313,9.646449642372131C1.4511839423721313,9.841709642372132,1.4511839423721313,10.15828964237213,1.6464466423721313,10.353549642372132C1.8417086423721314,10.54881964237213,2.1582906423721315,10.54881964237213,2.353552642372131,10.353549642372132L10.353549642372132,2.353552642372131C10.54881964237213,2.1582906423721315,10.54881964237213,1.8417086423721314,10.353549642372132,1.6464466423721313C10.15828964237213,1.4511839423721313,9.841709642372132,1.4511839423721313,9.646449642372131,1.6464466423721313L1.6464466423721313,9.646449642372131Z" fill="#FA4D56" fill-opacity="1"/></g></g></svg>