<svg xmlns="http://www.w3.org/2000/svg" xmlns:xlink="http://www.w3.org/1999/xlink" fill="none" version="1.1" width="12" height="12" viewBox="0 0 12 12"><defs><clipPath id="master_svg0_0_16908"><rect x="0" y="0" width="12" height="12" rx="0"/></clipPath></defs><g clip-path="url(#master_svg0_0_16908)"><g><path d="M11.102700178813935,3.1044C11.298400178813935,2.9096070000000003,11.299200178813935,2.593025,11.104400178813934,2.397295C10.909600178813934,2.2015661,10.593030178813935,2.2008061,10.397290178813934,2.3956C10.397290178813934,2.3956,11.102700178813935,3.1044,11.102700178813935,3.1044C11.102700178813935,3.1044,11.102700178813935,3.1044,11.102700178813935,3.1044ZM4.218750178813934,9.25C4.218750178813934,9.25,3.8660501788139343,9.6044,3.8660501788139343,9.6044C4.0611101788139345,9.79853,4.376390178813934,9.79853,4.571450178813935,9.6044C4.571450178813935,9.6044,4.218750178813934,9.25,4.218750178813934,9.25C4.218750178813934,9.25,4.218750178813934,9.25,4.218750178813934,9.25ZM1.6027051788139344,5.941050000000001C1.4069751788139344,5.7462599999999995,1.0903941788139342,5.74702,0.8956001788139343,5.94275C0.7008068788139343,6.1384799999999995,0.7015658788139343,6.45506,0.8972951788139343,6.64985C0.8972951788139343,6.64985,1.6027051788139344,5.941050000000001,1.6027051788139344,5.941050000000001C1.6027051788139344,5.941050000000001,1.6027051788139344,5.941050000000001,1.6027051788139344,5.941050000000001ZM10.397290178813934,2.3956C10.397290178813934,2.3956,3.8660501788139343,8.8956,3.8660501788139343,8.8956C3.8660501788139343,8.8956,4.571450178813935,9.6044,4.571450178813935,9.6044C4.571450178813935,9.6044,11.102700178813935,3.1044,11.102700178813935,3.1044C11.102700178813935,3.1044,10.397290178813934,2.3956,10.397290178813934,2.3956C10.397290178813934,2.3956,10.397290178813934,2.3956,10.397290178813934,2.3956ZM4.571450178813935,8.8956C4.571450178813935,8.8956,1.6027051788139344,5.941050000000001,1.6027051788139344,5.941050000000001C1.6027051788139344,5.941050000000001,0.8972951788139343,6.64985,0.8972951788139343,6.64985C0.8972951788139343,6.64985,3.8660501788139343,9.6044,3.8660501788139343,9.6044C3.8660501788139343,9.6044,4.571450178813935,8.8956,4.571450178813935,8.8956C4.571450178813935,8.8956,4.571450178813935,8.8956,4.571450178813935,8.8956Z" fill="#24A148" fill-opacity="1"/></g></g></svg>