<svg width="20" height="20" viewBox="0 0 20 20" fill="none" xmlns="http://www.w3.org/2000/svg">
<path fill-rule="evenodd" clip-rule="evenodd" d="M5.31624 2.61243C5.42405 2.42917 5.62078 2.31665 5.8334 2.31665H14.1668C14.3794 2.31665 14.5761 2.42918 14.6839 2.61245L18.8505 9.69578C18.9609 9.88354 18.9609 10.1164 18.8505 10.3042L14.6839 17.3875C14.5761 17.5708 14.3794 17.6833 14.1668 17.6833H5.8334C5.62078 17.6833 5.42405 17.5708 5.31624 17.3875L1.14949 10.3042C1.03904 10.1164 1.03904 9.88354 1.14949 9.69577L5.31624 2.61243ZM6.17656 3.51665L2.36276 9.99998L6.17656 16.4833H13.8236L17.6372 9.99998L13.8236 3.51665H6.17656Z" fill="#161616"/>
<path fill-rule="evenodd" clip-rule="evenodd" d="M7.31665 9.99998C7.31665 8.51803 8.51803 7.31665 9.99998 7.31665C11.4819 7.31665 12.6833 8.51803 12.6833 9.99998C12.6833 11.4819 11.4819 12.6833 9.99998 12.6833C8.51803 12.6833 7.31665 11.4819 7.31665 9.99998ZM9.99998 8.51665C9.18077 8.51665 8.51665 9.18077 8.51665 9.99998C8.51665 10.8192 9.18077 11.4833 9.99998 11.4833C10.8192 11.4833 11.4833 10.8192 11.4833 9.99998C11.4833 9.18077 10.8192 8.51665 9.99998 8.51665Z" fill="#161616"/>
</svg>
