<svg width="20" height="20" viewBox="0 0 20 20" fill="none" xmlns="http://www.w3.org/2000/svg">
<path fill-rule="evenodd" clip-rule="evenodd" d="M1.89999 3.33336C1.89999 2.54175 2.54172 1.90002 3.33333 1.90002H7.49999C8.29162 1.90002 8.93333 2.54176 8.93333 3.33336V7.50002C8.93333 8.29165 8.29162 8.93336 7.49999 8.93336H3.33333C2.54172 8.93336 1.89999 8.29165 1.89999 7.50002V3.33336ZM3.33333 3.10002C3.20446 3.10002 3.09999 3.20449 3.09999 3.33336V7.50002C3.09999 7.6289 3.20445 7.73336 3.33333 7.73336H7.49999C7.62887 7.73336 7.73333 7.6289 7.73333 7.50002V3.33336C7.73333 3.20449 7.62887 3.10002 7.49999 3.10002H3.33333Z" fill="#161616"/>
<path fill-rule="evenodd" clip-rule="evenodd" d="M1.89999 12.5C1.89999 11.7084 2.54172 11.0667 3.33333 11.0667H7.49999C8.29162 11.0667 8.93333 11.7084 8.93333 12.5V16.6667C8.93333 17.4583 8.29162 18.1 7.49999 18.1H3.33333C2.54172 18.1 1.89999 17.4583 1.89999 16.6667V12.5ZM3.33333 12.2667C3.20445 12.2667 3.09999 12.3711 3.09999 12.5V16.6667C3.09999 16.7955 3.20445 16.9 3.33333 16.9H7.49999C7.62887 16.9 7.73333 16.7955 7.73333 16.6667V12.5C7.73333 12.3711 7.62887 12.2667 7.49999 12.2667H3.33333Z" fill="#161616"/>
<path fill-rule="evenodd" clip-rule="evenodd" d="M11.0667 5.41669C11.0667 3.47449 12.6411 1.90002 14.5833 1.90002C16.5255 1.90002 18.1 3.47449 18.1 5.41669C18.1 7.3589 16.5255 8.93336 14.5833 8.93336C12.6411 8.93336 11.0667 7.3589 11.0667 5.41669ZM14.5833 3.10002C13.3039 3.10002 12.2667 4.13723 12.2667 5.41669C12.2667 6.69615 13.3039 7.73336 14.5833 7.73336C15.8628 7.73336 16.9 6.69615 16.9 5.41669C16.9 4.13723 15.8628 3.10002 14.5833 3.10002Z" fill="#161616"/>
<path fill-rule="evenodd" clip-rule="evenodd" d="M11.0667 12.5C11.0667 11.7084 11.7084 11.0667 12.5 11.0667H16.6667C17.4583 11.0667 18.1 11.7084 18.1 12.5V16.6667C18.1 17.4583 17.4583 18.1 16.6667 18.1H12.5C11.7084 18.1 11.0667 17.4583 11.0667 16.6667V12.5ZM12.5 12.2667C12.3711 12.2667 12.2667 12.3711 12.2667 12.5V16.6667C12.2667 16.7955 12.3711 16.9 12.5 16.9H16.6667C16.7955 16.9 16.9 16.7955 16.9 16.6667V12.5C16.9 12.3711 16.7955 12.2667 16.6667 12.2667H12.5Z" fill="#161616"/>
</svg>
