<svg width="20" height="20" viewBox="0 0 20 20" fill="none" xmlns="http://www.w3.org/2000/svg">
<path fill-rule="evenodd" clip-rule="evenodd" d="M4.40002 1.66665C4.40002 1.33528 4.66865 1.06665 5.00002 1.06665H15C15.3314 1.06665 15.6 1.33528 15.6 1.66665V7.35294C15.6 10.5104 13.1091 13.1 10 13.1C6.89096 13.1 4.40002 10.5104 4.40002 7.35294V1.66665ZM5.60002 2.26665V7.35294C5.60002 9.88071 7.58625 11.9 10 11.9C12.4138 11.9 14.4 9.88071 14.4 7.35294V2.26665H5.60002Z" fill="#161616"/>
<path fill-rule="evenodd" clip-rule="evenodd" d="M1.06665 4.58334C1.06665 4.25197 1.33528 3.98334 1.66665 3.98334H4.99998C5.33135 3.98334 5.59998 4.25197 5.59998 4.58334V8.75C5.59998 9.08137 5.33135 9.35 4.99998 9.35C2.94405 9.35 1.06665 7.63147 1.06665 4.58334ZM2.29635 5.18334C2.47338 6.90983 3.41509 7.81562 4.39998 8.07241V5.18334H2.29635Z" fill="#161616"/>
<path fill-rule="evenodd" clip-rule="evenodd" d="M14.4 4.58334C14.4 4.25197 14.6687 3.98334 15 3.98334H18.3334C18.6647 3.98334 18.9334 4.25197 18.9334 4.58334C18.9334 7.63147 17.056 9.35 15 9.35C14.6687 9.35 14.4 9.08137 14.4 8.75V4.58334ZM15.6 5.18334V8.07241C16.5849 7.81562 17.5266 6.90983 17.7037 5.18334H15.6Z" fill="#161616"/>
<path fill-rule="evenodd" clip-rule="evenodd" d="M10 12.7333C10.3314 12.7333 10.6 13.002 10.6 13.3333V15C10.6 15.3314 10.3314 15.6 10 15.6C9.66865 15.6 9.40002 15.3314 9.40002 15V13.3333C9.40002 13.002 9.66865 12.7333 10 12.7333Z" fill="#161616"/>
<path fill-rule="evenodd" clip-rule="evenodd" d="M7.27644 14.6857C7.38562 14.5082 7.57911 14.4 7.78752 14.4H12.1011C12.3027 14.4 12.4909 14.5013 12.6019 14.6697L14.2509 17.1697C14.3724 17.3539 14.383 17.5901 14.2783 17.7844C14.1737 17.9788 13.9708 18.1 13.75 18.1H6.25002C6.03269 18.1 5.83234 17.9825 5.72629 17.7928C5.62025 17.6031 5.62509 17.3708 5.73894 17.1857L7.27644 14.6857ZM8.12291 15.6L7.32341 16.9H12.6355L11.7781 15.6H8.12291Z" fill="#161616"/>
</svg>
