<svg width="20" height="20" viewBox="0 0 20 20" fill="none" xmlns="http://www.w3.org/2000/svg">
<path fill-rule="evenodd" clip-rule="evenodd" d="M2.73333 2.49998C2.73333 1.70838 3.37505 1.06665 4.16666 1.06665H12.9167C13.0868 1.06665 13.2489 1.13884 13.3626 1.26527L17.1126 5.43194C17.2118 5.54211 17.2667 5.68509 17.2667 5.83332V9.58332C17.2667 9.91469 16.998 10.1833 16.6667 10.1833C16.3353 10.1833 16.0667 9.91469 16.0667 9.58332V6.06356L12.6494 2.26665H4.16666C4.0378 2.26665 3.93333 2.37112 3.93333 2.49998V17.5C3.93333 17.6289 4.03779 17.7333 4.16666 17.7333H9.16666C9.49803 17.7333 9.76666 18.0019 9.76666 18.3333C9.76666 18.6647 9.49803 18.9333 9.16666 18.9333H4.16666C3.37506 18.9333 2.73333 18.2916 2.73333 17.5V2.49998Z" fill="#161616"/>
<path fill-rule="evenodd" clip-rule="evenodd" d="M14.9924 12.4924C15.2267 12.2581 15.6066 12.2581 15.8409 12.4924L17.9243 14.5757C18.1586 14.81 18.1586 15.1899 17.9243 15.4242L15.8409 17.5076C15.6066 17.7419 15.2267 17.7419 14.9924 17.5076C14.7581 17.2733 14.7581 16.8934 14.9924 16.6591L16.6515 15L14.9924 13.3409C14.7581 13.1066 14.7581 12.7267 14.9924 12.4924Z" fill="#161616"/>
<path fill-rule="evenodd" clip-rule="evenodd" d="M13.3409 12.4924C13.5752 12.7267 13.5752 13.1066 13.3409 13.3409L11.6819 15L13.3409 16.6591C13.5752 16.8934 13.5752 17.2733 13.3409 17.5076C13.1066 17.7419 12.7267 17.7419 12.4924 17.5076L10.4091 15.4242C10.1748 15.1899 10.1748 14.81 10.4091 14.5757L12.4924 12.4924C12.7267 12.2581 13.1066 12.2581 13.3409 12.4924Z" fill="#161616"/>
<path fill-rule="evenodd" clip-rule="evenodd" d="M12.5 1.06665C12.8314 1.06665 13.1 1.33528 13.1 1.66665V5.23332H16.6667C16.998 5.23332 17.2667 5.50195 17.2667 5.83332C17.2667 6.16469 16.998 6.43332 16.6667 6.43332H12.5C12.1686 6.43332 11.9 6.16469 11.9 5.83332V1.66665C11.9 1.33528 12.1686 1.06665 12.5 1.06665Z" fill="#161616"/>
</svg>
