<svg xmlns="http://www.w3.org/2000/svg" xmlns:xlink="http://www.w3.org/1999/xlink" fill="none" version="1.1" width="20.166748046875" height="20.3077392578125" viewBox="0 0 20.166748046875 20.3077392578125"><g><rect x="0" y="0" width="20.16666603088379" height="20.30769157409668" rx="10.083333015441895" fill="#FFFFFF" fill-opacity="1"/><g><g><g><g><path d="M10.083329761581421,13.384616629638671C11.85524976158142,13.384616629638671,13.29166976158142,11.938146629638672,13.29166976158142,10.153846629638672C13.29166976158142,8.369536629638672,11.85524976158142,6.923076629638672,10.083329761581421,6.923076629638672C8.311419761581421,6.923076629638672,6.874999761581421,8.369536629638672,6.874999761581421,10.153846629638672C6.874999761581421,11.938146629638672,8.311419761581421,13.384616629638671,10.083329761581421,13.384616629638671ZM10.083329761581421,12.384616629638671Q10.996009761581421,12.384616629638671,11.642399761581421,11.733706629638672Q12.29166976158142,11.079896629638672,12.29166976158142,10.153846629638672Q12.29166976158142,9.227786629638672,11.642399761581421,8.573986629638672Q10.99601976158142,7.923076629638672,10.083329761581421,7.923076629638672Q9.170649761581421,7.923076629638672,8.52425976158142,8.573986629638672Q7.874999761581421,9.227786629638672,7.874999761581421,10.153846629638672Q7.874999761581421,11.079896629638672,8.52426976158142,11.733706629638672Q9.17065976158142,12.384616629638671,10.083329761581421,12.384616629638671Z" fill-rule="evenodd" fill="#161616" fill-opacity="1"/></g><g><path d="M10.083336358709335,15.21232301273346C9.831246358709336,15.21232301273346,9.624996358709335,15.023073012733459,9.624996358709335,14.76923301273346C9.624996358709335,14.76923301273346,9.624996358709335,14.732303012733459,9.624996358709335,14.732303012733459C9.624996358709335,14.47846301273346,9.831246358709336,14.270773012733459,10.083336358709335,14.270773012733459C10.335416358709335,14.270773012733459,10.541666358709335,14.47846301273346,10.541666358709335,14.732303012733459C10.541666358709335,14.98615301273346,10.335416358709335,15.21232301273346,10.083336358709335,15.21232301273346C10.083336358709335,15.21232301273346,10.083336358709335,15.21232301273346,10.083336358709335,15.21232301273346ZM13.355836358709336,13.91077301273346C13.236666358709336,13.91077301273346,13.122086358709335,13.864613012733459,13.030416358709335,13.776923012733459C13.030416358709335,13.776923012733459,12.970836358709334,13.71692301273346,12.970836358709334,13.71692301273346C12.792086358709335,13.53692301273346,12.792086358709335,13.24615301273346,12.970836358709334,13.066153012733459C13.149586358709335,12.886153012733459,13.438336358709336,12.886153012733459,13.617086358709335,13.066153012733459C13.617086358709335,13.066153012733459,13.676666358709335,13.12615301273346,13.676666358709335,13.12615301273346C13.855416358709336,13.306153012733459,13.855416358709336,13.596923012733459,13.676666358709335,13.776923012733459C13.589586358709335,13.864613012733459,13.474996358709335,13.91077301273346,13.355836358709336,13.91077301273346C13.355836358709336,13.91077301273346,13.355836358709336,13.91077301273346,13.355836358709336,13.91077301273346ZM6.810836358709335,13.91077301273346C6.691666358709336,13.91077301273346,6.577086358709336,13.864613012733459,6.485416358709335,13.776923012733459C6.306666358709335,13.596923012733459,6.306666358709335,13.306153012733459,6.485416358709335,13.12615301273346C6.485416358709335,13.12615301273346,6.544996358709335,13.066153012733459,6.544996358709335,13.066153012733459C6.723746358709335,12.886153012733459,7.012496358709336,12.886153012733459,7.191246358709336,13.066153012733459C7.369996358709335,13.24615301273346,7.369996358709335,13.53692301273346,7.191246358709336,13.71692301273346C7.191246358709336,13.71692301273346,7.131666358709335,13.776923012733459,7.131666358709335,13.776923012733459C7.044586358709335,13.864613012733459,6.925416358709335,13.91077301273346,6.810836358709335,13.91077301273346C6.810836358709335,13.91077301273346,6.810836358709335,13.91077301273346,6.810836358709335,13.91077301273346ZM14.666666358709335,10.61538301273346C14.666666358709335,10.61538301273346,14.629996358709334,10.61538301273346,14.629996358709334,10.61538301273346C14.377916358709335,10.61538301273346,14.171666358709336,10.40769301273346,14.171666358709336,10.15384301273346C14.171666358709336,9.90000301273346,14.377916358709335,9.69230301273346,14.629996358709334,9.69230301273346C14.882086358709335,9.69230301273346,15.106666358709335,9.90000301273346,15.106666358709335,10.15384301273346C15.106666358709335,10.40769301273346,14.918746358709335,10.61538301273346,14.666666358709335,10.61538301273346C14.666666358709335,10.61538301273346,14.666666358709335,10.61538301273346,14.666666358709335,10.61538301273346ZM5.536666358709335,10.61538301273346C5.536666358709335,10.61538301273346,5.499999358709335,10.61538301273346,5.499999358709335,10.61538301273346C5.247916358709335,10.61538301273346,5.041666358709335,10.40769301273346,5.041666358709335,10.15384301273346C5.041666358709335,9.90000301273346,5.247916358709335,9.69230301273346,5.499999358709335,9.69230301273346C5.752083358709335,9.69230301273346,5.976666358709336,9.90000301273346,5.976666358709336,10.15384301273346C5.976666358709336,10.40769301273346,5.788749358709335,10.61538301273346,5.536666358709335,10.61538301273346C5.536666358709335,10.61538301273346,5.536666358709335,10.61538301273346,5.536666358709335,10.61538301273346ZM13.296246358709336,7.380003012733459C13.177086358709335,7.380003012733459,13.062496358709335,7.3338430127334595,12.970836358709334,7.24615301273346C12.792086358709335,7.0661530127334595,12.792086358709335,6.775383012733459,12.970836358709334,6.59538301273346C12.970836358709334,6.59538301273346,13.030416358709335,6.53538301273346,13.030416358709335,6.53538301273346C13.209166358709336,6.355383012733459,13.497916358709336,6.355383012733459,13.676666358709335,6.53538301273346C13.855416358709336,6.71538301273346,13.855416358709336,7.00615301273346,13.676666358709335,7.18615301273346C13.676666358709335,7.18615301273346,13.617086358709335,7.24615301273346,13.617086358709335,7.24615301273346C13.529996358709335,7.3338430127334595,13.415416358709335,7.380003012733459,13.296246358709336,7.380003012733459C13.296246358709336,7.380003012733459,13.296246358709336,7.380003012733459,13.296246358709336,7.380003012733459ZM6.870416358709336,7.380003012733459C6.751246358709335,7.380003012733459,6.636666358709335,7.3338430127334595,6.544996358709335,7.24615301273346C6.544996358709335,7.24615301273346,6.485416358709335,7.18154301273346,6.485416358709335,7.18154301273346C6.306666358709335,7.0015430127334595,6.306666358709335,6.710773012733459,6.485416358709335,6.53077301273346C6.664166358709336,6.350773012733459,6.952916358709335,6.350773012733459,7.131666358709335,6.53077301273346C7.131666358709335,6.53077301273346,7.191246358709336,6.590773012733459,7.191246358709336,6.590773012733459C7.369996358709335,6.77077301273346,7.369996358709335,7.061543012733459,7.191246358709336,7.24154301273346C7.104166358709335,7.3338430127334595,6.984996358709335,7.380003012733459,6.870416358709336,7.380003012733459C6.870416358709336,7.380003012733459,6.870416358709336,7.380003012733459,6.870416358709336,7.380003012733459ZM10.083336358709335,6.018461012733459C9.831246358709336,6.018461012733459,9.624996358709335,5.82923101273346,9.624996358709335,5.575384012733459C9.624996358709335,5.575384012733459,9.624996358709335,5.5384610127334595,9.624996358709335,5.5384610127334595C9.624996358709335,5.284615012733459,9.831246358709336,5.0769230127334595,10.083336358709335,5.0769230127334595C10.335416358709335,5.0769230127334595,10.541666358709335,5.284615012733459,10.541666358709335,5.5384610127334595C10.541666358709335,5.79230801273346,10.335416358709335,6.018461012733459,10.083336358709335,6.018461012733459C10.083336358709335,6.018461012733459,10.083336358709335,6.018461012733459,10.083336358709335,6.018461012733459Z" fill="#161616" fill-opacity="1"/></g><g transform="matrix(-1,-1.2332108850775009e-16,1.2161425094458367e-16,-1,31.16666603088379,31.38461399078369)" style="opacity:0;"></g></g></g></g></g></svg>