<svg width="20" height="20" viewBox="0 0 20 20" fill="none" xmlns="http://www.w3.org/2000/svg">
<path fill-rule="evenodd" clip-rule="evenodd" d="M2 3.33333C2 2.59695 2.59695 2 3.33333 2H7.5C8.2364 2 8.83333 2.59696 8.83333 3.33333V7.5C8.83333 8.23639 8.23639 8.83333 7.5 8.83333H3.33333C2.59696 8.83333 2 8.2364 2 7.5V3.33333ZM3.33333 3C3.14924 3 3 3.14924 3 3.33333V7.5C3 7.6841 3.14923 7.83333 3.33333 7.83333H7.5C7.68411 7.83333 7.83333 7.68411 7.83333 7.5V3.33333C7.83333 3.14923 7.6841 3 7.5 3H3.33333Z" fill="#161616"/>
<path fill-rule="evenodd" clip-rule="evenodd" d="M2 12.5C2 11.7636 2.59696 11.1666 3.33333 11.1666H7.5C8.23639 11.1666 8.83333 11.7636 8.83333 12.5V16.6666C8.83333 17.403 8.23639 18 7.5 18H3.33333C2.59696 18 2 17.403 2 16.6666V12.5ZM3.33333 12.1666C3.14923 12.1666 3 12.3159 3 12.5V16.6666C3 16.8507 3.14923 17 3.33333 17H7.5C7.68411 17 7.83333 16.8507 7.83333 16.6666V12.5C7.83333 12.3159 7.68411 12.1666 7.5 12.1666H3.33333Z" fill="#161616"/>
<path fill-rule="evenodd" clip-rule="evenodd" d="M11.1666 5.41667C11.1666 3.5297 12.6963 2 14.5833 2C16.4703 2 18 3.5297 18 5.41667C18 7.30364 16.4703 8.83333 14.5833 8.83333C12.6963 8.83333 11.1666 7.30364 11.1666 5.41667ZM14.5833 3C13.2486 3 12.1666 4.08198 12.1666 5.41667C12.1666 6.75136 13.2486 7.83333 14.5833 7.83333C15.918 7.83333 17 6.75136 17 5.41667C17 4.08198 15.918 3 14.5833 3Z" fill="#161616"/>
<path fill-rule="evenodd" clip-rule="evenodd" d="M11.1666 12.5C11.1666 11.7636 11.7636 11.1666 12.5 11.1666H16.6666C17.403 11.1666 18 11.7636 18 12.5V16.6666C18 17.403 17.403 18 16.6666 18H12.5C11.7636 18 11.1666 17.403 11.1666 16.6666V12.5ZM12.5 12.1666C12.3159 12.1666 12.1666 12.3159 12.1666 12.5V16.6666C12.1666 16.8507 12.3159 17 12.5 17H16.6666C16.8507 17 17 16.8507 17 16.6666V12.5C17 12.3159 16.8507 12.1666 16.6666 12.1666H12.5Z" fill="#161616"/>
</svg>
