<svg xmlns="http://www.w3.org/2000/svg" xmlns:xlink="http://www.w3.org/1999/xlink" fill="none" version="1.1" width="16" height="16" viewBox="0 0 16 16"><defs><clipPath id="master_svg0_0_42967"><rect x="0" y="0" width="16" height="16" rx="0"/></clipPath></defs><g clip-path="url(#master_svg0_0_42967)"><g><path d="M12.71419609375,12.713951953125C11.50779609375,13.920351953125,9.84109609375,14.666551953125,8.00016609375,14.666551953125C6.15922609375,14.666551953125,4.49256609375,13.920351953125,3.28611609375,12.713951953125C2.07968909375,11.507551953125,1.33349609375,9.840851953125,1.33349609375,7.999921953125C1.33349609375,6.158981953125,2.07968909375,4.492321953125,3.28611609375,3.285871953125C4.49256609375,2.079444953125,6.15922609375,1.333251953125,8.00016609375,1.333251953125C9.84109609375,1.333251953125,11.50779609375,2.079444953125,12.71419609375,3.285871953125C13.92059609375,4.492321953125,14.66679609375,6.158981953125,14.66679609375,7.999921953125C14.66679609375,9.840851953125,13.92059609375,11.507551953125,12.71419609375,12.713951953125ZM5.38959609375,4.6110419531249995C5.17480609375,4.396251953125001,4.8265660937499995,4.396251953125001,4.6117760937500005,4.6110419531249995C4.39698609375,4.825831953125,4.39698609375,5.174071953125,4.6117760937500005,5.388861953125L7.22286609375,7.999951953125L4.6117760937500005,10.611041953125C4.39698609375,10.825831953125,4.39698609375,11.174071953125,4.6117760937500005,11.388851953125C4.8265660937499995,11.603651953125,5.17480609375,11.603651953125,5.38959609375,11.388851953125L8.00068609375,8.777771953125L10.61177609375,11.388851953125C10.82656609375,11.603651953125,11.17480609375,11.603651953125,11.38959609375,11.388851953125C11.60439609375,11.174071953125,11.60439609375,10.825831953125,11.38959609375,10.611041953125L8.77850609375,7.999951953125L11.38959609375,5.388861953125C11.60439609375,5.174071953125,11.60439609375,4.825831953125,11.38959609375,4.6110419531249995C11.17480609375,4.396251953125001,10.82656609375,4.396251953125001,10.61177609375,4.6110419531249995L8.00068609375,7.222131953125L5.38959609375,4.6110419531249995Z" fill-rule="evenodd" fill="#FA4D56" fill-opacity="1"/></g></g></svg>