<svg width="128" height="128" viewBox="0 0 128 128" fill="none" xmlns="http://www.w3.org/2000/svg">
<path fill-rule="evenodd" clip-rule="evenodd" d="M38.2476 19.0412C37.0519 19.7315 36.6422 21.2604 37.3326 22.4561C38.023 23.6518 39.552 24.0615 40.7478 23.3712C59.7109 12.4239 83.0854 16.0381 97.9215 30.744C97.9711 30.8038 98.0239 30.8619 98.08 30.9179C99.5281 32.3659 100.863 33.8841 102.085 35.4616C103.365 37.1228 104.55 38.8881 105.628 40.7541C107.385 43.7974 108.767 46.9543 109.788 50.1712C111.877 56.7932 112.481 63.7826 111.598 70.6168C110.693 77.5453 108.27 84.2367 104.47 90.165C102.665 92.9697 100.535 95.6261 98.08 98.0806C96.5753 99.5851 94.9947 100.968 93.3507 102.228C91.7436 103.454 90.0401 104.591 88.2431 105.628C85.3014 107.326 82.2535 108.674 79.1478 109.685C72.299 111.899 65.0466 112.518 57.972 111.543C51.2719 110.609 44.8036 108.255 39.0449 104.609C36.1598 102.774 33.4293 100.598 30.9113 98.0806C29.3788 96.5482 27.9729 94.9372 26.6937 93.2605C25.4945 91.6805 24.3809 90.0079 23.3632 88.2453C23.3236 88.1767 23.2812 88.1107 23.2363 88.0473C12.8696 69.9118 15.4279 46.3999 30.9113 30.9179C31.8877 29.9417 31.8877 28.3588 30.9113 27.3826C29.935 26.4063 28.352 26.4063 27.3756 27.3826C8.55329 46.2032 7.01222 75.76 22.7524 96.3387C26.5795 101.368 31.1916 105.546 36.3132 108.798C42.7813 112.921 49.9552 115.487 57.3021 116.498C65.0309 117.572 73.0384 116.937 80.7245 114.431C86.2599 112.637 91.5563 109.9 96.3623 106.22C101.327 102.439 105.46 97.8924 108.691 92.8465C112.961 86.2053 115.583 78.8124 116.558 71.2477C117.529 63.8012 116.914 56.1074 114.568 48.7007C112.748 42.9136 109.9 37.3795 106.027 32.384C90.2144 11.8866 61.2854 5.74151 38.2476 19.0412Z" fill="#00C7F2"/>
<path fill-rule="evenodd" clip-rule="evenodd" d="M63.9689 89.9994C66.7132 89.9994 68.9379 87.7747 68.9379 85.0305C68.9379 82.2862 66.7132 80.0615 63.9689 80.0615C61.2247 80.0615 59 82.2862 59 85.0305C59 87.7747 61.2247 89.9994 63.9689 89.9994Z" fill="#00C7F2"/>
<path fill-rule="evenodd" clip-rule="evenodd" d="M63.969 39C65.7802 39 67.2485 40.4683 67.2485 42.2795V72.0932C67.2485 73.9044 65.7802 75.3727 63.969 75.3727C62.1577 75.3727 60.6895 73.9044 60.6895 72.0932V42.2795C60.6895 40.4683 62.1577 39 63.969 39Z" fill="#00C7F2"/>
</svg>
