<svg width="16" height="16" viewBox="0 0 16 16" fill="none" xmlns="http://www.w3.org/2000/svg">
<path fill-rule="evenodd" clip-rule="evenodd" d="M12.7142 12.714C11.5078 13.9204 9.8411 14.6666 8.00016 14.6666C6.15923 14.6666 4.49256 13.9204 3.28612 12.714C2.07969 11.5075 1.3335 9.84085 1.3335 7.99992C1.3335 6.15899 2.07969 4.49232 3.28612 3.28587C4.49256 2.07945 6.15923 1.33325 8.00016 1.33325C9.8411 1.33325 11.5078 2.07945 12.7142 3.28587C13.9206 4.49232 14.6668 6.15899 14.6668 7.99992C14.6668 9.84085 13.9206 11.5075 12.7142 12.714ZM11.7221 6.38886C11.9369 6.17407 11.9369 5.82583 11.7221 5.61104C11.5073 5.39625 11.1591 5.39625 10.9443 5.61104L7.3332 9.22213L5.72211 7.61104C5.50732 7.39625 5.15908 7.39625 4.94429 7.61104C4.72951 7.82583 4.72951 8.17407 4.94429 8.38886L6.94429 10.3889C7.15908 10.6036 7.50732 10.6036 7.72211 10.3889L11.7221 6.38886Z" fill="#24A148"/>
</svg>
