<svg width="16" height="16" viewBox="0 0 16 16" fill="none" xmlns="http://www.w3.org/2000/svg">
<path fill-rule="evenodd" clip-rule="evenodd" d="M8.5835 2C8.5835 1.58579 8.91928 1.25 9.3335 1.25H14.0002C14.4144 1.25 14.7502 1.58579 14.7502 2V6.66667C14.7502 7.08088 14.4144 7.41667 14.0002 7.41667C13.5859 7.41667 13.2502 7.08088 13.2502 6.66667V2.75H9.3335C8.91928 2.75 8.5835 2.41421 8.5835 2Z" fill="#161616"/>
<path fill-rule="evenodd" clip-rule="evenodd" d="M3 2.75C2.86193 2.75 2.75 2.86193 2.75 3V13C2.75 13.1381 2.86192 13.25 3 13.25H13C13.1381 13.25 13.25 13.1381 13.25 13V9.82457C13.25 9.41035 13.5858 9.07457 14 9.07457C14.4142 9.07457 14.75 9.41035 14.75 9.82457V13C14.75 13.9665 13.9665 14.75 13 14.75H3C2.03351 14.75 1.25 13.9665 1.25 13V3C1.25 2.0335 2.0335 1.25 3 1.25H6C6.41421 1.25 6.75 1.58579 6.75 2C6.75 2.41421 6.41421 2.75 6 2.75H3Z" fill="#161616"/>
<path fill-rule="evenodd" clip-rule="evenodd" d="M14.2304 1.7696C14.5233 2.06249 14.5233 2.53736 14.2304 2.83026L9.13043 7.93026C8.83753 8.22315 8.36266 8.22315 8.06977 7.93026C7.77687 7.63736 7.77687 7.16249 8.06977 6.8696L13.1698 1.7696C13.4627 1.4767 13.9375 1.4767 14.2304 1.7696Z" fill="#161616"/>
</svg>
