<svg width="32" height="32" viewBox="0 0 32 32" fill="none" xmlns="http://www.w3.org/2000/svg">
<path d="M32 16C32 24.8366 24.8366 32 16 32C7.16344 32 0 24.8366 0 16C0 7.16344 7.16344 0 16 0C24.8366 0 32 7.16344 32 16Z" fill="url(#paint0_linear_310_4156)"/>
<path d="M32 16C32 24.8366 24.8366 32 16 32C7.16344 32 0 24.8366 0 16C0 7.16344 7.16344 0 16 0C24.8366 0 32 7.16344 32 16Z" fill="#00C7F2" fill-opacity="0.25"/>
<path fill-rule="evenodd" clip-rule="evenodd" d="M9.53449 20.5768H11.6086V19.0891H10.2767V9.50283H18.0309C20.13 9.50283 21.5969 10.6894 22.424 12.339C22.8837 13.2807 23.157 14.3043 23.2287 15.3523C23.3133 16.4215 23.2049 17.4975 22.9088 18.5275C22.3341 20.4705 21.0321 22.0619 19.033 22.4161C18.2605 22.5121 17.4812 22.54 16.7039 22.4996C16.2867 22.4844 15.8544 22.4844 15.6469 22.4844H15.6469V23.9797H16.6815C17.5498 24.0264 18.4206 23.9925 19.2829 23.8785C21.9192 23.4155 23.596 21.399 24.3207 18.9474C24.6751 17.7442 24.8089 16.4854 24.7155 15.2334C24.6283 13.9883 24.3023 12.7723 23.756 11.6534C22.6889 9.51802 20.7947 8 18.0459 8H8.7998V20.5768H9.53449ZM17.6635 11.4434H12.4157L12.4082 12.9487H12.4157V19.0815H12.4082V20.5717L12.4157 20.5717V22.4971L8.87972 22.4768L8.88472 23.967L13.1554 23.9822L13.8926 23.9746V20.576C15.4728 20.5791 16.9743 20.5764 17.3086 20.5591H17.3836L17.3894 20.5588C18.4115 20.5105 21.252 20.3763 21.252 16.0834C21.242 11.6964 17.676 11.4434 17.6635 11.4434ZM13.8926 19.0815H17.2337H17.3111C17.9609 19.0512 19.7826 18.9651 19.7776 16.0961C19.7776 13.2953 17.8409 12.9791 17.581 12.9487H13.8926V19.0815Z" fill="white"/>
<defs>
<linearGradient id="paint0_linear_310_4156" x1="16" y1="0" x2="16" y2="32" gradientUnits="userSpaceOnUse">
<stop stop-color="#78E1FB"/>
<stop offset="1" stop-color="#70FFBD"/>
</linearGradient>
</defs>
</svg>
