<svg width="20" height="20" viewBox="0 0 20 20" fill="none" xmlns="http://www.w3.org/2000/svg">
<path fill-rule="evenodd" clip-rule="evenodd" d="M1.66669 4.5C1.94283 4.5 2.16669 4.72386 2.16669 5V15C2.16669 15.0688 2.20805 15.2139 2.46733 15.4182C2.72097 15.6181 3.11898 15.82 3.65538 15.9988C4.72294 16.3547 6.22958 16.5833 7.91669 16.5833C9.03632 16.5833 10.0774 16.4826 10.9636 16.3105C10.2448 15.6319 9.74123 14.727 9.56701 13.7086C9.52294 13.4509 9.50002 13.1863 9.50002 12.9167C9.50002 11.7187 9.95208 10.6251 10.6941 9.79912C11.4432 8.96523 12.4897 8.40196 13.6667 8.27649V5C13.6667 4.72386 13.8905 4.5 14.1667 4.5C14.4428 4.5 14.6667 4.72386 14.6667 5V8.75C14.6667 9.02614 14.4428 9.25 14.1667 9.25C13.0832 9.25 12.11 9.71932 11.438 10.4674C10.8545 11.117 10.5 11.9749 10.5 12.9167C10.5 13.1295 10.5181 13.3377 10.5527 13.54C10.741 14.6408 11.4213 15.5758 12.3609 16.1087C12.5349 16.2073 12.6333 16.4002 12.6111 16.599C12.589 16.7978 12.4504 16.9643 12.2589 17.0222C11.0927 17.3748 9.56977 17.5833 7.91669 17.5833C6.15201 17.5833 4.53364 17.3456 3.33915 16.9475C2.74452 16.7493 2.22724 16.5022 1.84835 16.2036C1.4751 15.9095 1.16669 15.5065 1.16669 15V5C1.16669 4.72386 1.39054 4.5 1.66669 4.5Z" fill="#161616"/>
<path fill-rule="evenodd" clip-rule="evenodd" d="M2.46733 4.58174C2.20805 4.78607 2.16669 4.93118 2.16669 4.99996C2.16669 5.06874 2.20805 5.21384 2.46733 5.41818C2.72097 5.61807 3.11898 5.81995 3.65538 5.99875C4.72294 6.35461 6.22958 6.58329 7.91669 6.58329C9.6038 6.58329 11.1104 6.35461 12.178 5.99875C12.7144 5.81995 13.1124 5.61807 13.366 5.41818C13.6253 5.21384 13.6667 5.06874 13.6667 4.99996C13.6667 4.93118 13.6253 4.78607 13.366 4.58174C13.1124 4.38184 12.7144 4.17996 12.178 4.00116C11.1104 3.64531 9.6038 3.41663 7.91669 3.41663C6.22958 3.41663 4.72294 3.64531 3.65538 4.00116C3.11898 4.17996 2.72097 4.38184 2.46733 4.58174ZM3.33915 3.05248C4.53364 2.65432 6.15201 2.41663 7.91669 2.41663C9.68137 2.41663 11.2997 2.65432 12.4942 3.05248C13.0889 3.25069 13.6061 3.49773 13.985 3.79633C14.3583 4.09048 14.6667 4.49345 14.6667 4.99996C14.6667 5.50647 14.3583 5.90943 13.985 6.20359C13.6061 6.50219 13.0889 6.74923 12.4942 6.94744C11.2997 7.3456 9.68137 7.58329 7.91669 7.58329C6.15201 7.58329 4.53364 7.3456 3.33915 6.94744C2.74452 6.74923 2.22724 6.50219 1.84835 6.20359C1.4751 5.90943 1.16669 5.50647 1.16669 4.99996C1.16669 4.49345 1.4751 4.09048 1.84835 3.79633C2.22724 3.49773 2.74452 3.25069 3.33915 3.05248Z" fill="#161616"/>
<path fill-rule="evenodd" clip-rule="evenodd" d="M1.66669 11.1666C1.94283 11.1666 2.16669 11.3905 2.16669 11.6666C2.16669 11.7354 2.20805 11.8805 2.46733 12.0848C2.72097 12.2847 3.11898 12.4866 3.65538 12.6654C4.72294 13.0213 6.22958 13.25 7.91669 13.25C8.65026 13.25 9.35186 13.2067 9.99946 13.1279C10.2736 13.0946 10.5228 13.2897 10.5562 13.5639C10.5895 13.838 10.3944 14.0872 10.1202 14.1206C9.43093 14.2045 8.68895 14.25 7.91669 14.25C6.15201 14.25 4.53364 14.0123 3.33915 13.6141C2.74452 13.4159 2.22724 13.1689 1.84835 12.8703C1.4751 12.5761 1.16669 12.1731 1.16669 11.6666C1.16669 11.3905 1.39054 11.1666 1.66669 11.1666Z" fill="#161616"/>
<path fill-rule="evenodd" clip-rule="evenodd" d="M1.66669 7.83337C1.94283 7.83337 2.16669 8.05723 2.16669 8.33337C2.16669 8.40215 2.20805 8.54726 2.46733 8.75159C2.72097 8.95149 3.11898 9.15337 3.65538 9.33217C4.72294 9.68802 6.22958 9.91671 7.91669 9.91671C9.03645 9.91671 10.0803 9.81593 10.9705 9.64252C11.2415 9.58971 11.504 9.76663 11.5568 10.0377C11.6096 10.3087 11.4327 10.5713 11.1617 10.6241C10.2022 10.811 9.09384 10.9167 7.91669 10.9167C6.15201 10.9167 4.53364 10.679 3.33915 10.2809C2.74452 10.0826 2.22724 9.8356 1.84835 9.537C1.4751 9.24285 1.16669 8.83989 1.16669 8.33337C1.16669 8.05723 1.39054 7.83337 1.66669 7.83337Z" fill="#161616"/>
<path fill-rule="evenodd" clip-rule="evenodd" d="M14.596 9.00625C14.596 9.00625 14.596 9.00624 14.596 9.00625L14.5955 9.00706L14.593 9.01126L14.5822 9.02981C14.5724 9.04659 14.5576 9.07205 14.5387 9.10543C14.5007 9.1722 14.4459 9.27051 14.3798 9.39423C14.2474 9.64207 14.071 9.98978 13.8949 10.3887C13.5343 11.2059 13.2083 12.166 13.2083 12.9167C13.2083 13.6674 13.5343 14.6275 13.8949 15.4447C14.071 15.8436 14.2474 16.1913 14.3798 16.4392C14.4459 16.5629 14.5007 16.6612 14.5387 16.728C14.5576 16.7614 14.5724 16.7868 14.5822 16.8036L14.593 16.8221L14.5955 16.8263L14.596 16.8271C14.7374 17.0642 14.66 17.3711 14.423 17.5127C14.1858 17.6542 13.8789 17.5768 13.7373 17.3397L14.1666 17.0834C13.7373 17.3397 13.7374 17.3398 13.7373 17.3397L13.7368 17.3387L13.7357 17.3368L13.7319 17.3305L13.7184 17.3074C13.7068 17.2876 13.6902 17.2589 13.6693 17.2221C13.6275 17.1486 13.5684 17.0426 13.4978 16.9103C13.3567 16.6463 13.1686 16.2756 12.98 15.8484C12.6115 15.0132 12.2083 13.8899 12.2083 12.9167C12.2083 11.9435 12.6115 10.8202 12.98 9.98502C13.1686 9.55781 13.3567 9.1871 13.4978 8.92306C13.5684 8.79084 13.6275 8.68484 13.6693 8.6113C13.6902 8.57451 13.7068 8.54581 13.7184 8.52597L13.7319 8.50293L13.7357 8.49656L13.7372 8.49389C13.7373 8.4938 13.7373 8.49373 14.1666 8.75003L13.7372 8.49389C13.8788 8.25679 14.1858 8.17917 14.423 8.32072C14.66 8.46226 14.7375 8.76916 14.596 9.00625Z" fill="#161616"/>
<path fill-rule="evenodd" clip-rule="evenodd" d="M13.9103 8.32064C14.1474 8.17909 14.4544 8.25655 14.596 8.49365L14.1666 8.74995C14.596 8.49365 14.5959 8.49357 14.596 8.49365L14.5976 8.49648L14.6014 8.50285L14.6149 8.52589C14.6265 8.54573 14.6431 8.57443 14.664 8.61122C14.7058 8.68476 14.7649 8.79076 14.8355 8.92298C14.9766 9.18702 15.1647 9.55773 15.3532 9.98494C15.7218 10.8201 16.125 11.9434 16.125 12.9166C16.125 13.8898 15.7218 15.0131 15.3532 15.8483C15.1647 16.2755 14.9766 16.6462 14.8355 16.9103C14.7649 17.0425 14.7058 17.1485 14.664 17.222C14.6431 17.2588 14.6265 17.2875 14.6149 17.3074L14.6014 17.3304L14.5976 17.3368L14.5965 17.3386L14.596 17.3394C14.596 17.3395 14.596 17.3396 14.1666 17.0833L14.596 17.3394C14.4545 17.5765 14.1474 17.6542 13.9103 17.5126C13.6733 17.3711 13.5958 17.0642 13.7373 16.8271L13.7378 16.8263L13.7402 16.8221L13.7511 16.8035C13.7609 16.7867 13.7756 16.7613 13.7946 16.7279C13.8326 16.6611 13.8874 16.5628 13.9535 16.4391C14.0859 16.1913 14.2623 15.8435 14.4384 15.4446C14.799 14.6274 15.125 13.6674 15.125 12.9166C15.125 12.1659 14.799 11.2058 14.4384 10.3887C14.2623 9.9897 14.0859 9.64199 13.9535 9.39415C13.8874 9.27043 13.8326 9.17212 13.7946 9.10535C13.7756 9.07197 13.7609 9.04651 13.7511 9.02973L13.7402 9.01118L13.7378 9.00698L13.7373 9.00626C13.5959 8.76917 13.6733 8.46218 13.9103 8.32064Z" fill="#161616"/>
<path fill-rule="evenodd" clip-rule="evenodd" d="M9.5 12.9166C9.5 12.6405 9.72386 12.4166 10 12.4166H18.3333C18.6095 12.4166 18.8333 12.6405 18.8333 12.9166C18.8333 13.1928 18.6095 13.4166 18.3333 13.4166H10C9.72386 13.4166 9.5 13.1928 9.5 12.9166Z" fill="#161616"/>
<path fill-rule="evenodd" clip-rule="evenodd" d="M14.1667 9.25C12.1416 9.25 10.5 10.8916 10.5 12.9167C10.5 14.9417 12.1416 16.5833 14.1667 16.5833C16.1917 16.5833 17.8333 14.9417 17.8333 12.9167C17.8333 10.8916 16.1917 9.25 14.1667 9.25ZM9.5 12.9167C9.5 10.3393 11.5893 8.25 14.1667 8.25C16.744 8.25 18.8333 10.3393 18.8333 12.9167C18.8333 15.494 16.744 17.5833 14.1667 17.5833C11.5893 17.5833 9.5 15.494 9.5 12.9167Z" fill="#161616"/>
</svg>
