<svg width="20" height="20" viewBox="0 0 20 20" fill="none" xmlns="http://www.w3.org/2000/svg">
<path fill-rule="evenodd" clip-rule="evenodd" d="M2.83337 2.49996C2.83337 1.76358 3.43033 1.16663 4.16671 1.16663H12.9167C13.0585 1.16663 13.1935 1.22679 13.2884 1.33214L17.0384 5.49881C17.121 5.59062 17.1667 5.70977 17.1667 5.83329V9.58329C17.1667 9.85943 16.9428 10.0833 16.6667 10.0833C16.3906 10.0833 16.1667 9.85943 16.1667 9.58329V6.02516L12.694 2.16663H4.16671C3.98261 2.16663 3.83337 2.31586 3.83337 2.49996V17.5C3.83337 17.6841 3.98261 17.8333 4.16671 17.8333H9.16671C9.44285 17.8333 9.66671 18.0571 9.66671 18.3333C9.66671 18.6094 9.44285 18.8333 9.16671 18.8333H4.16671C3.43033 18.8333 2.83337 18.2364 2.83337 17.5V2.49996Z" fill="#161616"/>
<path fill-rule="evenodd" clip-rule="evenodd" d="M15.0631 12.5631C15.2583 12.3678 15.5749 12.3678 15.7702 12.5631L17.8535 14.6464C18.0488 14.8417 18.0488 15.1583 17.8535 15.3535L15.7702 17.4368C15.5749 17.6321 15.2583 17.6321 15.0631 17.4368C14.8678 17.2416 14.8678 16.925 15.0631 16.7297L16.7929 15L15.0631 13.2702C14.8678 13.0749 14.8678 12.7583 15.0631 12.5631Z" fill="#161616"/>
<path fill-rule="evenodd" clip-rule="evenodd" d="M13.2703 12.5631C13.4655 12.7583 13.4655 13.0749 13.2703 13.2702L11.5405 15L13.2703 16.7297C13.4655 16.925 13.4655 17.2416 13.2703 17.4368C13.075 17.6321 12.7584 17.6321 12.5632 17.4368L10.4798 15.3535C10.2846 15.1583 10.2846 14.8417 10.4798 14.6464L12.5632 12.5631C12.7584 12.3678 13.075 12.3678 13.2703 12.5631Z" fill="#161616"/>
<path fill-rule="evenodd" clip-rule="evenodd" d="M12.5 1.16663C12.7761 1.16663 13 1.39048 13 1.66663V5.33329H16.6667C16.9428 5.33329 17.1667 5.55715 17.1667 5.83329C17.1667 6.10944 16.9428 6.33329 16.6667 6.33329H12.5C12.2239 6.33329 12 6.10944 12 5.83329V1.66663C12 1.39048 12.2239 1.16663 12.5 1.16663Z" fill="#161616"/>
</svg>
