<svg width="20" height="20" viewBox="0 0 20 20" fill="none" xmlns="http://www.w3.org/2000/svg">
<path fill-rule="evenodd" clip-rule="evenodd" d="M9.62517 1.19813C9.8443 1.02282 10.1557 1.02282 10.3748 1.19813L18.7081 7.8648C18.8505 7.97866 18.9333 8.15105 18.9333 8.33332V18.3333C18.9333 18.6647 18.6647 18.9333 18.3333 18.9333H13.3333C13.0019 18.9333 12.7333 18.6647 12.7333 18.3333V11.4333H7.26665V18.3333C7.26665 18.6647 6.99802 18.9333 6.66665 18.9333H1.66665C1.33528 18.9333 1.06665 18.6647 1.06665 18.3333V8.33332C1.06665 8.15105 1.1495 7.97866 1.29183 7.8648L9.62517 1.19813ZM2.26665 8.62169V17.7333H6.06665V10.8333C6.06665 10.5019 6.33528 10.2333 6.66665 10.2333H13.3333C13.6647 10.2333 13.9333 10.5019 13.9333 10.8333V17.7333H17.7333V8.62169L9.99998 2.43503L2.26665 8.62169Z" fill="#161616"/>
</svg>
