<svg width="20" height="20" viewBox="0 0 20 20" fill="none" xmlns="http://www.w3.org/2000/svg">
<path fill-rule="evenodd" clip-rule="evenodd" d="M4.5 1.66669C4.5 1.39054 4.72386 1.16669 5 1.16669H15C15.2761 1.16669 15.5 1.39054 15.5 1.66669V7.35298C15.5 10.458 13.0511 13 10 13C6.94888 13 4.5 10.458 4.5 7.35298V1.66669ZM5.5 2.16669V7.35298C5.5 9.93322 7.52829 12 10 12C12.4717 12 14.5 9.93322 14.5 7.35298V2.16669H5.5Z" fill="#161616"/>
<path fill-rule="evenodd" clip-rule="evenodd" d="M1.16663 4.58331C1.16663 4.30717 1.39048 4.08331 1.66663 4.08331H4.99996C5.2761 4.08331 5.49996 4.30717 5.49996 4.58331V8.74998C5.49996 9.02612 5.2761 9.24998 4.99996 9.24998C3.0089 9.24998 1.16663 7.58639 1.16663 4.58331ZM2.18672 5.08331C2.34435 6.99123 3.40471 7.97248 4.49996 8.1986V5.08331H2.18672Z" fill="#161616"/>
<path fill-rule="evenodd" clip-rule="evenodd" d="M14.5 4.58331C14.5 4.30717 14.7239 4.08331 15 4.08331H18.3333C18.6095 4.08331 18.8333 4.30717 18.8333 4.58331C18.8333 7.58639 16.9911 9.24998 15 9.24998C14.7239 9.24998 14.5 9.02612 14.5 8.74998V4.58331ZM15.5 5.08331V8.1986C16.5953 7.97248 17.6556 6.99123 17.8132 5.08331H15.5Z" fill="#161616"/>
<path fill-rule="evenodd" clip-rule="evenodd" d="M10 12.8333C10.2761 12.8333 10.5 13.0572 10.5 13.3333V15C10.5 15.2761 10.2761 15.5 10 15.5C9.72386 15.5 9.5 15.2761 9.5 15V13.3333C9.5 13.0572 9.72386 12.8333 10 12.8333Z" fill="#161616"/>
<path fill-rule="evenodd" clip-rule="evenodd" d="M7.3616 14.7381C7.45258 14.5901 7.61382 14.5 7.7875 14.5H12.101C12.2691 14.5 12.4259 14.5844 12.5184 14.7247L14.1674 17.2247C14.2687 17.3783 14.2775 17.575 14.1903 17.737C14.1031 17.899 13.934 18 13.75 18H6.25C6.06888 18 5.90193 17.9021 5.81356 17.744C5.72519 17.5859 5.72922 17.3923 5.8241 17.2381L7.3616 14.7381ZM8.06699 15.5L7.14449 17H12.8212L11.8319 15.5H8.06699Z" fill="#161616"/>
</svg>
