<svg width="16" height="16" viewBox="0 0 16 16" fill="none" xmlns="http://www.w3.org/2000/svg">
<g clip-path="url(#clip0_1548_59715)">
<path fill-rule="evenodd" clip-rule="evenodd" d="M5.271 2.41675C5.16744 2.41675 5.0835 2.50069 5.0835 2.60425V4.14395C5.0835 4.55816 4.74771 4.89395 4.3335 4.89395C3.91928 4.89395 3.5835 4.55816 3.5835 4.14395V2.60425C3.5835 1.67227 4.33902 0.916748 5.271 0.916748H13.396C14.328 0.916748 15.0835 1.67227 15.0835 2.60425V10.7292C15.0835 11.6612 14.328 12.4167 13.396 12.4167H11.8389C11.4247 12.4167 11.0889 12.081 11.0889 11.6667C11.0889 11.2525 11.4247 10.9167 11.8389 10.9167H13.396C13.4995 10.9167 13.5835 10.8328 13.5835 10.7292V2.60425C13.5835 2.50069 13.4995 2.41675 13.396 2.41675H5.271Z" fill="#161616"/>
<path fill-rule="evenodd" clip-rule="evenodd" d="M0.916504 5.27075C0.916504 4.33877 1.67202 3.58325 2.604 3.58325H10.729C11.661 3.58325 12.4165 4.33877 12.4165 5.27075V13.3958C12.4165 14.3277 11.661 15.0833 10.729 15.0833H2.604C1.67202 15.0833 0.916504 14.3277 0.916504 13.3958V5.27075ZM2.604 5.08325C2.50045 5.08325 2.4165 5.1672 2.4165 5.27075V13.3958C2.4165 13.4993 2.50045 13.5833 2.604 13.5833H10.729C10.8326 13.5833 10.9165 13.4993 10.9165 13.3958V5.27075C10.9165 5.1672 10.8326 5.08325 10.729 5.08325H2.604Z" fill="#161616"/>
</g>
<defs>
<clipPath id="clip0_1548_59715">
<rect width="16" height="16" fill="white"/>
</clipPath>
</defs>
</svg>
