<svg xmlns="http://www.w3.org/2000/svg" xmlns:xlink="http://www.w3.org/1999/xlink" fill="none" version="1.1" width="16" height="16" viewBox="0 0 16 16"><defs><clipPath id="master_svg0_0_1938"><rect x="0" y="0" width="16" height="16" rx="0"/></clipPath></defs><g clip-path="url(#master_svg0_0_1938)"><g><path d="M6.666663134651184,12.500033134651185C9.888313134651185,12.500033134651185,12.500033134651185,9.888313134651185,12.500033134651185,6.666663134651184C12.500033134651185,6.666663134651184,11.500033134651185,6.666663134651184,11.500033134651185,6.666663134651184C11.500033134651185,9.336033134651185,9.336033134651185,11.500033134651185,6.666663134651184,11.500033134651185C6.666663134651184,11.500033134651185,6.666663134651184,12.500033134651185,6.666663134651184,12.500033134651185C6.666663134651184,12.500033134651185,6.666663134651184,12.500033134651185,6.666663134651184,12.500033134651185ZM12.500033134651185,6.666663134651184C12.500033134651185,3.445023134651184,9.888313134651185,0.8333331346511841,6.666663134651184,0.8333331346511841C6.666663134651184,0.8333331346511841,6.666663134651184,1.833333134651184,6.666663134651184,1.833333134651184C9.336033134651185,1.833333134651184,11.500033134651185,3.997303134651184,11.500033134651185,6.666663134651184C11.500033134651185,6.666663134651184,12.500033134651185,6.666663134651184,12.500033134651185,6.666663134651184C12.500033134651185,6.666663134651184,12.500033134651185,6.666663134651184,12.500033134651185,6.666663134651184ZM6.666663134651184,0.8333331346511841C3.445023134651184,0.8333331346511841,0.8333331346511841,3.445023134651184,0.8333331346511841,6.666663134651184C0.8333331346511841,6.666663134651184,1.833333134651184,6.666663134651184,1.833333134651184,6.666663134651184C1.833333134651184,3.997303134651184,3.997303134651184,1.833333134651184,6.666663134651184,1.833333134651184C6.666663134651184,1.833333134651184,6.666663134651184,0.8333331346511841,6.666663134651184,0.8333331346511841C6.666663134651184,0.8333331346511841,6.666663134651184,0.8333331346511841,6.666663134651184,0.8333331346511841ZM0.8333331346511841,6.666663134651184C0.8333331346511841,9.888313134651185,3.445023134651184,12.500033134651185,6.666663134651184,12.500033134651185C6.666663134651184,12.500033134651185,6.666663134651184,11.500033134651185,6.666663134651184,11.500033134651185C3.997303134651184,11.500033134651185,1.833333134651184,9.336033134651185,1.833333134651184,6.666663134651184C1.833333134651184,6.666663134651184,0.8333331346511841,6.666663134651184,0.8333331346511841,6.666663134651184C0.8333331346511841,6.666663134651184,0.8333331346511841,6.666663134651184,0.8333331346511841,6.666663134651184Z" fill="#A8A8A8" fill-opacity="1"/></g><g><path d="M11.427419844177246,10.720346269104004C11.232157844177246,10.525083569104003,10.915575844177246,10.525083569104003,10.720313844177246,10.720346269104004C10.525051144177246,10.915608269104004,10.525051144177246,11.232190269104004,10.720313844177246,11.427452269104004C10.720313844177246,11.427452269104004,11.427419844177246,10.720346269104004,11.427419844177246,10.720346269104004C11.427419844177246,10.720346269104004,11.427419844177246,10.720346269104004,11.427419844177246,10.720346269104004ZM13.548746844177247,14.255889269104003C13.744006844177246,14.451149269104004,14.060596844177246,14.451149269104004,14.255856844177245,14.255889269104003C14.451116844177246,14.060629269104004,14.451116844177246,13.744039269104004,14.255856844177245,13.548779269104005C14.255856844177245,13.548779269104005,13.548746844177247,14.255889269104003,13.548746844177247,14.255889269104003C13.548746844177247,14.255889269104003,13.548746844177247,14.255889269104003,13.548746844177247,14.255889269104003ZM10.720313844177246,11.427452269104004C10.720313844177246,11.427452269104004,13.548746844177247,14.255889269104003,13.548746844177247,14.255889269104003C13.548746844177247,14.255889269104003,14.255856844177245,13.548779269104005,14.255856844177245,13.548779269104005C14.255856844177245,13.548779269104005,11.427419844177246,10.720346269104004,11.427419844177246,10.720346269104004C11.427419844177246,10.720346269104004,10.720313844177246,11.427452269104004,10.720313844177246,11.427452269104004C10.720313844177246,11.427452269104004,10.720313844177246,11.427452269104004,10.720313844177246,11.427452269104004Z" fill="#A8A8A8" fill-opacity="1"/></g></g></svg>