<svg xmlns="http://www.w3.org/2000/svg" xmlns:xlink="http://www.w3.org/1999/xlink" fill="none" version="1.1" width="44" height="44" viewBox="0 0 44 44"><defs><clipPath id="master_svg0_0_60560"><rect x="29.333333373069763" y="29.333333373069763" width="13.333333015441895" height="13.333333015441895" rx="0"/></clipPath></defs><g><g><ellipse cx="22" cy="22" rx="21" ry="21" fill-opacity="0" stroke-opacity="1" stroke="#00C7F2" fill="none" stroke-width="2"/></g><g><g><path d="M44,36C44,40.4183,40.4183,44,36,44C31.58172,44,28,40.4183,28,36C28,31.58172,31.58172,28,36,28C40.4183,28,44,31.58172,44,36C44,36,44,36,44,36Z" fill="#00C7F2" fill-opacity="1"/></g><g clip-path="url(#master_svg0_0_60560)"><g><path d="M40.837285224418636,32.829384388511656C41.05423522441864,33.04634238851166,41.05423522441864,33.398101388511655,40.837285224418636,33.61505938851166C40.837285224418636,33.61505938851166,35.28172522441864,39.17061638851166,35.28172522441864,39.17061638851166C35.06476522441864,39.38757638851166,34.71300522441864,39.38757638851166,34.49605522441864,39.17061638851166C34.49605522441864,39.17061638851166,31.718273224418642,36.39283638851166,31.718273224418642,36.39283638851166C31.50131582441864,36.17587638851166,31.50131582441864,35.824116388511655,31.718273224418642,35.60716638851166C31.93523122441864,35.39020638851166,32.28699022441864,35.39020638851166,32.50394822441864,35.60716638851166C32.50394822441864,35.60716638851166,34.888885224418644,37.99210638851166,34.888885224418644,37.99210638851166C34.888885224418644,37.99210638851166,40.05160522441864,32.829384388511656,40.05160522441864,32.829384388511656C40.26856522441864,32.61242698851166,40.620325224418636,32.61242698851166,40.837285224418636,32.829384388511656C40.837285224418636,32.829384388511656,40.837285224418636,32.829384388511656,40.837285224418636,32.829384388511656Z" fill-rule="evenodd" fill="#FFFFFF" fill-opacity="1"/></g></g></g></g></svg> 