<svg width="20" height="20" viewBox="0 0 20 20" fill="none" xmlns="http://www.w3.org/2000/svg">
<path fill-rule="evenodd" clip-rule="evenodd" d="M12.8243 4.31723C12.0777 4.43034 11.4701 4.79511 11.2576 5.00765L10.4319 5.83339L14.1667 9.5682L14.9924 8.74248C14.9924 8.74248 14.9924 8.74247 14.9924 8.74248C15.2049 8.5299 15.5697 7.92231 15.6828 7.17579C15.7912 6.4607 15.6622 5.67741 14.9924 5.00766C14.3227 4.33789 13.5394 4.20888 12.8243 4.31723ZM12.6445 3.13077C13.6482 2.9787 14.844 3.16221 15.8409 4.15913C16.8378 5.15604 17.0213 6.35191 16.8693 7.35555C16.722 8.32776 16.2534 9.1785 15.8409 9.59098L14.5909 10.841C14.4784 10.9535 14.3258 11.0167 14.1667 11.0167C14.0075 11.0167 13.8549 10.9535 13.7424 10.841L9.15907 6.25766C8.92476 6.02334 8.92476 5.64345 9.15907 5.40913L10.4091 4.15914C10.4091 4.15915 10.4091 4.15914 10.4091 4.15914C10.8215 3.74665 11.6723 3.27807 12.6445 3.13077Z" fill="#161616"/>
<path fill-rule="evenodd" clip-rule="evenodd" d="M17.9243 2.07576C18.1586 2.31007 18.1586 2.68997 17.9243 2.92429L15.8409 5.00762C15.6066 5.24194 15.2267 5.24194 14.9924 5.00762C14.7581 4.77331 14.7581 4.39341 14.9924 4.15909L17.0758 2.07576C17.3101 1.84145 17.69 1.84145 17.9243 2.07576Z" fill="#161616"/>
<path fill-rule="evenodd" clip-rule="evenodd" d="M5.83335 8.98328C5.99248 8.98328 6.14509 9.04649 6.25761 9.15901L10.8409 13.7423C11.0753 13.9767 11.0753 14.3566 10.8409 14.5909L9.59096 15.8409C9.17848 16.2534 8.32773 16.7219 7.35552 16.8692C6.35186 17.0213 5.15599 16.8378 4.15908 15.8409C3.16217 14.844 2.97867 13.6481 3.13074 12.6445C3.27805 11.6722 3.74661 10.8215 4.15907 10.409L5.40908 9.15901C5.5216 9.04649 5.67422 8.98328 5.83335 8.98328ZM5.83335 10.4318L5.00762 11.2575C5.00762 11.2575 5.00763 11.2575 5.00762 11.2575C4.79508 11.4701 4.43031 12.0777 4.3172 12.8242C4.20885 13.5393 4.33785 14.3226 5.00761 14.9923C5.67737 15.6621 6.46066 15.7911 7.17575 15.6828C7.9223 15.5697 8.52987 15.2049 8.7424 14.9924L9.56815 14.1666L5.83335 10.4318Z" fill="#161616"/>
<path fill-rule="evenodd" clip-rule="evenodd" d="M11.6743 11.2424C11.9086 11.4767 11.9086 11.8566 11.6743 12.0909L10.0076 13.7576C9.77329 13.9919 9.39339 13.9919 9.15907 13.7576C8.92476 13.5233 8.92476 13.1434 9.15907 12.9091L10.8257 11.2424C11.0601 11.0081 11.44 11.0081 11.6743 11.2424Z" fill="#161616"/>
<path fill-rule="evenodd" clip-rule="evenodd" d="M5.00759 14.9924C5.24191 15.2267 5.24191 15.6066 5.00759 15.8409L2.92426 17.9242C2.68994 18.1586 2.31004 18.1586 2.07573 17.9242C1.84142 17.6899 1.84142 17.31 2.07573 17.0757L4.15906 14.9924C4.39338 14.7581 4.77328 14.7581 5.00759 14.9924Z" fill="#161616"/>
<path fill-rule="evenodd" clip-rule="evenodd" d="M8.75761 8.32576C8.99193 8.56007 8.99193 8.93997 8.75761 9.17429L7.09095 10.841C6.85663 11.0753 6.47673 11.0753 6.24242 10.841C6.0081 10.6066 6.0081 10.2267 6.24242 9.99243L7.90908 8.32576C8.1434 8.09145 8.5233 8.09145 8.75761 8.32576Z" fill="#161616"/>
</svg>
