<svg width="98" height="20" viewBox="0 0 98 20" fill="none" xmlns="http://www.w3.org/2000/svg">
<g clip-path="url(#clip0_8501_16412)">
<path d="M17.5 0H2.5C1.11929 0 0 1.11929 0 2.5V17.5C0 18.8807 1.11929 20 2.5 20H17.5C18.8807 20 20 18.8807 20 17.5V2.5C20 1.11929 18.8807 0 17.5 0Z" fill="#161616"/>
<path d="M15.9993 2.5H4.00061V3.99955C4.00061 4.82751 4.6722 5.4991 5.50016 5.4991H14.4997V14.4987H8.50039C7.67243 14.4987 7.00084 15.1702 7.00084 15.9982V17.4977H16.0004C16.8283 17.4977 17.4999 16.8262 17.4999 15.9982V4.00067C17.4999 3.17272 16.8283 2.50112 16.0004 2.50112L15.9993 2.5Z" fill="white"/>
<path d="M7.98635 12.6481C8.36771 12.2667 8.78169 12.2262 9.97188 12.2262C11.1621 12.2262 12.2218 11.2194 12.2218 9.97633C12.2218 8.73327 11.2149 7.72644 9.97188 7.72644C8.72881 7.72644 7.72199 8.73327 7.72199 9.97633C7.72199 11.6502 7.45538 11.882 7.32376 12.0384C7.12014 12.2802 5.35398 14.0081 5.35398 14.0081C5.15037 14.1859 4.69364 14.4997 4.00067 14.4997H3.25034C2.83636 14.4997 2.5 14.835 2.5 15.2501V16.7496C2.5 17.1636 2.83523 17.5 3.25034 17.5H4.74989C5.16387 17.5 5.50023 17.1647 5.50023 16.7496V15.9993C5.50023 15.0779 6.11107 14.5267 6.11107 14.5267L7.98635 12.6481Z" fill="white"/>
</g>
<path d="M28 4.03635H28.9419C29.5555 4.03635 30.0533 4.53416 30.0533 5.14774V5.23614H30.0765C30.2459 4.28262 31.5141 3.80586 33.8822 3.80586C35.2967 3.80586 36.3649 4.1016 37.0879 4.69413C37.811 5.28666 38.172 6.04338 38.172 6.96638V11.5561C38.172 12.2171 38.0762 12.7938 37.8836 13.2864C37.691 13.7789 37.4416 14.1631 37.1343 14.4399C36.8575 14.7019 36.4765 14.9093 35.9923 15.0629C35.5082 15.2166 35.0272 15.3166 34.5505 15.3629C34.12 15.4092 33.597 15.4323 32.9823 15.4323C32.3056 15.4323 31.6867 15.3513 31.1258 15.1903C30.5648 15.0292 30.2144 14.7945 30.0765 14.4872V18.8886C30.0765 19.5022 29.5787 20 28.9651 20H28V4.03635ZM34.8609 13.8505C35.284 13.7347 35.5871 13.5242 35.7724 13.2159C35.9566 12.9085 36.0492 12.4391 36.0492 11.8087V7.7031C36.0492 7.01163 35.9566 6.49593 35.7724 6.15809C35.5882 5.82026 35.284 5.59293 34.8609 5.47821C34.4379 5.36244 33.819 5.30561 33.0044 5.30561C32.1898 5.30561 31.5826 5.36349 31.1826 5.47821C30.7827 5.59398 30.4985 5.8171 30.3291 6.14652C30.1596 6.47699 30.0754 6.99585 30.0754 7.7031V11.8087C30.0754 12.4391 30.1638 12.9085 30.3407 13.2159C30.5175 13.5232 30.8132 13.7347 31.2289 13.8505C31.6436 13.9652 32.2435 14.0231 33.0276 14.0231C33.8117 14.0231 34.4379 13.9652 34.8609 13.8505Z" fill="#161616"/>
<path d="M41.3304 4.03621H42.1797C42.7933 4.03621 43.2911 4.53402 43.2911 5.1476V5.85906C43.2911 5.50543 43.4448 5.17075 43.7521 4.85607C44.0594 4.54138 44.452 4.28774 44.9287 4.09514C45.4055 3.9036 45.8738 3.80677 46.3359 3.80677H47.3504V5.02762C47.3504 5.33388 47.1021 5.58331 46.7947 5.58331H46.1969C45.2129 5.58331 44.5014 5.71066 44.0636 5.9643C43.6258 6.21794 43.4058 6.67576 43.4058 7.3367V14.0903C43.4058 14.7039 42.908 15.2017 42.2944 15.2017H41.3293V4.03621H41.3304Z" fill="#161616"/>
<path d="M51.0636 0H52.0287C52.335 0 52.5844 0.248379 52.5844 0.555696V1.61236C52.5844 1.91862 52.336 2.16806 52.0287 2.16806H51.0636C50.7574 2.16806 50.5079 1.91968 50.5079 1.61236V0.555696C50.5079 0.249432 50.7563 0 51.0636 0ZM50.5079 4.03616H51.473C52.0866 4.03616 52.5844 4.53397 52.5844 5.14755V14.0892C52.5844 14.7028 52.0866 15.2006 51.473 15.2006H50.5079V4.03616Z" fill="#161616"/>
<path d="M55.745 4.03616H56.7101C57.3237 4.03616 57.8215 4.53397 57.8215 5.14755V5.39699C58.0362 4.33611 59.2896 3.80567 61.5808 3.80567C63.4416 3.80567 64.6024 4.31296 65.0634 5.32752C65.2023 4.83603 65.6202 4.45925 66.32 4.19719C67.0199 3.93618 67.8766 3.80462 68.8912 3.80462C70.2752 3.80462 71.2518 4.06247 71.8202 4.57712C72.3885 5.09283 72.6737 5.90322 72.6737 7.0104V14.0871C72.6737 14.7007 72.1759 15.1985 71.5623 15.1985H70.5972V7.14932C70.5972 6.85779 70.5741 6.61889 70.5278 6.43471C70.4814 6.25053 70.3899 6.06529 70.251 5.88111C69.9436 5.49697 69.2595 5.30437 68.1987 5.30437C67.383 5.30437 66.7758 5.35805 66.3769 5.4654C65.9769 5.57275 65.7044 5.75798 65.5581 6.01899C65.4118 6.28105 65.3392 6.65677 65.3392 7.14932V14.0882C65.3392 14.7017 64.8413 15.1995 64.2278 15.1995H63.2627V7.15038C63.2627 6.85885 63.2395 6.61994 63.1932 6.43576C63.1469 6.25158 63.0553 6.06635 62.9164 5.88217C62.6091 5.49802 61.9324 5.30542 60.8862 5.30542C60.04 5.30542 59.4023 5.3591 58.9718 5.46645C58.5414 5.5738 58.2414 5.75482 58.072 6.00846C57.9025 6.2621 57.8183 6.64309 57.8183 7.15038V14.0892C57.8183 14.7028 57.3205 15.2006 56.7069 15.2006H55.7418V4.03616H55.745Z" fill="#161616"/>
<path d="M76.6959 14.6578C76.1192 14.1431 75.8308 13.3317 75.8308 12.2245V4.03639H76.7959C77.4095 4.03639 77.9073 4.5342 77.9073 5.14778V12.1098C77.9073 12.4024 77.9336 12.637 77.9883 12.8128C78.042 12.9896 78.1378 13.1706 78.2767 13.3548C78.5535 13.7548 79.2302 13.9547 80.3069 13.9547C81.4446 13.9547 82.2445 13.8474 82.7054 13.6316C83.1517 13.4169 83.3737 13.0244 83.3737 12.455V4.03639H84.3388C84.9524 4.03639 85.4502 4.5342 85.4502 5.14778V14.0894C85.4502 14.703 84.9524 15.2008 84.3388 15.2008H83.3737V13.84C83.1738 14.9009 81.9519 15.4313 79.707 15.4313C78.2767 15.4313 77.2737 15.1735 76.697 14.6588L76.6959 14.6578Z" fill="#161616"/>
<path d="M88.8378 15.1534V14.2115C88.8378 13.8715 89.1419 13.6116 89.4777 13.6631C90.9458 13.8884 92.0246 13.9999 92.7119 13.9999C93.6959 13.9999 94.4032 13.9042 94.8336 13.7116C95.2641 13.52 95.4798 13.1622 95.4798 12.6391V11.5088C95.4798 11.032 95.3188 10.6942 94.9957 10.4942C94.6726 10.2942 94.1495 10.1943 93.4275 10.1943H92.1593C91.0058 10.1943 90.126 9.9564 89.5187 9.47964C88.9115 9.00288 88.6073 8.33457 88.6073 7.47261V6.43489C88.6073 4.6815 90.2681 3.80586 93.5886 3.80586C93.8348 3.80586 94.9641 3.86795 96.9785 3.99004V4.84568C96.9785 5.18247 96.6807 5.44243 96.347 5.39612C95.2493 5.24351 94.299 5.16668 93.4959 5.16668C92.4035 5.16668 91.6584 5.27403 91.2584 5.48979C90.8585 5.70554 90.6585 6.06653 90.6585 6.57381V7.51892C90.6585 8.27247 91.3426 8.64925 92.7108 8.64925H94.0022C96.3544 8.64925 97.5311 9.52595 97.5311 11.2783V12.2465C97.5311 13.4 97.1311 14.2188 96.3313 14.703C95.5314 15.1871 94.3095 15.4292 92.6645 15.4292C91.4805 15.4292 90.2197 15.3397 88.8515 15.1555L88.8378 15.1534Z" fill="#161616"/>
<defs>
<clipPath id="clip0_8501_16412">
<rect width="20" height="20" fill="white"/>
</clipPath>
</defs>
</svg>
