<svg width="81" height="20" viewBox="0 0 81 20" fill="none" xmlns="http://www.w3.org/2000/svg">
  <path fill-rule="evenodd" clip-rule="evenodd"
    d="M0.921553 15.721H3.52321V13.8614H1.85251V1.87854H11.579C14.212 1.87854 16.0519 3.36178 17.0895 5.42375C17.666 6.6009 18.0089 7.88043 18.0988 9.19034C18.205 10.5269 18.069 11.8719 17.6976 13.1593C16.9766 15.5882 15.3435 17.5774 12.8359 18.0201C11.8669 18.1401 10.8895 18.175 9.91452 18.1245C9.39106 18.1055 8.84878 18.1055 8.58861 18.1055V19.9746H9.88631C10.9755 20.033 12.0678 19.9907 13.1494 19.8481C16.4563 19.2693 18.5596 16.7488 19.4686 13.6843C19.9131 12.1802 20.0809 10.6068 19.9638 9.0417C19.8543 7.48534 19.4455 5.96539 18.7602 4.5667C17.4217 1.89752 15.0457 0 11.5978 0H0V15.721H0.921553ZM11.1182 4.3042H4.5357L4.5263 6.18591H4.5357V13.8519H4.5263V15.7146L4.5357 15.7147V18.1213L0.100342 18.096L0.106611 19.9588L5.46353 19.9777L6.38821 19.9682V15.72C8.3704 15.7238 10.2537 15.7205 10.6731 15.6988H10.7672L10.7745 15.6985C12.0565 15.6381 15.6194 15.4704 15.6194 10.1043C15.6069 4.62045 11.1339 4.3042 11.1182 4.3042ZM6.38821 13.8519H10.5791H10.6763C11.4912 13.8139 13.7763 13.7064 13.77 10.1201C13.77 6.61918 11.3408 6.22386 11.0148 6.18591H6.38821V13.8519Z"
    fill="url(#paint0_linear_2555_77845)" />
  <path fill-rule="evenodd" clip-rule="evenodd"
    d="M80.0841 12.4156V8.53039C80.0948 8.12431 80.0199 7.72058 79.8644 7.3461C79.7088 6.97163 79.4763 6.63501 79.1822 6.35868C78.8881 6.07413 78.5415 5.85111 78.1621 5.70239C77.7828 5.55367 77.3782 5.48217 76.9715 5.49198H72.0518C71.2306 5.47289 70.4355 5.78462 69.8411 6.35868C69.547 6.63501 69.3145 6.97163 69.159 7.3461C69.0034 7.72058 68.9285 8.12431 68.9392 8.53039V12.4156C68.9283 12.8217 69.0031 13.2255 69.1587 13.6C69.3142 13.9745 69.5469 14.3111 69.8411 14.5873C70.4355 15.1613 71.2306 15.4731 72.0518 15.454H76.9715C77.3782 15.4638 77.7828 15.3923 78.1621 15.2436C78.5415 15.0949 78.8881 14.8718 79.1822 14.5873C79.4764 14.3111 79.7091 13.9745 79.8647 13.6C80.0202 13.2255 80.095 12.8217 80.0841 12.4156ZM78.254 12.4156C78.254 13.2225 77.7358 13.6044 76.9715 13.6044H72.0518C71.2876 13.6044 70.7693 13.2225 70.7693 12.4156V8.53371C70.7693 7.72679 71.2876 7.34491 72.0518 7.34491H76.9715C77.7358 7.34491 78.254 7.72679 78.254 8.53371V12.4156Z"
    fill="#f4f4f4" />
  <path fill-rule="evenodd" clip-rule="evenodd"
    d="M55.6722 5.4787V7.33163H63.1601C63.921 7.33163 64.4031 7.73011 64.4031 8.52043V12.399C64.4031 13.1893 63.921 13.5878 63.1601 13.5878H57.5187V9.40373H55.6886V15.4407H63.1601C63.5648 15.4509 63.9675 15.3796 64.3448 15.2308C64.7221 15.082 65.0663 14.8587 65.3576 14.574C65.6497 14.2966 65.8803 13.9596 66.0341 13.5852C66.1879 13.2108 66.2614 12.8076 66.2497 12.4023V8.5171C66.2614 8.11179 66.1879 7.70859 66.0341 7.33419C65.8803 6.9598 65.6497 6.62275 65.3576 6.34539C65.0663 6.06064 64.7221 5.83738 64.3448 5.68858C63.9675 5.53979 63.5648 5.46845 63.1601 5.4787H55.6722Z"
    fill="#f4f4f4" />
  <path fill-rule="evenodd" clip-rule="evenodd"
    d="M52.9663 15.4407V8.43409C52.9824 7.66489 52.716 6.91702 52.2185 6.33543C51.9835 6.0558 51.6892 5.83352 51.3576 5.68517C51.0259 5.53682 50.6654 5.46624 50.303 5.4787H44.6059C44.2471 5.46759 43.8904 5.5389 43.5626 5.68727C43.2349 5.83565 42.9445 6.05725 42.7134 6.33543C42.2137 6.91587 41.9458 7.66425 41.9624 8.43409V15.4407H43.7958V8.4673C43.7958 7.92603 43.9795 7.3582 44.6059 7.3582H50.303C50.936 7.3582 51.1361 7.91275 51.1361 8.4673V10.2605H45.9277V12.1134H51.1361V15.4407H52.9663Z"
    fill="#f4f4f4" />
  <path fill-rule="evenodd" clip-rule="evenodd"
    d="M28 5.4787V7.32167C31.2799 7.32167 33.3298 7.32167 36.6031 7.32167C37.3312 7.32167 37.4361 8.18172 37.4361 8.74291C37.4361 9.30411 37.3246 10.1409 36.6031 10.1409H28V15.4407H29.8302V12.0171H36.5932C36.9789 12.0293 37.3614 11.9429 37.7053 11.7659C38.0493 11.5889 38.3436 11.3269 38.5611 11.0043C39.0422 10.3617 39.2921 9.57211 39.2696 8.76616C39.2891 7.95091 39.0385 7.15252 38.5579 6.49815C38.34 6.18098 38.0474 5.9238 37.7067 5.74986C37.366 5.57592 36.9878 5.49072 36.6063 5.50195L28 5.4787Z"
    fill="#f4f4f4" />
  <defs>
    <linearGradient id="paint0_linear_2555_77845" x1="10" y1="0" x2="10" y2="20" gradientUnits="userSpaceOnUse">
      <stop stop-color="#78E1FB" />
      <stop offset="1" stop-color="#70FFBD" />
    </linearGradient>
  </defs>
</svg>