<svg width="548" height="104" viewBox="0 0 548 104" fill="none" xmlns="http://www.w3.org/2000/svg">
<path fill-rule="evenodd" clip-rule="evenodd" d="M548.932 -611.061C852.096 -611.061 1097.86 -340.3 1097.86 -6.30548C1097.86 327.689 852.096 598.45 548.932 598.45C245.764 598.45 0 327.691 0 -6.30548C0 -340.302 245.764 -611.061 548.932 -611.061ZM548.932 -610.256C246.168 -610.256 0.730591 -339.857 0.730591 -6.30511C0.730591 327.247 246.168 597.646 548.932 597.646C851.693 597.646 1097.13 327.245 1097.13 -6.30511C1097.13 -339.855 851.693 -610.256 548.932 -610.256ZM550.489 -568.742C831.58 -568.742 1059.45 -316.931 1059.45 -6.30536C1059.45 304.32 831.58 556.131 550.489 556.131C269.394 556.131 41.5272 304.322 41.5272 -6.30536C41.5272 -316.933 269.394 -568.742 550.489 -568.742ZM550.489 -567.955C269.789 -567.955 42.2413 -316.499 42.2413 -6.30554C42.2413 303.888 269.789 555.344 550.489 555.344C831.185 555.344 1058.74 303.886 1058.74 -6.30554C1058.74 -316.497 831.185 -567.955 550.489 -567.955ZM1021.04 -8.01752C1021.04 -294.324 810.368 -526.422 550.492 -526.422C290.614 -526.422 79.9402 -294.323 79.9402 -8.01752C79.9402 278.287 290.613 510.381 550.492 510.381C810.369 510.381 1021.04 278.288 1021.04 -8.01752ZM80.6378 -8.01752C80.6378 -293.899 291 -525.653 550.492 -525.653C809.983 -525.653 1020.34 -293.9 1020.34 -8.01752C1020.34 277.864 809.984 509.612 550.492 509.612C290.998 509.612 80.6378 277.863 80.6378 -8.01752ZM548.413 -480.673C785.928 -480.673 978.473 -268.546 978.473 -6.87738C978.473 254.791 785.928 466.918 548.413 466.918C310.899 466.918 118.353 254.791 118.353 -6.87738C118.353 -268.546 310.899 -480.673 548.413 -480.673ZM548.413 -479.921C311.275 -479.921 119.035 -268.131 119.035 -6.8772C119.035 254.376 311.275 466.167 548.413 466.167C785.551 466.167 977.791 254.376 977.791 -6.8772C977.791 -268.131 785.551 -479.921 548.413 -479.921ZM941.098 -5.73364C941.098 -244.029 766.447 -437.209 551.008 -437.209C335.565 -437.209 160.918 -244.031 160.918 -5.73364C160.918 232.564 335.565 425.742 551.008 425.742C766.447 425.742 941.098 232.561 941.098 -5.73364ZM161.583 -5.73401C161.583 -243.627 335.933 -436.477 551.008 -436.477C766.079 -436.477 940.433 -243.625 940.433 -5.73401C940.433 232.157 766.079 425.009 551.008 425.009C335.933 425.009 161.583 232.159 161.583 -5.73401ZM551.011 -393.746C744.661 -393.746 901.647 -220.537 901.647 -6.87433C901.647 206.787 744.662 379.992 551.011 379.992C357.355 379.992 200.369 206.788 200.369 -6.87433C200.369 -220.538 357.356 -393.746 551.011 -393.746ZM551.011 -393.031C357.715 -393.031 201.018 -220.143 201.018 -6.87421C201.018 206.394 357.714 379.277 551.011 379.277C744.303 379.277 900.998 206.393 900.998 -6.87421C900.998 -220.142 744.302 -393.031 551.011 -393.031ZM860.12 -6.30566C860.12 -195.647 721.029 -349.14 549.451 -349.14C377.873 -349.14 238.782 -195.647 238.782 -6.30566C238.782 183.036 377.873 336.528 549.451 336.528C721.029 336.528 860.12 183.036 860.12 -6.30566ZM239.415 -6.30566C239.415 -195.263 378.223 -348.443 549.451 -348.443C720.68 -348.443 859.488 -195.263 859.488 -6.30566C859.488 182.652 720.68 335.832 549.451 335.832C378.223 335.832 239.415 182.652 239.415 -6.30566ZM549.451 -305.677C699.24 -305.677 820.669 -171.643 820.669 -6.3056C820.669 159.032 699.24 293.065 549.451 293.065C399.662 293.065 278.233 159.032 278.233 -6.3056C278.233 -171.643 399.662 -305.677 549.451 -305.677ZM549.451 -304.998C400.002 -304.998 278.849 -171.269 278.849 -6.30554C278.849 158.657 400.002 292.387 549.451 292.387C698.9 292.387 820.053 158.657 820.053 -6.30554C820.053 -171.269 698.9 -304.998 549.451 -304.998ZM781.218 -7.44604C781.218 -148.783 677.454 -263.358 549.454 -263.358C421.449 -263.358 317.684 -148.784 317.684 -7.44604C317.684 133.886 421.45 248.459 549.454 248.459C677.453 248.459 781.218 133.885 781.218 -7.44604ZM318.284 -7.44574C318.284 -148.419 421.781 -262.696 549.454 -262.696C677.122 -262.696 780.618 -148.418 780.618 -7.44574C780.618 133.521 677.121 247.799 549.454 247.799C421.782 247.799 318.284 133.522 318.284 -7.44574ZM548.932 -217.607C654.856 -217.607 740.729 -122.747 740.729 -5.73358C740.729 111.28 654.856 206.14 548.932 206.14C443.004 206.14 357.135 111.282 357.135 -5.73358C357.135 -122.749 443.004 -217.607 548.932 -217.607ZM548.932 -216.965C443.327 -216.965 357.719 -122.395 357.719 -5.73376C357.719 110.927 443.327 205.497 548.932 205.497C654.534 205.497 740.146 110.925 740.146 -5.73376C740.146 -122.393 654.534 -216.965 548.932 -216.965ZM701.278 -5.73364C701.278 -98.7448 632.839 -174.144 548.413 -174.144C463.987 -174.144 395.548 -98.7448 395.548 -5.73364C395.548 87.2776 463.987 162.677 548.413 162.677C632.839 162.677 701.278 87.2776 701.278 -5.73364ZM396.115 -5.73364C396.115 -98.4 464.301 -173.52 548.413 -173.52C632.526 -173.52 700.711 -98.4 700.711 -5.73364C700.711 86.9327 632.526 162.052 548.413 162.052C464.301 162.052 396.115 86.9327 396.115 -5.73364ZM550.492 -131.825C612.553 -131.825 662.865 -76.1362 662.865 -7.44611C662.865 61.2428 612.554 116.926 550.492 116.926C488.428 116.926 438.113 61.2416 438.113 -7.44611C438.113 -76.1351 488.429 -131.825 550.492 -131.825ZM550.492 -131.219C488.734 -131.219 438.664 -75.8011 438.664 -7.44617C438.664 60.9075 488.733 116.32 550.492 116.32C612.25 116.32 662.315 60.9087 662.315 -7.44617C662.315 -75.8022 612.249 -131.219 550.492 -131.219ZM620.3 -6.30536C620.3 -50.361 587.881 -86.0743 547.894 -86.0743C507.903 -86.0743 475.489 -50.363 475.489 -6.30536C475.489 37.7483 507.905 73.4635 547.894 73.4635C587.879 73.4635 620.3 37.7462 620.3 -6.30536ZM476.022 -6.30554C476.022 -50.0386 508.198 -85.4866 547.894 -85.4866C587.587 -85.4866 619.766 -50.0364 619.766 -6.30554C619.766 37.4214 587.585 72.8756 547.894 72.8756C508.2 72.8756 476.022 37.4235 476.022 -6.30554ZM548.413 -42.6115C566.898 -42.6115 581.887 -26.1008 581.887 -5.73395C581.887 14.6329 566.898 31.1436 548.413 31.1436C529.924 31.1436 514.94 14.635 514.94 -5.73395C514.94 -26.1029 529.924 -42.6115 548.413 -42.6115ZM548.413 -42.0418C530.21 -42.0418 515.457 -25.7882 515.457 -5.7337C515.457 14.3207 530.21 30.5743 548.413 30.5743C566.613 30.5743 581.37 14.3186 581.37 -5.7337C581.37 -25.7861 566.613 -42.0418 548.413 -42.0418Z" fill="url(#paint0_linear_301_3742)"/>
<defs>
<linearGradient id="paint0_linear_301_3742" x1="586.401" y1="430.412" x2="108.524" y2="498.724" gradientUnits="userSpaceOnUse">
<stop stop-color="#065979" stop-opacity="0.242297"/>
<stop offset="1" stop-color="#CCF4FC" stop-opacity="0.36"/>
</linearGradient>
</defs>
</svg>
