<svg xmlns="http://www.w3.org/2000/svg" xmlns:xlink="http://www.w3.org/1999/xlink" fill="none" version="1.1" width="48" height="48" viewBox="0 0 48 48"><defs><clipPath id="master_svg0_0_10554"><rect x="12" y="12" width="24" height="24" rx="0"/></clipPath></defs><g><g><rect x="0" y="0" width="48" height="48" rx="24" fill="#E8FFFF" fill-opacity="1"/></g><g clip-path="url(#master_svg0_0_10554)"><g><path d="M26.25,20.5C26.25,20.91421,26.5858,21.25,27,21.25C27.4142,21.25,27.75,20.91421,27.75,20.5C27.75,20.5,26.25,20.5,26.25,20.5C26.25,20.5,26.25,20.5,26.25,20.5ZM27,14C27,14,27.75,14,27.75,14C27.75,13.585786,27.4142,13.25,27,13.25C27,13.25,27,14,27,14C27,14,27,14,27,14ZM14,14C14,14,14,13.25,14,13.25C13.585786,13.25,13.25,13.585786,13.25,14C13.25,14,14,14,14,14C14,14,14,14,14,14ZM14,27C14,27,13.25,27,13.25,27C13.25,27.4142,13.585786,27.75,14,27.75C14,27.75,14,27,14,27C14,27,14,27,14,27ZM20.5,27.75C20.91421,27.75,21.25,27.4142,21.25,27C21.25,26.5858,20.91421,26.25,20.5,26.25C20.5,26.25,20.5,27.75,20.5,27.75C20.5,27.75,20.5,27.75,20.5,27.75ZM27.75,20.5C27.75,20.5,27.75,14,27.75,14C27.75,14,26.25,14,26.25,14C26.25,14,26.25,20.5,26.25,20.5C26.25,20.5,27.75,20.5,27.75,20.5C27.75,20.5,27.75,20.5,27.75,20.5ZM27,13.25C27,13.25,14,13.25,14,13.25C14,13.25,14,14.75,14,14.75C14,14.75,27,14.75,27,14.75C27,14.75,27,13.25,27,13.25C27,13.25,27,13.25,27,13.25ZM13.25,14C13.25,14,13.25,27,13.25,27C13.25,27,14.75,27,14.75,27C14.75,27,14.75,14,14.75,14C14.75,14,13.25,14,13.25,14C13.25,14,13.25,14,13.25,14ZM14,27.75C14,27.75,20.5,27.75,20.5,27.75C20.5,27.75,20.5,26.25,20.5,26.25C20.5,26.25,14,26.25,14,26.25C14,26.25,14,27.75,14,27.75C14,27.75,14,27.75,14,27.75Z" fill="#161616" fill-opacity="1"/></g><g><path d="M33.5,33.5C33.5,33.5,33.5,20.5,33.5,20.5C33.5,20.5,20.5,20.5,20.5,20.5C20.5,20.5,20.5,33.5,20.5,33.5C20.5,33.5,33.5,33.5,33.5,33.5C33.5,33.5,33.5,33.5,33.5,33.5Z" fill="#00C7F2" fill-opacity="1"/><path d="M19.75,33.5Q19.75,33.5739,19.764411,33.6463Q19.778822,33.7188,19.80709,33.787Q19.835359,33.8553,19.876398000000002,33.9167Q19.917437,33.9781,19.96967,34.0303Q20.021903000000002,34.0826,20.083322,34.123599999999996Q20.144742,34.1646,20.212987,34.1929Q20.281233,34.221199999999996,20.353682,34.2356Q20.4261315,34.25,20.5,34.25L33.5,34.25Q33.5739,34.25,33.6463,34.2356Q33.7188,34.221199999999996,33.787,34.1929Q33.8553,34.1646,33.9167,34.123599999999996Q33.9781,34.0826,34.0303,34.0303Q34.0826,33.9781,34.123599999999996,33.9167Q34.1646,33.8553,34.1929,33.787Q34.221199999999996,33.7188,34.2356,33.6463Q34.25,33.5739,34.25,33.5L34.25,20.5Q34.25,20.4261315,34.2356,20.353682Q34.221199999999996,20.281233,34.1929,20.212987Q34.1646,20.144742,34.123599999999996,20.083322Q34.0826,20.021903000000002,34.0303,19.96967Q33.9781,19.917437,33.9167,19.876398000000002Q33.8553,19.835359,33.787,19.80709Q33.7188,19.778822,33.6463,19.764411Q33.5739,19.75,33.5,19.75L20.5,19.75Q20.4261315,19.75,20.353682,19.764411Q20.281233,19.778822,20.212987,19.80709Q20.144742,19.835359,20.083322,19.876398000000002Q20.021903000000002,19.917437,19.96967,19.96967Q19.917437,20.021903000000002,19.876398000000002,20.083322Q19.835359,20.144742,19.80709,20.212987Q19.778822,20.281233,19.764411,20.353682Q19.75,20.4261315,19.75,20.5L19.75,33.5ZM21.25,32.75L32.75,32.75L32.75,21.25L21.25,21.25L21.25,32.75Z" fill-rule="evenodd" fill="#161616" fill-opacity="1"/></g><g><path d="M28.5,27C28.5,27,29.03033,27.53033,29.03033,27.53033C29.32322,27.23744,29.32322,26.76256,29.03033,26.46967C29.03033,26.46967,28.5,27,28.5,27C28.5,27,28.5,27,28.5,27ZM20.5,26.25C20.085786,26.25,19.75,26.58579,19.75,27C19.75,27.41421,20.085786,27.75,20.5,27.75C20.5,27.75,20.5,26.25,20.5,26.25C20.5,26.25,20.5,26.25,20.5,26.25ZM26.53033,23.96967C26.23744,23.6767768,25.76256,23.6767768,25.46967,23.96967C25.17678,24.262563,25.17678,24.737437,25.46967,25.03033C25.46967,25.03033,26.53033,23.96967,26.53033,23.96967C26.53033,23.96967,26.53033,23.96967,26.53033,23.96967ZM25.46967,28.96967C25.17678,29.26256,25.17678,29.73744,25.46967,30.03033C25.76256,30.32322,26.23744,30.32322,26.53033,30.03033C26.53033,30.03033,25.46967,28.96967,25.46967,28.96967C25.46967,28.96967,25.46967,28.96967,25.46967,28.96967ZM28.5,26.25C28.5,26.25,20.5,26.25,20.5,26.25C20.5,26.25,20.5,27.75,20.5,27.75C20.5,27.75,28.5,27.75,28.5,27.75C28.5,27.75,28.5,26.25,28.5,26.25C28.5,26.25,28.5,26.25,28.5,26.25ZM29.03033,26.46967C29.03033,26.46967,26.53033,23.96967,26.53033,23.96967C26.53033,23.96967,25.46967,25.03033,25.46967,25.03033C25.46967,25.03033,27.96967,27.53033,27.96967,27.53033C27.96967,27.53033,29.03033,26.46967,29.03033,26.46967C29.03033,26.46967,29.03033,26.46967,29.03033,26.46967ZM27.96967,26.46967C27.96967,26.46967,25.46967,28.96967,25.46967,28.96967C25.46967,28.96967,26.53033,30.03033,26.53033,30.03033C26.53033,30.03033,29.03033,27.53033,29.03033,27.53033C29.03033,27.53033,27.96967,26.46967,27.96967,26.46967C27.96967,26.46967,27.96967,26.46967,27.96967,26.46967Z" fill="#161616" fill-opacity="1"/></g><g><path d="M21.25,20.5C21.25,20.085786,20.91421,19.75,20.5,19.75C20.085786,19.75,19.75,20.085786,19.75,20.5C19.75,20.5,21.25,20.5,21.25,20.5C21.25,20.5,21.25,20.5,21.25,20.5ZM19.75,33.5C19.75,33.9142,20.085786,34.25,20.5,34.25C20.91421,34.25,21.25,33.9142,21.25,33.5C21.25,33.5,19.75,33.5,19.75,33.5C19.75,33.5,19.75,33.5,19.75,33.5ZM19.75,20.5C19.75,20.5,19.75,33.5,19.75,33.5C19.75,33.5,21.25,33.5,21.25,33.5C21.25,33.5,21.25,20.5,21.25,20.5C21.25,20.5,19.75,20.5,19.75,20.5C19.75,20.5,19.75,20.5,19.75,20.5Z" fill="#161616" fill-opacity="1"/></g></g></g></svg>