<svg xmlns="http://www.w3.org/2000/svg" xmlns:xlink="http://www.w3.org/1999/xlink" fill="none" version="1.1" width="160" height="160" viewBox="0 0 160 160"><g><g><g><g><path d="M137.09582346191405,138.4218580078125C137.09582346191405,138.4218580078125,137.09582346191405,108.1944580078125,137.09582346191405,108.1944580078125C137.09582346191405,108.1944580078125,106.86842346191406,108.1944580078125,106.86842346191406,108.1944580078125C106.86842346191406,108.1944580078125,106.86842346191406,138.4218580078125,106.86842346191406,138.4218580078125C106.86842346191406,138.4218580078125,137.09582346191405,138.4218580078125,137.09582346191405,138.4218580078125C137.09582346191405,138.4218580078125,137.09582346191405,138.4218580078125,137.09582346191405,138.4218580078125Z" fill="#A0F7FF" fill-opacity="1"/><path d="M105.86842346191406,138.4218580078125Q105.86842346191406,138.5203580078125,105.88763846191407,138.6169580078125Q105.90685346191407,138.7135580078125,105.94454446191406,138.8045580078125Q105.98223546191406,138.8955580078125,106.03695346191407,138.97745800781252Q106.09167246191406,139.0593580078125,106.16131646191407,139.1289580078125Q106.23096046191407,139.1985580078125,106.31285346191406,139.2533580078125Q106.39474546191406,139.3080580078125,106.48574046191406,139.3457580078125Q106.57673446191406,139.3834580078125,106.67333346191407,139.4026580078125Q106.76993206191406,139.4218580078125,106.86842346191406,139.4218580078125L137.09582346191405,139.4218580078125Q137.19432346191405,139.4218580078125,137.29092346191408,139.4026580078125Q137.38752346191407,139.3834580078125,137.47852346191405,139.3457580078125Q137.56952346191406,139.3080580078125,137.65142346191408,139.2533580078125Q137.73332346191407,139.1985580078125,137.80292346191408,139.1289580078125Q137.87252346191406,139.0593580078125,137.92732346191406,138.97745800781252Q137.98202346191405,138.8955580078125,138.01972346191405,138.8045580078125Q138.05742346191406,138.7135580078125,138.07662346191407,138.6169580078125Q138.09582346191405,138.5203580078125,138.09582346191405,138.4218580078125L138.09582346191405,108.1944580078125Q138.09582346191405,108.0959666078125,138.07662346191407,107.9993680078125Q138.05742346191406,107.9027690078125,138.01972346191405,107.8117750078125Q137.98202346191405,107.7207800078125,137.92732346191406,107.6388880078125Q137.87252346191406,107.5569950078125,137.80292346191408,107.4873510078125Q137.73332346191407,107.4177070078125,137.65142346191408,107.3629880078125Q137.56952346191406,107.3082700078125,137.47852346191405,107.2705790078125Q137.38752346191407,107.2328880078125,137.29092346191408,107.2136730078125Q137.19432346191405,107.1944580078125,137.09582346191405,107.1944580078125L106.86842346191406,107.1944580078125Q106.76993206191406,107.1944580078125,106.67333346191407,107.2136730078125Q106.57673446191406,107.2328880078125,106.48574046191406,107.2705790078125Q106.39474546191406,107.3082700078125,106.31285346191406,107.3629880078125Q106.23096046191407,107.4177070078125,106.16131646191407,107.4873510078125Q106.09167246191406,107.5569950078125,106.03695346191407,107.6388880078125Q105.98223546191406,107.7207800078125,105.94454446191406,107.8117750078125Q105.90685346191407,107.9027690078125,105.88763846191407,107.9993680078125Q105.86842346191406,108.0959666078125,105.86842346191406,108.1944580078125L105.86842346191406,138.4218580078125ZM107.86842346191406,137.4218580078125L136.09582346191405,137.4218580078125L136.09582346191405,109.1944580078125L107.86842346191406,109.1944580078125L107.86842346191406,137.4218580078125Z" fill-rule="evenodd" fill="#161616" fill-opacity="1"/></g><g><path d="M53.38914197196961,51.2274C53.38914197196961,51.2274,53.38914197196961,21,53.38914197196961,21C53.38914197196961,21,23.161741971969604,21,23.161741971969604,21C23.161741971969604,21,23.161741971969604,51.2274,23.161741971969604,51.2274C23.161741971969604,51.2274,53.38914197196961,51.2274,53.38914197196961,51.2274C53.38914197196961,51.2274,53.38914197196961,51.2274,53.38914197196961,51.2274Z" fill="#A0F7FF" fill-opacity="1"/><path d="M22.161741971969604,51.2274Q22.161741971969604,51.325900000000004,22.180956971969604,51.4225Q22.200171971969603,51.5191,22.237862971969605,51.6101Q22.275553971969604,51.7011,22.330271971969605,51.783Q22.384990971969604,51.8649,22.454634971969604,51.9345Q22.524278971969604,52.0041,22.606171971969605,52.0589Q22.688063971969605,52.113600000000005,22.779058971969604,52.1513Q22.870052971969603,52.189,22.966651971969604,52.208200000000005Q23.063250571969604,52.2274,23.161741971969604,52.2274L53.38914197196961,52.2274Q53.48764197196961,52.2274,53.584241971969604,52.208200000000005Q53.680841971969606,52.189,53.77184197196961,52.1513Q53.8628419719696,52.113600000000005,53.944741971969606,52.0589Q54.0266419719696,52.0041,54.096241971969604,51.9345Q54.165841971969606,51.8649,54.220641971969606,51.783Q54.27534197196961,51.7011,54.313041971969604,51.6101Q54.350741971969605,51.5191,54.36994197196961,51.4225Q54.38914197196961,51.325900000000004,54.38914197196961,51.2274L54.38914197196961,21Q54.38914197196961,20.9015086,54.36994197196961,20.80491Q54.350741971969605,20.708311,54.313041971969604,20.617317Q54.27534197196961,20.526322,54.220641971969606,20.44443Q54.165841971969606,20.362537,54.096241971969604,20.292893Q54.0266419719696,20.223249,53.944741971969606,20.16853Q53.8628419719696,20.113812,53.77184197196961,20.076121Q53.680841971969606,20.038429999999998,53.584241971969604,20.019215Q53.48764197196961,20,53.38914197196961,20L23.161741971969604,20Q23.063250571969604,20,22.966651971969604,20.019215Q22.870052971969603,20.038429999999998,22.779058971969604,20.076121Q22.688063971969605,20.113812,22.606171971969605,20.16853Q22.524278971969604,20.223249,22.454634971969604,20.292893Q22.384990971969604,20.362537,22.330271971969605,20.44443Q22.275553971969604,20.526322,22.237862971969605,20.617317Q22.200171971969603,20.708311,22.180956971969604,20.80491Q22.161741971969604,20.9015086,22.161741971969604,21L22.161741971969604,51.2274ZM24.161741971969604,50.2274L52.38914197196961,50.2274L52.38914197196961,22L24.161741971969604,22L24.161741971969604,50.2274Z" fill-rule="evenodd" fill="#161616" fill-opacity="1"/></g><g><path d="M53.9713,36.172789125976564L113.8448,36.172789125976564C125.723,36.172789125976564,135.353,46.049179125976565,135.353,58.23227912597656C135.353,70.41537912597656,125.723,80.29167912597657,113.8448,80.29167912597657L104.5367,80.29167912597657Q104.5068,81.48877912597656,104.3572,82.67647912597656L113.8448,82.67647912597656C127.008,82.67647912597656,137.678,71.73237912597656,137.678,58.23227912597656C137.678,44.73207912597656,127.008,33.78797912597656,113.8448,33.78797912597656L53.9713,33.78797912597656L53.9713,36.172789125976564ZM59.3899,82.67647912597656Q59.2403,81.48877912597656,59.2104,80.29167912597657L44.6706,80.29167912597657C32.15,80.29167912597657,22,90.70187912597656,22,103.54357912597656C22,116.38517912597656,32.15,126.79537912597657,44.6706,126.79537912597657L105.7067,126.79537912597657L105.7067,124.41057912597657L44.6706,124.41057912597657C33.4341,124.41057912597657,24.32519,115.06807912597657,24.32519,103.54357912597656C24.32519,92.01897912597656,33.4341,82.67647912597656,44.6706,82.67647912597656L59.3899,82.67647912597656Z" fill-rule="evenodd" fill="#C6C6C6" fill-opacity="1"/></g><g><path d="M87.1043472290039,88.43038177490234C87.1043472290039,88.43038177490234,97.56764722900391,101.21888177490234,97.56764722900391,101.21888177490234C97.56764722900391,101.21888177490234,87.1043472290039,88.43038177490234,87.1043472290039,88.43038177490234Z" fill="#00C7F2" fill-opacity="1"/><path d="M86.33038922900391,89.06361877490234L96.79368722900391,101.85208177490235L98.34164722900391,100.58568177490234L87.8783052290039,87.79714477490235L86.33038922900391,89.06361877490234Z" fill-rule="evenodd" fill="#161616" fill-opacity="1"/></g><g><ellipse cx="82.45397472381592" cy="81.45482540130615" rx="13.9511137008667" ry="13.9511137008667" fill="#E0E0E0" fill-opacity="1"/><ellipse cx="82.45397472381592" cy="81.45482540130615" rx="13.9511137008667" ry="13.9511137008667" fill-opacity="0" stroke-opacity="1" stroke="#161616" fill="none" stroke-width="2"/></g></g><g><path d="M35.949411392211914,34.9511137008667C35.949411392211914,34.9511137008667,35.949411392211914,34.4511137008667,35.949411392211914,34.4511137008667C35.949411392211914,34.4511137008667,35.449411392211914,34.4511137008667,35.449411392211914,34.4511137008667C35.449411392211914,34.4511137008667,35.449411392211914,34.9511137008667,35.449411392211914,34.9511137008667C35.449411392211914,34.9511137008667,35.949411392211914,34.9511137008667,35.949411392211914,34.9511137008667C35.949411392211914,34.9511137008667,35.949411392211914,34.9511137008667,35.949411392211914,34.9511137008667ZM36.449411392211914,52.3900137008667C36.449411392211914,52.3900137008667,36.449411392211914,51.3001137008667,36.449411392211914,51.3001137008667C36.449411392211914,51.3001137008667,35.449411392211914,51.3001137008667,35.449411392211914,51.3001137008667C35.449411392211914,51.3001137008667,35.449411392211914,52.3900137008667,35.449411392211914,52.3900137008667C35.449411392211914,52.3900137008667,36.449411392211914,52.3900137008667,36.449411392211914,52.3900137008667C36.449411392211914,52.3900137008667,36.449411392211914,52.3900137008667,36.449411392211914,52.3900137008667ZM36.449411392211914,49.1202137008667C36.449411392211914,49.1202137008667,36.449411392211914,46.940313700866696,36.449411392211914,46.940313700866696C36.449411392211914,46.940313700866696,35.449411392211914,46.940313700866696,35.449411392211914,46.940313700866696C35.449411392211914,46.940313700866696,35.449411392211914,49.1202137008667,35.449411392211914,49.1202137008667C35.449411392211914,49.1202137008667,36.449411392211914,49.1202137008667,36.449411392211914,49.1202137008667C36.449411392211914,49.1202137008667,36.449411392211914,49.1202137008667,36.449411392211914,49.1202137008667ZM36.449411392211914,44.760513700866696C36.449411392211914,44.760513700866696,36.449411392211914,42.5806337008667,36.449411392211914,42.5806337008667C36.449411392211914,42.5806337008667,35.449411392211914,42.5806337008667,35.449411392211914,42.5806337008667C35.449411392211914,42.5806337008667,35.449411392211914,44.760513700866696,35.449411392211914,44.760513700866696C35.449411392211914,44.760513700866696,36.449411392211914,44.760513700866696,36.449411392211914,44.760513700866696C36.449411392211914,44.760513700866696,36.449411392211914,44.760513700866696,36.449411392211914,44.760513700866696ZM36.449411392211914,40.4007637008667C36.449411392211914,40.4007637008667,36.449411392211914,38.2209037008667,36.449411392211914,38.2209037008667C36.449411392211914,38.2209037008667,35.449411392211914,38.2209037008667,35.449411392211914,38.2209037008667C35.449411392211914,38.2209037008667,35.449411392211914,40.4007637008667,35.449411392211914,40.4007637008667C35.449411392211914,40.4007637008667,36.449411392211914,40.4007637008667,36.449411392211914,40.4007637008667C36.449411392211914,40.4007637008667,36.449411392211914,40.4007637008667,36.449411392211914,40.4007637008667ZM36.449411392211914,36.0410437008667C36.449411392211914,36.0410437008667,36.449411392211914,34.9511137008667,36.449411392211914,34.9511137008667C36.449411392211914,34.9511137008667,35.449411392211914,34.9511137008667,35.449411392211914,34.9511137008667C35.449411392211914,34.9511137008667,35.449411392211914,36.0410437008667,35.449411392211914,36.0410437008667C35.449411392211914,36.0410437008667,36.449411392211914,36.0410437008667,36.449411392211914,36.0410437008667C36.449411392211914,36.0410437008667,36.449411392211914,36.0410437008667,36.449411392211914,36.0410437008667ZM35.949411392211914,35.4511137008667C35.949411392211914,35.4511137008667,36.879481392211915,35.4511137008667,36.879481392211915,35.4511137008667C36.879481392211915,35.4511137008667,36.879481392211915,34.4511137008667,36.879481392211915,34.4511137008667C36.879481392211915,34.4511137008667,35.949411392211914,34.4511137008667,35.949411392211914,34.4511137008667C35.949411392211914,34.4511137008667,35.949411392211914,35.4511137008667,35.949411392211914,35.4511137008667C35.949411392211914,35.4511137008667,35.949411392211914,35.4511137008667,35.949411392211914,35.4511137008667ZM38.73963139221191,35.4511137008667C38.73963139221191,35.4511137008667,40.599781392211916,35.4511137008667,40.599781392211916,35.4511137008667C40.599781392211916,35.4511137008667,40.599781392211916,34.4511137008667,40.599781392211916,34.4511137008667C40.599781392211916,34.4511137008667,38.73963139221191,34.4511137008667,38.73963139221191,34.4511137008667C38.73963139221191,34.4511137008667,38.73963139221191,35.4511137008667,38.73963139221191,35.4511137008667C38.73963139221191,35.4511137008667,38.73963139221191,35.4511137008667,38.73963139221191,35.4511137008667ZM42.459931392211914,35.4511137008667C42.459931392211914,35.4511137008667,44.32008139221192,35.4511137008667,44.32008139221192,35.4511137008667C44.32008139221192,35.4511137008667,44.32008139221192,34.4511137008667,44.32008139221192,34.4511137008667C44.32008139221192,34.4511137008667,42.459931392211914,34.4511137008667,42.459931392211914,34.4511137008667C42.459931392211914,34.4511137008667,42.459931392211914,35.4511137008667,42.459931392211914,35.4511137008667C42.459931392211914,35.4511137008667,42.459931392211914,35.4511137008667,42.459931392211914,35.4511137008667ZM46.180211392211916,35.4511137008667C46.180211392211916,35.4511137008667,48.040411392211915,35.4511137008667,48.040411392211915,35.4511137008667C48.040411392211915,35.4511137008667,48.040411392211915,34.4511137008667,48.040411392211915,34.4511137008667C48.040411392211915,34.4511137008667,46.180211392211916,34.4511137008667,46.180211392211916,34.4511137008667C46.180211392211916,34.4511137008667,46.180211392211916,35.4511137008667,46.180211392211916,35.4511137008667C46.180211392211916,35.4511137008667,46.180211392211916,35.4511137008667,46.180211392211916,35.4511137008667ZM49.90051139221191,35.4511137008667C49.90051139221191,35.4511137008667,51.76071139221192,35.4511137008667,51.76071139221192,35.4511137008667C51.76071139221192,35.4511137008667,51.76071139221192,34.4511137008667,51.76071139221192,34.4511137008667C51.76071139221192,34.4511137008667,49.90051139221191,34.4511137008667,49.90051139221191,34.4511137008667C49.90051139221191,34.4511137008667,49.90051139221191,35.4511137008667,49.90051139221191,35.4511137008667C49.90051139221191,35.4511137008667,49.90051139221191,35.4511137008667,49.90051139221191,35.4511137008667ZM53.62081139221191,35.4511137008667C53.62081139221191,35.4511137008667,54.550911392211916,35.4511137008667,54.550911392211916,35.4511137008667C54.550911392211916,35.4511137008667,54.550911392211916,34.4511137008667,54.550911392211916,34.4511137008667C54.550911392211916,34.4511137008667,53.62081139221191,34.4511137008667,53.62081139221191,34.4511137008667C53.62081139221191,34.4511137008667,53.62081139221191,35.4511137008667,53.62081139221191,35.4511137008667C53.62081139221191,35.4511137008667,53.62081139221191,35.4511137008667,53.62081139221191,35.4511137008667ZM35.949411392211914,34.9511137008667C35.949411392211914,34.9511137008667,35.949411392211914,34.4511137008667,35.949411392211914,34.4511137008667C35.949411392211914,34.4511137008667,35.449411392211914,34.4511137008667,35.449411392211914,34.4511137008667C35.449411392211914,34.4511137008667,35.449411392211914,34.9511137008667,35.449411392211914,34.9511137008667C35.449411392211914,34.9511137008667,35.949411392211914,34.9511137008667,35.949411392211914,34.9511137008667C35.949411392211914,34.9511137008667,35.949411392211914,34.9511137008667,35.949411392211914,34.9511137008667ZM36.449411392211914,52.3900137008667C36.449411392211914,52.3900137008667,36.449411392211914,51.3001137008667,36.449411392211914,51.3001137008667C36.449411392211914,51.3001137008667,35.449411392211914,51.3001137008667,35.449411392211914,51.3001137008667C35.449411392211914,51.3001137008667,35.449411392211914,52.3900137008667,35.449411392211914,52.3900137008667C35.449411392211914,52.3900137008667,36.449411392211914,52.3900137008667,36.449411392211914,52.3900137008667C36.449411392211914,52.3900137008667,36.449411392211914,52.3900137008667,36.449411392211914,52.3900137008667ZM36.449411392211914,49.1202137008667C36.449411392211914,49.1202137008667,36.449411392211914,46.940313700866696,36.449411392211914,46.940313700866696C36.449411392211914,46.940313700866696,35.449411392211914,46.940313700866696,35.449411392211914,46.940313700866696C35.449411392211914,46.940313700866696,35.449411392211914,49.1202137008667,35.449411392211914,49.1202137008667C35.449411392211914,49.1202137008667,36.449411392211914,49.1202137008667,36.449411392211914,49.1202137008667C36.449411392211914,49.1202137008667,36.449411392211914,49.1202137008667,36.449411392211914,49.1202137008667ZM36.449411392211914,44.760513700866696C36.449411392211914,44.760513700866696,36.449411392211914,42.5806337008667,36.449411392211914,42.5806337008667C36.449411392211914,42.5806337008667,35.449411392211914,42.5806337008667,35.449411392211914,42.5806337008667C35.449411392211914,42.5806337008667,35.449411392211914,44.760513700866696,35.449411392211914,44.760513700866696C35.449411392211914,44.760513700866696,36.449411392211914,44.760513700866696,36.449411392211914,44.760513700866696C36.449411392211914,44.760513700866696,36.449411392211914,44.760513700866696,36.449411392211914,44.760513700866696ZM36.449411392211914,40.4007637008667C36.449411392211914,40.4007637008667,36.449411392211914,38.2209037008667,36.449411392211914,38.2209037008667C36.449411392211914,38.2209037008667,35.449411392211914,38.2209037008667,35.449411392211914,38.2209037008667C35.449411392211914,38.2209037008667,35.449411392211914,40.4007637008667,35.449411392211914,40.4007637008667C35.449411392211914,40.4007637008667,36.449411392211914,40.4007637008667,36.449411392211914,40.4007637008667C36.449411392211914,40.4007637008667,36.449411392211914,40.4007637008667,36.449411392211914,40.4007637008667ZM36.449411392211914,36.0410437008667C36.449411392211914,36.0410437008667,36.449411392211914,34.9511137008667,36.449411392211914,34.9511137008667C36.449411392211914,34.9511137008667,35.449411392211914,34.9511137008667,35.449411392211914,34.9511137008667C35.449411392211914,34.9511137008667,35.449411392211914,36.0410437008667,35.449411392211914,36.0410437008667C35.449411392211914,36.0410437008667,36.449411392211914,36.0410437008667,36.449411392211914,36.0410437008667C36.449411392211914,36.0410437008667,36.449411392211914,36.0410437008667,36.449411392211914,36.0410437008667ZM35.949411392211914,35.4511137008667C35.949411392211914,35.4511137008667,36.879481392211915,35.4511137008667,36.879481392211915,35.4511137008667C36.879481392211915,35.4511137008667,36.879481392211915,34.4511137008667,36.879481392211915,34.4511137008667C36.879481392211915,34.4511137008667,35.949411392211914,34.4511137008667,35.949411392211914,34.4511137008667C35.949411392211914,34.4511137008667,35.949411392211914,35.4511137008667,35.949411392211914,35.4511137008667C35.949411392211914,35.4511137008667,35.949411392211914,35.4511137008667,35.949411392211914,35.4511137008667ZM38.73963139221191,35.4511137008667C38.73963139221191,35.4511137008667,40.599781392211916,35.4511137008667,40.599781392211916,35.4511137008667C40.599781392211916,35.4511137008667,40.599781392211916,34.4511137008667,40.599781392211916,34.4511137008667C40.599781392211916,34.4511137008667,38.73963139221191,34.4511137008667,38.73963139221191,34.4511137008667C38.73963139221191,34.4511137008667,38.73963139221191,35.4511137008667,38.73963139221191,35.4511137008667C38.73963139221191,35.4511137008667,38.73963139221191,35.4511137008667,38.73963139221191,35.4511137008667ZM42.459931392211914,35.4511137008667C42.459931392211914,35.4511137008667,44.32008139221192,35.4511137008667,44.32008139221192,35.4511137008667C44.32008139221192,35.4511137008667,44.32008139221192,34.4511137008667,44.32008139221192,34.4511137008667C44.32008139221192,34.4511137008667,42.459931392211914,34.4511137008667,42.459931392211914,34.4511137008667C42.459931392211914,34.4511137008667,42.459931392211914,35.4511137008667,42.459931392211914,35.4511137008667C42.459931392211914,35.4511137008667,42.459931392211914,35.4511137008667,42.459931392211914,35.4511137008667ZM46.180211392211916,35.4511137008667C46.180211392211916,35.4511137008667,48.040411392211915,35.4511137008667,48.040411392211915,35.4511137008667C48.040411392211915,35.4511137008667,48.040411392211915,34.4511137008667,48.040411392211915,34.4511137008667C48.040411392211915,34.4511137008667,46.180211392211916,34.4511137008667,46.180211392211916,34.4511137008667C46.180211392211916,34.4511137008667,46.180211392211916,35.4511137008667,46.180211392211916,35.4511137008667C46.180211392211916,35.4511137008667,46.180211392211916,35.4511137008667,46.180211392211916,35.4511137008667ZM49.90051139221191,35.4511137008667C49.90051139221191,35.4511137008667,51.76071139221192,35.4511137008667,51.76071139221192,35.4511137008667C51.76071139221192,35.4511137008667,51.76071139221192,34.4511137008667,51.76071139221192,34.4511137008667C51.76071139221192,34.4511137008667,49.90051139221191,34.4511137008667,49.90051139221191,34.4511137008667C49.90051139221191,34.4511137008667,49.90051139221191,35.4511137008667,49.90051139221191,35.4511137008667C49.90051139221191,35.4511137008667,49.90051139221191,35.4511137008667,49.90051139221191,35.4511137008667ZM53.62081139221191,35.4511137008667C53.62081139221191,35.4511137008667,54.550911392211916,35.4511137008667,54.550911392211916,35.4511137008667C54.550911392211916,35.4511137008667,54.550911392211916,34.4511137008667,54.550911392211916,34.4511137008667C54.550911392211916,34.4511137008667,53.62081139221191,34.4511137008667,53.62081139221191,34.4511137008667C53.62081139221191,34.4511137008667,53.62081139221191,35.4511137008667,53.62081139221191,35.4511137008667C53.62081139221191,35.4511137008667,53.62081139221191,35.4511137008667,53.62081139221191,35.4511137008667Z" fill="#000000" fill-opacity="1"/></g><g transform="matrix(-1,8.742277657347586e-8,-8.742277657347586e-8,-1,245.00001105898124,252.99998929070986)"><path d="M123,127C123,127,123,126.5,123,126.5C123,126.5,122.5,126.5,122.5,126.5C122.5,126.5,122.5,127,122.5,127C122.5,127,123,127,123,127C123,127,123,127,123,127ZM123.5,146C123.5,146,123.5,145.05,123.5,145.05C123.5,145.05,122.5,145.05,122.5,145.05C122.5,145.05,122.5,146,122.5,146C122.5,146,123.5,146,123.5,146C123.5,146,123.5,146,123.5,146ZM123.5,143.15C123.5,143.15,123.5,141.25,123.5,141.25C123.5,141.25,122.5,141.25,122.5,141.25C122.5,141.25,122.5,143.15,122.5,143.15C122.5,143.15,123.5,143.15,123.5,143.15C123.5,143.15,123.5,143.15,123.5,143.15ZM123.5,139.35C123.5,139.35,123.5,137.45,123.5,137.45C123.5,137.45,122.5,137.45,122.5,137.45C122.5,137.45,122.5,139.35,122.5,139.35C122.5,139.35,123.5,139.35,123.5,139.35C123.5,139.35,123.5,139.35,123.5,139.35ZM123.5,135.55C123.5,135.55,123.5,133.65,123.5,133.65C123.5,133.65,122.5,133.65,122.5,133.65C122.5,133.65,122.5,135.55,122.5,135.55C122.5,135.55,123.5,135.55,123.5,135.55C123.5,135.55,123.5,135.55,123.5,135.55ZM123.5,131.75C123.5,131.75,123.5,129.85,123.5,129.85C123.5,129.85,122.5,129.85,122.5,129.85C122.5,129.85,122.5,131.75,122.5,131.75C122.5,131.75,123.5,131.75,123.5,131.75C123.5,131.75,123.5,131.75,123.5,131.75ZM123.5,127.95C123.5,127.95,123.5,127,123.5,127C123.5,127,122.5,127,122.5,127C122.5,127,122.5,127.95,122.5,127.95C122.5,127.95,123.5,127.95,123.5,127.95C123.5,127.95,123.5,127.95,123.5,127.95ZM123,127.5C123,127.5,124,127.5,124,127.5C124,127.5,124,126.5,124,126.5C124,126.5,123,126.5,123,126.5C123,126.5,123,127.5,123,127.5C123,127.5,123,127.5,123,127.5ZM126,127.5C126,127.5,128,127.5,128,127.5C128,127.5,128,126.5,128,126.5C128,126.5,126,126.5,126,126.5C126,126.5,126,127.5,126,127.5C126,127.5,126,127.5,126,127.5ZM130,127.5C130,127.5,132,127.5,132,127.5C132,127.5,132,126.5,132,126.5C132,126.5,130,126.5,130,126.5C130,126.5,130,127.5,130,127.5C130,127.5,130,127.5,130,127.5ZM134,127.5C134,127.5,136,127.5,136,127.5C136,127.5,136,126.5,136,126.5C136,126.5,134,126.5,134,126.5C134,126.5,134,127.5,134,127.5C134,127.5,134,127.5,134,127.5ZM138,127.5C138,127.5,139,127.5,139,127.5C139,127.5,139,126.5,139,126.5C139,126.5,138,126.5,138,126.5C138,126.5,138,127.5,138,127.5C138,127.5,138,127.5,138,127.5ZM123,127C123,127,123,126.5,123,126.5C123,126.5,122.5,126.5,122.5,126.5C122.5,126.5,122.5,127,122.5,127C122.5,127,123,127,123,127C123,127,123,127,123,127ZM123.5,146C123.5,146,123.5,145.05,123.5,145.05C123.5,145.05,122.5,145.05,122.5,145.05C122.5,145.05,122.5,146,122.5,146C122.5,146,123.5,146,123.5,146C123.5,146,123.5,146,123.5,146ZM123.5,143.15C123.5,143.15,123.5,141.25,123.5,141.25C123.5,141.25,122.5,141.25,122.5,141.25C122.5,141.25,122.5,143.15,122.5,143.15C122.5,143.15,123.5,143.15,123.5,143.15C123.5,143.15,123.5,143.15,123.5,143.15ZM123.5,139.35C123.5,139.35,123.5,137.45,123.5,137.45C123.5,137.45,122.5,137.45,122.5,137.45C122.5,137.45,122.5,139.35,122.5,139.35C122.5,139.35,123.5,139.35,123.5,139.35C123.5,139.35,123.5,139.35,123.5,139.35ZM123.5,135.55C123.5,135.55,123.5,133.65,123.5,133.65C123.5,133.65,122.5,133.65,122.5,133.65C122.5,133.65,122.5,135.55,122.5,135.55C122.5,135.55,123.5,135.55,123.5,135.55C123.5,135.55,123.5,135.55,123.5,135.55ZM123.5,131.75C123.5,131.75,123.5,129.85,123.5,129.85C123.5,129.85,122.5,129.85,122.5,129.85C122.5,129.85,122.5,131.75,122.5,131.75C122.5,131.75,123.5,131.75,123.5,131.75C123.5,131.75,123.5,131.75,123.5,131.75ZM123.5,127.95C123.5,127.95,123.5,127,123.5,127C123.5,127,122.5,127,122.5,127C122.5,127,122.5,127.95,122.5,127.95C122.5,127.95,123.5,127.95,123.5,127.95C123.5,127.95,123.5,127.95,123.5,127.95ZM123,127.5C123,127.5,124,127.5,124,127.5C124,127.5,124,126.5,124,126.5C124,126.5,123,126.5,123,126.5C123,126.5,123,127.5,123,127.5C123,127.5,123,127.5,123,127.5ZM126,127.5C126,127.5,128,127.5,128,127.5C128,127.5,128,126.5,128,126.5C128,126.5,126,126.5,126,126.5C126,126.5,126,127.5,126,127.5C126,127.5,126,127.5,126,127.5ZM130,127.5C130,127.5,132,127.5,132,127.5C132,127.5,132,126.5,132,126.5C132,126.5,130,126.5,130,126.5C130,126.5,130,127.5,130,127.5C130,127.5,130,127.5,130,127.5ZM134,127.5C134,127.5,136,127.5,136,127.5C136,127.5,136,126.5,136,126.5C136,126.5,134,126.5,134,126.5C134,126.5,134,127.5,134,127.5C134,127.5,134,127.5,134,127.5ZM138,127.5C138,127.5,139,127.5,139,127.5C139,127.5,139,126.5,139,126.5C139,126.5,138,126.5,138,126.5C138,126.5,138,127.5,138,127.5C138,127.5,138,127.5,138,127.5Z" fill="#000000" fill-opacity="1"/></g></g></g></svg>