<svg width="40" height="40" viewBox="0 0 40 40" fill="none" xmlns="http://www.w3.org/2000/svg">
<circle cx="20" cy="20" r="20" fill="#ECEEF4"/>
<circle cx="19.7336" cy="14.5" r="5.5" fill="#7B889B"/>
<path fill-rule="evenodd" clip-rule="evenodd" d="M16.6602 14.2002C16.8865 14.2002 17.067 14.3846 17.0981 14.6088C17.286 15.9637 18.3944 17.0041 19.7337 17.0041C21.073 17.0041 22.1814 15.9637 22.3693 14.6088C22.4004 14.3846 22.5809 14.2002 22.8072 14.2002C23.0336 14.2002 23.2193 14.3843 23.1956 14.6094C23.0023 16.4419 21.5261 17.8669 19.7337 17.8669C17.9413 17.8669 16.4651 16.4419 16.2718 14.6094C16.2481 14.3843 16.4339 14.2002 16.6602 14.2002Z" fill="#ECEEF4"/>
<path fill-rule="evenodd" clip-rule="evenodd" d="M17.2961 14.5812C17.4716 15.8464 18.5032 16.8039 19.7336 16.8039C20.964 16.8039 21.9957 15.8464 22.1712 14.5812C22.2136 14.2754 22.4645 14 22.8072 14C23.1376 14 23.4321 14.273 23.3944 14.6302C23.1913 16.555 21.6375 18.0667 19.7336 18.0667C17.8297 18.0667 16.2759 16.555 16.0728 14.6302C16.0352 14.273 16.3296 14 16.6601 14C17.0028 14 17.2537 14.2754 17.2961 14.5812ZM17.098 14.6086C17.0669 14.3844 16.8864 14.2 16.6601 14.2C16.4338 14.2 16.248 14.3841 16.2717 14.6092C16.4651 16.4417 17.9412 17.8667 19.7336 17.8667C21.526 17.8667 23.0022 16.4417 23.1955 14.6092C23.2192 14.3841 23.0335 14.2 22.8072 14.2C22.5808 14.2 22.4004 14.3844 22.3693 14.6086C22.1813 15.9635 21.0729 17.0039 19.7336 17.0039C18.3943 17.0039 17.2859 15.9635 17.098 14.6086Z" fill="#ECEEF4"/>
<path d="M19.7335 31C24.5206 31 28.5142 27.6023 29.4341 23.0869C29.6546 22.0046 28.7381 21.1 27.6335 21.1L11.8335 21.1C10.729 21.1 9.81248 22.0046 10.033 23.0869C10.9529 27.6023 14.9464 31 19.7335 31Z" fill="#7B889B"/>
</svg>
