<svg width="16" height="16" viewBox="0 0 16 16" fill="none" xmlns="http://www.w3.org/2000/svg">
<path fill-rule="evenodd" clip-rule="evenodd" d="M14.2718 5.0552C14.5175 4.92919 14.8189 5.02623 14.9449 5.27195C15.0709 5.51766 14.9739 5.81901 14.7281 5.94501L14.0419 6.29692C13.7371 6.45322 13.428 6.597 13.1153 6.72825C13.203 6.77623 13.2773 6.85093 13.3244 6.94767L14.1369 8.61434C14.2579 8.86256 14.1548 9.16187 13.9066 9.28288C13.6584 9.40388 13.3591 9.30076 13.238 9.05254L12.4255 7.38587C12.365 7.26166 12.3606 7.12466 12.4024 7.0036C11.1154 7.45858 9.77743 7.70821 8.43446 7.75249C8.47616 7.82549 8.49998 7.91002 8.49998 8.00011V10.5001C8.49998 10.7762 8.27612 11.0001 7.99998 11.0001C7.72384 11.0001 7.49998 10.7762 7.49998 10.5001V8.00011C7.49998 7.91002 7.52381 7.82549 7.5655 7.75249C6.22254 7.70821 4.88454 7.45858 3.59761 7.0036C3.6394 7.12466 3.63497 7.26166 3.57442 7.38587L2.76192 9.05254C2.64092 9.30076 2.3416 9.40388 2.09338 9.28288C1.84516 9.16187 1.74204 8.86256 1.86304 8.61434L2.67554 6.94767C2.72271 6.85093 2.79695 6.77623 2.8847 6.72824C2.57195 6.597 2.26283 6.45322 1.95805 6.29692L1.27183 5.94501C1.02611 5.81901 0.929066 5.51766 1.05507 5.27195C1.18108 5.02623 1.48243 4.92919 1.72814 5.0552L2.41437 5.40711L2.18621 5.85202L2.41437 5.40711C5.93099 7.2105 10.069 7.2105 13.5856 5.40711L14.2718 5.0552Z" fill="#161616"/>
</svg>
