<svg width="16" height="16" viewBox="0 0 16 16" fill="none" xmlns="http://www.w3.org/2000/svg">
<path fill-rule="evenodd" clip-rule="evenodd" d="M2.96681 5.61505C4.20544 4.58836 5.98492 3.5 7.99994 3.5C10.015 3.5 11.7944 4.58836 13.0331 5.61505C13.6595 6.13427 14.1652 6.65235 14.5144 7.0406C14.6894 7.23505 14.8258 7.39778 14.9193 7.51296C14.9661 7.57057 15.0022 7.61635 15.027 7.64833L15.0558 7.68572L15.0638 7.69621L15.0661 7.69932L15.0669 7.70033C15.067 7.70048 15.0673 7.70098 14.6666 8C15.0673 8.29902 15.0672 8.29915 15.0671 8.2993L15.0661 8.30068L15.0638 8.30379L15.0558 8.31428L15.027 8.35167C15.0022 8.38365 14.9661 8.42943 14.9193 8.48704C14.8258 8.60222 14.6894 8.76495 14.5144 8.9594C14.1652 9.34765 13.6595 9.86573 13.0331 10.385C11.7944 11.4116 10.015 12.5 7.99994 12.5C5.98492 12.5 4.20544 11.4116 2.96681 10.385C2.34041 9.86573 1.83472 9.34765 1.48545 8.9594C1.31053 8.76495 1.17407 8.60222 1.08055 8.48704C1.03378 8.42943 0.997686 8.38365 0.972843 8.35167L0.944066 8.31428L0.936122 8.30379L0.933783 8.30068L0.933025 8.29967C0.932916 8.29952 0.932542 8.29902 1.33327 8C0.932542 7.70098 0.93264 7.70085 0.932749 7.7007L0.933783 7.69932L0.936122 7.69621L0.944066 7.68572L0.972843 7.64833C0.997686 7.61635 1.03378 7.57057 1.08055 7.51296C1.17407 7.39778 1.31053 7.23505 1.48545 7.0406C1.83472 6.65235 2.34041 6.13427 2.96681 5.61505ZM1.33327 8L0.932749 7.7007C0.800391 7.87808 0.800667 8.12229 0.933025 8.29967L1.33327 8ZM1.97554 8C2.0458 8.08331 2.13058 8.18131 2.22889 8.2906C2.55432 8.65235 3.02495 9.13427 3.60498 9.61505C4.77921 10.5884 6.33306 11.5 7.99994 11.5C9.66682 11.5 11.2207 10.5884 12.3949 9.61505C12.9749 9.13427 13.4456 8.65235 13.771 8.2906C13.8693 8.18132 13.9541 8.08331 14.0243 8C13.9541 7.91669 13.8693 7.81868 13.771 7.7094C13.4456 7.34765 12.9749 6.86573 12.3949 6.38495C11.2207 5.41164 9.66682 4.5 7.99994 4.5C6.33306 4.5 4.77921 5.41164 3.60498 6.38495C3.02495 6.86573 2.55432 7.34765 2.22889 7.7094C2.13058 7.81869 2.0458 7.91669 1.97554 8ZM14.6666 8L15.0671 8.2993C15.1995 8.12192 15.1992 7.87771 15.0669 7.70033L14.6666 8Z" fill="#161616"/>
<path fill-rule="evenodd" clip-rule="evenodd" d="M5.83337 8.00016C5.83337 6.80355 6.80343 5.8335 8.00004 5.8335C9.19665 5.8335 10.1667 6.80355 10.1667 8.00016C10.1667 9.19677 9.19665 10.1668 8.00004 10.1668C6.80343 10.1668 5.83337 9.19677 5.83337 8.00016ZM8.00004 6.8335C7.35572 6.8335 6.83337 7.35584 6.83337 8.00016C6.83337 8.64449 7.35572 9.16683 8.00004 9.16683C8.64437 9.16683 9.16671 8.64449 9.16671 8.00016C9.16671 7.35584 8.64437 6.8335 8.00004 6.8335Z" fill="#161616"/>
</svg>
