<svg width="25" height="25" viewBox="0 0 25 25" fill="none" xmlns="http://www.w3.org/2000/svg">
<g filter="url(#filter0_d_4156_5779)">
<rect x="1" y="1" width="22" height="22" rx="4" fill="url(#paint0_linear_4156_5779)"/>
<path fill-rule="evenodd" clip-rule="evenodd" d="M5.68244 16.5392H7.60906V15.1743H6.37185V6.37885H13.5746C15.5245 6.37885 16.887 7.46754 17.6553 8.98103C18.0823 9.84506 18.3362 10.7842 18.4028 11.7457C18.4814 12.7268 18.3807 13.714 18.1057 14.6589C17.5718 16.4417 16.3624 17.9018 14.5054 18.2268C13.7879 18.3148 13.064 18.3404 12.3421 18.3034C11.9544 18.2895 11.5529 18.2895 11.3602 18.2895H11.3602V19.6613H12.3212C13.1278 19.7042 13.9366 19.6731 14.7376 19.5685C17.1865 19.1437 18.744 17.2936 19.4172 15.0443C19.7463 13.9403 19.8706 12.7854 19.7839 11.6366C19.7028 10.4942 19.4001 9.37859 18.8926 8.35196C17.9014 6.39278 16.1419 5 13.5885 5H5V16.5392H5.68244ZM13.2337 8.1592H8.35911L8.35214 9.54037H8.35911V15.1672H8.35214V16.5345L8.35911 16.5345V18.301L5.07457 18.2824L5.07921 19.6496L9.04619 19.6636L9.73095 19.6566V16.5384C11.1988 16.5412 12.5935 16.5387 12.9041 16.5229H12.9737L12.9791 16.5226C13.9285 16.4783 16.567 16.3552 16.567 12.4165C16.5577 8.39133 13.2453 8.1592 13.2337 8.1592ZM9.73095 15.1672H12.8344H12.9064C13.5099 15.1394 15.2021 15.0604 15.1974 12.4281C15.1974 9.85839 13.3985 9.56823 13.1571 9.54037H9.73095V15.1672Z" fill="white"/>
</g>
<defs>
<filter id="filter0_d_4156_5779" x="-0.5" y="-0.5" width="26" height="26" filterUnits="userSpaceOnUse" color-interpolation-filters="sRGB">
<feFlood flood-opacity="0" result="BackgroundImageFix"/>
<feColorMatrix in="SourceAlpha" type="matrix" values="0 0 0 0 0 0 0 0 0 0 0 0 0 0 0 0 0 0 127 0" result="hardAlpha"/>
<feOffset dx="0.5" dy="0.5"/>
<feGaussianBlur stdDeviation="0.5"/>
<feComposite in2="hardAlpha" operator="out"/>
<feColorMatrix type="matrix" values="0 0 0 0 0 0 0 0 0 0 0 0 0 0 0 0 0 0 0.1 0"/>
<feBlend mode="normal" in2="BackgroundImageFix" result="effect1_dropShadow_4156_5779"/>
<feBlend mode="normal" in="SourceGraphic" in2="effect1_dropShadow_4156_5779" result="shape"/>
</filter>
<linearGradient id="paint0_linear_4156_5779" x1="12" y1="1" x2="12" y2="23" gradientUnits="userSpaceOnUse">
<stop stop-color="#78E1FB"/>
<stop offset="1" stop-color="#70FFBD"/>
</linearGradient>
</defs>
</svg>
