<svg width="25" height="25" viewBox="0 0 25 25" fill="none" xmlns="http://www.w3.org/2000/svg">
<g filter="url(#filter0_d_4122_7262)">
<rect x="1" y="1" width="22" height="22" rx="4" fill="url(#paint0_linear_4122_7262)"/>
<path fill-rule="evenodd" clip-rule="evenodd" d="M6.6398 15.6997H8.32888V14.5031H7.24421V6.79209H13.5589C15.2683 6.79209 16.4629 7.74655 17.1365 9.07344C17.5108 9.83093 17.7334 10.6543 17.7918 11.4972C17.8607 12.3573 17.7724 13.2228 17.5313 14.0513C17.0632 15.6142 16.003 16.8943 14.3749 17.1792C13.7459 17.2564 13.1113 17.2789 12.4783 17.2464C12.1385 17.2342 11.7864 17.2342 11.6175 17.2342H11.6175V18.4369H12.46C13.1671 18.4745 13.8763 18.4472 14.5784 18.3555C16.7254 17.9831 18.0909 16.3611 18.6811 14.3891C18.9697 13.4212 19.0786 12.4087 19.0026 11.4016C18.9315 10.4001 18.6661 9.42198 18.2212 8.52192C17.3522 6.80431 15.8096 5.58325 13.5711 5.58325H6.0415V15.6997H6.6398ZM13.2601 8.35303H8.9865L8.98039 9.56391H8.9865V14.497H8.98039V15.6956L8.9865 15.6957V17.2443L6.10693 17.2281L6.111 18.4267L9.58887 18.4389L10.1892 18.4328V15.6991C11.4761 15.7016 12.6988 15.6994 12.9711 15.6855H13.0321L13.0369 15.6852C13.8692 15.6464 16.1824 15.5385 16.1824 12.0854C16.1742 8.55654 13.2702 8.35303 13.2601 8.35303ZM10.1892 14.497H12.91H12.9731C13.5022 14.4726 14.9858 14.4034 14.9817 12.0956C14.9817 9.84272 13.4045 9.58833 13.1929 9.56391H10.1892V14.497Z" fill="white"/>
</g>
<defs>
<filter id="filter0_d_4122_7262" x="-0.5" y="-0.5" width="26" height="26" filterUnits="userSpaceOnUse" color-interpolation-filters="sRGB">
<feFlood flood-opacity="0" result="BackgroundImageFix"/>
<feColorMatrix in="SourceAlpha" type="matrix" values="0 0 0 0 0 0 0 0 0 0 0 0 0 0 0 0 0 0 127 0" result="hardAlpha"/>
<feOffset dx="0.5" dy="0.5"/>
<feGaussianBlur stdDeviation="0.5"/>
<feComposite in2="hardAlpha" operator="out"/>
<feColorMatrix type="matrix" values="0 0 0 0 0 0 0 0 0 0 0 0 0 0 0 0 0 0 0.1 0"/>
<feBlend mode="normal" in2="BackgroundImageFix" result="effect1_dropShadow_4122_7262"/>
<feBlend mode="normal" in="SourceGraphic" in2="effect1_dropShadow_4122_7262" result="shape"/>
</filter>
<linearGradient id="paint0_linear_4122_7262" x1="12" y1="1" x2="12" y2="23" gradientUnits="userSpaceOnUse">
<stop stop-color="#78E1FB"/>
<stop offset="1" stop-color="#70FFBD"/>
</linearGradient>
</defs>
</svg>
