<svg width="20" height="20" viewBox="0 0 20 20" fill="none" xmlns="http://www.w3.org/2000/svg">
<g clip-path="url(#clip0_307_16891)">
<path d="M17.5 0H2.5C1.11929 0 0 1.11929 0 2.5V17.5C0 18.8807 1.11929 20 2.5 20H17.5C18.8807 20 20 18.8807 20 17.5V2.5C20 1.11929 18.8807 0 17.5 0Z" fill="#FD4C00"/>
<path d="M15.9986 2.5H4V3.99955C4 4.82751 4.67159 5.4991 5.49955 5.4991H14.4991V14.4987H8.49977C7.67182 14.4987 7.00022 15.1702 7.00022 15.9982V17.4977H15.9998C16.8277 17.4977 17.4993 16.8262 17.4993 15.9982V4.00067C17.4993 3.17272 16.8277 2.50112 15.9998 2.50112L15.9986 2.5Z" fill="white"/>
<path d="M7.98635 12.6482C8.36771 12.2668 8.78169 12.2263 9.97188 12.2263C11.1621 12.2263 12.2218 11.2195 12.2218 9.97645C12.2218 8.73339 11.2149 7.72656 9.97188 7.72656C8.72881 7.72656 7.72199 8.73339 7.72199 9.97645C7.72199 11.6504 7.45538 11.8821 7.32376 12.0385C7.12014 12.2803 5.35398 14.0082 5.35398 14.0082C5.15037 14.186 4.69364 14.4998 4.00067 14.4998H3.25034C2.83636 14.4998 2.5 14.8351 2.5 15.2502V16.7497C2.5 17.1637 2.83523 17.5001 3.25034 17.5001H4.74989C5.16387 17.5001 5.50022 17.1648 5.50022 16.7497V15.9994C5.50022 15.0781 6.11107 14.5268 6.11107 14.5268L7.98635 12.6482Z" fill="white"/>
</g>
<defs>
<clipPath id="clip0_307_16891">
<rect width="20" height="20" fill="white"/>
</clipPath>
</defs>
</svg>
