<svg width="17" height="16" viewBox="0 0 17 16" fill="none" xmlns="http://www.w3.org/2000/svg">
<path fill-rule="evenodd" clip-rule="evenodd" d="M13.2147 12.714C12.0083 13.9204 10.3416 14.6666 8.50065 14.6666C6.65972 14.6666 4.99305 13.9204 3.7866 12.714C2.58018 11.5075 1.83398 9.84085 1.83398 7.99992C1.83398 6.15899 2.58018 4.49232 3.7866 3.28587C4.99305 2.07945 6.65972 1.33325 8.50065 1.33325C10.3416 1.33325 12.0083 2.07945 13.2147 3.28587C14.4211 4.49232 15.1673 6.15899 15.1673 7.99992C15.1673 9.84085 14.4211 11.5075 13.2147 12.714ZM5.11177 4.61104C5.32656 4.39625 5.6748 4.39625 5.88959 4.61104L8.50068 7.22213L11.1118 4.61104C11.3266 4.39625 11.6748 4.39625 11.8896 4.61104C12.1044 4.82583 12.1044 5.17407 11.8896 5.38886L9.2785 7.99995L11.8896 10.611C12.1044 10.8258 12.1044 11.1741 11.8896 11.3889C11.6748 11.6036 11.3266 11.6036 11.1118 11.3889L8.50068 8.77777L5.88959 11.3889C5.6748 11.6036 5.32656 11.6036 5.11177 11.3889C4.89699 11.1741 4.89699 10.8258 5.11177 10.611L7.72287 7.99995L5.11177 5.38886C4.89699 5.17407 4.89699 4.82583 5.11177 4.61104Z" fill="#FA4D56"/>
</svg>
