<svg width="32" height="32" viewBox="0 0 32 32" fill="none" xmlns="http://www.w3.org/2000/svg">
<rect width="32" height="32" rx="16" fill="#FD4C00"/>
<g clip-path="url(#clip0_270_14691)">
<path d="M25 4H7C5.34315 4 4 5.34315 4 7V25C4 26.6569 5.34315 28 7 28H25C26.6569 28 28 26.6569 28 25V7C28 5.34315 26.6569 4 25 4Z" fill="#FD4C00"/>
<path d="M23.1992 7H8.80078V8.79946C8.80078 9.79301 9.60669 10.5989 10.6002 10.5989H21.3997V21.3984H14.2005C13.207 21.3984 12.4011 22.2043 12.4011 23.1978V24.9973H23.2005C24.1941 24.9973 25 24.1914 25 23.1978V8.80081C25 7.80726 24.1941 7.00135 23.2005 7.00135L23.1992 7Z" fill="white"/>
<path d="M13.5836 19.1774C14.0412 18.7198 14.538 18.6712 15.9663 18.6712C17.3945 18.6712 18.6661 17.463 18.6661 15.9713C18.6661 14.4797 17.4579 13.2715 15.9663 13.2715C14.4746 13.2715 13.2664 14.4797 13.2664 15.9713C13.2664 17.98 12.9465 18.2581 12.7885 18.4458C12.5442 18.736 10.4248 20.8095 10.4248 20.8095C10.1804 21.0228 9.63237 21.3994 8.80081 21.3994H7.9004C7.40363 21.3994 7 21.8017 7 22.2998V24.0993C7 24.5961 7.40228 24.9997 7.9004 24.9997H9.69987C10.1966 24.9997 10.6003 24.5974 10.6003 24.0993V23.1989C10.6003 22.0933 11.3333 21.4318 11.3333 21.4318L13.5836 19.1774Z" fill="white"/>
</g>
<defs>
<clipPath id="clip0_270_14691">
<rect width="24" height="24" fill="white" transform="translate(4 4)"/>
</clipPath>
</defs>
</svg>
