<svg width="16" height="16" viewBox="0 0 16 16" fill="none" xmlns="http://www.w3.org/2000/svg">
<path fill-rule="evenodd" clip-rule="evenodd" d="M12.7147 12.714C11.5083 13.9204 9.84158 14.6666 8.00065 14.6666C6.15972 14.6666 4.49305 13.9204 3.2866 12.714C2.08018 11.5075 1.33398 9.84085 1.33398 7.99992C1.33398 6.15899 2.08018 4.49232 3.2866 3.28587C4.49305 2.07945 6.15972 1.33325 8.00065 1.33325C9.84158 1.33325 11.5083 2.07945 12.7147 3.28587C13.9211 4.49232 14.6673 6.15899 14.6673 7.99992C14.6673 9.84085 13.9211 11.5075 12.7147 12.714ZM11.7226 6.38886C11.9374 6.17407 11.9374 5.82583 11.7226 5.61104C11.5078 5.39625 11.1596 5.39625 10.9448 5.61104L7.33369 9.22213L5.7226 7.61104C5.50781 7.39625 5.15957 7.39625 4.94478 7.61104C4.72999 7.82583 4.72999 8.17407 4.94478 8.38886L6.94478 10.3889C7.15957 10.6036 7.50781 10.6036 7.7226 10.3889L11.7226 6.38886Z" fill="#24A148"/>
</svg>
