<svg width="16" height="16" viewBox="0 0 16 16" fill="none" xmlns="http://www.w3.org/2000/svg">
<rect width="16" height="16" fill="white" fill-opacity="0.01"/>
<path fill-rule="evenodd" clip-rule="evenodd" d="M14.6668 7.99992C14.6668 11.6818 11.6821 14.6666 8.00016 14.6666C4.31826 14.6666 1.3335 11.6818 1.3335 7.99992C1.3335 4.31802 4.31826 1.33325 8.00016 1.33325C11.6821 1.33325 14.6668 4.31802 14.6668 7.99992ZM6.2551 7.3792C6.33643 7.41414 6.41 7.46493 6.47149 7.5286L7.33349 8.3906L9.52883 6.19527C9.59033 6.13159 9.66389 6.0808 9.74522 6.04586C9.82656 6.01093 9.91404 5.99253 10.0026 5.99177C10.0911 5.991 10.1789 6.00786 10.2608 6.04138C10.3427 6.07491 10.4172 6.12441 10.4798 6.187C10.5424 6.2496 10.5919 6.32403 10.6254 6.40596C10.6589 6.48789 10.6758 6.57568 10.675 6.6642C10.6742 6.75272 10.6558 6.8402 10.6209 6.92154C10.586 7.00287 10.5352 7.07643 10.4715 7.13793L7.80483 9.8046C7.67981 9.92958 7.51027 9.99979 7.33349 9.99979C7.15672 9.99979 6.98718 9.92958 6.86216 9.8046L5.52883 8.47127C5.46515 8.40977 5.41437 8.3362 5.37943 8.25487C5.34449 8.17353 5.3261 8.08605 5.32533 7.99753C5.32456 7.90901 5.34143 7.82123 5.37495 7.7393C5.40847 7.65737 5.45797 7.58293 5.52056 7.52034C5.58316 7.45774 5.65759 7.40824 5.73952 7.37472C5.82146 7.3412 5.90924 7.32433 5.99776 7.3251C6.08628 7.32587 6.17376 7.34426 6.2551 7.3792Z" fill="#36B37E"/>
</svg>
