<svg width="40" height="40" viewBox="0 0 40 40" fill="none" xmlns="http://www.w3.org/2000/svg">
    <ellipse cx="20.0004" cy="20" rx="20.0004" ry="20" fill="#00C7F2"/>
    <path fill-rule="evenodd" clip-rule="evenodd" d="M12.1798 25.8439H14.7481V24.0018H13.0988V12.1314H22.7008C25.3001 12.1314 27.1165 13.6007 28.1407 15.6433C28.7099 16.8094 29.0484 18.077 29.1371 19.3746C29.2419 20.6986 29.1077 22.0309 28.741 23.3063C28.0293 25.7123 26.4171 27.6829 23.9416 28.1215C22.985 28.2403 22.0201 28.2749 21.0576 28.2248C20.5409 28.206 20.0056 28.206 19.7488 28.206H19.7487V30.0575H21.0298C22.1051 30.1154 23.1833 30.0735 24.251 29.9322C27.5156 29.3589 29.592 26.862 30.4894 23.8263C30.9282 22.3364 31.0939 20.7777 30.9783 19.2273C30.8702 17.6856 30.4666 16.1799 29.79 14.7943C28.4687 12.1502 26.1232 10.2705 22.7193 10.2705H11.27V25.8439H12.1798ZM22.2459 14.5343H15.7477L15.7384 16.3983H15.7477V23.9924H15.7384V25.8376L15.7477 25.8376V28.2217L11.3691 28.1966L11.3753 30.0419L16.6636 30.0607L17.5765 30.0513V25.8429C19.5333 25.8467 21.3925 25.8434 21.8065 25.8219H21.8994L21.9066 25.8216C23.1722 25.7618 26.6895 25.5956 26.6895 20.2799C26.6771 14.8476 22.2614 14.5343 22.2459 14.5343ZM17.5765 23.9924H21.7137H21.8096C22.6142 23.9548 24.87 23.8482 24.8638 20.2956C24.8638 16.8275 22.4656 16.4359 22.1438 16.3983H17.5765V23.9924Z" fill="white"/>
</svg>
