<svg xmlns="http://www.w3.org/2000/svg" xmlns:xlink="http://www.w3.org/1999/xlink" fill="none" version="1.1" width="16" height="16" viewBox="0 0 16 16"><defs><clipPath id="master_svg0_0_113347"><rect x="0" y="0" width="16" height="16" rx="0"/></clipPath></defs><g clip-path="url(#master_svg0_0_113347)"><g><path d="M3,2.5L13,2.5C13.2762,2.5,13.5,2.72385,14.5,3C14.5,2.17158,13.8284,1.5,13,1.5L3,1.5L3,2.5ZM1.5,13L2.5,13L2.5,3C2.5,2.72386,2.72386,2.5,3,1.5C2.171574,1.5,1.5,2.171574,1.5,3L1.5,13ZM13.5,8C13.5,8.27614,13.7239,8.5,14,8.5C14.2761,8.5,14.5,8.27614,14.5,8L14.5,3L13.5,3L13.5,8ZM1.5,13C1.5,13.8284,2.17158,14.5,3,14.5L8,14.5C8.27614,14.5,8.5,14.2761,8.5,14C8.5,13.7239,8.27614,13.5,8,13.5L3,13.5C2.72385,13.5,2.5,13.2762,1.5,13Z" fill="#525252" fill-opacity="1"/></g><g><path d="M4.1666717529296875,5.3330078125C4.1666717529296875,5.6091498125,4.390529752929687,5.8330078125,4.6666717529296875,5.8330078125L11.333341752929687,5.8330078125C11.609481752929687,5.8330078125,11.833341752929687,5.6091498125,11.833341752929687,5.3330078125C11.833341752929687,5.0568658125,11.609481752929687,4.8330078125,11.333341752929687,4.8330078125L4.6666717529296875,4.8330078125C4.390529752929687,4.8330078125,4.1666717529296875,5.0568658125,4.1666717529296875,5.3330078125Z" fill="#525252" fill-opacity="1"/></g><g><path d="M4.166666507720947,8C4.166666507720947,8.276142,4.390524507720947,8.5,4.666666507720947,8.5L7.333336507720947,8.5C7.609476507720947,8.5,7.833336507720947,8.276142,7.833336507720947,8C7.833336507720947,7.723858,7.609476507720947,7.5,7.333336507720947,7.5L4.666666507720947,7.5C4.390524507720947,7.5,4.166666507720947,7.723858,4.166666507720947,8Z" fill="#525252" fill-opacity="1"/></g><g><path d="M8.833328247070312,10.6669921875C8.833328247070312,10.9431321875,9.057186247070312,11.1669921875,9.333328247070312,11.1669921875L11.333328247070312,11.1669921875C11.609468247070312,11.1669921875,11.833328247070312,10.9431321875,11.833328247070312,10.6669921875C11.833328247070312,10.3908521875,11.609468247070312,10.1669921875,11.333328247070312,10.1669921875L9.833328247070312,10.1669921875L9.833328247070312,8.6669921875C9.833328247070312,8.3908501875,9.609470247070313,8.1669921875,9.333328247070312,8.1669921875C9.057186247070312,8.1669921875,8.833328247070312,8.3908501875,8.833328247070312,8.6669921875L8.833328247070312,10.6669921875Z" fill="#525252" fill-opacity="1"/></g><g><path d="M9.257458527893066,10.08267C9.119163027893066,10.32169,9.200811527893066,10.627559999999999,9.439827527893067,10.76586C9.678843527893067,10.90415,9.984715527893066,10.8225,10.123009527893066,10.58349C10.498419527893066,9.93468,11.198739527893066,9.5,11.999999527893067,8.5C10.827389527893066,8.5,9.804274527893066,9.137616,9.257458527893066,10.08267ZM9.339564527893067,12.203199999999999C9.083598027893066,12.30681,8.960090027893067,12.59831,9.063703027893066,12.85427C9.533094527893066,14.01387,10.670249527893066,14.83333,11.999999527893067,14.83333C13.748899527893066,14.83333,15.166659527893067,13.415569999999999,15.166659527893067,11.66667C15.166659527893067,9.91776,13.748899527893066,8.5,11.999999527893067,8.5L11.999999527893067,9.5C13.196619527893066,9.5,14.166659527893067,10.47005,14.166659527893067,11.66667C14.166659527893067,12.86328,13.196619527893066,13.83333,11.999999527893067,13.83333C11.091489527893067,13.83333,10.312429527893066,13.27402,9.990640527893067,12.47906C9.887027527893066,12.22309,9.595531527893066,12.09959,9.339564527893067,12.203199999999999Z" fill="#525252" fill-opacity="1"/></g></g></svg>