<svg width="16" height="16" viewBox="0 0 16 16" fill="none" xmlns="http://www.w3.org/2000/svg">
    <path d="M14 8V3C14 2.44772 13.5523 2 13 2H3C2.44772 2 2 2.44772 2 3V13C2 13.5523 2.44772 14 3 14H8" stroke="#525252" stroke-linecap="round" stroke-linejoin="round"/>
    <path d="M4.6665 5.33301H11.3332" stroke="#525252" stroke-linecap="round" stroke-linejoin="round"/>
    <path d="M4.6665 8H7.33317" stroke="#525252" stroke-linecap="round" stroke-linejoin="round"/>
    <path d="M9.3335 8.66699V10.667H11.3335" stroke="#525252" stroke-linecap="round" stroke-linejoin="round"/>
    <path d="M9.69041 10.3331C10.1515 9.53615 11.0132 9 12.0002 9C13.4729 9 14.6668 10.1939 14.6668 11.6667C14.6668 13.1394 13.4729 14.3333 12.0002 14.3333C10.881 14.3333 9.92294 13.6439 9.52734 12.6667" stroke="#525252" stroke-linecap="round" stroke-linejoin="round"/>
</svg>
