<svg width="16" height="16" viewBox="0 0 16 16" fill="none" xmlns="http://www.w3.org/2000/svg">
<path fill-rule="evenodd" clip-rule="evenodd" d="M1.5 3C1.5 2.17157 2.17157 1.5 3 1.5H13C13.8284 1.5 14.5 2.17158 14.5 3V8C14.5 8.27614 14.2761 8.5 14 8.5C13.7239 8.5 13.5 8.27614 13.5 8V3C13.5 2.72385 13.2762 2.5 13 2.5H3C2.72386 2.5 2.5 2.72386 2.5 3V13C2.5 13.2762 2.72385 13.5 3 13.5H8C8.27614 13.5 8.5 13.7239 8.5 14C8.5 14.2761 8.27614 14.5 8 14.5H3C2.17158 14.5 1.5 13.8284 1.5 13V3Z" fill="#525252"/>
<path fill-rule="evenodd" clip-rule="evenodd" d="M4.1665 5.33301C4.1665 5.05687 4.39036 4.83301 4.6665 4.83301H11.3332C11.6093 4.83301 11.8332 5.05687 11.8332 5.33301C11.8332 5.60915 11.6093 5.83301 11.3332 5.83301H4.6665C4.39036 5.83301 4.1665 5.60915 4.1665 5.33301Z" fill="#525252"/>
<path fill-rule="evenodd" clip-rule="evenodd" d="M4.1665 8C4.1665 7.72386 4.39036 7.5 4.6665 7.5H7.33317C7.60931 7.5 7.83317 7.72386 7.83317 8C7.83317 8.27614 7.60931 8.5 7.33317 8.5H4.6665C4.39036 8.5 4.1665 8.27614 4.1665 8Z" fill="#525252"/>
<path fill-rule="evenodd" clip-rule="evenodd" d="M9.3335 8.16699C9.60964 8.16699 9.8335 8.39085 9.8335 8.66699V10.167H11.3335C11.6096 10.167 11.8335 10.3908 11.8335 10.667C11.8335 10.9431 11.6096 11.167 11.3335 11.167H9.3335C9.05735 11.167 8.8335 10.9431 8.8335 10.667V8.66699C8.8335 8.39085 9.05735 8.16699 9.3335 8.16699Z" fill="#525252"/>
<path fill-rule="evenodd" clip-rule="evenodd" d="M9.25727 10.0827C9.80409 9.13762 10.8272 8.5 11.9998 8.5C13.7487 8.5 15.1665 9.91776 15.1665 11.6667C15.1665 13.4156 13.7487 14.8333 11.9998 14.8333C10.6701 14.8333 9.53291 14.0139 9.06352 12.8543C8.95991 12.5983 9.08341 12.3068 9.33938 12.2032C9.59535 12.0996 9.88684 12.2231 9.99046 12.4791C10.3122 13.274 11.0913 13.8333 11.9998 13.8333C13.1964 13.8333 14.1665 12.8633 14.1665 11.6667C14.1665 10.47 13.1964 9.5 11.9998 9.5C11.1986 9.5 10.4982 9.93468 10.1228 10.5835C9.98453 10.8225 9.67866 10.9042 9.43964 10.7659C9.20063 10.6276 9.11898 10.3217 9.25727 10.0827Z" fill="#525252"/>
</svg>
