<svg width="40" height="40" viewBox="0 0 40 40" fill="none" xmlns="http://www.w3.org/2000/svg">
    <rect width="40" height="40" rx="20" fill="black"/>
    <g clip-path="url(#clip0_8541_10260)">
        <path d="M29 8H11C9.34315 8 8 9.34315 8 11V29C8 30.6569 9.34315 32 11 32H29C30.6569 32 32 30.6569 32 29V11C32 9.34315 30.6569 8 29 8Z" fill="black"/>
        <path d="M27.1992 11H12.8008V12.7995C12.8008 13.793 13.6067 14.5989 14.6002 14.5989H25.3997V25.3984H18.2005C17.207 25.3984 16.401 26.2043 16.401 27.1978V28.9973H27.2005C28.1941 28.9973 29 28.1914 29 27.1978V12.8008C29 11.8073 28.1941 11.0013 27.2005 11.0013L27.1992 11Z" fill="white"/>
        <path d="M17.5836 23.1774C18.0412 22.7198 18.538 22.6712 19.9663 22.6712C21.3945 22.6712 22.6661 21.463 22.6661 19.9713C22.6661 18.4797 21.4579 17.2715 19.9663 17.2715C18.4746 17.2715 17.2664 18.4797 17.2664 19.9713C17.2664 21.98 16.9465 22.2581 16.7885 22.4458C16.5442 22.736 14.4248 24.8095 14.4248 24.8095C14.1804 25.0228 13.6324 25.3994 12.8008 25.3994H11.9004C11.4036 25.3994 11 25.8017 11 26.2998V28.0993C11 28.5961 11.4023 28.9997 11.9004 28.9997H13.6999C14.1966 28.9997 14.6003 28.5974 14.6003 28.0993V27.1989C14.6003 26.0933 15.3333 25.4318 15.3333 25.4318L17.5836 23.1774Z" fill="white"/>
    </g>
    <defs>
        <clipPath id="clip0_8541_10260">
            <rect width="24" height="24" fill="white" transform="translate(8 8)"/>
        </clipPath>
    </defs>
</svg>
