<svg width="20" height="20" viewBox="0 0 20 20" fill="none" xmlns="http://www.w3.org/2000/svg">
    <path d="M17.4999 3.75V16.25C17.4999 16.5815 17.3682 16.8995 17.1337 17.1339C16.8993 17.3683 16.5814 17.5 16.2499 17.5H10.6249C10.4591 17.5 10.3001 17.4342 10.1829 17.3169C10.0657 17.1997 9.99986 17.0408 9.99986 16.875C9.99986 16.7092 10.0657 16.5503 10.1829 16.4331C10.3001 16.3158 10.4591 16.25 10.6249 16.25H16.2499V3.75H3.74986V11.25C3.74986 11.4158 3.68401 11.5747 3.5668 11.6919C3.44959 11.8092 3.29062 11.875 3.12486 11.875C2.9591 11.875 2.80013 11.8092 2.68292 11.6919C2.56571 11.5747 2.49986 11.4158 2.49986 11.25V3.75C2.49986 3.41848 2.63156 3.10054 2.86598 2.86612C3.1004 2.6317 3.41834 2.5 3.74986 2.5H16.2499C16.5814 2.5 16.8993 2.6317 17.1337 2.86612C17.3682 3.10054 17.4999 3.41848 17.4999 3.75ZM9.81705 12.0578C9.759 11.9997 9.69007 11.9536 9.6142 11.9221C9.53832 11.8907 9.45699 11.8745 9.37486 11.8745C9.29272 11.8745 9.2114 11.8907 9.13552 11.9221C9.05965 11.9536 8.99072 11.9997 8.93267 12.0578L4.99986 15.9914L3.56705 14.5578C3.50898 14.4997 3.44004 14.4537 3.36417 14.4223C3.2883 14.3908 3.20698 14.3747 3.12486 14.3747C3.04274 14.3747 2.96142 14.3908 2.88555 14.4223C2.80968 14.4537 2.74074 14.4997 2.68267 14.5578C2.6246 14.6159 2.57854 14.6848 2.54711 14.7607C2.51569 14.8366 2.49951 14.9179 2.49951 15C2.49951 15.0821 2.51569 15.1634 2.54711 15.2393C2.57854 15.3152 2.6246 15.3841 2.68267 15.4422L4.55767 17.3172C4.61572 17.3753 4.68465 17.4214 4.76052 17.4529C4.8364 17.4843 4.91772 17.5005 4.99986 17.5005C5.08199 17.5005 5.16332 17.4843 5.2392 17.4529C5.31507 17.4214 5.384 17.3753 5.44205 17.3172L9.81705 12.9422C9.87516 12.8841 9.92126 12.8152 9.95271 12.7393C9.98416 12.6635 10.0004 12.5821 10.0004 12.5C10.0004 12.4179 9.98416 12.3365 9.95271 12.2607C9.92126 12.1848 9.87516 12.1159 9.81705 12.0578Z" fill="black"/>
</svg>
