<svg width="40" height="40" viewBox="0 0 40 40" fill="none" xmlns="http://www.w3.org/2000/svg">
    <g clip-path="url(#clip0_1423_23432)">
        <path d="M20 40C31.0457 40 40 31.0457 40 20C40 8.9543 31.0457 0 20 0C8.9543 0 0 8.9543 0 20C0 31.0457 8.9543 40 20 40Z" fill="#4EA4F6"/>
        <path d="M8.32368 19.8265C8.32368 19.8265 18.3237 15.7225 21.7919 14.2774C23.1214 13.6993 27.63 11.8496 27.63 11.8496C27.63 11.8496 29.711 11.0404 29.5376 13.0057C29.4797 13.8149 29.0173 16.6473 28.5549 19.7109C27.8613 24.0462 27.1098 28.786 27.1098 28.786C27.1098 28.786 26.9942 30.1155 26.0115 30.3467C25.0289 30.5779 23.4104 29.5375 23.1214 29.3063C22.8902 29.1329 18.7861 26.5317 17.2832 25.26C16.8786 24.9132 16.4162 24.2196 17.341 23.4103C19.4219 21.5028 21.9075 19.1329 23.4104 17.63C24.104 16.9363 24.7977 15.3178 21.9075 17.2831C17.8035 20.1155 13.7572 22.7745 13.7572 22.7745C13.7572 22.7745 12.8324 23.3525 11.0982 22.8323C9.36414 22.312 7.34102 21.6184 7.34102 21.6184C7.34102 21.6184 5.95374 20.7514 8.32368 19.8265Z" fill="white"/>
    </g>
    <defs>
        <clipPath id="clip0_1423_23432">
            <rect width="40" height="40" fill="white"/>
        </clipPath>
    </defs>
</svg>
