<svg width="93" height="164" viewBox="0 0 93 164" fill="none" xmlns="http://www.w3.org/2000/svg">
  <g clip-path="url(#clip0_5694_27651)">
    <path
      d="M46.2986 164C48.2085 164 49.7568 163.106 49.7568 162.004C49.7568 160.901 48.2085 160.008 46.2986 160.008C44.3886 160.008 42.8403 160.901 42.8403 162.004C42.8403 163.106 44.3886 164 46.2986 164Z"
      fill="url(#paint0_linear_5694_27651)" />
    <path
      d="M46.0316 0.00270775C21.1575 0.16578 0.689135 20.2012 0.0171649 45.0669C-0.23583 53.8 1.9949 62.4255 6.45008 69.941L36.5734 112.21C37.1839 113.178 38.0356 113.971 39.0448 114.51C43.0542 116.824 49.5546 116.824 53.5639 114.51C54.54 113.985 55.3707 113.225 55.9819 112.3L86.243 69.941C90.4171 62.8798 92.6427 54.8374 92.6925 46.6349C92.7423 38.4324 90.6145 30.3636 86.5264 23.2523C82.4383 16.141 76.5363 10.2419 69.4229 6.15728C62.3096 2.07267 54.2397 -0.0511322 46.0373 0.00270775H46.0316Z"
      fill="url(#paint1_linear_5694_27651)" />
    <g opacity="0.5">
      <path
        d="M41.4793 115.559C39.2863 111.659 31.4954 96.8929 27.4214 77.4901C23.2462 57.6516 22.0794 28.6641 38.9124 0.640991C38.7837 0.657346 38.6541 0.666725 38.5244 0.6691C31.536 12.3112 27.0365 25.2754 25.3099 38.7437C23.7017 51.1146 24.3118 64.1857 27.1262 77.5436C31.1608 96.713 38.7353 111.252 41.052 115.402C41.0323 115.407 41.4344 115.559 41.4793 115.559Z"
        fill="white" />
    </g>
    <g opacity="0.5">
      <path
        d="M66.4717 38.7381C64.7325 25.1969 60.1888 12.1671 53.1307 0.480766C53.0126 0.480766 52.8945 0.458272 52.7764 0.444214H52.7399C69.6994 28.5236 68.5326 57.5982 64.3518 77.4818C60.244 97.0026 52.2619 112.028 50.1335 115.826C50.2808 115.814 50.4251 115.778 50.5609 115.719C52.7877 111.758 60.5758 96.9436 64.6554 77.5549C67.4698 64.1801 68.0799 51.1231 66.4717 38.7381Z"
        fill="white" />
    </g>
    <g opacity="0.5">
      <path
        d="M46.4808 0.0168457H46.4274C46.3497 0.0212115 46.2718 0.0212115 46.194 0.0168457C45.8201 16.9988 46.1941 87.3926 46.284 104.889H46.5989C46.3965 69.4012 46.1941 14.3644 46.4808 0.0168457Z"
        fill="white" />
    </g>
    <path
      d="M46.3715 104.934C39.9048 104.934 33.8374 103.489 29.277 100.866C25.0597 98.4421 23.4346 95.6727 21.8882 92.5687L22.1918 92.4366C23.7157 95.4956 25.3127 98.22 29.4514 100.59C33.9499 103.185 39.9695 104.611 46.3715 104.611C52.7735 104.611 58.7819 103.185 63.2916 100.59C68.0713 97.8517 69.7217 94.4778 70.9082 91.5284L71.2203 91.6409C70.017 94.6353 68.3244 98.0654 63.466 100.86C58.9056 103.489 52.8353 104.934 46.3715 104.934Z"
      fill="white" />
    <path
      d="M46.3886 103.388C40.1216 103.388 33.8574 102.094 29.0861 99.5105C25.1021 97.3512 23.2211 94.8967 21.6213 91.8742L21.9222 91.7365C23.5388 94.7899 25.3298 97.1122 29.2548 99.2378C38.7017 104.358 54.0755 104.355 63.5224 99.2378C67.2675 97.2078 69.5533 94.7392 71.1672 90.9492L71.4792 91.0645C69.8345 94.9164 67.5064 97.4412 63.6911 99.4993C58.9198 102.094 52.6556 103.388 46.3886 103.388Z"
      fill="white" />
    <path
      d="M45.3958 131.717L30.6855 140.211L45.407 148.711C45.6932 148.875 46.0174 148.962 46.3475 148.962C46.6776 148.962 47.0018 148.875 47.288 148.711L62.0123 140.211L47.2992 131.717C47.0099 131.55 46.6816 131.462 46.3475 131.462C46.0134 131.462 45.6851 131.55 45.3958 131.717Z"
      fill="url(#paint2_linear_5694_27651)" />
    <path d="M46.3798 133.151V147.147L34.259 140.149L46.3798 133.151Z" fill="#06064F" />
    <path d="M46.3799 147.147L58.5006 140.149L46.3799 133.151V147.147Z" fill="#06064F" />
    <path d="M58.3884 140.102L57.9751 140.326L71.1643 90.969L71.4848 91.0505L58.3884 140.102Z" fill="white" />
    <path d="M34.2593 140.149L21.2585 90.7131L21.8068 91.4863L34.653 140.391L34.2593 140.149Z" fill="white" />
    <path
      d="M42.1936 158.905C42.1659 158.989 42.161 159.079 42.1793 159.165C42.1976 159.252 42.2384 159.332 42.2976 159.397C42.5084 159.508 42.7274 159.602 42.9527 159.679C43.0792 159.726 43.2564 159.769 43.5488 159.524C43.7633 159.316 43.9598 159.09 44.1364 158.849V158.973L44.6987 158.529C44.7214 158.513 44.7396 158.492 44.7514 158.467C44.7633 158.443 44.7684 158.415 44.7662 158.388C44.7662 158.295 44.7662 158.02 44.7662 158.02C44.7662 158.02 42.4269 158.675 42.1936 158.905Z"
      fill="#304086" />
    <path
      d="M43.2985 157.733C43.4362 157.452 43.619 156.915 44.2038 156.996C44.3219 157.013 44.6677 157.171 44.7183 157.3C44.7372 157.393 44.7503 157.487 44.7577 157.581C44.8072 157.753 44.8243 157.932 44.8083 158.11C44.7991 158.149 44.7808 158.185 44.755 158.216C44.7291 158.247 44.6963 158.271 44.6593 158.287C44.4462 158.391 44.25 158.526 44.0773 158.689C43.9086 158.872 43.6639 159.279 43.3434 159.428C43.1545 159.485 42.9531 159.485 42.7643 159.428C42.6359 159.38 42.5101 159.324 42.3875 159.262C42.3149 159.222 42.2581 159.159 42.2264 159.082C42.1948 159.006 42.1901 158.92 42.2132 158.841C42.41 158.388 42.9723 158.402 43.2985 157.733Z"
      fill="#5CB9FF" />
    <path
      d="M43.4617 154.921C43.4617 154.921 43.6079 156.74 43.6697 157.407C43.6922 157.657 44.232 157.73 44.4795 157.542C44.6538 157.41 44.7297 154.921 44.7297 154.921H43.4617Z"
      fill="#F9E8DE" />
    <path
      d="M36.8569 155.647C36.822 155.702 36.8035 155.767 36.8035 155.832C36.8035 155.898 36.822 155.962 36.8569 156.018C37.02 156.13 37.3265 156.338 37.3968 156.378C37.517 156.439 37.6508 156.468 37.7856 156.463C37.9204 156.458 38.0516 156.419 38.1671 156.35C38.4258 156.175 38.8222 155.877 38.8222 155.877V156.004L39.5251 155.582C39.5504 155.57 39.5719 155.552 39.5873 155.528C39.6027 155.505 39.6113 155.478 39.6123 155.45V155.118C39.6123 155.118 37.1212 155.45 36.8569 155.647Z"
      fill="#304086" />
    <path
      d="M38.1504 154.64C38.3275 154.376 38.6959 153.918 39.275 154.078C39.3546 154.107 39.4276 154.151 39.4899 154.209C39.5521 154.266 39.6024 154.335 39.6377 154.412C39.6546 154.486 39.6377 154.637 39.6377 154.694C39.6605 154.838 39.668 154.984 39.6602 155.129C39.6553 155.18 39.6364 155.229 39.6057 155.27C39.5749 155.312 39.5335 155.343 39.4859 155.363C39.246 155.451 39.0161 155.564 38.7999 155.7C38.5403 155.931 38.2413 156.114 37.9171 156.24C37.7254 156.269 37.5295 156.239 37.3547 156.156C37.2334 156.089 37.1161 156.016 37.0033 155.936C36.9359 155.887 36.8877 155.815 36.8672 155.734C36.8467 155.653 36.855 155.568 36.8908 155.492C37.1298 155.056 37.7371 155.242 38.1504 154.64Z"
      fill="#5CB9FF" />
    <path
      d="M37.8889 155.529C37.7669 155.429 37.6328 155.345 37.4897 155.278C37.433 155.251 37.3711 155.237 37.3083 155.237C37.2456 155.237 37.1836 155.251 37.127 155.278C37.038 155.323 36.9624 155.389 36.9077 155.472C36.8762 155.541 36.869 155.619 36.8874 155.693C36.9058 155.766 36.9486 155.831 37.0089 155.877C37.1119 155.95 37.2189 156.016 37.3294 156.077C37.4958 156.141 37.6746 156.167 37.8524 156.153C38.0998 156.128 38.0717 155.675 37.8889 155.529Z"
      fill="url(#paint3_linear_5694_27651)" />
    <path
      d="M39.2975 154.592C39.0163 154.741 38.5412 154.682 38.5243 154.429C38.4709 153.662 38.3472 152.619 38.3472 152.619L39.5786 152.692C39.5786 152.692 39.5055 154.486 39.2975 154.592Z"
      fill="#F9E8DE" />
    <path
      d="M43.2225 158.858C43.1016 158.779 42.9725 158.714 42.8374 158.664C42.7736 158.641 42.7057 158.632 42.6383 158.638C42.5709 158.644 42.5055 158.664 42.4465 158.697C42.373 158.738 42.3103 158.796 42.2638 158.866C42.238 158.928 42.2355 158.998 42.2566 159.062C42.2778 159.126 42.3213 159.18 42.3791 159.215C42.4829 159.274 42.5899 159.327 42.6996 159.375C42.8666 159.423 43.0417 159.436 43.2141 159.414C43.4531 159.358 43.4081 158.964 43.2225 158.858Z"
      fill="url(#paint4_linear_5694_27651)" />
    <path
      d="M40.1268 119.003C41.6395 118.7 42.1456 119.591 42.1456 119.591C42.3145 119.625 42.4709 119.705 42.5982 119.821C42.7254 119.938 42.8187 120.086 42.8681 120.252C43.2027 121.3 42.6038 122.051 42.5392 122.327C42.3564 123.131 42.0753 122.951 41.6451 123.42C41.2149 123.89 39.2018 122.762 38.856 121.958C38.6947 121.251 38.7327 120.514 38.9657 119.827C39.1597 119.36 39.7417 119.079 40.1268 119.003Z"
      fill="#C97A80" />
    <path
      d="M38.8732 125.234C38.831 124.511 40.04 123.409 41.1956 123.606C42.3511 123.803 43.2058 125.012 43.248 125.72C43.2761 126.176 42.7194 136.809 42.7194 136.809L38.6089 136.196C38.6089 136.196 38.9154 125.962 38.8732 125.234Z"
      fill="#251268" />
    <path
      d="M41.0042 125.751L40.7231 125.723C40.5341 125.702 40.3593 125.613 40.2319 125.472C40.1044 125.331 40.0331 125.148 40.0314 124.958L39.9949 122.208L41.6818 122.49C41.6818 122.49 41.7324 123.052 41.738 123.254C41.738 123.654 41.7718 124.424 41.7915 125.023C41.794 125.124 41.7749 125.225 41.7354 125.319C41.6959 125.412 41.637 125.496 41.5625 125.565C41.488 125.634 41.3997 125.686 41.3034 125.718C41.2071 125.75 41.1052 125.762 41.0042 125.751Z"
      fill="#FFD0CE" />
    <path
      d="M40.0034 123.53V124.553C40.285 124.621 40.5812 124.596 40.8469 124.48C41.5948 124.216 41.6904 123.03 41.6904 123.03L41.651 122.487C41.3193 122.869 40.8553 123.668 40.0034 123.53Z"
      fill="url(#paint5_linear_5694_27651)" />
    <path d="M31.3916 126.617L30.7703 127.449L31.9033 128.332L32.3925 127.205L31.3916 126.617Z" fill="#F9E8DE" />
    <path
      d="M30.16 125.374L29.4402 126.617C29.4402 126.617 29.786 126.924 30.0644 127.154C30.2578 127.328 30.507 127.428 30.7672 127.435L31.4167 126.592C31.4373 126.433 31.4259 126.271 31.383 126.117C31.2143 125.81 30.16 125.374 30.16 125.374Z"
      fill="#FFD0CE" />
    <path
      d="M31.1637 125.54C31.2872 125.768 31.3691 126.015 31.4055 126.271L30.8038 126.215C30.7878 125.994 30.7606 125.775 30.7223 125.557C30.6801 125.419 30.6014 125.408 30.5114 125.225C30.4692 125.141 30.4945 125.059 30.5817 125.051C30.7897 125.026 31.0484 125.366 31.1637 125.54Z"
      fill="#F9E8DE" />
    <path
      d="M29.4399 126.617C29.2765 126.498 29.1224 126.366 28.9788 126.224C28.8852 126.071 28.8035 125.911 28.7342 125.746C28.6836 125.658 28.6583 125.613 28.7005 125.56C28.7427 125.507 28.8102 125.529 28.8523 125.56L29.887 126.538L29.4399 126.617Z"
      fill="#FFD0CE" />
    <path
      d="M29.9404 126.088L29.7605 126.37L29.1335 125.864C29.1335 125.864 28.7455 125.498 28.6105 125.38C28.5909 125.356 28.5801 125.326 28.5801 125.296C28.5801 125.265 28.5909 125.235 28.6105 125.211C28.6239 125.19 28.6442 125.175 28.6679 125.168C28.6916 125.161 28.7171 125.162 28.7398 125.172C29.1669 125.44 29.5688 125.747 29.9404 126.088Z"
      fill="#FFD0CE" />
    <path
      d="M29.8815 126.044L29.2574 125.504C29.0693 125.362 28.89 125.209 28.7204 125.045C28.6276 124.944 28.6248 124.888 28.6641 124.826C28.7035 124.764 28.7822 124.733 28.8778 124.826C29.159 125.107 30.0221 125.726 30.0221 125.726L29.8815 126.044Z"
      fill="#F9E8DE" />
    <path
      d="M30.1598 125.374L30.1204 125.74C30.1204 125.74 29.1701 125.155 28.8665 124.939C28.8299 124.911 28.8327 124.832 28.8665 124.77C28.883 124.746 28.9065 124.728 28.9338 124.719C28.961 124.709 28.9906 124.708 29.0183 124.716C29.2562 124.794 29.4883 124.888 29.7127 124.998C29.8723 125.11 30.0219 125.236 30.1598 125.374Z"
      fill="#F9E8DE" />
    <path
      d="M38.2854 127.424C37.6753 128.268 37.0371 129.328 34.9874 129.493C33.9696 129.575 32.218 128.976 31.0512 127.981C30.9359 127.882 30.9444 127.815 31.0175 127.7C31.2227 127.388 31.5798 126.749 31.5798 126.749C31.726 126.538 32.159 126.749 32.159 126.749C32.159 126.749 33.7897 127.312 34.7147 127.224C36.4832 127.039 37.4138 123.423 38.0521 123.364C38.4991 123.328 39.1767 126.173 38.2854 127.424Z"
      fill="#4A7DFF" />
    <path
      d="M44.9685 156.544C44.9685 156.544 45.1681 151.553 44.8898 149.45C44.8504 149.144 44.5805 148.109 44.5299 147.8C44.2291 146.009 44.7829 141.614 44.7829 139.86C44.7829 138.257 44.5889 135.743 44.5889 135.743C43.265 136.327 41.8022 136.522 40.3715 136.306C39.87 136.221 39.3951 136.021 38.9846 135.721C38.5741 135.421 38.2393 135.029 38.007 134.577C37.7163 135.416 37.4916 136.277 37.335 137.152C37.0194 139.826 36.9573 142.524 37.1495 145.21C37.1832 145.615 37.4587 146.489 37.4869 146.979C37.6471 149.79 38.0492 153.62 38.0492 153.639C38.0745 153.898 38.4878 154.041 39.1541 154.058C39.5787 154.058 40.0398 153.87 40.0482 153.729C40.1747 151.961 40.4137 149.231 40.3294 147.544C40.3294 147.204 40.1635 145.696 40.1466 145.359C40.1246 143.987 40.3085 142.62 40.6921 141.302C40.6921 141.302 40.9367 145.916 41.44 147.8C41.5271 148.129 41.9095 148.826 42.0023 149.155C42.3425 150.583 43.0482 156.108 43.051 156.552C43.051 156.766 43.4053 157.013 44.1363 157.008C44.4962 157.016 44.9685 156.738 44.9685 156.544Z"
      fill="url(#paint6_linear_5694_27651)" />
    <path
      d="M39.8573 125.225C39.9501 124.944 39.8573 124.556 40.0091 124.244L39.9838 123.544C39.4824 123.318 38.9366 123.208 38.3868 123.221C37.6361 123.221 37.0119 124.284 36.9135 126.24C36.8573 127.365 37.4758 133.638 37.4758 135.693C37.4758 136.146 37.3718 137.416 39.3062 137.942C39.7701 138.069 38.3193 129.831 39.8573 125.225Z"
      fill="url(#paint7_linear_5694_27651)" />
    <path
      d="M41.0042 125.72C41.7886 130.857 41.0689 138.285 41.0689 138.285C41.6677 138.35 44.3922 138.285 44.7999 137.942C44.9939 137.779 45.8682 128.037 44.5749 125.692C44.0604 124.756 42.5084 124.095 41.7633 123.659V123.836C41.839 124.001 41.8749 124.181 41.8681 124.361C41.8613 124.542 41.8119 124.719 41.724 124.877C41.6371 125.003 41.5148 125.101 41.3725 125.158C41.2588 125.199 41.1615 125.277 41.0951 125.378C41.0287 125.479 40.9969 125.599 41.0042 125.72Z"
      fill="url(#paint8_linear_5694_27651)" />
    <path
      d="M38.7915 121.05C38.7915 121.05 38.7662 122.355 38.7915 122.79C38.8253 123.69 39.112 124.213 39.9415 124.292C40.3376 124.293 40.7234 124.165 41.0411 123.928C41.3588 123.692 41.5915 123.359 41.7043 122.979C41.8031 122.333 41.8623 121.681 41.8815 121.028C41.814 120.339 38.7381 120.361 38.7915 121.05Z"
      fill="#FFD0CE" />
    <path
      d="M41.8844 121.998C41.5132 121.981 41.4148 122.172 41.3221 122.442C41.2293 122.712 41.3783 122.968 41.6201 122.973C41.7445 122.968 41.8637 122.921 41.9589 122.841C42.054 122.761 42.1198 122.651 42.1459 122.529C42.2386 122.259 42.129 122.026 41.8844 121.998Z"
      fill="#FFD0CE" />
    <path
      d="M41.8478 122.343L41.7634 122.701C41.8422 122.74 41.9659 122.546 41.9884 122.447C42.0109 122.349 41.9237 122.307 41.8478 122.343Z"
      fill="url(#paint9_linear_5694_27651)" />
    <path
      d="M42.4634 120.721C42.4537 120.526 42.3948 120.336 42.292 120.169C42.1893 120.002 42.0461 119.865 41.8757 119.768C41.3837 119.422 40.1888 119.147 39.3594 119.709C38.6649 120.181 38.6733 122.026 38.6733 122.026L39.1204 121.815V122.009L39.6827 121.925C40.6077 121.764 40.8833 121.955 41.5103 121.705L41.4877 122.135C41.5827 122.137 41.6755 122.107 41.7521 122.051C41.9685 121.902 42.1569 122.147 42.1569 122.147C42.3084 121.946 42.4142 121.714 42.4672 121.468C42.5201 121.222 42.5188 120.967 42.4634 120.721Z"
      fill="#C97A80" />
    <path
      d="M39.2357 122.945C39.2969 122.94 39.3573 122.928 39.4156 122.909C39.4746 122.897 39.5356 122.898 39.5942 122.911C39.6529 122.925 39.708 122.951 39.7558 122.987C39.8567 123.048 39.9423 123.13 40.006 123.229C40.0532 123.342 40.1106 123.45 40.1776 123.552C40.8411 124.115 41.693 122.99 41.693 122.99C41.693 122.99 41.3697 124.241 40.5684 124.396C40.2446 124.461 39.9088 124.424 39.6067 124.291C39.3047 124.158 39.0513 123.934 38.8814 123.651C38.6002 123.156 38.8252 121.776 38.8252 121.776C38.8252 121.776 38.7746 122.934 39.2357 122.945Z"
      fill="#C97A80" />
    <path d="M42.1204 136.562L43.0735 137.149L45.2131 133.702L43.6077 132.949L42.1204 136.562Z" fill="#FFD0CE" />
    <path
      d="M43.5348 131.99C43.5765 131.828 43.586 131.659 43.5629 131.492C43.456 130.669 43.1215 127.97 42.7588 126.994C42.3202 125.819 43.7428 124.826 44.6341 125.999C45.3764 126.974 45.8459 129.55 46.0624 130.843C46.1448 131.348 46.0814 131.866 45.8796 132.336C45.3876 133.461 44.4373 135.645 44.0802 136.272C43.9649 136.466 43.7794 136.725 43.5601 136.697C43.4054 136.677 42.7869 136.224 42.4917 136.112C42.3539 136.058 42.2105 135.907 42.2724 135.772C42.7969 134.548 43.2191 133.283 43.5348 131.99Z"
      fill="#4A7DFF" />
    <path
      d="M41.0378 137.658L42.3199 138.547C42.7831 138.144 43.0906 137.592 43.1887 136.986L42.2215 136.314L41.7267 136.579L41.0378 137.658Z"
      fill="#FFD0CE" />
    <path
      d="M40.664 138.032C40.4812 137.931 40.827 137.596 40.962 137.144C41.0154 136.972 41.7267 136.581 41.7267 136.581L41.8054 136.913L41.4315 137.284C41.3024 137.536 41.1355 137.766 40.9367 137.968C40.8833 137.993 40.8073 138.111 40.664 138.032Z"
      fill="#FFD0CE" />
    <path
      d="M42.32 138.547C42.2147 138.674 42.1 138.793 41.977 138.904C41.8428 138.998 41.6949 139.071 41.5384 139.12C41.5096 139.128 41.4795 139.128 41.4506 139.121C41.4216 139.114 41.3949 139.1 41.3725 139.081C41.3275 139.022 41.35 138.988 41.3894 138.949C41.5079 138.848 41.6318 138.755 41.7605 138.668L42.1485 138.105L42.32 138.547Z"
      fill="#FFD0CE" />
    <path
      d="M41.7916 137.976L42.1403 138.136C42.1403 138.136 41.8169 138.623 41.6904 138.769C41.5472 138.92 41.3868 139.054 41.2124 139.168C41.1788 139.189 41.1398 139.201 41.1 139.201C41.0602 139.201 41.0212 139.189 40.9875 139.168C40.9256 139.12 40.9678 139.027 40.9875 138.991C41.1272 138.865 41.2596 138.73 41.3839 138.589C41.502 138.446 41.7916 137.976 41.7916 137.976Z"
      fill="#FFD0CE" />
    <path
      d="M41.7689 137.962C41.7689 137.962 41.4625 138.445 41.3416 138.595C41.2122 138.786 41.0549 138.956 40.8749 139.101C40.8395 139.121 40.7992 139.132 40.7582 139.132C40.7172 139.132 40.6769 139.121 40.6415 139.101C40.5768 139.053 40.6134 138.937 40.6612 138.878C40.6612 138.878 40.9424 138.538 41.052 138.395C41.1617 138.251 41.4288 137.729 41.4288 137.729L41.7689 137.962Z"
      fill="#FFD0CE" />
    <path
      d="M41.0912 137.546L41.4651 137.72C41.4651 137.72 41.1502 138.178 41.0181 138.33C40.9088 138.499 40.7846 138.658 40.6469 138.805C40.6076 138.839 40.5036 138.921 40.4389 138.87C40.3742 138.819 40.3911 138.684 40.4389 138.62C40.512 138.485 40.7032 138.243 40.7932 138.119C40.8831 137.996 41.0912 137.546 41.0912 137.546Z"
      fill="#FFD0CE" />
    <path
      d="M32.592 122.478C32.592 122.515 31.1159 125.397 30.5649 127.331C30.2837 128.36 28.802 131.83 28.802 131.83L29.8563 131.717C31.8919 129.35 33.7251 125.813 33.3877 123.538L32.592 122.478Z"
      fill="url(#paint10_linear_5694_27651)" />
    <path d="M32.2012 123.687L31.4055 122.627L32.5948 122.478L33.3877 123.538L32.2012 123.687Z" fill="#00B16B" />
    <path
      d="M28.8018 131.83C29.0179 131.307 29.3384 130.835 29.7437 130.441L29.977 130.21C30.2132 129.98 30.3004 129.707 30.1879 129.55L30.1401 129.488C30.0108 129.305 30.1401 128.973 30.455 128.734C30.7699 128.495 30.9105 128.172 30.7783 127.975C30.6462 127.778 30.7783 127.455 31.0904 127.219C31.4025 126.983 31.5431 126.64 31.4109 126.46C31.2788 126.28 31.4109 125.939 31.723 125.7C32.0351 125.462 32.1729 125.138 32.0351 124.944C31.9651 124.852 31.9204 124.744 31.9056 124.629C31.8908 124.515 31.9064 124.398 31.9508 124.292L32.2038 123.687L31.4053 122.627L31.1523 123.232C31.1079 123.339 31.0923 123.455 31.1071 123.569C31.1219 123.684 31.1666 123.792 31.2366 123.884C31.3716 124.064 31.2366 124.402 30.9245 124.641C30.6125 124.88 30.4775 125.203 30.6097 125.394C30.7418 125.585 30.6097 125.914 30.2976 126.153C29.9855 126.392 29.8449 126.715 29.9742 126.912C30.1036 127.109 29.9742 127.43 29.665 127.669C29.3557 127.908 29.2095 128.231 29.3416 128.428L29.3866 128.49C29.4991 128.647 29.4147 128.923 29.1785 129.15L28.9452 129.381C28.5412 129.777 28.2201 130.249 28.0005 130.77L28.8018 131.83Z"
      fill="white" />
    <path
      d="M28.0513 130.764C28.2661 130.257 28.5795 129.797 28.9734 129.412L29.2096 129.181C29.4599 128.937 29.547 128.641 29.4233 128.467L29.3755 128.402C29.2602 128.242 29.398 127.93 29.682 127.708C30.0165 127.449 30.16 127.092 30.0138 126.89C29.8676 126.687 30.0306 126.415 30.3174 126.193C30.652 125.931 30.7926 125.577 30.6492 125.374C30.5058 125.172 30.666 124.896 30.95 124.674C31.2818 124.418 31.4224 124.059 31.2705 123.859C31.2053 123.773 31.1637 123.671 31.1499 123.564C31.1361 123.457 31.1506 123.349 31.1918 123.249L31.4167 122.712L32.1562 123.693L31.9116 124.275C31.8643 124.389 31.8477 124.512 31.8635 124.634C31.8793 124.756 31.9269 124.872 32.0015 124.97C32.1224 125.13 32.0015 125.442 31.6979 125.667C31.3942 125.892 31.2284 126.277 31.3746 126.479C31.5208 126.682 31.3577 126.957 31.0709 127.177C30.7363 127.438 30.5957 127.795 30.7391 127.995C30.8825 128.194 30.7223 128.473 30.4383 128.695C30.1037 128.954 29.9603 129.311 30.1065 129.513L30.1515 129.575C30.2527 129.713 30.1515 129.969 29.9491 130.179L29.7129 130.41C29.3227 130.792 29.0096 131.245 28.7907 131.745L28.0513 130.764Z"
      fill="url(#paint11_linear_5694_27651)" />
    <path
      d="M30.4271 128.757L29.623 127.702C29.3418 127.939 29.2153 128.265 29.3418 128.428L30.1178 129.446C30.0391 129.266 30.1628 128.976 30.4271 128.757Z"
      fill="url(#paint12_linear_5694_27651)" />
    <path
      d="M31.0597 127.244L30.2556 126.19C29.9744 126.426 29.8479 126.752 29.9744 126.915L30.7504 127.933C30.6661 127.75 30.7954 127.463 31.0597 127.244Z"
      fill="url(#paint13_linear_5694_27651)" />
    <path
      d="M31.6949 125.726L30.8908 124.669C30.6097 124.905 30.4831 125.231 30.6097 125.397L31.3857 126.412C31.3013 126.243 31.4447 125.942 31.6949 125.726Z"
      fill="url(#paint14_linear_5694_27651)" />
    <path
      d="M31.9508 124.295L31.9761 124.236L31.1748 123.181L31.1523 123.238C31.111 123.336 31.0945 123.443 31.1043 123.55C31.1141 123.656 31.1499 123.758 31.2085 123.848L32.0267 124.933C31.9598 124.842 31.9176 124.736 31.9043 124.624C31.891 124.512 31.907 124.399 31.9508 124.295Z"
      fill="#00B16B" />
    <path
      d="M37.2422 122.717C37.4524 122.159 37.5226 121.557 37.4467 120.965C37.3707 120.373 37.1509 119.809 36.8064 119.321C36.6502 119.114 36.4455 118.949 36.2104 118.84C36.0643 118.778 35.9039 118.756 35.7465 118.778L30.4832 119.45L31.0961 124.185L36.3453 123.513C36.7052 123.477 37.0285 123.198 37.2422 122.717Z"
      fill="url(#paint15_linear_5694_27651)" />
    <path
      d="M34.1411 119.419L35.8281 119.209C35.9289 119.195 36.0314 119.212 36.1228 119.257C36.2143 119.301 36.2907 119.371 36.3426 119.459L36.4073 119.571C36.45 119.644 36.4742 119.727 36.4777 119.811C36.4812 119.896 36.4639 119.98 36.4272 120.057C36.3906 120.133 36.3357 120.199 36.2675 120.249C36.1994 120.299 36.1199 120.332 36.0361 120.344L34.8328 120.527L34.1411 119.419Z"
      fill="#FFD261" />
    <path
      d="M34.4758 119.658L35.8366 119.484C35.8588 119.479 35.8819 119.479 35.9041 119.484C35.9295 119.496 35.951 119.514 35.966 119.538L36.0109 119.619C36.0213 119.638 36.0267 119.658 36.0267 119.68C36.0267 119.701 36.0213 119.721 36.0109 119.74C36.0024 119.759 35.9891 119.775 35.9724 119.788C35.9556 119.8 35.936 119.808 35.9154 119.81L34.6754 119.987L34.4758 119.658Z"
      fill="white" />
    <path
      d="M32.8842 124.733C32.5345 124.573 32.2308 124.328 32.0014 124.019C30.9836 122.737 30.6912 120.474 31.3548 118.975C31.7934 117.986 32.5469 117.569 33.3229 117.896C33.6721 118.056 33.9756 118.302 34.2057 118.61C35.2235 119.892 35.5131 122.155 34.8524 123.654C34.4166 124.643 33.6631 125.06 32.8842 124.733Z"
      fill="#FFD261" />
    <path
      d="M32.8141 124.657C32.474 124.501 32.1783 124.262 31.9538 123.963C30.9613 122.712 30.6801 120.508 31.324 119.048C31.7513 118.081 32.488 117.679 33.2443 117.997C33.5858 118.151 33.882 118.39 34.1046 118.691C35.0971 119.942 35.3811 122.147 34.7344 123.606C34.3071 124.57 33.5733 124.975 32.8141 124.657Z"
      fill="white" />
    <path
      d="M32.7211 124.68C32.3803 124.525 32.0843 124.286 31.8608 123.985C30.8683 122.734 30.5843 120.53 31.231 119.071C31.6555 118.104 32.3922 117.702 33.1485 118.019C33.49 118.173 33.7862 118.412 34.0088 118.714C35.0013 119.965 35.2853 122.169 34.6414 123.628C34.2141 124.593 33.4775 124.998 32.7211 124.68Z"
      fill="#FFD261" />
    <path
      d="M34.3634 123.654C35.0016 122.211 34.7233 120.03 33.7392 118.795C33.5207 118.498 33.2305 118.261 32.8958 118.106C32.7415 118.042 32.5765 118.007 32.4094 118.002C26.8987 117.803 25.0992 115.728 25.0992 115.728L20.0974 127.691L26.0496 128.38C26.0496 128.38 28.7234 126.434 33.2641 124.792C33.6942 124.652 34.0935 124.275 34.3634 123.654Z"
      fill="url(#paint16_linear_5694_27651)" />
    <path
      d="M26.1027 117.508C27.7334 118.253 30.4381 118.388 31.4981 118.413C31.8327 118.413 32.2291 118.672 32.1588 118.899C31.8608 119.838 24.9302 120.091 24.978 120.198L26.1027 117.508Z"
      fill="#FFD261" />
    <path
      d="M29.668 118.672C29.6916 118.606 29.7386 118.552 29.7999 118.519C29.8611 118.487 29.9323 118.478 29.9997 118.494C30.3697 118.569 30.7471 118.601 31.1244 118.59C31.2087 118.59 31.3099 118.646 31.293 118.705C31.2509 118.86 30.4805 118.986 29.9688 119.037C29.9236 119.039 29.8785 119.03 29.8374 119.011C29.7964 118.992 29.7605 118.964 29.7329 118.928C29.7053 118.892 29.6868 118.85 29.6789 118.805C29.671 118.761 29.674 118.715 29.6876 118.672H29.668Z"
      fill="white" />
    <path
      d="M23.2964 130.607C26.1673 130.238 28.0151 126.202 27.4235 121.59C26.832 116.979 24.0252 113.539 21.1543 113.908C18.2834 114.276 16.4356 118.313 17.0271 122.924C17.6187 127.535 20.4255 130.975 23.2964 130.607Z"
      fill="url(#paint17_linear_5694_27651)" />
    <path
      d="M22.9151 130.655C25.578 130.313 27.2573 126.298 26.6657 121.687C26.0742 117.075 23.4359 113.614 20.7729 113.956C18.1099 114.297 16.4307 118.312 17.0222 122.924C17.6138 127.535 20.2521 130.996 22.9151 130.655Z"
      fill="url(#paint18_linear_5694_27651)" />
    <path
      d="M22.6928 129.51C25.0277 129.21 26.5073 125.746 25.9975 121.772C25.4878 117.799 23.1818 114.82 20.8468 115.12C18.5119 115.419 17.0324 118.883 17.5421 122.857C18.0519 126.831 20.3579 129.809 22.6928 129.51Z"
      fill="url(#paint19_linear_5694_27651)" />
    <path
      d="M21.638 128.895C20.957 128.585 20.3659 128.107 19.9202 127.506C17.9521 125.012 17.3729 120.609 18.6606 117.693C19.5041 115.764 20.983 114.96 22.4956 115.593C23.1756 115.905 23.7663 116.382 24.2135 116.982C26.1816 119.476 26.7608 123.879 25.4731 126.794C24.6211 128.723 23.1507 129.527 21.638 128.895Z"
      fill="url(#paint20_linear_5694_27651)" />
    <path d="M26.6089 124.466L22.4309 125.006L21.8376 119.445L25.9173 118.911L26.6089 124.466Z"
      fill="url(#paint21_linear_5694_27651)" />
    <path
      d="M21.8629 124.714L20.8423 123.373C20.4655 122.878 20.384 121.93 20.6595 121.27L21.1769 120.038C21.458 119.375 21.9866 119.237 22.3633 119.732L23.3868 121.073C23.7635 121.568 23.8451 122.512 23.5667 123.176L23.0522 124.407C22.7767 125.071 22.2397 125.206 21.8629 124.714Z"
      fill="#FF7384" />
    <path
      d="M26.3137 123.322C26.3027 122.746 26.3328 122.17 26.4036 121.598C26.4024 121.583 26.4024 121.567 26.4036 121.551C26.4018 121.53 26.4018 121.509 26.4036 121.489C26.4036 121.382 26.3839 121.278 26.3699 121.174C26.3558 121.07 26.3446 121.047 26.3333 120.983C26.3333 120.963 26.2828 120.851 26.2546 120.769C26.0582 120.183 25.9087 119.582 25.8076 118.972C25.8076 118.958 25.8076 118.947 25.8076 118.936L21.8545 119.445L22.4168 125.02L26.2349 124.528C26.249 124.126 26.294 123.73 26.3137 123.322Z"
      fill="url(#paint22_linear_5694_27651)" />
    <path
      d="M26.2601 120.769C26.2523 120.752 26.2457 120.734 26.2404 120.716L22.3323 121.219L22.3801 123.328L26.3163 122.819C26.3276 122.408 26.2882 120.851 26.2601 120.769Z"
      fill="url(#paint23_linear_5694_27651)" />
    <path
      d="M26.266 123.974L22.2764 124.517L22.4141 125.02L26.2238 124.528C26.2351 124.343 26.2519 124.16 26.266 123.974Z"
      fill="url(#paint24_linear_5694_27651)" />
    <path
      d="M25.8215 118.972C25.8215 118.972 25.8215 118.925 25.8215 118.919L21.7588 119.453L22.0399 119.782L25.8693 119.293C25.8553 119.186 25.8356 119.079 25.8215 118.972Z"
      fill="url(#paint25_linear_5694_27651)" />
    <path
      d="M21.8404 124.728L20.817 123.387C20.4403 122.892 20.3588 121.944 20.6371 121.283L21.1516 120.052C21.4328 119.388 21.9642 119.251 22.3409 119.746L23.3615 121.087C23.7383 121.582 23.8198 122.526 23.5443 123.19L23.0297 124.421C22.7514 125.085 22.2172 125.22 21.8404 124.728Z"
      fill="url(#paint26_linear_5694_27651)" />
    <path
      d="M21.8855 124.798C21.7869 124.753 21.7017 124.683 21.6381 124.596L20.6849 123.344C20.5184 123.068 20.4179 122.756 20.3911 122.435C20.3642 122.113 20.4119 121.789 20.5303 121.489L21.0111 120.339C21.1714 119.954 21.4385 119.776 21.6859 119.875C21.7836 119.92 21.8679 119.99 21.9305 120.077L22.8836 121.329C23.0506 121.605 23.1516 121.916 23.1789 122.238C23.2062 122.56 23.1591 122.884 23.0411 123.184L22.5603 124.334C22.3916 124.719 22.1273 124.902 21.8855 124.798Z"
      fill="url(#paint27_linear_5694_27651)" />
    <path
      d="M22.7289 121.416L21.7927 120.184C21.7386 120.11 21.6672 120.05 21.5846 120.01C21.5382 119.991 21.4877 119.985 21.4383 119.993C21.3889 120 21.3424 120.021 21.3035 120.052C21.3846 120.096 21.4548 120.157 21.5087 120.232L22.4478 121.464C22.6116 121.736 22.7105 122.042 22.7368 122.358C22.7632 122.675 22.7162 122.993 22.5996 123.288L22.1272 124.413C22.0834 124.522 22.0226 124.623 21.9473 124.714C22.116 124.714 22.2875 124.562 22.4056 124.281L22.8779 123.156C22.9887 122.874 23.0329 122.57 23.0071 122.268C22.9813 121.967 22.886 121.675 22.7289 121.416Z"
      fill="url(#paint28_linear_5694_27651)" />
    <path
      d="M25.4029 127.534L24.7647 129.058C25.5491 128.608 26.0946 127.86 26.5051 126.631C27.6297 123.297 26.8931 118.455 24.4357 115.781C24.0482 115.399 23.6277 115.052 23.179 114.744C23.179 114.744 25.8443 117.783 26.3083 121.773C26.7047 125.211 25.4029 127.534 25.4029 127.534Z"
      fill="white" />
    <path
      d="M24.5283 115.927C22.2284 112.908 19.1863 113.299 17.713 116.802C16.2397 120.305 16.9258 125.591 19.2284 128.611C21.5311 131.63 24.5705 131.237 26.0437 127.733C27.517 124.23 26.831 118.947 24.5283 115.927ZM19.4674 127.736C17.4543 125.138 16.8695 120.583 18.1628 117.564C19.4562 114.544 22.13 114.19 24.1403 116.796C26.1506 119.403 26.7382 123.949 25.4477 126.969C24.1572 129.988 21.4777 130.345 19.4674 127.747V127.736Z"
      fill="url(#paint29_linear_5694_27651)" />
    <path
      d="M21.3426 130.239C20.5147 129.855 19.8013 129.262 19.2733 128.518C17.024 125.546 16.3408 120.325 17.7804 116.881C18.7504 114.558 20.457 113.577 22.2339 114.322C23.063 114.704 23.7768 115.297 24.3032 116.043C26.5666 119.012 27.2385 124.233 25.7962 127.68C25.3098 128.844 24.6266 129.693 23.8281 130.134C23.4518 130.343 23.0319 130.461 22.6019 130.479C22.1719 130.498 21.7436 130.415 21.3511 130.239H21.3426ZM22.2676 115.143C20.547 114.426 18.8375 115.357 17.9153 117.519C16.6051 120.586 17.1983 125.228 19.2424 127.866C19.7351 128.546 20.3958 129.086 21.1599 129.434C22.8806 130.154 24.59 129.221 25.515 127.059C26.8252 123.991 26.2292 119.352 24.1852 116.715C23.6925 116.034 23.0318 115.493 22.2676 115.143Z"
      fill="url(#paint30_linear_5694_27651)" />
    <path
      d="M28.9988 131.428C28.905 131.546 28.8378 131.683 28.802 131.83L29.8563 131.717C30.0082 131.551 30.1966 131.307 30.1966 131.307L28.9988 131.428Z"
      fill="url(#paint31_linear_5694_27651)" />
    <path
      d="M28.1974 130.368C28.1254 130.498 28.0607 130.632 28.0034 130.77L28.8019 131.83C28.8601 131.692 28.9258 131.558 28.9987 131.428L28.1974 130.368Z"
      fill="white" />
    <path
      d="M28.0513 130.764C28.0963 130.657 28.1694 130.508 28.2256 130.404L28.9678 131.391C28.9088 131.495 28.8385 131.641 28.7907 131.745L28.0513 130.764Z"
      fill="url(#paint32_linear_5694_27651)" />
    <path
      d="M56.8081 117.111L57.6938 117.027C57.6938 117.027 58.7397 119.518 58.5372 120.119C58.4445 120.401 57.3901 120.266 57.4126 119.968C57.3107 118.997 57.1081 118.04 56.8081 117.111Z"
      fill="#FFD0CE" />
    <path
      d="M56.3835 115.719L57.5082 115.649C57.6222 115.862 57.7163 116.085 57.7893 116.315C57.839 116.603 57.7936 116.899 57.66 117.159L56.9149 117.37C56.7979 117.268 56.6889 117.157 56.5888 117.038C56.4089 116.771 56.3835 115.719 56.3835 115.719Z"
      fill="#FFD0CE" />
    <path
      d="M56.2008 116.642C56.3664 116.831 56.5429 117.01 56.7294 117.179L56.7941 116.585C56.7941 116.585 56.482 116.321 56.4089 116.245C56.3358 116.169 56.3273 116.076 56.2205 115.93C56.1727 115.863 56.1221 115.868 56.0855 115.93C56.0297 116.173 56.0711 116.429 56.2008 116.642Z"
      fill="#FFD0CE" />
    <path
      d="M57.5167 115.649C57.4797 115.468 57.4318 115.29 57.3733 115.115C57.2885 114.978 57.1945 114.846 57.0921 114.721C57.0415 114.645 57.019 114.609 56.9656 114.62C56.9122 114.631 56.9094 114.693 56.9206 114.744L57.3114 115.981L57.5167 115.649Z"
      fill="#FFD0CE" />
    <path
      d="M56.974 115.84L57.2383 115.812L57.0668 115.098C57.0668 115.098 56.9206 114.634 56.8784 114.477C56.8698 114.452 56.8533 114.431 56.8314 114.417C56.8095 114.402 56.7836 114.396 56.7576 114.398C56.7369 114.401 56.7181 114.411 56.7051 114.428C56.692 114.444 56.6856 114.464 56.6873 114.485C56.7471 114.944 56.843 115.397 56.974 115.84Z"
      fill="#FFD0CE" />
    <path
      d="M56.96 115.77L56.7632 115.045C56.7181 114.835 56.6617 114.627 56.5945 114.423C56.5523 114.308 56.513 114.283 56.4539 114.288C56.3949 114.294 56.3471 114.345 56.3864 114.46C56.5017 114.794 56.6845 115.75 56.6845 115.75L56.96 115.77Z"
      fill="#FFD0CE" />
    <path
      d="M56.3835 115.719L56.6647 115.837C56.6647 115.837 56.5382 114.831 56.4735 114.496C56.4735 114.454 56.4088 114.426 56.3498 114.432C56.2907 114.437 56.2711 114.491 56.2626 114.533C56.2481 114.758 56.2481 114.985 56.2626 115.21C56.2909 115.383 56.3312 115.553 56.3835 115.719Z"
      fill="#FFD0CE" />
    <path
      d="M55.4136 126.805C56.7322 126.221 58.2758 123.808 58.5766 122.715C58.7819 121.975 58.9281 120.398 58.6891 119.478C58.6666 119.388 58.5963 119.197 58.4389 119.197C58.0677 119.197 57.497 119.27 57.2973 119.478C57.1596 119.616 57.3424 121.061 57.1174 121.801C56.8588 122.661 55.6498 124.196 54.587 124.725C54.1934 124.936 54.8091 127.087 55.4136 126.805Z"
      fill="#5643EC" />
    <path
      d="M54.691 125.433C54.7965 124.698 54.9764 123.976 55.228 123.277C55.367 122.913 55.4376 122.526 55.4361 122.135C55.4655 121.599 55.3195 121.067 55.02 120.62C54.6677 120.148 54.151 119.825 53.572 119.715C53.2337 119.658 52.8872 119.674 52.5557 119.762C52.2241 119.85 51.915 120.007 51.6489 120.224C51.4186 120.426 51.2394 120.681 51.1259 120.966C50.8026 121.792 51.2102 122.183 51.0753 123.063C50.9038 124.188 50.094 124.289 50.1306 125.192C50.1522 125.479 50.2396 125.758 50.3858 126.007C50.532 126.255 50.7332 126.467 50.9741 126.626C52.11 127.368 54.5364 126.704 54.691 125.433Z"
      fill="url(#paint33_linear_5694_27651)" />
    <path
      d="M49.2083 154.078C48.9862 154.19 48.6825 154.708 48.5166 154.905C48.3507 155.101 48.0077 155.335 47.9234 155.526C47.797 155.796 47.7558 156.098 47.8053 156.392C47.8362 156.465 48.0865 156.757 48.1821 156.763C48.3761 156.763 48.7444 156.417 48.9103 156.263C49.1239 156.06 49.3067 155.489 49.4726 155.245C49.6411 155.019 49.7738 154.769 49.8662 154.503C49.8831 154.314 49.6722 154.188 49.5232 154.112C49.4769 154.082 49.4244 154.064 49.3697 154.058C49.3151 154.052 49.2598 154.059 49.2083 154.078Z"
      fill="url(#paint34_linear_5694_27651)" />
    <path
      d="M53.7324 156.431C53.7358 156.305 53.7499 156.179 53.7746 156.054C53.7954 155.988 53.8318 155.928 53.8807 155.879C53.9297 155.83 53.9898 155.794 54.0558 155.773C54.6181 155.596 54.8543 156.029 55.0427 156.423C55.3829 157.126 55.5853 157.351 56.0998 157.682C56.1363 157.71 56.1626 157.749 56.1743 157.793C56.186 157.838 56.1826 157.885 56.1645 157.927C56.0765 158.04 55.9677 158.136 55.844 158.208C55.7473 158.268 55.6349 158.297 55.5214 158.291C55.408 158.286 55.2989 158.246 55.2085 158.177C54.8381 157.956 54.5105 157.671 54.2413 157.334V157.547L53.8308 157.266C53.7644 156.993 53.7314 156.712 53.7324 156.431Z"
      fill="url(#paint35_linear_5694_27651)" />
    <path
      d="M49.4389 155.152C49.6088 154.971 49.7289 154.749 49.7876 154.508C49.7876 154.339 49.6133 154.227 49.4811 154.159C49.4401 154.132 49.3932 154.115 49.3443 154.11C49.2954 154.105 49.2459 154.111 49.1999 154.129C48.9797 154.277 48.8193 154.5 48.7473 154.756C48.729 154.842 48.7387 154.932 48.7749 155.013C48.8111 155.094 48.872 155.161 48.9489 155.205C49.0257 155.249 49.1145 155.268 49.2026 155.258C49.2906 155.249 49.3734 155.212 49.4389 155.152Z"
      fill="#304086" />
    <path
      d="M54.3649 156.774C54.6067 156.774 55.0032 156.544 54.9273 156.302C54.9125 156.209 54.8776 156.121 54.8249 156.044C54.7723 155.967 54.7032 155.902 54.6226 155.855C54.5421 155.807 54.452 155.778 54.3588 155.769C54.2657 155.76 54.1718 155.772 54.0838 155.804C54.0231 155.822 53.9676 155.853 53.9221 155.897C53.8765 155.941 53.8423 155.995 53.8223 156.054C53.7948 156.139 53.7834 156.227 53.7886 156.316C53.8135 156.449 53.8854 156.568 53.9913 156.653C54.0971 156.737 54.2298 156.78 54.3649 156.774Z"
      fill="#304086" />
    <path
      d="M56.8953 134.768C56.6141 132.603 50.8082 135.578 50.6339 138.859C50.4736 141.87 51.7051 147.012 51.4211 147.656C50.9151 148.781 49.5233 153.718 49.065 154.278C48.8485 154.539 49.1212 154.893 49.4614 154.933C49.4614 154.933 52.8185 151.03 53.5045 148.081C53.5804 147.755 53.6676 144.783 53.6676 144.783L54.1034 146.925C54.1034 146.925 54.0218 148.19 53.9262 148.832C53.6451 150.631 53.6451 155.827 53.9797 156.271C54.0279 156.331 54.0925 156.375 54.1655 156.399C54.2386 156.423 54.3169 156.425 54.391 156.405C54.4652 156.385 54.5319 156.344 54.5832 156.286C54.6344 156.229 54.668 156.158 54.6798 156.083C54.84 154.73 55.8831 150.066 56.3667 147.145C56.8897 143.996 57.1399 136.75 56.8953 134.768Z"
      fill="#F9E8DE" />
    <path
      d="M55.8437 131.324C56.4211 132.41 56.882 133.554 57.2186 134.737C57.6234 136.306 58.9871 145.297 58.8746 145.702C58.2673 147.794 49.4923 148.25 49.4333 146.689C49.3939 145.649 49.8606 139.483 49.8578 138.842C49.8578 135.555 51.3536 132.049 51.3536 132.049L55.8437 131.324Z"
      fill="url(#paint36_linear_5694_27651)" />
    <path
      d="M55.9252 127.087C55.8506 126.473 55.7014 125.871 55.481 125.293C55.4324 125.087 55.3132 124.905 55.1441 124.779C54.975 124.653 54.7668 124.59 54.5559 124.601C54.331 124.601 53.1501 124.447 52.1801 125.023C51.7725 125.268 50.8953 125.746 50.5747 126.207C50.1024 126.884 51.3929 129.974 51.3704 131.268C51.3463 131.681 51.2813 132.09 51.1764 132.491C51.1258 132.648 51.8934 132.634 52.3376 132.671C54.7218 132.856 56.2485 132.252 56.0911 131.844C55.8553 131.237 55.692 130.605 55.6047 129.96C55.5991 129.617 55.9842 127.593 55.9252 127.087Z"
      fill="#251268" />
    <path
      d="M54.6039 125.102C54.5926 125.016 54.5562 124.935 54.4991 124.869C54.4421 124.804 54.3671 124.756 54.2833 124.733C53.8838 124.632 53.466 124.625 53.0633 124.713C52.6605 124.801 52.284 124.983 51.9638 125.242C51.9638 125.242 51.6826 125.459 51.6826 125.636C51.6826 126.299 52.7792 127.21 54.0219 126.544C54.6461 126.207 54.6517 125.492 54.6039 125.102Z"
      fill="#FFD0CE" />
    <path
      d="M52.647 126.221L53.8925 126.148L53.78 122.841L52.5401 122.72C52.5401 122.72 52.5401 124.227 52.5401 124.435C52.5296 125.032 52.5654 125.629 52.647 126.221Z"
      fill="#FFD0CE" />
    <path
      d="M53.9179 124.222L53.842 124.896C53.6239 124.92 53.4033 124.888 53.2009 124.804C52.8742 124.601 52.6339 124.284 52.5261 123.915L52.5093 123.521C52.8579 123.957 53.1447 124.39 53.9179 124.222Z"
      fill="url(#paint37_linear_5694_27651)" />
    <path
      d="M52.4952 122.06C52.5908 121.497 54.6882 121.264 54.9047 122.093C54.9848 122.611 54.9848 123.139 54.9047 123.657C54.8528 123.918 54.7374 124.162 54.5687 124.368C54.4 124.574 54.1833 124.735 53.9376 124.837C53.5917 124.905 52.6414 124.382 52.5318 123.648C52.484 123.12 52.4718 122.589 52.4952 122.06Z"
      fill="#FFD0CE" />
    <path
      d="M51.7979 121.497C51.8581 121.296 51.9664 121.113 52.1133 120.963C52.2603 120.813 52.4415 120.701 52.6414 120.637C53.1587 120.412 53.7379 120.218 54.4773 120.834C55.0959 121.348 55.124 122.613 55.124 122.613L54.4942 122.751C54.1698 122.823 53.8306 122.783 53.5317 122.638C53.2327 122.493 52.9913 122.252 52.8466 121.953L52.5654 123.218L52.124 123.134C51.9463 122.905 51.8243 122.638 51.7676 122.354C51.711 122.07 51.7214 121.777 51.7979 121.497Z"
      fill="url(#paint38_linear_5694_27651)" />
    <path
      d="M52.2506 122.807C52.3441 122.818 52.4316 122.858 52.5001 122.923C52.5686 122.987 52.6142 123.072 52.6302 123.165C52.7061 123.375 52.5936 123.617 52.3968 123.595C52.2964 123.577 52.2039 123.529 52.1323 123.456C52.0608 123.384 52.0136 123.291 51.9976 123.19C51.9498 122.971 52.051 122.788 52.2506 122.807Z"
      fill="#FFD0CE" />
    <path
      d="M52.3095 123.077L52.3883 123.403C52.3011 123.446 52.1858 123.297 52.1549 123.19C52.124 123.083 52.2083 123.038 52.3095 123.077Z"
      fill="url(#paint39_linear_5694_27651)" />
    <path
      d="M55.0622 135.763L54.14 136.427C53.9301 136.307 53.7316 136.169 53.5467 136.013C53.3513 135.795 53.2319 135.518 53.2065 135.226L53.7239 134.664C53.8773 134.686 54.0287 134.721 54.1765 134.768C54.4999 134.889 55.0622 135.763 55.0622 135.763Z"
      fill="#FFD0CE" />
    <path
      d="M54.7332 134.886C54.493 134.815 54.2489 134.758 54.0022 134.714L54.2609 135.249C54.2609 135.249 54.6657 135.308 54.7669 135.333C54.8682 135.358 54.9272 135.431 55.0959 135.499C55.1718 135.53 55.214 135.499 55.2084 135.426C55.1271 135.19 54.9564 134.996 54.7332 134.886Z"
      fill="#FFD0CE" />
    <path
      d="M54.1485 136.427C54.2747 136.561 54.4099 136.685 54.5533 136.801C54.6949 136.874 54.8415 136.938 54.9919 136.992C55.0763 137.028 55.1156 137.048 55.155 137.012C55.1944 136.975 55.155 136.919 55.1241 136.882L54.1372 136.039L54.1485 136.427Z"
      fill="#FFD0CE" />
    <path
      d="M54.4998 135.98L54.2917 136.143L54.8175 136.657C54.8175 136.657 55.1886 136.972 55.3067 137.082C55.3271 137.098 55.3524 137.107 55.3784 137.107C55.4045 137.107 55.4297 137.098 55.4501 137.082C55.4646 137.067 55.4726 137.047 55.4726 137.026C55.4726 137.005 55.4646 136.985 55.4501 136.969C55.1597 136.615 54.8419 136.284 54.4998 135.98Z"
      fill="#FFD0CE" />
    <path
      d="M54.5562 136.028L55.1185 136.536C55.2676 136.691 55.4253 136.836 55.5908 136.972C55.6892 137.048 55.737 137.048 55.782 137.012C55.827 136.975 55.8411 136.908 55.7455 136.832C55.4643 136.61 54.8092 135.895 54.8092 135.895L54.5562 136.028Z"
      fill="#FFD0CE" />
    <path
      d="M55.0622 135.763L54.7642 135.811C54.7642 135.811 55.408 136.598 55.6386 136.846C55.6589 136.861 55.6838 136.869 55.7091 136.867C55.7344 136.866 55.7586 136.857 55.7775 136.84C55.7964 136.823 55.8088 136.8 55.8127 136.775C55.8166 136.75 55.8117 136.724 55.7988 136.702C55.6915 136.508 55.5722 136.32 55.4418 136.14C55.3243 136.006 55.1975 135.88 55.0622 135.763Z"
      fill="#FFD0CE" />
    <path d="M54.2157 135.041L53.42 135.53L51.1736 132.881L52.2476 132.429L54.2157 135.041Z" fill="#FFD0CE" />
    <path
      d="M50.7265 126.139C51.2889 125.858 52.1464 127.382 52.0227 128.155C51.899 128.928 51.5025 130.337 51.5813 130.967C51.6403 131.442 53.0995 133.047 53.0855 133.261C53.063 133.601 52.1858 134.172 51.9608 134.169C51.7359 134.166 49.6666 131.844 49.5232 130.975C49.3601 129.926 49.869 126.575 50.7265 126.139Z"
      fill="#5643EC" />
    <path
      d="M46.4248 147.046L58.3881 140.101L62.0123 140.211L46.3489 149.253L30.6855 140.208L34.1101 140.09L46.4248 147.046Z"
      fill="url(#paint40_linear_5694_27651)" />
    <path
      d="M43.8158 163.356L36.3623 159.009C35.5088 158.512 34.7749 157.834 34.2123 157.022C33.6497 156.21 33.2722 155.285 33.1065 154.311L30.6941 140.222L46.3547 148.938V161.903C46.3542 162.199 46.2755 162.491 46.1265 162.747C45.9775 163.004 45.7634 163.217 45.5059 163.364C45.2484 163.512 44.9565 163.588 44.6598 163.587C44.363 163.586 44.0719 163.506 43.8158 163.356Z"
      fill="url(#paint41_linear_5694_27651)" />
    <path
      d="M59.4201 154.446C59.2448 155.406 58.8641 156.316 58.3041 157.115C57.7441 157.914 57.0179 158.582 56.1755 159.074L48.8654 163.342C48.6091 163.49 48.3183 163.568 48.0224 163.568C47.7264 163.568 47.4356 163.49 47.1792 163.343C46.9228 163.195 46.7098 162.982 46.5616 162.726C46.4134 162.47 46.3353 162.179 46.335 161.883L46.3659 148.924L62.0377 140.208L59.4201 154.446Z"
      fill="url(#paint42_linear_5694_27651)" />
    <path d="M46.5037 147.718H46.1917L46.2844 104.889H46.5993L46.5037 147.718Z" fill="white" />
    <path
      d="M46.824 148.59C46.6776 148.673 46.5119 148.717 46.3433 148.717C46.1746 148.717 46.009 148.673 45.8625 148.59L31.0004 140.02L30.6855 140.206L45.8681 148.969C46.0153 149.054 46.182 149.098 46.3517 149.098C46.5214 149.098 46.6881 149.054 46.8353 148.969L62.0179 140.206L61.7367 140.028L46.824 148.59Z"
      fill="white" />
  </g>
  <defs>
    <linearGradient id="paint0_linear_5694_27651" x1="47.0774" y1="180.049" x2="46.0933" y2="157.275"
      gradientUnits="userSpaceOnUse">
      <stop stop-color="#2020B8" />
      <stop offset="0.21" stop-color="#272DC3" />
      <stop offset="0.61" stop-color="#384FDE" />
      <stop offset="1" stop-color="#4C77FF" />
    </linearGradient>
    <linearGradient id="paint1_linear_5694_27651" x1="46.3483" y1="112.191" x2="44.1388" y2="-0.274739"
      gradientUnits="userSpaceOnUse">
      <stop stop-color="#51F5FF" />
      <stop offset="1" stop-color="#0066FF" />
    </linearGradient>
    <linearGradient id="paint2_linear_5694_27651" x1="30.6855" y1="140.211" x2="62.0123" y2="140.211"
      gradientUnits="userSpaceOnUse">
      <stop stop-color="#2020B8" />
      <stop offset="0.21" stop-color="#272DC3" />
      <stop offset="0.61" stop-color="#384FDE" />
      <stop offset="1" stop-color="#4C77FF" />
    </linearGradient>
    <linearGradient id="paint3_linear_5694_27651" x1="39.4718" y1="154.317" x2="35.7296" y2="156.996"
      gradientUnits="userSpaceOnUse">
      <stop stop-color="#3BA7FB" />
      <stop offset="1" stop-color="#2975DE" />
    </linearGradient>
    <linearGradient id="paint4_linear_5694_27651" x1="42.8514" y1="159.038" x2="39.1092" y2="161.717"
      gradientUnits="userSpaceOnUse">
      <stop stop-color="#3BA7FB" />
      <stop offset="1" stop-color="#2975DE" />
    </linearGradient>
    <linearGradient id="paint5_linear_5694_27651" x1="40.5995" y1="123.333" x2="41.8056" y2="124.247"
      gradientUnits="userSpaceOnUse">
      <stop stop-color="#FFD0CE" />
      <stop offset="1" stop-color="#F4AAA7" />
    </linearGradient>
    <linearGradient id="paint6_linear_5694_27651" x1="41.1419" y1="133.137" x2="40.7652" y2="184.401"
      gradientUnits="userSpaceOnUse">
      <stop offset="0.1" stop-color="#441FDF" />
      <stop offset="0.18" stop-color="#512BE2" />
      <stop offset="0.31" stop-color="#734BE9" />
      <stop offset="0.5" stop-color="#AA7EF4" />
      <stop offset="0.65" stop-color="#DEAEFF" />
    </linearGradient>
    <linearGradient id="paint7_linear_5694_27651" x1="38.1478" y1="138.28" x2="38.6736" y2="116.313"
      gradientUnits="userSpaceOnUse">
      <stop offset="0.01" stop-color="#A50B61" />
      <stop offset="0.27" stop-color="#E81061" />
      <stop offset="0.49" stop-color="#ED1D6E" />
      <stop offset="0.89" stop-color="#FA3D90" />
      <stop offset="1" stop-color="#FE489B" />
    </linearGradient>
    <linearGradient id="paint8_linear_5694_27651" x1="42.7249" y1="139.581" x2="43.9901" y2="105.772"
      gradientUnits="userSpaceOnUse">
      <stop offset="0.01" stop-color="#A50B61" />
      <stop offset="0.27" stop-color="#E81061" />
      <stop offset="0.49" stop-color="#ED1D6E" />
      <stop offset="0.89" stop-color="#FA3D90" />
      <stop offset="1" stop-color="#FE489B" />
    </linearGradient>
    <linearGradient id="paint9_linear_5694_27651" x1="42.1318" y1="122.523" x2="41.4541" y2="122.512"
      gradientUnits="userSpaceOnUse">
      <stop stop-color="#FFD0CE" />
      <stop offset="1" stop-color="#F4AAA7" />
    </linearGradient>
    <linearGradient id="paint10_linear_5694_27651" x1="30.3709" y1="127.061" x2="36.8151" y2="128.866"
      gradientUnits="userSpaceOnUse">
      <stop stop-color="#FFC980" />
      <stop offset="1" stop-color="#FF7100" />
    </linearGradient>
    <linearGradient id="paint11_linear_5694_27651" x1="27.1178" y1="125.259" x2="33.6548" y2="129.572"
      gradientUnits="userSpaceOnUse">
      <stop stop-color="#FFC980" />
      <stop offset="1" stop-color="#FF7100" />
    </linearGradient>
    <linearGradient id="paint12_linear_5694_27651" x1="28.4871" y1="130.104" x2="29.0326" y2="129.499"
      gradientUnits="userSpaceOnUse">
      <stop stop-color="#FFC980" />
      <stop offset="1" stop-color="#FF7100" />
    </linearGradient>
    <linearGradient id="paint13_linear_5694_27651" x1="28.6445" y1="129.513" x2="29.145" y2="128.847"
      gradientUnits="userSpaceOnUse">
      <stop stop-color="#FFC980" />
      <stop offset="1" stop-color="#FF7100" />
    </linearGradient>
    <linearGradient id="paint14_linear_5694_27651" x1="28.6922" y1="129.361" x2="29.2798" y2="128.428"
      gradientUnits="userSpaceOnUse">
      <stop stop-color="#FFC980" />
      <stop offset="1" stop-color="#FF7100" />
    </linearGradient>
    <linearGradient id="paint15_linear_5694_27651" x1="33.753" y1="118.362" x2="34.8074" y2="127.537"
      gradientUnits="userSpaceOnUse">
      <stop stop-color="#FFC980" />
      <stop offset="1" stop-color="#FF7100" />
    </linearGradient>
    <linearGradient id="paint16_linear_5694_27651" x1="26.7777" y1="117.269" x2="27.9024" y2="130.728"
      gradientUnits="userSpaceOnUse">
      <stop stop-color="#FFC980" />
      <stop offset="1" stop-color="#FF7100" />
    </linearGradient>
    <linearGradient id="paint17_linear_5694_27651" x1="23.1255" y1="121.874" x2="21.2277" y2="122.647"
      gradientUnits="userSpaceOnUse">
      <stop stop-color="#FFC980" />
      <stop offset="1" stop-color="#FF7100" />
    </linearGradient>
    <linearGradient id="paint18_linear_5694_27651" x1="-350.611" y1="-1034.35" x2="-335.336" y2="-987.173"
      gradientUnits="userSpaceOnUse">
      <stop stop-color="#7ACBFF" />
      <stop offset="1" stop-color="#1B88FF" />
    </linearGradient>
    <linearGradient id="paint19_linear_5694_27651" x1="14.0329" y1="122.925" x2="12.6993" y2="122.969"
      gradientUnits="userSpaceOnUse">
      <stop stop-color="#FFC980" />
      <stop offset="0.76" stop-color="#FF861E" />
      <stop offset="1" stop-color="#FF7100" />
    </linearGradient>
    <linearGradient id="paint20_linear_5694_27651" x1="10.2427" y1="122.954" x2="25.4955" y2="122.04"
      gradientUnits="userSpaceOnUse">
      <stop stop-color="#FFC980" />
      <stop offset="0.57" stop-color="#FF9737" />
      <stop offset="0.76" stop-color="#FF861E" />
      <stop offset="1" stop-color="#FF7100" />
    </linearGradient>
    <linearGradient id="paint21_linear_5694_27651" x1="-353.065" y1="-1031.19" x2="-337.624" y2="-983.991"
      gradientUnits="userSpaceOnUse">
      <stop stop-color="#7ACBFF" />
      <stop offset="1" stop-color="#1B88FF" />
    </linearGradient>
    <linearGradient id="paint22_linear_5694_27651" x1="5.80039" y1="125.195" x2="78.1282" y2="112.472"
      gradientUnits="userSpaceOnUse">
      <stop offset="0.1" stop-color="#441FDF" />
      <stop offset="0.18" stop-color="#512BE2" />
      <stop offset="0.31" stop-color="#734BE9" />
      <stop offset="0.5" stop-color="#AA7EF4" />
      <stop offset="0.65" stop-color="#DEAEFF" />
    </linearGradient>
    <linearGradient id="paint23_linear_5694_27651" x1="15.6266" y1="123.333" x2="42.618" y2="119.256"
      gradientUnits="userSpaceOnUse">
      <stop offset="0.1" stop-color="#441FDF" />
      <stop offset="0.18" stop-color="#512BE2" />
      <stop offset="0.31" stop-color="#734BE9" />
      <stop offset="0.5" stop-color="#AA7EF4" />
      <stop offset="0.65" stop-color="#DEAEFF" />
    </linearGradient>
    <linearGradient id="paint24_linear_5694_27651" x1="23.0552" y1="128.307" x2="26.3588" y2="117.851"
      gradientUnits="userSpaceOnUse">
      <stop offset="0.1" stop-color="#441FDF" />
      <stop offset="0.18" stop-color="#512BE2" />
      <stop offset="0.31" stop-color="#734BE9" />
      <stop offset="0.5" stop-color="#AA7EF4" />
      <stop offset="0.65" stop-color="#DEAEFF" />
    </linearGradient>
    <linearGradient id="paint25_linear_5694_27651" x1="22.0793" y1="116.102" x2="26.8395" y2="124.657"
      gradientUnits="userSpaceOnUse">
      <stop offset="0.1" stop-color="#441FDF" />
      <stop offset="0.18" stop-color="#512BE2" />
      <stop offset="0.31" stop-color="#734BE9" />
      <stop offset="0.5" stop-color="#AA7EF4" />
      <stop offset="0.65" stop-color="#DEAEFF" />
    </linearGradient>
    <linearGradient id="paint26_linear_5694_27651" x1="13.0992" y1="123.437" x2="34.7991" y2="120.538"
      gradientUnits="userSpaceOnUse">
      <stop offset="0.1" stop-color="#441FDF" />
      <stop offset="0.18" stop-color="#512BE2" />
      <stop offset="0.31" stop-color="#734BE9" />
      <stop offset="0.5" stop-color="#AA7EF4" />
      <stop offset="0.65" stop-color="#DEAEFF" />
    </linearGradient>
    <linearGradient id="paint27_linear_5694_27651" x1="12.6438" y1="123.572" x2="30.1994" y2="121.199"
      gradientUnits="userSpaceOnUse">
      <stop offset="0.1" stop-color="#441FDF" />
      <stop offset="0.18" stop-color="#512BE2" />
      <stop offset="0.31" stop-color="#734BE9" />
      <stop offset="0.5" stop-color="#AA7EF4" />
      <stop offset="0.65" stop-color="#DEAEFF" />
    </linearGradient>
    <linearGradient id="paint28_linear_5694_27651" x1="18.6296" y1="122.836" x2="19.4197" y2="122.712"
      gradientUnits="userSpaceOnUse">
      <stop offset="0.1" stop-color="#441FDF" />
      <stop offset="0.33" stop-color="#4621DF" />
      <stop offset="0.41" stop-color="#4D27E1" />
      <stop offset="0.47" stop-color="#5832E3" />
      <stop offset="0.52" stop-color="#6942E7" />
      <stop offset="0.56" stop-color="#7F56EB" />
      <stop offset="0.59" stop-color="#9B6FF1" />
      <stop offset="0.63" stop-color="#BA8DF8" />
      <stop offset="0.65" stop-color="#DEAEFF" />
    </linearGradient>
    <linearGradient id="paint29_linear_5694_27651" x1="33.1571" y1="119.464" x2="15.0673" y2="123.963"
      gradientUnits="userSpaceOnUse">
      <stop stop-color="#FFC980" />
      <stop offset="0.86" stop-color="#FF7D11" />
      <stop offset="1" stop-color="#FF7100" />
    </linearGradient>
    <linearGradient id="paint30_linear_5694_27651" x1="26.8843" y1="119.046" x2="6.11508" y2="132.223"
      gradientUnits="userSpaceOnUse">
      <stop stop-color="#FFC980" />
      <stop offset="1" stop-color="#FF7100" />
    </linearGradient>
    <linearGradient id="paint31_linear_5694_27651" x1="26.9801" y1="131.917" x2="31.7233" y2="131.251"
      gradientUnits="userSpaceOnUse">
      <stop stop-color="#FFC980" />
      <stop offset="1" stop-color="#FF7100" />
    </linearGradient>
    <linearGradient id="paint32_linear_5694_27651" x1="25.7965" y1="133.728" x2="28.9397" y2="130.652"
      gradientUnits="userSpaceOnUse">
      <stop stop-color="#FFC980" />
      <stop offset="1" stop-color="#FF7100" />
    </linearGradient>
    <linearGradient id="paint33_linear_5694_27651" x1="54.705" y1="118.739" x2="50.1362" y2="130.213"
      gradientUnits="userSpaceOnUse">
      <stop stop-color="#FFC980" />
      <stop offset="1" stop-color="#FF7100" />
    </linearGradient>
    <linearGradient id="paint34_linear_5694_27651" x1="47.7744" y1="155.419" x2="49.8578" y2="155.419"
      gradientUnits="userSpaceOnUse">
      <stop stop-color="#3A5FBB" />
      <stop offset="1" stop-color="#2D3E89" />
    </linearGradient>
    <linearGradient id="paint35_linear_5694_27651" x1="53.7324" y1="157.008" x2="56.1898" y2="157.008"
      gradientUnits="userSpaceOnUse">
      <stop stop-color="#3A5FBB" />
      <stop offset="1" stop-color="#2D3E89" />
    </linearGradient>
    <linearGradient id="paint36_linear_5694_27651" x1="53.6085" y1="125.903" x2="55.0143" y2="177.847"
      gradientUnits="userSpaceOnUse">
      <stop offset="0.01" stop-color="#A50B61" />
      <stop offset="0.27" stop-color="#E81061" />
      <stop offset="0.49" stop-color="#ED1D6E" />
      <stop offset="0.89" stop-color="#FA3D90" />
      <stop offset="1" stop-color="#FE489B" />
    </linearGradient>
    <linearGradient id="paint37_linear_5694_27651" x1="54.1006" y1="125.476" x2="52.8635" y2="123.589"
      gradientUnits="userSpaceOnUse">
      <stop stop-color="#FFD0CE" />
      <stop offset="1" stop-color="#F4AAA7" />
    </linearGradient>
    <linearGradient id="paint38_linear_5694_27651" x1="53.4933" y1="121.05" x2="53.2093" y2="126.339"
      gradientUnits="userSpaceOnUse">
      <stop stop-color="#FFC980" />
      <stop offset="1" stop-color="#FF7100" />
    </linearGradient>
    <linearGradient id="paint39_linear_5694_27651" x1="52.1465" y1="123.238" x2="52.3883" y2="123.238"
      gradientUnits="userSpaceOnUse">
      <stop stop-color="#FFD0CE" />
      <stop offset="1" stop-color="#F4AAA7" />
    </linearGradient>
    <linearGradient id="paint40_linear_5694_27651" x1="30.6855" y1="144.673" x2="62.0123" y2="144.673"
      gradientUnits="userSpaceOnUse">
      <stop stop-color="#2020B8" />
      <stop offset="0.21" stop-color="#272DC3" />
      <stop offset="0.61" stop-color="#384FDE" />
      <stop offset="1" stop-color="#4C77FF" />
    </linearGradient>
    <linearGradient id="paint41_linear_5694_27651" x1="18.0238" y1="137.204" x2="64.7392" y2="172.884"
      gradientUnits="userSpaceOnUse">
      <stop stop-color="#C4F1FF" />
      <stop offset="1" stop-color="#2D38CC" />
    </linearGradient>
    <linearGradient id="paint42_linear_5694_27651" x1="26.6313" y1="165.811" x2="99.9211" y2="130.103"
      gradientUnits="userSpaceOnUse">
      <stop stop-color="#2020B8" />
      <stop offset="0.21" stop-color="#272DC3" />
      <stop offset="0.61" stop-color="#384FDE" />
      <stop offset="1" stop-color="#4C77FF" />
    </linearGradient>
    <clipPath id="clip0_5694_27651">
      <rect width="92.6953" height="164" fill="white" />
    </clipPath>
  </defs>
</svg>