<svg width="60" height="60" viewBox="0 0 60 60" fill="none" xmlns="http://www.w3.org/2000/svg">
<mask id="mask0_5536_3422" style="mask-type:luminance" maskUnits="userSpaceOnUse" x="6" y="0" width="48" height="47">
<path d="M53.4637 0.0473633H6.53638V46.9747H53.4637V0.0473633Z" fill="white"/>
</mask>
<g mask="url(#mask0_5536_3422)">
<path fill-rule="evenodd" clip-rule="evenodd" d="M23.9541 8.24691C21.8226 8.24691 20.0947 10.0113 20.0947 12.1877V34.6458C20.0947 37.1003 21.6007 38.6475 23.7652 38.6475H35.6128C36.311 38.6475 37.0028 38.5152 37.6518 38.2575C42.4924 36.3353 42.8048 29.4625 38.1594 27.0908L40.6251 22.0554C49.5482 26.6109 48.9481 39.8124 39.6501 43.5044C38.3644 44.0149 36.9935 44.2772 35.61 44.2772H24.0138C18.3683 44.2772 14.5811 40.3953 14.5811 34.6458V12.1877C14.5811 6.9021 18.7776 2.61719 23.9541 2.61719H27.2623C33.6569 2.61719 38.8408 7.91026 38.8408 14.4396C38.8408 16.4281 38.3364 18.3841 37.3745 20.1244L29.4678 34.4303H22.8514L32.6024 17.1933C33.0776 16.3533 33.3273 15.4047 33.3273 14.4396C33.3273 11.0195 30.6119 8.24691 27.2623 8.24691H23.9541Z" fill="#ED6D44"/>
</g>
<path d="M25.3619 54.1869C25.3619 55.0249 25.0379 55.5277 24.2334 55.7512V55.7958C25.1273 56.0528 25.5742 56.6562 25.5742 57.5947C25.5742 59.0584 24.8815 59.8405 22.5798 59.8405H19.5742V52.0863H22.334C24.658 52.0863 25.3619 52.7567 25.3619 54.1869ZM21.5519 58.2651H22.2334C23.2949 58.2651 23.5742 58.1087 23.5742 57.4495C23.5742 56.8014 23.2837 56.6003 22.2334 56.6003H21.5519V58.2651ZM21.5519 55.2037H22.0435C23.0379 55.2037 23.3954 55.0472 23.3954 54.4104C23.3954 53.74 23.0602 53.6506 22.0435 53.6506H21.5519V55.2037ZM31.8332 58.0752H28.8053L28.2019 59.8405H26.1461L29.0176 52.0863H31.6768L34.5259 59.8405H32.4254L31.8332 58.0752ZM29.3528 56.4662H31.2969L30.403 53.7958H30.269L29.3528 56.4662ZM35.1075 59.6841V57.9746C35.3645 58.0528 35.6997 58.131 36.1019 58.1869C36.5153 58.2428 36.8952 58.2763 37.2528 58.2763C38.2248 58.2763 38.4483 58.0975 38.4483 57.5053C38.4483 57.0249 38.2695 56.8349 37.1969 56.5891C35.4651 56.1646 35.1187 55.7623 35.0852 54.321C35.0852 52.6562 36.1019 51.9746 38.0237 51.9746C38.817 51.9746 39.4762 52.064 40.0237 52.2539V53.8517C39.8449 53.7847 39.5544 53.7288 39.1634 53.6729C38.7723 53.6171 38.4148 53.5836 38.1131 53.5836C37.3086 53.5836 36.9958 53.7623 36.9958 54.2539C36.9958 54.6897 37.1634 54.7903 38.2137 55.0584C40.1354 55.5836 40.3924 56.0305 40.4259 57.5612C40.4259 59.159 39.5544 59.9523 37.3533 59.9523C36.5377 59.9523 35.6885 59.8294 35.1075 59.6841Z" fill="#ED6D44"/>
</svg>
