<svg width="52" height="52" viewBox="0 0 52 52" fill="none" xmlns="http://www.w3.org/2000/svg">
  <g clip-path="url(#clip0_5944_14417)">
    <path
      d="M4.875 12.1875C4.48568 11.2734 3.94401 10.4694 3.25 9.77539C2.55599 9.08138 1.74349 8.53125 0.8125 8.125C1.72656 7.73568 2.5306 7.19401 3.22461 6.5C3.91862 5.80599 4.46875 4.99349 4.875 4.0625C5.26432 4.97656 5.80599 5.7806 6.5 6.47461C7.19401 7.16862 8.00651 7.71875 8.9375 8.125C8.02344 8.51432 7.2194 9.05599 6.52539 9.75C5.83138 10.444 5.28125 11.2565 4.875 12.1875ZM47.125 13.8125C47.5143 14.7266 48.056 15.5306 48.75 16.2246C49.444 16.9186 50.2565 17.4688 51.1875 17.875C50.2734 18.2643 49.4694 18.806 48.7754 19.5C48.0814 20.194 47.5312 21.0065 47.125 21.9375C46.7357 21.0234 46.194 20.2194 45.5 19.5254C44.806 18.8314 43.9935 18.2812 43.0625 17.875C43.9766 17.4857 44.7806 16.944 45.4746 16.25C46.1686 15.556 46.7188 14.7435 47.125 13.8125ZM37.375 16.25C36.5794 14.4049 35.4876 12.7884 34.0996 11.4004C32.7116 10.0124 31.0951 8.92057 29.25 8.125C31.0951 7.32943 32.7116 6.23763 34.0996 4.84961C35.4876 3.46159 36.5794 1.84505 37.375 0C38.1706 1.84505 39.2624 3.46159 40.6504 4.84961C42.0384 6.23763 43.6549 7.32943 45.5 8.125C43.6549 8.92057 42.0384 10.0124 40.6504 11.4004C39.2624 12.7884 38.1706 14.4049 37.375 16.25ZM37.375 4.92578C36.4271 6.1276 35.3607 7.19401 34.1758 8.125C35.3607 9.07292 36.4271 10.1393 37.375 11.3242C38.306 10.1393 39.3724 9.07292 40.5742 8.125C39.3724 7.19401 38.306 6.1276 37.375 4.92578ZM18.9668 19.9316C18.1712 19.9316 17.4264 19.7708 16.7324 19.4492C16.0384 19.1276 15.4206 18.679 14.8789 18.1035C14.3372 17.528 13.931 16.8848 13.6602 16.1738C13.3893 15.4629 13.237 14.7096 13.2031 13.9141C13.2031 12.9154 13.4062 11.9844 13.8125 11.1211C14.2188 10.2578 14.7773 9.49609 15.4883 8.83594C16.1992 8.17578 16.9948 7.65951 17.875 7.28711C18.7552 6.91471 19.7031 6.72005 20.7188 6.70312C22.1406 6.70312 23.4017 6.99935 24.502 7.5918C25.6022 8.18424 26.5417 8.97982 27.3203 9.97852C28.099 10.9772 28.6745 12.0944 29.0469 13.3301C29.4193 14.5658 29.6224 15.8438 29.6562 17.1641C29.6562 18.9414 29.3685 20.6003 28.793 22.1406C28.2174 23.681 27.4303 25.0944 26.4316 26.3809C25.4329 27.6673 24.2396 28.7845 22.8516 29.7324C21.4635 30.6803 19.9909 31.5013 18.4336 32.1953C18.2812 32.263 18.0866 32.2969 17.8496 32.2969C17.4603 32.2969 17.1302 32.1615 16.8594 31.8906C16.5885 31.6198 16.4531 31.2812 16.4531 30.875C16.4531 30.2656 16.7409 29.8255 17.3164 29.5547C18.6029 28.9453 19.7878 28.2936 20.8711 27.5996C21.9544 26.9056 22.9108 26.1016 23.7402 25.1875C24.5697 24.2734 25.2383 23.2409 25.7461 22.0898C26.2539 20.9388 26.5924 19.6016 26.7617 18.0781C26.7786 17.9089 26.7871 17.748 26.7871 17.5957C26.7871 17.4434 26.7956 17.2741 26.8125 17.0879C26.8125 16.2077 26.6855 15.319 26.4316 14.4219C26.1777 13.5247 25.7969 12.7122 25.2891 11.9844C24.7812 11.2565 24.1465 10.6725 23.3848 10.2324C22.623 9.79232 21.7344 9.5638 20.7188 9.54688C20.1432 9.54688 19.5762 9.6569 19.0176 9.87695C18.459 10.097 17.9596 10.4102 17.5195 10.8164C17.0794 11.2227 16.724 11.6797 16.4531 12.1875C16.1823 12.6953 16.0469 13.2708 16.0469 13.9141C16.0469 14.3034 16.123 14.6842 16.2754 15.0566C16.4277 15.429 16.6309 15.7676 16.8848 16.0723C17.1387 16.377 17.4518 16.6224 17.8242 16.8086C18.1966 16.9948 18.5859 17.0879 18.9922 17.0879C19.3984 17.0879 19.7201 17.0286 19.957 16.9102C20.194 16.7917 20.3887 16.6224 20.541 16.4023C20.6934 16.1823 20.8118 15.9707 20.8965 15.7676C20.9811 15.5645 21.0827 15.3529 21.2012 15.1328C21.3197 14.9128 21.4635 14.752 21.6328 14.6504C21.8021 14.5488 22.0475 14.4811 22.3691 14.4473C22.7585 14.4473 23.097 14.5911 23.3848 14.8789C23.6725 15.1667 23.8164 15.5052 23.8164 15.8945C23.8164 15.9792 23.7995 16.0892 23.7656 16.2246C23.6302 16.7663 23.4102 17.2656 23.1055 17.7227C22.8008 18.1797 22.4284 18.569 21.9883 18.8906C21.5482 19.2122 21.0827 19.4661 20.5918 19.6523C20.1009 19.8385 19.5592 19.9316 18.9668 19.9316ZM41.3105 22.75L48.2676 29.7324L45.9824 32.0176L42.25 28.3105V52H6.5V28.3105L2.76758 32.0176L0.482422 29.7324L7.43945 22.75H21.5312C20.9388 23.444 20.2871 24.0534 19.5762 24.5781C18.8652 25.1029 18.0951 25.5768 17.2656 26H9.75V48.75H39V26H30.5957C30.8835 25.4753 31.1458 24.9421 31.3828 24.4004C31.6198 23.8587 31.8314 23.3086 32.0176 22.75H41.3105Z"
      fill="black" fill-opacity="0.4" />
  </g>
  <defs>
    <clipPath id="clip0_5944_14417">
      <rect width="52" height="52" fill="white" />
    </clipPath>
  </defs>
</svg>