<svg width="60" height="60" viewBox="0 0 60 60" fill="none" xmlns="http://www.w3.org/2000/svg">
<g clip-path="url(#clip0_5661_14771)">
<mask id="mask0_5661_14771" style="mask-type:alpha" maskUnits="userSpaceOnUse" x="2" y="15" width="56" height="30">
<path d="M44.146 30.8984C45.6349 29.0999 46.66 27.9396 47.2208 27.4174C48.6326 26.1024 49.9572 25.4448 51.1949 25.4448C51.7365 25.4448 52.1909 25.6189 52.5584 25.967C52.9451 26.2957 53.1386 26.7309 53.1386 27.2724C53.1386 28.1813 52.4906 29.506 51.1949 31.2465C49.9185 32.9677 49.2804 34.157 49.2804 34.8145C49.2804 35.2787 49.5029 35.5108 49.9477 35.5108C50.489 35.5108 51.3014 35.0079 52.3844 34.0023C53.2351 33.2288 54.2216 32.1845 55.3432 30.8694C55.498 30.676 56.1942 29.8348 57.4317 28.3457L57.809 28.5197C57.0161 29.506 56.2231 30.4923 55.4302 31.4786C54.27 32.8517 53.2351 33.9056 52.3263 34.6405C51.1079 35.6268 50.025 36.1199 49.0775 36.1199C48.4391 36.1199 47.917 35.9556 47.5108 35.6268C47.124 35.2787 46.9308 34.7855 46.9308 34.1474C46.9308 33.2964 47.3367 32.3005 48.1491 31.1595C49.9091 28.6841 50.7887 27.253 50.7887 26.8663C50.7887 26.6922 50.7115 26.5472 50.5569 26.4311C50.4215 26.2957 50.2571 26.2281 50.0636 26.2281C48.9807 26.2281 47.3851 27.5431 45.2774 30.1732C43.5755 32.3005 42.3088 34.1667 41.4772 35.7718L38.4893 35.8589L44.5231 25.88L47.8589 25.7639L44.146 30.9564V30.8984Z" fill="#EF6820"/>
<path d="M33.529 33.5386C32.8136 34.3315 32.1077 34.9407 31.4115 35.3662C30.5413 35.8883 29.6613 36.1494 28.7716 36.1494C28.0368 36.1494 27.4567 35.8883 27.0312 35.3662C26.6057 34.844 26.393 34.1962 26.393 33.4226C26.393 31.5661 27.2343 29.7675 28.9167 28.027C30.5994 26.2865 32.3687 25.4163 34.2252 25.4163C34.9216 25.4163 35.4919 25.5516 35.9367 25.8224C36.3816 26.0738 36.7007 26.5186 36.894 27.1568L37.4742 26.0545L40.4911 25.8804C39.8141 27.0407 39.1374 28.2011 38.4607 29.3614C37.8031 30.5218 37.1456 31.6724 36.488 32.8134C35.8497 33.9544 35.1632 35.1147 34.4284 36.2944C36.3043 35.7336 38.1123 34.67 39.853 33.1035C41.1873 31.9045 42.5797 30.2994 44.0302 28.2881L44.3201 28.4041C42.9086 30.4734 41.4484 32.1752 39.9401 33.5096C38.122 35.1147 36.1883 36.2171 34.1381 36.8166C32.7652 39.1953 31.0826 41.0518 29.0908 42.3863C26.9442 43.8367 24.5752 44.5618 21.9837 44.5618C20.5333 44.5618 19.3633 44.32 18.4737 43.8367C17.3327 43.2178 16.7622 42.2411 16.7622 40.9068C16.7622 39.9398 17.1587 39.1566 17.9516 38.5571C18.7251 37.9576 19.6147 37.6578 20.6203 37.6578C20.9684 37.6578 21.2779 37.6772 21.5486 37.7158C21.8 37.7545 22.0127 37.7835 22.1868 37.8029V38.122C21.2585 38.122 20.5333 38.3734 20.0112 38.8762C19.4697 39.3983 19.1989 40.1139 19.1989 41.0228C19.1989 41.893 19.4987 42.6279 20.0982 43.2276C20.6977 43.827 21.4326 44.1267 22.3028 44.1267C23.8499 44.1267 25.3971 43.4886 26.9442 42.2122C28.1432 41.2259 29.3905 39.8044 30.6864 37.9479C30.7442 37.8706 31.692 36.4008 33.529 33.5386ZM30.6283 35.0761C31.7112 35.0761 32.8812 34.0801 34.1381 32.0882C35.2986 30.2317 35.8789 28.7136 35.8789 27.5339C35.8789 27.0698 35.8013 26.683 35.6467 26.3735C35.4919 26.0448 35.2019 25.8804 34.7765 25.8804C33.4809 25.8804 32.2044 26.7893 30.9475 28.6072C29.7678 30.309 29.1778 31.8465 29.1778 33.2195C29.1778 33.819 29.2746 34.2832 29.4678 34.6119C29.6807 34.9214 30.0675 35.0761 30.6283 35.0761Z" fill="#EF6820"/>
<path d="M26.1589 25.8801C24.283 28.7616 23.316 30.241 23.258 30.3184C21.8269 32.639 21.1114 34.1185 21.1114 34.7567C21.1114 35.0274 21.1404 35.2208 21.1984 35.3368C21.2758 35.4335 21.3918 35.4819 21.5465 35.4819C22.4361 35.4819 23.8575 34.4859 25.8108 32.494C26.7584 31.5464 28.0154 30.1346 29.5818 28.2588L29.9299 28.4908C29.2724 29.4191 28.4603 30.4054 27.4932 31.4497C26.3136 32.7454 25.1629 33.809 24.0413 34.6406C22.7069 35.6462 21.6142 36.1491 20.7633 36.1491C20.1831 36.1491 19.6997 35.9847 19.3129 35.6559C18.9454 35.3078 18.7617 34.8534 18.7617 34.2925C18.7617 33.4996 19.3516 32.1072 20.5312 30.1153C20.5699 30.0573 21.4402 28.6939 23.142 26.0251L26.1589 25.8801ZM29.0886 21.0067C29.0886 21.4128 28.934 21.7705 28.6246 22.08C28.3151 22.3894 27.9477 22.5441 27.5223 22.5441C27.0968 22.5441 26.7294 22.4281 26.4199 22.196C26.1299 21.9446 25.9848 21.6062 25.9848 21.1807C25.9848 20.7552 26.1589 20.3878 26.507 20.0784C26.8551 19.769 27.2515 19.6143 27.6963 19.6143C28.0444 19.6143 28.3635 19.7496 28.6535 20.0204C28.9438 20.2911 29.0886 20.6199 29.0886 21.0067Z" fill="#EF6820"/>
<path d="M4.42703 27.9979C4.81382 27.9979 5.16192 28.1236 5.47134 28.375C5.80011 28.6071 5.96448 28.9165 5.96448 29.3033C5.96448 29.7674 5.78075 30.1638 5.41331 30.4926C5.06522 30.802 4.6591 30.9567 4.19496 30.9567C4.04025 31.4789 3.9629 31.9914 3.9629 32.4942C3.9629 33.6352 4.50439 34.5054 5.58736 35.1049C6.47697 35.5884 7.5406 35.8302 8.77831 35.8302C11.7565 35.8302 13.6711 34.08 14.522 30.5796C15.0635 27.3113 15.6049 24.0431 16.1464 20.7748C17.1521 17.2551 19.3277 15.4952 22.6733 15.4952C23.795 15.4952 24.7233 15.708 25.4582 16.1334C26.3864 16.6749 26.8506 17.4678 26.8506 18.5121C26.8506 19.3824 26.4928 20.0302 25.7773 20.4557C25.1971 20.8038 24.4428 20.9778 23.5146 20.9778C23.7467 20.533 23.94 20.0786 24.0948 19.6144C24.2688 19.131 24.3558 18.6668 24.3558 18.222C24.3558 17.6032 24.1721 17.0714 23.8047 16.6266C23.4372 16.1818 22.9441 15.9594 22.3252 15.9594C20.2366 15.9594 18.9506 17.7096 18.4671 21.2099C17.6355 27.147 17.1037 30.4152 16.8716 31.0148C15.5179 34.5344 12.7718 36.2943 8.63326 36.2943C6.87341 36.2943 5.37464 35.8495 4.13695 34.9599C2.74454 33.9543 2.04834 32.5909 2.04834 30.8697C2.04834 30.0962 2.2514 29.429 2.65752 28.8681C3.06363 28.288 3.65347 27.9979 4.42703 27.9979Z" fill="#EF6820"/>
</mask>
<g mask="url(#mask0_5661_14771)">
<path d="M64.9094 11.0966L-4.90234 11.7807L-1.98866 46.6872L33.3958 68.9867L29.8715 32.2747L64.9094 11.0966Z" fill="#EF6820"/>
<path d="M64.7495 11.4288L22.7322 16.1151L29.8186 45.0661H64.7495V11.4288Z" fill="#EF6820"/>
</g>
</g>
<defs>
<clipPath id="clip0_5661_14771">
<rect width="56" height="29.446" fill="white" transform="translate(2 15.277)"/>
</clipPath>
</defs>
</svg>
