<svg xmlns="http://www.w3.org/2000/svg" xmlns:xlink="http://www.w3.org/1999/xlink" fill="none" version="1.1" width="60" height="60" viewBox="0 0 60 60"><defs><clipPath id="master_svg0_0_4596"><rect x="0" y="0" width="60" height="60" rx="30"/></clipPath><clipPath id="master_svg1_0_4597"><rect x="2" y="15.276995658874512" width="56" height="29.446008682250977" rx="0"/></clipPath><mask id="master_svg2_0_4599" style="mask-type:alpha" maskUnits="userSpaceOnUse"><g><g><path d="M44.14591578076124,30.898346060838698C45.634775780761245,29.099816060838698,46.659865780761244,27.9394860608387,47.22065578076124,27.4173460608387C48.63252578076124,26.1022960608387,49.95702578076124,25.4447560608387,51.19482578076124,25.4447560608387C51.73642578076124,25.4447560608387,52.19072578076124,25.6188030608387,52.55822578076124,25.9669230608387C52.94502578076124,26.2956670608387,53.13852578076124,26.7308060608387,53.13852578076124,27.272306060838698C53.13852578076124,28.1812360608387,52.49042578076124,29.5059360608387,51.19482578076124,31.2464660608387C49.91842578076124,32.9676060608387,49.280325780761245,34.1569660608387,49.280325780761245,34.8144760608387C49.280325780761245,35.2786160608387,49.50272578076124,35.5106560608387,49.94752578076124,35.5106560608387C50.48892578076124,35.5106560608387,51.301325780761246,35.0078760608387,52.38422578076124,34.0022660608387C53.23502578076124,33.2287060608387,54.221425780761244,32.1843960608387,55.34302578076124,30.8693460608387C55.49782578076125,30.675946060838697,56.19402578076124,29.8347060608387,57.43162578076124,28.345606060838698C57.43162578076124,28.345606060838698,57.80882578076124,28.5196560608387,57.80882578076124,28.5196560608387C57.01592578076124,29.5059360608387,56.22302578076124,30.4922260608387,55.43002578076124,31.4785060608387C54.26982578076124,32.8515860608387,53.23502578076124,33.9055660608387,52.326125780761245,34.6404260608387C51.107825780761246,35.6267560608387,50.02482578076124,36.1198560608387,49.07732578076124,36.1198560608387C48.43898578076124,36.1198560608387,47.91684578076124,35.9554560608387,47.510645780761244,35.6267560608387C47.12390578076124,35.2786160608387,46.930665780761245,34.7854760608387,46.930665780761245,34.147286060838695C46.930665780761245,33.296376060838696,47.33660578076124,32.3004160608387,48.14899578076124,31.1594360608387C49.908925780761244,28.6840260608387,50.788625780761244,27.2529460608387,50.788625780761244,26.8661860608387C50.788625780761244,26.6921360608387,50.71132578076124,26.547086060838698,50.55672578076124,26.4310400608387C50.421325780761244,26.2956670608387,50.25702578076124,26.2279930608387,50.06352578076124,26.2279930608387C48.980625780761244,26.2279930608387,47.38497578076124,27.543046060838698,45.27721578076124,30.173126060838698C43.57539578076124,32.3004160608387,42.30869578076124,34.1666360608387,41.47710578076124,35.7717560608387C41.47710578076124,35.7717560608387,38.48912578076124,35.8587560608387,38.48912578076124,35.8587560608387C38.48912578076124,35.8587560608387,44.52292578076124,25.8798990608387,44.52292578076124,25.8798990608387C44.52292578076124,25.8798990608387,47.85873578076124,25.7638510608387,47.85873578076124,25.7638510608387C47.85873578076124,25.7638510608387,44.14591578076124,30.9563660608387,44.14591578076124,30.9563660608387C44.14591578076124,30.9563660608387,44.14591578076124,30.898346060838698,44.14591578076124,30.898346060838698C44.14591578076124,30.898346060838698,44.14591578076124,30.898346060838698,44.14591578076124,30.898346060838698Z" fill="#EF6820" fill-opacity="1"/></g><g><path d="M33.52882159374953,33.5386155038929C32.813421593749524,34.331535503892894,32.107521593749524,34.9406955038929,31.411321593749523,35.3661655038929C30.541021593749523,35.888355503892896,29.661121593749524,36.1493555038929,28.771421593749523,36.1493555038929C28.036621593749523,36.1493555038929,27.456421593749525,35.888355503892896,27.03102159374952,35.3661655038929C26.605561593749524,34.8439955038929,26.392841593749523,34.1961655038929,26.392841593749523,33.4225955038929C26.392841593749523,31.566055503892898,27.23412159374952,29.767535503892898,28.916521593749522,28.027015503892898C30.599221593749522,26.2865175038929,32.36852159374952,25.4162555038929,34.225021593749524,25.4162555038929C34.92142159374953,25.4162555038929,35.491721593749524,25.5516285038929,35.93652159374952,25.822373503892898C36.38142159374952,26.0737955038929,36.70052159374953,26.518585503892897,36.89382159374952,27.1567755038929C36.89382159374952,27.1567755038929,37.47402159374953,26.0544455038929,37.47402159374953,26.0544455038929C37.47402159374953,26.0544455038929,40.49092159374952,25.8803985038929,40.49092159374952,25.8803985038929C39.81392159374953,27.040725503892897,39.13722159374952,28.2010555038929,38.46042159374952,29.3614155038929C37.802921593749524,30.521745503892898,37.145421593749525,31.672405503892897,36.48782159374952,32.813405503892895C35.84952159374952,33.954415503892896,35.16302159374952,35.1147455038929,34.42822159374953,36.2944555038929C36.30412159374953,35.7335555038929,38.11212159374952,34.6699555038929,39.852821593749525,33.1035055038929C41.187121593749524,31.904475503892897,42.57952159374952,30.299345503892898,44.030021593749524,28.288105503892897C44.030021593749524,28.288105503892897,44.31992159374953,28.4041355038929,44.31992159374953,28.4041355038929C42.90842159374952,30.4733955038929,41.44822159374952,32.1752155038929,39.93982159374953,33.5096255038929C38.12182159374952,35.1147455038929,36.18812159374953,36.2170555038929,34.137921593749525,36.8165555038929C32.76502159374952,39.195255503892895,31.082421593749523,41.0517555038929,29.090621593749525,42.3862555038929C26.944021593749525,43.8367555038929,24.574971593749524,44.5618555038929,21.983561593749524,44.5618555038929C20.533131593749523,44.5618555038929,19.36313159374952,44.3199555038929,18.473521593749524,43.8367555038929C17.332537593749525,43.2178555038929,16.762021593749523,42.2411555038929,16.762021593749523,40.906755503892896C16.762021593749523,39.9398555038929,17.158490593749523,39.156555503892896,17.951381593749524,38.5570555038929C18.724941593749524,37.9575555038929,19.614521593749522,37.6578555038929,20.620161593749522,37.6578555038929C20.96825159374952,37.6578555038929,21.277671593749524,37.6771555038929,21.548421593749524,37.7158555038929C21.799841593749523,37.7545555038929,22.012561593749524,37.7835555038929,22.186601593749522,37.8028555038929C22.186601593749522,37.8028555038929,22.186601593749522,38.1219555038929,22.186601593749522,38.1219555038929C21.258351593749524,38.1219555038929,20.533131593749523,38.373355503892896,20.010971593749524,38.876155503892896C19.469471593749525,39.3983555038929,19.198731593749525,40.1138555038929,19.198731593749525,41.022755503892895C19.198731593749525,41.893055503892896,19.498501593749523,42.6278555038929,20.097991593749523,43.2275555038929C20.69750159374952,43.8269555038929,21.43239159374952,44.126755503892895,22.302631593749524,44.126755503892895C23.849751593749524,44.126755503892895,25.396881593749523,43.4886555038929,26.944021593749525,42.2121555038929C28.143021593749523,41.2258555038929,29.390321593749523,39.804455503892896,30.686221593749522,37.947855503892896C30.744021593749522,37.8705555038929,31.691821593749523,36.400755503892896,33.52882159374953,33.5386155038929C33.52882159374953,33.5386155038929,33.52882159374953,33.5386155038929,33.52882159374953,33.5386155038929ZM30.628121593749523,35.0760655038929C31.71102159374952,35.0760655038929,32.88102159374952,34.0801155038929,34.137921593749525,32.0881955038929C35.298421593749524,30.2316555038929,35.878721593749525,28.7135555038929,35.878721593749525,27.533865503892898C35.878721593749525,27.0697555038929,35.80112159374953,26.6829555038929,35.646521593749526,26.373540503892897C35.491721593749524,26.0447705038929,35.201721593749525,25.8803985038929,34.77632159374952,25.8803985038929C33.48072159374952,25.8803985038929,32.20422159374952,26.7893355038929,30.947221593749525,28.607175503892897C29.767621593749524,30.309025503892897,29.17762159374952,31.846475503892897,29.17762159374952,33.219525503892896C29.17762159374952,33.819045503892895,29.274321593749523,34.283185503892895,29.467621593749524,34.6119255038929C29.680521593749525,34.921345503892894,30.067321593749526,35.0760655038929,30.628121593749523,35.0760655038929C30.628121593749523,35.0760655038929,30.628121593749523,35.0760655038929,30.628121593749523,35.0760655038929Z" fill="#EF6820" fill-opacity="1"/></g><g><path d="M26.158736718261242,25.880081656999586C24.282876718261242,28.76158165699959,23.315916718261242,30.240961656999588,23.25788671826124,30.31836165699959C21.82681671826124,32.63906165699959,21.11127671826124,34.118461656999585,21.11127671826124,34.75666165699959C21.11127671826124,35.02736165699959,21.14027671826124,35.220761656999585,21.198296718261243,35.33686165699959C21.275646718261243,35.433561656999586,21.391696718261244,35.481861656999584,21.546386718261243,35.481861656999584C22.436006718261243,35.481861656999584,23.85740671826124,34.48596165699959,25.810646718261243,32.49396165699959C26.758256718261244,31.546361656999586,28.015286718261244,30.13466165699959,29.581686718261242,28.25877165699959C29.581686718261242,28.25877165699959,29.92978671826124,28.49084165699959,29.92978671826124,28.49084165699959C29.272286718261242,29.419101656999587,28.460126718261243,30.405361656999588,27.49311671826124,31.449661656999588C26.313466718261243,32.74546165699959,25.16277671826124,33.80906165699959,24.041126718261243,34.64066165699959C22.706746718261243,35.646261656999584,21.61408671826124,36.14906165699959,20.763176718261242,36.14906165699959C20.183016718261243,36.14906165699959,19.699522718261242,35.98466165699959,19.31275371826124,35.65596165699959C18.945309718261242,35.30786165699959,18.761586718261242,34.85336165699959,18.761586718261242,34.29256165699959C18.761586718261242,33.49966165699959,19.35142671826124,32.10726165699959,20.531106718261242,30.11536165699959C20.56977671826124,30.057261656999586,21.440046718261243,28.69389165699959,23.14186671826124,26.025131656999587C23.14186671826124,26.025131656999587,26.158736718261242,25.880081656999586,26.158736718261242,25.880081656999586C26.158736718261242,25.880081656999586,26.158736718261242,25.880081656999586,26.158736718261242,25.880081656999586ZM29.088486718261244,21.006661656999587C29.088486718261244,21.412781656999588,28.933886718261242,21.770551656999586,28.62444671826124,22.07997165699959C28.31500671826124,22.38939165699959,27.947586718261242,22.54411165699959,27.52214671826124,22.54411165699959C27.096676718261243,22.54411165699959,26.72922671826124,22.42806165699959,26.419806718261242,22.19599165699959C26.129736718261242,21.944601656999588,25.98469671826124,21.60618165699959,25.98469671826124,21.180711656999588C25.98469671826124,20.755241656999587,26.158736718261242,20.387823656999586,26.50683671826124,20.07837765699959C26.854956718261242,19.76895765699959,27.25139671826124,19.614261656999588,27.69618671826124,19.614261656999588C28.04428671826124,19.614261656999588,28.363376718261243,19.74963365699959,28.653366718261243,20.020379656999587C28.943586718261244,20.291125656999586,29.088486718261244,20.61987165699959,29.088486718261244,21.006661656999587C29.088486718261244,21.006661656999587,29.088486718261244,21.006661656999587,29.088486718261244,21.006661656999587Z" fill="#EF6820" fill-opacity="1"/></g><g><path d="M4.4269588471674926,27.99783213505745C4.813748847167492,27.99783213505745,5.161848847167492,28.12353213505745,5.471268847167492,28.37493213505745C5.800038847167492,28.60703213505745,5.964408847167492,28.91643213505745,5.964408847167492,29.30323213505745C5.964408847167492,29.76733213505745,5.780678847167492,30.163832135057447,5.4132388471674915,30.49263213505745C5.065148847167492,30.802032135057452,4.659028847167492,30.95673213505745,4.194888847167492,30.95673213505745C4.040178847167492,31.47883213505745,3.9628288471674917,31.991332135057448,3.9628288471674917,32.49413213505745C3.9628288471674917,33.63513213505745,4.504318847167491,34.50543213505745,5.587288847167492,35.10493213505745C6.476898847167492,35.588432135057445,7.540528847167492,35.830132135057454,8.778238847167492,35.830132135057454C11.756438847167493,35.830132135057454,13.670968847167492,34.07993213505745,14.521868847167491,30.57963213505745C15.063368847167492,27.311332135057448,15.604868847167491,24.043042135057448,16.146368847167494,20.77477213505745C17.151968847167492,17.25508213505745,19.32766884716749,15.49523213505745,22.673268847167492,15.49523213505745C23.794968847167492,15.49523213505745,24.723168847167493,15.70796213505745,25.458068847167493,16.13341713505745C26.386368847167493,16.67491213505745,26.85046884716749,17.46781213505745,26.85046884716749,18.51211213505745C26.85046884716749,19.382372135057448,26.492768847167493,20.03021213505745,25.77716884716749,20.45568213505745C25.196968847167494,20.80377213505745,24.442768847167493,20.97782213505745,23.514468847167493,20.97782213505745C23.74656884716749,20.53303213505745,23.939968847167492,20.07856213505745,24.09466884716749,19.61442213505745C24.268768847167493,19.13095213505745,24.355768847167493,18.666812135057448,24.355768847167493,18.22201213505745C24.355768847167493,17.603182135057448,24.17206884716749,17.07136213505745,23.80456884716749,16.626562135057448C23.43716884716749,16.18176613505745,22.943968847167493,15.95936713505745,22.325168847167493,15.95936713505745C20.236568847167494,15.95936713505745,18.950468847167492,17.70954213505745,18.467068847167493,21.20989213505745C17.63546884716749,27.146932135057448,17.10366884716749,30.41523213505745,16.87156884716749,31.01473213505745C15.517868847167492,34.53443213505745,12.771668847167492,36.294332135057445,8.633188847167492,36.294332135057445C6.873338847167492,36.294332135057445,5.374568847167492,35.84943213505745,4.136878847167492,34.95993213505745C2.744470847167492,33.95423213505745,2.048268847167492,32.590832135057454,2.048268847167492,30.869732135057447C2.048268847167492,30.09613213505745,2.251327847167492,29.42893213505745,2.657444847167492,28.86813213505745C3.063558847167492,28.28793213505745,3.653398847167492,27.99783213505745,4.4269588471674926,27.99783213505745C4.4269588471674926,27.99783213505745,4.4269588471674926,27.99783213505745,4.4269588471674926,27.99783213505745Z" fill="#EF6820" fill-opacity="1"/></g></g></mask></defs><g clip-path="url(#master_svg0_0_4596)"><rect x="0" y="0" width="60" height="60" rx="30" fill="#FAFAFA" fill-opacity="1"/><g clip-path="url(#master_svg1_0_4597)"><g mask="url(#master_svg2_0_4599)"><g><g><path d="M64.90926617993117,11.09660866856575C64.90926617993117,11.09660866856575,-4.902433820068836,11.78078166856575,-4.902433820068836,11.78078166856575C-4.902433820068836,11.78078166856575,-1.9887538200688364,46.68720866856575,-1.9887538200688364,46.68720866856575C-1.9887538200688364,46.68720866856575,33.395766179931165,68.98680866856574,33.395766179931165,68.98680866856574C33.395766179931165,68.98680866856574,29.87146617993116,32.27470866856575,29.87146617993116,32.27470866856575C29.87146617993116,32.27470866856575,64.90926617993117,11.09660866856575,64.90926617993117,11.09660866856575C64.90926617993117,11.09660866856575,64.90926617993117,11.09660866856575,64.90926617993117,11.09660866856575Z" fill="#EF6820" fill-opacity="1"/></g><g><path d="M64.74942199658156,11.428849309682846C64.74942199658156,11.428849309682846,22.732121996581554,16.115159309682845,22.732121996581554,16.115159309682845C22.732121996581554,16.115159309682845,29.818591996581553,45.066049309682846,29.818591996581553,45.066049309682846C29.818591996581553,45.066049309682846,64.74942199658156,45.066049309682846,64.74942199658156,45.066049309682846C64.74942199658156,45.066049309682846,64.74942199658156,11.428849309682846,64.74942199658156,11.428849309682846C64.74942199658156,11.428849309682846,64.74942199658156,11.428849309682846,64.74942199658156,11.428849309682846Z" fill="#EF6820" fill-opacity="1"/></g></g></g></g><rect x="0.25" y="0.25" width="59.5" height="59.5" rx="29.75" fill-opacity="0" stroke-opacity="1" stroke="#DFE0E0" fill="none" stroke-width="0.5"/></g></svg>