<svg width="20" height="20" viewBox="0 0 20 20" fill="none" xmlns="http://www.w3.org/2000/svg">
<g clip-path="url(#clip0_1560_4515)">
<path d="M10 0.833008L16.8475 2.35467C17.2283 2.43967 17.5 2.77717 17.5 3.16801V11.4905C17.5 13.1622 16.6642 14.7238 15.2733 15.6505L10 19.1663L4.72667 15.6505C3.335 14.723 2.5 13.1622 2.5 11.4913V3.16801C2.5 2.77717 2.77167 2.43967 3.1525 2.35467L10 0.833008ZM10 2.54051L4.16667 3.83634V11.4905C4.16667 12.6047 4.72333 13.6455 5.65083 14.2638L10 17.1638L14.3492 14.2638C15.2767 13.6455 15.8333 12.6055 15.8333 11.4913V3.83634L10 2.54051ZM13.71 6.85134L14.8892 8.02967L9.58583 13.333L6.05 9.79717L7.22833 8.61884L9.585 10.9755L13.71 6.85051V6.85134Z" fill="#2EC57C"/>
</g>
<defs>
<clipPath id="clip0_1560_4515">
<rect width="20" height="20" fill="white"/>
</clipPath>
</defs>
</svg>
