<svg width="28" height="28" viewBox="0 0 28 28" fill="none" xmlns="http://www.w3.org/2000/svg">
<path d="M22.75 3.71875H5.25C4.84389 3.71875 4.45441 3.88008 4.16724 4.16724C3.88008 4.45441 3.71875 4.84389 3.71875 5.25V22.75C3.71875 23.1561 3.88008 23.5456 4.16724 23.8328C4.45441 24.1199 4.84389 24.2812 5.25 24.2812H22.75C23.1561 24.2812 23.5456 24.1199 23.8328 23.8328C24.1199 23.5456 24.2812 23.1561 24.2812 22.75V5.25C24.2812 4.84389 24.1199 4.45441 23.8328 4.16724C23.5456 3.88008 23.1561 3.71875 22.75 3.71875ZM22.9688 22.75C22.9688 22.808 22.9457 22.8637 22.9047 22.9047C22.8637 22.9457 22.808 22.9688 22.75 22.9688H5.25C5.19198 22.9688 5.13634 22.9457 5.09532 22.9047C5.0543 22.8637 5.03125 22.808 5.03125 22.75V5.25C5.03125 5.19198 5.0543 5.13634 5.09532 5.09532C5.13634 5.0543 5.19198 5.03125 5.25 5.03125H22.75C22.808 5.03125 22.8637 5.0543 22.9047 5.09532C22.9457 5.13634 22.9688 5.19198 22.9688 5.25V22.75ZM17.2812 16.1875C17.2812 16.9263 17.0612 17.6483 16.6491 18.2615C16.2371 18.8747 15.6517 19.3513 14.9677 19.6305C14.2837 19.9096 13.532 19.9787 12.8086 19.829C12.0852 19.6792 11.4227 19.3173 10.9058 18.7895C10.8455 18.7279 10.798 18.655 10.7659 18.575C10.7338 18.4951 10.7178 18.4095 10.7188 18.3234C10.7197 18.2372 10.7377 18.152 10.7715 18.0728C10.8054 17.9935 10.8546 17.9217 10.9162 17.8615C10.9778 17.8012 11.0507 17.7537 11.1307 17.7216C11.2106 17.6895 11.2962 17.6735 11.3823 17.6745C11.4685 17.6754 11.5537 17.6934 11.6329 17.7272C11.7122 17.7611 11.784 17.8103 11.8442 17.8719C12.1219 18.1552 12.4654 18.3655 12.844 18.4839C13.2226 18.6024 13.6247 18.6254 14.0144 18.551C14.4041 18.4765 14.7693 18.3068 15.0775 18.057C15.3858 17.8073 15.6275 17.4852 15.7811 17.1194C15.9347 16.7536 15.9956 16.3555 15.9581 15.9606C15.9207 15.5656 15.7862 15.186 15.5666 14.8556C15.347 14.5252 15.0491 14.2542 14.6995 14.0667C14.3498 13.8793 13.9592 13.7812 13.5625 13.7812C13.4424 13.7813 13.3246 13.7485 13.2219 13.6862C13.1192 13.624 13.0356 13.5348 12.9801 13.4283C12.9246 13.3218 12.8994 13.2022 12.9072 13.0823C12.915 12.9625 12.9555 12.8471 13.0244 12.7487L15.365 9.40625H11.375C11.201 9.40625 11.034 9.33711 10.911 9.21404C10.7879 9.09097 10.7188 8.92405 10.7188 8.75C10.7188 8.57595 10.7879 8.40903 10.911 8.28596C11.034 8.16289 11.201 8.09375 11.375 8.09375H16.625C16.7451 8.09367 16.8629 8.12653 16.9656 8.18877C17.0683 8.251 17.1519 8.34021 17.2074 8.44669C17.2629 8.55317 17.2881 8.67284 17.2803 8.79266C17.2725 8.91249 17.232 9.02787 17.1631 9.12625L14.6989 12.6459C15.4484 12.8875 16.1021 13.3605 16.566 13.9968C17.03 14.6331 17.2804 15.4 17.2812 16.1875Z" fill="black"/>
</svg>
