<svg width="28" height="28" viewBox="0 0 28 28" fill="none" xmlns="http://www.w3.org/2000/svg">
<path d="M22.75 3.71875H5.25C4.84389 3.71875 4.45441 3.88008 4.16724 4.16724C3.88008 4.45441 3.71875 4.84389 3.71875 5.25V22.75C3.71875 23.1561 3.88008 23.5456 4.16724 23.8328C4.45441 24.1199 4.84389 24.2812 5.25 24.2812H22.75C23.1561 24.2812 23.5456 24.1199 23.8328 23.8328C24.1199 23.5456 24.2812 23.1561 24.2812 22.75V5.25C24.2812 4.84389 24.1199 4.45441 23.8328 4.16724C23.5456 3.88008 23.1561 3.71875 22.75 3.71875ZM22.9688 22.75C22.9688 22.808 22.9457 22.8637 22.9047 22.9047C22.8637 22.9457 22.808 22.9688 22.75 22.9688H5.25C5.19198 22.9688 5.13634 22.9457 5.09532 22.9047C5.0543 22.8637 5.03125 22.808 5.03125 22.75V5.25C5.03125 5.19198 5.0543 5.13634 5.09532 5.09532C5.13634 5.0543 5.19198 5.03125 5.25 5.03125H22.75C22.808 5.03125 22.8637 5.0543 22.9047 5.09532C22.9457 5.13634 22.9688 5.19198 22.9688 5.25V22.75ZM17.2812 19.25C17.2812 19.424 17.2121 19.591 17.089 19.714C16.966 19.8371 16.799 19.9062 16.625 19.9062H11.375C11.2531 19.9062 11.1337 19.8723 11.03 19.8082C10.9263 19.7442 10.8425 19.6525 10.788 19.5435C10.7335 19.4345 10.7105 19.3124 10.7214 19.1911C10.7323 19.0697 10.7769 18.9537 10.85 18.8562L15.5717 12.5606C15.7411 12.3337 15.8595 12.0729 15.9188 11.7961C15.9782 11.5192 15.9772 11.2328 15.9158 10.9564C15.8544 10.68 15.7341 10.4201 15.5631 10.1944C15.3922 9.96866 15.1745 9.7825 14.925 9.64858C14.6756 9.51465 14.4001 9.43612 14.1175 9.41833C13.835 9.40054 13.5519 9.44392 13.2876 9.5455C13.0233 9.64708 12.784 9.80448 12.586 10.007C12.3881 10.2094 12.2362 10.4522 12.1406 10.7188C12.1134 10.8019 12.0699 10.8788 12.0126 10.945C11.9552 11.0111 11.8852 11.065 11.8067 11.1037C11.7282 11.1423 11.6428 11.1649 11.5554 11.1701C11.468 11.1752 11.3805 11.1628 11.298 11.1336C11.2155 11.1045 11.1397 11.0591 11.075 11.0001C11.0103 10.9412 10.958 10.8699 10.9212 10.7905C10.8845 10.7111 10.864 10.6251 10.861 10.5377C10.8579 10.4502 10.8724 10.363 10.9036 10.2812C11.0635 9.83794 11.3171 9.43429 11.647 9.09776C11.9769 8.76123 12.3755 8.49972 12.8155 8.33102C13.2556 8.16231 13.7268 8.09038 14.1971 8.12011C14.6675 8.14984 15.1259 8.28054 15.5412 8.50332C15.9565 8.72609 16.3189 9.03571 16.6038 9.41111C16.8887 9.7865 17.0894 10.2189 17.1923 10.6788C17.2951 11.1387 17.2977 11.6154 17.1998 12.0764C17.1019 12.5374 16.9059 12.9719 16.625 13.3503L12.6875 18.5938H16.625C16.799 18.5938 16.966 18.6629 17.089 18.786C17.2121 18.909 17.2812 19.076 17.2812 19.25Z" fill="black"/>
</svg>
