<svg width="28" height="28" viewBox="0 0 28 28" fill="none" xmlns="http://www.w3.org/2000/svg">
<path d="M22.75 3.71875H5.25C4.84389 3.71875 4.45441 3.88008 4.16724 4.16724C3.88008 4.45441 3.71875 4.84389 3.71875 5.25V22.75C3.71875 23.1561 3.88008 23.5456 4.16724 23.8328C4.45441 24.1199 4.84389 24.2812 5.25 24.2812H22.75C23.1561 24.2812 23.5456 24.1199 23.8328 23.8328C24.1199 23.5456 24.2812 23.1561 24.2812 22.75V5.25C24.2812 4.84389 24.1199 4.45441 23.8328 4.16724C23.5456 3.88008 23.1561 3.71875 22.75 3.71875ZM22.9688 22.75C22.9688 22.808 22.9457 22.8637 22.9047 22.9047C22.8637 22.9457 22.808 22.9688 22.75 22.9688H5.25C5.19198 22.9688 5.13634 22.9457 5.09532 22.9047C5.0543 22.8637 5.03125 22.808 5.03125 22.75V5.25C5.03125 5.19198 5.0543 5.13634 5.09532 5.09532C5.13634 5.0543 5.19198 5.03125 5.25 5.03125H22.75C22.808 5.03125 22.8637 5.0543 22.9047 5.09532C22.9457 5.13634 22.9688 5.19198 22.9688 5.25V22.75ZM15.0938 8.75V19.25C15.0938 19.424 15.0246 19.591 14.9015 19.714C14.7785 19.8371 14.6115 19.9062 14.4375 19.9062C14.2635 19.9062 14.0965 19.8371 13.9735 19.714C13.8504 19.591 13.7812 19.424 13.7812 19.25V9.97609L12.1767 11.0469C12.0317 11.1435 11.8542 11.1785 11.6833 11.1442C11.5125 11.11 11.3622 11.0093 11.2656 10.8642C11.169 10.7192 11.134 10.5417 11.1683 10.3708C11.2025 10.2 11.3032 10.0497 11.4483 9.95312L14.0733 8.20312C14.1722 8.13714 14.2871 8.09927 14.4059 8.09354C14.5246 8.08781 14.6427 8.11445 14.7475 8.1706C14.8523 8.22676 14.9398 8.31032 15.0008 8.41237C15.0618 8.51442 15.0939 8.63112 15.0938 8.75Z" fill="black"/>
</svg>
