<svg width="60" height="60" viewBox="0 0 60 60" fill="none" xmlns="http://www.w3.org/2000/svg">
<g clip-path="url(#clip0_3034_9768)">
<g filter="url(#filter0_d_3034_9768)">
<path d="M42.3721 40.6998C48.766 40.6998 53.9493 35.486 53.9493 29.0543C53.9493 22.6227 48.766 17.4089 42.3721 17.4089C35.9782 17.4089 30.7949 22.6227 30.7949 29.0543C30.7949 35.486 35.9782 40.6998 42.3721 40.6998Z" stroke="#6A7C89" stroke-width="0.4" stroke-linecap="round" stroke-linejoin="round" shape-rendering="crispEdges"/>
</g>
<g filter="url(#filter1_d_3034_9768)">
<path d="M19.2237 40.6998C25.6176 40.6998 30.8008 35.486 30.8008 29.0543C30.8008 22.6227 25.6176 17.4089 19.2237 17.4089C12.8298 17.4089 7.64648 22.6227 7.64648 29.0543C7.64648 35.486 12.8298 40.6998 19.2237 40.6998Z" stroke="#6A7C89" stroke-width="0.4" stroke-linecap="round" stroke-linejoin="round" shape-rendering="crispEdges"/>
</g>
<path d="M29.9955 57.9044C45.4037 57.9044 57.8944 45.4137 57.8944 30.0056C57.8944 14.5975 45.4037 2.10672 29.9955 2.10672C14.5874 2.10672 2.09668 14.5975 2.09668 30.0056C2.09668 45.4137 14.5874 57.9044 29.9955 57.9044Z" stroke="#6A7C89" stroke-width="0.2" stroke-linecap="round" stroke-linejoin="round" stroke-dasharray="12.47 13.95 12.47 13.95 12.47 13.95"/>
<path d="M29.9954 56.1982C44.4612 56.1982 56.188 44.4714 56.188 30.0056C56.188 15.5398 44.4612 3.81296 29.9954 3.81296C15.5296 3.81296 3.80273 15.5398 3.80273 30.0056C3.80273 44.4714 15.5296 56.1982 29.9954 56.1982Z" stroke="#6A7C89" stroke-width="0.4" stroke-linecap="round" stroke-linejoin="round"/>
<path d="M39.3726 52.6275C51.8694 47.4512 57.8037 33.1243 52.6274 20.6275C47.4511 8.13072 33.1242 2.1963 20.6274 7.37263C8.13063 12.549 2.19626 26.8759 7.37259 39.3726C12.5489 51.8694 26.8758 57.8038 39.3726 52.6275Z" stroke="#6A7C89" stroke-width="0.2" stroke-linecap="round" stroke-linejoin="round" stroke-dasharray="12.46 13.93 12.46 13.93 12.46 13.93"/>
<path d="M4.0498 26.3792C21.0033 31.2339 38.9788 31.2339 55.9323 26.3792" stroke="#6A7C89" stroke-width="0.4" stroke-linecap="round" stroke-linejoin="round"/>
<path d="M6.40048 28.6118C7.62412 27.3092 7.56009 25.2613 6.25751 24.0377C4.95493 22.814 2.90701 22.878 1.68338 24.1806C0.459743 25.4832 0.523744 27.5311 1.82633 28.7548C3.12891 29.9784 5.17685 29.9144 6.40048 28.6118Z" fill="white"/>
<path d="M6.40048 28.6118C7.62412 27.3092 7.56009 25.2613 6.25751 24.0377C4.95493 22.814 2.90701 22.878 1.68338 24.1806C0.459743 25.4832 0.523744 27.5311 1.82633 28.7548C3.12891 29.9784 5.17685 29.9144 6.40048 28.6118Z" stroke="#6A7C89" stroke-width="0.2" stroke-linecap="round" stroke-linejoin="round"/>
<path d="M56.5152 29.607C58.2593 29.2168 59.3568 27.4867 58.9666 25.7426C58.5764 23.9985 56.8463 22.9009 55.1023 23.2911C53.3582 23.6813 52.2606 25.4114 52.6508 27.1555C53.041 28.8996 54.7711 29.9971 56.5152 29.607Z" fill="white"/>
<path d="M56.5152 29.607C58.2593 29.2168 59.3568 27.4867 58.9666 25.7426C58.5764 23.9985 56.8463 22.9009 55.1023 23.2911C53.3582 23.6813 52.2606 25.4114 52.6508 27.1555C53.041 28.8996 54.7711 29.9971 56.5152 29.607Z" stroke="#6A7C89" stroke-width="0.2" stroke-linecap="round" stroke-linejoin="round"/>
<path d="M29.9971 3.80771L23.1133 17.8213H36.8809L29.9971 3.80771Z" stroke="#6A7C89" stroke-width="0.2" stroke-linecap="round" stroke-linejoin="round"/>
<path d="M29.9971 12.7774L23.1133 26.791H36.8809L29.9971 12.7774Z" stroke="#6A7C89" stroke-width="0.4" stroke-linecap="round" stroke-linejoin="round"/>
<path d="M29.9971 47.2656L36.8809 33.2574H23.1133L29.9971 47.2656Z" stroke="#6A7C89" stroke-width="0.4" stroke-linecap="round" stroke-linejoin="round"/>
<path d="M29.9971 56.2357L36.8809 42.2274H23.1133L29.9971 56.2357Z" stroke="#6A7C89" stroke-width="0.2" stroke-linecap="round" stroke-linejoin="round"/>
<path d="M27.5215 42.2274H32.4797L29.9979 47.2659L27.5215 42.2274Z" stroke="#6A7C89" stroke-width="0.2" stroke-linecap="round" stroke-linejoin="round"/>
<path d="M29.9979 12.7774L27.5215 17.8213L32.4797 17.8266L31.2388 15.302L29.9979 12.7774Z" stroke="#6A7C89" stroke-width="0.2" stroke-linecap="round" stroke-linejoin="round"/>
<path d="M29.9971 3.80771V12.7775" stroke="#6A7C89" stroke-width="0.2" stroke-linecap="round" stroke-linejoin="round"/>
<path d="M29.9971 47.0145V55.979" stroke="#6A7C89" stroke-width="0.2" stroke-linecap="round" stroke-linejoin="round"/>
<path d="M30.0621 47.0952C39.4869 47.0952 47.1271 39.4427 47.1271 30.0028C47.1271 20.563 39.4869 12.9105 30.0621 12.9105C20.6373 12.9105 12.9971 20.563 12.9971 30.0028C12.9971 39.4427 20.6373 47.0952 30.0621 47.0952Z" stroke="#6A7C89" stroke-width="0.2" stroke-linecap="round" stroke-linejoin="round" stroke-dasharray="12.6 14.16 12.6 14.16 12.6 14.16"/>
<path d="M4.06073 28.7729C5.32505 28.7729 6.34998 27.748 6.34998 26.4837C6.34998 25.2194 5.32505 24.1944 4.06073 24.1944C2.79642 24.1944 1.77148 25.2194 1.77148 26.4837C1.77148 27.748 2.79642 28.7729 4.06073 28.7729Z" fill="#0A1214" stroke="#0A1214" stroke-width="0.4" stroke-linecap="round" stroke-linejoin="round"/>
<path d="M55.9484 28.7729C57.2127 28.7729 58.2377 27.748 58.2377 26.4837C58.2377 25.2194 57.2127 24.1944 55.9484 24.1944C54.6841 24.1944 53.6592 25.2194 53.6592 26.4837C53.6592 27.748 54.6841 28.7729 55.9484 28.7729Z" fill="#0A1214" stroke="#0A1214" stroke-width="0.4" stroke-linecap="round" stroke-linejoin="round"/>
<path d="M31.074 56.276C31.074 56.0644 31.0113 55.8576 30.8938 55.6817C30.7762 55.5058 30.6091 55.3687 30.4137 55.2877C30.2182 55.2068 30.0031 55.1855 29.7956 55.2268C29.5881 55.268 29.3975 55.3699 29.2479 55.5195C29.0983 55.6691 28.9964 55.8598 28.9551 56.0673C28.9138 56.2748 28.935 56.4899 29.016 56.6854C29.097 56.8809 29.2341 57.0479 29.41 57.1654C29.5859 57.283 29.7927 57.3457 30.0043 57.3457C30.288 57.3457 30.5601 57.2331 30.7607 57.0325C30.9614 56.8319 31.074 56.5597 31.074 56.276Z" fill="#0A1214" stroke="#0A1214" stroke-linecap="round" stroke-linejoin="round"/>
<path d="M31.074 3.91245C31.074 3.70088 31.0113 3.49395 30.8938 3.31804C30.7762 3.14212 30.6091 3.00503 30.4137 2.92406C30.2182 2.8431 30.0031 2.82194 29.7956 2.86321C29.5881 2.90449 29.3975 3.00637 29.2479 3.15598C29.0983 3.30559 28.9964 3.49614 28.9551 3.70365C28.9138 3.91116 28.935 4.12636 29.016 4.32183C29.097 4.5173 29.2341 4.68431 29.41 4.80186C29.5859 4.9194 29.7927 4.98219 30.0043 4.98219C30.288 4.98219 30.5601 4.86941 30.7607 4.66879C30.9614 4.46818 31.074 4.19617 31.074 3.91245Z" fill="#0A1214" stroke="#0A1214" stroke-linecap="round" stroke-linejoin="round"/>
<path d="M42.2058 30C42.2058 36.7421 36.7402 42.2077 29.9981 42.2077C23.256 42.2077 17.7904 36.7421 17.7904 30C17.7904 23.2579 23.256 17.7923 29.9981 17.7923C36.7402 17.7923 42.2058 23.2579 42.2058 30Z" fill="url(#paint0_linear_3034_9768)" stroke="#6A7C89" stroke-width="0.2"/>
<path fill-rule="evenodd" clip-rule="evenodd" d="M27.1576 33.0281H25.6206H25.0762V24.0922H31.9278C33.9647 24.0922 35.3684 25.1708 36.1591 26.6879C36.564 27.483 36.8055 28.3469 36.8702 29.2316C36.9394 30.1212 36.8402 31.0155 36.5776 31.8705C36.0406 33.6124 34.798 35.0451 32.8444 35.374C32.2054 35.4551 31.5602 35.4791 30.9167 35.4459C30.7315 35.4459 30.5334 35.4459 30.1501 35.4459V34.3835C30.3038 34.3835 30.6241 34.3835 30.9334 34.3943C31.5093 34.423 32.0868 34.4032 32.6592 34.335C34.1407 34.0833 35.1054 32.9526 35.5313 31.5721C35.7508 30.8403 35.8311 30.0758 35.7684 29.3161C35.7153 28.5715 35.5127 27.8442 35.1721 27.1751C34.5592 26.0031 33.4722 25.16 31.9167 25.16H26.1706V31.9711H27.1576V33.0281Z" fill="#0A1214"/>
<path fill-rule="evenodd" clip-rule="evenodd" d="M25.1357 34.3786L27.756 34.3929V26.9131H28.8504V35.4427L28.3041 35.4481L25.1394 35.4374L25.1357 34.3786Z" fill="#0A1214"/>
<path fill-rule="evenodd" clip-rule="evenodd" d="M27.756 26.5392H31.6448C31.654 26.5392 34.2965 26.7189 34.3039 29.836C34.3039 32.8919 32.191 32.9818 31.4374 33.016H31.3818C31.0559 33.0321 29.2337 33.0303 27.7505 33.0249V31.9662C29.2152 31.9662 31.0059 31.9662 31.3263 31.9662H31.3837C31.8651 31.9446 33.2151 31.8835 33.2114 29.845C33.2114 27.855 31.7762 27.6303 31.5837 27.6087H27.7505L27.756 26.5392Z" fill="#0A1214"/>
</g>
<defs>
<filter id="filter0_d_3034_9768" x="26.5947" y="17.2089" width="31.5547" height="31.6909" filterUnits="userSpaceOnUse" color-interpolation-filters="sRGB">
<feFlood flood-opacity="0" result="BackgroundImageFix"/>
<feColorMatrix in="SourceAlpha" type="matrix" values="0 0 0 0 0 0 0 0 0 0 0 0 0 0 0 0 0 0 127 0" result="hardAlpha"/>
<feOffset dy="4"/>
<feGaussianBlur stdDeviation="2"/>
<feComposite in2="hardAlpha" operator="out"/>
<feColorMatrix type="matrix" values="0 0 0 0 0 0 0 0 0 0 0 0 0 0 0 0 0 0 0.25 0"/>
<feBlend mode="normal" in2="BackgroundImageFix" result="effect1_dropShadow_3034_9768"/>
<feBlend mode="normal" in="SourceGraphic" in2="effect1_dropShadow_3034_9768" result="shape"/>
</filter>
<filter id="filter1_d_3034_9768" x="3.44629" y="17.2089" width="31.5547" height="31.6909" filterUnits="userSpaceOnUse" color-interpolation-filters="sRGB">
<feFlood flood-opacity="0" result="BackgroundImageFix"/>
<feColorMatrix in="SourceAlpha" type="matrix" values="0 0 0 0 0 0 0 0 0 0 0 0 0 0 0 0 0 0 127 0" result="hardAlpha"/>
<feOffset dy="4"/>
<feGaussianBlur stdDeviation="2"/>
<feComposite in2="hardAlpha" operator="out"/>
<feColorMatrix type="matrix" values="0 0 0 0 0 0 0 0 0 0 0 0 0 0 0 0 0 0 0.25 0"/>
<feBlend mode="normal" in2="BackgroundImageFix" result="effect1_dropShadow_3034_9768"/>
<feBlend mode="normal" in="SourceGraphic" in2="effect1_dropShadow_3034_9768" result="shape"/>
</filter>
<linearGradient id="paint0_linear_3034_9768" x1="29.9981" y1="17.6923" x2="29.9981" y2="42.3077" gradientUnits="userSpaceOnUse">
<stop stop-color="#78E1FB"/>
<stop offset="1" stop-color="#70FFBD"/>
</linearGradient>
<clipPath id="clip0_3034_9768">
<rect width="60" height="60" fill="white"/>
</clipPath>
</defs>
</svg>
