<svg width="128" height="128" viewBox="0 0 128 128" fill="none" xmlns="http://www.w3.org/2000/svg">
  <rect width="128" height="128" rx="7" fill="url(#paint0_linear_1927_6559)" />
  <path
    d="M30.3423 47.3636V59H28.7287L22.8139 50.4659H22.706V59H20.9503V47.3636H22.5753L28.4957 55.9091H28.6037V47.3636H30.3423ZM36.4432 59.1761C35.625 59.1761 34.911 58.9886 34.3011 58.6136C33.6913 58.2386 33.2178 57.714 32.8807 57.0398C32.5436 56.3655 32.375 55.5777 32.375 54.6761C32.375 53.7708 32.5436 52.9792 32.8807 52.3011C33.2178 51.6231 33.6913 51.0966 34.3011 50.7216C34.911 50.3466 35.625 50.1591 36.4432 50.1591C37.2614 50.1591 37.9754 50.3466 38.5852 50.7216C39.1951 51.0966 39.6686 51.6231 40.0057 52.3011C40.3428 52.9792 40.5114 53.7708 40.5114 54.6761C40.5114 55.5777 40.3428 56.3655 40.0057 57.0398C39.6686 57.714 39.1951 58.2386 38.5852 58.6136C37.9754 58.9886 37.2614 59.1761 36.4432 59.1761ZM36.4489 57.75C36.9792 57.75 37.4186 57.6098 37.767 57.3295C38.1155 57.0492 38.3731 56.6761 38.5398 56.2102C38.7102 55.7443 38.7955 55.2311 38.7955 54.6705C38.7955 54.1136 38.7102 53.6023 38.5398 53.1364C38.3731 52.6667 38.1155 52.2898 37.767 52.0057C37.4186 51.7216 36.9792 51.5795 36.4489 51.5795C35.9148 51.5795 35.4716 51.7216 35.1193 52.0057C34.7708 52.2898 34.5114 52.6667 34.3409 53.1364C34.1742 53.6023 34.0909 54.1136 34.0909 54.6705C34.0909 55.2311 34.1742 55.7443 34.3409 56.2102C34.5114 56.6761 34.7708 57.0492 35.1193 57.3295C35.4716 57.6098 35.9148 57.75 36.4489 57.75ZM46.4815 50.2727V51.6364H41.7145V50.2727H46.4815ZM42.9929 48.1818H44.6918V56.4375C44.6918 56.767 44.741 57.0152 44.8395 57.1818C44.938 57.3447 45.0649 57.4564 45.2202 57.517C45.3793 57.5739 45.5516 57.6023 45.7372 57.6023C45.8736 57.6023 45.9929 57.5928 46.0952 57.5739C46.1974 57.5549 46.277 57.5398 46.3338 57.5284L46.6406 58.9318C46.5421 58.9697 46.402 59.0076 46.2202 59.0455C46.0384 59.0871 45.8111 59.1098 45.5384 59.1136C45.0914 59.1212 44.6747 59.0417 44.2884 58.875C43.902 58.7083 43.5895 58.4508 43.3509 58.1023C43.1122 57.7538 42.9929 57.3163 42.9929 56.7898V48.1818ZM56.2713 59.1761C55.4266 59.1761 54.6993 58.9848 54.0895 58.6023C53.4834 58.2159 53.0175 57.6837 52.6918 57.0057C52.366 56.3277 52.2031 55.5511 52.2031 54.6761C52.2031 53.7898 52.3698 53.0076 52.7031 52.3295C53.0365 51.6477 53.5062 51.1155 54.1122 50.733C54.7183 50.3504 55.4323 50.1591 56.2543 50.1591C56.9171 50.1591 57.508 50.2822 58.027 50.5284C58.5459 50.7708 58.9645 51.1117 59.2827 51.5511C59.6046 51.9905 59.7959 52.5038 59.8565 53.0909H58.2031C58.1122 52.6818 57.9039 52.3295 57.5781 52.0341C57.2562 51.7386 56.8243 51.5909 56.2827 51.5909C55.8092 51.5909 55.3944 51.7159 55.0384 51.9659C54.6861 52.2121 54.4115 52.5644 54.2145 53.0227C54.0175 53.4773 53.919 54.0152 53.919 54.6364C53.919 55.2727 54.0156 55.822 54.2088 56.2841C54.402 56.7462 54.6747 57.1042 55.027 57.358C55.383 57.6117 55.8016 57.7386 56.2827 57.7386C56.6046 57.7386 56.8963 57.6799 57.1577 57.5625C57.4228 57.4413 57.6444 57.2689 57.8224 57.0455C58.0043 56.822 58.1312 56.553 58.2031 56.2386H59.8565C59.7959 56.803 59.6122 57.3068 59.3054 57.75C58.9986 58.1932 58.5876 58.5417 58.0724 58.7955C57.5611 59.0492 56.9607 59.1761 56.2713 59.1761ZM63.3722 53.8182V59H61.6733V47.3636H63.3494V51.6932H63.4574C63.6619 51.2235 63.9744 50.8504 64.3949 50.5739C64.8153 50.2973 65.3646 50.1591 66.0426 50.1591C66.6411 50.1591 67.1638 50.2822 67.6108 50.5284C68.0616 50.7746 68.41 51.142 68.6562 51.6307C68.9062 52.1155 69.0312 52.7216 69.0312 53.4489V59H67.3324V53.6534C67.3324 53.0133 67.1676 52.517 66.8381 52.1648C66.5085 51.8087 66.0502 51.6307 65.4631 51.6307C65.0616 51.6307 64.7017 51.7159 64.3835 51.8864C64.0691 52.0568 63.821 52.3068 63.6392 52.6364C63.4612 52.9621 63.3722 53.3561 63.3722 53.8182ZM74.9744 59.1761C74.1563 59.1761 73.4422 58.9886 72.8324 58.6136C72.2225 58.2386 71.7491 57.714 71.4119 57.0398C71.0748 56.3655 70.9062 55.5777 70.9062 54.6761C70.9062 53.7708 71.0748 52.9792 71.4119 52.3011C71.7491 51.6231 72.2225 51.0966 72.8324 50.7216C73.4422 50.3466 74.1563 50.1591 74.9744 50.1591C75.7926 50.1591 76.5066 50.3466 77.1165 50.7216C77.7263 51.0966 78.1998 51.6231 78.5369 52.3011C78.8741 52.9792 79.0426 53.7708 79.0426 54.6761C79.0426 55.5777 78.8741 56.3655 78.5369 57.0398C78.1998 57.714 77.7263 58.2386 77.1165 58.6136C76.5066 58.9886 75.7926 59.1761 74.9744 59.1761ZM74.9801 57.75C75.5104 57.75 75.9498 57.6098 76.2983 57.3295C76.6468 57.0492 76.9044 56.6761 77.071 56.2102C77.2415 55.7443 77.3267 55.2311 77.3267 54.6705C77.3267 54.1136 77.2415 53.6023 77.071 53.1364C76.9044 52.6667 76.6468 52.2898 76.2983 52.0057C75.9498 51.7216 75.5104 51.5795 74.9801 51.5795C74.446 51.5795 74.0028 51.7216 73.6506 52.0057C73.3021 52.2898 73.0426 52.6667 72.8722 53.1364C72.7055 53.6023 72.6222 54.1136 72.6222 54.6705C72.6222 55.2311 72.7055 55.7443 72.8722 56.2102C73.0426 56.6761 73.3021 57.0492 73.6506 57.3295C74.0028 57.6098 74.446 57.75 74.9801 57.75ZM87.4787 52.4034L85.9389 52.6761C85.8745 52.4792 85.7723 52.2917 85.6321 52.1136C85.4957 51.9356 85.3101 51.7898 85.0753 51.6761C84.8404 51.5625 84.5469 51.5057 84.1946 51.5057C83.7135 51.5057 83.312 51.6136 82.9901 51.8295C82.6681 52.0417 82.5071 52.3163 82.5071 52.6534C82.5071 52.9451 82.6151 53.1799 82.831 53.358C83.0469 53.536 83.3954 53.6818 83.8764 53.7955L85.2628 54.1136C86.0658 54.2992 86.6643 54.5852 87.0582 54.9716C87.4522 55.358 87.6491 55.8598 87.6491 56.4773C87.6491 57 87.4976 57.4659 87.1946 57.875C86.8954 58.2803 86.4768 58.5985 85.9389 58.8295C85.4048 59.0606 84.7855 59.1761 84.081 59.1761C83.1037 59.1761 82.3063 58.9678 81.6889 58.5511C81.0715 58.1307 80.6927 57.5341 80.5526 56.7614L82.1946 56.5114C82.2969 56.9394 82.5071 57.2633 82.8253 57.483C83.1435 57.6989 83.5582 57.8068 84.0696 57.8068C84.6264 57.8068 85.0715 57.6913 85.4048 57.4602C85.7382 57.2254 85.9048 56.9394 85.9048 56.6023C85.9048 56.3295 85.8026 56.1004 85.598 55.9148C85.3973 55.7292 85.0885 55.589 84.6719 55.4943L83.1946 55.1705C82.3802 54.9848 81.7779 54.6894 81.3878 54.2841C81.0014 53.8788 80.8082 53.3655 80.8082 52.7443C80.8082 52.2292 80.9522 51.7784 81.2401 51.392C81.5279 51.0057 81.9257 50.7045 82.4332 50.4886C82.9408 50.2689 83.5223 50.1591 84.1776 50.1591C85.1207 50.1591 85.8632 50.3636 86.4048 50.7727C86.9465 51.178 87.3045 51.7216 87.4787 52.4034ZM93.2784 59.1761C92.4186 59.1761 91.678 58.9924 91.0568 58.625C90.4394 58.2538 89.9621 57.733 89.625 57.0625C89.2917 56.3883 89.125 55.5985 89.125 54.6932C89.125 53.7992 89.2917 53.0114 89.625 52.3295C89.9621 51.6477 90.4318 51.1155 91.0341 50.733C91.6402 50.3504 92.3485 50.1591 93.1591 50.1591C93.6515 50.1591 94.1288 50.2405 94.5909 50.4034C95.053 50.5663 95.4678 50.822 95.8352 51.1705C96.2027 51.5189 96.4924 51.9716 96.7045 52.5284C96.9167 53.0814 97.0227 53.7538 97.0227 54.5455V55.1477H90.0852V53.875H95.358C95.358 53.428 95.267 53.0322 95.0852 52.6875C94.9034 52.339 94.6477 52.0644 94.3182 51.8636C93.9924 51.6629 93.6098 51.5625 93.1705 51.5625C92.6932 51.5625 92.2765 51.6799 91.9205 51.9148C91.5682 52.1458 91.2955 52.4489 91.1023 52.8239C90.9129 53.1951 90.8182 53.5985 90.8182 54.0341V55.0284C90.8182 55.6117 90.9205 56.108 91.125 56.517C91.3333 56.9261 91.6231 57.2386 91.9943 57.4545C92.3655 57.6667 92.7992 57.7727 93.2955 57.7727C93.6174 57.7727 93.911 57.7273 94.1761 57.6364C94.4413 57.5417 94.6705 57.4015 94.8636 57.2159C95.0568 57.0303 95.2045 56.8011 95.3068 56.5284L96.9148 56.8182C96.786 57.2917 96.5549 57.7064 96.2216 58.0625C95.892 58.4148 95.4773 58.6894 94.9773 58.8864C94.4811 59.0795 93.9148 59.1761 93.2784 59.1761ZM100.607 53.8182V59H98.9077V50.2727H100.538V51.6932H100.646C100.847 51.2311 101.161 50.8598 101.589 50.5795C102.021 50.2992 102.565 50.1591 103.22 50.1591C103.815 50.1591 104.336 50.2841 104.783 50.5341C105.23 50.7803 105.576 51.1477 105.822 51.6364C106.069 52.125 106.192 52.7292 106.192 53.4489V59H104.493V53.6534C104.493 53.0208 104.328 52.5265 103.999 52.1705C103.669 51.8106 103.216 51.6307 102.641 51.6307C102.247 51.6307 101.896 51.7159 101.589 51.8864C101.286 52.0568 101.046 52.3068 100.868 52.6364C100.694 52.9621 100.607 53.3561 100.607 53.8182ZM21.8608 81V72.2727H23.5597V81H21.8608ZM22.7188 70.9261C22.4233 70.9261 22.1695 70.8277 21.9574 70.6307C21.7491 70.4299 21.6449 70.1913 21.6449 69.9148C21.6449 69.6345 21.7491 69.3958 21.9574 69.1989C22.1695 68.9981 22.4233 68.8977 22.7188 68.8977C23.0142 68.8977 23.2661 68.9981 23.4744 69.1989C23.6866 69.3958 23.7926 69.6345 23.7926 69.9148C23.7926 70.1913 23.6866 70.4299 23.4744 70.6307C23.2661 70.8277 23.0142 70.9261 22.7188 70.9261ZM27.544 75.8182V81H25.8452V72.2727H27.4759V73.6932H27.5838C27.7846 73.2311 28.099 72.8598 28.527 72.5795C28.9588 72.2992 29.5024 72.1591 30.1577 72.1591C30.7524 72.1591 31.2732 72.2841 31.7202 72.5341C32.1671 72.7803 32.5137 73.1477 32.7599 73.6364C33.0062 74.125 33.1293 74.7292 33.1293 75.4489V81H31.4304V75.6534C31.4304 75.0208 31.2656 74.5265 30.9361 74.1705C30.6065 73.8106 30.1539 73.6307 29.5781 73.6307C29.1842 73.6307 28.8338 73.7159 28.527 73.8864C28.224 74.0568 27.9834 74.3068 27.8054 74.6364C27.6312 74.9621 27.544 75.3561 27.544 75.8182ZM43.7159 72.2727V73.6364H38.9489V72.2727H43.7159ZM40.2273 70.1818H41.9261V78.4375C41.9261 78.767 41.9754 79.0152 42.0739 79.1818C42.1723 79.3447 42.2992 79.4564 42.4545 79.517C42.6136 79.5739 42.786 79.6023 42.9716 79.6023C43.108 79.6023 43.2273 79.5928 43.3295 79.5739C43.4318 79.5549 43.5114 79.5398 43.5682 79.5284L43.875 80.9318C43.7765 80.9697 43.6364 81.0076 43.4545 81.0455C43.2727 81.0871 43.0455 81.1098 42.7727 81.1136C42.3258 81.1212 41.9091 81.0417 41.5227 80.875C41.1364 80.7083 40.8239 80.4508 40.5852 80.1023C40.3466 79.7538 40.2273 79.3163 40.2273 78.7898V70.1818ZM47.4815 75.8182V81H45.7827V69.3636H47.4588V73.6932H47.5668C47.7713 73.2235 48.0838 72.8504 48.5043 72.5739C48.9247 72.2973 49.474 72.1591 50.152 72.1591C50.7505 72.1591 51.2732 72.2822 51.7202 72.5284C52.1709 72.7746 52.5194 73.142 52.7656 73.6307C53.0156 74.1155 53.1406 74.7216 53.1406 75.4489V81H51.4418V75.6534C51.4418 75.0133 51.277 74.517 50.9474 74.1648C50.6179 73.8087 50.1596 73.6307 49.5724 73.6307C49.1709 73.6307 48.8111 73.7159 48.4929 73.8864C48.1785 74.0568 47.9304 74.3068 47.7486 74.6364C47.5705 74.9621 47.4815 75.3561 47.4815 75.8182ZM59.169 81.1761C58.3092 81.1761 57.5687 80.9924 56.9474 80.625C56.33 80.2538 55.8527 79.733 55.5156 79.0625C55.1823 78.3883 55.0156 77.5985 55.0156 76.6932C55.0156 75.7992 55.1823 75.0114 55.5156 74.3295C55.8527 73.6477 56.3224 73.1155 56.9247 72.733C57.5308 72.3504 58.2391 72.1591 59.0497 72.1591C59.5421 72.1591 60.0194 72.2405 60.4815 72.4034C60.9437 72.5663 61.3584 72.822 61.7259 73.1705C62.0933 73.5189 62.383 73.9716 62.5952 74.5284C62.8073 75.0814 62.9134 75.7538 62.9134 76.5455V77.1477H55.9759V75.875H61.2486C61.2486 75.428 61.1577 75.0322 60.9759 74.6875C60.794 74.339 60.5384 74.0644 60.2088 73.8636C59.883 73.6629 59.5005 73.5625 59.0611 73.5625C58.5838 73.5625 58.1671 73.6799 57.8111 73.9148C57.4588 74.1458 57.1861 74.4489 56.9929 74.8239C56.8035 75.1951 56.7088 75.5985 56.7088 76.0341V77.0284C56.7088 77.6117 56.8111 78.108 57.0156 78.517C57.224 78.9261 57.5137 79.2386 57.8849 79.4545C58.2562 79.6667 58.6899 79.7727 59.1861 79.7727C59.508 79.7727 59.8016 79.7273 60.0668 79.6364C60.3319 79.5417 60.5611 79.4015 60.7543 79.2159C60.9474 79.0303 61.0952 78.8011 61.1974 78.5284L62.8054 78.8182C62.6766 79.2917 62.4455 79.7064 62.1122 80.0625C61.7827 80.4148 61.3679 80.6894 60.8679 80.8864C60.3717 81.0795 59.8054 81.1761 59.169 81.1761ZM72.2997 81.1705C71.5952 81.1705 70.9664 80.9905 70.4134 80.6307C69.8641 80.267 69.4323 79.75 69.1179 79.0795C68.8073 78.4053 68.652 77.5966 68.652 76.6534C68.652 75.7102 68.8092 74.9034 69.1236 74.233C69.4418 73.5625 69.8774 73.0492 70.4304 72.6932C70.9834 72.3371 71.6103 72.1591 72.3111 72.1591C72.8527 72.1591 73.2884 72.25 73.6179 72.4318C73.9512 72.6098 74.2088 72.8182 74.3906 73.0568C74.5762 73.2955 74.7202 73.5057 74.8224 73.6875H74.9247V69.3636H76.6236V81H74.9645V79.642H74.8224C74.7202 79.8277 74.5724 80.0398 74.3793 80.2784C74.1899 80.517 73.9285 80.7254 73.5952 80.9034C73.2618 81.0814 72.83 81.1705 72.2997 81.1705ZM72.6747 79.7216C73.1634 79.7216 73.5762 79.5928 73.9134 79.3352C74.2543 79.0739 74.5118 78.7121 74.6861 78.25C74.8641 77.7879 74.9531 77.25 74.9531 76.6364C74.9531 76.0303 74.866 75.5 74.6918 75.0455C74.5175 74.5909 74.2618 74.2367 73.9247 73.983C73.5876 73.7292 73.1709 73.6023 72.6747 73.6023C72.1634 73.6023 71.7372 73.7348 71.3963 74C71.0554 74.2652 70.7978 74.6269 70.6236 75.0852C70.4531 75.5436 70.3679 76.0606 70.3679 76.6364C70.3679 77.2197 70.455 77.7443 70.6293 78.2102C70.8035 78.6761 71.0611 79.0455 71.402 79.3182C71.7467 79.5871 72.1709 79.7216 72.6747 79.7216ZM79.0483 81V72.2727H80.6903V73.6591H80.7812C80.9403 73.1894 81.2206 72.8201 81.6222 72.5511C82.0275 72.2784 82.4858 72.142 82.9972 72.142C83.1032 72.142 83.2282 72.1458 83.3722 72.1534C83.5199 72.161 83.6354 72.1705 83.7188 72.1818V73.8068C83.6506 73.7879 83.5294 73.767 83.3551 73.7443C83.1809 73.7178 83.0066 73.7045 82.8324 73.7045C82.4309 73.7045 82.0729 73.7898 81.7585 73.9602C81.4479 74.1269 81.2017 74.3598 81.0199 74.6591C80.8381 74.9545 80.7472 75.2917 80.7472 75.6705V81H79.0483ZM87.6506 81.1932C87.0975 81.1932 86.5975 81.0909 86.1506 80.8864C85.7036 80.678 85.3494 80.3769 85.0881 79.983C84.8305 79.589 84.7017 79.1061 84.7017 78.5341C84.7017 78.0417 84.7964 77.6364 84.9858 77.3182C85.1752 77 85.4309 76.7481 85.7528 76.5625C86.0748 76.3769 86.4347 76.2367 86.8324 76.142C87.2301 76.0473 87.6354 75.9754 88.0483 75.9261C88.571 75.8655 88.9953 75.8163 89.321 75.7784C89.6468 75.7367 89.8835 75.6705 90.0312 75.5795C90.179 75.4886 90.2528 75.3409 90.2528 75.1364V75.0966C90.2528 74.6004 90.1127 74.2159 89.8324 73.9432C89.5559 73.6705 89.143 73.5341 88.5938 73.5341C88.0218 73.5341 87.571 73.661 87.2415 73.9148C86.9157 74.1648 86.6903 74.4432 86.5653 74.75L84.9688 74.3864C85.1581 73.8561 85.4347 73.428 85.7983 73.1023C86.1657 72.7727 86.5881 72.5341 87.0653 72.3864C87.5426 72.2348 88.0445 72.1591 88.571 72.1591C88.9195 72.1591 89.2888 72.2008 89.679 72.2841C90.0729 72.3636 90.4403 72.5114 90.7812 72.7273C91.1259 72.9432 91.4081 73.2519 91.6278 73.6534C91.8475 74.0511 91.9574 74.5682 91.9574 75.2045V81H90.2983V79.8068H90.2301C90.1203 80.0265 89.9555 80.2424 89.7358 80.4545C89.5161 80.6667 89.2339 80.8428 88.8892 80.983C88.5445 81.1231 88.1316 81.1932 87.6506 81.1932ZM88.0199 79.8295C88.4896 79.8295 88.8911 79.7367 89.2244 79.5511C89.5616 79.3655 89.8172 79.1231 89.9915 78.8239C90.1695 78.5208 90.2585 78.197 90.2585 77.8523V76.7273C90.1979 76.7879 90.0805 76.8447 89.9062 76.8977C89.7358 76.947 89.5407 76.9905 89.321 77.0284C89.1013 77.0625 88.8873 77.0947 88.679 77.125C88.4706 77.1515 88.2964 77.1742 88.1562 77.1932C87.8267 77.2348 87.5256 77.3049 87.2528 77.4034C86.9839 77.5019 86.768 77.6439 86.6051 77.8295C86.446 78.0114 86.3665 78.2538 86.3665 78.5568C86.3665 78.9773 86.5218 79.2955 86.8324 79.5114C87.143 79.7235 87.5388 79.8295 88.0199 79.8295ZM96.1122 81L93.544 72.2727H95.2997L97.0099 78.6818H97.0952L98.8111 72.2727H100.567L102.271 78.6534H102.357L104.055 72.2727H105.811L103.249 81H101.516L99.7429 74.6989H99.6122L97.8395 81H96.1122Z"
    fill="white" />
  <defs>
    <linearGradient id="paint0_linear_1927_6559" x1="1.82293e-06" y1="35.0573" x2="87.7866" y2="149.156"
      gradientUnits="userSpaceOnUse">
      <stop stop-color="#86E3CE" />
      <stop offset="1" stop-color="#CCABD8" stop-opacity="0.8" />
    </linearGradient>
  </defs>
</svg>