<svg width="60" height="60" viewBox="0 0 60 60" fill="none" xmlns="http://www.w3.org/2000/svg">
<path d="M37.3668 9.46666C37.3668 13.5351 34.0686 16.8333 30.0001 16.8333C25.9316 16.8333 22.6334 13.5351 22.6334 9.46666C22.6334 5.39816 25.9316 2.1 30.0001 2.1C34.0686 2.1 37.3668 5.39816 37.3668 9.46666Z" fill="#34DBFF" stroke="#0A1214" stroke-width="0.2"/>
<rect width="7.09333" height="7.09332" transform="translate(26.4531 5.91992)" fill="white" style="mix-blend-mode:multiply"/>
<path d="M29.9432 9.46664C29.9432 9.43534 29.9685 9.40997 29.9998 9.40997C30.0311 9.40997 30.0565 9.43534 30.0565 9.46664C30.0565 9.49794 30.0311 9.52331 29.9998 9.52331C29.9685 9.52331 29.9432 9.49794 29.9432 9.46664Z" fill="#0A1214" stroke="#0A1214"/>
<path d="M37.3665 29.9999C37.3665 34.0684 34.0684 37.3665 29.9999 37.3665C25.9314 37.3665 22.6332 34.0684 22.6332 29.9999C22.6332 25.9314 25.9314 22.6332 29.9999 22.6332C34.0684 22.6332 37.3665 25.9314 37.3665 29.9999Z" fill="url(#paint0_radial_1258_8828)" stroke="#0A1214" stroke-width="0.2"/>
<path d="M30.0002 30.0002C30.7737 30.0002 31.4002 29.3737 31.4002 28.6002C31.4002 27.8267 30.7737 27.2002 30.0002 27.2002C29.2267 27.2002 28.6002 27.8267 28.6002 28.6002C28.6002 29.3737 29.2267 30.0002 30.0002 30.0002ZM30.0002 30.7002C29.0657 30.7002 27.2002 31.1692 27.2002 32.1002V32.5335C27.2002 32.6808 27.3196 32.8002 27.4669 32.8002H30.0002H32.5335C32.6808 32.8002 32.8002 32.6808 32.8002 32.5335V32.1002C32.8002 31.1692 30.9347 30.7002 30.0002 30.7002Z" fill="#0A1214"/>
<path d="M37.3665 50.5331C37.3665 54.6016 34.0684 57.8997 29.9999 57.8997C25.9314 57.8997 22.6332 54.6016 22.6332 50.5331C22.6332 46.4646 25.9314 43.1664 29.9999 43.1664C34.0684 43.1664 37.3665 46.4646 37.3665 50.5331Z" fill="#43FFA8" stroke="#0A1214" stroke-width="0.2"/>
<g clip-path="url(#clip0_1258_8828)">
<mask id="path-7-inside-1_1258_8828" fill="white">
<path d="M30.1751 49.658C30.1751 49.5188 30.2304 49.3852 30.3289 49.2868C30.4273 49.1883 30.5609 49.133 30.7001 49.133H30.7176C30.761 49.3455 30.8817 49.5343 31.0563 49.6628C31.231 49.7913 31.4471 49.8504 31.6629 49.8286C31.8786 49.8068 32.0786 49.7057 32.224 49.5448C32.3694 49.384 32.4499 49.1748 32.4499 48.958C32.4499 48.7412 32.3694 48.5321 32.224 48.3712C32.0786 48.2104 31.8786 48.1092 31.6629 48.0874C31.4471 48.0656 31.231 48.1247 31.0563 48.2533C30.8817 48.3818 30.761 48.5706 30.7176 48.783H30.7001C30.4681 48.783 30.2455 48.8752 30.0814 49.0393C29.9173 49.2034 29.8251 49.4259 29.8251 49.658V49.833H29.4751C29.3359 49.833 29.2023 49.7777 29.1039 49.6792C29.0054 49.5808 28.9501 49.4472 28.9501 49.308V48.958C28.9501 48.7259 28.8579 48.5034 28.6938 48.3393C28.5297 48.1752 28.3072 48.083 28.0751 48.083H27.9001V48.433H28.0751C28.2144 48.433 28.3479 48.4883 28.4463 48.5868C28.5448 48.6852 28.6001 48.8188 28.6001 48.958V49.308C28.6001 49.5401 28.6923 49.7626 28.8564 49.9267C29.0205 50.0908 29.243 50.183 29.4751 50.183H29.8251V51.408C29.8251 51.5472 29.7698 51.6808 29.6713 51.7792C29.5729 51.8777 29.4394 51.933 29.3001 51.933H29.2826C29.2392 51.7205 29.1185 51.5318 28.9439 51.4032C28.7692 51.2747 28.5531 51.2156 28.3373 51.2374C28.1216 51.2592 27.9216 51.3604 27.7762 51.5212C27.6308 51.6821 27.5503 51.8912 27.5503 52.108C27.5503 52.3248 27.6308 52.534 27.7762 52.6948C27.9216 52.8557 28.1216 52.9568 28.3373 52.9786C28.5531 53.0004 28.7692 52.9413 28.9439 52.8128C29.1185 52.6842 29.2392 52.4955 29.2826 52.283H29.3001C29.5322 52.283 29.7547 52.1908 29.9188 52.0267C30.0829 51.8626 30.1751 51.6401 30.1751 51.408H30.6126C30.7286 51.408 30.8399 51.4541 30.922 51.5361C31.004 51.6182 31.0501 51.7295 31.0501 51.8455C31.0506 52.0542 31.1337 52.2543 31.2813 52.4018C31.4289 52.5494 31.6289 52.6325 31.8376 52.633H32.1001V52.283H31.8376C31.7216 52.283 31.6103 52.2369 31.5283 52.1549C31.4462 52.0728 31.4001 51.9615 31.4001 51.8455C31.3997 51.6368 31.3165 51.4368 31.169 51.2892C31.0214 51.1416 30.8213 51.0585 30.6126 51.058H30.1751V49.658ZM31.5751 48.433C31.6789 48.433 31.7805 48.4638 31.8668 48.5215C31.9531 48.5792 32.0204 48.6612 32.0602 48.7571C32.0999 48.853 32.1103 48.9586 32.09 49.0604C32.0698 49.1623 32.0198 49.2558 31.9463 49.3292C31.8729 49.4027 31.7794 49.4527 31.6775 49.4729C31.5757 49.4932 31.4701 49.4828 31.3742 49.443C31.2783 49.4033 31.1963 49.336 31.1386 49.2497C31.0809 49.1633 31.0501 49.0618 31.0501 48.958C31.0501 48.8188 31.1054 48.6852 31.2039 48.5868C31.3023 48.4883 31.4359 48.433 31.5751 48.433ZM28.4251 52.633C28.3213 52.633 28.2198 52.6022 28.1334 52.5445C28.0471 52.4868 27.9798 52.4048 27.9401 52.3089C27.9003 52.213 27.8899 52.1074 27.9102 52.0056C27.9305 51.9037 27.9805 51.8102 28.0539 51.7368C28.1273 51.6634 28.2209 51.6133 28.3227 51.5931C28.4245 51.5728 28.5301 51.5832 28.626 51.623C28.722 51.6627 28.8039 51.73 28.8616 51.8163C28.9193 51.9027 28.9501 52.0042 28.9501 52.108C28.9501 52.2472 28.8948 52.3808 28.7963 52.4792C28.6979 52.5777 28.5644 52.633 28.4251 52.633Z"/>
</mask>
<path d="M30.1751 49.658C30.1751 49.5188 30.2304 49.3852 30.3289 49.2868C30.4273 49.1883 30.5609 49.133 30.7001 49.133H30.7176C30.761 49.3455 30.8817 49.5343 31.0563 49.6628C31.231 49.7913 31.4471 49.8504 31.6629 49.8286C31.8786 49.8068 32.0786 49.7057 32.224 49.5448C32.3694 49.384 32.4499 49.1748 32.4499 48.958C32.4499 48.7412 32.3694 48.5321 32.224 48.3712C32.0786 48.2104 31.8786 48.1092 31.6629 48.0874C31.4471 48.0656 31.231 48.1247 31.0563 48.2533C30.8817 48.3818 30.761 48.5706 30.7176 48.783H30.7001C30.4681 48.783 30.2455 48.8752 30.0814 49.0393C29.9173 49.2034 29.8251 49.4259 29.8251 49.658V49.833H29.4751C29.3359 49.833 29.2023 49.7777 29.1039 49.6792C29.0054 49.5808 28.9501 49.4472 28.9501 49.308V48.958C28.9501 48.7259 28.8579 48.5034 28.6938 48.3393C28.5297 48.1752 28.3072 48.083 28.0751 48.083H27.9001V48.433H28.0751C28.2144 48.433 28.3479 48.4883 28.4463 48.5868C28.5448 48.6852 28.6001 48.8188 28.6001 48.958V49.308C28.6001 49.5401 28.6923 49.7626 28.8564 49.9267C29.0205 50.0908 29.243 50.183 29.4751 50.183H29.8251V51.408C29.8251 51.5472 29.7698 51.6808 29.6713 51.7792C29.5729 51.8777 29.4394 51.933 29.3001 51.933H29.2826C29.2392 51.7205 29.1185 51.5318 28.9439 51.4032C28.7692 51.2747 28.5531 51.2156 28.3373 51.2374C28.1216 51.2592 27.9216 51.3604 27.7762 51.5212C27.6308 51.6821 27.5503 51.8912 27.5503 52.108C27.5503 52.3248 27.6308 52.534 27.7762 52.6948C27.9216 52.8557 28.1216 52.9568 28.3373 52.9786C28.5531 53.0004 28.7692 52.9413 28.9439 52.8128C29.1185 52.6842 29.2392 52.4955 29.2826 52.283H29.3001C29.5322 52.283 29.7547 52.1908 29.9188 52.0267C30.0829 51.8626 30.1751 51.6401 30.1751 51.408H30.6126C30.7286 51.408 30.8399 51.4541 30.922 51.5361C31.004 51.6182 31.0501 51.7295 31.0501 51.8455C31.0506 52.0542 31.1337 52.2543 31.2813 52.4018C31.4289 52.5494 31.6289 52.6325 31.8376 52.633H32.1001V52.283H31.8376C31.7216 52.283 31.6103 52.2369 31.5283 52.1549C31.4462 52.0728 31.4001 51.9615 31.4001 51.8455C31.3997 51.6368 31.3165 51.4368 31.169 51.2892C31.0214 51.1416 30.8213 51.0585 30.6126 51.058H30.1751V49.658ZM31.5751 48.433C31.6789 48.433 31.7805 48.4638 31.8668 48.5215C31.9531 48.5792 32.0204 48.6612 32.0602 48.7571C32.0999 48.853 32.1103 48.9586 32.09 49.0604C32.0698 49.1623 32.0198 49.2558 31.9463 49.3292C31.8729 49.4027 31.7794 49.4527 31.6775 49.4729C31.5757 49.4932 31.4701 49.4828 31.3742 49.443C31.2783 49.4033 31.1963 49.336 31.1386 49.2497C31.0809 49.1633 31.0501 49.0618 31.0501 48.958C31.0501 48.8188 31.1054 48.6852 31.2039 48.5868C31.3023 48.4883 31.4359 48.433 31.5751 48.433ZM28.4251 52.633C28.3213 52.633 28.2198 52.6022 28.1334 52.5445C28.0471 52.4868 27.9798 52.4048 27.9401 52.3089C27.9003 52.213 27.8899 52.1074 27.9102 52.0056C27.9305 51.9037 27.9805 51.8102 28.0539 51.7368C28.1273 51.6634 28.2209 51.6133 28.3227 51.5931C28.4245 51.5728 28.5301 51.5832 28.626 51.623C28.722 51.6627 28.8039 51.73 28.8616 51.8163C28.9193 51.9027 28.9501 52.0042 28.9501 52.108C28.9501 52.2472 28.8948 52.3808 28.7963 52.4792C28.6979 52.5777 28.5644 52.633 28.4251 52.633Z" fill="#0A1214"/>
<path d="M30.7176 49.133L31.6974 48.933L31.5341 48.133H30.7176V49.133ZM32.224 49.5448L31.4822 48.8742L31.4822 48.8742L32.224 49.5448ZM32.224 48.3712L31.4822 49.0418L31.4822 49.0418L32.224 48.3712ZM31.6629 48.0874L31.7634 47.0925L31.6629 48.0874ZM30.7176 48.783V49.783H31.5341L31.6974 48.983L30.7176 48.783ZM29.8251 49.833V50.833H30.8251V49.833H29.8251ZM27.9001 48.083V47.083H26.9001V48.083H27.9001ZM27.9001 48.433H26.9001V49.433H27.9001V48.433ZM29.8251 50.183H30.8251V49.183H29.8251V50.183ZM29.2826 51.933L28.3028 52.133L28.4661 52.933H29.2826V51.933ZM28.9439 51.4032L29.5366 50.5978H29.5366L28.9439 51.4032ZM27.7762 51.5212L28.518 52.1918H28.518L27.7762 51.5212ZM27.7762 52.6948L28.518 52.0242L28.518 52.0242L27.7762 52.6948ZM28.9439 52.8128L29.5366 53.6182H29.5366L28.9439 52.8128ZM29.2826 52.283V51.283H28.4661L28.3028 52.083L29.2826 52.283ZM30.1751 51.408V50.408H29.1751V51.408H30.1751ZM31.0501 51.8455H30.0501L30.0501 51.8477L31.0501 51.8455ZM31.8376 52.633L31.8354 53.633H31.8376V52.633ZM32.1001 52.633V53.633H33.1001V52.633H32.1001ZM32.1001 52.283H33.1001V51.283H32.1001V52.283ZM31.4001 51.8455H32.4001L32.4001 51.8433L31.4001 51.8455ZM30.6126 51.058L30.6148 50.058H30.6126V51.058ZM30.1751 51.058H29.1751V52.058H30.1751V51.058ZM27.9102 52.0056L28.891 52.2007L27.9102 52.0056ZM31.1751 49.658C31.1751 49.784 31.1251 49.9048 31.036 49.9939L29.6218 48.5797C29.3358 48.8657 29.1751 49.2536 29.1751 49.658H31.1751ZM31.036 49.9939C30.9469 50.083 30.8261 50.133 30.7001 50.133V48.133C30.2957 48.133 29.9078 48.2937 29.6218 48.5797L31.036 49.9939ZM30.7001 50.133H30.7176V48.133H30.7001V50.133ZM29.7378 49.333C29.8307 49.7883 30.0894 50.1928 30.4637 50.4682L31.649 48.8573C31.674 48.8757 31.6912 48.9027 31.6974 48.933L29.7378 49.333ZM30.4637 50.4682C30.8379 50.7436 31.3011 50.8702 31.7634 50.8235L31.5624 48.8336C31.5932 48.8305 31.6241 48.839 31.649 48.8573L30.4637 50.4682ZM31.7634 50.8235C32.2257 50.7768 32.6542 50.5601 32.9658 50.2154L31.4822 48.8742C31.503 48.8512 31.5316 48.8368 31.5624 48.8336L31.7634 50.8235ZM32.9658 50.2154C33.2774 49.8708 33.4499 49.4227 33.4499 48.958H31.4499C31.4499 48.927 31.4614 48.8972 31.4822 48.8742L32.9658 50.2154ZM33.4499 48.958C33.4499 48.4934 33.2774 48.0453 32.9658 47.7006L31.4822 49.0418C31.4614 49.0189 31.4499 48.989 31.4499 48.958H33.4499ZM32.9658 47.7006C32.6542 47.3559 32.2257 47.1392 31.7634 47.0925L31.5624 49.0824C31.5316 49.0793 31.503 49.0648 31.4822 49.0418L32.9658 47.7006ZM31.7634 47.0925C31.3011 47.0458 30.8379 47.1724 30.4637 47.4478L31.649 49.0587C31.6241 49.077 31.5932 49.0855 31.5624 49.0824L31.7634 47.0925ZM30.4637 47.4478C30.0894 47.7232 29.8307 48.1277 29.7378 48.583L31.6974 48.983C31.6912 49.0134 31.674 49.0403 31.649 49.0587L30.4637 47.4478ZM30.7176 47.783H30.7001V49.783H30.7176V47.783ZM30.7001 47.783C30.2028 47.783 29.7259 47.9806 29.3743 48.3322L30.7885 49.7464C30.7651 49.7698 30.7333 49.783 30.7001 49.783V47.783ZM29.3743 48.3322C29.0227 48.6838 28.8251 49.1607 28.8251 49.658H30.8251C30.8251 49.6912 30.8119 49.723 30.7885 49.7464L29.3743 48.3322ZM28.8251 49.658V49.833H30.8251V49.658H28.8251ZM29.8251 48.833H29.4751V50.833H29.8251V48.833ZM29.4751 48.833C29.6011 48.833 29.7219 48.8831 29.811 48.9721L28.3968 50.3863C28.6828 50.6723 29.0707 50.833 29.4751 50.833V48.833ZM29.811 48.9721C29.9001 49.0612 29.9501 49.182 29.9501 49.308H27.9501C27.9501 49.7125 28.1108 50.1004 28.3968 50.3863L29.811 48.9721ZM29.9501 49.308V48.958H27.9501V49.308H29.9501ZM29.9501 48.958C29.9501 48.4607 29.7526 47.9838 29.4009 47.6322L27.9867 49.0464C27.9633 49.023 27.9501 48.9912 27.9501 48.958H29.9501ZM29.4009 47.6322C29.0493 47.2806 28.5724 47.083 28.0751 47.083V49.083C28.042 49.083 28.0102 49.0698 27.9867 49.0464L29.4009 47.6322ZM28.0751 47.083H27.9001V49.083H28.0751V47.083ZM26.9001 48.083V48.433H28.9001V48.083H26.9001ZM27.9001 49.433H28.0751V47.433H27.9001V49.433ZM28.0751 49.433C27.9491 49.433 27.8283 49.383 27.7392 49.2939L29.1535 47.8797C28.8675 47.5937 28.4796 47.433 28.0751 47.433V49.433ZM27.7392 49.2939C27.6502 49.2048 27.6001 49.084 27.6001 48.958H29.6001C29.6001 48.5536 29.4394 48.1657 29.1535 47.8797L27.7392 49.2939ZM27.6001 48.958V49.308H29.6001V48.958H27.6001ZM27.6001 49.308C27.6001 49.8053 27.7977 50.2822 28.1493 50.6338L29.5635 49.2196C29.5869 49.2431 29.6001 49.2749 29.6001 49.308H27.6001ZM28.1493 50.6338C28.5009 50.9855 28.9778 51.183 29.4751 51.183V49.183C29.5083 49.183 29.5401 49.1962 29.5635 49.2196L28.1493 50.6338ZM29.4751 51.183H29.8251V49.183H29.4751V51.183ZM28.8251 50.183V51.408H30.8251V50.183H28.8251ZM28.8251 51.408C28.8251 51.282 28.8752 51.1612 28.9642 51.0721L30.3785 52.4863C30.6644 52.2004 30.8251 51.8125 30.8251 51.408H28.8251ZM28.9642 51.0721C29.0533 50.983 29.1741 50.933 29.3001 50.933V52.933C29.7046 52.933 30.0925 52.7723 30.3785 52.4863L28.9642 51.0721ZM29.3001 50.933H29.2826V52.933H29.3001V50.933ZM30.2624 51.733C30.1695 51.2777 29.9108 50.8732 29.5366 50.5978L28.3512 52.2087C28.3263 52.1903 28.309 52.1634 28.3028 52.133L30.2624 51.733ZM29.5366 50.5978C29.1623 50.3224 28.6991 50.1958 28.2368 50.2425L28.4379 52.2324C28.407 52.2355 28.3762 52.227 28.3512 52.2087L29.5366 50.5978ZM28.2368 50.2425C27.7745 50.2892 27.346 50.5059 27.0344 50.8506L28.518 52.1918C28.4972 52.2148 28.4687 52.2293 28.4379 52.2324L28.2368 50.2425ZM27.0344 50.8506C26.7228 51.1952 26.5503 51.6434 26.5503 52.108H28.5503C28.5503 52.139 28.5388 52.1689 28.518 52.1918L27.0344 50.8506ZM26.5503 52.108C26.5503 52.5727 26.7228 53.0208 27.0344 53.3654L28.518 52.0242C28.5388 52.0472 28.5503 52.077 28.5503 52.108H26.5503ZM27.0344 53.3654C27.346 53.7101 27.7745 53.9268 28.2368 53.9735L28.4379 51.9836C28.4687 51.9867 28.4972 52.0012 28.518 52.0242L27.0344 53.3654ZM28.2368 53.9735C28.6991 54.0202 29.1623 53.8936 29.5366 53.6182L28.3512 52.0073C28.3762 51.989 28.407 51.9805 28.4379 51.9836L28.2368 53.9735ZM29.5366 53.6182C29.9108 53.3428 30.1695 52.9383 30.2624 52.483L28.3028 52.083C28.309 52.0527 28.3263 52.0257 28.3512 52.0073L29.5366 53.6182ZM29.2826 53.283H29.3001V51.283H29.2826V53.283ZM29.3001 53.283C29.7974 53.283 30.2743 53.0855 30.6259 52.7338L29.2117 51.3196C29.2352 51.2962 29.267 51.283 29.3001 51.283V53.283ZM30.6259 52.7338C30.9776 52.3822 31.1751 51.9053 31.1751 51.408H29.1751C29.1751 51.3749 29.1883 51.3431 29.2117 51.3196L30.6259 52.7338ZM30.1751 52.408H30.6126V50.408H30.1751V52.408ZM30.6126 52.408C30.4634 52.408 30.3204 52.3487 30.2149 52.2433L31.6291 50.829C31.3595 50.5595 30.9939 50.408 30.6126 50.408V52.408ZM30.2149 52.2433C30.1094 52.1378 30.0501 51.9947 30.0501 51.8455H32.0501C32.0501 51.4643 31.8987 51.0986 31.6291 50.829L30.2149 52.2433ZM30.0501 51.8477C30.0512 52.3209 30.2396 52.7744 30.5742 53.1089L31.9884 51.6947C32.0278 51.7341 32.05 51.7876 32.0501 51.8433L30.0501 51.8477ZM30.5742 53.1089C30.9088 53.4435 31.3622 53.632 31.8354 53.633L31.8398 51.633C31.8956 51.6331 31.949 51.6553 31.9884 51.6947L30.5742 53.1089ZM31.8376 53.633H32.1001V51.633H31.8376V53.633ZM33.1001 52.633V52.283H31.1001V52.633H33.1001ZM32.1001 51.283H31.8376V53.283H32.1001V51.283ZM31.8376 51.283C31.9868 51.283 32.1299 51.3423 32.2354 51.4478L30.8211 52.862C31.0907 53.1316 31.4564 53.283 31.8376 53.283V51.283ZM32.2354 51.4478C32.3409 51.5532 32.4001 51.6963 32.4001 51.8455H30.4001C30.4001 52.2268 30.5516 52.5924 30.8211 52.862L32.2354 51.4478ZM32.4001 51.8433C32.3991 51.3701 32.2106 50.9166 31.8761 50.5821L30.4618 51.9963C30.4224 51.9569 30.4002 51.9035 30.4001 51.8477L32.4001 51.8433ZM31.8761 50.5821C31.5415 50.2475 31.088 50.0591 30.6148 50.058L30.6104 52.058C30.5547 52.0579 30.5013 52.0357 30.4618 51.9963L31.8761 50.5821ZM30.6126 50.058H30.1751V52.058H30.6126V50.058ZM31.1751 51.058V49.658H29.1751V51.058H31.1751ZM31.5751 49.433C31.4812 49.433 31.3893 49.4052 31.3112 49.353L32.4224 47.69C32.1716 47.5224 31.8767 47.433 31.5751 47.433V49.433ZM31.3112 49.353C31.2331 49.3008 31.1722 49.2266 31.1363 49.1398L32.984 48.3744C32.8686 48.0958 32.6731 47.8576 32.4224 47.69L31.3112 49.353ZM31.1363 49.1398C31.1003 49.053 31.0909 48.9575 31.1092 48.8653L33.0708 49.2555C33.1297 48.9597 33.0995 48.6531 32.984 48.3744L31.1363 49.1398ZM31.1092 48.8653C31.1276 48.7732 31.1728 48.6886 31.2392 48.6221L32.6535 50.0363C32.8667 49.8231 33.012 49.5513 33.0708 49.2555L31.1092 48.8653ZM31.2392 48.6221C31.3057 48.5557 31.3903 48.5105 31.4824 48.4921L31.8726 50.4537C32.1684 50.3949 32.4402 50.2496 32.6535 50.0363L31.2392 48.6221ZM31.4824 48.4921C31.5746 48.4738 31.6701 48.4832 31.7569 48.5192L30.9915 50.3669C31.2702 50.4823 31.5768 50.5125 31.8726 50.4537L31.4824 48.4921ZM31.7569 48.5192C31.8437 48.5551 31.9179 48.616 31.9701 48.6941L30.3071 49.8053C30.4747 50.056 30.7129 50.2515 30.9915 50.3669L31.7569 48.5192ZM31.9701 48.6941C32.0223 48.7722 32.0501 48.8641 32.0501 48.958H30.0501C30.0501 49.2596 30.1396 49.5545 30.3071 49.8053L31.9701 48.6941ZM32.0501 48.958C32.0501 49.084 32.0001 49.2048 31.911 49.2939L30.4968 47.8797C30.2108 48.1657 30.0501 48.5536 30.0501 48.958H32.0501ZM31.911 49.2939C31.8219 49.383 31.7011 49.433 31.5751 49.433V47.433C31.1707 47.433 30.7828 47.5937 30.4968 47.8797L31.911 49.2939ZM28.4251 51.633C28.5191 51.633 28.6109 51.6609 28.689 51.7131L27.5779 53.376C27.8287 53.5436 28.1235 53.633 28.4251 53.633V51.633ZM28.689 51.7131C28.7671 51.7652 28.828 51.8394 28.864 51.9262L27.0162 52.6916C27.1316 52.9703 27.3271 53.2084 27.5779 53.376L28.689 51.7131ZM28.864 51.9262C28.8999 52.013 28.9093 52.1085 28.891 52.2007L26.9294 51.8105C26.8706 52.1063 26.9008 52.4129 27.0162 52.6916L28.864 51.9262ZM28.891 52.2007C28.8727 52.2928 28.8274 52.3775 28.761 52.4439L27.3468 51.0297C27.1335 51.2429 26.9883 51.5147 26.9294 51.8105L28.891 52.2007ZM28.761 52.4439C28.6946 52.5103 28.6099 52.5556 28.5178 52.5739L28.1276 50.6123C27.8318 50.6711 27.5601 50.8164 27.3468 51.0297L28.761 52.4439ZM28.5178 52.5739C28.4256 52.5922 28.3301 52.5828 28.2433 52.5468L29.0087 50.6991C28.73 50.5837 28.4234 50.5535 28.1276 50.6123L28.5178 52.5739ZM28.2433 52.5468C28.1565 52.5109 28.0824 52.45 28.0302 52.3719L29.6931 51.2608C29.5255 51.01 29.2874 50.8145 29.0087 50.6991L28.2433 52.5468ZM28.0302 52.3719C27.978 52.2938 27.9501 52.202 27.9501 52.108H29.9501C29.9501 51.8064 29.8607 51.5115 29.6931 51.2608L28.0302 52.3719ZM27.9501 52.108C27.9501 51.982 28.0002 51.8612 28.0892 51.7721L29.5035 53.1863C29.7894 52.9003 29.9501 52.5125 29.9501 52.108H27.9501ZM28.0892 51.7721C28.1783 51.683 28.2991 51.633 28.4251 51.633V53.633C28.8296 53.633 29.2175 53.4723 29.5035 53.1863L28.0892 51.7721Z" fill="#0A1214" mask="url(#path-7-inside-1_1258_8828)"/>
</g>
<path d="M29.9067 22.627L29.9067 16.9336M29.9067 16.9336L29.3467 17.587M29.9067 16.9336L30.4667 17.587" stroke="#0A1214" stroke-width="0.8" stroke-linecap="round" stroke-linejoin="round"/>
<path d="M37.4668 29.9995L43.1601 29.9995M43.1601 29.9995L42.5068 29.4395M43.1601 29.9995L42.5068 30.5595" stroke="#0A1214" stroke-width="0.8" stroke-linecap="round" stroke-linejoin="round"/>
<path d="M29.9068 37.4668L29.9068 43.0668M29.9068 43.0668L30.4668 42.4135M29.9068 43.0668L29.3468 42.4135" stroke="#0A1214" stroke-width="0.8" stroke-linecap="round" stroke-linejoin="round"/>
<path d="M16.8333 9.46666C16.8333 13.5351 13.5352 16.8333 9.46667 16.8333C5.39817 16.8333 2.1 13.5351 2.1 9.46666C2.1 5.39816 5.39817 2.1 9.46667 2.1C13.5352 2.1 16.8333 5.39816 16.8333 9.46666Z" stroke="#0A1214" stroke-width="0.2"/>
<path d="M57.8997 9.46666C57.8997 13.5351 54.6016 16.8333 50.5331 16.8333C46.4646 16.8333 43.1664 13.5351 43.1664 9.46666C43.1664 5.39816 46.4646 2.1 50.5331 2.1C54.6016 2.1 57.8997 5.39816 57.8997 9.46666Z" stroke="#0A1214" stroke-width="0.2"/>
<path d="M16.8333 50.5331C16.8333 54.6016 13.5352 57.8997 9.46667 57.8997C5.39817 57.8997 2.1 54.6016 2.1 50.5331C2.1 46.4646 5.39817 43.1664 9.46667 43.1664C13.5352 43.1664 16.8333 46.4646 16.8333 50.5331Z" stroke="#0A1214" stroke-width="0.2"/>
<path d="M57.8997 50.5331C57.8997 54.6016 54.6016 57.8997 50.5331 57.8997C46.4646 57.8997 43.1664 54.6016 43.1664 50.5331C43.1664 46.4646 46.4646 43.1664 50.5331 43.1664C54.6016 43.1664 57.8997 46.4646 57.8997 50.5331Z" stroke="#0A1214" stroke-width="0.2"/>
<path d="M57.8997 29.9999C57.8997 34.0684 54.6016 37.3665 50.5331 37.3665C46.4646 37.3665 43.1664 34.0684 43.1664 29.9999C43.1664 25.9314 46.4646 22.6332 50.5331 22.6332C54.6016 22.6332 57.8997 25.9314 57.8997 29.9999Z" fill="#0A1214" stroke="#0A1214" stroke-width="0.2"/>
<g clip-path="url(#clip1_1258_8828)">
<path d="M52.7911 28.8217H51.8869V29.1833H52.7911V30.2683H51.5253V30.63H52.0678V31.0173C51.8973 31.0614 51.7488 31.166 51.6499 31.3117C51.5511 31.4574 51.5089 31.6342 51.531 31.8088C51.5532 31.9835 51.6384 32.1441 51.7705 32.2604C51.9026 32.3768 52.0726 32.441 52.2486 32.441C52.4247 32.441 52.5947 32.3768 52.7268 32.2604C52.8589 32.1441 52.944 31.9835 52.9662 31.8088C52.9884 31.6342 52.9461 31.4574 52.8473 31.3117C52.7485 31.166 52.5999 31.0614 52.4294 31.0173V30.63H52.7911C52.887 30.6299 52.9789 30.5917 53.0467 30.5239C53.1145 30.4561 53.1527 30.3642 53.1528 30.2683V29.1833C53.1527 29.0874 53.1145 28.9955 53.0467 28.9277C52.9789 28.8599 52.887 28.8218 52.7911 28.8217ZM52.6103 31.715C52.6103 31.7865 52.5891 31.8564 52.5493 31.9159C52.5096 31.9754 52.4531 32.0218 52.387 32.0491C52.3209 32.0765 52.2482 32.0837 52.1781 32.0697C52.1079 32.0558 52.0435 32.0213 51.9929 31.9707C51.9423 31.9202 51.9079 31.8557 51.8939 31.7856C51.8799 31.7154 51.8871 31.6427 51.9145 31.5766C51.9419 31.5105 51.9882 31.454 52.0477 31.4143C52.1072 31.3745 52.1771 31.3533 52.2486 31.3533C52.3445 31.3535 52.4364 31.3916 52.5042 31.4594C52.572 31.5272 52.6102 31.6191 52.6103 31.715Z" fill="white"/>
<path d="M50.9828 28.0983H50.0786V28.46H50.9828V29.545H49.7169V29.9067H50.2594V31.0173C50.089 31.0614 49.9404 31.166 49.8416 31.3117C49.7428 31.4574 49.7005 31.6342 49.7227 31.8088C49.7449 31.9835 49.83 32.1441 49.9621 32.2604C50.0942 32.3768 50.2642 32.441 50.4403 32.441C50.6163 32.441 50.7863 32.3768 50.9184 32.2604C51.0505 32.1441 51.1357 31.9835 51.1579 31.8088C51.18 31.6342 51.1378 31.4574 51.039 31.3117C50.9401 31.166 50.7916 31.0614 50.6211 31.0173V29.9067H50.9828C51.0787 29.9066 51.1706 29.8684 51.2384 29.8006C51.3062 29.7328 51.3443 29.6409 51.3444 29.545V28.46C51.3443 28.3641 51.3062 28.2722 51.2384 28.2044C51.1706 28.1366 51.0787 28.0984 50.9828 28.0983ZM50.8019 31.715C50.8019 31.7865 50.7807 31.8564 50.741 31.9159C50.7013 31.9754 50.6448 32.0218 50.5787 32.0491C50.5126 32.0765 50.4399 32.0837 50.3697 32.0697C50.2996 32.0558 50.2351 32.0213 50.1845 31.9707C50.134 31.9202 50.0995 31.8557 50.0856 31.7856C50.0716 31.7154 50.0788 31.6427 50.1061 31.5766C50.1335 31.5105 50.1799 31.454 50.2394 31.4143C50.2988 31.3745 50.3688 31.3533 50.4403 31.3533C50.5362 31.3535 50.6281 31.3916 50.6959 31.4594C50.7637 31.5272 50.8018 31.6191 50.8019 31.715Z" fill="white"/>
<path d="M49.1744 27.375H48.0894C47.9936 27.3751 47.9016 27.4132 47.8338 27.481C47.766 27.5488 47.7279 27.6408 47.7278 27.7367V28.8217C47.7279 28.9176 47.766 29.0095 47.8338 29.0773C47.9016 29.1451 47.9936 29.1832 48.0894 29.1833H48.4511V31.0173C48.2807 31.0614 48.1321 31.166 48.0333 31.3117C47.9345 31.4574 47.8922 31.6342 47.9144 31.8088C47.9366 31.9835 48.0217 32.1441 48.1538 32.2604C48.2859 32.3768 48.4559 32.441 48.6319 32.441C48.808 32.441 48.978 32.3768 49.1101 32.2604C49.2422 32.1441 49.3273 31.9835 49.3495 31.8088C49.3717 31.6342 49.3294 31.4574 49.2306 31.3117C49.1318 31.166 48.9832 31.0614 48.8128 31.0173V29.1833H49.1744C49.2703 29.1832 49.3623 29.1451 49.4301 29.0773C49.4979 29.0095 49.536 28.9176 49.5361 28.8217V27.7367C49.536 27.6408 49.4979 27.5488 49.4301 27.481C49.3623 27.4132 49.2703 27.3751 49.1744 27.375ZM48.9936 31.715C48.9936 31.7865 48.9724 31.8564 48.9327 31.9159C48.8929 31.9754 48.8364 32.0218 48.7704 32.0491C48.7043 32.0765 48.6315 32.0837 48.5614 32.0697C48.4912 32.0558 48.4268 32.0213 48.3762 31.9707C48.3256 31.9202 48.2912 31.8557 48.2772 31.7856C48.2633 31.7154 48.2704 31.6427 48.2978 31.5766C48.3252 31.5105 48.3715 31.454 48.431 31.4143C48.4905 31.3745 48.5604 31.3533 48.6319 31.3533C48.7278 31.3534 48.8198 31.3916 48.8876 31.4594C48.9554 31.5272 48.9935 31.6191 48.9936 31.715ZM48.0894 28.8217V27.7367H49.1744L49.1747 28.8217H48.0894Z" fill="white"/>
</g>
<path d="M16.8333 29.9999C16.8333 34.0684 13.5352 37.3665 9.46667 37.3665C5.39817 37.3665 2.1 34.0684 2.1 29.9999C2.1 25.9314 5.39817 22.6332 9.46667 22.6332C13.5352 22.6332 16.8333 25.9314 16.8333 29.9999Z" stroke="#0A1214" stroke-width="0.2"/>
<defs>
<radialGradient id="paint0_radial_1258_8828" cx="0" cy="0" r="1" gradientUnits="userSpaceOnUse" gradientTransform="translate(29.9999 29.9999) rotate(90) scale(7.46666 7.46667)">
<stop offset="0.536458" stop-color="white" stop-opacity="0"/>
<stop offset="1" stop-color="#34DBFF" stop-opacity="0.4"/>
</radialGradient>
<clipPath id="clip0_1258_8828">
<rect width="5.6" height="5.59999" fill="white" transform="translate(27.2002 47.7334)"/>
</clipPath>
<clipPath id="clip1_1258_8828">
<rect width="5.78667" height="5.78666" fill="white" transform="translate(47.5469 27.0137)"/>
</clipPath>
</defs>
</svg>
