<svg width="60" height="60" viewBox="0 0 60 60" fill="none" xmlns="http://www.w3.org/2000/svg">
<path d="M37.3665 9.46666C37.3665 13.5351 34.0684 16.8333 29.9999 16.8333C25.9314 16.8333 22.6332 13.5351 22.6332 9.46666C22.6332 5.39816 25.9314 2.1 29.9999 2.1C34.0684 2.1 37.3665 5.39816 37.3665 9.46666Z" fill="#34DBFF" stroke="#0A1214" stroke-width="0.2"/>
<rect width="7.09333" height="7.09332" transform="translate(26.4531 5.92007)" fill="white" style="mix-blend-mode:multiply"/>
<path d="M29.9432 9.46673C29.9432 9.43543 29.9685 9.41006 29.9998 9.41006C30.0311 9.41006 30.0565 9.43543 30.0565 9.46673C30.0565 9.49803 30.0311 9.5234 29.9998 9.5234C29.9685 9.5234 29.9432 9.49803 29.9432 9.46673Z" fill="#0A1214" stroke="#0A1214"/>
<path d="M37.3665 30C37.3665 34.0685 34.0684 37.3666 29.9999 37.3666C25.9314 37.3666 22.6332 34.0685 22.6332 30C22.6332 25.9315 25.9314 22.6333 29.9999 22.6333C34.0684 22.6333 37.3665 25.9315 37.3665 30Z" fill="url(#paint0_radial_3016_7798)" stroke="#0A1214" stroke-width="0.2"/>
<path d="M30.0002 29.9999C30.7737 29.9999 31.4002 29.3734 31.4002 28.5999C31.4002 27.8264 30.7737 27.1999 30.0002 27.1999C29.2267 27.1999 28.6002 27.8264 28.6002 28.5999C28.6002 29.3734 29.2267 29.9999 30.0002 29.9999ZM30.0002 30.6999C29.0657 30.6999 27.2002 31.1689 27.2002 32.0999V32.5332C27.2002 32.6805 27.3196 32.7999 27.4669 32.7999H30.0002H32.5335C32.6808 32.7999 32.8002 32.6805 32.8002 32.5332V32.0999C32.8002 31.1689 30.9347 30.6999 30.0002 30.6999Z" fill="#0A1214"/>
<path d="M37.3665 50.5334C37.3665 54.6018 34.0684 57.9 29.9999 57.9C25.9314 57.9 22.6332 54.6018 22.6332 50.5334C22.6332 46.4649 25.9314 43.1667 29.9999 43.1667C34.0684 43.1667 37.3665 46.4649 37.3665 50.5334Z" fill="#43FFA8" stroke="#0A1214" stroke-width="0.2"/>
<g clip-path="url(#clip0_3016_7798)">
<mask id="path-7-inside-1_3016_7798" fill="white">
<path d="M30.1756 49.6582C30.1756 49.519 30.2309 49.3854 30.3294 49.287C30.4278 49.1885 30.5614 49.1332 30.7006 49.1332H30.7181C30.7615 49.3456 30.8822 49.5344 31.0568 49.6629C31.2315 49.7915 31.4476 49.8506 31.6634 49.8288C31.8791 49.807 32.0791 49.7058 32.2245 49.545C32.3699 49.3841 32.4504 49.175 32.4504 48.9582C32.4504 48.7414 32.3699 48.5322 32.2245 48.3714C32.0791 48.2105 31.8791 48.1094 31.6634 48.0876C31.4476 48.0658 31.2315 48.1249 31.0568 48.2534C30.8822 48.3819 30.7615 48.5707 30.7181 48.7832H30.7006C30.4685 48.7832 30.246 48.8754 30.0819 49.0395C29.9178 49.2036 29.8256 49.4261 29.8256 49.6582V49.8332H29.4756C29.3364 49.8332 29.2028 49.7779 29.1044 49.6794C29.0059 49.581 28.9506 49.4474 28.9506 49.3082V48.9582C28.9506 48.7261 28.8584 48.5036 28.6943 48.3395C28.5302 48.1754 28.3077 48.0832 28.0756 48.0832H27.9006V48.4332H28.0756C28.2148 48.4332 28.3484 48.4885 28.4468 48.587C28.5453 48.6854 28.6006 48.819 28.6006 48.9582V49.3082C28.6006 49.5403 28.6928 49.7628 28.8569 49.9269C29.021 50.091 29.2435 50.1832 29.4756 50.1832H29.8256V51.4082C29.8256 51.5474 29.7703 51.681 29.6718 51.7794C29.5734 51.8779 29.4398 51.9332 29.3006 51.9332H29.2831C29.2397 51.7207 29.119 51.5319 28.9444 51.4034C28.7697 51.2749 28.5536 51.2158 28.3378 51.2376C28.1221 51.2594 27.9221 51.3605 27.7767 51.5214C27.6313 51.6822 27.5508 51.8913 27.5508 52.1082C27.5508 52.325 27.6313 52.5341 27.7767 52.695C27.9221 52.8558 28.1221 52.957 28.3378 52.9788C28.5536 53.0005 28.7697 52.9415 28.9444 52.8129C29.119 52.6844 29.2397 52.4956 29.2831 52.2832H29.3006C29.5327 52.2832 29.7552 52.191 29.9193 52.0269C30.0834 51.8628 30.1756 51.6403 30.1756 51.4082H30.6131C30.7291 51.4082 30.8404 51.4543 30.9225 51.5363C31.0045 51.6184 31.0506 51.7297 31.0506 51.8457C31.0511 52.0544 31.1342 52.2544 31.2818 52.402C31.4294 52.5496 31.6294 52.6327 31.8381 52.6332H32.1006V52.2832H31.8381C31.7221 52.2832 31.6108 52.2371 31.5287 52.155C31.4467 52.073 31.4006 51.9617 31.4006 51.8457C31.4001 51.637 31.317 51.4369 31.1694 51.2894C31.0219 51.1418 30.8218 51.0586 30.6131 51.0582H30.1756V49.6582ZM31.5756 48.4332C31.6794 48.4332 31.7809 48.464 31.8673 48.5217C31.9536 48.5794 32.0209 48.6614 32.0606 48.7573C32.1004 48.8532 32.1108 48.9588 32.0905 49.0606C32.0703 49.1625 32.0203 49.256 31.9468 49.3294C31.8734 49.4028 31.7799 49.4528 31.678 49.4731C31.5762 49.4934 31.4706 49.483 31.3747 49.4432C31.2788 49.4035 31.1968 49.3362 31.1391 49.2499C31.0814 49.1635 31.0506 49.062 31.0506 48.9582C31.0506 48.819 31.1059 48.6854 31.2044 48.587C31.3028 48.4885 31.4364 48.4332 31.5756 48.4332ZM28.4256 52.6332C28.3218 52.6332 28.2203 52.6024 28.1339 52.5447C28.0476 52.487 27.9803 52.405 27.9406 52.3091C27.9008 52.2132 27.8904 52.1076 27.9107 52.0058C27.9309 51.9039 27.9809 51.8104 28.0544 51.737C28.1278 51.6635 28.2213 51.6135 28.3232 51.5933C28.425 51.573 28.5306 51.5834 28.6265 51.6231C28.7224 51.6629 28.8044 51.7302 28.8621 51.8165C28.9198 51.9028 28.9506 52.0044 28.9506 52.1082C28.9506 52.2474 28.8953 52.381 28.7968 52.4794C28.6984 52.5779 28.5648 52.6332 28.4256 52.6332Z"/>
</mask>
<path d="M30.1756 49.6582C30.1756 49.519 30.2309 49.3854 30.3294 49.287C30.4278 49.1885 30.5614 49.1332 30.7006 49.1332H30.7181C30.7615 49.3456 30.8822 49.5344 31.0568 49.6629C31.2315 49.7915 31.4476 49.8506 31.6634 49.8288C31.8791 49.807 32.0791 49.7058 32.2245 49.545C32.3699 49.3841 32.4504 49.175 32.4504 48.9582C32.4504 48.7414 32.3699 48.5322 32.2245 48.3714C32.0791 48.2105 31.8791 48.1094 31.6634 48.0876C31.4476 48.0658 31.2315 48.1249 31.0568 48.2534C30.8822 48.3819 30.7615 48.5707 30.7181 48.7832H30.7006C30.4685 48.7832 30.246 48.8754 30.0819 49.0395C29.9178 49.2036 29.8256 49.4261 29.8256 49.6582V49.8332H29.4756C29.3364 49.8332 29.2028 49.7779 29.1044 49.6794C29.0059 49.581 28.9506 49.4474 28.9506 49.3082V48.9582C28.9506 48.7261 28.8584 48.5036 28.6943 48.3395C28.5302 48.1754 28.3077 48.0832 28.0756 48.0832H27.9006V48.4332H28.0756C28.2148 48.4332 28.3484 48.4885 28.4468 48.587C28.5453 48.6854 28.6006 48.819 28.6006 48.9582V49.3082C28.6006 49.5403 28.6928 49.7628 28.8569 49.9269C29.021 50.091 29.2435 50.1832 29.4756 50.1832H29.8256V51.4082C29.8256 51.5474 29.7703 51.681 29.6718 51.7794C29.5734 51.8779 29.4398 51.9332 29.3006 51.9332H29.2831C29.2397 51.7207 29.119 51.5319 28.9444 51.4034C28.7697 51.2749 28.5536 51.2158 28.3378 51.2376C28.1221 51.2594 27.9221 51.3605 27.7767 51.5214C27.6313 51.6822 27.5508 51.8913 27.5508 52.1082C27.5508 52.325 27.6313 52.5341 27.7767 52.695C27.9221 52.8558 28.1221 52.957 28.3378 52.9788C28.5536 53.0005 28.7697 52.9415 28.9444 52.8129C29.119 52.6844 29.2397 52.4956 29.2831 52.2832H29.3006C29.5327 52.2832 29.7552 52.191 29.9193 52.0269C30.0834 51.8628 30.1756 51.6403 30.1756 51.4082H30.6131C30.7291 51.4082 30.8404 51.4543 30.9225 51.5363C31.0045 51.6184 31.0506 51.7297 31.0506 51.8457C31.0511 52.0544 31.1342 52.2544 31.2818 52.402C31.4294 52.5496 31.6294 52.6327 31.8381 52.6332H32.1006V52.2832H31.8381C31.7221 52.2832 31.6108 52.2371 31.5287 52.155C31.4467 52.073 31.4006 51.9617 31.4006 51.8457C31.4001 51.637 31.317 51.4369 31.1694 51.2894C31.0219 51.1418 30.8218 51.0586 30.6131 51.0582H30.1756V49.6582ZM31.5756 48.4332C31.6794 48.4332 31.7809 48.464 31.8673 48.5217C31.9536 48.5794 32.0209 48.6614 32.0606 48.7573C32.1004 48.8532 32.1108 48.9588 32.0905 49.0606C32.0703 49.1625 32.0203 49.256 31.9468 49.3294C31.8734 49.4028 31.7799 49.4528 31.678 49.4731C31.5762 49.4934 31.4706 49.483 31.3747 49.4432C31.2788 49.4035 31.1968 49.3362 31.1391 49.2499C31.0814 49.1635 31.0506 49.062 31.0506 48.9582C31.0506 48.819 31.1059 48.6854 31.2044 48.587C31.3028 48.4885 31.4364 48.4332 31.5756 48.4332ZM28.4256 52.6332C28.3218 52.6332 28.2203 52.6024 28.1339 52.5447C28.0476 52.487 27.9803 52.405 27.9406 52.3091C27.9008 52.2132 27.8904 52.1076 27.9107 52.0058C27.9309 51.9039 27.9809 51.8104 28.0544 51.737C28.1278 51.6635 28.2213 51.6135 28.3232 51.5933C28.425 51.573 28.5306 51.5834 28.6265 51.6231C28.7224 51.6629 28.8044 51.7302 28.8621 51.8165C28.9198 51.9028 28.9506 52.0044 28.9506 52.1082C28.9506 52.2474 28.8953 52.381 28.7968 52.4794C28.6984 52.5779 28.5648 52.6332 28.4256 52.6332Z" fill="#0A1214"/>
<path d="M30.7181 49.1332L31.6979 48.9332L31.5346 48.1332H30.7181V49.1332ZM32.2245 49.545L31.4827 48.8744L31.4827 48.8744L32.2245 49.545ZM32.2245 48.3714L31.4827 49.042L31.4827 49.042L32.2245 48.3714ZM31.6634 48.0876L31.7639 47.0927L31.6634 48.0876ZM30.7181 48.7832V49.7832H31.5346L31.6979 48.9832L30.7181 48.7832ZM29.8256 49.8332V50.8332H30.8256V49.8332H29.8256ZM27.9006 48.0832V47.0832H26.9006V48.0832H27.9006ZM27.9006 48.4332H26.9006V49.4332H27.9006V48.4332ZM29.8256 50.1832H30.8256V49.1832H29.8256V50.1832ZM29.2831 51.9332L28.3033 52.1332L28.4666 52.9332H29.2831V51.9332ZM28.9444 51.4034L29.5371 50.598H29.5371L28.9444 51.4034ZM27.7767 51.5214L28.5185 52.192H28.5185L27.7767 51.5214ZM27.7767 52.695L28.5185 52.0244L28.5185 52.0244L27.7767 52.695ZM28.9444 52.8129L29.5371 53.6184H29.5371L28.9444 52.8129ZM29.2831 52.2832V51.2832H28.4666L28.3033 52.0832L29.2831 52.2832ZM30.1756 51.4082V50.4082H29.1756V51.4082H30.1756ZM31.0506 51.8457H30.0506L30.0506 51.8479L31.0506 51.8457ZM31.8381 52.6332L31.8359 53.6332H31.8381V52.6332ZM32.1006 52.6332V53.6332H33.1006V52.6332H32.1006ZM32.1006 52.2832H33.1006V51.2832H32.1006V52.2832ZM31.4006 51.8457H32.4006L32.4006 51.8435L31.4006 51.8457ZM30.6131 51.0582L30.6153 50.0582H30.6131V51.0582ZM30.1756 51.0582H29.1756V52.0582H30.1756V51.0582ZM27.9107 52.0058L28.8915 52.2009L27.9107 52.0058ZM31.1756 49.6582C31.1756 49.7842 31.1256 49.905 31.0365 49.9941L29.6223 48.5799C29.3363 48.8658 29.1756 49.2537 29.1756 49.6582H31.1756ZM31.0365 49.9941C30.9474 50.0831 30.8266 50.1332 30.7006 50.1332V48.1332C30.2961 48.1332 29.9083 48.2939 29.6223 48.5799L31.0365 49.9941ZM30.7006 50.1332H30.7181V48.1332H30.7006V50.1332ZM29.7383 49.3332C29.8312 49.7885 30.0899 50.193 30.4642 50.4684L31.6495 48.8575C31.6745 48.8759 31.6917 48.9028 31.6979 48.9332L29.7383 49.3332ZM30.4642 50.4684C30.8384 50.7438 31.3016 50.8704 31.7639 50.8237L31.5629 48.8338C31.5937 48.8307 31.6246 48.8391 31.6495 48.8575L30.4642 50.4684ZM31.7639 50.8237C32.2262 50.777 32.6547 50.5603 32.9663 50.2156L31.4827 48.8744C31.5035 48.8514 31.532 48.8369 31.5629 48.8338L31.7639 50.8237ZM32.9663 50.2156C33.2779 49.8709 33.4504 49.4228 33.4504 48.9582H31.4504C31.4504 48.9272 31.4619 48.8973 31.4827 48.8744L32.9663 50.2156ZM33.4504 48.9582C33.4504 48.4935 33.2779 48.0454 32.9663 47.7008L31.4827 49.042C31.4619 49.019 31.4504 48.9892 31.4504 48.9582H33.4504ZM32.9663 47.7008C32.6547 47.3561 32.2262 47.1394 31.7639 47.0927L31.5629 49.0826C31.532 49.0794 31.5035 49.065 31.4827 49.042L32.9663 47.7008ZM31.7639 47.0927C31.3016 47.046 30.8384 47.1726 30.4642 47.448L31.6495 49.0589C31.6246 49.0772 31.5937 49.0857 31.5629 49.0826L31.7639 47.0927ZM30.4642 47.448C30.0899 47.7234 29.8312 48.1279 29.7383 48.5832L31.6979 48.9832C31.6917 49.0135 31.6745 49.0405 31.6495 49.0589L30.4642 47.448ZM30.7181 47.7832H30.7006V49.7832H30.7181V47.7832ZM30.7006 47.7832C30.2033 47.7832 29.7264 47.9807 29.3748 48.3324L30.789 49.7466C30.7655 49.77 30.7338 49.7832 30.7006 49.7832V47.7832ZM29.3748 48.3324C29.0231 48.684 28.8256 49.1609 28.8256 49.6582H30.8256C30.8256 49.6913 30.8124 49.7231 30.789 49.7466L29.3748 48.3324ZM28.8256 49.6582V49.8332H30.8256V49.6582H28.8256ZM29.8256 48.8332H29.4756V50.8332H29.8256V48.8332ZM29.4756 48.8332C29.6016 48.8332 29.7224 48.8832 29.8115 48.9723L28.3973 50.3865C28.6833 50.6725 29.0711 50.8332 29.4756 50.8332V48.8332ZM29.8115 48.9723C29.9006 49.0614 29.9506 49.1822 29.9506 49.3082H27.9506C27.9506 49.7126 28.1113 50.1005 28.3973 50.3865L29.8115 48.9723ZM29.9506 49.3082V48.9582H27.9506V49.3082H29.9506ZM29.9506 48.9582C29.9506 48.4609 29.7531 47.984 29.4014 47.6324L27.9872 49.0466C27.9638 49.0231 27.9506 48.9913 27.9506 48.9582H29.9506ZM29.4014 47.6324C29.0498 47.2807 28.5729 47.0832 28.0756 47.0832V49.0832C28.0425 49.0832 28.0107 49.07 27.9872 49.0466L29.4014 47.6324ZM28.0756 47.0832H27.9006V49.0832H28.0756V47.0832ZM26.9006 48.0832V48.4332H28.9006V48.0832H26.9006ZM27.9006 49.4332H28.0756V47.4332H27.9006V49.4332ZM28.0756 49.4332C27.9496 49.4332 27.8288 49.3831 27.7397 49.2941L29.1539 47.8799C28.8679 47.5939 28.4801 47.4332 28.0756 47.4332V49.4332ZM27.7397 49.2941C27.6506 49.205 27.6006 49.0842 27.6006 48.9582H29.6006C29.6006 48.5537 29.4399 48.1658 29.1539 47.8799L27.7397 49.2941ZM27.6006 48.9582V49.3082H29.6006V48.9582H27.6006ZM27.6006 49.3082C27.6006 49.8055 27.7981 50.2824 28.1498 50.634L29.564 49.2198C29.5874 49.2432 29.6006 49.275 29.6006 49.3082H27.6006ZM28.1498 50.634C28.5014 50.9856 28.9783 51.1832 29.4756 51.1832V49.1832C29.5088 49.1832 29.5405 49.1964 29.564 49.2198L28.1498 50.634ZM29.4756 51.1832H29.8256V49.1832H29.4756V51.1832ZM28.8256 50.1832V51.4082H30.8256V50.1832H28.8256ZM28.8256 51.4082C28.8256 51.2822 28.8756 51.1614 28.9647 51.0723L30.3789 52.4865C30.6649 52.2005 30.8256 51.8126 30.8256 51.4082H28.8256ZM28.9647 51.0723C29.0538 50.9832 29.1746 50.9332 29.3006 50.9332V52.9332C29.7051 52.9332 30.0929 52.7725 30.3789 52.4865L28.9647 51.0723ZM29.3006 50.9332H29.2831V52.9332H29.3006V50.9332ZM30.2629 51.7332C30.17 51.2779 29.9113 50.8734 29.5371 50.598L28.3517 52.2089C28.3267 52.1905 28.3095 52.1635 28.3033 52.1332L30.2629 51.7332ZM29.5371 50.598C29.1628 50.3226 28.6996 50.196 28.2373 50.2427L28.4383 52.2326C28.4075 52.2357 28.3766 52.2272 28.3517 52.2089L29.5371 50.598ZM28.2373 50.2427C27.775 50.2894 27.3465 50.5061 27.0349 50.8508L28.5185 52.192C28.4977 52.215 28.4692 52.2294 28.4383 52.2326L28.2373 50.2427ZM27.0349 50.8508C26.7233 51.1954 26.5508 51.6435 26.5508 52.1082H28.5508C28.5508 52.1392 28.5393 52.169 28.5185 52.192L27.0349 50.8508ZM26.5508 52.1082C26.5508 52.5728 26.7233 53.0209 27.0349 53.3656L28.5185 52.0244C28.5393 52.0473 28.5508 52.0772 28.5508 52.1082H26.5508ZM27.0349 53.3656C27.3465 53.7103 27.775 53.927 28.2373 53.9737L28.4383 51.9838C28.4692 51.9869 28.4977 52.0014 28.5185 52.0244L27.0349 53.3656ZM28.2373 53.9737C28.6996 54.0204 29.1628 53.8938 29.5371 53.6184L28.3517 52.0075C28.3766 51.9891 28.4075 51.9807 28.4383 51.9838L28.2373 53.9737ZM29.5371 53.6184C29.9113 53.343 30.17 52.9385 30.2629 52.4832L28.3033 52.0832C28.3095 52.0528 28.3267 52.0259 28.3517 52.0075L29.5371 53.6184ZM29.2831 53.2832H29.3006V51.2832H29.2831V53.2832ZM29.3006 53.2832C29.7979 53.2832 30.2748 53.0856 30.6264 52.734L29.2122 51.3198C29.2357 51.2964 29.2675 51.2832 29.3006 51.2832V53.2832ZM30.6264 52.734C30.9781 52.3824 31.1756 51.9055 31.1756 51.4082H29.1756C29.1756 51.375 29.1888 51.3432 29.2122 51.3198L30.6264 52.734ZM30.1756 52.4082H30.6131V50.4082H30.1756V52.4082ZM30.6131 52.4082C30.4639 52.4082 30.3208 52.3489 30.2154 52.2434L31.6296 50.8292C31.36 50.5596 30.9944 50.4082 30.6131 50.4082V52.4082ZM30.2154 52.2434C30.1099 52.1379 30.0506 51.9949 30.0506 51.8457H32.0506C32.0506 51.4644 31.8992 51.0988 31.6296 50.8292L30.2154 52.2434ZM30.0506 51.8479C30.0517 52.3211 30.2401 52.7746 30.5747 53.1091L31.9889 51.6949C32.0283 51.7343 32.0505 51.7877 32.0506 51.8435L30.0506 51.8479ZM30.5747 53.1091C30.9092 53.4437 31.3627 53.6321 31.8359 53.6332L31.8403 51.6332C31.896 51.6333 31.9495 51.6555 31.9889 51.6949L30.5747 53.1091ZM31.8381 53.6332H32.1006V51.6332H31.8381V53.6332ZM33.1006 52.6332V52.2832H31.1006V52.6332H33.1006ZM32.1006 51.2832H31.8381V53.2832H32.1006V51.2832ZM31.8381 51.2832C31.9873 51.2832 32.1304 51.3424 32.2358 51.4479L30.8216 52.8622C31.0912 53.1317 31.4569 53.2832 31.8381 53.2832V51.2832ZM32.2358 51.4479C32.3413 51.5534 32.4006 51.6965 32.4006 51.8457H30.4006C30.4006 52.2269 30.5521 52.5926 30.8216 52.8622L32.2358 51.4479ZM32.4006 51.8435C32.3996 51.3703 32.2111 50.9168 31.8765 50.5822L30.4623 51.9965C30.4229 51.957 30.4007 51.9036 30.4006 51.8479L32.4006 51.8435ZM31.8765 50.5822C31.542 50.2477 31.0885 50.0592 30.6153 50.0582L30.6109 52.0582C30.5552 52.0581 30.5017 52.0359 30.4623 51.9965L31.8765 50.5822ZM30.6131 50.0582H30.1756V52.0582H30.6131V50.0582ZM31.1756 51.0582V49.6582H29.1756V51.0582H31.1756ZM31.5756 49.4332C31.4817 49.4332 31.3898 49.4053 31.3117 49.3531L32.4228 47.6902C32.1721 47.5226 31.8772 47.4332 31.5756 47.4332V49.4332ZM31.3117 49.3531C31.2336 49.3009 31.1727 49.2268 31.1368 49.14L32.9845 48.3746C32.8691 48.0959 32.6736 47.8578 32.4228 47.6902L31.3117 49.3531ZM31.1368 49.14C31.1008 49.0532 31.0914 48.9577 31.1097 48.8655L33.0713 49.2557C33.1301 48.9599 33.0999 48.6533 32.9845 48.3746L31.1368 49.14ZM31.1097 48.8655C31.1281 48.7734 31.1733 48.6887 31.2397 48.6223L32.6539 50.0365C32.8672 49.8233 33.0125 49.5515 33.0713 49.2557L31.1097 48.8655ZM31.2397 48.6223C31.3062 48.5559 31.3908 48.5106 31.4829 48.4923L31.8731 50.4539C32.1689 50.395 32.4407 50.2498 32.6539 50.0365L31.2397 48.6223ZM31.4829 48.4923C31.5751 48.474 31.6706 48.4834 31.7574 48.5193L30.992 50.3671C31.2707 50.4825 31.5773 50.5127 31.8731 50.4539L31.4829 48.4923ZM31.7574 48.5193C31.8442 48.5553 31.9184 48.6162 31.9705 48.6943L30.3076 49.8054C30.4752 50.0562 30.7134 50.2517 30.992 50.3671L31.7574 48.5193ZM31.9705 48.6943C32.0227 48.7724 32.0506 48.8642 32.0506 48.9582H30.0506C30.0506 49.2598 30.14 49.5546 30.3076 49.8054L31.9705 48.6943ZM32.0506 48.9582C32.0506 49.0842 32.0006 49.205 31.9115 49.2941L30.4973 47.8799C30.2113 48.1658 30.0506 48.5537 30.0506 48.9582H32.0506ZM31.9115 49.2941C31.8224 49.3831 31.7016 49.4332 31.5756 49.4332V47.4332C31.1711 47.4332 30.7833 47.5939 30.4973 47.8799L31.9115 49.2941ZM28.4256 51.6332C28.5195 51.6332 28.6114 51.661 28.6895 51.7132L27.5784 53.3762C27.8291 53.5437 28.124 53.6332 28.4256 53.6332V51.6332ZM28.6895 51.7132C28.7676 51.7654 28.8285 51.8396 28.8644 51.9264L27.0167 52.6918C27.1321 52.9704 27.3276 53.2086 27.5784 53.3762L28.6895 51.7132ZM28.8644 51.9264C28.9004 52.0132 28.9098 52.1087 28.8915 52.2009L26.9299 51.8107C26.8711 52.1065 26.9013 52.4131 27.0167 52.6918L28.8644 51.9264ZM28.8915 52.2009C28.8731 52.293 28.8279 52.3776 28.7615 52.4441L27.3473 51.0298C27.134 51.2431 26.9887 51.5149 26.9299 51.8107L28.8915 52.2009ZM28.7615 52.4441C28.695 52.5105 28.6104 52.5557 28.5183 52.5741L28.1281 50.6125C27.8323 50.6713 27.5605 50.8166 27.3473 51.0298L28.7615 52.4441ZM28.5183 52.5741C28.4261 52.5924 28.3306 52.583 28.2438 52.547L29.0092 50.6993C28.7305 50.5838 28.4239 50.5536 28.1281 50.6125L28.5183 52.5741ZM28.2438 52.547C28.157 52.5111 28.0828 52.4502 28.0307 52.3721L29.6936 51.2609C29.526 51.0102 29.2879 50.8147 29.0092 50.6993L28.2438 52.547ZM28.0307 52.3721C27.9785 52.294 27.9506 52.2021 27.9506 52.1082H29.9506C29.9506 51.8066 29.8612 51.5117 29.6936 51.2609L28.0307 52.3721ZM27.9506 52.1082C27.9506 51.9822 28.0006 51.8614 28.0897 51.7723L29.5039 53.1865C29.7899 52.9005 29.9506 52.5126 29.9506 52.1082H27.9506ZM28.0897 51.7723C28.1788 51.6832 28.2996 51.6332 28.4256 51.6332V53.6332C28.8301 53.6332 29.2179 53.4725 29.5039 53.1865L28.0897 51.7723Z" fill="#0A1214" mask="url(#path-7-inside-1_3016_7798)"/>
</g>
<path d="M29.9067 22.6265L29.9067 16.9332M29.9067 16.9332L29.3467 17.5865M29.9067 16.9332L30.4667 17.5865" stroke="#0A1214" stroke-width="0.8" stroke-linecap="round" stroke-linejoin="round"/>
<path d="M37.4668 29.9998L43.1601 29.9998M43.1601 29.9998L42.5068 29.4398M43.1601 29.9998L42.5068 30.5598" stroke="#0A1214" stroke-width="0.8" stroke-linecap="round" stroke-linejoin="round"/>
<path d="M29.9068 37.4666L29.9068 43.0665M29.9068 43.0665L30.4668 42.4132M29.9068 43.0665L29.3468 42.4132" stroke="#0A1214" stroke-width="0.8" stroke-linecap="round" stroke-linejoin="round"/>
<path d="M16.8333 9.46666C16.8333 13.5351 13.5352 16.8333 9.46667 16.8333C5.39817 16.8333 2.1 13.5351 2.1 9.46666C2.1 5.39816 5.39817 2.1 9.46667 2.1C13.5352 2.1 16.8333 5.39816 16.8333 9.46666Z" stroke="#0A1214" stroke-width="0.2"/>
<path d="M57.8997 9.46666C57.8997 13.5351 54.6016 16.8333 50.5331 16.8333C46.4646 16.8333 43.1664 13.5351 43.1664 9.46666C43.1664 5.39816 46.4646 2.1 50.5331 2.1C54.6016 2.1 57.8997 5.39816 57.8997 9.46666Z" stroke="#0A1214" stroke-width="0.2"/>
<path d="M16.8333 50.5334C16.8333 54.6018 13.5352 57.9 9.46667 57.9C5.39817 57.9 2.1 54.6018 2.1 50.5334C2.1 46.4649 5.39817 43.1667 9.46667 43.1667C13.5352 43.1667 16.8333 46.4649 16.8333 50.5334Z" stroke="#0A1214" stroke-width="0.2"/>
<path d="M57.8997 50.5334C57.8997 54.6018 54.6016 57.9 50.5331 57.9C46.4646 57.9 43.1664 54.6018 43.1664 50.5334C43.1664 46.4649 46.4646 43.1667 50.5331 43.1667C54.6016 43.1667 57.8997 46.4649 57.8997 50.5334Z" stroke="#0A1214" stroke-width="0.2"/>
<path d="M57.8997 30C57.8997 34.0685 54.6016 37.3666 50.5331 37.3666C46.4646 37.3666 43.1664 34.0685 43.1664 30C43.1664 25.9315 46.4646 22.6333 50.5331 22.6333C54.6016 22.6333 57.8997 25.9315 57.8997 30Z" fill="#0A1214" stroke="#0A1214" stroke-width="0.2"/>
<g clip-path="url(#clip1_3016_7798)">
<path d="M52.7909 28.8216H51.8867V29.1833H52.7909V30.2683H51.525V30.63H52.0675V31.0173C51.8971 31.0613 51.7485 31.166 51.6497 31.3117C51.5509 31.4574 51.5086 31.6342 51.5308 31.8088C51.553 31.9835 51.6381 32.144 51.7702 32.2604C51.9023 32.3768 52.0723 32.441 52.2484 32.441C52.4244 32.441 52.5944 32.3768 52.7265 32.2604C52.8586 32.144 52.9438 31.9835 52.9659 31.8088C52.9881 31.6342 52.9458 31.4574 52.847 31.3117C52.7482 31.166 52.5997 31.0613 52.4292 31.0173V30.63H52.7909C52.8868 30.6298 52.9787 30.5917 53.0465 30.5239C53.1143 30.4561 53.1524 30.3642 53.1525 30.2683V29.1833C53.1524 29.0874 53.1143 28.9955 53.0465 28.9277C52.9787 28.8599 52.8868 28.8217 52.7909 28.8216ZM52.61 31.715C52.61 31.7865 52.5888 31.8564 52.5491 31.9159C52.5093 31.9754 52.4529 32.0217 52.3868 32.0491C52.3207 32.0765 52.248 32.0836 52.1778 32.0697C52.1077 32.0557 52.0432 32.0213 51.9926 31.9707C51.9421 31.9201 51.9076 31.8557 51.8937 31.7855C51.8797 31.7154 51.8869 31.6426 51.9142 31.5766C51.9416 31.5105 51.988 31.454 52.0474 31.4142C52.1069 31.3745 52.1768 31.3533 52.2484 31.3533C52.3443 31.3534 52.4362 31.3916 52.504 31.4594C52.5718 31.5272 52.6099 31.6191 52.61 31.715Z" fill="white"/>
<path d="M50.9825 28.0983H50.0784V28.46H50.9825V29.545H49.7167V29.9066H50.2592V31.0173C50.0887 31.0613 49.9402 31.166 49.8414 31.3117C49.7426 31.4574 49.7003 31.6342 49.7225 31.8088C49.7447 31.9835 49.8298 32.144 49.9619 32.2604C50.094 32.3768 50.264 32.441 50.44 32.441C50.6161 32.441 50.7861 32.3768 50.9182 32.2604C51.0503 32.144 51.1354 31.9835 51.1576 31.8088C51.1798 31.6342 51.1375 31.4574 51.0387 31.3117C50.9399 31.166 50.7913 31.0613 50.6209 31.0173V29.9066H50.9825C51.0784 29.9065 51.1704 29.8684 51.2382 29.8006C51.306 29.7328 51.3441 29.6408 51.3442 29.545V28.46C51.3441 28.3641 51.306 28.2721 51.2382 28.2043C51.1704 28.1365 51.0784 28.0984 50.9825 28.0983ZM50.8017 31.715C50.8017 31.7865 50.7805 31.8564 50.7408 31.9159C50.701 31.9754 50.6445 32.0217 50.5784 32.0491C50.5124 32.0765 50.4396 32.0836 50.3695 32.0697C50.2993 32.0557 50.2349 32.0213 50.1843 31.9707C50.1337 31.9201 50.0993 31.8557 50.0853 31.7855C50.0714 31.7154 50.0785 31.6426 50.1059 31.5766C50.1333 31.5105 50.1796 31.454 50.2391 31.4142C50.2986 31.3745 50.3685 31.3533 50.44 31.3533C50.5359 31.3534 50.6278 31.3916 50.6956 31.4594C50.7634 31.5272 50.8016 31.6191 50.8017 31.715Z" fill="white"/>
<path d="M49.1742 27.375H48.0892C47.9933 27.3751 47.9014 27.4132 47.8336 27.481C47.7658 27.5488 47.7276 27.6407 47.7275 27.7366V28.8216C47.7276 28.9175 47.7658 29.0095 47.8336 29.0773C47.9014 29.1451 47.9933 29.1832 48.0892 29.1833H48.4509V31.0173C48.2804 31.0613 48.1318 31.166 48.033 31.3117C47.9342 31.4574 47.892 31.6342 47.9141 31.8088C47.9363 31.9835 48.0214 32.144 48.1535 32.2604C48.2856 32.3768 48.4557 32.441 48.6317 32.441C48.8078 32.441 48.9778 32.3768 49.1099 32.2604C49.242 32.144 49.3271 31.9835 49.3493 31.8088C49.3715 31.6342 49.3292 31.4574 49.2304 31.3117C49.1316 31.166 48.983 31.0613 48.8125 31.0173V29.1833H49.1742C49.2701 29.1832 49.362 29.1451 49.4298 29.0773C49.4976 29.0095 49.5358 28.9175 49.5359 28.8216V27.7366C49.5358 27.6407 49.4976 27.5488 49.4298 27.481C49.362 27.4132 49.2701 27.3751 49.1742 27.375ZM48.9934 31.715C48.9934 31.7865 48.9722 31.8564 48.9324 31.9159C48.8927 31.9754 48.8362 32.0217 48.7701 32.0491C48.704 32.0765 48.6313 32.0836 48.5611 32.0697C48.491 32.0557 48.4265 32.0213 48.376 31.9707C48.3254 31.9201 48.2909 31.8557 48.277 31.7855C48.263 31.7154 48.2702 31.6426 48.2976 31.5766C48.3249 31.5105 48.3713 31.454 48.4308 31.4142C48.4903 31.3745 48.5602 31.3533 48.6317 31.3533C48.7276 31.3534 48.8195 31.3915 48.8873 31.4593C48.9551 31.5271 48.9933 31.6191 48.9934 31.715ZM48.0892 28.8216V27.7366H49.1742L49.1745 28.8216H48.0892Z" fill="white"/>
</g>
<path d="M16.8333 30C16.8333 34.0685 13.5352 37.3666 9.46667 37.3666C5.39817 37.3666 2.1 34.0685 2.1 30C2.1 25.9315 5.39817 22.6333 9.46667 22.6333C13.5352 22.6333 16.8333 25.9315 16.8333 30Z" stroke="#0A1214" stroke-width="0.2"/>
<defs>
<radialGradient id="paint0_radial_3016_7798" cx="0" cy="0" r="1" gradientUnits="userSpaceOnUse" gradientTransform="translate(29.9999 30) rotate(90) scale(7.46666 7.46667)">
<stop offset="0.536458" stop-color="white" stop-opacity="0"/>
<stop offset="1" stop-color="#34DBFF" stop-opacity="0.4"/>
</radialGradient>
<clipPath id="clip0_3016_7798">
<rect width="5.6" height="5.59999" fill="white" transform="translate(27.2002 47.7332)"/>
</clipPath>
<clipPath id="clip1_3016_7798">
<rect width="5.78667" height="5.78666" fill="white" transform="translate(47.5469 27.0133)"/>
</clipPath>
</defs>
</svg>
