<svg width="349" height="80" viewBox="0 0 349 80" fill="none" xmlns="http://www.w3.org/2000/svg">
<path fill-rule="evenodd" clip-rule="evenodd" d="M3.71915 62.8839H14.2188V55.4456H7.47624V7.51417H46.7297C57.3558 7.51417 64.7814 13.4471 68.9686 21.695C71.2954 26.4036 72.6792 31.5217 73.042 36.7613C73.4705 42.1077 72.9218 47.4875 71.4228 52.6373C68.5132 62.3526 61.9225 70.3095 51.8024 72.0806C47.8918 72.5603 43.9471 72.7 40.0124 72.498C37.8999 72.4221 35.7114 72.4221 34.6614 72.4221V79.8983H39.8986C44.2944 80.132 48.7024 79.9626 53.0674 79.3923C66.4133 77.0774 74.9015 66.9952 78.5701 54.7372C80.3641 48.7209 81.0415 42.427 80.5688 36.1668C80.1269 29.9414 78.477 23.8615 75.7112 18.2668C70.3095 7.59008 60.7207 0 46.8056 0H0V62.8839H3.71915ZM44.8701 17.2168H18.3047L18.2668 24.7436H18.3047V55.4076H18.2668V62.8585L18.3047 62.8587V72.4853L0.404774 72.3841L0.430074 79.835L22.0492 79.9109L25.781 79.873V62.8801C33.7806 62.8953 41.3811 62.8819 43.0737 62.7953H43.4532L43.4828 62.7939C48.6568 62.5525 63.0357 61.8814 63.0357 40.4172C62.9851 18.4818 44.9333 17.2168 44.8701 17.2168ZM25.781 55.4076H42.6942H43.0864C46.3754 55.2558 55.5974 54.8257 55.5721 40.4804C55.5721 26.4767 45.7682 24.8954 44.4526 24.7436H25.781V55.4076Z" fill="url(#paint0_linear_931_10184)"/>
<path fill-rule="evenodd" clip-rule="evenodd" d="M348.754 48.7262V31.3354C348.802 29.5177 348.463 27.7105 347.758 26.0343C347.053 24.3581 345.999 22.8514 344.666 21.6144C343.334 20.3407 341.763 19.3425 340.044 18.6768C338.325 18.0111 336.491 17.691 334.648 17.7349H312.352C308.631 17.6495 305.027 19.0448 302.334 21.6144C301.001 22.8514 299.947 24.3581 299.242 26.0343C298.538 27.7105 298.198 29.5177 298.246 31.3354V48.7262C298.197 50.5441 298.536 52.3515 299.241 54.0279C299.946 55.7042 301 57.2109 302.334 58.4472C305.027 61.0168 308.631 62.4122 312.352 62.3267H334.648C336.491 62.3706 338.325 62.0506 340.044 61.3849C341.763 60.7192 343.334 59.7209 344.666 58.4472C346 57.2109 347.054 55.7042 347.759 54.0279C348.464 52.3515 348.803 50.5441 348.754 48.7262ZM340.46 48.7262C340.46 52.3382 338.111 54.0475 334.648 54.0475H312.352C308.889 54.0475 306.54 52.3382 306.54 48.7262V31.3503C306.54 27.7384 308.889 26.029 312.352 26.029H334.648C338.111 26.029 340.46 27.7384 340.46 31.3503V48.7262Z" fill="#01020C"/>
<path fill-rule="evenodd" clip-rule="evenodd" d="M238.122 17.6755V25.9695H272.056C275.505 25.9695 277.69 27.7532 277.69 31.2908V48.6519C277.69 52.1895 275.505 53.9732 272.056 53.9732H246.49V35.2446H238.196V62.2673H272.056C273.89 62.3131 275.715 61.9938 277.425 61.3278C279.135 60.6617 280.695 59.6623 282.015 58.3878C283.339 57.1462 284.384 55.6376 285.081 53.9617C285.778 52.2858 286.111 50.481 286.058 48.6668V31.276C286.111 29.4617 285.778 27.6569 285.081 25.981C284.384 24.3051 283.339 22.7965 282.015 21.555C280.695 20.2804 279.135 19.281 277.425 18.615C275.715 17.9489 273.89 17.6296 272.056 17.6755H238.122Z" fill="#01020C"/>
<path fill-rule="evenodd" clip-rule="evenodd" d="M225.859 62.2673V30.9044C225.932 27.4613 224.725 24.1137 222.47 21.5104C221.405 20.2587 220.072 19.2637 218.569 18.5997C217.066 17.9356 215.432 17.6197 213.79 17.6755H187.971C186.345 17.6258 184.728 17.9449 183.243 18.6091C181.757 19.2733 180.442 20.2652 179.394 21.5104C177.129 24.1085 175.916 27.4584 175.991 30.9044V62.2673H184.3V31.053C184.3 28.6302 185.132 26.0885 187.971 26.0885H213.79C216.658 26.0885 217.565 28.5707 217.565 31.053V39.0795H193.961V47.3736H217.565V62.2673H225.859Z" fill="#01020C"/>
<path fill-rule="evenodd" clip-rule="evenodd" d="M112.715 17.6755V25.925C127.579 25.925 136.869 25.925 151.703 25.925C155.003 25.925 155.478 29.7747 155.478 32.2867C155.478 34.7987 154.973 38.5444 151.703 38.5444H112.715V62.2673H121.009V46.9426H151.658C153.406 46.9972 155.139 46.6104 156.698 45.818C158.257 45.0257 159.591 43.8532 160.577 42.409C162.757 39.5327 163.889 35.9984 163.787 32.3908C163.875 28.7416 162.74 25.1678 160.562 22.2387C159.574 20.819 158.249 19.6678 156.704 18.8892C155.16 18.1107 153.446 17.7293 151.718 17.7795L112.715 17.6755Z" fill="#01020C"/>
<defs>
<linearGradient id="paint0_linear_931_10184" x1="40.3574" y1="0" x2="40.3574" y2="80" gradientUnits="userSpaceOnUse">
<stop stop-color="#78E1FB"/>
<stop offset="1" stop-color="#70FFBD"/>
</linearGradient>
</defs>
</svg>
