<svg width="262" height="161" viewBox="0 0 262 161" fill="none" xmlns="http://www.w3.org/2000/svg">
    <g clip-path="url(#clip0_8537_30777)">
        <path d="M158.664 0H103.336C98.2437 0 94.1152 4.12848 94.1152 9.22121V64.5485C94.1152 69.6412 98.2437 73.7697 103.336 73.7697H158.664C163.756 73.7697 167.885 69.6412 167.885 64.5485V9.22121C167.885 4.12848 163.756 0 158.664 0Z" fill="#FD4C00"/>
        <path d="M153.128 9.22119H108.872V14.7523C108.872 17.8062 111.349 20.2833 114.403 20.2833H147.597V53.478H125.469C122.415 53.478 119.938 55.9552 119.938 59.0091V64.5402H153.133C156.186 64.5402 158.664 62.063 158.664 59.0091V14.7564C158.664 11.7025 156.186 9.22534 153.133 9.22534L153.128 9.22119Z" fill="white"/>
        <path d="M123.573 46.6524C124.979 45.2458 126.506 45.0964 130.896 45.0964C135.286 45.0964 139.195 41.3827 139.195 36.7977C139.195 32.2127 135.481 28.499 130.896 28.499C126.311 28.499 122.598 32.2127 122.598 36.7977C122.598 42.9719 121.614 43.8267 121.129 44.4034C120.378 45.2955 113.863 51.6689 113.863 51.6689C113.112 52.3245 111.428 53.4822 108.872 53.4822H106.104C104.577 53.4822 103.336 54.7187 103.336 56.2498V61.7809C103.336 63.3078 104.573 64.5485 106.104 64.5485H111.635C113.162 64.5485 114.403 63.312 114.403 61.7809V59.0133C114.403 55.615 116.656 53.5818 116.656 53.5818L123.573 46.6524Z" fill="white"/>
    </g>
    <path d="M0.629395 100.906H4.16169C6.46262 100.906 8.32942 102.773 8.32942 105.074V105.405H8.41624C9.05166 101.829 13.8074 100.042 22.6875 100.042C27.9919 100.042 31.9978 101.151 34.7092 103.373C37.4206 105.595 38.7743 108.432 38.7743 111.893V129.105C38.7743 131.584 38.4151 133.746 37.6929 135.593C36.9706 137.44 36.0353 138.881 34.8828 139.919C33.8449 140.902 32.4161 141.679 30.6007 142.255C28.7852 142.832 26.9815 143.207 25.1937 143.38C23.5795 143.554 21.618 143.641 19.3131 143.641C16.7754 143.641 14.4547 143.337 12.3511 142.733C10.2475 142.129 8.93326 141.249 8.41624 140.097V156.602C8.41624 158.903 6.54945 160.769 4.24852 160.769H0.629395V100.906ZM26.358 137.709C27.9445 137.275 29.0812 136.485 29.7758 135.329C30.4665 134.177 30.8138 132.416 30.8138 130.052V114.656C30.8138 112.063 30.4665 110.129 29.7758 108.862C29.0851 107.595 27.9445 106.743 26.358 106.313C24.7714 105.879 22.4507 105.666 19.396 105.666C16.3412 105.666 14.064 105.883 12.5642 106.313C11.0645 106.747 9.99887 107.584 9.36345 108.819C8.72803 110.058 8.41229 112.004 8.41229 114.656V130.052C8.41229 132.416 8.74381 134.177 9.40686 135.329C10.0699 136.481 11.1789 137.275 12.7379 137.709C14.2929 138.139 16.5425 138.356 19.4828 138.356C22.4231 138.356 24.7714 138.139 26.358 137.709Z" fill="#FD4C00"/>
    <path d="M50.6185 100.905H53.8034C56.1044 100.905 57.9712 102.772 57.9712 105.073V107.741C57.9712 106.415 58.5474 105.16 59.6998 103.98C60.8523 102.8 62.3244 101.849 64.1122 101.126C65.9001 100.408 67.6564 100.045 69.389 100.045H73.1936V104.623C73.1936 105.772 72.2622 106.707 71.1097 106.707H68.868C65.1778 106.707 62.5099 107.185 60.868 108.136C59.2262 109.087 58.4014 110.804 58.4014 113.282V138.608C58.4014 140.909 56.5346 142.776 54.2336 142.776H50.6145V100.905H50.6185Z" fill="#FD4C00"/>
    <path d="M87.1178 85.7695H90.7369C91.8854 85.7695 92.8208 86.701 92.8208 87.8534V91.8159C92.8208 92.9644 91.8894 93.8997 90.7369 93.8997H87.1178C85.9693 93.8997 85.0339 92.9683 85.0339 91.8159V87.8534C85.0339 86.7049 85.9654 85.7695 87.1178 85.7695ZM85.0339 100.905H88.6531C90.954 100.905 92.8208 102.772 92.8208 105.073V138.604C92.8208 140.905 90.954 142.772 88.6531 142.772H85.0339V100.905Z" fill="#FD4C00"/>
    <path d="M104.673 100.905H108.292C110.593 100.905 112.46 102.772 112.46 105.073V106.008C113.265 102.03 117.965 100.041 126.557 100.041C133.535 100.041 137.888 101.943 139.617 105.748C140.138 103.904 141.705 102.491 144.329 101.509C146.954 100.53 150.167 100.037 153.971 100.037C159.161 100.037 162.824 101.004 164.955 102.934C167.086 104.867 168.156 107.906 168.156 112.058V138.596C168.156 140.897 166.289 142.764 163.988 142.764H160.369V112.579C160.369 111.486 160.282 110.59 160.108 109.899C159.935 109.209 159.591 108.514 159.07 107.823C157.918 106.383 155.353 105.661 151.374 105.661C148.316 105.661 146.038 105.862 144.543 106.265C143.043 106.667 142.021 107.362 141.472 108.34C140.923 109.323 140.651 110.732 140.651 112.579V138.6C140.651 140.901 138.784 142.768 136.483 142.768H132.864V112.583C132.864 111.49 132.777 110.594 132.604 109.903C132.43 109.213 132.087 108.518 131.566 107.827C130.413 106.387 127.876 105.665 123.953 105.665C120.779 105.665 118.388 105.866 116.774 106.268C115.159 106.671 114.035 107.35 113.399 108.301C112.764 109.252 112.448 110.681 112.448 112.583V138.604C112.448 140.905 110.581 142.772 108.28 142.772H104.661V100.905H104.673Z" fill="#FD4C00"/>
    <path d="M183.239 140.736C181.076 138.806 179.995 135.764 179.995 131.612V100.906H183.614C185.915 100.906 187.782 102.773 187.782 105.074V131.181C187.782 132.279 187.88 133.159 188.086 133.818C188.287 134.481 188.646 135.16 189.167 135.85C190.205 137.35 192.743 138.1 196.78 138.1C201.047 138.1 204.046 137.697 205.775 136.888C207.448 136.083 208.281 134.611 208.281 132.476V100.906H211.9C214.201 100.906 216.068 102.773 216.068 105.074V138.605C216.068 140.906 214.201 142.773 211.9 142.773H208.281V137.67C207.531 141.648 202.949 143.637 194.531 143.637C189.167 143.637 185.406 142.67 183.243 140.74L183.239 140.736Z" fill="#FD4C00"/>
    <path d="M228.771 142.595V139.063C228.771 137.788 229.912 136.813 231.171 137.006C236.676 137.851 240.722 138.269 243.299 138.269C246.989 138.269 249.641 137.91 251.255 137.188C252.87 136.47 253.679 135.128 253.679 133.166V128.927C253.679 127.14 253.075 125.873 251.863 125.123C250.652 124.373 248.69 123.998 245.983 123.998H241.227C236.901 123.998 233.602 123.106 231.325 121.318C229.047 119.53 227.907 117.024 227.907 113.792V109.9C227.907 103.325 234.135 100.042 246.586 100.042C247.51 100.042 251.745 100.274 259.299 100.732V103.941C259.299 105.204 258.182 106.179 256.931 106.005C252.814 105.433 249.25 105.145 246.239 105.145C242.142 105.145 239.348 105.547 237.848 106.356C236.349 107.165 235.599 108.519 235.599 110.421V113.965C235.599 116.791 238.164 118.204 243.295 118.204H248.138C256.958 118.204 261.371 121.492 261.371 128.063V131.694C261.371 136.02 259.871 139.09 256.872 140.906C253.872 142.721 249.29 143.629 243.121 143.629C238.681 143.629 233.953 143.293 228.822 142.603L228.771 142.595Z" fill="#FD4C00"/>
    <defs>
        <clipPath id="clip0_8537_30777">
            <rect width="73.7697" height="73.7697" fill="white" transform="translate(94.1152)"/>
        </clipPath>
    </defs>
</svg>
