<svg width="140" height="131" viewBox="0 0 140 131" fill="none" xmlns="http://www.w3.org/2000/svg">
<path d="M30 16C30 7.16344 37.1635 0 46 0H94C102.837 0 110 7.16344 110 16V64C110 72.8366 102.837 80 94 80H46C37.1635 80 30 72.8366 30 64V16Z" fill="url(#paint0_linear_2853_26739)"/>
<path fill-rule="evenodd" clip-rule="evenodd" d="M50.509 53.4537H56.6511V49.1023H52.7068V21.0624H75.6693C81.8854 21.0624 86.2293 24.5332 88.6787 29.3582C90.0399 32.1127 90.8493 35.1068 91.0616 38.172C91.3123 41.2996 90.9913 44.4468 90.1143 47.4594C88.4123 53.1429 84.5569 57.7977 78.6368 58.8337C76.3492 59.1144 74.0416 59.1961 71.7399 59.0779C70.5042 59.0336 69.2241 59.0336 68.6098 59.0336H68.6096V63.4072H71.6733C74.2448 63.5438 76.8234 63.4448 79.3768 63.1111C87.1839 61.7569 92.1494 55.8588 94.2954 48.6879C95.3449 45.1684 95.7411 41.4864 95.4646 37.8242C95.2061 34.1823 94.241 30.6256 92.623 27.3527C89.4631 21.1068 83.8539 16.6666 75.7137 16.6666H48.3334V53.4537H50.509ZM74.5815 26.7384H59.0413L59.0191 31.1416H59.0413V49.08H59.0191V53.4388L59.0413 53.4389V59.0705L48.5702 59.0113L48.585 63.3701L61.2317 63.4145L63.4148 63.3923V53.4514C68.0944 53.4603 72.5405 53.4524 73.5307 53.4018H73.7527L73.77 53.401C76.7967 53.2597 85.2081 52.8672 85.2081 40.3106C85.1785 27.4784 74.6185 26.7384 74.5815 26.7384ZM63.4148 49.08H73.3087H73.5381C75.4621 48.9912 80.8568 48.7396 80.842 40.3476C80.842 32.1554 75.1069 31.2304 74.3373 31.1416H63.4148V49.08Z" fill="white"/>
<path fill-rule="evenodd" clip-rule="evenodd" d="M139.762 122.358V112.078C139.79 111.004 139.589 109.936 139.173 108.945C138.756 107.954 138.133 107.063 137.345 106.332C136.558 105.579 135.629 104.989 134.613 104.596C133.597 104.202 132.513 104.013 131.423 104.039H118.244C116.044 103.988 113.914 104.813 112.322 106.332C111.534 107.063 110.911 107.954 110.495 108.945C110.078 109.936 109.877 111.004 109.906 112.078V122.358C109.877 123.433 110.077 124.501 110.494 125.492C110.91 126.483 111.534 127.374 112.322 128.104C113.914 129.623 116.044 130.448 118.244 130.398H131.423C132.513 130.424 133.597 130.234 134.613 129.841C135.629 129.447 136.558 128.857 137.345 128.104C138.134 127.374 138.757 126.483 139.174 125.492C139.59 124.501 139.791 123.433 139.762 122.358ZM134.859 122.358C134.859 124.493 133.471 125.504 131.423 125.504H118.244C116.197 125.504 114.809 124.493 114.809 122.358V112.087C114.809 109.952 116.197 108.942 118.244 108.942H131.423C133.471 108.942 134.859 109.952 134.859 112.087V122.358Z" fill="#01020C"/>
<path fill-rule="evenodd" clip-rule="evenodd" d="M74.3654 104.004V108.906H94.4245C96.4629 108.906 97.7544 109.961 97.7544 112.052V122.314C97.7544 124.405 96.4629 125.46 94.4245 125.46H79.3121V114.389H74.4094V130.362H94.4245C95.5087 130.39 96.5875 130.201 97.5982 129.807C98.6088 129.413 99.531 128.823 100.311 128.069C101.094 127.335 101.712 126.444 102.124 125.453C102.536 124.462 102.732 123.396 102.701 122.323V112.043C102.732 110.971 102.536 109.904 102.124 108.913C101.712 107.923 101.094 107.031 100.311 106.297C99.531 105.544 98.6088 104.953 97.5982 104.559C96.5875 104.165 95.5087 103.977 94.4245 104.004H74.3654Z" fill="#01020C"/>
<path fill-rule="evenodd" clip-rule="evenodd" d="M67.1167 130.363V111.823C67.1601 109.788 66.4462 107.809 65.1135 106.271C64.4841 105.531 63.6958 104.943 62.8073 104.55C61.9188 104.158 60.9531 103.971 59.9823 104.004H44.7206C43.7592 103.974 42.8037 104.163 41.9257 104.556C41.0477 104.948 40.27 105.535 39.6509 106.271C38.3121 107.806 37.5946 109.787 37.6388 111.823V130.363H42.5504V111.911C42.5504 110.479 43.0424 108.977 44.7206 108.977H59.9823C61.6781 108.977 62.214 110.444 62.214 111.911V116.656H48.2614V121.559H62.214V130.363H67.1167Z" fill="#01020C"/>
<path fill-rule="evenodd" clip-rule="evenodd" d="M0.235718 104.004V108.88C9.02198 108.88 14.5134 108.88 23.2821 108.88C25.2326 108.88 25.5138 111.156 25.5138 112.641C25.5138 114.125 25.2151 116.34 23.2821 116.34H0.235718V130.363H5.13845V121.304H23.2557C24.2889 121.336 25.3134 121.108 26.2348 120.639C27.1562 120.171 27.9447 119.478 28.5275 118.624C29.8161 116.924 30.4856 114.835 30.4253 112.702C30.4775 110.545 29.8063 108.433 28.5187 106.701C27.935 105.862 27.1513 105.181 26.2386 104.721C25.3258 104.261 24.3127 104.036 23.2909 104.065L0.235718 104.004Z" fill="#01020C"/>
<defs>
<linearGradient id="paint0_linear_2853_26739" x1="70" y1="0" x2="70" y2="80" gradientUnits="userSpaceOnUse">
<stop stop-color="#78E1FB"/>
<stop offset="1" stop-color="#70FFBD"/>
</linearGradient>
</defs>
</svg>
