<svg width="262" height="161" viewBox="0 0 262 161" fill="none" xmlns="http://www.w3.org/2000/svg">
    <g clip-path="url(#clip0_8537_30749)">
        <path d="M158.664 0H103.336C98.2436 0 94.1151 4.12848 94.1151 9.22121V64.5485C94.1151 69.6412 98.2436 73.7697 103.336 73.7697H158.664C163.756 73.7697 167.885 69.6412 167.885 64.5485V9.22121C167.885 4.12848 163.756 0 158.664 0Z" fill="white"/>
        <path d="M153.128 9.22119H108.871V14.7523C108.871 17.8062 111.349 20.2833 114.403 20.2833H147.597V53.478H125.469C122.415 53.478 119.938 55.9552 119.938 59.0091V64.5402H153.132C156.186 64.5402 158.664 62.063 158.664 59.0091V14.7564C158.664 11.7025 156.186 9.22534 153.132 9.22534L153.128 9.22119Z" fill="#101010"/>
        <path d="M123.573 46.6524C124.979 45.2458 126.506 45.0964 130.896 45.0964C135.286 45.0964 139.195 41.3827 139.195 36.7977C139.195 32.2127 135.481 28.499 130.896 28.499C126.311 28.499 122.598 32.2127 122.598 36.7977C122.598 42.9719 121.614 43.8267 121.129 44.4034C120.378 45.2955 113.863 51.6689 113.863 51.6689C113.112 52.3245 111.428 53.4822 108.872 53.4822H106.104C104.577 53.4822 103.336 54.7187 103.336 56.2498V61.7809C103.336 63.3078 104.573 64.5485 106.104 64.5485H111.635C113.162 64.5485 114.403 63.312 114.403 61.7809V59.0133C114.403 55.615 116.656 53.5818 116.656 53.5818L123.573 46.6524Z" fill="#101010"/>
    </g>
    <path d="M0.629272 100.906H4.16157C6.4625 100.906 8.3293 102.773 8.3293 105.074V105.405H8.41612C9.05154 101.829 13.8073 100.042 22.6874 100.042C27.9918 100.042 31.9977 101.151 34.7091 103.373C37.4204 105.595 38.7742 108.432 38.7742 111.893V129.105C38.7742 131.584 38.415 133.746 37.6928 135.593C36.9705 137.44 36.0352 138.881 34.8827 139.919C33.8447 140.902 32.416 141.679 30.6005 142.255C28.7851 142.832 26.9814 143.207 25.1936 143.38C23.5793 143.554 21.6178 143.641 19.313 143.641C16.7752 143.641 14.4546 143.337 12.351 142.733C10.2474 142.129 8.93314 141.249 8.41612 140.097V156.602C8.41612 158.903 6.54933 160.769 4.2484 160.769H0.629272V100.906ZM26.3578 137.709C27.9444 137.275 29.0811 136.485 29.7757 135.329C30.4664 134.177 30.8137 132.416 30.8137 130.052V114.656C30.8137 112.063 30.4664 110.129 29.7757 108.862C29.085 107.595 27.9444 106.743 26.3578 106.313C24.7713 105.879 22.4506 105.666 19.3959 105.666C16.3411 105.666 14.0638 105.883 12.5641 106.313C11.0644 106.747 9.99875 107.584 9.36333 108.819C8.72791 110.058 8.41217 112.004 8.41217 114.656V130.052C8.41217 132.416 8.74369 134.177 9.40674 135.329C10.0698 136.481 11.1788 137.275 12.7378 137.709C14.2928 138.139 16.5424 138.356 19.4827 138.356C22.423 138.356 24.7713 138.139 26.3578 137.709Z" fill="white"/>
    <path d="M50.6183 100.905H53.8033C56.1043 100.905 57.971 102.772 57.971 105.073V107.741C57.971 106.415 58.5473 105.16 59.6997 103.98C60.8521 102.8 62.3243 101.849 64.1121 101.126C65.9 100.408 67.6562 100.045 69.3889 100.045H73.1935V104.623C73.1935 105.772 72.2621 106.707 71.1096 106.707H68.8679C65.1777 106.707 62.5097 107.185 60.8679 108.136C59.2261 109.087 58.4012 110.804 58.4012 113.282V138.608C58.4012 140.909 56.5344 142.776 54.2335 142.776H50.6144V100.905H50.6183Z" fill="white"/>
    <path d="M87.1177 85.7695H90.7368C91.8853 85.7695 92.8207 86.701 92.8207 87.8534V91.8159C92.8207 92.9644 91.8892 93.8997 90.7368 93.8997H87.1177C85.9692 93.8997 85.0338 92.9683 85.0338 91.8159V87.8534C85.0338 86.7049 85.9652 85.7695 87.1177 85.7695ZM85.0338 100.905H88.6529C90.9539 100.905 92.8207 102.772 92.8207 105.073V138.604C92.8207 140.905 90.9539 142.772 88.6529 142.772H85.0338V100.905Z" fill="white"/>
    <path d="M104.673 100.905H108.292C110.593 100.905 112.46 102.772 112.46 105.073V106.008C113.265 102.03 117.965 100.041 126.557 100.041C133.535 100.041 137.888 101.943 139.617 105.748C140.138 103.904 141.705 102.491 144.329 101.509C146.954 100.53 150.166 100.037 153.971 100.037C159.161 100.037 162.823 101.004 164.955 102.934C167.086 104.867 168.155 107.906 168.155 112.058V138.596C168.155 140.897 166.289 142.764 163.988 142.764H160.369V112.579C160.369 111.486 160.282 110.59 160.108 109.899C159.934 109.209 159.591 108.514 159.07 107.823C157.918 106.383 155.352 105.661 151.374 105.661C148.315 105.661 146.038 105.862 144.542 106.265C143.043 106.667 142.02 107.362 141.472 108.34C140.923 109.323 140.651 110.732 140.651 112.579V138.6C140.651 140.901 138.784 142.768 136.483 142.768H132.864V112.583C132.864 111.49 132.777 110.594 132.604 109.903C132.43 109.213 132.087 108.518 131.566 107.827C130.413 106.387 127.875 105.665 123.952 105.665C120.779 105.665 118.388 105.866 116.773 106.268C115.159 106.671 114.034 107.35 113.399 108.301C112.763 109.252 112.448 110.681 112.448 112.583V138.604C112.448 140.905 110.581 142.772 108.28 142.772H104.661V100.905H104.673Z" fill="white"/>
    <path d="M183.239 140.736C181.076 138.806 179.995 135.764 179.995 131.612V100.906H183.614C185.915 100.906 187.782 102.773 187.782 105.074V131.181C187.782 132.279 187.88 133.159 188.085 133.818C188.287 134.481 188.646 135.16 189.167 135.85C190.205 137.35 192.743 138.1 196.78 138.1C201.046 138.1 204.046 137.697 205.775 136.888C207.448 136.083 208.281 134.611 208.281 132.476V100.906H211.9C214.201 100.906 216.068 102.773 216.068 105.074V138.605C216.068 140.906 214.201 142.773 211.9 142.773H208.281V137.67C207.531 141.648 202.949 143.637 194.53 143.637C189.167 143.637 185.406 142.67 183.243 140.74L183.239 140.736Z" fill="white"/>
    <path d="M228.771 142.595V139.063C228.771 137.788 229.912 136.813 231.171 137.006C236.676 137.851 240.722 138.269 243.299 138.269C246.989 138.269 249.641 137.91 251.255 137.188C252.87 136.47 253.679 135.128 253.679 133.166V128.927C253.679 127.14 253.075 125.873 251.863 125.123C250.651 124.373 248.69 123.998 245.983 123.998H241.227C236.901 123.998 233.602 123.106 231.324 121.318C229.047 119.53 227.907 117.024 227.907 113.792V109.9C227.907 103.325 234.134 100.042 246.586 100.042C247.51 100.042 251.745 100.274 259.299 100.732V103.941C259.299 105.204 258.182 106.179 256.931 106.005C252.814 105.433 249.25 105.145 246.239 105.145C242.142 105.145 239.348 105.547 237.848 106.356C236.349 107.165 235.599 108.519 235.599 110.421V113.965C235.599 116.791 238.164 118.204 243.295 118.204H248.137C256.958 118.204 261.371 121.492 261.371 128.063V131.694C261.371 136.02 259.871 139.09 256.871 140.906C253.872 142.721 249.29 143.629 243.121 143.629C238.681 143.629 233.953 143.293 228.822 142.603L228.771 142.595Z" fill="white"/>
    <defs>
        <clipPath id="clip0_8537_30749">
            <rect width="73.7697" height="73.7697" fill="white" transform="translate(94.1151)"/>
        </clipPath>
    </defs>
</svg>
