<svg width="20" height="20" viewBox="0 0 20 20" fill="none" xmlns="http://www.w3.org/2000/svg">
<path fill-rule="evenodd" clip-rule="evenodd" d="M11 3.25403C11 2.97789 11.2239 2.75403 11.5 2.75403H16.75C17.0261 2.75403 17.25 2.97789 17.25 3.25403V8.50403C17.25 8.78017 17.0261 9.00403 16.75 9.00403C16.4739 9.00403 16.25 8.78017 16.25 8.50403V3.75403H11.5C11.2239 3.75403 11 3.53017 11 3.25403Z" fill="#161616"/>
<path fill-rule="evenodd" clip-rule="evenodd" d="M4.375 3.75403C4.02982 3.75403 3.75 4.03385 3.75 4.37903V15.629C3.75 15.9742 4.02982 16.254 4.375 16.254H15.625C15.9702 16.254 16.25 15.9742 16.25 15.629V12.0567C16.25 11.7805 16.4739 11.5567 16.75 11.5567C17.0261 11.5567 17.25 11.7805 17.25 12.0567V15.629C17.25 16.5265 16.5225 17.254 15.625 17.254H4.375C3.47754 17.254 2.75 16.5265 2.75 15.629V4.37903C2.75 3.48157 3.47754 2.75403 4.375 2.75403H7.75C8.02614 2.75403 8.25 2.97789 8.25 3.25403C8.25 3.53017 8.02614 3.75403 7.75 3.75403H4.375Z" fill="#161616"/>
<path fill-rule="evenodd" clip-rule="evenodd" d="M16.7659 3.23788C16.9611 3.43314 16.9611 3.74972 16.7659 3.94498L11.0284 9.68248C10.8331 9.87775 10.5165 9.87775 10.3213 9.68248C10.126 9.48722 10.126 9.17064 10.3213 8.97538L16.0588 3.23788C16.254 3.04262 16.5706 3.04262 16.7659 3.23788Z" fill="#161616"/>
</svg>
