<svg width="12" height="12" viewBox="0 0 12 12" fill="none" xmlns="http://www.w3.org/2000/svg">
<path fill-rule="evenodd" clip-rule="evenodd" d="M10.5 1.5C10.7761 1.5 11 1.72386 11 2V6C11 6.27614 10.7761 6.5 10.5 6.5C10.2239 6.5 10 6.27614 10 6V2C10 1.72386 10.2239 1.5 10.5 1.5Z" fill="#6F6F6F"/>
<path fill-rule="evenodd" clip-rule="evenodd" d="M1.5 5.5C1.77614 5.5 2 5.72386 2 6V10C2 10.2761 1.77614 10.5 1.5 10.5C1.22386 10.5 1 10.2761 1 10V6C1 5.72386 1.22386 5.5 1.5 5.5Z" fill="#6F6F6F"/>
<path fill-rule="evenodd" clip-rule="evenodd" d="M2.40229 2.52774C3.31099 1.58641 4.58744 1 6 1C8.76142 1 11 3.23858 11 6C11 6.27614 10.7761 6.5 10.5 6.5C10.2239 6.5 10 6.27614 10 6C10 3.79087 8.20913 2 6 2C4.86981 2 3.84981 2.46807 3.12176 3.22226C2.92997 3.42094 2.61344 3.42652 2.41476 3.23473C2.21609 3.04294 2.2105 2.72641 2.40229 2.52774ZM1.5 5.5C1.77614 5.5 2 5.72386 2 6C2 8.20913 3.79087 10 6 10C7.07922 10 8.05775 9.57326 8.77774 8.87824C8.97642 8.68645 9.29295 8.69204 9.48474 8.89072C9.67652 9.08939 9.67094 9.40593 9.47226 9.59771C8.57335 10.4654 7.34858 11 6 11C3.23858 11 1 8.76142 1 6C1 5.72386 1.22386 5.5 1.5 5.5Z" fill="#6F6F6F"/>
</svg>
