<svg xmlns="http://www.w3.org/2000/svg" xmlns:xlink="http://www.w3.org/1999/xlink" fill="none" version="1.1" width="12" height="12" viewBox="0 0 12 12"><defs><clipPath id="master_svg0_0_8867"><rect x="0" y="0" width="12" height="12" rx="0"/></clipPath></defs><g clip-path="url(#master_svg0_0_8867)"><g><path d="M2.25,2.5C2.25,2.5,2.25,2,2.25,2C1.973858,2,1.75,2.223858,1.75,2.5C1.75,2.5,2.25,2.5,2.25,2.5C2.25,2.5,2.25,2.5,2.25,2.5ZM2.25,11C2.25,11,1.75,11,1.75,11C1.75,11.27614,1.973858,11.5,2.25,11.5C2.25,11.5,2.25,11,2.25,11C2.25,11,2.25,11,2.25,11ZM9.75,11C9.75,11,9.75,11.5,9.75,11.5C10.02614,11.5,10.25,11.27614,10.25,11C10.25,11,9.75,11,9.75,11C9.75,11,9.75,11,9.75,11ZM9.75,2.5C9.75,2.5,10.25,2.5,10.25,2.5C10.25,2.223858,10.02614,2,9.75,2C9.75,2,9.75,2.5,9.75,2.5C9.75,2.5,9.75,2.5,9.75,2.5ZM1.75,2.5C1.75,2.5,1.75,11,1.75,11C1.75,11,2.75,11,2.75,11C2.75,11,2.75,2.5,2.75,2.5C2.75,2.5,1.75,2.5,1.75,2.5C1.75,2.5,1.75,2.5,1.75,2.5ZM2.25,11.5C2.25,11.5,9.75,11.5,9.75,11.5C9.75,11.5,9.75,10.5,9.75,10.5C9.75,10.5,2.25,10.5,2.25,10.5C2.25,10.5,2.25,11.5,2.25,11.5C2.25,11.5,2.25,11.5,2.25,11.5ZM10.25,11C10.25,11,10.25,2.5,10.25,2.5C10.25,2.5,9.25,2.5,9.25,2.5C9.25,2.5,9.25,11,9.25,11C9.25,11,10.25,11,10.25,11C10.25,11,10.25,11,10.25,11ZM9.75,2C9.75,2,2.25,2,2.25,2C2.25,2,2.25,3,2.25,3C2.25,3,9.75,3,9.75,3C9.75,3,9.75,2,9.75,2C9.75,2,9.75,2,9.75,2Z" fill="#525252" fill-opacity="1"/></g><g><path d="M5.5,5C5.5,4.723858,5.276142,4.5,5,4.5C4.723858,4.5,4.5,4.723858,4.5,5C4.5,5,5.5,5,5.5,5C5.5,5,5.5,5,5.5,5ZM4.5,8.25C4.5,8.52614,4.723858,8.75,5,8.75C5.276142,8.75,5.5,8.52614,5.5,8.25C5.5,8.25,4.5,8.25,4.5,8.25C4.5,8.25,4.5,8.25,4.5,8.25ZM4.5,5C4.5,5,4.5,8.25,4.5,8.25C4.5,8.25,5.5,8.25,5.5,8.25C5.5,8.25,5.5,5,5.5,5C5.5,5,4.5,5,4.5,5C4.5,5,4.5,5,4.5,5Z" fill="#525252" fill-opacity="1"/></g><g><path d="M7.499999523162842,5C7.499999523162842,4.723858,7.276141523162842,4.5,6.999999523162842,4.5C6.723857523162842,4.5,6.499999523162842,4.723858,6.499999523162842,5C6.499999523162842,5,7.499999523162842,5,7.499999523162842,5C7.499999523162842,5,7.499999523162842,5,7.499999523162842,5ZM6.499999523162842,8.25C6.499999523162842,8.52614,6.723857523162842,8.75,6.999999523162842,8.75C7.276141523162842,8.75,7.499999523162842,8.52614,7.499999523162842,8.25C7.499999523162842,8.25,6.499999523162842,8.25,6.499999523162842,8.25C6.499999523162842,8.25,6.499999523162842,8.25,6.499999523162842,8.25ZM6.499999523162842,5C6.499999523162842,5,6.499999523162842,8.25,6.499999523162842,8.25C6.499999523162842,8.25,7.499999523162842,8.25,7.499999523162842,8.25C7.499999523162842,8.25,7.499999523162842,5,7.499999523162842,5C7.499999523162842,5,6.499999523162842,5,6.499999523162842,5C6.499999523162842,5,6.499999523162842,5,6.499999523162842,5Z" fill="#525252" fill-opacity="1"/></g><g><path d="M1,2C0.723858,2,0.5,2.223858,0.5,2.5C0.5,2.776142,0.723858,3,1,3C1,3,1,2,1,2C1,2,1,2,1,2ZM11,3C11.2761,3,11.5,2.776142,11.5,2.5C11.5,2.223858,11.2761,2,11,2C11,2,11,3,11,3C11,3,11,3,11,3ZM1,3C1,3,11,3,11,3C11,3,11,2,11,2C11,2,1,2,1,2C1,2,1,3,1,3C1,3,1,3,1,3Z" fill="#525252" fill-opacity="1"/></g><g><path d="M3.999999761581421,2.5C3.999999761581421,2.5,3.561552961581421,2.2596600000000002,3.561552961581421,2.2596600000000002C3.476637961581421,2.4145700000000003,3.479766961581421,2.60278,3.569783961581421,2.75478C3.659801761581421,2.90678,3.8233447615814207,3,3.999999761581421,3C3.999999761581421,3,3.999999761581421,2.5,3.999999761581421,2.5C3.999999761581421,2.5,3.999999761581421,2.5,3.999999761581421,2.5ZM4.822249761581421,1C4.822249761581421,1,4.822249761581421,0.5,4.822249761581421,0.5C4.6396497615814205,0.5,4.4715747615814205,0.599539,4.383802761581421,0.7596579999999999C4.383802761581421,0.7596579999999999,4.822249761581421,1,4.822249761581421,1C4.822249761581421,1,4.822249761581421,1,4.822249761581421,1ZM7.19426976158142,1C7.19426976158142,1,7.634749761581421,0.763398,7.634749761581421,0.763398C7.547619761581421,0.601194,7.378399761581421,0.5,7.19426976158142,0.5C7.19426976158142,0.5,7.19426976158142,1,7.19426976158142,1C7.19426976158142,1,7.19426976158142,1,7.19426976158142,1ZM7.999999761581421,2.5C7.999999761581421,2.5,7.999999761581421,3,7.999999761581421,3C8.175899761581421,3,8.338849761581422,2.90758,8.429129761581422,2.75661C8.519399761581422,2.60565,8.523709761581422,2.41835,8.440479761581422,2.2634C8.440479761581422,2.2634,7.999999761581421,2.5,7.999999761581421,2.5C7.999999761581421,2.5,7.999999761581421,2.5,7.999999761581421,2.5ZM4.438446761581421,2.74034C4.438446761581421,2.74034,5.260699761581421,1.240342,5.260699761581421,1.240342C5.260699761581421,1.240342,4.383802761581421,0.7596579999999999,4.383802761581421,0.7596579999999999C4.383802761581421,0.7596579999999999,3.561552961581421,2.2596600000000002,3.561552961581421,2.2596600000000002C3.561552961581421,2.2596600000000002,4.438446761581421,2.74034,4.438446761581421,2.74034C4.438446761581421,2.74034,4.438446761581421,2.74034,4.438446761581421,2.74034ZM4.822249761581421,1.5C4.822249761581421,1.5,7.19426976158142,1.5,7.19426976158142,1.5C7.19426976158142,1.5,7.19426976158142,0.5,7.19426976158142,0.5C7.19426976158142,0.5,4.822249761581421,0.5,4.822249761581421,0.5C4.822249761581421,0.5,4.822249761581421,1.5,4.822249761581421,1.5C4.822249761581421,1.5,4.822249761581421,1.5,4.822249761581421,1.5ZM6.753799761581421,1.236602C6.753799761581421,1.236602,7.559519761581421,2.7366,7.559519761581421,2.7366C7.559519761581421,2.7366,8.440479761581422,2.2634,8.440479761581422,2.2634C8.440479761581422,2.2634,7.634749761581421,0.763398,7.634749761581421,0.763398C7.634749761581421,0.763398,6.753799761581421,1.236602,6.753799761581421,1.236602C6.753799761581421,1.236602,6.753799761581421,1.236602,6.753799761581421,1.236602ZM7.999999761581421,2C7.999999761581421,2,3.999999761581421,2,3.999999761581421,2C3.999999761581421,2,3.999999761581421,3,3.999999761581421,3C3.999999761581421,3,7.999999761581421,3,7.999999761581421,3C7.999999761581421,3,7.999999761581421,2,7.999999761581421,2C7.999999761581421,2,7.999999761581421,2,7.999999761581421,2Z" fill="#525252" fill-opacity="1"/></g></g></svg>