<svg width="20" height="20" viewBox="0 0 20 20" fill="none" xmlns="http://www.w3.org/2000/svg">
<path fill-rule="evenodd" clip-rule="evenodd" d="M1.66667 4.58337C1.89679 4.58337 2.08333 4.76992 2.08333 5.00004V15C2.08333 15.1053 2.14695 15.2719 2.41573 15.4837C2.67981 15.6918 3.08776 15.8975 3.62901 16.0779C4.70715 16.4373 6.22309 16.6667 7.91667 16.6667C9.10928 16.6667 10.2147 16.5529 11.1413 16.3597C10.3712 15.6825 9.82979 14.7506 9.64913 13.6946C9.60585 13.4415 9.58333 13.1816 9.58333 12.9167C9.58333 11.7401 10.0273 10.6662 10.7561 9.85485C11.5076 9.01822 12.5638 8.45904 13.75 8.35207V5.00004C13.75 4.76992 13.9365 4.58337 14.1667 4.58337C14.3968 4.58337 14.5833 4.76992 14.5833 5.00004V8.75004C14.5833 8.98016 14.3968 9.16671 14.1667 9.16671C13.0585 9.16671 12.0631 9.64682 11.376 10.4117C10.7792 11.0761 10.4167 11.9536 10.4167 12.9167C10.4167 13.1343 10.4352 13.3472 10.4705 13.5541C10.6632 14.6802 11.359 15.6363 12.3198 16.1812C12.4648 16.2634 12.5468 16.4242 12.5283 16.5898C12.5098 16.7555 12.3944 16.8942 12.2348 16.9425C11.078 17.2922 9.56351 17.5 7.91667 17.5C6.15845 17.5 4.54939 17.2631 3.36548 16.8685C2.77571 16.6719 2.26837 16.4286 1.89992 16.1382C1.53616 15.8515 1.25 15.4701 1.25 15V5.00004C1.25 4.76992 1.43655 4.58337 1.66667 4.58337Z" fill="#161616"/>
<path fill-rule="evenodd" clip-rule="evenodd" d="M2.41573 4.51633C2.14695 4.72815 2.08333 4.89474 2.08333 5C2.08333 5.10526 2.14695 5.27185 2.41573 5.48367C2.67981 5.69179 3.08776 5.89743 3.62901 6.07785C4.70715 6.43723 6.22309 6.66667 7.91667 6.66667C9.61024 6.66667 11.1262 6.43723 12.2043 6.07785C12.7456 5.89743 13.1535 5.69179 13.4176 5.48367C13.6864 5.27185 13.75 5.10526 13.75 5C13.75 4.89474 13.6864 4.72815 13.4176 4.51633C13.1535 4.30821 12.7456 4.10256 12.2043 3.92215C11.1262 3.56276 9.61024 3.33333 7.91667 3.33333C6.22309 3.33333 4.70715 3.56276 3.62901 3.92215C3.08776 4.10256 2.67981 4.30821 2.41573 4.51633ZM3.36548 3.13158C4.54939 2.73694 6.15845 2.5 7.91667 2.5C9.67488 2.5 11.2839 2.73694 12.4678 3.13158C13.0576 3.32817 13.565 3.57144 13.9334 3.86182C14.2972 4.14849 14.5833 4.52996 14.5833 5C14.5833 5.47003 14.2972 5.85151 13.9334 6.13818C13.565 6.42855 13.0576 6.67183 12.4679 6.86842C11.2839 7.26306 9.67488 7.5 7.91667 7.5C6.15845 7.5 4.54939 7.26306 3.36548 6.86842C2.77571 6.67183 2.26837 6.42855 1.89992 6.13818C1.53616 5.85151 1.25 5.47003 1.25 5C1.25 4.52996 1.53616 4.14849 1.89991 3.86182C2.26837 3.57144 2.77571 3.32817 3.36548 3.13158Z" fill="#161616"/>
<path fill-rule="evenodd" clip-rule="evenodd" d="M1.66667 11.25C1.89679 11.25 2.08333 11.4365 2.08333 11.6667C2.08333 11.7719 2.14695 11.9385 2.41573 12.1503C2.67981 12.3585 3.08776 12.5641 3.62901 12.7445C4.70715 13.1039 6.22309 13.3333 7.91667 13.3333C8.65346 13.3333 9.35843 13.2899 10.0095 13.2107C10.2379 13.1829 10.4457 13.3455 10.4735 13.574C10.5012 13.8024 10.3386 14.0101 10.1102 14.0379C9.42432 14.1214 8.68571 14.1667 7.91667 14.1667C6.15845 14.1667 4.54939 13.9297 3.36548 13.5351C2.77571 13.3385 2.26837 13.0952 1.89992 12.8048C1.53616 12.5182 1.25 12.1367 1.25 11.6667C1.25 11.4365 1.43655 11.25 1.66667 11.25Z" fill="#161616"/>
<path fill-rule="evenodd" clip-rule="evenodd" d="M1.66667 7.91663C1.89679 7.91663 2.08333 8.10317 2.08333 8.33329C2.08333 8.43855 2.14695 8.60514 2.41573 8.81696C2.67981 9.02508 3.08776 9.23073 3.62901 9.41114C4.70715 9.77053 6.22309 9.99996 7.91667 9.99996C9.04121 9.99996 10.0905 9.89877 10.9864 9.72423C11.2122 9.68023 11.431 9.82766 11.475 10.0535C11.519 10.2794 11.3716 10.4982 11.1457 10.5422C10.192 10.728 9.08904 10.8333 7.91667 10.8333C6.15845 10.8333 4.54939 10.5964 3.36548 10.2017C2.77571 10.0051 2.26837 9.76184 1.89992 9.47147C1.53616 9.1848 1.25 8.80333 1.25 8.33329C1.25 8.10317 1.43655 7.91663 1.66667 7.91663Z" fill="#161616"/>
<path fill-rule="evenodd" clip-rule="evenodd" d="M14.5245 8.96353C14.5245 8.96356 14.5245 8.96351 14.5245 8.96353L14.524 8.96443L14.5214 8.96881L14.5103 8.98774C14.5003 9.00477 14.4855 9.0305 14.4663 9.06416C14.4281 9.1315 14.3729 9.23045 14.3064 9.35488C14.1733 9.60407 13.9959 9.9537 13.8188 10.355C13.4575 11.1737 13.1251 12.1473 13.1251 12.9166C13.1251 13.6859 13.4575 14.6596 13.8188 15.4782C13.9959 15.8795 14.1733 16.2292 14.3064 16.4783C14.3729 16.6028 14.4281 16.7017 14.4663 16.7691C14.4855 16.8027 14.5003 16.8285 14.5103 16.8455L14.5214 16.8644L14.524 16.8688L14.5245 16.8697C14.5245 16.8696 14.5245 16.8697 14.1667 17.0833M14.1667 17.0833C13.809 17.2969 13.809 17.2968 13.8089 17.2967L13.8085 17.296L13.8074 17.2942L13.8037 17.288L13.7905 17.2654C13.779 17.2458 13.7626 17.2173 13.7418 17.1808C13.7004 17.1079 13.6416 17.0025 13.5714 16.871C13.431 16.6083 13.2439 16.2395 13.0564 15.8147C12.6885 14.981 12.2917 13.8713 12.2917 12.9166C12.2917 11.9619 12.6885 10.8523 13.0564 10.0186C13.2439 9.59372 13.431 9.22493 13.5714 8.96224C13.6416 8.83072 13.7004 8.72537 13.7418 8.65239C13.7626 8.61589 13.779 8.58745 13.7905 8.56786L13.8037 8.5452L13.8074 8.53901L13.8089 8.5365C13.809 8.53642 13.809 8.53636 14.1667 8.74995L13.8089 8.5365C13.9269 8.33891 14.1828 8.27423 14.3803 8.39219C14.5779 8.51013 14.6424 8.76596 14.5245 8.96353" fill="#161616"/>
<path fill-rule="evenodd" clip-rule="evenodd" d="M13.9531 8.39222C14.1507 8.27426 14.4065 8.33881 14.5245 8.5364L14.1667 8.74998C14.5245 8.53639 14.5244 8.53632 14.5245 8.5364L14.5261 8.53905L14.5297 8.54524L14.543 8.5679C14.5544 8.58749 14.5709 8.61592 14.5916 8.65242C14.6331 8.7254 14.6919 8.83076 14.7621 8.96227C14.9024 9.22496 15.0896 9.59376 15.2771 10.0186C15.645 10.8523 16.0417 11.962 16.0417 12.9166C16.0417 13.8713 15.645 14.981 15.2771 15.8147C15.0896 16.2395 14.9024 16.6083 14.7621 16.871C14.6919 17.0025 14.6331 17.1079 14.5916 17.1809C14.5709 17.2174 14.5544 17.2458 14.543 17.2654L14.5297 17.2881L14.5261 17.2942L14.525 17.296L14.5246 17.2968C14.5245 17.2968 14.5245 17.2969 14.1667 17.0833L14.5246 17.2968C14.4066 17.4944 14.1507 17.559 13.9531 17.4411C13.7556 17.3231 13.691 17.0674 13.8089 16.8698C13.8089 16.8698 13.8089 16.8698 13.8089 16.8698L13.8095 16.8688L13.8121 16.8644L13.8232 16.8455C13.8331 16.8285 13.848 16.8028 13.8671 16.7691C13.9054 16.7018 13.9606 16.6028 14.0271 16.4784C14.1602 16.2292 14.3376 15.8796 14.5147 15.4782C14.876 14.6596 15.2084 13.6859 15.2084 12.9166C15.2084 12.1474 14.876 11.1737 14.5147 10.3551C14.3376 9.95373 14.1602 9.6041 14.0271 9.35491C13.9606 9.23049 13.9054 9.13154 13.8671 9.0642C13.848 9.03054 13.8331 9.00481 13.8232 8.98777L13.8121 8.96885L13.8095 8.96447L13.809 8.96358" fill="#161616"/>
<path fill-rule="evenodd" clip-rule="evenodd" d="M9.58325 12.9167C9.58325 12.6865 9.7698 12.5 9.99992 12.5H18.3333C18.5634 12.5 18.7499 12.6865 18.7499 12.9167C18.7499 13.1468 18.5634 13.3333 18.3333 13.3333H9.99992C9.7698 13.3333 9.58325 13.1468 9.58325 12.9167Z" fill="#161616"/>
<path fill-rule="evenodd" clip-rule="evenodd" d="M14.1666 9.16671C12.0955 9.16671 10.4166 10.8456 10.4166 12.9167C10.4166 14.9878 12.0955 16.6667 14.1666 16.6667C16.2377 16.6667 17.9166 14.9878 17.9166 12.9167C17.9166 10.8456 16.2377 9.16671 14.1666 9.16671ZM9.58325 12.9167C9.58325 10.3854 11.6353 8.33337 14.1666 8.33337C16.6979 8.33337 18.7499 10.3854 18.7499 12.9167C18.7499 15.448 16.6979 17.5 14.1666 17.5C11.6353 17.5 9.58325 15.448 9.58325 12.9167Z" fill="#161616"/>
</svg>
