<svg xmlns="http://www.w3.org/2000/svg" xmlns:xlink="http://www.w3.org/1999/xlink" fill="none" version="1.1" width="16" height="16" viewBox="0 0 16 16"><defs><clipPath id="master_svg0_0_8861"><rect x="0" y="0" width="16" height="16" rx="0"/></clipPath></defs><g clip-path="url(#master_svg0_0_8861)"><g><g><path d="M6.64,5C6.91614,5,7.14,4.776142,7.14,4.5C7.14,4.223858,6.91614,4,6.64,4C6.64,4,6.64,5,6.64,5C6.64,5,6.64,5,6.64,5ZM9.36,4C9.08386,4,8.86,4.223858,8.86,4.5C8.86,4.776142,9.08386,5,9.36,5C9.36,5,9.36,4,9.36,4C9.36,4,9.36,4,9.36,4ZM6.64,12C6.91614,12,7.14,11.77614,7.14,11.5C7.14,11.22386,6.91614,11,6.64,11C6.64,11,6.64,12,6.64,12C6.64,12,6.64,12,6.64,12ZM9.36,11C9.08386,11,8.86,11.22386,8.86,11.5C8.86,11.77614,9.08386,12,9.36,12C9.36,12,9.36,11,9.36,11C9.36,11,9.36,11,9.36,11ZM5.5,5C5.5,5,6.64,5,6.64,5C6.64,5,6.64,4,6.64,4C6.64,4,5.5,4,5.5,4C5.5,4,5.5,5,5.5,5C5.5,5,5.5,5,5.5,5ZM9.36,5C9.36,5,10.5,5,10.5,5C10.5,5,10.5,4,10.5,4C10.5,4,9.36,4,9.36,4C9.36,4,9.36,5,9.36,5C9.36,5,9.36,5,9.36,5ZM6.64,11C6.64,11,5.5,11,5.5,11C5.5,11,5.5,12,5.5,12C5.5,12,6.64,12,6.64,12C6.64,12,6.64,11,6.64,11C6.64,11,6.64,11,6.64,11ZM10.5,11C10.5,11,9.36,11,9.36,11C9.36,11,9.36,12,9.36,12C9.36,12,10.5,12,10.5,12C10.5,12,10.5,11,10.5,11C10.5,11,10.5,11,10.5,11ZM1.5,8C1.5,10.20914,3.29086,12,5.5,12C5.5,12,5.5,11,5.5,11C3.84315,11,2.5,9.65685,2.5,8C2.5,8,1.5,8,1.5,8C1.5,8,1.5,8,1.5,8ZM13.5,8C13.5,9.65685,12.1569,11,10.5,11C10.5,11,10.5,12,10.5,12C12.7091,12,14.5,10.20914,14.5,8C14.5,8,13.5,8,13.5,8C13.5,8,13.5,8,13.5,8ZM14.5,8C14.5,5.79086,12.7091,4,10.5,4C10.5,4,10.5,5,10.5,5C12.1569,5,13.5,6.34315,13.5,8C13.5,8,14.5,8,14.5,8C14.5,8,14.5,8,14.5,8ZM2.5,8C2.5,6.34315,3.84315,5,5.5,5C5.5,5,5.5,4,5.5,4C3.29086,4,1.5,5.79086,1.5,8C1.5,8,2.5,8,2.5,8C2.5,8,2.5,8,2.5,8Z" fill="#525252" fill-opacity="1"/></g><g><path d="M11.088254731445312,8.016860961914062C11.088254731445312,8.258485961914062,10.892374731445312,8.454360961914062,10.650754731445312,8.454360961914062C10.650754731445312,8.454360961914062,5.4522247314453125,8.454360961914062,5.4522247314453125,8.454360961914062C5.2105997314453125,8.454360961914062,5.0147247314453125,8.258485961914062,5.0147247314453125,8.016860961914062C5.0147247314453125,8.016860961914062,5.0147247314453125,8.016860961914062,5.0147247314453125,8.016860961914062C5.0147247314453125,7.7752359619140625,5.2105997314453125,7.5793609619140625,5.4522247314453125,7.5793609619140625C5.4522247314453125,7.5793609619140625,10.650754731445312,7.5793609619140625,10.650754731445312,7.5793609619140625C10.892374731445312,7.5793609619140625,11.088254731445312,7.7752359619140625,11.088254731445312,8.016860961914062C11.088254731445312,8.016860961914062,11.088254731445312,8.016860961914062,11.088254731445312,8.016860961914062C11.088254731445312,8.016860961914062,11.088254731445312,8.016860961914062,11.088254731445312,8.016860961914062Z" fill-rule="evenodd" fill="#525252" fill-opacity="1"/></g></g></g></svg>