<svg xmlns="http://www.w3.org/2000/svg" xmlns:xlink="http://www.w3.org/1999/xlink" fill="none" version="1.1" width="16" height="16" viewBox="0 0 16 16"><defs><clipPath id="master_svg0_0_8844"><rect x="0" y="0" width="16" height="16" rx="0"/></clipPath></defs><g clip-path="url(#master_svg0_0_8844)"><g><path d="M1.9999997282333375,3C1.9999997282333375,3,1.9999997282333375,2.5,1.9999997282333375,2.5C1.8047827282333375,2.5,1.6274177282333375,2.613616,1.5457979282333374,2.790953C1.4641789282333375,2.968289,1.4932329482333373,3.17691,1.6202007282333375,3.325197C1.6202007282333375,3.325197,1.9999997282333375,3,1.9999997282333375,3C1.9999997282333375,3,1.9999997282333375,3,1.9999997282333375,3ZM6.800002728233338,8.60593C6.800002728233338,8.60593,7.300002728233338,8.60593,7.300002728233338,8.60593C7.300002728233338,8.48667,7.257372728233338,8.37133,7.179802728233337,8.28074C7.179802728233337,8.28074,6.800002728233338,8.60593,6.800002728233338,8.60593C6.800002728233338,8.60593,6.800002728233338,8.60593,6.800002728233338,8.60593ZM6.800002728233338,12.8148C6.800002728233338,12.8148,6.300002728233338,12.8148,6.300002728233338,12.8148C6.300002728233338,13.0051,6.408002728233337,13.1789,6.578612728233337,13.2631C6.578612728233337,13.2631,6.800002728233338,12.8148,6.800002728233338,12.8148C6.800002728233338,12.8148,6.800002728233338,12.8148,6.800002728233338,12.8148ZM9.200002728233336,14C9.200002728233336,14,8.978612728233337,14.4483,8.978612728233337,14.4483C9.133592728233339,14.5248,9.317112728233337,14.5159,9.463922728233339,14.4247C9.610732728233337,14.3334,9.700002728233338,14.1728,9.700002728233338,14C9.700002728233338,14,9.200002728233336,14,9.200002728233336,14C9.200002728233336,14,9.200002728233336,14,9.200002728233336,14ZM9.200002728233336,8.60593C9.200002728233336,8.60593,8.820202728233337,8.28074,8.820202728233337,8.28074C8.742632728233337,8.37133,8.700002728233336,8.48667,8.700002728233336,8.60593C8.700002728233336,8.60593,9.200002728233336,8.60593,9.200002728233336,8.60593C9.200002728233336,8.60593,9.200002728233336,8.60593,9.200002728233336,8.60593ZM13.999992728233337,3C13.999992728233337,3,14.379792728233337,3.325197,14.379792728233337,3.325197C14.506792728233338,3.17691,14.535792728233337,2.968289,14.454192728233338,2.790953C14.372592728233338,2.613616,14.195192728233337,2.5,13.999992728233337,2.5C13.999992728233337,2.5,13.999992728233337,3,13.999992728233337,3C13.999992728233337,3,13.999992728233337,3,13.999992728233337,3ZM1.6202007282333375,3.325197C1.6202007282333375,3.325197,6.420202728233337,8.93113,6.420202728233337,8.93113C6.420202728233337,8.93113,7.179802728233337,8.28074,7.179802728233337,8.28074C7.179802728233337,8.28074,2.3797987282333373,2.674803,2.3797987282333373,2.674803C2.3797987282333373,2.674803,1.6202007282333375,3.325197,1.6202007282333375,3.325197C1.6202007282333375,3.325197,1.6202007282333375,3.325197,1.6202007282333375,3.325197ZM6.300002728233338,8.60593C6.300002728233338,8.60593,6.300002728233338,12.8148,6.300002728233338,12.8148C6.300002728233338,12.8148,7.300002728233338,12.8148,7.300002728233338,12.8148C7.300002728233338,12.8148,7.300002728233338,8.60593,7.300002728233338,8.60593C7.300002728233338,8.60593,6.300002728233338,8.60593,6.300002728233338,8.60593C6.300002728233338,8.60593,6.300002728233338,8.60593,6.300002728233338,8.60593ZM6.578612728233337,13.2631C6.578612728233337,13.2631,8.978612728233337,14.4483,8.978612728233337,14.4483C8.978612728233337,14.4483,9.421392728233338,13.5517,9.421392728233338,13.5517C9.421392728233338,13.5517,7.021392728233337,12.36649,7.021392728233337,12.36649C7.021392728233337,12.36649,6.578612728233337,13.2631,6.578612728233337,13.2631C6.578612728233337,13.2631,6.578612728233337,13.2631,6.578612728233337,13.2631ZM9.700002728233338,14C9.700002728233338,14,9.700002728233338,8.60593,9.700002728233338,8.60593C9.700002728233338,8.60593,8.700002728233336,8.60593,8.700002728233336,8.60593C8.700002728233336,8.60593,8.700002728233336,14,8.700002728233336,14C8.700002728233336,14,9.700002728233338,14,9.700002728233338,14C9.700002728233338,14,9.700002728233338,14,9.700002728233338,14ZM9.579802728233338,8.93113C9.579802728233338,8.93113,14.379792728233337,3.325197,14.379792728233337,3.325197C14.379792728233337,3.325197,13.620192728233338,2.674803,13.620192728233338,2.674803C13.620192728233338,2.674803,8.820202728233337,8.28074,8.820202728233337,8.28074C8.820202728233337,8.28074,9.579802728233338,8.93113,9.579802728233338,8.93113C9.579802728233338,8.93113,9.579802728233338,8.93113,9.579802728233338,8.93113ZM13.999992728233337,2.5C13.999992728233337,2.5,1.9999997282333375,2.5,1.9999997282333375,2.5C1.9999997282333375,2.5,1.9999997282333375,3.5,1.9999997282333375,3.5C1.9999997282333375,3.5,13.999992728233337,3.5,13.999992728233337,3.5C13.999992728233337,3.5,13.999992728233337,2.5,13.999992728233337,2.5C13.999992728233337,2.5,13.999992728233337,2.5,13.999992728233337,2.5Z" fill="#A8A8A8" fill-opacity="1"/></g></g></svg>