<svg width="16" height="16" viewBox="0 0 16 16" fill="none" xmlns="http://www.w3.org/2000/svg">
<path fill-rule="evenodd" clip-rule="evenodd" d="M5.58325 3.6665C5.58325 3.25229 5.91904 2.9165 6.33325 2.9165H12.3333C12.7475 2.9165 13.0833 3.25229 13.0833 3.6665V9.6665C13.0833 10.0807 12.7475 10.4165 12.3333 10.4165C11.919 10.4165 11.5833 10.0807 11.5833 9.6665V4.4165H6.33325C5.91904 4.4165 5.58325 4.08072 5.58325 3.6665Z" fill="#F4F4F4"/>
<path fill-rule="evenodd" clip-rule="evenodd" d="M12.8635 3.13617C13.1564 3.42907 13.1564 3.90394 12.8635 4.19683L4.37823 12.6821C4.08534 12.975 3.61047 12.975 3.31757 12.6821C3.02468 12.3892 3.02468 11.9144 3.31757 11.6215L11.8028 3.13617C12.0957 2.84328 12.5706 2.84328 12.8635 3.13617Z" fill="#F4F4F4"/>
</svg>
