<svg width="21" height="22" viewBox="0 0 21 22" fill="none" xmlns="http://www.w3.org/2000/svg">
<path d="M0 11C0 5.43117 4.51446 0.846191 10.0833 0.846191C15.6522 0.846191 20.1667 5.43117 20.1667 11C20.1667 16.5689 15.6522 21.1539 10.0833 21.1539C4.51446 21.1539 0 16.5689 0 11Z" fill="#F4F4F4"/>
<path d="M5.93042 10.6926C6.09542 13.053 8.09833 14.9734 10.4954 15.0789C12.1867 15.1522 13.6992 14.3639 14.6067 13.1218C14.9825 12.613 14.7808 12.2739 14.1529 12.3884C13.8458 12.4434 13.5296 12.4664 13.1996 12.4526C10.9583 12.3609 9.125 10.4864 9.11583 8.2726C9.11125 7.67677 9.235 7.11302 9.45958 6.59969C9.70708 6.03135 9.40917 5.76094 8.83625 6.00385C7.02125 6.76927 5.77917 8.59802 5.93042 10.6926Z" stroke="#161616" stroke-linecap="round" stroke-linejoin="round"/>
</svg>
