<svg width="48" height="48" viewBox="0 0 48 48" fill="none" xmlns="http://www.w3.org/2000/svg">
<g clip-path="url(#clip0_1277_11217)">
<path d="M4.5 11.25C4.14062 10.4062 3.64062 9.66406 3 9.02344C2.35938 8.38281 1.60938 7.875 0.75 7.5C1.59375 7.14062 2.33594 6.64062 2.97656 6C3.61719 5.35938 4.125 4.60938 4.5 3.75C4.85938 4.59375 5.35938 5.33594 6 5.97656C6.64062 6.61719 7.39062 7.125 8.25 7.5C7.40625 7.85938 6.66406 8.35938 6.02344 9C5.38281 9.64062 4.875 10.3906 4.5 11.25ZM43.5 12.75C43.8594 13.5938 44.3594 14.3359 45 14.9766C45.6406 15.6172 46.3906 16.125 47.25 16.5C46.4062 16.8594 45.6641 17.3594 45.0234 18C44.3828 18.6406 43.875 19.3906 43.5 20.25C43.1406 19.4062 42.6406 18.6641 42 18.0234C41.3594 17.3828 40.6094 16.875 39.75 16.5C40.5938 16.1406 41.3359 15.6406 41.9766 15C42.6172 14.3594 43.125 13.6094 43.5 12.75ZM34.5 15C33.7656 13.2969 32.7578 11.8047 31.4766 10.5234C30.1953 9.24219 28.7031 8.23438 27 7.5C28.7031 6.76562 30.1953 5.75781 31.4766 4.47656C32.7578 3.19531 33.7656 1.70312 34.5 0C35.2344 1.70312 36.2422 3.19531 37.5234 4.47656C38.8047 5.75781 40.2969 6.76562 42 7.5C40.2969 8.23438 38.8047 9.24219 37.5234 10.5234C36.2422 11.8047 35.2344 13.2969 34.5 15ZM34.5 4.54688C33.625 5.65625 32.6406 6.64062 31.5469 7.5C32.6406 8.375 33.625 9.35938 34.5 10.4531C35.3594 9.35938 36.3438 8.375 37.4531 7.5C36.3438 6.64062 35.3594 5.65625 34.5 4.54688ZM17.5078 18.3984C16.7734 18.3984 16.0859 18.25 15.4453 17.9531C14.8047 17.6562 14.2344 17.2422 13.7344 16.7109C13.2344 16.1797 12.8594 15.5859 12.6094 14.9297C12.3594 14.2734 12.2188 13.5781 12.1875 12.8438C12.1875 11.9219 12.375 11.0625 12.75 10.2656C13.125 9.46875 13.6406 8.76562 14.2969 8.15625C14.9531 7.54688 15.6875 7.07031 16.5 6.72656C17.3125 6.38281 18.1875 6.20312 19.125 6.1875C20.4375 6.1875 21.6016 6.46094 22.6172 7.00781C23.6328 7.55469 24.5 8.28906 25.2188 9.21094C25.9375 10.1328 26.4688 11.1641 26.8125 12.3047C27.1562 13.4453 27.3438 14.625 27.375 15.8438C27.375 17.4844 27.1094 19.0156 26.5781 20.4375C26.0469 21.8594 25.3203 23.1641 24.3984 24.3516C23.4766 25.5391 22.375 26.5703 21.0938 27.4453C19.8125 28.3203 18.4531 29.0781 17.0156 29.7188C16.875 29.7812 16.6953 29.8125 16.4766 29.8125C16.1172 29.8125 15.8125 29.6875 15.5625 29.4375C15.3125 29.1875 15.1875 28.875 15.1875 28.5C15.1875 27.9375 15.4531 27.5312 15.9844 27.2812C17.1719 26.7188 18.2656 26.1172 19.2656 25.4766C20.2656 24.8359 21.1484 24.0938 21.9141 23.25C22.6797 22.4062 23.2969 21.4531 23.7656 20.3906C24.2344 19.3281 24.5469 18.0938 24.7031 16.6875C24.7188 16.5312 24.7266 16.3828 24.7266 16.2422C24.7266 16.1016 24.7344 15.9453 24.75 15.7734C24.75 14.9609 24.6328 14.1406 24.3984 13.3125C24.1641 12.4844 23.8125 11.7344 23.3438 11.0625C22.875 10.3906 22.2891 9.85156 21.5859 9.44531C20.8828 9.03906 20.0625 8.82812 19.125 8.8125C18.5938 8.8125 18.0703 8.91406 17.5547 9.11719C17.0391 9.32031 16.5781 9.60938 16.1719 9.98438C15.7656 10.3594 15.4375 10.7812 15.1875 11.25C14.9375 11.7188 14.8125 12.25 14.8125 12.8438C14.8125 13.2031 14.8828 13.5547 15.0234 13.8984C15.1641 14.2422 15.3516 14.5547 15.5859 14.8359C15.8203 15.1172 16.1094 15.3438 16.4531 15.5156C16.7969 15.6875 17.1562 15.7734 17.5312 15.7734C17.9062 15.7734 18.2031 15.7188 18.4219 15.6094C18.6406 15.5 18.8203 15.3438 18.9609 15.1406C19.1016 14.9375 19.2109 14.7422 19.2891 14.5547C19.3672 14.3672 19.4609 14.1719 19.5703 13.9688C19.6797 13.7656 19.8125 13.6172 19.9688 13.5234C20.125 13.4297 20.3516 13.3672 20.6484 13.3359C21.0078 13.3359 21.3203 13.4688 21.5859 13.7344C21.8516 14 21.9844 14.3125 21.9844 14.6719C21.9844 14.75 21.9688 14.8516 21.9375 14.9766C21.8125 15.4766 21.6094 15.9375 21.3281 16.3594C21.0469 16.7812 20.7031 17.1406 20.2969 17.4375C19.8906 17.7344 19.4609 17.9688 19.0078 18.1406C18.5547 18.3125 18.0547 18.3984 17.5078 18.3984ZM38.1328 21L44.5547 27.4453L42.4453 29.5547L39 26.1328V48H6V26.1328L2.55469 29.5547L0.445312 27.4453L6.86719 21H19.875C19.3281 21.6406 18.7266 22.2031 18.0703 22.6875C17.4141 23.1719 16.7031 23.6094 15.9375 24H9V45H36V24H28.2422C28.5078 23.5156 28.75 23.0234 28.9688 22.5234C29.1875 22.0234 29.3828 21.5156 29.5547 21H38.1328Z" fill="#A7AAAA"/>
</g>
<defs>
<clipPath id="clip0_1277_11217">
<rect width="48" height="48" fill="white"/>
</clipPath>
</defs>
</svg>
