<svg width="18" height="18" viewBox="0 0 18 18" fill="none" xmlns="http://www.w3.org/2000/svg">
<path d="M15.1875 5.20304H12.2864C12.4353 5.10958 12.5764 5.00424 12.7083 4.88804C12.9072 4.7108 13.0674 4.49445 13.179 4.25249C13.2905 4.01053 13.351 3.74817 13.3566 3.48179C13.3652 3.18877 13.3139 2.89707 13.2059 2.62456C13.0978 2.35204 12.9352 2.10446 12.7282 1.89697C12.5211 1.68949 12.2738 1.52646 12.0015 1.41789C11.7292 1.30931 11.4376 1.25747 11.1445 1.26554C10.8782 1.27112 10.6158 1.33157 10.3738 1.44312C10.1319 1.55466 9.91552 1.7149 9.73828 1.91382C9.41258 2.29819 9.16212 2.74041 9 3.21742C8.83822 2.74077 8.58825 2.29879 8.26312 1.91453C8.08579 1.7153 7.86923 1.55483 7.62701 1.44316C7.3848 1.33149 7.12213 1.27102 6.85547 1.26554C6.56226 1.25709 6.27041 1.30862 5.99782 1.41698C5.72523 1.52533 5.47765 1.68823 5.27026 1.89569C5.06288 2.10314 4.90006 2.35077 4.79179 2.62339C4.68351 2.89601 4.63208 3.18788 4.64063 3.48109C4.6462 3.74746 4.70665 4.00982 4.8182 4.25178C4.92974 4.49374 5.08998 4.7101 5.28891 4.88734C5.42069 5.00369 5.56178 5.10905 5.71078 5.20234H2.8125C2.68317 5.20234 2.55511 5.22783 2.43563 5.27734C2.31616 5.32685 2.20761 5.39942 2.11619 5.49091C2.02478 5.58239 1.95228 5.69099 1.90285 5.8105C1.85343 5.93001 1.82803 6.05809 1.82813 6.18742V8.43742C1.82813 8.69849 1.93184 8.94887 2.11644 9.13348C2.30105 9.31808 2.55143 9.42179 2.8125 9.42179H2.95313V14.0624C2.95313 14.3235 3.05684 14.5739 3.24144 14.7585C3.42605 14.9431 3.67643 15.0468 3.9375 15.0468H14.0625C14.3236 15.0468 14.574 14.9431 14.7586 14.7585C14.9432 14.5739 15.0469 14.3235 15.0469 14.0624V9.42179H15.1875C15.4486 9.42179 15.699 9.31808 15.8836 9.13348C16.0682 8.94887 16.1719 8.69849 16.1719 8.43742V6.18742C16.1719 5.92635 16.0682 5.67597 15.8836 5.49136C15.699 5.30675 15.4486 5.20304 15.1875 5.20304ZM9.54633 4.42961C9.70453 3.57742 9.98859 2.90031 10.3683 2.4714C10.4699 2.35927 10.5935 2.26925 10.7314 2.20695C10.8693 2.14466 11.0185 2.11141 11.1698 2.10929H11.2085C11.3834 2.10931 11.5566 2.14443 11.7177 2.21255C11.8788 2.28068 12.0246 2.38044 12.1465 2.50592C12.2684 2.6314 12.3638 2.78006 12.4273 2.94309C12.4907 3.10613 12.5207 3.28022 12.5156 3.45507C12.5132 3.60654 12.4797 3.75588 12.417 3.89379C12.3543 4.0317 12.2639 4.15522 12.1514 4.25664C11.3977 4.92179 10.1194 5.12078 9.44578 5.17843C9.46336 4.97523 9.49219 4.71648 9.54633 4.42961ZM5.86758 2.4925C6.113 2.24797 6.44504 2.11025 6.79148 2.10929H6.83016C6.98162 2.11168 7.13096 2.14525 7.26887 2.20792C7.40678 2.27058 7.5303 2.36099 7.63172 2.47351C8.29688 3.22726 8.49586 4.50554 8.55352 5.17914C8.35031 5.16156 8.09156 5.13133 7.8075 5.07859C6.95531 4.92179 6.2782 4.63632 5.8493 4.25593C5.7366 4.15477 5.64602 4.03141 5.58323 3.8936C5.52043 3.75579 5.48678 3.6065 5.48438 3.45507C5.47952 3.27701 5.511 3.09983 5.57688 2.93434C5.64277 2.76884 5.74168 2.6185 5.86758 2.4925ZM2.67188 8.43742V6.18742C2.67188 6.15012 2.68669 6.11435 2.71306 6.08798C2.73944 6.06161 2.7752 6.04679 2.8125 6.04679H8.57812V8.57804H2.8125C2.7752 8.57804 2.73944 8.56323 2.71306 8.53686C2.68669 8.51048 2.67188 8.47471 2.67188 8.43742ZM3.79688 14.0624V9.42179H8.57812V14.203H3.9375C3.9002 14.203 3.86444 14.1882 3.83806 14.1619C3.81169 14.1355 3.79688 14.0997 3.79688 14.0624ZM14.2031 14.0624C14.2031 14.0997 14.1883 14.1355 14.1619 14.1619C14.1356 14.1882 14.0998 14.203 14.0625 14.203H9.42188V9.42179H14.2031V14.0624ZM15.3281 8.43742C15.3281 8.47471 15.3133 8.51048 15.2869 8.53686C15.2606 8.56323 15.2248 8.57804 15.1875 8.57804H9.42188V6.04679H15.1875C15.2248 6.04679 15.2606 6.06161 15.2869 6.08798C15.3133 6.11435 15.3281 6.15012 15.3281 6.18742V8.43742Z" fill="#0A1214"/>
</svg>
