<svg width="44" height="24" viewBox="0 0 44 24" fill="none" xmlns="http://www.w3.org/2000/svg">
    <path d="M0 12C0 5.37258 5.37258 0 12 0H32C38.6274 0 44 5.37258 44 12C44 18.6274 38.6274 24 32 24H12C5.37258 24 0 18.6274 0 12Z" fill="#E0E0E0"/>
    <path d="M1.83331 12C1.83331 6.43113 6.34777 1.84615 11.9166 1.84615C17.4855 1.84615 22 6.43113 22 12C22 17.5689 17.4855 22.1538 11.9166 22.1538C6.34777 22.1538 1.83331 17.5689 1.83331 12Z" fill="white"/>
    <path d="M14.625 12C14.625 13.5115 13.4091 14.7308 11.9166 14.7308C10.4242 14.7308 9.20831 13.5115 9.20831 12C9.20831 10.4885 10.4242 9.26923 11.9166 9.26923C13.4091 9.26923 14.625 10.4885 14.625 12Z" stroke="#161616"/>
    <path d="M11.9166 17.0585C11.6645 17.0585 11.4583 16.8692 11.4583 16.6154V16.5785C11.4583 16.3246 11.6645 16.1169 11.9166 16.1169C12.1687 16.1169 12.3749 16.3246 12.3749 16.5785C12.3749 16.8323 12.1687 17.0585 11.9166 17.0585ZM15.1891 15.7569C15.0699 15.7569 14.9554 15.7108 14.8637 15.6231L14.8041 15.5631C14.6254 15.3831 14.6254 15.0923 14.8041 14.9123C14.9829 14.7323 15.2716 14.7323 15.4504 14.9123L15.5099 14.9723C15.6887 15.1523 15.6887 15.4431 15.5099 15.6231C15.4229 15.7108 15.3083 15.7569 15.1891 15.7569ZM8.64411 15.7569C8.52494 15.7569 8.41036 15.7108 8.31869 15.6231C8.13994 15.4431 8.13994 15.1523 8.31869 14.9723L8.37827 14.9123C8.55702 14.7323 8.84577 14.7323 9.02452 14.9123C9.20327 15.0923 9.20327 15.3831 9.02452 15.5631L8.96494 15.6231C8.87786 15.7108 8.75869 15.7569 8.64411 15.7569ZM16.4999 12.4615H16.4633C16.2112 12.4615 16.0049 12.2538 16.0049 12C16.0049 11.7462 16.2112 11.5385 16.4633 11.5385C16.7154 11.5385 16.9399 11.7462 16.9399 12C16.9399 12.2538 16.752 12.4615 16.4999 12.4615ZM7.36994 12.4615H7.33327C7.08119 12.4615 6.87494 12.2538 6.87494 12C6.87494 11.7462 7.08119 11.5385 7.33327 11.5385C7.58536 11.5385 7.80994 11.7462 7.80994 12C7.80994 12.2538 7.62202 12.4615 7.36994 12.4615ZM15.1295 9.22615C15.0104 9.22615 14.8958 9.18 14.8041 9.09231C14.6254 8.91231 14.6254 8.62154 14.8041 8.44154L14.8637 8.38154C15.0424 8.20154 15.3312 8.20154 15.5099 8.38154C15.6887 8.56154 15.6887 8.85231 15.5099 9.03231L15.4504 9.09231C15.3633 9.18 15.2487 9.22615 15.1295 9.22615ZM8.70369 9.22615C8.58452 9.22615 8.46994 9.18 8.37827 9.09231L8.31869 9.02769C8.13994 8.84769 8.13994 8.55692 8.31869 8.37692C8.49744 8.19692 8.78619 8.19692 8.96494 8.37692L9.02452 8.43692C9.20327 8.61692 9.20327 8.90769 9.02452 9.08769C8.93744 9.18 8.81827 9.22615 8.70369 9.22615ZM11.9166 7.86462C11.6645 7.86462 11.4583 7.67538 11.4583 7.42154V7.38462C11.4583 7.13077 11.6645 6.92308 11.9166 6.92308C12.1687 6.92308 12.3749 7.13077 12.3749 7.38462C12.3749 7.63846 12.1687 7.86462 11.9166 7.86462Z" fill="#161616"/>
</svg>
