<svg xmlns="http://www.w3.org/2000/svg" xmlns:xlink="http://www.w3.org/1999/xlink" fill="none" version="1.1" width="356" height="200" viewBox="0 0 356 200"><defs><clipPath id="master_svg0_0_56753"><path d="M0 7.200000286102295C4.90527396329193e-16 3.2235499293106478 3.2235499293106487 0 7.200000286102295 0L348.7999997138977 0C352.77645007068935 0 356 3.2235499293106487 356 7.200000286102295L356 200C356 200 356 200 356 200L0 200C0 200 0 200 0 200Z"/></clipPath><filter id="master_svg1_0_56757" filterUnits="objectBoundingBox" color-interpolation-filters="sRGB" x="0" y="0" width="567.5999755859375" height="567.5999755859375"><feFlood flood-opacity="0" result="BackgroundImageFix"/><feBlend mode="normal" in="SourceGraphic" in2="BackgroundImageFix" result="shape"/><feColorMatrix in="SourceAlpha" type="matrix" result="hardAlpha" values="0 0 0 0 0 0 0 0 0 0 0 0 0 0 0 0 0 0 127 0"/><feOffset dy="0" dx="0"/><feGaussianBlur stdDeviation="115.80000305175781"/><feComposite in2="hardAlpha" operator="arithmetic" k2="-1" k3="1"/><feColorMatrix type="matrix" values="0 0 0 0 0.20392157137393951 0 0 0 0 0.8588235378265381 0 0 0 0 1 0 0 0 0.30000001192092896 0"/><feBlend mode="normal" in2="shape" result="effect1_innerShadow"/></filter></defs><g clip-path="url(#master_svg0_0_56753)"><path d="M0 7.200000286102295C4.90527396329193e-16 3.2235499293106478 3.2235499293106487 0 7.200000286102295 0L348.7999997138977 0C352.77645007068935 0 356 3.2235499293106487 356 7.200000286102295L356 200C356 200 356 200 356 200L0 200C0 200 0 200 0 200Z" fill="#E8FFFF" fill-opacity="1"/><g filter="url(#master_svg1_0_56757)"><ellipse cx="373.79998779296875" cy="99.79998779296875" rx="283.79998779296875" ry="283.79998779296875" fill="#FFFFFF" fill-opacity="1"/></g><g transform="matrix(0.9659258127212524,-0.258819043636322,0.29805052280426025,0.9545500874519348,-28.48674018150541,64.31062041431187)"><g transform="matrix(0.9998384714126587,-0.017973151057958603,-0.017408492043614388,0.9998484253883362,3.0663073401353813,5.264298430311214)"><rect x="291.4352722167969" y="173.4344482421875" width="63.12461853027344" height="61.84758377075195" rx="0" fill="#34DBFF" fill-opacity="1"/><rect x="291.9352722167969" y="173.9344482421875" width="62.12461853027344" height="60.84758377075195" rx="0" fill-opacity="0" stroke-opacity="1" stroke="#000000" fill="none" stroke-width="1"/></g><g transform="matrix(0.9998384714126587,-0.017973151057958603,-0.017408492043614388,0.9998484253883362,3.1786151103070495,4.12681212152367)"><path d="M260.39132386779784,180.47355270385742C260.39132386779784,180.47355270385742,292.6948238677978,235.29305270385743,292.6948238677978,235.29305270385743C292.6948238677978,235.29305270385743,228.08782386779785,235.29305270385743,228.08782386779785,235.29305270385743C228.08782386779785,235.29305270385743,260.39132386779784,180.47355270385742,260.39132386779784,180.47355270385742C260.39132386779784,180.47355270385742,260.39132386779784,180.47355270385742,260.39132386779784,180.47355270385742Z" fill="#141B1D" fill-opacity="1"/></g><g transform="matrix(0.9085716009140015,0.4177291691303253,-0.4439854621887207,0.8960340023040771,81.31689172237827,-112.33861973755566)"><path d="M332.97875454101563,155.72652706734536C351.6468545410156,155.72652706734536,366.7802545410156,140.42232706734538,366.7802545410156,121.54362706734537C366.7802545410156,121.54362706734537,299.1771545410156,121.54362706734537,299.1771545410156,121.54362706734537C299.1771545410156,140.42232706734538,314.31065454101565,155.72652706734536,332.97875454101563,155.72652706734536C332.97875454101563,155.72652706734536,332.97875454101563,155.72652706734536,332.97875454101563,155.72652706734536Z" fill="#FFFFFF" fill-opacity="1"/><path d="M366.7802545410156,121.54362706734537L299.1771545410156,121.54362706734537C299.1771545410156,121.87810406734538,299.18190492101564,122.21145906734537,299.19134114101564,122.54362706734537C299.7145095410156,140.95982706734537,314.64135454101563,155.72652706734536,332.97875454101563,155.72652706734536C351.31615454101564,155.72652706734536,366.2429545410156,140.95982706734537,366.7660545410156,122.54362706734537C366.7755545410156,122.21145906734537,366.7802545410156,121.87810406734538,366.7802545410156,121.54362706734537ZM332.97875454101563,154.72652706734536Q339.6507545410156,154.72652706734536,345.74255454101564,152.12082706734537Q351.6284545410156,149.60322706734536,356.16895454101564,145.01142706734538Q360.71065454101563,140.41852706734537,363.2014545410156,134.46332706734538Q365.58875454101565,128.75539706734537,365.7660545410156,122.54362706734537L300.1913845410156,122.54362706734537Q300.3686945410156,128.75537706734536,302.75601454101565,134.46332706734538Q305.2467545410156,140.41852706734537,309.78845454101565,145.01142706734538Q314.32905454101564,149.60322706734536,320.21495454101563,152.12082706734537Q326.3067545410156,154.72652706734536,332.97875454101563,154.72652706734536Z" fill-rule="evenodd" fill="#000000" fill-opacity="1"/></g><g transform="matrix(0.9998384714126587,-0.017973151057958603,-0.017408492043614388,0.9998484253883362,2.2748590705888034,4.356736549518644)"><ellipse cx="267.1430387496948" cy="153.73740243911743" rx="25.823701858520508" ry="25.301286697387695" fill="#43FFA8" fill-opacity="1"/><ellipse cx="267.1430387496948" cy="153.73740243911743" rx="25.323701858520508" ry="24.801286697387695" fill-opacity="0" stroke-opacity="1" stroke="#000000" fill="none" stroke-width="1"/></g></g></g></svg>