<svg width="52" height="52" viewBox="0 0 52 52" fill="none" xmlns="http://www.w3.org/2000/svg">
<rect width="52" height="52" rx="26" fill="#EF6820"/>
<mask id="mask0_3756_30487" style="mask-type:alpha" maskUnits="userSpaceOnUse" x="3" y="14" width="46" height="24">
<path d="M37.7286 26.7177C38.9569 25.234 39.8025 24.2768 40.2652 23.8461C41.4299 22.7612 42.5226 22.2188 43.5437 22.2188C43.9905 22.2188 44.3652 22.3623 44.6685 22.6495C44.9875 22.9207 45.1471 23.2797 45.1471 23.7264C45.1471 24.4762 44.6125 25.569 43.5437 27.0049C42.4907 28.4248 41.9643 29.4059 41.9643 29.9484C41.9643 30.3313 42.1478 30.5227 42.5147 30.5227C42.9613 30.5227 43.6315 30.1079 44.5249 29.2783C45.2267 28.6402 46.0405 27.7787 46.9658 26.6938C47.0935 26.5342 47.6678 25.8403 48.6887 24.6118L49 24.7554C48.3458 25.569 47.6917 26.3827 47.0375 27.1963C46.0804 28.3291 45.2267 29.1985 44.4769 29.8048C43.4719 30.6184 42.5785 31.0252 41.7968 31.0252C41.2702 31.0252 40.8395 30.8896 40.5044 30.6184C40.1853 30.3313 40.0259 29.9244 40.0259 29.398C40.0259 28.696 40.3608 27.8744 41.031 26.9331C42.4829 24.891 43.2086 23.7104 43.2086 23.3914C43.2086 23.2478 43.1448 23.1281 43.0173 23.0324C42.9056 22.9207 42.77 22.8649 42.6104 22.8649C41.717 22.8649 40.4007 23.9497 38.6619 26.1194C37.258 27.8744 36.213 29.4139 35.527 30.7381L33.062 30.8099L38.0397 22.5777L40.7916 22.482L37.7286 26.7656V26.7177Z" fill="#EF6820"/>
<path d="M28.97 28.8959C28.3798 29.55 27.7975 30.0526 27.2231 30.4035C26.5052 30.8343 25.7793 31.0497 25.0453 31.0497C24.4392 31.0497 23.9606 30.8343 23.6096 30.4035C23.2586 29.9728 23.0831 29.4383 23.0831 28.8002C23.0831 27.2686 23.7771 25.7849 25.1651 24.3491C26.5532 22.9132 28.0128 22.1953 29.5443 22.1953C30.1188 22.1953 30.5893 22.307 30.9562 22.5303C31.3232 22.7378 31.5865 23.1047 31.7459 23.6312L32.2246 22.7218L34.7134 22.5782C34.1549 23.5354 33.5966 24.4927 33.0384 25.4499C32.4959 26.4071 31.9535 27.3564 31.4111 28.2976C30.8844 29.2389 30.3181 30.1961 29.7119 31.1693C31.2594 30.7066 32.751 29.8292 34.187 28.5369C35.2877 27.5478 36.4364 26.2236 37.633 24.5645L37.8722 24.6602C36.7077 26.3672 35.5031 27.7712 34.2588 28.872C32.759 30.1961 31.1638 31.1055 29.4725 31.6001C28.3399 33.5624 26.9518 35.0939 25.3086 36.1948C23.5378 37.3914 21.5835 37.9896 19.4457 37.9896C18.2491 37.9896 17.2839 37.79 16.55 37.3914C15.6088 36.8808 15.1381 36.0751 15.1381 34.9743C15.1381 34.1766 15.4652 33.5305 16.1193 33.0359C16.7574 32.5413 17.4913 32.2941 18.3209 32.2941C18.6081 32.2941 18.8633 32.31 19.0867 32.3419C19.2941 32.3738 19.4696 32.3978 19.6132 32.4137V32.6769C18.8474 32.6769 18.2491 32.8844 17.8184 33.2992C17.3717 33.7299 17.1483 34.3202 17.1483 35.07C17.1483 35.7879 17.3956 36.3941 17.8901 36.8889C18.3847 37.3834 18.991 37.6306 19.7089 37.6306C20.9852 37.6306 22.2615 37.1042 23.5378 36.0512C24.5269 35.2375 25.5559 34.0649 26.6249 32.5334C26.6727 32.4696 27.4545 31.2571 28.97 28.8959ZM26.577 30.1642C27.4704 30.1642 28.4355 29.3426 29.4725 27.6994C30.4298 26.1678 30.9085 24.9154 30.9085 23.9423C30.9085 23.5594 30.8445 23.2403 30.717 22.985C30.5893 22.7138 30.35 22.5782 29.9991 22.5782C28.9303 22.5782 27.8773 23.328 26.8403 24.8277C25.8671 26.2316 25.3804 27.5 25.3804 28.6327C25.3804 29.1272 25.4602 29.5101 25.6197 29.7813C25.7953 30.0366 26.1144 30.1642 26.577 30.1642Z" fill="#EF6820"/>
<path d="M22.8901 22.5782C21.3426 24.9553 20.5449 26.1758 20.497 26.2396C19.3164 28.154 18.7261 29.3745 18.7261 29.901C18.7261 30.1243 18.7501 30.2839 18.7979 30.3796C18.8617 30.4594 18.9575 30.4993 19.0851 30.4993C19.819 30.4993 20.9916 29.6776 22.6029 28.0344C23.3846 27.2527 24.4216 26.088 25.7139 24.5405L26.001 24.732C25.4586 25.4977 24.7886 26.3114 23.9909 27.1729C23.0177 28.2418 22.0684 29.1192 21.1431 29.8053C20.0423 30.6349 19.1409 31.0497 18.439 31.0497C17.9604 31.0497 17.5615 30.9141 17.2424 30.6428C16.9393 30.3557 16.7878 29.9808 16.7878 29.5181C16.7878 28.864 17.2743 27.7153 18.2475 26.0721C18.2794 26.0242 18.9974 24.8995 20.4013 22.6979L22.8901 22.5782ZM25.307 18.5578C25.307 18.8929 25.1795 19.188 24.9242 19.4433C24.6689 19.6985 24.3658 19.8262 24.0148 19.8262C23.6638 19.8262 23.3607 19.7304 23.1054 19.539C22.8661 19.3316 22.7465 19.0524 22.7465 18.7014C22.7465 18.3504 22.8901 18.0473 23.1772 17.7921C23.4644 17.5368 23.7915 17.4092 24.1584 17.4092C24.4456 17.4092 24.7088 17.5209 24.948 17.7442C25.1875 17.9676 25.307 18.2388 25.307 18.5578Z" fill="#EF6820"/>
<path d="M4.96231 24.3249C5.2814 24.3249 5.56856 24.4286 5.82382 24.636C6.09504 24.8274 6.23064 25.0827 6.23064 25.4017C6.23064 25.7846 6.07908 26.1117 5.77595 26.3829C5.48879 26.6382 5.15376 26.7658 4.77087 26.7658C4.64324 27.1965 4.57942 27.6193 4.57942 28.0341C4.57942 28.9754 5.02613 29.6933 5.91953 30.1879C6.65342 30.5867 7.53087 30.7861 8.55192 30.7861C11.0088 30.7861 12.5882 29.3423 13.2902 26.4547C13.7369 23.7585 14.1836 21.0623 14.6303 18.3661C15.4599 15.4625 17.2547 14.0107 20.0147 14.0107C20.94 14.0107 21.7058 14.1862 22.3121 14.5372C23.0778 14.9839 23.4607 15.638 23.4607 16.4995C23.4607 17.2175 23.1656 17.7519 22.5753 18.1029C22.0967 18.3901 21.4745 18.5336 20.7087 18.5336C20.9001 18.1667 21.0597 17.7918 21.1873 17.4089C21.3309 17.01 21.4027 16.6272 21.4027 16.2602C21.4027 15.7497 21.2511 15.311 20.948 14.944C20.6449 14.5771 20.238 14.3936 19.7275 14.3936C18.0045 14.3936 16.9436 15.8375 16.5448 18.7251C15.8587 23.6229 15.42 26.3191 15.2286 26.8137C14.1118 29.7172 11.8464 31.169 8.43226 31.169C6.98047 31.169 5.74405 30.8021 4.72301 30.0682C3.57434 29.2386 3 28.1139 3 26.694C3 26.0558 3.16751 25.5054 3.50254 25.0428C3.83757 24.5642 4.32416 24.3249 4.96231 24.3249Z" fill="#EF6820"/>
</mask>
<g mask="url(#mask0_3756_30487)">
<path d="M54.8576 10.3818L-2.73401 10.9462L-0.33035 39.7425L28.8603 58.1386L25.9529 27.8528L54.8576 10.3818Z" fill="white"/>
<path d="M54.7257 10.6562L20.0632 14.5222L25.9093 38.4055H54.7257V10.6562Z" fill="white"/>
</g>
</svg>
