<svg xmlns="http://www.w3.org/2000/svg" xmlns:xlink="http://www.w3.org/1999/xlink" fill="none" version="1.1" width="16" height="16" viewBox="0 0 16 16"><defs><clipPath id="master_svg0_0_14105"><rect x="0" y="0" width="16" height="16" rx="0"/></clipPath></defs><g clip-path="url(#master_svg0_0_14105)"><g><path d="M12.833366746139527,10.000001069869995C12.833366746139527,10.276141069869995,13.057166746139526,10.500001069869995,13.333366746139527,10.500001069869995C13.609466746139526,10.500001069869995,13.833366746139527,10.276141069869995,13.833366746139527,10.000001069869995C13.833366746139527,10.000001069869995,12.833366746139527,10.000001069869995,12.833366746139527,10.000001069869995C12.833366746139527,10.000001069869995,12.833366746139527,10.000001069869995,12.833366746139527,10.000001069869995ZM13.333366746139527,5.000001069869995C13.333366746139527,5.000001069869995,13.833366746139527,5.000001069869995,13.833366746139527,5.000001069869995C13.833366746139527,4.819361069869995,13.735866746139527,4.652771069869996,13.578466746139526,4.5642110698699945C13.578466746139526,4.5642110698699945,13.333366746139527,5.000001069869995,13.333366746139527,5.000001069869995C13.333366746139527,5.000001069869995,13.333366746139527,5.000001069869995,13.333366746139527,5.000001069869995ZM9.411796746139526,2.220462069869995C9.171116746139527,2.085080069869995,8.866256746139527,2.1704400698699953,8.730876746139526,2.4111190698699954C8.595496746139526,2.651798069869995,8.680856746139526,2.956656069869995,8.921536746139527,3.092038069869995C8.921536746139527,3.092038069869995,9.411796746139526,2.220462069869995,9.411796746139526,2.220462069869995C9.411796746139526,2.220462069869995,9.411796746139526,2.220462069869995,9.411796746139526,2.220462069869995ZM7.078466746139527,3.092038069869995C7.319146746139526,2.956656069869995,7.404506746139527,2.651798069869995,7.2691167461395265,2.4111190698699954C7.133736746139526,2.1704400698699953,6.828886746139526,2.085080069869995,6.588206746139527,2.220462069869995C6.588206746139527,2.220462069869995,7.078466746139527,3.092038069869995,7.078466746139527,3.092038069869995C7.078466746139527,3.092038069869995,7.078466746139527,3.092038069869995,7.078466746139527,3.092038069869995ZM2.6666667461395264,5.000001069869995C2.6666667461395264,5.000001069869995,2.4215357461395266,4.5642110698699945,2.4215357461395266,4.5642110698699945C2.264097746139526,4.652771069869996,2.1666667461395264,4.819361069869995,2.1666667461395264,5.000001069869995C2.1666667461395264,5.000001069869995,2.6666667461395264,5.000001069869995,2.6666667461395264,5.000001069869995C2.6666667461395264,5.000001069869995,2.6666667461395264,5.000001069869995,2.6666667461395264,5.000001069869995ZM2.1666667461395264,10.000001069869995C2.1666667461395264,10.276141069869995,2.3905247461395263,10.500001069869995,2.6666667461395264,10.500001069869995C2.9428087461395265,10.500001069869995,3.1666667461395264,10.276141069869995,3.1666667461395264,10.000001069869995C3.1666667461395264,10.000001069869995,2.1666667461395264,10.000001069869995,2.1666667461395264,10.000001069869995C2.1666667461395264,10.000001069869995,2.1666667461395264,10.000001069869995,2.1666667461395264,10.000001069869995ZM3.9117967461395264,11.126711069869994C3.6711167461395267,10.991331069869995,3.366256746139526,11.076691069869995,3.2308767461395265,11.317371069869996C3.0954967461395264,11.558051069869995,3.1808567461395265,11.862911069869995,3.4215367461395263,11.998291069869994C3.4215367461395263,11.998291069869994,3.9117967461395264,11.126711069869994,3.9117967461395264,11.126711069869994C3.9117967461395264,11.126711069869994,3.9117967461395264,11.126711069869994,3.9117967461395264,11.126711069869994ZM7.9999967461395265,14.000061069869995C7.9999967461395265,14.000061069869995,7.754866746139526,14.435761069869995,7.754866746139526,14.435761069869995C7.907076746139526,14.521461069869995,8.092926746139526,14.521461069869995,8.245126746139526,14.435761069869995C8.245126746139526,14.435761069869995,7.9999967461395265,14.000061069869995,7.9999967461395265,14.000061069869995C7.9999967461395265,14.000061069869995,7.9999967461395265,14.000061069869995,7.9999967461395265,14.000061069869995ZM12.578466746139526,11.998291069869994C12.819166746139526,11.862911069869995,12.904466746139526,11.558051069869995,12.769166746139526,11.317371069869996C12.633766746139527,11.076691069869995,12.328866746139527,10.991331069869995,12.088206746139527,11.126711069869994C12.088206746139527,11.126711069869994,12.578466746139526,11.998291069869994,12.578466746139526,11.998291069869994C12.578466746139526,11.998291069869994,12.578466746139526,11.998291069869994,12.578466746139526,11.998291069869994ZM13.833366746139527,10.000001069869995C13.833366746139527,10.000001069869995,13.833366746139527,5.000001069869995,13.833366746139527,5.000001069869995C13.833366746139527,5.000001069869995,12.833366746139527,5.000001069869995,12.833366746139527,5.000001069869995C12.833366746139527,5.000001069869995,12.833366746139527,10.000001069869995,12.833366746139527,10.000001069869995C12.833366746139527,10.000001069869995,13.833366746139527,10.000001069869995,13.833366746139527,10.000001069869995C13.833366746139527,10.000001069869995,13.833366746139527,10.000001069869995,13.833366746139527,10.000001069869995ZM13.578466746139526,4.5642110698699945C13.578466746139526,4.5642110698699945,9.411796746139526,2.220462069869995,9.411796746139526,2.220462069869995C9.411796746139526,2.220462069869995,8.921536746139527,3.092038069869995,8.921536746139527,3.092038069869995C8.921536746139527,3.092038069869995,13.088166746139526,5.435791069869995,13.088166746139526,5.435791069869995C13.088166746139526,5.435791069869995,13.578466746139526,4.5642110698699945,13.578466746139526,4.5642110698699945C13.578466746139526,4.5642110698699945,13.578466746139526,4.5642110698699945,13.578466746139526,4.5642110698699945ZM6.588206746139527,2.220462069869995C6.588206746139527,2.220462069869995,2.4215357461395266,4.5642110698699945,2.4215357461395266,4.5642110698699945C2.4215357461395266,4.5642110698699945,2.911797746139526,5.435791069869995,2.911797746139526,5.435791069869995C2.911797746139526,5.435791069869995,7.078466746139527,3.092038069869995,7.078466746139527,3.092038069869995C7.078466746139527,3.092038069869995,6.588206746139527,2.220462069869995,6.588206746139527,2.220462069869995C6.588206746139527,2.220462069869995,6.588206746139527,2.220462069869995,6.588206746139527,2.220462069869995ZM2.1666667461395264,5.000001069869995C2.1666667461395264,5.000001069869995,2.1666667461395264,10.000001069869995,2.1666667461395264,10.000001069869995C2.1666667461395264,10.000001069869995,3.1666667461395264,10.000001069869995,3.1666667461395264,10.000001069869995C3.1666667461395264,10.000001069869995,3.1666667461395264,5.000001069869995,3.1666667461395264,5.000001069869995C3.1666667461395264,5.000001069869995,2.1666667461395264,5.000001069869995,2.1666667461395264,5.000001069869995C2.1666667461395264,5.000001069869995,2.1666667461395264,5.000001069869995,2.1666667461395264,5.000001069869995ZM3.4215367461395263,11.998291069869994C3.4215367461395263,11.998291069869994,7.754866746139526,14.435761069869995,7.754866746139526,14.435761069869995C7.754866746139526,14.435761069869995,8.245126746139526,13.564261069869994,8.245126746139526,13.564261069869994C8.245126746139526,13.564261069869994,3.9117967461395264,11.126711069869994,3.9117967461395264,11.126711069869994C3.9117967461395264,11.126711069869994,3.4215367461395263,11.998291069869994,3.4215367461395263,11.998291069869994C3.4215367461395263,11.998291069869994,3.4215367461395263,11.998291069869994,3.4215367461395263,11.998291069869994ZM8.245126746139526,14.435761069869995C8.245126746139526,14.435761069869995,10.911796746139526,12.935761069869995,10.911796746139526,12.935761069869995C10.911796746139526,12.935761069869995,10.421536746139527,12.064211069869994,10.421536746139527,12.064211069869994C10.421536746139527,12.064211069869994,7.754866746139526,13.564261069869994,7.754866746139526,13.564261069869994C7.754866746139526,13.564261069869994,8.245126746139526,14.435761069869995,8.245126746139526,14.435761069869995C8.245126746139526,14.435761069869995,8.245126746139526,14.435761069869995,8.245126746139526,14.435761069869995ZM10.911796746139526,12.935761069869995C10.911796746139526,12.935761069869995,12.578466746139526,11.998291069869994,12.578466746139526,11.998291069869994C12.578466746139526,11.998291069869994,12.088206746139527,11.126711069869994,12.088206746139527,11.126711069869994C12.088206746139527,11.126711069869994,10.421536746139527,12.064211069869994,10.421536746139527,12.064211069869994C10.421536746139527,12.064211069869994,10.911796746139526,12.935761069869995,10.911796746139526,12.935761069869995C10.911796746139526,12.935761069869995,10.911796746139526,12.935761069869995,10.911796746139526,12.935761069869995Z" fill="#161616" fill-opacity="1"/></g><g><path d="M6,6.833336030883789C6,6.833336030883789,5.748065,6.401446030883789,5.748065,6.401446030883789C5.594456,6.491046030883789,5.5,6.655496030883789,5.5,6.833336030883789C5.5,6.833336030883789,6,6.833336030883789,6,6.833336030883789C6,6.833336030883789,6,6.833336030883789,6,6.833336030883789ZM6,9.166666030883789C6,9.166666030883789,5.5,9.166666030883789,5.5,9.166666030883789C5.5,9.34449603088379,5.594456,9.508946030883788,5.748065,9.598556030883788C5.748065,9.598556030883788,6,9.166666030883789,6,9.166666030883789C6,9.166666030883789,6,9.166666030883789,6,9.166666030883789ZM8,10.333336030883789C8,10.333336030883789,7.748060000000001,10.765226030883788,7.748060000000001,10.765226030883788C7.9037500000000005,10.85603603088379,8.09625,10.85603603088379,8.25194,10.765226030883788C8.25194,10.765226030883788,8,10.333336030883789,8,10.333336030883789C8,10.333336030883789,8,10.333336030883789,8,10.333336030883789ZM10,9.166666030883789C10,9.166666030883789,10.251940000000001,9.598556030883788,10.251940000000001,9.598556030883788C10.40554,9.508946030883788,10.5,9.34449603088379,10.5,9.166666030883789C10.5,9.166666030883789,10,9.166666030883789,10,9.166666030883789C10,9.166666030883789,10,9.166666030883789,10,9.166666030883789ZM10,6.833336030883789C10,6.833336030883789,10.5,6.833336030883789,10.5,6.833336030883789C10.5,6.655496030883789,10.40554,6.491046030883789,10.251940000000001,6.401446030883789C10.251940000000001,6.401446030883789,10,6.833336030883789,10,6.833336030883789C10,6.833336030883789,10,6.833336030883789,10,6.833336030883789ZM8,5.666666030883789C8,5.666666030883789,8.25194,5.234777230883789,8.25194,5.234777230883789C8.09625,5.143962230883789,7.9037500000000005,5.143962230883789,7.748060000000001,5.234777230883789C7.748060000000001,5.234777230883789,8,5.666666030883789,8,5.666666030883789C8,5.666666030883789,8,5.666666030883789,8,5.666666030883789ZM6.74806,5.818110030883789C6.74806,5.818110030883789,5.748065,6.401446030883789,5.748065,6.401446030883789C5.748065,6.401446030883789,6.251935,7.265226030883789,6.251935,7.265226030883789C6.251935,7.265226030883789,7.25194,6.681886030883789,7.25194,6.681886030883789C7.25194,6.681886030883789,6.74806,5.818110030883789,6.74806,5.818110030883789C6.74806,5.818110030883789,6.74806,5.818110030883789,6.74806,5.818110030883789ZM5.5,6.833336030883789C5.5,6.833336030883789,5.5,7.999996030883789,5.5,7.999996030883789C5.5,7.999996030883789,6.5,7.999996030883789,6.5,7.999996030883789C6.5,7.999996030883789,6.5,6.833336030883789,6.5,6.833336030883789C6.5,6.833336030883789,5.5,6.833336030883789,5.5,6.833336030883789C5.5,6.833336030883789,5.5,6.833336030883789,5.5,6.833336030883789ZM5.5,7.999996030883789C5.5,7.999996030883789,5.5,9.166666030883789,5.5,9.166666030883789C5.5,9.166666030883789,6.5,9.166666030883789,6.5,9.166666030883789C6.5,9.166666030883789,6.5,7.999996030883789,6.5,7.999996030883789C6.5,7.999996030883789,5.5,7.999996030883789,5.5,7.999996030883789C5.5,7.999996030883789,5.5,7.999996030883789,5.5,7.999996030883789ZM5.748065,9.598556030883788C5.748065,9.598556030883788,6.74806,10.181886030883788,6.74806,10.181886030883788C6.74806,10.181886030883788,7.25194,9.31810603088379,7.25194,9.31810603088379C7.25194,9.31810603088379,6.251935,8.73477603088379,6.251935,8.73477603088379C6.251935,8.73477603088379,5.748065,9.598556030883788,5.748065,9.598556030883788C5.748065,9.598556030883788,5.748065,9.598556030883788,5.748065,9.598556030883788ZM6.74806,10.181886030883788C6.74806,10.181886030883788,7.748060000000001,10.765226030883788,7.748060000000001,10.765226030883788C7.748060000000001,10.765226030883788,8.25194,9.90144603088379,8.25194,9.90144603088379C8.25194,9.90144603088379,7.25194,9.31810603088379,7.25194,9.31810603088379C7.25194,9.31810603088379,6.74806,10.181886030883788,6.74806,10.181886030883788C6.74806,10.181886030883788,6.74806,10.181886030883788,6.74806,10.181886030883788ZM8.25194,10.765226030883788C8.25194,10.765226030883788,9.25194,10.181886030883788,9.25194,10.181886030883788C9.25194,10.181886030883788,8.74806,9.31810603088379,8.74806,9.31810603088379C8.74806,9.31810603088379,7.748060000000001,9.90144603088379,7.748060000000001,9.90144603088379C7.748060000000001,9.90144603088379,8.25194,10.765226030883788,8.25194,10.765226030883788C8.25194,10.765226030883788,8.25194,10.765226030883788,8.25194,10.765226030883788ZM9.25194,10.181886030883788C9.25194,10.181886030883788,10.251940000000001,9.598556030883788,10.251940000000001,9.598556030883788C10.251940000000001,9.598556030883788,9.748059999999999,8.73477603088379,9.748059999999999,8.73477603088379C9.748059999999999,8.73477603088379,8.74806,9.31810603088379,8.74806,9.31810603088379C8.74806,9.31810603088379,9.25194,10.181886030883788,9.25194,10.181886030883788C9.25194,10.181886030883788,9.25194,10.181886030883788,9.25194,10.181886030883788ZM10.5,9.166666030883789C10.5,9.166666030883789,10.5,7.999996030883789,10.5,7.999996030883789C10.5,7.999996030883789,9.5,7.999996030883789,9.5,7.999996030883789C9.5,7.999996030883789,9.5,9.166666030883789,9.5,9.166666030883789C9.5,9.166666030883789,10.5,9.166666030883789,10.5,9.166666030883789C10.5,9.166666030883789,10.5,9.166666030883789,10.5,9.166666030883789ZM10.5,7.999996030883789C10.5,7.999996030883789,10.5,6.833336030883789,10.5,6.833336030883789C10.5,6.833336030883789,9.5,6.833336030883789,9.5,6.833336030883789C9.5,6.833336030883789,9.5,7.999996030883789,9.5,7.999996030883789C9.5,7.999996030883789,10.5,7.999996030883789,10.5,7.999996030883789C10.5,7.999996030883789,10.5,7.999996030883789,10.5,7.999996030883789ZM10.251940000000001,6.401446030883789C10.251940000000001,6.401446030883789,9.25194,5.818110030883789,9.25194,5.818110030883789C9.25194,5.818110030883789,8.74806,6.681886030883789,8.74806,6.681886030883789C8.74806,6.681886030883789,9.748059999999999,7.265226030883789,9.748059999999999,7.265226030883789C9.748059999999999,7.265226030883789,10.251940000000001,6.401446030883789,10.251940000000001,6.401446030883789C10.251940000000001,6.401446030883789,10.251940000000001,6.401446030883789,10.251940000000001,6.401446030883789ZM9.25194,5.818110030883789C9.25194,5.818110030883789,8.25194,5.234777230883789,8.25194,5.234777230883789C8.25194,5.234777230883789,7.748060000000001,6.098555030883789,7.748060000000001,6.098555030883789C7.748060000000001,6.098555030883789,8.74806,6.681886030883789,8.74806,6.681886030883789C8.74806,6.681886030883789,9.25194,5.818110030883789,9.25194,5.818110030883789C9.25194,5.818110030883789,9.25194,5.818110030883789,9.25194,5.818110030883789ZM7.748060000000001,5.234777230883789C7.748060000000001,5.234777230883789,6.74806,5.818110030883789,6.74806,5.818110030883789C6.74806,5.818110030883789,7.25194,6.681886030883789,7.25194,6.681886030883789C7.25194,6.681886030883789,8.25194,6.098555030883789,8.25194,6.098555030883789C8.25194,6.098555030883789,7.748060000000001,5.234777230883789,7.748060000000001,5.234777230883789C7.748060000000001,5.234777230883789,7.748060000000001,5.234777230883789,7.748060000000001,5.234777230883789Z" fill="#161616" fill-opacity="1"/></g><g><path d="M7.5,5.666663253860474C7.5,5.942813253860473,7.723858,6.166663253860474,8,6.166663253860474C8.276142,6.166663253860474,8.5,5.942813253860473,8.5,5.666663253860474C8.5,5.666663253860474,7.5,5.666663253860474,7.5,5.666663253860474C7.5,5.666663253860474,7.5,5.666663253860474,7.5,5.666663253860474ZM8.5,3.3333332538604736C8.5,3.0571912538604735,8.276142,2.8333332538604736,8,2.8333332538604736C7.723858,2.8333332538604736,7.5,3.0571912538604735,7.5,3.3333332538604736C7.5,3.3333332538604736,8.5,3.3333332538604736,8.5,3.3333332538604736C8.5,3.3333332538604736,8.5,3.3333332538604736,8.5,3.3333332538604736ZM8.5,5.666663253860474C8.5,5.666663253860474,8.5,3.3333332538604736,8.5,3.3333332538604736C8.5,3.3333332538604736,7.5,3.3333332538604736,7.5,3.3333332538604736C7.5,3.3333332538604736,7.5,5.666663253860474,7.5,5.666663253860474C7.5,5.666663253860474,8.5,5.666663253860474,8.5,5.666663253860474C8.5,5.666663253860474,8.5,5.666663253860474,8.5,5.666663253860474Z" fill="#161616" fill-opacity="1"/></g><g><path d="M10.248069169311524,8.565877969311524C10.008311169311524,8.428872969311524,9.702883169311523,8.512171969311524,9.565877969311524,8.751931169311524C9.428872969311524,8.991689169311524,9.512171969311524,9.297117169311523,9.751931169311524,9.434122169311523C9.751931169311524,9.434122169311523,10.248069169311524,8.565877969311524,10.248069169311524,8.565877969311524C10.248069169311524,8.565877969311524,10.248069169311524,8.565877969311524,10.248069169311524,8.565877969311524ZM12.085264169311523,10.767454169311524C12.325024169311524,10.904464169311524,12.630454169311523,10.821164169311523,12.767454169311524,10.581404169311524C12.904464169311524,10.341644169311524,12.821164169311523,10.036224169311524,12.581404169311524,9.899214169311524C12.581404169311524,9.899214169311524,12.085264169311523,10.767454169311524,12.085264169311523,10.767454169311524C12.085264169311523,10.767454169311524,12.085264169311523,10.767454169311524,12.085264169311523,10.767454169311524ZM9.751931169311524,9.434122169311523C9.751931169311524,9.434122169311523,12.085264169311523,10.767454169311524,12.085264169311523,10.767454169311524C12.085264169311523,10.767454169311524,12.581404169311524,9.899214169311524,12.581404169311524,9.899214169311524C12.581404169311524,9.899214169311524,10.248069169311524,8.565877969311524,10.248069169311524,8.565877969311524C10.248069169311524,8.565877969311524,9.751931169311524,9.434122169311523,9.751931169311524,9.434122169311523C9.751931169311524,9.434122169311523,9.751931169311524,9.434122169311523,9.751931169311524,9.434122169311523Z" fill="#161616" fill-opacity="1"/></g><g><path d="M6.24807091545105,9.434122169311523C6.48783091545105,9.297117169311523,6.57113091545105,8.991689169311524,6.43412091545105,8.751931169311524C6.29712091545105,8.512171969311524,5.99169091545105,8.428872969311524,5.75193091545105,8.565877969311524C5.75193091545105,8.565877969311524,6.24807091545105,9.434122169311523,6.24807091545105,9.434122169311523C6.24807091545105,9.434122169311523,6.24807091545105,9.434122169311523,6.24807091545105,9.434122169311523ZM3.4185979154510497,9.899214169311524C3.17883871545105,10.036224169311524,3.09553971545105,10.341644169311524,3.23254471545105,10.581404169311524C3.3695499154510498,10.821164169311523,3.67497791545105,10.904464169311524,3.91473591545105,10.767454169311524C3.91473591545105,10.767454169311524,3.4185979154510497,9.899214169311524,3.4185979154510497,9.899214169311524C3.4185979154510497,9.899214169311524,3.4185979154510497,9.899214169311524,3.4185979154510497,9.899214169311524ZM5.75193091545105,8.565877969311524C5.75193091545105,8.565877969311524,3.4185979154510497,9.899214169311524,3.4185979154510497,9.899214169311524C3.4185979154510497,9.899214169311524,3.91473591545105,10.767454169311524,3.91473591545105,10.767454169311524C3.91473591545105,10.767454169311524,6.24807091545105,9.434122169311523,6.24807091545105,9.434122169311523C6.24807091545105,9.434122169311523,5.75193091545105,8.565877969311524,5.75193091545105,8.565877969311524C5.75193091545105,8.565877969311524,5.75193091545105,8.565877969311524,5.75193091545105,8.565877969311524Z" fill="#161616" fill-opacity="1"/></g><g><path d="M8.5,2.333333373069763C8.5,2.609473373069763,8.27614,2.833333373069763,8,2.833333373069763C8,2.833333373069763,8,3.833333373069763,8,3.833333373069763C8.82843,3.833333373069763,9.5,3.161763373069763,9.5,2.333333373069763C9.5,2.333333373069763,8.5,2.333333373069763,8.5,2.333333373069763C8.5,2.333333373069763,8.5,2.333333373069763,8.5,2.333333373069763ZM8,2.833333373069763C7.72386,2.833333373069763,7.5,2.609473373069763,7.5,2.333333373069763C7.5,2.333333373069763,6.5,2.333333373069763,6.5,2.333333373069763C6.5,3.161763373069763,7.171573,3.833333373069763,8,3.833333373069763C8,3.833333373069763,8,2.833333373069763,8,2.833333373069763C8,2.833333373069763,8,2.833333373069763,8,2.833333373069763ZM7.5,2.333333373069763C7.5,2.0571933730697634,7.72386,1.8333333730697632,8,1.8333333730697632C8,1.8333333730697632,8,0.8333333730697632,8,0.8333333730697632C7.171573,0.8333333730697632,6.5,1.5049063730697632,6.5,2.333333373069763C6.5,2.333333373069763,7.5,2.333333373069763,7.5,2.333333373069763C7.5,2.333333373069763,7.5,2.333333373069763,7.5,2.333333373069763ZM8,1.8333333730697632C8.27614,1.8333333730697632,8.5,2.0571933730697634,8.5,2.333333373069763C8.5,2.333333373069763,9.5,2.333333373069763,9.5,2.333333373069763C9.5,1.5049063730697632,8.82843,0.8333333730697632,8,0.8333333730697632C8,0.8333333730697632,8,1.8333333730697632,8,1.8333333730697632C8,1.8333333730697632,8,1.8333333730697632,8,1.8333333730697632Z" fill="#161616" fill-opacity="1"/></g><g><path d="M3.166666626930237,11C3.166666626930237,11.27614,2.9428066269302366,11.5,2.666666626930237,11.5C2.666666626930237,11.5,2.666666626930237,12.5,2.666666626930237,12.5C3.495096626930237,12.5,4.166666626930237,11.82843,4.166666626930237,11C4.166666626930237,11,3.166666626930237,11,3.166666626930237,11C3.166666626930237,11,3.166666626930237,11,3.166666626930237,11ZM2.666666626930237,11.5C2.390526626930237,11.5,2.166666626930237,11.27614,2.166666626930237,11C2.166666626930237,11,1.1666666269302368,11,1.1666666269302368,11C1.1666666269302368,11.82843,1.8382396269302368,12.5,2.666666626930237,12.5C2.666666626930237,12.5,2.666666626930237,11.5,2.666666626930237,11.5C2.666666626930237,11.5,2.666666626930237,11.5,2.666666626930237,11.5ZM2.166666626930237,11C2.166666626930237,10.72386,2.390526626930237,10.5,2.666666626930237,10.5C2.666666626930237,10.5,2.666666626930237,9.5,2.666666626930237,9.5C1.8382396269302368,9.5,1.1666666269302368,10.171573,1.1666666269302368,11C1.1666666269302368,11,2.166666626930237,11,2.166666626930237,11C2.166666626930237,11,2.166666626930237,11,2.166666626930237,11ZM2.666666626930237,10.5C2.9428066269302366,10.5,3.166666626930237,10.72386,3.166666626930237,11C3.166666626930237,11,4.166666626930237,11,4.166666626930237,11C4.166666626930237,10.171573,3.495096626930237,9.5,2.666666626930237,9.5C2.666666626930237,9.5,2.666666626930237,10.5,2.666666626930237,10.5C2.666666626930237,10.5,2.666666626930237,10.5,2.666666626930237,10.5Z" fill="#161616" fill-opacity="1"/></g><g><path d="M13.833333015441895,11C13.833333015441895,11.27614,13.609473015441894,11.5,13.333333015441895,11.5C13.333333015441895,11.5,13.333333015441895,12.5,13.333333015441895,12.5C14.161763015441895,12.5,14.833333015441895,11.82843,14.833333015441895,11C14.833333015441895,11,13.833333015441895,11,13.833333015441895,11C13.833333015441895,11,13.833333015441895,11,13.833333015441895,11ZM13.333333015441895,11.5C13.057193015441895,11.5,12.833333015441895,11.27614,12.833333015441895,11C12.833333015441895,11,11.833333015441895,11,11.833333015441895,11C11.833333015441895,11.82843,12.504906015441895,12.5,13.333333015441895,12.5C13.333333015441895,12.5,13.333333015441895,11.5,13.333333015441895,11.5C13.333333015441895,11.5,13.333333015441895,11.5,13.333333015441895,11.5ZM12.833333015441895,11C12.833333015441895,10.72386,13.057193015441895,10.5,13.333333015441895,10.5C13.333333015441895,10.5,13.333333015441895,9.5,13.333333015441895,9.5C12.504906015441895,9.5,11.833333015441895,10.171573,11.833333015441895,11C11.833333015441895,11,12.833333015441895,11,12.833333015441895,11C12.833333015441895,11,12.833333015441895,11,12.833333015441895,11ZM13.333333015441895,10.5C13.609473015441894,10.5,13.833333015441895,10.72386,13.833333015441895,11C13.833333015441895,11,14.833333015441895,11,14.833333015441895,11C14.833333015441895,10.171573,14.161763015441895,9.5,13.333333015441895,9.5C13.333333015441895,9.5,13.333333015441895,10.5,13.333333015441895,10.5C13.333333015441895,10.5,13.333333015441895,10.5,13.333333015441895,10.5Z" fill="#161616" fill-opacity="1"/></g></g></svg>