<svg xmlns="http://www.w3.org/2000/svg" xmlns:xlink="http://www.w3.org/1999/xlink" fill="none" version="1.1" width="16" height="16" viewBox="0 0 16 16"><defs><clipPath id="master_svg0_0_56706"><rect x="0" y="0" width="16" height="16" rx="0"/></clipPath></defs><g clip-path="url(#master_svg0_0_56706)"><g><path d="M13.666633253860473,14.666666507720947L13.666633253860473,15.166666507720947C13.942833253860474,15.166666507720947,14.166633253860473,14.942806507720947,14.166633253860473,14.666666507720947L13.666633253860473,14.666666507720947ZM13.666633253860473,6.666666507720947L14.166633253860473,6.666666507720947C14.166633253860473,6.390524507720947,13.942833253860474,6.166666507720947,13.666633253860473,6.166666507720947L13.666633253860473,6.666666507720947ZM2.3333332538604736,6.666666507720947L2.3333332538604736,6.166666507720947C2.0571912538604735,6.166666507720947,1.8333332538604736,6.390524507720947,1.8333332538604736,6.666666507720947L2.3333332538604736,6.666666507720947ZM2.3333332538604736,14.666666507720947L1.8333332538604736,14.666666507720947C1.8333332538604736,14.942806507720947,2.0571912538604735,15.166666507720947,2.3333332538604736,15.166666507720947L2.3333332538604736,14.666666507720947ZM14.166633253860473,14.666666507720947L14.166633253860473,6.666666507720947L13.166633253860473,6.666666507720947L13.166633253860473,14.666666507720947L14.166633253860473,14.666666507720947ZM13.666633253860473,6.166666507720947L2.3333332538604736,6.166666507720947L2.3333332538604736,7.166666507720947L13.666633253860473,7.166666507720947L13.666633253860473,6.166666507720947ZM1.8333332538604736,6.666666507720947L1.8333332538604736,14.666666507720947L2.8333332538604736,14.666666507720947L2.8333332538604736,6.666666507720947L1.8333332538604736,6.666666507720947ZM2.3333332538604736,15.166666507720947L13.666633253860473,15.166666507720947L13.666633253860473,14.166666507720947L2.3333332538604736,14.166666507720947L2.3333332538604736,15.166666507720947Z" fill="#161616" fill-opacity="1"/></g><g><path d="M7.5,6.666666507720947L7.5,14.666666507720947C7.5,14.942806507720947,7.723858,15.166666507720947,8,15.166666507720947C8.276142,15.166666507720947,8.5,14.942806507720947,8.5,14.666666507720947L8.5,6.666666507720947C8.5,6.390524507720947,8.276142,6.166666507720947,8,6.166666507720947C7.723858,6.166666507720947,7.5,6.390524507720947,7.5,6.666666507720947Z" fill="#161616" fill-opacity="1"/></g><g><path d="M1.8333332538604736,14.666666984558105C1.8333332538604736,14.942808984558106,2.0571912538604735,15.166666984558105,2.3333332538604736,15.166666984558105L13.666633253860473,15.166666984558105C13.942833253860474,15.166666984558105,14.166633253860473,14.942808984558106,14.166633253860473,14.666666984558105C14.166633253860473,14.390524984558105,13.942833253860474,14.166666984558105,13.666633253860473,14.166666984558105L2.3333332538604736,14.166666984558105C2.0571912538604735,14.166666984558105,1.8333332538604736,14.390524984558105,1.8333332538604736,14.666666984558105Z" fill="#161616" fill-opacity="1"/></g><g><path d="M1.3333333730697632,4L1.3333333730697632,3.5C1.057191373069763,3.5,0.8333333730697632,3.723858,0.8333333730697632,4L1.3333333730697632,4ZM14.666633373069763,4L15.166633373069763,4C15.166633373069763,3.723858,14.942833373069764,3.5,14.666633373069763,3.5L14.666633373069763,4ZM14.666633373069763,6.66667L14.666633373069763,7.16667C14.942833373069764,7.16667,15.166633373069763,6.94281,15.166633373069763,6.66667L14.666633373069763,6.66667ZM1.3333333730697632,6.66667L0.8333333730697632,6.66667C0.8333333730697632,6.94281,1.057191373069763,7.16667,1.3333333730697632,7.16667L1.3333333730697632,6.66667ZM1.3333333730697632,4.5L14.666633373069763,4.5L14.666633373069763,3.5L1.3333333730697632,3.5L1.3333333730697632,4.5ZM14.166633373069763,4L14.166633373069763,6.66667L15.166633373069763,6.66667L15.166633373069763,4L14.166633373069763,4ZM14.666633373069763,6.16667L1.3333333730697632,6.16667L1.3333333730697632,7.16667L14.666633373069763,7.16667L14.666633373069763,6.16667ZM1.8333333730697632,6.66667L1.8333333730697632,4L0.8333333730697632,4L0.8333333730697632,6.66667L1.8333333730697632,6.66667Z" fill="#161616" fill-opacity="1"/></g><g><path d="M4.979780015441895,0.9797801346511841C4.784517315441895,1.1750421346511841,4.784517315441895,1.491624134651184,4.979780015441895,1.686886134651184L7.6464430154418945,4.353553134651184C7.841713015441894,4.5488131346511835,8.158293015441895,4.5488131346511835,8.353553015441895,4.353553134651184L11.020223015441895,1.686886134651184C11.215483015441894,1.491624134651184,11.215483015441894,1.1750421346511841,11.020223015441895,0.9797801346511841C10.824953015441896,0.7845174346511841,10.508373015441894,0.7845174346511841,10.313113015441894,0.9797801346511841L8.000003015441894,3.2928931346511843L5.686886015441894,0.9797801346511841C5.491624015441895,0.7845174346511841,5.175042015441894,0.7845174346511841,4.979780015441895,0.9797801346511841Z" fill="#161616" fill-opacity="1"/></g></g></svg>