<svg xmlns="http://www.w3.org/2000/svg" xmlns:xlink="http://www.w3.org/1999/xlink" fill="none" version="1.1" width="16" height="16" viewBox="0 0 16 16"><defs><clipPath id="master_svg0_0_14116"><rect x="0" y="0" width="16" height="16" rx="0"/></clipPath></defs><g clip-path="url(#master_svg0_0_14116)"><g><path d="M2.000003373069763,3.1666667461395264C2.000003373069763,3.1666667461395264,14.000033373069764,3.1666667461395264,14.000033373069764,3.1666667461395264C14.000033373069764,3.1666667461395264,14.000033373069764,2.1666667461395264,14.000033373069764,2.1666667461395264C14.000033373069764,2.1666667461395264,2.000003373069763,2.1666667461395264,2.000003373069763,2.1666667461395264C2.000003373069763,2.1666667461395264,2.000003373069763,3.1666667461395264,2.000003373069763,3.1666667461395264C2.000003373069763,3.1666667461395264,2.000003373069763,3.1666667461395264,2.000003373069763,3.1666667461395264ZM14.000033373069764,3.1666667461395264C14.092033373069762,3.1666667461395264,14.166633373069763,3.2412867461395263,14.166633373069763,3.3333367461395262C14.166633373069763,3.3333367461395262,15.166633373069763,3.3333367461395262,15.166633373069763,3.3333367461395262C15.166633373069763,2.6890017461395264,14.644333373069763,2.1666667461395264,14.000033373069764,2.1666667461395264C14.000033373069764,2.1666667461395264,14.000033373069764,3.1666667461395264,14.000033373069764,3.1666667461395264C14.000033373069764,3.1666667461395264,14.000033373069764,3.1666667461395264,14.000033373069764,3.1666667461395264ZM14.166633373069763,3.3333367461395262C14.166633373069763,3.3333367461395262,14.166633373069763,13.999966746139526,14.166633373069763,13.999966746139526C14.166633373069763,13.999966746139526,15.166633373069763,13.999966746139526,15.166633373069763,13.999966746139526C15.166633373069763,13.999966746139526,15.166633373069763,3.3333367461395262,15.166633373069763,3.3333367461395262C15.166633373069763,3.3333367461395262,14.166633373069763,3.3333367461395262,14.166633373069763,3.3333367461395262C14.166633373069763,3.3333367461395262,14.166633373069763,3.3333367461395262,14.166633373069763,3.3333367461395262ZM14.166633373069763,13.999966746139526C14.166633373069763,14.092066746139526,14.092033373069762,14.166666746139526,14.000033373069764,14.166666746139526C14.000033373069764,14.166666746139526,14.000033373069764,15.166666746139526,14.000033373069764,15.166666746139526C14.644333373069763,15.166666746139526,15.166633373069763,14.644366746139527,15.166633373069763,13.999966746139526C15.166633373069763,13.999966746139526,14.166633373069763,13.999966746139526,14.166633373069763,13.999966746139526C14.166633373069763,13.999966746139526,14.166633373069763,13.999966746139526,14.166633373069763,13.999966746139526ZM14.000033373069764,14.166666746139526C14.000033373069764,14.166666746139526,2.000003373069763,14.166666746139526,2.000003373069763,14.166666746139526C2.000003373069763,14.166666746139526,2.000003373069763,15.166666746139526,2.000003373069763,15.166666746139526C2.000003373069763,15.166666746139526,14.000033373069764,15.166666746139526,14.000033373069764,15.166666746139526C14.000033373069764,15.166666746139526,14.000033373069764,14.166666746139526,14.000033373069764,14.166666746139526C14.000033373069764,14.166666746139526,14.000033373069764,14.166666746139526,14.000033373069764,14.166666746139526ZM2.000003373069763,14.166666746139526C1.907953373069763,14.166666746139526,1.8333333730697632,14.092066746139526,1.8333333730697632,13.999966746139526C1.8333333730697632,13.999966746139526,0.8333333730697632,13.999966746139526,0.8333333730697632,13.999966746139526C0.8333333730697632,14.644366746139527,1.355667373069763,15.166666746139526,2.000003373069763,15.166666746139526C2.000003373069763,15.166666746139526,2.000003373069763,14.166666746139526,2.000003373069763,14.166666746139526C2.000003373069763,14.166666746139526,2.000003373069763,14.166666746139526,2.000003373069763,14.166666746139526ZM1.8333333730697632,13.999966746139526C1.8333333730697632,13.999966746139526,1.8333333730697632,3.3333367461395262,1.8333333730697632,3.3333367461395262C1.8333333730697632,3.3333367461395262,0.8333333730697632,3.3333367461395262,0.8333333730697632,3.3333367461395262C0.8333333730697632,3.3333367461395262,0.8333333730697632,13.999966746139526,0.8333333730697632,13.999966746139526C0.8333333730697632,13.999966746139526,1.8333333730697632,13.999966746139526,1.8333333730697632,13.999966746139526C1.8333333730697632,13.999966746139526,1.8333333730697632,13.999966746139526,1.8333333730697632,13.999966746139526ZM1.8333333730697632,3.3333367461395262C1.8333333730697632,3.2412867461395263,1.907953373069763,3.1666667461395264,2.000003373069763,3.1666667461395264C2.000003373069763,3.1666667461395264,2.000003373069763,2.1666667461395264,2.000003373069763,2.1666667461395264C1.355667373069763,2.1666667461395264,0.8333333730697632,2.6890017461395264,0.8333333730697632,3.3333367461395262C0.8333333730697632,3.3333367461395262,1.8333333730697632,3.3333367461395262,1.8333333730697632,3.3333367461395262C1.8333333730697632,3.3333367461395262,1.8333333730697632,3.3333367461395262,1.8333333730697632,3.3333367461395262Z" fill="#161616" fill-opacity="1"/></g><g><path d="M1.3333333730697632,6.166666507720947C1.057191373069763,6.166666507720947,0.8333333730697632,6.390524507720947,0.8333333730697632,6.666666507720947C0.8333333730697632,6.942808507720947,1.057191373069763,7.166666507720947,1.3333333730697632,7.166666507720947C1.3333333730697632,7.166666507720947,1.3333333730697632,6.166666507720947,1.3333333730697632,6.166666507720947C1.3333333730697632,6.166666507720947,1.3333333730697632,6.166666507720947,1.3333333730697632,6.166666507720947ZM14.666633373069763,7.166666507720947C14.942833373069764,7.166666507720947,15.166633373069763,6.942808507720947,15.166633373069763,6.666666507720947C15.166633373069763,6.390524507720947,14.942833373069764,6.166666507720947,14.666633373069763,6.166666507720947C14.666633373069763,6.166666507720947,14.666633373069763,7.166666507720947,14.666633373069763,7.166666507720947C14.666633373069763,7.166666507720947,14.666633373069763,7.166666507720947,14.666633373069763,7.166666507720947ZM1.3333333730697632,7.166666507720947C1.3333333730697632,7.166666507720947,14.666633373069763,7.166666507720947,14.666633373069763,7.166666507720947C14.666633373069763,7.166666507720947,14.666633373069763,6.166666507720947,14.666633373069763,6.166666507720947C14.666633373069763,6.166666507720947,1.3333333730697632,6.166666507720947,1.3333333730697632,6.166666507720947C1.3333333730697632,6.166666507720947,1.3333333730697632,7.166666507720947,1.3333333730697632,7.166666507720947C1.3333333730697632,7.166666507720947,1.3333333730697632,7.166666507720947,1.3333333730697632,7.166666507720947Z" fill="#161616" fill-opacity="1"/></g><g><path d="M1.3333333730697632,10.166666984558105C1.057191373069763,10.166666984558105,0.8333333730697632,10.390524984558105,0.8333333730697632,10.666666984558105C0.8333333730697632,10.942808984558106,1.057191373069763,11.166666984558105,1.3333333730697632,11.166666984558105C1.3333333730697632,11.166666984558105,1.3333333730697632,10.166666984558105,1.3333333730697632,10.166666984558105C1.3333333730697632,10.166666984558105,1.3333333730697632,10.166666984558105,1.3333333730697632,10.166666984558105ZM14.666633373069763,11.166666984558105C14.942833373069764,11.166666984558105,15.166633373069763,10.942808984558106,15.166633373069763,10.666666984558105C15.166633373069763,10.390524984558105,14.942833373069764,10.166666984558105,14.666633373069763,10.166666984558105C14.666633373069763,10.166666984558105,14.666633373069763,11.166666984558105,14.666633373069763,11.166666984558105C14.666633373069763,11.166666984558105,14.666633373069763,11.166666984558105,14.666633373069763,11.166666984558105ZM1.3333333730697632,11.166666984558105C1.3333333730697632,11.166666984558105,14.666633373069763,11.166666984558105,14.666633373069763,11.166666984558105C14.666633373069763,11.166666984558105,14.666633373069763,10.166666984558105,14.666633373069763,10.166666984558105C14.666633373069763,10.166666984558105,1.3333333730697632,10.166666984558105,1.3333333730697632,10.166666984558105C1.3333333730697632,10.166666984558105,1.3333333730697632,11.166666984558105,1.3333333730697632,11.166666984558105C1.3333333730697632,11.166666984558105,1.3333333730697632,11.166666984558105,1.3333333730697632,11.166666984558105Z" fill="#161616" fill-opacity="1"/></g><g><path d="M6.166666507720947,1.3333333730697632C6.166666507720947,1.057191373069763,5.942808507720947,0.8333333730697632,5.666666507720947,0.8333333730697632C5.390524507720947,0.8333333730697632,5.166666507720947,1.057191373069763,5.166666507720947,1.3333333730697632C5.166666507720947,1.3333333730697632,6.166666507720947,1.3333333730697632,6.166666507720947,1.3333333730697632C6.166666507720947,1.3333333730697632,6.166666507720947,1.3333333730697632,6.166666507720947,1.3333333730697632ZM5.166666507720947,4.000003373069763C5.166666507720947,4.276143373069763,5.390524507720947,4.500003373069763,5.666666507720947,4.500003373069763C5.942808507720947,4.500003373069763,6.166666507720947,4.276143373069763,6.166666507720947,4.000003373069763C6.166666507720947,4.000003373069763,5.166666507720947,4.000003373069763,5.166666507720947,4.000003373069763C5.166666507720947,4.000003373069763,5.166666507720947,4.000003373069763,5.166666507720947,4.000003373069763ZM5.166666507720947,1.3333333730697632C5.166666507720947,1.3333333730697632,5.166666507720947,4.000003373069763,5.166666507720947,4.000003373069763C5.166666507720947,4.000003373069763,6.166666507720947,4.000003373069763,6.166666507720947,4.000003373069763C6.166666507720947,4.000003373069763,6.166666507720947,1.3333333730697632,6.166666507720947,1.3333333730697632C6.166666507720947,1.3333333730697632,5.166666507720947,1.3333333730697632,5.166666507720947,1.3333333730697632C5.166666507720947,1.3333333730697632,5.166666507720947,1.3333333730697632,5.166666507720947,1.3333333730697632Z" fill="#161616" fill-opacity="1"/></g><g><path d="M10.833333015441895,1.3333333730697632C10.833333015441895,1.057191373069763,10.609475015441895,0.8333333730697632,10.333333015441895,0.8333333730697632C10.057191015441894,0.8333333730697632,9.833333015441895,1.057191373069763,9.833333015441895,1.3333333730697632C9.833333015441895,1.3333333730697632,10.833333015441895,1.3333333730697632,10.833333015441895,1.3333333730697632C10.833333015441895,1.3333333730697632,10.833333015441895,1.3333333730697632,10.833333015441895,1.3333333730697632ZM9.833333015441895,4.000003373069763C9.833333015441895,4.276143373069763,10.057191015441894,4.500003373069763,10.333333015441895,4.500003373069763C10.609475015441895,4.500003373069763,10.833333015441895,4.276143373069763,10.833333015441895,4.000003373069763C10.833333015441895,4.000003373069763,9.833333015441895,4.000003373069763,9.833333015441895,4.000003373069763C9.833333015441895,4.000003373069763,9.833333015441895,4.000003373069763,9.833333015441895,4.000003373069763ZM9.833333015441895,1.3333333730697632C9.833333015441895,1.3333333730697632,9.833333015441895,4.000003373069763,9.833333015441895,4.000003373069763C9.833333015441895,4.000003373069763,10.833333015441895,4.000003373069763,10.833333015441895,4.000003373069763C10.833333015441895,4.000003373069763,10.833333015441895,1.3333333730697632,10.833333015441895,1.3333333730697632C10.833333015441895,1.3333333730697632,9.833333015441895,1.3333333730697632,9.833333015441895,1.3333333730697632C9.833333015441895,1.3333333730697632,9.833333015441895,1.3333333730697632,9.833333015441895,1.3333333730697632Z" fill="#161616" fill-opacity="1"/></g><g><path d="M6.166666507720947,6.666666507720947C6.166666507720947,6.390524507720947,5.942808507720947,6.166666507720947,5.666666507720947,6.166666507720947C5.390524507720947,6.166666507720947,5.166666507720947,6.390524507720947,5.166666507720947,6.666666507720947C5.166666507720947,6.666666507720947,6.166666507720947,6.666666507720947,6.166666507720947,6.666666507720947C6.166666507720947,6.666666507720947,6.166666507720947,6.666666507720947,6.166666507720947,6.666666507720947ZM5.166666507720947,14.666666507720947C5.166666507720947,14.942806507720947,5.390524507720947,15.166666507720947,5.666666507720947,15.166666507720947C5.942808507720947,15.166666507720947,6.166666507720947,14.942806507720947,6.166666507720947,14.666666507720947C6.166666507720947,14.666666507720947,5.166666507720947,14.666666507720947,5.166666507720947,14.666666507720947C5.166666507720947,14.666666507720947,5.166666507720947,14.666666507720947,5.166666507720947,14.666666507720947ZM5.166666507720947,6.666666507720947C5.166666507720947,6.666666507720947,5.166666507720947,14.666666507720947,5.166666507720947,14.666666507720947C5.166666507720947,14.666666507720947,6.166666507720947,14.666666507720947,6.166666507720947,14.666666507720947C6.166666507720947,14.666666507720947,6.166666507720947,6.666666507720947,6.166666507720947,6.666666507720947C6.166666507720947,6.666666507720947,5.166666507720947,6.666666507720947,5.166666507720947,6.666666507720947C5.166666507720947,6.666666507720947,5.166666507720947,6.666666507720947,5.166666507720947,6.666666507720947Z" fill="#161616" fill-opacity="1"/></g><g><path d="M10.833333015441895,6.666666507720947C10.833333015441895,6.390524507720947,10.609475015441895,6.166666507720947,10.333333015441895,6.166666507720947C10.057191015441894,6.166666507720947,9.833333015441895,6.390524507720947,9.833333015441895,6.666666507720947C9.833333015441895,6.666666507720947,10.833333015441895,6.666666507720947,10.833333015441895,6.666666507720947C10.833333015441895,6.666666507720947,10.833333015441895,6.666666507720947,10.833333015441895,6.666666507720947ZM9.833333015441895,14.666666507720947C9.833333015441895,14.942806507720947,10.057191015441894,15.166666507720947,10.333333015441895,15.166666507720947C10.609475015441895,15.166666507720947,10.833333015441895,14.942806507720947,10.833333015441895,14.666666507720947C10.833333015441895,14.666666507720947,9.833333015441895,14.666666507720947,9.833333015441895,14.666666507720947C9.833333015441895,14.666666507720947,9.833333015441895,14.666666507720947,9.833333015441895,14.666666507720947ZM9.833333015441895,6.666666507720947C9.833333015441895,6.666666507720947,9.833333015441895,14.666666507720947,9.833333015441895,14.666666507720947C9.833333015441895,14.666666507720947,10.833333015441895,14.666666507720947,10.833333015441895,14.666666507720947C10.833333015441895,14.666666507720947,10.833333015441895,6.666666507720947,10.833333015441895,6.666666507720947C10.833333015441895,6.666666507720947,9.833333015441895,6.666666507720947,9.833333015441895,6.666666507720947C9.833333015441895,6.666666507720947,9.833333015441895,6.666666507720947,9.833333015441895,6.666666507720947Z" fill="#161616" fill-opacity="1"/></g><g><path d="M15.166666984558105,4.333333492279053C15.166666984558105,4.057191492279053,14.942808984558106,3.8333334922790527,14.666666984558105,3.8333334922790527C14.390524984558105,3.8333334922790527,14.166666984558105,4.057191492279053,14.166666984558105,4.333333492279053C14.166666984558105,4.333333492279053,15.166666984558105,4.333333492279053,15.166666984558105,4.333333492279053C15.166666984558105,4.333333492279053,15.166666984558105,4.333333492279053,15.166666984558105,4.333333492279053ZM14.166666984558105,13.000003492279053C14.166666984558105,13.276143492279052,14.390524984558105,13.500003492279053,14.666666984558105,13.500003492279053C14.942808984558106,13.500003492279053,15.166666984558105,13.276143492279052,15.166666984558105,13.000003492279053C15.166666984558105,13.000003492279053,14.166666984558105,13.000003492279053,14.166666984558105,13.000003492279053C14.166666984558105,13.000003492279053,14.166666984558105,13.000003492279053,14.166666984558105,13.000003492279053ZM14.166666984558105,4.333333492279053C14.166666984558105,4.333333492279053,14.166666984558105,13.000003492279053,14.166666984558105,13.000003492279053C14.166666984558105,13.000003492279053,15.166666984558105,13.000003492279053,15.166666984558105,13.000003492279053C15.166666984558105,13.000003492279053,15.166666984558105,4.333333492279053,15.166666984558105,4.333333492279053C15.166666984558105,4.333333492279053,14.166666984558105,4.333333492279053,14.166666984558105,4.333333492279053C14.166666984558105,4.333333492279053,14.166666984558105,4.333333492279053,14.166666984558105,4.333333492279053Z" fill="#161616" fill-opacity="1"/></g><g><path d="M1.8333333730697632,4.333333492279053C1.8333333730697632,4.057191492279053,1.6094753730697633,3.8333334922790527,1.3333333730697632,3.8333334922790527C1.057191373069763,3.8333334922790527,0.8333333730697632,4.057191492279053,0.8333333730697632,4.333333492279053C0.8333333730697632,4.333333492279053,1.8333333730697632,4.333333492279053,1.8333333730697632,4.333333492279053C1.8333333730697632,4.333333492279053,1.8333333730697632,4.333333492279053,1.8333333730697632,4.333333492279053ZM0.8333333730697632,13.000003492279053C0.8333333730697632,13.276143492279052,1.057191373069763,13.500003492279053,1.3333333730697632,13.500003492279053C1.6094753730697633,13.500003492279053,1.8333333730697632,13.276143492279052,1.8333333730697632,13.000003492279053C1.8333333730697632,13.000003492279053,0.8333333730697632,13.000003492279053,0.8333333730697632,13.000003492279053C0.8333333730697632,13.000003492279053,0.8333333730697632,13.000003492279053,0.8333333730697632,13.000003492279053ZM0.8333333730697632,4.333333492279053C0.8333333730697632,4.333333492279053,0.8333333730697632,13.000003492279053,0.8333333730697632,13.000003492279053C0.8333333730697632,13.000003492279053,1.8333333730697632,13.000003492279053,1.8333333730697632,13.000003492279053C1.8333333730697632,13.000003492279053,1.8333333730697632,4.333333492279053,1.8333333730697632,4.333333492279053C1.8333333730697632,4.333333492279053,0.8333333730697632,4.333333492279053,0.8333333730697632,4.333333492279053C0.8333333730697632,4.333333492279053,0.8333333730697632,4.333333492279053,0.8333333730697632,4.333333492279053Z" fill="#161616" fill-opacity="1"/></g><g><path d="M4.666666507720947,14.166666984558105C4.390524507720947,14.166666984558105,4.166666507720947,14.390524984558105,4.166666507720947,14.666666984558105C4.166666507720947,14.942808984558106,4.390524507720947,15.166666984558105,4.666666507720947,15.166666984558105C4.666666507720947,15.166666984558105,4.666666507720947,14.166666984558105,4.666666507720947,14.166666984558105C4.666666507720947,14.166666984558105,4.666666507720947,14.166666984558105,4.666666507720947,14.166666984558105ZM11.333336507720947,15.166666984558105C11.609476507720947,15.166666984558105,11.833336507720947,14.942808984558106,11.833336507720947,14.666666984558105C11.833336507720947,14.390524984558105,11.609476507720947,14.166666984558105,11.333336507720947,14.166666984558105C11.333336507720947,14.166666984558105,11.333336507720947,15.166666984558105,11.333336507720947,15.166666984558105C11.333336507720947,15.166666984558105,11.333336507720947,15.166666984558105,11.333336507720947,15.166666984558105ZM4.666666507720947,15.166666984558105C4.666666507720947,15.166666984558105,11.333336507720947,15.166666984558105,11.333336507720947,15.166666984558105C11.333336507720947,15.166666984558105,11.333336507720947,14.166666984558105,11.333336507720947,14.166666984558105C11.333336507720947,14.166666984558105,4.666666507720947,14.166666984558105,4.666666507720947,14.166666984558105C4.666666507720947,14.166666984558105,4.666666507720947,15.166666984558105,4.666666507720947,15.166666984558105C4.666666507720947,15.166666984558105,4.666666507720947,15.166666984558105,4.666666507720947,15.166666984558105Z" fill="#161616" fill-opacity="1"/></g></g></svg>