<svg width="52" height="52" viewBox="0 0 52 52" fill="none" xmlns="http://www.w3.org/2000/svg">
<rect width="52" height="52" rx="26" fill="#FD4C00"/>
<g clip-path="url(#clip0_8537_19710)">
<path d="M39.5 8H12.5C10.0147 8 8 10.0147 8 12.5V39.5C8 41.9853 10.0147 44 12.5 44H39.5C41.9853 44 44 41.9853 44 39.5V12.5C44 10.0147 41.9853 8 39.5 8Z" fill="#FD4C00"/>
<path d="M36.7987 12.5H15.2012V15.1992C15.2012 16.6895 16.41 17.8984 17.9004 17.8984H34.0996V34.0976H23.3008C21.8104 34.0976 20.6016 35.3064 20.6016 36.7968V39.4959H36.8008C38.2911 39.4959 39.5 38.2871 39.5 36.7968V15.2012C39.5 13.7109 38.2911 12.502 36.8008 12.502L36.7987 12.5Z" fill="white"/>
<path d="M22.3754 30.7665C23.0619 30.0801 23.807 30.0072 25.9494 30.0072C28.0917 30.0072 29.9992 28.1949 29.9992 25.9574C29.9992 23.7199 28.1869 21.9076 25.9494 21.9076C23.7119 21.9076 21.8996 23.7199 21.8996 25.9574C21.8996 28.9704 21.4197 29.3876 21.1828 29.669C20.8163 30.1044 17.6372 33.2146 17.6372 33.2146C17.2707 33.5346 16.4486 34.0995 15.2012 34.0995H13.8506C13.1054 34.0995 12.5 34.7029 12.5 35.4501V38.1493C12.5 38.8945 13.1034 39.4999 13.8506 39.4999H16.5498C17.295 39.4999 17.9004 38.8965 17.9004 38.1493V36.7987C17.9004 35.1403 18.9999 34.1481 18.9999 34.1481L22.3754 30.7665Z" fill="white"/>
</g>
<defs>
<clipPath id="clip0_8537_19710">
<rect width="36" height="36" fill="white" transform="translate(8 8)"/>
</clipPath>
</defs>
</svg>
