<svg xmlns="http://www.w3.org/2000/svg" xmlns:xlink="http://www.w3.org/1999/xlink" fill="none" version="1.1" width="52" height="52" viewBox="0 0 52 52"><defs><linearGradient x1="0.5" y1="-3.0616171314629196e-17" x2="0.5" y2="1" id="master_svg0_0_327"><stop offset="0%" stop-color="#78E1FB" stop-opacity="1"/><stop offset="100%" stop-color="#70FFBD" stop-opacity="1"/></linearGradient></defs><g><g><ellipse cx="26" cy="26" rx="26" ry="26" fill="#FFFFFF" fill-opacity="1"/><ellipse cx="26" cy="26" rx="25.399999976158142" ry="25.399999976158142" fill-opacity="0" stroke-opacity="1" stroke="#E0E0E0" fill="none" stroke-width="1.2000000476837158"/></g><g><path d="M15.5336121484375,33.596962500000004L18.8724121484375,33.596962500000004L18.8724121484375,31.2021625L16.7283421484375,31.2021625L16.7283421484375,15.7707425L29.2106521484375,15.7707425C32.5896521484375,15.7707425,34.9509521484375,17.6808325,36.2824521484375,20.3362325C37.0223521484375,21.8521625,37.4623521484375,23.499962500000002,37.5777521484375,25.1868625C37.7139521484375,26.9080625,37.5395521484375,28.6400625,37.0628521484375,30.2980625C36.137652148437496,33.4258625,34.0418521484375,35.987562499999996,30.8236521484375,36.557762499999995C29.5801521484375,36.7122625,28.325752148437502,36.7571625,27.074552148437498,36.692162499999995C26.4028521484375,36.667762499999995,25.7068521484375,36.667762499999995,25.3729521484375,36.667762499999995L25.3729521484375,39.0746625L27.0383521484375,39.0746625C28.4362521484375,39.1499625,29.837952148437502,39.0953625,31.2259521484375,38.911762499999995C35.4698521484375,38.1664625,38.1690521484375,34.9205625,39.335652148437504,30.9741625C39.906052148437496,29.0371625,40.1214521484375,27.0108625,39.9711521484375,24.9953625C39.8306521484375,22.9911325,39.3060521484375,21.0337525,38.426452148437505,19.232532499999998C36.7088521484375,15.7951725,33.6596521484375,13.3515625,29.2347521484375,13.3515625L14.3509521484375,13.3515625L14.3509521484375,33.596962500000004L15.5336121484375,33.596962500000004ZM20.1717121484375,18.8945125L28.6192521484375,18.8945125C28.6393521484375,18.8945125,34.3796521484375,19.3017825,34.395752148437495,26.3638625C34.395752148437495,33.287462500000004,29.8059521484375,33.4910625,28.1687521484375,33.568462499999995L28.0480521484375,33.568462499999995C27.5098521484375,33.5963625,25.0929521484375,33.6006625,22.5491021484375,33.5957625L22.5491021484375,39.0666625L21.3624221484375,39.0788625L14.4877201484375,39.054362499999996L14.4796751484375,36.6555625L20.1717121484375,36.688162500000004L20.1717121484375,33.588862500000005L20.1596521484375,33.588862500000005L20.1596521484375,31.1900625L20.1717121484375,31.1900625L20.1717121484375,21.3177625L20.1596521484375,21.3177625L20.1717121484375,18.8945125ZM28.0520521484375,31.1900625L22.5491021484375,31.1900625L22.5491021484375,21.3177625L28.4865521484375,21.3177625C28.9048521484375,21.366642499999998,32.0224521484375,21.875722500000002,32.0224521484375,26.384162500000002C32.030452148437504,31.0026625,29.0979521484375,31.1411625,28.0520521484375,31.1900625Z" fill-rule="evenodd" fill="url(#master_svg0_0_327)" fill-opacity="1"/></g></g></svg>