<svg xmlns="http://www.w3.org/2000/svg" xmlns:xlink="http://www.w3.org/1999/xlink" fill="none" version="1.1" width="24" height="24" viewBox="0 0 24 24"><defs><clipPath id="master_svg0_0_61389"><rect x="0" y="0" width="24" height="24" rx="0"/></clipPath></defs><g clip-path="url(#master_svg0_0_61389)"><g><path d="M5.25,11.25C4.835786,11.25,4.5,11.585786,4.5,12C4.5,12.41421,4.835786,12.75,5.25,12.75C5.25,12.75,5.25,11.25,5.25,11.25C5.25,11.25,5.25,11.25,5.25,11.25ZM19.25,12.75C19.6642,12.75,20,12.41421,20,12C20,11.585786,19.6642,11.25,19.25,11.25C19.25,11.25,19.25,12.75,19.25,12.75C19.25,12.75,19.25,12.75,19.25,12.75ZM5.25,12.75C5.25,12.75,19.25,12.75,19.25,12.75C19.25,12.75,19.25,11.25,19.25,11.25C19.25,11.25,5.25,11.25,5.25,11.25C5.25,11.25,5.25,12.75,5.25,12.75C5.25,12.75,5.25,12.75,5.25,12.75Z" fill="#161616" fill-opacity="1"/></g></g></svg>