<svg width="16" height="16" viewBox="0 0 16 16" fill="none" xmlns="http://www.w3.org/2000/svg">
<path d="M8 1.625C6.73915 1.625 5.50661 1.99889 4.45824 2.69938C3.40988 3.39988 2.59278 4.39551 2.11027 5.56039C1.62776 6.72527 1.50152 8.00707 1.7475 9.2437C1.99348 10.4803 2.60064 11.6162 3.4922 12.5078C4.38376 13.3994 5.51967 14.0065 6.7563 14.2525C7.99293 14.4985 9.27473 14.3722 10.4396 13.8897C11.6045 13.4072 12.6001 12.5901 13.3006 11.5418C14.0011 10.4934 14.375 9.26086 14.375 8C14.373 6.30985 13.7007 4.6895 12.5056 3.49439C11.3105 2.29927 9.69015 1.62698 8 1.625ZM8 13.625C6.88748 13.625 5.79995 13.2951 4.87492 12.677C3.94989 12.0589 3.22892 11.1804 2.80318 10.1526C2.37744 9.12476 2.26604 7.99376 2.48309 6.90262C2.70013 5.81147 3.23586 4.80919 4.02253 4.02252C4.8092 3.23585 5.81148 2.70012 6.90262 2.48308C7.99376 2.26604 9.12476 2.37743 10.1526 2.80318C11.1804 3.22892 12.0589 3.94989 12.677 4.87492C13.2951 5.79994 13.625 6.88748 13.625 8C13.6233 9.49133 13.0302 10.9211 11.9757 11.9756C10.9211 13.0302 9.49134 13.6233 8 13.625ZM8.625 8C8.625 8.12361 8.58835 8.24445 8.51967 8.34723C8.451 8.45001 8.35338 8.53012 8.23918 8.57743C8.12498 8.62473 7.99931 8.63711 7.87807 8.61299C7.75683 8.58887 7.64547 8.52935 7.55806 8.44194C7.47065 8.35453 7.41113 8.24317 7.38701 8.12193C7.3629 8.00069 7.37527 7.87503 7.42258 7.76082C7.46988 7.64662 7.54999 7.54901 7.65277 7.48033C7.75555 7.41166 7.87639 7.375 8 7.375C8.16576 7.375 8.32473 7.44085 8.44195 7.55806C8.55916 7.67527 8.625 7.83424 8.625 8ZM5.875 8C5.875 8.12361 5.83835 8.24445 5.76967 8.34723C5.701 8.45001 5.60338 8.53012 5.48918 8.57743C5.37498 8.62473 5.24931 8.63711 5.12807 8.61299C5.00683 8.58887 4.89547 8.52935 4.80806 8.44194C4.72065 8.35453 4.66113 8.24317 4.63701 8.12193C4.6129 8.00069 4.62527 7.87503 4.67258 7.76082C4.71988 7.64662 4.79999 7.54901 4.90277 7.48033C5.00555 7.41166 5.12639 7.375 5.25 7.375C5.41576 7.375 5.57473 7.44085 5.69194 7.55806C5.80915 7.67527 5.875 7.83424 5.875 8ZM11.375 8C11.375 8.12361 11.3383 8.24445 11.2697 8.34723C11.201 8.45001 11.1034 8.53012 10.9892 8.57743C10.875 8.62473 10.7493 8.63711 10.6281 8.61299C10.5068 8.58887 10.3955 8.52935 10.3081 8.44194C10.2207 8.35453 10.1611 8.24317 10.137 8.12193C10.1129 8.00069 10.1253 7.87503 10.1726 7.76082C10.2199 7.64662 10.3 7.54901 10.4028 7.48033C10.5056 7.41166 10.6264 7.375 10.75 7.375C10.9158 7.375 11.0747 7.44085 11.1919 7.55806C11.3092 7.67527 11.375 7.83424 11.375 8Z" fill="#161616"/>
</svg>
