<svg xmlns="http://www.w3.org/2000/svg" xmlns:xlink="http://www.w3.org/1999/xlink" fill="none" version="1.1" width="16" height="16" viewBox="0 0 16 16"><defs><clipPath id="master_svg0_0_5444"><rect x="0" y="0" width="16" height="16" rx="0"/></clipPath></defs><g clip-path="url(#master_svg0_0_5444)"><g><g><path d="M12.78939913110733,12.42108341112137C12.78939913110733,12.42108341112137,12.78939913110733,12.92108341112137,12.78939913110733,12.92108341112137C13.06553913110733,12.92108341112137,13.28939913110733,12.697183411121369,13.28939913110733,12.42108341112137C13.28939913110733,12.42108341112137,12.78939913110733,12.42108341112137,12.78939913110733,12.42108341112137C12.78939913110733,12.42108341112137,12.78939913110733,12.42108341112137,12.78939913110733,12.42108341112137ZM3.9473491311073303,12.42108341112137C3.9473491311073303,12.42108341112137,3.4473491311073303,12.42108341112137,3.4473491311073303,12.42108341112137C3.4473491311073303,12.697183411121369,3.67120713110733,12.92108341112137,3.9473491311073303,12.92108341112137C3.9473491311073303,12.92108341112137,3.9473491311073303,12.42108341112137,3.9473491311073303,12.42108341112137C3.9473491311073303,12.42108341112137,3.9473491311073303,12.42108341112137,3.9473491311073303,12.42108341112137ZM12.78939913110733,11.921073411121368C12.78939913110733,11.921073411121368,3.9473491311073303,11.921073411121368,3.9473491311073303,11.921073411121368C3.9473491311073303,11.921073411121368,3.9473491311073303,12.92108341112137,3.9473491311073303,12.92108341112137C3.9473491311073303,12.92108341112137,12.78939913110733,12.92108341112137,12.78939913110733,12.92108341112137C12.78939913110733,12.92108341112137,12.78939913110733,11.921073411121368,12.78939913110733,11.921073411121368C12.78939913110733,11.921073411121368,12.78939913110733,11.921073411121368,12.78939913110733,11.921073411121368ZM4.44734913110733,12.42108341112137C4.44734913110733,12.42108341112137,4.44734913110733,7.263203411121369,4.44734913110733,7.263203411121369C4.44734913110733,7.263203411121369,3.4473491311073303,7.263203411121369,3.4473491311073303,7.263203411121369C3.4473491311073303,7.263203411121369,3.4473491311073303,12.42108341112137,3.4473491311073303,12.42108341112137C3.4473491311073303,12.42108341112137,4.44734913110733,12.42108341112137,4.44734913110733,12.42108341112137C4.44734913110733,12.42108341112137,4.44734913110733,12.42108341112137,4.44734913110733,12.42108341112137ZM4.44734913110733,7.263203411121369C4.44734913110733,5.0976934111213685,6.2028591311073304,3.3421834111213684,8.36836913110733,3.3421834111213684C8.36836913110733,3.3421834111213684,8.36836913110733,2.3421834111213684,8.36836913110733,2.3421834111213684C5.65056913110733,2.3421834111213684,3.4473491311073303,4.545403411121368,3.4473491311073303,7.263203411121369C3.4473491311073303,7.263203411121369,4.44734913110733,7.263203411121369,4.44734913110733,7.263203411121369C4.44734913110733,7.263203411121369,4.44734913110733,7.263203411121369,4.44734913110733,7.263203411121369ZM8.36836913110733,3.3421834111213684C10.53388913110733,3.3421834111213684,12.28939913110733,5.0976934111213685,12.28939913110733,7.263203411121369C12.28939913110733,7.263203411121369,13.28939913110733,7.263203411121369,13.28939913110733,7.263203411121369C13.28939913110733,4.545403411121368,11.08616913110733,2.3421834111213684,8.36836913110733,2.3421834111213684C8.36836913110733,2.3421834111213684,8.36836913110733,3.3421834111213684,8.36836913110733,3.3421834111213684C8.36836913110733,3.3421834111213684,8.36836913110733,3.3421834111213684,8.36836913110733,3.3421834111213684ZM12.28939913110733,7.263203411121369C12.28939913110733,7.263203411121369,12.28939913110733,12.42108341112137,12.28939913110733,12.42108341112137C12.28939913110733,12.42108341112137,13.28939913110733,12.42108341112137,13.28939913110733,12.42108341112137C13.28939913110733,12.42108341112137,13.28939913110733,7.263203411121369,13.28939913110733,7.263203411121369C13.28939913110733,7.263203411121369,12.28939913110733,7.263203411121369,12.28939913110733,7.263203411121369C12.28939913110733,7.263203411121369,12.28939913110733,7.263203411121369,12.28939913110733,7.263203411121369Z" fill="#161616" fill-opacity="1"/></g><g><path d="M2.473675787448883,14.500000298023224C2.197533787448883,14.500000298023224,1.973675787448883,14.723858298023224,1.973675787448883,15.000000298023224C1.973675787448883,15.276142298023224,2.197533787448883,15.500000298023224,2.473675787448883,15.500000298023224C2.473675787448883,15.500000298023224,2.473675787448883,14.500000298023224,2.473675787448883,14.500000298023224C2.473675787448883,14.500000298023224,2.473675787448883,14.500000298023224,2.473675787448883,14.500000298023224ZM14.263075787448884,15.500000298023224C14.539175787448883,15.500000298023224,14.763075787448884,15.276142298023224,14.763075787448884,15.000000298023224C14.763075787448884,14.723858298023224,14.539175787448883,14.500000298023224,14.263075787448884,14.500000298023224C14.263075787448884,14.500000298023224,14.263075787448884,15.500000298023224,14.263075787448884,15.500000298023224C14.263075787448884,15.500000298023224,14.263075787448884,15.500000298023224,14.263075787448884,15.500000298023224ZM2.473675787448883,15.500000298023224C2.473675787448883,15.500000298023224,14.263075787448884,15.500000298023224,14.263075787448884,15.500000298023224C14.263075787448884,15.500000298023224,14.263075787448884,14.500000298023224,14.263075787448884,14.500000298023224C14.263075787448884,14.500000298023224,2.473675787448883,14.500000298023224,2.473675787448883,14.500000298023224C2.473675787448883,14.500000298023224,2.473675787448883,15.500000298023224,2.473675787448883,15.500000298023224C2.473675787448883,15.500000298023224,2.473675787448883,15.500000298023224,2.473675787448883,15.500000298023224Z" fill="#161616" fill-opacity="1"/></g><g><path d="M1.158112015247345,3.841426264478302C0.896140015247345,3.754102264478302,0.612980015247345,3.895682264478302,0.525656115247345,4.157654164478302C0.43833211524734494,4.419626164478302,0.579912115247345,4.702786164478302,0.841884015247345,4.7901101644783015C0.841884015247345,4.7901101644783015,1.158112015247345,3.841426264478302,1.158112015247345,3.841426264478302C1.158112015247345,3.841426264478302,1.158112015247345,3.841426264478302,1.158112015247345,3.841426264478302ZM1.9471420152473449,5.158532164478302C2.209112015247345,5.245852164478302,2.492272015247345,5.104272164478302,2.579602015247345,4.842302164478302C2.666922015247345,4.580329164478302,2.525342015247345,4.297169164478302,2.263372015247345,4.209845164478302C2.263372015247345,4.209845164478302,1.9471420152473449,5.158532164478302,1.9471420152473449,5.158532164478302C1.9471420152473449,5.158532164478302,1.9471420152473449,5.158532164478302,1.9471420152473449,5.158532164478302ZM0.841884015247345,4.7901101644783015C0.841884015247345,4.7901101644783015,1.9471420152473449,5.158532164478302,1.9471420152473449,5.158532164478302C1.9471420152473449,5.158532164478302,2.263372015247345,4.209845164478302,2.263372015247345,4.209845164478302C2.263372015247345,4.209845164478302,1.158112015247345,3.841426264478302,1.158112015247345,3.841426264478302C1.158112015247345,3.841426264478302,0.841884015247345,4.7901101644783015,0.841884015247345,4.7901101644783015C0.841884015247345,4.7901101644783015,0.841884015247345,4.7901101644783015,0.841884015247345,4.7901101644783015Z" fill="#161616" fill-opacity="1"/></g><g><path d="M4.790108257129669,0.8418859225959778C4.702784257129669,0.5799140225959778,4.419624257129669,0.43833402259597776,4.157652257129669,0.5256580225959778C3.895680357129669,0.6129819225959778,3.754100357129669,0.8961419225959778,3.8414243571296693,1.1581139225959778C3.8414243571296693,1.1581139225959778,4.790108257129669,0.8418859225959778,4.790108257129669,0.8418859225959778C4.790108257129669,0.8418859225959778,4.790108257129669,0.8418859225959778,4.790108257129669,0.8418859225959778ZM4.209843257129669,2.263373922595978C4.2971672571296695,2.5253439225959777,4.580327257129669,2.666923922595978,4.842300257129669,2.579603922595978C5.104270257129669,2.492273922595978,5.2458502571296695,2.2091139225959777,5.158530257129669,1.9471439225959777C5.158530257129669,1.9471439225959777,4.209843257129669,2.263373922595978,4.209843257129669,2.263373922595978C4.209843257129669,2.263373922595978,4.209843257129669,2.263373922595978,4.209843257129669,2.263373922595978ZM3.8414243571296693,1.1581139225959778C3.8414243571296693,1.1581139225959778,4.209843257129669,2.263373922595978,4.209843257129669,2.263373922595978C4.209843257129669,2.263373922595978,5.158530257129669,1.9471439225959777,5.158530257129669,1.9471439225959777C5.158530257129669,1.9471439225959777,4.790108257129669,0.8418859225959778,4.790108257129669,0.8418859225959778C4.790108257129669,0.8418859225959778,3.8414243571296693,1.1581139225959778,3.8414243571296693,1.1581139225959778C3.8414243571296693,1.1581139225959778,3.8414243571296693,1.1581139225959778,3.8414243571296693,1.1581139225959778Z" fill="#161616" fill-opacity="1"/></g><g><path d="M2.856997849903107,3.564066140232086C3.052257849903107,3.759326140232086,3.3688378499031066,3.759326140232086,3.5640978499031064,3.564066140232086C3.7593678499031067,3.368806140232086,3.7593678499031067,3.052216140232086,3.5640978499031064,2.856956140232086C3.5640978499031064,2.856956140232086,2.856997849903107,3.564066140232086,2.856997849903107,3.564066140232086C2.856997849903107,3.564066140232086,2.856997849903107,3.564066140232086,2.856997849903107,3.564066140232086ZM2.4588408499031065,1.7517021402320863C2.2635778499031067,1.5564401402320862,1.9469958499031068,1.5564411402320861,1.7517338499031068,1.7517031402320862C1.5564718499031067,1.9469661402320861,1.5564728499031066,2.263548140232086,1.7517348499031067,2.458810140232086C1.7517348499031067,2.458810140232086,2.4588408499031065,1.7517021402320863,2.4588408499031065,1.7517021402320863C2.4588408499031065,1.7517021402320863,2.4588408499031065,1.7517021402320863,2.4588408499031065,1.7517021402320863ZM3.5640978499031064,2.856956140232086C3.5640978499031064,2.856956140232086,2.4588408499031065,1.7517021402320863,2.4588408499031065,1.7517021402320863C2.4588408499031065,1.7517021402320863,1.7517348499031067,2.458810140232086,1.7517348499031067,2.458810140232086C1.7517348499031067,2.458810140232086,2.856997849903107,3.564066140232086,2.856997849903107,3.564066140232086C2.856997849903107,3.564066140232086,3.5640978499031064,2.856956140232086,3.5640978499031064,2.856956140232086C3.5640978499031064,2.856956140232086,3.5640978499031064,2.856956140232086,3.5640978499031064,2.856956140232086Z" fill="#161616" fill-opacity="1"/></g></g></g></svg>